<svg xmlns="http://www.w3.org/2000/svg" width="933.333" height="933.333" version="1" viewBox="0 0 700 700"><path d="M329.8.5c-.2.1-4.1.5-8.8.9-10 .7-22.5 2.2-29.5 3.6-2.7.5-6.1 1.2-7.5 1.4-43.1 7.9-90.8 27.3-127.5 51.9-6.9 4.6-29.7 21.7-30.5 22.8-.3.3-2.5 2.3-5 4.4-8.5 7-21.6 20.1-36.1 36.1-10.7 11.8-28.6 37-38.6 54.5-15.8 27.4-30.9 65.6-36.9 93.2-2 9-5.3 27.2-5.9 32.2-.4 3.3-.9 6.9-1.1 8-1.8 9.5-2.5 52.2-1.2 69 .8 10.4 2.5 23.3 4.2 32 .2 1.1.6 3.6 1 5.5 4.9 27.2 15.6 59.5 28.3 85.7 44.9 92.8 127.9 161.1 227 186.8 7.2 1.9 14.2 3.6 15.5 3.9 1.3.2 6 1.1 10.6 2 4.6.9 11.1 1.9 14.5 2.2 3.4.3 6.5.8 6.8.9 1.5 1 22.7 2 40.9 2 18.8 0 34.1-.8 43-2.1 14.4-2.1 29.5-4.8 34.5-6.1 3.3-.8 6.7-1.6 7.5-1.8 10.9-2.2 38.8-11.7 54.9-18.7 12.1-5.3 30.8-14.8 35.3-17.9 1.4-1.1 2.9-1.9 3.3-1.9 2.5 0 38.4-25.8 49.4-35.4 12.3-10.8 29.5-28 36.6-36.6 2.1-2.5 4.1-4.7 4.4-5 .4-.3 4.5-5.5 9.1-11.5 33.2-43.6 54.7-91.5 65.4-145.6 1.4-7 2.8-15.5 3.2-19 .3-3.5.8-6.7 1-7 .9-1.7 1.9-21.4 1.8-39.9 0-18.8-.6-33.1-1.9-42-.3-1.9-.7-5.6-1-8.1-.3-2.5-.7-5.4-.9-6.5-.2-1-1.1-6-2.1-10.9-8.5-45.6-27.6-91.5-54.3-130.5-5.6-8.2-19.4-26.5-21.1-28-.3-.3-3.5-3.8-7-7.8C563.3 62.6 494.3 22.5 422.3 7.5c-10-2-24.8-4.3-39.3-6-5.6-.7-52.6-1.6-53.2-1zm49 61c8.4 1 12.4 1.5 15.7 2 1.7.3 4.8.7 7 1.1 7.8 1.1 25.1 5.2 35.3 8.3 75.7 23 139 77.2 173.7 148.6 14.2 29.3 22.1 55.4 26.9 89.5 2.5 17.6 2.6 55 .2 70.5-.3 1.6-.7 4.8-1 7-.7 5.6-3.4 20.4-4.1 22.6-.3.9-.7 2.6-.9 3.6-1.1 5.4-6.2 22.1-9.8 31.7-11.4 31-27.6 58.6-51.4 87.6-3.3 4-24.7 25.4-29.9 29.8-9.6 8.3-27.2 21.2-38.1 27.8-11.2 6.8-38.3 20.4-40.7 20.4-.7 0-1.7.4-2.3.9-2.5 2.4-39.2 13.3-52.4 15.6-1.9.3-4.2.8-5 1-.8.2-4.2.7-7.5 1.1-3.3.3-6.3.8-6.6 1-1.2.7-22.9 1.7-35.4 1.8-12 0-28.9-1-33.4-1.9-1.3-.2-4.9-.7-8-1-9.5-1.1-35-7.1-47.6-11.3-20.6-6.9-46.9-19-59.3-27.3-2.4-1.6-4.5-2.9-4.7-2.9-.3 0-4.4-2.8-9.2-6.2-48.1-33.9-83-78-104.1-131.3-18-45.4-23.9-97.5-16.7-146 1.8-11.6 2.4-15.4 3-17.5.2-.8.7-2.9 1-4.6.8-5 7.1-26.3 10.4-35 22-59.5 63.3-110.3 117-144.3 8.6-5.5 30.4-16.9 40.1-21 14.6-6.2 41.1-14.5 53.3-16.6 1.8-.4 5.1-1 7.4-1.5 2.2-.5 6.5-1.2 9.5-1.6 2.9-.3 6.4-.8 7.8-1 1.4-.2 7-.7 12.5-1 5.5-.4 10.1-.7 10.2-.8.6-.5 31.9.2 37.1.9z"/><path d="M333.9 133.4c-.2.2-3.1.7-6.4 1-9.2 1-12.2 1.5-23.5 4.2-11.7 2.7-26 7.2-27.4 8.5-.6.5-1.7.9-2.5.9-2.5 0-27.1 12.5-35.6 18-23.3 15.3-40.5 31.3-57.1 53.2-4.1 5.3-7.4 10.1-7.4 10.7 0 .5-.4 1.1-.8 1.3-1.4.5-9.1 14.3-14.5 25.7-7.7 16.3-13.7 35.8-17.1 55.6-2.2 12.4-2.9 47.7-1.3 60 4 29.9 13.7 58.8 28.3 83.5 5.3 9 18 26.4 23.2 31.9 1.5 1.5 4.5 4.8 6.8 7.2 9.4 10.2 23.5 21.9 38.2 31.8 6.1 4.1 26.7 15 34.7 18.3 5 2.1 24.1 8.5 27.5 9.2 12.6 2.7 22.6 4.6 28 5.3 8.2 1 43.5 1.1 51.8 0 48.6-6 95.5-29.5 128.3-64.2 8.4-8.9 10.1-10.9 15.8-18.5 20.6-27.1 33.4-55.1 40.1-88 1.1-5.3 2.2-12.3 2.6-15.6.3-3.2.7-7.5.9-9.4.6-4.5.6-30.6 0-34.5-.2-1.7-.6-5.5-.9-8.5-.3-3-1-7.8-1.6-10.5-.5-2.8-1.2-6.1-1.4-7.5-5.7-32.7-25.5-71.6-50.7-99.4-33.7-37.3-79.1-61.3-130.4-69.2-4.4-.6-47-1.6-47.6-1z"/></svg>