<?xml version="1.0" standalone="no"?>
<!DOCTYPE svg PUBLIC "-https://W3Chttps://DTD SVG 20010904https://EN"
 "https://www.w3.org/TR/2001/REC-SVG-20010904/DTD/svg10.dtd">
<svg version="1.0" xmlns="https://www.w3.org/2000/svg"
 width="432.000000pt" height="432.000000pt" viewBox="0 0 432.000000 432.000000"
 preserveAspectRatio="xMidYMid meet">
<metadata>
Created by potrace 1.11, written by Peter Selinger 2001-2013
</metadata>
<g transform="translate(0.000000,432.000000) scale(0.100000,-0.100000)"
fill="#000000" stroke="none">
<path d="M1940 4309 c-979 -101 -1764 -849 -1917 -1830 -24 -158 -24 -480 0
-638 99 -633 462 -1184 1004 -1519 241 -150 522 -253 818 -299 153 -24 478
-24 634 0 945 148 1670 873 1818 1818 24 158 24 480 0 638 -99 633 -462 1184
-1004 1519 -397 247 -885 359 -1353 311z m431 -474 c281 -37 515 -126 754
-288 119 -81 341 -303 422 -422 242 -358 343 -769 288 -1176 -52 -393 -204
-700 -484 -979 -282 -281 -589 -433 -980 -485 -407 -55 -818 46 -1176 288
-119 81 -341 303 -422 422 -120 178 -210 376 -254 561 -114 480 -26 956 254
1369 81 119 303 341 422 422 357 242 769 343 1176 288z"/>
<path d="M1986 3429 c-541 -75 -968 -476 -1083 -1019 -24 -118 -24 -372 0
-490 109 -515 492 -898 1007 -1007 118 -24 372 -24 490 0 515 109 898 492
1007 1007 24 118 24 372 0 490 -109 513 -494 900 -1002 1005 -96 20 -323 28
-419 14z"/>
</g>
</svg>
