<svg xmlns="http://www.w3.org/2000/svg" width="346" height="346"><defs><linearGradient id="a" x1="23%" x2="77%" y1="4%" y2="92%"><stop offset="0%" stop-color="#FAD961"/><stop offset="100%" stop-color="#F76B1C"/></linearGradient></defs><g fill="none" fill-rule="evenodd"><circle cx="173" cy="173" r="173" fill="url(#a)"/><path fill="#FFF" d="M280 87h-87v18h30v71a47 47 0 0 1-24 6 53 53 0 0 1-28-7 41 41 0 0 0-17-9v-1a40 40 0 0 0 21-35c0-24-18-43-47-43-19 0-33 8-41 18l16 14c5-7 12-12 25-12 15 0 25 9 25 24 0 18-12 28-30 28h-9v20h16c20 0 31 9 31 25s-11 30-32 30a48 48 0 0 1-37-18l-15 15a72 72 0 0 0 52 22c33 0 54-22 54-49l-1-7a50 50 0 0 0 41 0v75h22V106h35V87z"/></g></svg>