<svg xmlns="http://www.w3.org/2000/svg" width="346" height="346"><defs><linearGradient id="a" x1="17%" x2="59%" y1="13%" y2="98%"><stop offset="0%" stop-color="#FF792D"/><stop offset="100%" stop-color="#F80077"/></linearGradient></defs><g fill="none" fill-rule="evenodd"><circle cx="173" cy="173" r="173" fill="url(#a)"/><path fill="#FFF" d="M210 209h-2l-72 47-18-16 68-37v-1a197 197 0 0 1-54-23c-15 7-32 12-51 16l-15-18a328 328 0 0 0 48-12 54 54 0 0 1-21-41c0-22 17-40 44-40 23 0 42 16 42 40 0 19-11 33-28 44a241 241 0 0 0 58 22V87h57v18h-35v167h-21v-63zm-96-85c0 13 7 23 18 33 15-8 26-18 26-33 0-13-9-22-21-22-13 0-23 9-23 22z"/></g></svg>