<svg xmlns="http://www.w3.org/2000/svg" width="346" height="346"><defs><linearGradient id="a" x1="17%" x2="59%" y1="13%" y2="98%"><stop offset="0%" stop-color="#B3B424"/><stop offset="100%" stop-color="#0F7030"/></linearGradient></defs><g fill="none" fill-rule="evenodd"><circle cx="173" cy="173" r="173" fill="url(#a)"/><path fill="#FFF" d="M222 105h34V87H87v18h114v72c0 24-15 42-38 42a32 32 0 0 1-34-33c0-26 24-38 48-31l-2-21c-32-6-69 11-69 52 0 32 25 53 53 53 22 0 35-10 41-17h1v50h22V105z"/></g></svg>