<svg width="436" height="583" viewBox="0 0 436 583" xmlns="http://www.w3.org/2000/svg" xmlns:xlink="http://www.w3.org/1999/xlink"><defs><rect id="b" width="94" height="39" rx="16"/><filter x="-46.8%" y="-79.5%" width="193.6%" height="325.6%" filterUnits="objectBoundingBox" id="a"><feOffset dy="13" in="SourceAlpha" result="shadowOffsetOuter1"/><feGaussianBlur stdDeviation="12.5" in="shadowOffsetOuter1" result="shadowBlurOuter1"/><feColorMatrix values="0 0 0 0 0 0 0 0 0 0 0 0 0 0 0 0 0 0 0.12 0" in="shadowBlurOuter1"/></filter><rect id="d" width="233" height="110" rx="16"/><filter x="-18.9%" y="-28.2%" width="137.8%" height="180%" filterUnits="objectBoundingBox" id="c"><feOffset dy="13" in="SourceAlpha" result="shadowOffsetOuter1"/><feGaussianBlur stdDeviation="12.5" in="shadowOffsetOuter1" result="shadowBlurOuter1"/><feColorMatrix values="0 0 0 0 0 0 0 0 0 0 0 0 0 0 0 0 0 0 0.12 0" in="shadowBlurOuter1"/></filter><path d="M16 0h201c8.837 0 16 7.163 16 16v41c0 8.837-7.163 16-16 16H16C7.163 73 0 65.837 0 57V16C0 7.163 7.163 0 16 0z" id="f"/><filter x="-18.9%" y="-42.5%" width="137.8%" height="220.5%" filterUnits="objectBoundingBox" id="e"><feOffset dy="13" in="SourceAlpha" result="shadowOffsetOuter1"/><feGaussianBlur stdDeviation="12.5" in="shadowOffsetOuter1" result="shadowBlurOuter1"/><feColorMatrix values="0 0 0 0 0 0 0 0 0 0 0 0 0 0 0 0 0 0 0.12 0" in="shadowBlurOuter1"/></filter><path d="M16 .002h139c8.837 0 16 7.163 16 16v40.996c0 8.837-7.163 16-16 16H16c-8.837 0-16-7.163-16-16V16.002c0-8.837 7.163-16 16-16z" id="h"/><filter x="-25.7%" y="-42.5%" width="151.5%" height="220.6%" filterUnits="objectBoundingBox" id="g"><feOffset dy="13" in="SourceAlpha" result="shadowOffsetOuter1"/><feGaussianBlur stdDeviation="12.5" in="shadowOffsetOuter1" result="shadowBlurOuter1"/><feColorMatrix values="0 0 0 0 0 0 0 0 0 0 0 0 0 0 0 0 0 0 0.12 0" in="shadowBlurOuter1"/></filter><linearGradient x1="50%" y1="0%" x2="50%" y2="100%" id="i"><stop stop-color="#FF5F4E" offset="0%"/><stop stop-color="#00E7F0" offset="100%"/></linearGradient><linearGradient x1="0%" y1="50%" y2="50%" id="k"><stop stop-color="#8800F8" offset="0%"/><stop stop-color="#9F041B" stop-opacity="0" offset="100%"/></linearGradient><path d="M14 0l14 21H0L14 0zm.063 6.78L6.9 17.528h14.327L14.063 6.78z" id="j"/><path d="M14 0l14 21H0L14 0zm.063 6.78L6.9 17.528h14.327L14.063 6.78z" id="l"/></defs><g fill="none" fill-rule="evenodd"><rect stroke="#EFF1F5" stroke-width="2" fill="#FFF" fill-rule="nonzero" x="1" y="1" width="434" height="581" rx="5"/><path d="M6 1h424c2.76 0 5 2.24 5 5v49H1V6c0-2.76 2.24-5 5-5z" stroke="#EFF1F5" stroke-width="2" fill="#FFF" fill-rule="nonzero"/><g transform="translate(74 443)"><use fill="#000" filter="url(#a)" xlink:href="#b"/><use fill="#FFF" xlink:href="#b"/></g><g transform="translate(105 460)"><circle fill="#F13564" cx="3" cy="3" r="3"/><circle fill="#EF5F83" cx="13" cy="3" r="3"/><circle fill="#F8CAD7" cx="23" cy="3" r="3"/></g><g transform="translate(178 313)"><use fill="#000" filter="url(#c)" xlink:href="#d"/><use fill="#E67994" xlink:href="#d"/></g><g fill="#FFF"><path d="M207.344 334.088h1.008v4.298h5.404v-4.298h1.008V344h-1.008v-4.69h-5.404V344h-1.008v-9.912zm11.116.84c0 .196-.07.357-.21.483-.14.127-.294.19-.462.19-.168 0-.322-.063-.462-.19-.14-.125-.21-.286-.21-.482s.07-.357.21-.483c.14-.126.294-.19.462-.19.168 0 .322.064.462.19s.21.287.21.483zm-.21 9.072h-.924v-6.552h.924V344zm7.756-3.528h4.298l-2.142-5.208-2.156 5.208zm-1.47 3.528h-1.176l4.312-9.912h.98l4.312 9.912h-1.176l-1.092-2.604h-5.068L224.536 344zm9.534-4.508c0-.29-.007-.583-.02-.882-.015-.3-.027-.686-.036-1.162h.91v1.218h.028c.065-.177.16-.348.28-.51.12-.164.268-.31.44-.442.174-.13.374-.236.603-.315.23-.08.488-.12.777-.12.26 0 .49.028.686.084l-.182.91c-.12-.047-.3-.07-.532-.07-.355 0-.658.068-.91.203s-.462.308-.63.518c-.168.21-.292.436-.37.68-.08.242-.12.475-.12.7V344h-.924v-4.508zm8.274 1.246c-.233 0-.525.012-.875.035-.35.023-.687.08-1.01.168-.32.09-.596.227-.825.414-.23.187-.343.443-.343.77 0 .215.044.4.133.553.09.154.208.28.357.378.15.098.315.168.497.21.18.042.365.063.552.063.336 0 .628-.056.875-.168.247-.112.455-.264.623-.455.168-.19.292-.415.37-.672.08-.257.12-.53.12-.82v-.475h-.476zm.476-.756v-.168c0-1.13-.56-1.694-1.68-1.694-.765 0-1.433.257-2.002.77l-.56-.658c.616-.635 1.54-.952 2.772-.952.317 0 .623.047.917.14.294.093.548.236.763.427.215.19.387.432.518.72.13.29.196.636.196 1.037v2.926c0 .252.012.516.035.79.022.276.048.503.076.68h-.896c-.028-.16-.05-.33-.063-.518-.014-.187-.02-.37-.02-.546h-.03c-.27.44-.59.754-.958.945-.37.192-.82.288-1.352.288-.29 0-.57-.04-.84-.12-.27-.078-.51-.2-.72-.363-.21-.163-.38-.364-.505-.602-.126-.238-.19-.516-.19-.833 0-.532.14-.95.414-1.253.275-.303.62-.53 1.036-.68.415-.148.86-.242 1.33-.28.47-.036.903-.055 1.295-.055h.462zm3.906 5.978h-.938l.938-3.29h1.134l-1.134 3.29zm11.718-6.972c-.16-.243-.38-.448-.665-.616-.286-.168-.61-.252-.974-.252-.383-.01-.726.05-1.03.182-.302.13-.56.313-.776.546-.215.233-.378.51-.49.833-.112.323-.168.67-.168 1.044 0 .373.056.72.168 1.043.112.322.275.6.49.833.215.233.474.415.777.546.303.13.646.19 1.03.182.363 0 .687-.084.972-.252.284-.168.505-.373.664-.616l.756.574c-.327.383-.695.665-1.106.847-.41.183-.84.28-1.288.288-.532.01-1.013-.072-1.442-.245-.43-.173-.796-.413-1.1-.72-.302-.31-.533-.675-.692-1.1-.16-.425-.238-.884-.238-1.38 0-.494.08-.953.238-1.378.16-.425.39-.79.693-1.1.303-.307.67-.547 1.1-.72.428-.173.91-.254 1.44-.245.45.01.878.105 1.29.287.41.182.778.464 1.105.847l-.756.574zm5.698 1.75c-.233 0-.525.012-.875.035-.35.023-.686.08-1.008.168-.323.09-.598.227-.827.414-.23.187-.343.443-.343.77 0 .215.044.4.133.553.09.154.208.28.357.378.15.098.315.168.497.21.182.042.366.063.553.063.336 0 .628-.056.875-.168.247-.112.455-.264.623-.455.168-.19.292-.415.37-.672.08-.257.12-.53.12-.82v-.475h-.476zm.476-.756v-.168c0-1.13-.56-1.694-1.68-1.694-.765 0-1.433.257-2.002.77l-.56-.658c.616-.635 1.54-.952 2.772-.952.317 0 .623.047.917.14.294.093.548.236.763.427.215.19.387.432.518.72.13.29.196.636.196 1.037v2.926c0 .252.012.516.035.79.023.276.05.503.077.68h-.896c-.028-.16-.05-.33-.063-.518-.014-.187-.02-.37-.02-.546h-.03c-.27.44-.59.754-.958.945-.37.192-.82.288-1.35.288-.29 0-.57-.04-.84-.12-.272-.078-.512-.2-.722-.363-.21-.163-.378-.364-.504-.602-.125-.238-.188-.516-.188-.833 0-.532.138-.95.413-1.253.275-.303.62-.53 1.036-.68.416-.148.86-.242 1.33-.28.472-.036.904-.055 1.296-.055h.462zm3.948-2.534c.02.177.03.352.035.525.006.173.008.348.008.525h.028c.103-.177.233-.34.392-.49.16-.15.336-.278.532-.385.196-.107.404-.19.623-.252.22-.06.436-.09.65-.09.84 0 1.462.222 1.863.665.4.443.602 1.076.602 1.897V344h-.924v-3.626c0-.728-.126-1.286-.378-1.673-.252-.386-.72-.58-1.4-.58-.047 0-.177.02-.392.056-.215.037-.44.14-.68.308-.237.168-.45.42-.636.756-.187.336-.28.803-.28 1.4V344h-.924v-5.11c0-.177-.007-.4-.02-.672-.015-.27-.03-.527-.05-.77h.952zm13.23 5.418l2.002-5.418h1.12l-3.276 8.26c-.196.504-.446.905-.75 1.204-.302.3-.74.448-1.308.448-.14 0-.282-.005-.427-.014-.145-.01-.287-.037-.427-.084l.098-.896c.196.103.43.154.7.154.327 0 .583-.103.77-.308.187-.205.35-.495.49-.868l.476-1.26-2.688-6.636h1.162l2.058 5.418zm9.926-2.142c0-.364-.058-.705-.175-1.022-.117-.317-.282-.593-.497-.826-.215-.233-.474-.418-.777-.553-.303-.135-.646-.203-1.03-.203-.382 0-.725.068-1.028.203-.303.135-.56.32-.77.553-.21.233-.373.51-.49.826-.117.317-.175.658-.175 1.022s.058.705.175 1.022c.117.317.28.593.49.826.21.233.467.418.77.553.303.135.646.203 1.03.203.382 0 .725-.068 1.028-.203.303-.135.562-.32.777-.553.215-.233.38-.51.497-.826.117-.317.175-.658.175-1.022zm1.008 0c0 .495-.086.952-.26 1.372-.172.42-.412.784-.72 1.092-.308.308-.674.548-1.1.72-.424.174-.893.26-1.406.26-.504 0-.968-.086-1.393-.26-.424-.172-.79-.412-1.098-.72-.308-.308-.548-.672-.72-1.092-.174-.42-.26-.877-.26-1.372 0-.495.086-.952.26-1.372.172-.42.412-.784.72-1.092.308-.308.674-.548 1.1-.72.424-.174.888-.26 1.392-.26.513 0 .982.086 1.407.26.426.172.792.412 1.1.72.308.308.548.672.72 1.092.174.42.26.877.26 1.372zm6.412 3.276c-.02-.177-.03-.352-.035-.525-.005-.173-.007-.348-.007-.525h-.028c-.103.177-.233.34-.392.49-.16.15-.336.278-.532.385-.196.107-.404.19-.623.252-.22.06-.436.09-.65.09-.84 0-1.462-.22-1.863-.664-.4-.443-.602-1.076-.602-1.897v-4.158h.924v3.626c0 .364.028.686.084.966.056.28.152.516.287.707.135.19.317.336.546.434.23.1.517.148.862.148.047 0 .177-.02.392-.056.215-.037.44-.14.68-.308.237-.168.45-.42.636-.756.187-.336.28-.803.28-1.4v-3.36h.924v5.11c0 .177.007.4.02.672.015.27.03.527.05.77h-.952zm12.922-3.276c0-.364-.058-.705-.175-1.022-.118-.317-.283-.593-.498-.826-.215-.233-.474-.418-.777-.553-.303-.135-.646-.203-1.03-.203-.382 0-.732.068-1.05.203-.316.135-.592.32-.825.553-.233.233-.415.51-.546.826-.13.317-.196.658-.196 1.022s.065.705.196 1.022c.13.317.313.593.546.826.233.233.51.418.826.553.317.135.667.203 1.05.203s.726-.068 1.03-.203c.302-.135.56-.32.776-.553.215-.233.38-.51.497-.826.116-.317.174-.658.174-1.022zm-5.978-3.276h.924v1.092h.028c.15-.224.327-.415.532-.574.205-.16.42-.29.644-.392.224-.103.455-.177.693-.224.238-.047.464-.07.68-.07.512 0 .98.086 1.406.26.425.172.79.412 1.1.72.307.308.547.672.72 1.092.173.42.26.877.26 1.372 0 .495-.087.952-.26 1.372-.173.42-.413.784-.72 1.092-.31.308-.675.548-1.1.72-.425.174-.894.26-1.407.26-.215 0-.44-.023-.68-.07-.237-.047-.468-.12-.692-.224-.224-.103-.44-.233-.644-.392-.205-.16-.383-.35-.532-.574h-.028v5.124h-.924v-10.584zm9.688 6.552h-.924v-10.584h.924V344zm7.322-3.78c0-.625-.187-1.132-.56-1.52-.373-.386-.896-.58-1.568-.58-.3 0-.588.058-.868.175-.28.117-.525.273-.735.47-.21.195-.378.42-.504.67-.125.253-.188.514-.188.785h4.424zm-4.452.756c.028.327.107.635.238.924.13.29.303.54.518.75.215.21.462.375.742.496.28.12.583.182.91.182.495 0 .922-.114 1.28-.343.36-.23.633-.492.82-.79l.714.587c-.392.495-.824.85-1.295 1.064-.47.215-.977.322-1.518.322-.485 0-.936-.086-1.35-.26-.416-.172-.773-.412-1.072-.72-.3-.308-.534-.672-.707-1.092-.173-.42-.26-.877-.26-1.372 0-.495.085-.952.253-1.372.168-.42.4-.784.7-1.092.3-.308.65-.548 1.05-.72.4-.174.835-.26 1.302-.26.495 0 .938.09 1.33.266.392.177.72.413.987.707.266.294.47.64.61 1.036s.21.818.21 1.266v.42h-5.46zm10.864-.238c-.233 0-.525.012-.875.035-.35.023-.686.08-1.008.168-.322.09-.597.227-.826.414-.23.187-.344.443-.344.77 0 .215.044.4.133.553.088.154.207.28.356.378.15.098.315.168.497.21.182.042.366.063.553.063.336 0 .628-.056.875-.168.248-.112.456-.264.624-.455.168-.19.292-.415.37-.672.08-.257.12-.53.12-.82v-.475h-.476zm.476-.756v-.168c0-1.13-.56-1.694-1.68-1.694-.765 0-1.433.257-2.002.77l-.56-.658c.616-.635 1.54-.952 2.772-.952.317 0 .623.047.917.14.295.093.55.236.764.427.215.19.387.432.518.72.13.29.196.636.196 1.037v2.926c0 .252.012.516.035.79.023.276.05.503.077.68h-.896c-.028-.16-.05-.33-.063-.518-.013-.187-.02-.37-.02-.546h-.028c-.27.44-.59.754-.96.945-.368.192-.818.288-1.35.288-.29 0-.57-.04-.84-.12-.27-.078-.51-.2-.72-.363-.21-.163-.38-.364-.505-.602-.126-.238-.19-.516-.19-.833 0-.532.14-.95.414-1.253.276-.303.622-.53 1.037-.68.415-.148.86-.242 1.33-.28.47-.036.903-.055 1.295-.055h.462zm6.538-.98c-.14-.27-.327-.485-.56-.644-.233-.16-.518-.238-.854-.238-.16 0-.32.02-.483.056-.163.037-.31.096-.44.175-.132.08-.237.18-.316.302-.08.12-.12.27-.12.448 0 .308.107.532.322.672.215.14.537.26.966.364l.938.224c.457.103.838.31 1.14.623.304.313.456.702.456 1.17 0 .354-.072.66-.217.916-.145.256-.336.466-.574.63-.237.162-.51.28-.818.356-.308.075-.62.112-.938.112-.504 0-.973-.096-1.407-.287-.434-.19-.805-.52-1.113-.986l.798-.546c.187.3.422.537.707.714.284.177.622.266 1.014.266.187 0 .373-.02.56-.063.187-.042.352-.107.497-.196.146-.09.262-.204.35-.344.09-.14.134-.303.134-.49 0-.327-.12-.562-.364-.707-.243-.146-.537-.26-.882-.344l-.896-.21c-.112-.028-.264-.075-.455-.14-.19-.065-.378-.163-.56-.294-.182-.13-.338-.3-.47-.51-.13-.21-.195-.47-.195-.778 0-.336.068-.63.203-.882s.317-.457.546-.616c.23-.16.49-.278.778-.357.29-.08.588-.12.896-.12.457 0 .882.09 1.274.266.392.177.695.48.91.91l-.826.546zm7.588 1.218c0-.625-.187-1.132-.56-1.52-.373-.386-.896-.58-1.568-.58-.3 0-.588.058-.868.175-.28.117-.525.273-.735.47-.21.195-.38.42-.505.67-.126.253-.19.514-.19.785h4.425zm-4.452.756c.028.327.107.635.238.924.13.29.303.54.518.75.215.21.462.375.742.496.28.12.583.182.91.182.495 0 .922-.114 1.28-.343.36-.23.633-.492.82-.79l.714.587c-.392.495-.824.85-1.295 1.064-.47.215-.978.322-1.52.322-.484 0-.935-.086-1.35-.26-.415-.172-.772-.412-1.07-.72-.3-.308-.535-.672-.708-1.092-.173-.42-.26-.877-.26-1.372 0-.495.085-.952.253-1.372.168-.42.4-.784.7-1.092.3-.308.65-.548 1.05-.72.4-.174.835-.26 1.302-.26.495 0 .938.09 1.33.266.392.177.72.413.987.707.265.294.468.64.608 1.036.14.396.21.818.21 1.266v.42h-5.46zm14.504-1.974c-.14-.27-.327-.485-.56-.644-.233-.16-.518-.238-.854-.238-.16 0-.32.02-.483.056-.163.037-.31.096-.44.175-.132.08-.237.18-.316.302-.08.12-.12.27-.12.448 0 .308.107.532.322.672.215.14.537.26.966.364l.938.224c.457.103.838.31 1.14.623.304.313.456.702.456 1.17 0 .354-.072.66-.217.916-.145.256-.336.466-.574.63-.237.162-.51.28-.818.356-.308.075-.62.112-.938.112-.504 0-.973-.096-1.407-.287-.434-.19-.805-.52-1.113-.986l.798-.546c.187.3.422.537.707.714.284.177.622.266 1.014.266.187 0 .373-.02.56-.063.187-.042.352-.107.497-.196.146-.09.262-.204.35-.344.09-.14.134-.303.134-.49 0-.327-.12-.562-.364-.707-.243-.146-.537-.26-.882-.344l-.896-.21c-.112-.028-.264-.075-.455-.14-.19-.065-.378-.163-.56-.294-.182-.13-.338-.3-.47-.51-.13-.21-.195-.47-.195-.778 0-.336.068-.63.203-.882s.317-.457.546-.616c.23-.16.49-.278.778-.357.29-.08.588-.12.896-.12.457 0 .882.09 1.274.266.392.177.695.48.91.91l-.826.546zm7.588 1.218c0-.625-.187-1.132-.56-1.52-.373-.386-.896-.58-1.568-.58-.3 0-.588.058-.868.175-.28.117-.525.273-.735.47-.21.195-.38.42-.505.67-.126.253-.19.514-.19.785h4.425zm-4.452.756c.028.327.107.635.238.924.13.29.303.54.518.75.215.21.462.375.742.496.28.12.583.182.91.182.495 0 .922-.114 1.28-.343.36-.23.633-.492.82-.79l.714.587c-.392.495-.824.85-1.295 1.064-.47.215-.978.322-1.52.322-.484 0-.935-.086-1.35-.26-.415-.172-.772-.412-1.07-.72-.3-.308-.535-.672-.708-1.092-.173-.42-.26-.877-.26-1.372 0-.495.085-.952.253-1.372.168-.42.4-.784.7-1.092.3-.308.65-.548 1.05-.72.4-.174.835-.26 1.302-.26.495 0 .938.09 1.33.266.392.177.72.413.987.707.265.294.468.64.608 1.036.14.396.21.818.21 1.266v.42h-5.46zm8.022-3.528c.02.177.03.352.035.525.005.173.007.348.007.525h.028c.103-.177.233-.34.392-.49.16-.15.336-.278.532-.385.196-.107.404-.19.623-.252.22-.06.436-.09.65-.09.84 0 1.462.222 1.863.665.4.443.602 1.076.602 1.897V344h-.924v-3.626c0-.728-.126-1.286-.378-1.673-.252-.386-.72-.58-1.4-.58-.047 0-.177.02-.392.056-.215.037-.44.14-.68.308-.237.168-.45.42-.636.756-.187.336-.28.803-.28 1.4V344h-.924v-5.11c0-.177-.007-.4-.02-.672-.015-.27-.03-.527-.05-.77h.952zm7.462 3.276c0 .364.058.705.175 1.022.117.317.282.593.497.826.215.233.474.418.777.553.304.135.647.203 1.03.203.373 0 .72-.068 1.043-.203.322-.135.6-.32.833-.553.233-.233.415-.51.546-.826.13-.317.196-.658.196-1.022s-.065-.705-.196-1.022c-.13-.317-.313-.593-.546-.826-.233-.233-.51-.418-.833-.553-.322-.135-.67-.203-1.043-.203-.383 0-.726.068-1.03.203-.302.135-.56.32-.776.553-.215.233-.38.51-.497.826-.117.317-.175.658-.175 1.022zM378.76 344h-.924v-1.092h-.028c-.15.224-.327.415-.532.574-.205.16-.42.29-.644.392-.224.103-.455.177-.693.224-.24.047-.465.07-.68.07-.513 0-.982-.086-1.407-.26-.425-.172-.79-.412-1.1-.72-.307-.308-.547-.672-.72-1.092-.173-.42-.26-.877-.26-1.372 0-.495.087-.952.26-1.372.173-.42.413-.784.72-1.092.31-.308.675-.548 1.1-.72.425-.174.894-.26 1.407-.26.215 0 .44.023.68.07.237.047.468.12.692.224.224.103.44.233.644.392.205.16.383.35.532.574h.028v-5.124h.924V344zm-168.028 15.738c-.233 0-.525.012-.875.035-.35.023-.686.08-1.008.168-.323.09-.598.227-.827.414-.23.187-.343.443-.343.77 0 .215.044.4.133.553.09.154.208.28.357.378.15.098.315.168.497.21.182.042.366.063.553.063.336 0 .628-.056.875-.168.247-.112.455-.264.623-.455.168-.19.292-.415.37-.672.08-.257.12-.53.12-.82v-.475h-.476zm.476-.756v-.168c0-1.13-.56-1.694-1.68-1.694-.765 0-1.433.257-2.002.77l-.56-.658c.616-.635 1.54-.952 2.772-.952.317 0 .623.047.917.14.294.093.548.236.763.427.215.19.387.432.518.72.13.29.196.636.196 1.037v2.926c0 .252.012.516.035.79.023.276.05.503.077.68h-.896c-.028-.16-.05-.33-.063-.518-.014-.187-.02-.37-.02-.546h-.03c-.27.44-.59.754-.958.945-.37.192-.82.288-1.35.288-.29 0-.57-.04-.84-.12-.272-.078-.512-.2-.722-.363-.21-.163-.378-.364-.504-.602-.125-.238-.188-.516-.188-.833 0-.532.138-.95.413-1.253.275-.303.62-.53 1.036-.68.416-.148.86-.242 1.33-.28.472-.036.904-.055 1.296-.055h.462zm3.948-2.534c.02.177.03.352.035.525.006.173.008.348.008.525h.028c.103-.177.233-.34.392-.49.16-.15.336-.278.532-.385.196-.107.404-.19.623-.252.22-.06.436-.09.65-.09.84 0 1.462.222 1.863.665.4.443.602 1.076.602 1.897V363h-.924v-3.626c0-.728-.126-1.286-.378-1.673-.252-.386-.72-.58-1.4-.58-.047 0-.177.02-.392.056-.215.037-.44.14-.68.308-.237.168-.45.42-.636.756-.187.336-.28.803-.28 1.4V363h-.924v-5.11c0-.177-.007-.4-.02-.672-.015-.27-.03-.527-.05-.77h.952zm15.89 2.772c0-.625-.187-1.132-.56-1.52-.373-.386-.896-.58-1.568-.58-.3 0-.588.058-.868.175-.28.117-.525.273-.735.47-.21.195-.378.42-.504.67-.125.253-.188.514-.188.785h4.424zm-4.452.756c.028.327.107.635.238.924.13.29.303.54.518.75.215.21.462.375.742.496.28.12.583.182.91.182.495 0 .922-.114 1.28-.343.36-.23.633-.492.82-.79l.714.587c-.392.495-.824.85-1.295 1.064-.47.215-.977.322-1.518.322-.485 0-.936-.086-1.35-.26-.416-.172-.773-.412-1.072-.72-.3-.308-.534-.672-.707-1.092-.173-.42-.26-.877-.26-1.372 0-.495.085-.952.253-1.372.168-.42.4-.784.7-1.092.3-.308.65-.548 1.05-.72.4-.174.835-.26 1.302-.26.495 0 .938.09 1.33.266.392.177.72.413.987.707.266.294.47.64.61 1.036s.21.818.21 1.266v.42h-5.46zm7.14-2.072c0-.243-.007-.485-.02-.728-.015-.243-.03-.485-.05-.728h.994v.994h.028c.224-.383.534-.672.93-.868.398-.196.792-.294 1.184-.294.177 0 .366.02.567.056.2.037.394.105.58.203.188.097.363.235.526.412.163.177.3.406.413.686.187-.42.483-.75.89-.994.405-.243.827-.364 1.266-.364.84 0 1.46.222 1.862.665.4.443.602 1.076.602 1.897V363h-.924v-3.822c0-.663-.117-1.17-.35-1.526-.233-.355-.667-.532-1.302-.532-.345 0-.635.068-.868.203-.233.135-.422.315-.567.54-.145.223-.25.477-.315.762-.065.285-.098.58-.098.89V363h-.924v-3.822c0-.663-.117-1.17-.35-1.526-.233-.355-.667-.532-1.302-.532-.056 0-.184.02-.385.056-.2.037-.407.14-.622.308-.215.168-.408.42-.58.756-.174.336-.26.803-.26 1.4V363h-.924v-5.096zm15.652 1.834c-.233 0-.525.012-.875.035-.35.023-.685.08-1.007.168-.322.09-.597.227-.826.414-.23.187-.343.443-.343.77 0 .215.044.4.133.553.09.154.208.28.357.378.15.098.315.168.497.21.183.042.367.063.554.063.336 0 .628-.056.875-.168.246-.112.454-.264.622-.455.168-.19.292-.415.37-.672.08-.257.12-.53.12-.82v-.475h-.476zm.476-.756v-.168c0-1.13-.56-1.694-1.68-1.694-.765 0-1.433.257-2.002.77l-.56-.658c.616-.635 1.54-.952 2.772-.952.317 0 .623.047.917.14.293.093.547.236.762.427.215.19.387.432.518.72.13.29.196.636.196 1.037v2.926c0 .252.012.516.035.79.024.276.05.503.078.68h-.896c-.028-.16-.05-.33-.063-.518-.015-.187-.022-.37-.022-.546h-.028c-.27.44-.59.754-.96.945-.368.192-.818.288-1.35.288-.29 0-.57-.04-.84-.12-.27-.078-.51-.2-.72-.363-.21-.163-.38-.364-.505-.602-.126-.238-.19-.516-.19-.833 0-.532.14-.95.414-1.253.274-.303.62-.53 1.035-.68.415-.148.86-.242 1.33-.28.47-.036.903-.055 1.295-.055h.462zm4.41-5.054c0 .196-.07.357-.21.483-.14.127-.294.19-.462.19-.168 0-.322-.063-.462-.19-.14-.125-.21-.286-.21-.482s.07-.357.21-.483c.14-.126.294-.19.462-.19.168 0 .322.064.462.19s.21.287.21.483zm-.21 9.072h-.924v-6.552h.924V363zm3.36 0h-.924v-10.584h.924V363zm9.506-5.712h-1.89v3.864c0 .243.023.44.07.595.047.154.112.273.196.357.084.084.184.142.3.175.118.032.246.048.386.048.16 0 .322-.023.49-.07.168-.047.322-.107.462-.182l.042.854c-.345.16-.76.238-1.246.238-.177 0-.362-.023-.553-.07-.19-.047-.366-.135-.525-.266-.16-.13-.29-.308-.392-.532-.103-.224-.154-.518-.154-.882v-4.13h-1.386v-.84h1.386V354.6h.924v1.848h1.89v.84zm6.874 2.436c0-.364-.058-.705-.175-1.022-.117-.317-.282-.593-.497-.826-.215-.233-.474-.418-.777-.553-.303-.135-.646-.203-1.03-.203-.382 0-.725.068-1.028.203-.303.135-.56.32-.77.553-.21.233-.373.51-.49.826-.117.317-.175.658-.175 1.022s.058.705.175 1.022c.117.317.28.593.49.826.21.233.467.418.77.553.303.135.646.203 1.03.203.382 0 .725-.068 1.028-.203.303-.135.562-.32.777-.553.215-.233.38-.51.497-.826.117-.317.175-.658.175-1.022zm1.008 0c0 .495-.086.952-.26 1.372-.172.42-.412.784-.72 1.092-.308.308-.674.548-1.1.72-.424.174-.893.26-1.406.26-.504 0-.968-.086-1.393-.26-.424-.172-.79-.412-1.098-.72-.308-.308-.548-.672-.72-1.092-.174-.42-.26-.877-.26-1.372 0-.495.086-.952.26-1.372.172-.42.412-.784.72-1.092.308-.308.674-.548 1.1-.72.424-.174.888-.26 1.392-.26.513 0 .982.086 1.407.26.426.172.792.412 1.1.72.308.308.548.672.72 1.092.174.42.26.877.26 1.372zm10.794 1.428l3.346-8.064h1.54V363h-1.008v-8.568h-.028L285.87 363h-.532l-3.584-8.568h-.028V363h-1.008v-9.912h1.54l3.346 8.064zm8.582-7.224c0 .196-.07.357-.21.483-.14.127-.294.19-.462.19-.168 0-.322-.063-.462-.19-.14-.125-.21-.286-.21-.482s.07-.357.21-.483c.14-.126.294-.19.462-.19.168 0 .322.064.462.19s.21.287.21.483zm-.21 9.072h-.924v-6.552h.924V363zm3.15-3.598l3.094-2.954h1.386l-3.262 2.996 3.612 3.556h-1.428l-3.402-3.444V363h-.924v-10.584h.924v6.986zm10.92-.182c0-.625-.187-1.132-.56-1.52-.373-.386-.896-.58-1.568-.58-.3 0-.588.058-.868.175-.28.117-.525.273-.735.47-.21.195-.378.42-.504.67-.125.253-.188.514-.188.785h4.424zm-4.452.756c.028.327.107.635.238.924.13.29.303.54.518.75.215.21.462.375.742.496.28.12.583.182.91.182.495 0 .922-.114 1.28-.343.36-.23.633-.492.82-.79l.714.587c-.392.495-.824.85-1.295 1.064-.47.215-.977.322-1.518.322-.485 0-.936-.086-1.35-.26-.416-.172-.773-.412-1.072-.72-.3-.308-.534-.672-.707-1.092-.173-.42-.26-.877-.26-1.372 0-.495.085-.952.253-1.372.168-.42.4-.784.7-1.092.3-.308.65-.548 1.05-.72.4-.174.835-.26 1.302-.26.495 0 .938.09 1.33.266.392.177.72.413.987.707.266.294.47.64.61 1.036s.21.818.21 1.266v.42h-5.46zm14.756-.238c-.233 0-.525.012-.875.035-.35.023-.686.08-1.008.168-.322.09-.597.227-.826.414-.228.187-.342.443-.342.77 0 .215.044.4.133.553.09.154.21.28.358.378.15.098.315.168.497.21.182.042.366.063.553.063.336 0 .628-.056.875-.168.247-.112.455-.264.623-.455.168-.19.292-.415.37-.672.08-.257.12-.53.12-.82v-.475h-.476zm.476-.756v-.168c0-1.13-.56-1.694-1.68-1.694-.765 0-1.433.257-2.002.77l-.56-.658c.616-.635 1.54-.952 2.772-.952.317 0 .623.047.917.14.294.093.548.236.763.427.215.19.387.432.518.72.13.29.196.636.196 1.037v2.926c0 .252.012.516.035.79.023.276.05.503.077.68h-.896c-.028-.16-.05-.33-.063-.518-.014-.187-.02-.37-.02-.546h-.03c-.27.44-.59.754-.958.945-.37.192-.82.288-1.35.288-.29 0-.57-.04-.84-.12-.272-.078-.512-.2-.722-.363-.21-.163-.378-.364-.504-.602-.127-.238-.19-.516-.19-.833 0-.532.138-.95.413-1.253.275-.303.62-.53 1.036-.68.414-.148.858-.242 1.33-.28.47-.036.902-.055 1.294-.055h.462zm9.044.742c0-.364-.058-.705-.175-1.022-.117-.317-.282-.593-.497-.826-.215-.233-.474-.418-.777-.553-.302-.135-.645-.203-1.028-.203s-.733.068-1.05.203c-.317.135-.593.32-.826.553-.233.233-.415.51-.546.826-.13.317-.196.658-.196 1.022s.065.705.196 1.022c.13.317.313.593.546.826.233.233.51.418.826.553.317.135.667.203 1.05.203s.726-.068 1.03-.203c.302-.135.56-.32.776-.553.215-.233.38-.51.497-.826.117-.317.175-.658.175-1.022zm-5.978-7.308h.924v5.124h.028c.15-.224.327-.415.532-.574.205-.16.42-.29.644-.392.224-.103.455-.177.693-.224.238-.047.464-.07.68-.07.512 0 .98.086 1.406.26.424.172.79.412 1.098.72.308.308.548.672.72 1.092.174.42.26.877.26 1.372 0 .495-.086.952-.26 1.372-.172.42-.412.784-.72 1.092-.308.308-.674.548-1.1.72-.424.174-.893.26-1.406.26-.215 0-.44-.023-.68-.07-.237-.047-.468-.12-.692-.224-.224-.103-.44-.233-.644-.392-.205-.16-.383-.35-.532-.574h-.028V363h-.924v-10.584zm14.168 7.308c0-.364-.058-.705-.175-1.022-.117-.317-.282-.593-.497-.826-.215-.233-.474-.418-.777-.553-.302-.135-.645-.203-1.028-.203s-.726.068-1.03.203c-.302.135-.56.32-.77.553-.21.233-.372.51-.49.826-.116.317-.174.658-.174 1.022s.058.705.175 1.022c.117.317.28.593.49.826.21.233.467.418.77.553.303.135.646.203 1.03.203.382 0 .725-.068 1.028-.203.304-.135.563-.32.778-.553.215-.233.38-.51.497-.826.117-.317.175-.658.175-1.022zm1.008 0c0 .495-.086.952-.26 1.372-.172.42-.412.784-.72 1.092-.308.308-.674.548-1.1.72-.424.174-.893.26-1.406.26-.504 0-.968-.086-1.393-.26-.426-.172-.792-.412-1.1-.72-.308-.308-.548-.672-.72-1.092-.174-.42-.26-.877-.26-1.372 0-.495.086-.952.26-1.372.172-.42.412-.784.72-1.092.308-.308.674-.548 1.1-.72.424-.174.888-.26 1.392-.26.513 0 .982.086 1.407.26.424.172.79.412 1.098.72.308.308.548.672.72 1.092.174.42.26.877.26 1.372zM343.48 363c-.02-.177-.03-.352-.035-.525-.005-.173-.007-.348-.007-.525h-.028c-.103.177-.233.34-.392.49-.16.15-.336.278-.532.385-.196.107-.404.19-.623.252-.22.06-.436.09-.65.09-.84 0-1.462-.22-1.863-.664-.4-.443-.602-1.076-.602-1.897v-4.158h.924v3.626c0 .364.028.686.084.966.056.28.152.516.287.707.135.19.317.336.546.434.228.1.515.148.86.148.047 0 .177-.02.392-.056.215-.037.44-.14.68-.308.237-.168.45-.42.636-.756.187-.336.28-.803.28-1.4v-3.36h.924v5.11c0 .177.007.4.02.672.015.27.03.527.05.77h-.952zm6.44-5.712h-1.89v3.864c0 .243.023.44.07.595.047.154.112.273.196.357.084.084.184.142.3.175.118.032.246.048.386.048.16 0 .322-.023.49-.07.168-.047.322-.107.462-.182l.042.854c-.345.16-.76.238-1.246.238-.177 0-.362-.023-.553-.07-.19-.047-.366-.135-.525-.266-.16-.13-.29-.308-.392-.532-.103-.224-.154-.518-.154-.882v-4.13h-1.386v-.84h1.386V354.6h.924v1.848h1.89v.84zm8.54 0h-1.89v3.864c0 .243.023.44.07.595.047.154.112.273.196.357.084.084.184.142.3.175.118.032.246.048.386.048.16 0 .322-.023.49-.07.168-.047.322-.107.462-.182l.042.854c-.345.16-.76.238-1.246.238-.177 0-.362-.023-.553-.07-.19-.047-.366-.135-.525-.266-.16-.13-.29-.308-.392-.532-.103-.224-.154-.518-.154-.882v-4.13h-1.386v-.84h1.386V354.6h.924v1.848h1.89v.84zm1.26-4.872h.924v5.082h.028c.103-.177.233-.34.392-.49.16-.15.336-.278.532-.385.196-.107.404-.19.623-.252.218-.06.435-.09.65-.09.84 0 1.46.222 1.862.665.4.443.602 1.076.602 1.897V363h-.924v-3.626c0-.728-.126-1.286-.378-1.673-.252-.386-.72-.58-1.4-.58-.047 0-.177.02-.392.056-.215.037-.44.14-.68.308-.237.168-.45.42-.636.756-.187.336-.28.803-.28 1.4V363h-.924v-10.584zm12.88 6.804c0-.625-.187-1.132-.56-1.52-.373-.386-.896-.58-1.568-.58-.3 0-.588.058-.868.175-.28.117-.525.273-.735.47-.21.195-.38.42-.505.67-.126.253-.19.514-.19.785h4.425zm-4.452.756c.028.327.107.635.238.924.13.29.303.54.518.75.215.21.462.375.742.496.28.12.583.182.91.182.495 0 .922-.114 1.28-.343.36-.23.633-.492.82-.79l.714.587c-.392.495-.824.85-1.295 1.064-.47.215-.978.322-1.52.322-.484 0-.935-.086-1.35-.26-.415-.172-.772-.412-1.07-.72-.3-.308-.535-.672-.708-1.092-.173-.42-.26-.877-.26-1.372 0-.495.085-.952.253-1.372.168-.42.4-.784.7-1.092.3-.308.65-.548 1.05-.72.4-.174.835-.26 1.302-.26.495 0 .938.09 1.33.266.392.177.72.413.987.707.265.294.468.64.608 1.036.14.396.21.818.21 1.266v.42h-5.46zM207.89 375.448c.02.177.03.352.035.525.005.173.007.348.007.525h.028c.103-.177.233-.34.392-.49.16-.15.336-.278.532-.385.196-.107.404-.19.623-.252.22-.06.436-.09.65-.09.84 0 1.462.222 1.863.665.4.443.602 1.076.602 1.897V382h-.924v-3.626c0-.728-.126-1.286-.378-1.673-.252-.386-.72-.58-1.4-.58-.047 0-.177.02-.392.056-.215.037-.44.14-.68.308-.237.168-.45.42-.636.756-.187.336-.28.803-.28 1.4V382h-.924v-5.11c0-.177-.007-.4-.02-.672-.015-.27-.03-.527-.05-.77h.952zm11.998 2.772c0-.625-.187-1.132-.56-1.52-.373-.386-.896-.58-1.568-.58-.3 0-.588.058-.868.175-.28.117-.525.273-.735.47-.21.195-.378.42-.504.67-.126.253-.19.514-.19.785h4.425zm-4.452.756c.028.327.107.635.238.924.13.29.303.54.518.75.215.21.462.375.742.496.28.12.583.182.91.182.495 0 .922-.114 1.28-.343.36-.23.633-.492.82-.79l.714.587c-.392.495-.824.85-1.295 1.064-.47.215-.978.322-1.52.322-.484 0-.935-.086-1.35-.26-.415-.172-.772-.412-1.07-.72-.3-.308-.535-.672-.708-1.092-.173-.42-.26-.877-.26-1.372 0-.495.085-.952.253-1.372.168-.42.4-.784.7-1.092.3-.308.65-.548 1.05-.72.4-.174.835-.26 1.302-.26.495 0 .938.09 1.33.266.392.177.72.413.987.707.266.294.47.64.61 1.036s.21.818.21 1.266v.42h-5.46zm7.42-3.528l1.512 5.32h.028l1.75-5.32h.952l1.75 5.32h.028l1.512-5.32h1.092L229.408 382h-1.036l-1.736-5.376h-.028L224.872 382h-1.036l-2.072-6.552h1.092zm15.064-2.52c0 .196-.07.357-.21.483-.14.127-.294.19-.462.19-.168 0-.322-.063-.462-.19-.14-.125-.21-.286-.21-.482s.07-.357.21-.483c.14-.126.294-.19.462-.19.168 0 .322.064.462.19s.21.287.21.483zm-2.66 11.494l.042.014c.075.02.156.037.245.056.09.02.17.028.245.028.224 0 .404-.042.54-.126.134-.084.235-.194.3-.33.065-.134.107-.28.126-.44.02-.16.028-.317.028-.476v-7.7h.924v7.854c0 .093-.005.254-.014.483-.01.23-.068.46-.175.693-.106.233-.288.44-.545.616-.257.177-.628.266-1.113.266-.26 0-.504-.047-.728-.14l.126-.798zm10.29-5.698c0-.364-.058-.705-.175-1.022-.117-.317-.282-.593-.497-.826-.215-.233-.474-.418-.777-.553-.302-.135-.645-.203-1.028-.203s-.726.068-1.03.203c-.302.135-.56.32-.77.553-.21.233-.372.51-.49.826-.116.317-.174.658-.174 1.022s.058.705.175 1.022c.117.317.28.593.49.826.21.233.467.418.77.553.303.135.646.203 1.03.203.382 0 .725-.068 1.028-.203.304-.135.563-.32.778-.553.215-.233.38-.51.497-.826.117-.317.175-.658.175-1.022zm1.008 0c0 .495-.086.952-.26 1.372-.172.42-.412.784-.72 1.092-.308.308-.674.548-1.1.72-.424.174-.893.26-1.406.26-.504 0-.968-.086-1.393-.26-.426-.172-.792-.412-1.1-.72-.308-.308-.548-.672-.72-1.092-.174-.42-.26-.877-.26-1.372 0-.495.086-.952.26-1.372.172-.42.412-.784.72-1.092.308-.308.674-.548 1.1-.72.424-.174.888-.26 1.392-.26.513 0 .982.086 1.407.26.424.172.79.412 1.098.72.308.308.548.672.72 1.092.174.42.26.877.26 1.372zm7.658 0c0-.364-.058-.705-.175-1.022-.116-.317-.28-.593-.496-.826-.215-.233-.474-.418-.777-.553-.303-.135-.646-.203-1.03-.203-.382 0-.732.068-1.05.203-.316.135-.592.32-.825.553-.233.233-.415.51-.546.826-.13.317-.196.658-.196 1.022s.065.705.196 1.022c.13.317.313.593.546.826.233.233.51.418.826.553.317.135.667.203 1.05.203s.726-.068 1.03-.203c.302-.135.56-.32.776-.553.215-.233.38-.51.497-.826.118-.317.176-.658.176-1.022zm-5.978-7.308h.924v5.124h.028c.15-.224.327-.415.532-.574.205-.16.42-.29.644-.392.224-.103.455-.177.693-.224.237-.047.463-.07.678-.07.513 0 .982.086 1.407.26.425.172.79.412 1.1.72.307.308.547.672.72 1.092.173.42.26.877.26 1.372 0 .495-.087.952-.26 1.372-.173.42-.413.784-.72 1.092-.31.308-.675.548-1.1.72-.425.174-.894.26-1.407.26-.215 0-.44-.023-.68-.07-.237-.047-.468-.12-.692-.224-.224-.103-.44-.233-.644-.392-.205-.16-.383-.35-.532-.574h-.028V382h-.924v-10.584zm18.06 7.308c0-.364-.058-.705-.175-1.022-.117-.317-.282-.593-.497-.826-.215-.233-.474-.418-.777-.553-.304-.135-.647-.203-1.03-.203s-.726.068-1.03.203c-.302.135-.56.32-.77.553-.21.233-.372.51-.49.826-.116.317-.174.658-.174 1.022s.058.705.175 1.022c.118.317.28.593.49.826.21.233.468.418.77.553.304.135.647.203 1.03.203s.726-.068 1.03-.203c.302-.135.56-.32.776-.553.215-.233.38-.51.497-.826.117-.317.175-.658.175-1.022zm1.008 0c0 .495-.086.952-.26 1.372-.172.42-.412.784-.72 1.092-.308.308-.674.548-1.1.72-.424.174-.893.26-1.406.26-.504 0-.968-.086-1.393-.26-.425-.172-.79-.412-1.1-.72-.307-.308-.547-.672-.72-1.092-.173-.42-.26-.877-.26-1.372 0-.495.087-.952.26-1.372.173-.42.413-.784.72-1.092.31-.308.675-.548 1.1-.72.425-.174.89-.26 1.393-.26.513 0 .982.086 1.407.26.425.172.79.412 1.1.72.307.308.547.672.72 1.092.173.42.26.877.26 1.372zm7.658 0c0-.364-.058-.705-.175-1.022-.118-.317-.283-.593-.498-.826-.215-.233-.474-.418-.777-.553-.303-.135-.646-.203-1.03-.203-.382 0-.732.068-1.05.203-.316.135-.592.32-.825.553-.233.233-.415.51-.546.826-.13.317-.196.658-.196 1.022s.065.705.196 1.022c.13.317.313.593.546.826.233.233.51.418.826.553.317.135.667.203 1.05.203s.726-.068 1.03-.203c.302-.135.56-.32.776-.553.215-.233.38-.51.497-.826.116-.317.174-.658.174-1.022zm-5.978-3.276h.924v1.092h.028c.15-.224.327-.415.532-.574.205-.16.42-.29.644-.392.224-.103.455-.177.693-.224.238-.047.464-.07.68-.07.512 0 .98.086 1.406.26.425.172.79.412 1.1.72.307.308.547.672.72 1.092.173.42.26.877.26 1.372 0 .495-.087.952-.26 1.372-.173.42-.413.784-.72 1.092-.31.308-.675.548-1.1.72-.425.174-.894.26-1.407.26-.215 0-.44-.023-.68-.07-.237-.047-.468-.12-.692-.224-.224-.103-.44-.233-.644-.392-.205-.16-.383-.35-.532-.574h-.028v5.124h-.924v-10.584zm14.532 3.276c0-.364-.058-.705-.175-1.022-.117-.317-.282-.593-.497-.826-.215-.233-.474-.418-.777-.553-.304-.135-.647-.203-1.03-.203s-.733.068-1.05.203c-.317.135-.593.32-.826.553-.233.233-.415.51-.546.826-.13.317-.196.658-.196 1.022s.065.705.196 1.022c.13.317.313.593.546.826.233.233.51.418.826.553.317.135.667.203 1.05.203s.726-.068 1.03-.203c.302-.135.56-.32.776-.553.215-.233.38-.51.497-.826.117-.317.175-.658.175-1.022zm-5.978-3.276h.924v1.092h.028c.15-.224.327-.415.532-.574.205-.16.42-.29.644-.392.224-.103.455-.177.693-.224.24-.047.465-.07.68-.07.513 0 .982.086 1.407.26.425.172.79.412 1.1.72.307.308.547.672.72 1.092.173.42.26.877.26 1.372 0 .495-.087.952-.26 1.372-.173.42-.413.784-.72 1.092-.31.308-.675.548-1.1.72-.425.174-.894.26-1.407.26-.215 0-.44-.023-.68-.07-.237-.047-.468-.12-.692-.224-.224-.103-.44-.233-.644-.392-.205-.16-.383-.35-.532-.574h-.028v5.124h-.924v-10.584zm14.168 3.276c0-.364-.058-.705-.175-1.022-.117-.317-.282-.593-.497-.826-.215-.233-.474-.418-.777-.553-.304-.135-.647-.203-1.03-.203s-.726.068-1.03.203c-.302.135-.56.32-.77.553-.21.233-.372.51-.49.826-.116.317-.174.658-.174 1.022s.058.705.175 1.022c.118.317.28.593.49.826.21.233.468.418.77.553.304.135.647.203 1.03.203s.726-.068 1.03-.203c.302-.135.56-.32.776-.553.215-.233.38-.51.497-.826.117-.317.175-.658.175-1.022zm1.008 0c0 .495-.086.952-.26 1.372-.172.42-.412.784-.72 1.092-.308.308-.674.548-1.1.72-.424.174-.893.26-1.406.26-.504 0-.968-.086-1.393-.26-.425-.172-.79-.412-1.1-.72-.307-.308-.547-.672-.72-1.092-.173-.42-.26-.877-.26-1.372 0-.495.087-.952.26-1.372.173-.42.413-.784.72-1.092.31-.308.675-.548 1.1-.72.425-.174.89-.26 1.393-.26.513 0 .982.086 1.407.26.425.172.79.412 1.1.72.307.308.547.672.72 1.092.173.42.26.877.26 1.372zm1.778-1.232c0-.29-.007-.583-.02-.882-.015-.3-.027-.686-.036-1.162h.91v1.218h.028c.065-.177.16-.348.28-.51.12-.164.268-.31.44-.442.174-.13.374-.236.603-.315.228-.08.487-.12.776-.12.26 0 .49.028.686.084l-.182.91c-.12-.047-.3-.07-.532-.07-.355 0-.658.068-.91.203s-.462.308-.63.518c-.168.21-.292.436-.37.68-.08.242-.12.475-.12.7V382h-.924v-4.508zm7.938-1.204h-1.89v3.864c0 .243.023.44.07.595.047.154.112.273.196.357.084.084.184.142.3.175.118.032.246.048.386.048.16 0 .322-.023.49-.07.168-.047.322-.107.462-.182l.042.854c-.345.16-.76.238-1.246.238-.177 0-.362-.023-.553-.07-.192-.047-.367-.135-.526-.266-.16-.13-.29-.308-.392-.532-.103-.224-.154-.518-.154-.882v-4.13h-1.386v-.84h1.386V373.6h.924v1.848h1.89v.84zm5.992 5.712c-.02-.177-.03-.352-.035-.525-.006-.173-.008-.348-.008-.525h-.028c-.103.177-.233.34-.392.49-.16.15-.336.278-.532.385-.196.107-.404.19-.623.252-.22.06-.436.09-.65.09-.84 0-1.462-.22-1.863-.664-.4-.443-.602-1.076-.602-1.897v-4.158h.924v3.626c0 .364.028.686.084.966.056.28.152.516.287.707.135.19.317.336.546.434.23.1.516.148.86.148.048 0 .178-.02.393-.056.215-.037.44-.14.68-.308.237-.168.45-.42.636-.756.187-.336.28-.803.28-1.4v-3.36h.924v5.11c0 .177.007.4.02.672.015.27.03.527.05.77h-.952zm3.934-6.552c.02.177.03.352.035.525.005.173.007.348.007.525h.028c.103-.177.233-.34.392-.49.16-.15.336-.278.532-.385.196-.107.404-.19.623-.252.22-.06.436-.09.65-.09.84 0 1.462.222 1.863.665.4.443.602 1.076.602 1.897V382h-.924v-3.626c0-.728-.126-1.286-.378-1.673-.252-.386-.72-.58-1.4-.58-.047 0-.177.02-.392.056-.215.037-.44.14-.68.308-.237.168-.45.42-.636.756-.187.336-.28.803-.28 1.4V382h-.924v-5.11c0-.177-.007-.4-.02-.672-.015-.27-.03-.527-.05-.77h.952zm8.246-2.52c0 .196-.07.357-.21.483-.14.127-.294.19-.462.19-.168 0-.322-.063-.462-.19-.14-.125-.21-.286-.21-.482s.07-.357.21-.483c.14-.126.294-.19.462-.19.168 0 .322.064.462.19s.21.287.21.483zm-.21 9.072h-.924v-6.552h.924V382zm5.614-5.712h-1.89v3.864c0 .243.023.44.07.595.047.154.112.273.196.357.084.084.184.142.3.175.118.032.246.048.386.048.16 0 .322-.023.49-.07.168-.047.322-.107.462-.182l.042.854c-.345.16-.76.238-1.246.238-.177 0-.362-.023-.553-.07-.19-.047-.366-.135-.525-.266-.16-.13-.29-.308-.392-.532-.103-.224-.154-.518-.154-.882v-4.13h-1.386v-.84h1.386V373.6h.924v1.848h1.89v.84zm3.696 4.578l2.002-5.418h1.12l-3.276 8.26c-.196.504-.446.905-.75 1.204-.302.3-.74.448-1.308.448-.14 0-.282-.005-.427-.014-.145-.01-.287-.037-.427-.084l.098-.896c.196.103.43.154.7.154.327 0 .583-.103.77-.308.187-.205.35-.495.49-.868l.476-1.26-2.688-6.636h1.162l2.058 5.418zm7.504.462c0 .196-.07.37-.21.525-.14.154-.322.23-.546.23-.224 0-.406-.076-.546-.23-.14-.154-.21-.33-.21-.525 0-.196.07-.37.21-.525.14-.154.322-.23.546-.23.224 0 .406.076.546.23.14.154.21.33.21.525zm-.336-2.016h-1.008v-1.162c0-.252.058-.483.175-.693.116-.21.258-.406.426-.588.168-.183.35-.358.546-.526.196-.168.376-.348.54-.54.162-.19.3-.393.412-.608.112-.215.168-.462.168-.742 0-.476-.152-.863-.455-1.162-.303-.3-.698-.448-1.183-.448-.476 0-.87.14-1.183.42-.312.28-.51.65-.594 1.106l-1.05-.126c.056-.364.166-.69.33-.98.162-.29.368-.534.615-.735.248-.202.53-.353.848-.456.317-.103.658-.154 1.022-.154.373 0 .723.054 1.05.16.327.108.61.265.847.47.238.205.425.462.56.77.135.308.203.658.203 1.05s-.056.723-.168.994c-.112.27-.252.506-.42.707-.168.202-.35.38-.546.54-.196.16-.378.33-.546.51-.168.183-.308.39-.42.624-.112.233-.168.518-.168.854v.714zM212.204 396.088h-3.372l-.036 1.308c.184-.064.436-.096.756-.096.432 0 .828.064 1.188.192s.67.314.93.558c.26.244.462.54.606.888.144.348.216.738.216 1.17 0 .48-.082.908-.246 1.284-.164.376-.39.694-.678.954-.288.26-.63.458-1.026.594-.396.136-.826.204-1.29.204-.736 0-1.352-.18-1.848-.54-.496-.36-.836-.904-1.02-1.632l1.884-.432c.048.304.176.55.384.738.208.188.468.282.78.282.384 0 .69-.12.918-.36.228-.24.342-.544.342-.912 0-.28-.058-.51-.174-.69-.116-.18-.268-.324-.456-.432-.188-.108-.398-.182-.63-.222-.232-.04-.464-.06-.696-.06-.296 0-.594.028-.894.084-.3.056-.59.132-.87.228l.096-4.692h5.136v1.584zm5.088 1.08h1.728v.792h.024c.056-.112.136-.224.24-.336.104-.112.228-.212.372-.3s.308-.16.492-.216c.184-.056.384-.084.6-.084.408 0 .77.084 1.086.252.316.168.554.432.714.792.208-.376.46-.644.756-.804.296-.16.66-.24 1.092-.24.392 0 .722.066.99.198s.48.312.636.54c.156.228.268.496.336.804.068.308.102.638.102.99V403h-1.8v-3.396c0-.272-.058-.506-.174-.702-.116-.196-.322-.294-.618-.294-.208 0-.382.034-.522.102-.14.068-.252.162-.336.282-.084.12-.144.26-.18.42-.036.16-.054.328-.054.504V403h-1.8v-3.084c0-.104-.004-.232-.012-.384s-.036-.296-.084-.432c-.048-.136-.126-.252-.234-.348-.108-.096-.266-.144-.474-.144-.232 0-.42.042-.564.126-.144.084-.254.196-.33.336-.076.14-.126.298-.15.474-.024.176-.036.36-.036.552V403h-1.8v-5.832zm10.464 0h1.8V403h-1.8v-5.832zm-.144-1.836c0-.288.102-.534.306-.738.204-.204.45-.306.738-.306s.534.102.738.306c.204.204.306.45.306.738s-.102.534-.306.738c-.204.204-.45.306-.738.306s-.534-.102-.738-.306c-.204-.204-.306-.45-.306-.738zm3.24 1.836h1.728v.792h.024c.056-.112.136-.224.24-.336.104-.112.228-.212.372-.3s.308-.16.492-.216c.184-.056.384-.084.6-.084.456 0 .824.07 1.104.21.28.14.498.334.654.582.156.248.262.54.318.876.056.336.084.7.084 1.092V403h-1.8v-2.856c0-.168-.006-.342-.018-.522-.012-.18-.048-.346-.108-.498-.06-.152-.152-.276-.276-.372-.124-.096-.302-.144-.534-.144-.232 0-.42.042-.564.126-.144.084-.254.196-.33.336-.076.14-.126.298-.15.474-.024.176-.036.36-.036.552V403h-1.8v-5.832zM243.356 403h-1.728v-.792h-.024c-.064.112-.146.224-.246.336-.1.112-.222.212-.366.3s-.308.16-.492.216c-.184.056-.384.084-.6.084-.456 0-.826-.07-1.11-.21-.284-.14-.504-.334-.66-.582-.156-.248-.26-.54-.312-.876-.052-.336-.078-.7-.078-1.092v-3.216h1.8v2.856c0 .168.006.342.018.522.012.18.048.346.108.498.06.152.152.276.276.372.124.096.302.144.534.144.232 0 .42-.042.564-.126.144-.084.254-.196.33-.336.076-.14.126-.298.15-.474.024-.176.036-.36.036-.552v-2.904h1.8V403zm5.244-4.392h-1.584v1.944c0 .16.008.306.024.438s.052.246.108.342c.056.096.142.17.258.222.116.052.27.078.462.078.096 0 .222-.01.378-.03.156-.02.274-.066.354-.138v1.5c-.2.072-.408.12-.624.144-.216.024-.428.036-.636.036-.304 0-.584-.032-.84-.096s-.48-.166-.672-.306c-.192-.14-.342-.322-.45-.546-.108-.224-.162-.496-.162-.816v-2.772h-1.152v-1.44h1.152v-1.728h1.8v1.728h1.584v1.44zm6.432 3.384c-.288.368-.652.652-1.092.852-.44.2-.896.3-1.368.3-.448 0-.87-.072-1.266-.216-.396-.144-.74-.35-1.032-.618-.292-.268-.522-.59-.69-.966-.168-.376-.252-.796-.252-1.26 0-.464.084-.884.252-1.26.168-.376.398-.698.69-.966.292-.268.636-.474 1.032-.618.396-.144.818-.216 1.266-.216.416 0 .794.072 1.134.216.34.144.628.35.864.618s.418.59.546.966c.128.376.192.796.192 1.26v.564h-4.176c.072.344.228.618.468.822.24.204.536.306.888.306.296 0 .546-.066.75-.198.204-.132.382-.302.534-.51l1.26.924zm-1.524-2.568c.008-.304-.092-.564-.3-.78-.208-.216-.476-.324-.804-.324-.2 0-.376.032-.528.096-.152.064-.282.146-.39.246-.108.1-.192.216-.252.348-.06.132-.094.27-.102.414h2.376zm6.192-.54c-.264-.328-.612-.492-1.044-.492-.152 0-.3.036-.444.108-.144.072-.216.196-.216.372 0 .144.074.25.222.318.148.068.336.128.564.18l.732.168c.26.06.504.154.732.282.228.128.416.302.564.522.148.22.222.514.222.882 0 .376-.082.686-.246.93-.164.244-.374.44-.63.588-.256.148-.544.252-.864.312-.32.06-.636.09-.948.09-.408 0-.82-.058-1.236-.174-.416-.116-.768-.322-1.056-.618l1.092-1.212c.168.208.354.366.558.474.204.108.442.162.714.162.208 0 .396-.03.564-.09.168-.06.252-.17.252-.33 0-.152-.074-.266-.222-.342-.148-.076-.336-.14-.564-.192l-.732-.168c-.26-.06-.504-.15-.732-.27-.228-.12-.416-.29-.564-.51-.148-.22-.222-.514-.222-.882 0-.344.07-.64.21-.888.14-.248.324-.452.552-.612.228-.16.49-.278.786-.354.296-.076.596-.114.9-.114.384 0 .772.056 1.164.168.392.112.724.312.996.6l-1.104 1.092zm9.468 3.384h-.024c-.2.312-.466.536-.798.672s-.682.204-1.05.204c-.272 0-.534-.038-.786-.114-.252-.076-.474-.19-.666-.342-.192-.152-.344-.34-.456-.564-.112-.224-.168-.484-.168-.78 0-.336.062-.62.186-.852.124-.232.292-.424.504-.576.212-.152.454-.27.726-.354.272-.084.554-.146.846-.186.292-.04.584-.064.876-.072.292-.008.562-.012.81-.012 0-.32-.114-.574-.342-.762-.228-.188-.498-.282-.81-.282-.296 0-.566.062-.81.186-.244.124-.462.294-.654.51l-.96-.984c.336-.312.728-.546 1.176-.702.448-.156.912-.234 1.392-.234.528 0 .962.066 1.302.198.34.132.612.326.816.582.204.256.346.57.426.942.08.372.12.802.12 1.29V403h-1.656v-.732zm-.444-1.824c-.136 0-.306.006-.51.018-.204.012-.4.046-.588.102-.188.056-.348.14-.48.252-.132.112-.198.268-.198.468 0 .216.092.376.276.48.184.104.376.156.576.156.176 0 .346-.024.51-.072.164-.048.31-.116.438-.204.128-.088.23-.2.306-.336.076-.136.114-.296.114-.48v-.384h-.444zm9.348 2.064c0 1.104-.278 1.942-.834 2.514-.556.572-1.402.858-2.538.858-.52 0-1.032-.058-1.536-.174-.504-.116-.968-.342-1.392-.678l.996-1.488c.28.232.574.416.882.552.308.136.646.204 1.014.204.552 0 .958-.134 1.218-.402s.39-.61.39-1.026v-.564h-.024c-.208.28-.466.478-.774.594-.308.116-.598.174-.87.174-.432 0-.824-.074-1.176-.222-.352-.148-.654-.356-.906-.624s-.446-.586-.582-.954c-.136-.368-.204-.772-.204-1.212 0-.384.062-.76.186-1.128.124-.368.3-.692.528-.972.228-.28.506-.506.834-.678.328-.172.7-.258 1.116-.258.256 0 .49.028.702.084.212.056.402.128.57.216.168.088.312.186.432.294.12.108.216.214.288.318h.024v-.768h1.656v5.34zm-4.536-2.46c0 .192.036.374.108.546.072.172.174.324.306.456s.284.238.456.318c.172.08.362.12.57.12.2 0 .388-.04.564-.12.176-.08.33-.186.462-.318s.234-.284.306-.456c.072-.172.108-.354.108-.546 0-.192-.036-.374-.108-.546-.072-.172-.174-.324-.306-.456s-.286-.238-.462-.318c-.176-.08-.364-.12-.564-.12-.208 0-.398.04-.57.12-.172.08-.324.186-.456.318s-.234.284-.306.456c-.072.172-.108.354-.108.546zm5.76.036c0-.464.084-.884.252-1.26.168-.376.398-.698.69-.966.292-.268.636-.474 1.032-.618.396-.144.818-.216 1.266-.216.448 0 .87.072 1.266.216.396.144.74.35 1.032.618.292.268.522.59.69.966.168.376.252.796.252 1.26 0 .464-.084.884-.252 1.26-.168.376-.398.698-.69.966-.292.268-.636.474-1.032.618-.396.144-.818.216-1.266.216-.448 0-.87-.072-1.266-.216-.396-.144-.74-.35-1.032-.618-.292-.268-.522-.59-.69-.966-.168-.376-.252-.796-.252-1.26zm1.8 0c0 .44.126.796.378 1.068s.606.408 1.062.408c.456 0 .81-.136 1.062-.408.252-.272.378-.628.378-1.068 0-.44-.126-.796-.378-1.068s-.606-.408-1.062-.408c-.456 0-.81.136-1.062.408-.252.272-.378.628-.378 1.068z"/></g><rect fill="#E67994" x="19" y="517" width="392" height="45" rx="16"/><path d="M63.346 535.348h-3.192v-1.26h7.728v1.26H64.69V544h-1.344v-8.652zm4.116 2.828c.355-.327.765-.572 1.232-.735.467-.162.933-.244 1.4-.244.485 0 .903.06 1.253.182.35.12.637.285.86.49.225.205.39.44.498.707.107.266.16.544.16.833v3.388c0 .233.006.448.015.644.01.196.023.383.042.56h-1.12c-.028-.336-.042-.672-.042-1.008h-.028c-.28.43-.61.733-.994.91-.383.177-.826.266-1.33.266-.308 0-.602-.042-.882-.126-.28-.084-.525-.21-.735-.378-.21-.168-.375-.376-.496-.623-.12-.246-.182-.533-.182-.86 0-.43.096-.79.287-1.078.19-.29.452-.525.783-.707.33-.182.72-.313 1.162-.392.443-.08.917-.12 1.42-.12h.925v-.28c0-.167-.033-.335-.098-.503-.065-.168-.163-.32-.294-.455-.13-.135-.294-.243-.49-.322-.196-.08-.43-.12-.7-.12-.243 0-.455.024-.637.07-.18.048-.347.106-.496.176-.15.07-.285.15-.406.244-.12.093-.238.182-.35.266l-.756-.784zm3.556 2.632c-.3 0-.604.016-.917.05-.312.032-.596.095-.853.188s-.467.224-.63.392c-.163.168-.245.383-.245.644 0 .383.128.658.385.826.257.168.604.252 1.043.252.345 0 .64-.058.882-.175.243-.117.44-.268.588-.455.15-.187.257-.394.322-.623.065-.23.098-.455.098-.68v-.42h-.672zm3.78-7.392h1.26V544h-1.26v-10.584zm3.262 0h1.26v6.832l2.856-2.87h1.75l-3.094 3.01 3.36 3.612H82.4l-3.08-3.444V544h-1.26v-10.584zm14.714 5.04h-1.806v3.01c0 .187.005.37.014.553.01.18.044.344.105.49.06.144.154.26.28.35.126.088.31.132.553.132.15 0 .303-.014.462-.042.16-.028.303-.08.434-.154v1.148c-.15.084-.343.142-.58.175-.24.032-.423.048-.554.048-.485 0-.86-.068-1.127-.203-.266-.135-.462-.31-.588-.525-.126-.215-.2-.455-.224-.72-.023-.267-.035-.535-.035-.806v-3.458h-1.456v-1.092h1.456v-1.862h1.26v1.862h1.806v1.092zm2.646 2.226c0 .336.05.646.154.93.103.286.247.528.434.73.187.2.415.358.686.475.27.117.574.175.91.175.336 0 .64-.058.91-.175.27-.117.5-.275.686-.476.187-.2.33-.442.434-.727.103-.285.154-.595.154-.93 0-.337-.05-.647-.154-.932-.103-.284-.247-.526-.434-.727-.187-.2-.415-.36-.686-.476-.27-.117-.574-.175-.91-.175-.336 0-.64.058-.91.175-.27.117-.5.275-.686.476-.187.2-.33.443-.434.728-.103.286-.154.596-.154.932zm-1.344 0c0-.485.09-.938.273-1.358.18-.42.43-.79.748-1.106.317-.317.69-.567 1.12-.75.43-.18.89-.272 1.386-.272.495 0 .957.09 1.386.273.43.18.803.43 1.12.748.317.317.567.686.75 1.106.18.42.272.873.272 1.358 0 .485-.09.94-.273 1.365-.183.425-.433.793-.75 1.106-.317.313-.69.56-1.12.742-.43.182-.89.273-1.386.273-.495 0-.957-.09-1.386-.273-.43-.182-.803-.43-1.12-.742-.317-.313-.567-.68-.75-1.106-.18-.425-.272-.88-.272-1.365zm15.96-6.594h1.218l4.242 9.912h-1.568l-.994-2.45h-4.718l-.98 2.45h-1.568l4.368-9.912zm2.408 6.286l-1.848-4.55h-.028l-1.876 4.55h3.752zm4.018-3.01h1.26v1.022h.028c.084-.177.196-.338.336-.483.14-.145.296-.268.47-.37.172-.104.36-.185.566-.246.205-.06.41-.09.616-.09.205 0 .392.027.56.083l-.056 1.358c-.103-.028-.205-.05-.308-.07-.103-.02-.205-.028-.308-.028-.616 0-1.087.173-1.414.518-.327.345-.49.882-.49 1.61V544h-1.26v-6.636zm5.208.812c.355-.327.765-.572 1.232-.735.467-.162.933-.244 1.4-.244.485 0 .903.06 1.253.182.35.12.637.285.86.49.225.205.39.44.498.707.107.266.16.544.16.833v3.388c0 .233.006.448.015.644.01.196.023.383.042.56h-1.12c-.028-.336-.042-.672-.042-1.008h-.028c-.28.43-.61.733-.994.91-.383.177-.826.266-1.33.266-.308 0-.602-.042-.882-.126-.28-.084-.525-.21-.735-.378-.21-.168-.377-.376-.498-.623-.12-.246-.182-.533-.182-.86 0-.43.096-.79.287-1.078.19-.29.453-.525.784-.707.332-.182.72-.313 1.163-.392.443-.08.917-.12 1.42-.12h.925v-.28c0-.167-.033-.335-.098-.503-.065-.168-.163-.32-.294-.455-.13-.135-.294-.243-.49-.322-.196-.08-.43-.12-.7-.12-.243 0-.455.024-.637.07-.183.048-.35.106-.498.176-.15.07-.285.15-.406.244-.12.093-.238.182-.35.266l-.756-.784zm3.556 2.632c-.3 0-.604.016-.917.05-.314.032-.598.095-.855.188s-.467.224-.63.392c-.163.168-.245.383-.245.644 0 .383.128.658.385.826.257.168.604.252 1.043.252.345 0 .64-.058.882-.175.243-.117.44-.268.588-.455.15-.187.257-.394.322-.623.065-.23.098-.455.098-.68v-.42h-.672zm4.676 3.276c-.252 0-.47-.09-.65-.273-.183-.18-.274-.398-.274-.65s.09-.47.273-.65c.183-.183.4-.274.652-.274s.47.09.65.273c.183.18.274.398.274.65s-.09.47-.273.65c-.182.183-.4.274-.65.274zm3.892 0c-.252 0-.47-.09-.65-.273-.183-.18-.274-.398-.274-.65s.09-.47.273-.65c.182-.183.4-.274.65-.274.253 0 .47.09.652.273.182.18.273.398.273.65s-.09.47-.273.65c-.182.183-.4.274-.65.274zm3.892 0c-.252 0-.47-.09-.65-.273-.183-.18-.274-.398-.274-.65s.09-.47.273-.65c.182-.183.4-.274.65-.274.253 0 .47.09.652.273.182.18.273.398.273.65s-.09.47-.273.65c-.182.183-.4.274-.65.274z" fill="#FFF"/><path d="M376.616 548.255c-.192 0-.382-.075-.525-.217-.22-.22-.278-.556-.146-.838l3.614-7.73-3.614-7.73c-.132-.284-.073-.618.147-.84.22-.22.556-.28.84-.147l17.267 8.044c.26.122.428.384.428.672 0 .287-.167.55-.428.67l-17.268 8.046c-.1.047-.208.07-.314.07z" fill="#FFF" fill-rule="nonzero"/><g transform="translate(74 120)"><use fill="#000" filter="url(#e)" xlink:href="#f"/><use fill="#FFF" xlink:href="#f"/></g><path d="M97.344 141.088h1.008v4.298h5.404v-4.298h1.008V151h-1.008v-4.69h-5.404V151h-1.008v-9.912zm11.116.84c0 .196-.07.357-.21.483-.14.127-.294.19-.462.19-.168 0-.322-.063-.462-.19-.14-.125-.21-.286-.21-.482s.07-.357.21-.483c.14-.126.294-.19.462-.19.168 0 .322.064.462.19s.21.287.21.483zm-.21 9.072h-.924v-6.552h.924V151zm3.066 1.96h-.938l.938-3.29h1.134l-1.134 3.29zm8.288-1.96h-1.008v-9.912h1.008V151zm3.066-6.622h-.938l.938-3.29h1.134l-1.134 3.29zm2.926 1.526c0-.243-.007-.485-.02-.728-.015-.243-.03-.485-.05-.728h.994v.994h.028c.224-.383.534-.672.93-.868.398-.196.792-.294 1.184-.294.177 0 .366.02.567.056.2.037.393.105.58.203.187.097.362.235.525.412.163.177.3.406.413.686.187-.42.483-.75.89-.994.405-.243.827-.364 1.266-.364.84 0 1.46.222 1.862.665.4.443.602 1.076.602 1.897V151h-.924v-3.822c0-.663-.117-1.17-.35-1.526-.233-.355-.667-.532-1.302-.532-.345 0-.635.068-.868.203-.233.135-.422.315-.567.54-.145.223-.25.477-.315.762-.065.285-.098.58-.098.89V151h-.924v-3.822c0-.663-.117-1.17-.35-1.526-.233-.355-.667-.532-1.302-.532-.056 0-.184.02-.385.056-.2.037-.408.14-.623.308-.215.168-.408.42-.58.756-.174.336-.26.803-.26 1.4V151h-.924v-5.096zm17.458 1.568h4.298l-2.142-5.208-2.156 5.208zm-1.47 3.528h-1.176l4.312-9.912h.98l4.312 9.912h-1.176l-1.092-2.604h-5.068L141.584 151zm9.534-4.508c0-.29-.007-.583-.02-.882-.015-.3-.027-.686-.036-1.162h.91v1.218H152c.065-.177.16-.348.28-.51.12-.164.268-.31.44-.442.174-.13.374-.236.603-.315.23-.08.488-.12.777-.12.26 0 .49.028.686.084l-.182.91c-.12-.047-.3-.07-.532-.07-.355 0-.658.068-.91.203s-.462.308-.63.518c-.168.21-.292.436-.37.68-.08.242-.12.475-.12.7V151h-.924v-4.508zm8.274 1.246c-.233 0-.525.012-.875.035-.35.023-.686.08-1.008.168-.323.09-.598.227-.827.414-.23.187-.343.443-.343.77 0 .215.044.4.133.553.09.154.208.28.357.378.15.098.315.168.497.21.182.042.366.063.553.063.336 0 .628-.056.875-.168.247-.112.455-.264.623-.455.168-.19.292-.415.37-.672.08-.257.12-.53.12-.82v-.475h-.476zm.476-.756v-.168c0-1.13-.56-1.694-1.68-1.694-.765 0-1.433.257-2.002.77l-.56-.658c.616-.635 1.54-.952 2.772-.952.317 0 .623.047.917.14.294.093.548.236.763.427.215.19.387.432.518.72.13.29.196.636.196 1.037v2.926c0 .252.012.516.035.79.023.276.05.503.077.68h-.896c-.028-.16-.05-.33-.063-.518-.014-.187-.02-.37-.02-.546h-.03c-.27.44-.59.754-.958.945-.37.192-.82.288-1.35.288-.29 0-.57-.04-.84-.12-.272-.078-.512-.2-.722-.363-.21-.163-.378-.364-.504-.602-.125-.238-.188-.516-.188-.833 0-.532.138-.95.413-1.253.275-.303.62-.53 1.036-.68.416-.148.86-.242 1.33-.28.472-.036.904-.055 1.296-.055h.462zm3.906 5.978h-.938l.938-3.29h1.134l-1.134 3.29zm9.38-3.094l2.002-5.418h1.12l-3.276 8.26c-.196.504-.446.905-.75 1.204-.302.3-.74.448-1.308.448-.14 0-.282-.005-.427-.014-.145-.01-.287-.037-.427-.084l.098-.896c.196.103.43.154.7.154.327 0 .583-.103.77-.308.187-.205.35-.495.49-.868l.476-1.26-2.688-6.636h1.162l2.058 5.418zm9.926-2.142c0-.364-.058-.705-.175-1.022-.117-.317-.282-.593-.497-.826-.215-.233-.474-.418-.777-.553-.302-.135-.645-.203-1.028-.203s-.726.068-1.03.203c-.302.135-.56.32-.77.553-.21.233-.372.51-.49.826-.116.317-.174.658-.174 1.022s.058.705.175 1.022c.117.317.28.593.49.826.21.233.467.418.77.553.303.135.646.203 1.03.203.382 0 .725-.068 1.028-.203.304-.135.563-.32.778-.553.215-.233.38-.51.497-.826.117-.317.175-.658.175-1.022zm1.008 0c0 .495-.086.952-.26 1.372-.172.42-.412.784-.72 1.092-.308.308-.674.548-1.1.72-.424.174-.893.26-1.406.26-.504 0-.968-.086-1.393-.26-.426-.172-.792-.412-1.1-.72-.308-.308-.548-.672-.72-1.092-.174-.42-.26-.877-.26-1.372 0-.495.086-.952.26-1.372.172-.42.412-.784.72-1.092.308-.308.674-.548 1.1-.72.424-.174.888-.26 1.392-.26.513 0 .982.086 1.407.26.424.172.79.412 1.098.72.308.308.548.672.72 1.092.174.42.26.877.26 1.372zM190.5 151c-.02-.177-.03-.352-.035-.525-.005-.173-.007-.348-.007-.525h-.028c-.103.177-.233.34-.392.49-.16.15-.336.278-.532.385-.196.107-.404.19-.623.252-.22.06-.436.09-.65.09-.84 0-1.462-.22-1.863-.664-.4-.443-.602-1.076-.602-1.897v-4.158h.924v3.626c0 .364.028.686.084.966.056.28.152.516.287.707.135.19.317.336.546.434.228.1.515.148.86.148.047 0 .177-.02.392-.056.215-.037.44-.14.68-.308.237-.168.45-.42.636-.756.187-.336.28-.803.28-1.4v-3.36h.924v5.11c0 .177.007.4.02.672.015.27.03.527.05.77h-.952zm3.15-4.508c0-.29-.007-.583-.02-.882-.015-.3-.027-.686-.036-1.162h.91v1.218h.028c.065-.177.16-.348.28-.51.12-.164.268-.31.44-.442.174-.13.374-.236.603-.315.23-.08.488-.12.777-.12.26 0 .49.028.686.084l-.182.91c-.12-.047-.3-.07-.532-.07-.355 0-.658.068-.91.203s-.462.308-.63.518c-.168.21-.292.436-.37.68-.08.242-.12.475-.12.7V151h-.924v-4.508zm9.324-2.044c.02.177.03.352.035.525.004.173.006.348.006.525h.028c.103-.177.233-.34.392-.49.16-.15.336-.278.532-.385.196-.107.404-.19.623-.252.22-.06.437-.09.652-.09.84 0 1.46.222 1.862.665.4.443.602 1.076.602 1.897V151h-.924v-3.626c0-.728-.126-1.286-.378-1.673-.252-.386-.72-.58-1.4-.58-.047 0-.177.02-.392.056-.215.037-.44.14-.68.308-.237.168-.45.42-.636.756-.187.336-.28.803-.28 1.4V151h-.924v-5.11c0-.177-.007-.4-.02-.672-.015-.27-.03-.527-.05-.77h.952zm11.998 2.772c0-.625-.187-1.132-.56-1.52-.373-.386-.896-.58-1.568-.58-.3 0-.588.058-.868.175-.28.117-.525.273-.735.47-.21.195-.377.42-.503.67-.126.253-.19.514-.19.785h4.425zm-4.452.756c.028.327.107.635.238.924.13.29.303.54.518.75.215.21.462.375.742.496.28.12.583.182.91.182.495 0 .922-.114 1.28-.343.36-.23.633-.492.82-.79l.714.587c-.392.495-.824.85-1.295 1.064-.47.215-.978.322-1.52.322-.484 0-.935-.086-1.35-.26-.415-.172-.772-.412-1.07-.72-.3-.308-.535-.672-.708-1.092-.174-.42-.26-.877-.26-1.372 0-.495.084-.952.252-1.372.168-.42.4-.784.7-1.092.3-.308.65-.548 1.05-.72.4-.174.835-.26 1.302-.26.495 0 .938.09 1.33.266.392.177.72.413.987.707s.47.64.61 1.036.21.818.21 1.266v.42h-5.46zm7.42-3.528l1.512 5.32h.028l1.75-5.32h.952l1.75 5.32h.028l1.512-5.32h1.092L224.492 151h-1.036l-1.736-5.376h-.028L219.956 151h-1.036l-2.072-6.552h1.092zm17.444 3.29c-.233 0-.525.012-.875.035-.35.023-.687.08-1.01.168-.32.09-.596.227-.825.414-.23.187-.343.443-.343.77 0 .215.044.4.133.553.09.154.208.28.357.378.15.098.315.168.497.21.18.042.365.063.552.063.336 0 .628-.056.875-.168.247-.112.455-.264.623-.455.168-.19.292-.415.37-.672.08-.257.12-.53.12-.82v-.475h-.476zm.476-.756v-.168c0-1.13-.56-1.694-1.68-1.694-.765 0-1.433.257-2.002.77l-.56-.658c.616-.635 1.54-.952 2.772-.952.317 0 .623.047.917.14.294.093.548.236.763.427.215.19.387.432.518.72.13.29.196.636.196 1.037v2.926c0 .252.012.516.035.79.022.276.048.503.076.68H236c-.028-.16-.05-.33-.063-.518-.014-.187-.02-.37-.02-.546h-.03c-.27.44-.59.754-.958.945-.37.192-.82.288-1.352.288-.29 0-.57-.04-.84-.12-.27-.078-.51-.2-.72-.363-.21-.163-.38-.364-.505-.602-.126-.238-.19-.516-.19-.833 0-.532.14-.95.414-1.253.275-.303.62-.53 1.036-.68.415-.148.86-.242 1.33-.28.47-.036.903-.055 1.295-.055h.462zm6.538-.98c-.14-.27-.327-.485-.56-.644-.233-.16-.518-.238-.854-.238-.16 0-.32.02-.483.056-.162.037-.31.096-.44.175-.13.08-.236.18-.315.302-.08.12-.12.27-.12.448 0 .308.108.532.323.672.215.14.537.26.966.364l.938.224c.457.103.838.31 1.14.623.304.313.456.702.456 1.17 0 .354-.072.66-.217.916-.144.256-.335.466-.573.63-.238.162-.51.28-.82.356-.307.075-.62.112-.937.112-.504 0-.973-.096-1.407-.287-.434-.19-.805-.52-1.113-.986l.798-.546c.187.3.422.537.707.714.285.177.623.266 1.015.266.187 0 .373-.02.56-.063.187-.042.352-.107.497-.196.145-.09.26-.204.35-.344.09-.14.133-.303.133-.49 0-.327-.12-.562-.364-.707-.243-.146-.537-.26-.882-.344l-.896-.21c-.112-.028-.264-.075-.455-.14-.19-.065-.378-.163-.56-.294-.182-.13-.338-.3-.47-.51-.13-.21-.195-.47-.195-.778 0-.336.068-.63.203-.882.136-.252.318-.457.547-.616.23-.16.488-.278.777-.357.29-.08.588-.12.896-.12.457 0 .882.09 1.274.266.392.177.695.48.91.91l-.826.546zm5.964 0c-.14-.27-.327-.485-.56-.644-.233-.16-.518-.238-.854-.238-.16 0-.32.02-.483.056-.163.037-.31.096-.44.175-.132.08-.237.18-.316.302-.08.12-.12.27-.12.448 0 .308.107.532.322.672.215.14.537.26.966.364l.938.224c.457.103.838.31 1.14.623.304.313.456.702.456 1.17 0 .354-.072.66-.217.916-.145.256-.336.466-.574.63-.237.162-.51.28-.818.356-.308.075-.62.112-.938.112-.504 0-.973-.096-1.407-.287-.434-.19-.805-.52-1.113-.986l.798-.546c.187.3.422.537.707.714.284.177.622.266 1.014.266.187 0 .373-.02.56-.063.187-.042.352-.107.497-.196.146-.09.262-.204.35-.344.09-.14.134-.303.134-.49 0-.327-.12-.562-.364-.707-.243-.146-.537-.26-.882-.344l-.896-.21c-.112-.028-.264-.075-.455-.14-.19-.065-.378-.163-.56-.294-.182-.13-.338-.3-.47-.51-.13-.21-.195-.47-.195-.778 0-.336.068-.63.203-.882s.317-.457.546-.616c.23-.16.49-.278.778-.357.29-.08.588-.12.896-.12.457 0 .882.09 1.274.266.392.177.695.48.91.91l-.826.546zm3.836-4.074c0 .196-.07.357-.21.483-.14.127-.294.19-.462.19-.168 0-.322-.063-.462-.19-.14-.125-.21-.286-.21-.482s.07-.357.21-.483c.14-.126.294-.19.462-.19.168 0 .322.064.462.19s.21.287.21.483zm-.21 9.072h-.924v-6.552h.924V151zm5.614-5.712h-1.89v3.864c0 .243.023.44.07.595.047.154.112.273.196.357.084.084.184.142.3.175.118.032.246.048.386.048.16 0 .322-.023.49-.07.168-.047.322-.107.462-.182l.042.854c-.345.16-.76.238-1.246.238-.177 0-.362-.023-.553-.07-.192-.047-.367-.135-.526-.266-.16-.13-.29-.308-.392-.532-.103-.224-.154-.518-.154-.882v-4.13h-1.386v-.84h1.386V142.6h.924v1.848h1.89v.84zm4.984 2.45c-.233 0-.525.012-.875.035-.35.023-.685.08-1.007.168-.322.09-.597.227-.826.414-.23.187-.343.443-.343.77 0 .215.044.4.133.553.09.154.208.28.357.378.15.098.315.168.497.21.183.042.367.063.554.063.336 0 .628-.056.875-.168.246-.112.454-.264.622-.455.168-.19.292-.415.37-.672.08-.257.12-.53.12-.82v-.475h-.476zm.476-.756v-.168c0-1.13-.56-1.694-1.68-1.694-.765 0-1.433.257-2.002.77l-.56-.658c.616-.635 1.54-.952 2.772-.952.317 0 .623.047.917.14.293.093.547.236.762.427.215.19.387.432.518.72.13.29.196.636.196 1.037v2.926c0 .252.012.516.035.79.024.276.05.503.078.68h-.896c-.028-.16-.05-.33-.063-.518-.015-.187-.022-.37-.022-.546h-.028c-.27.44-.59.754-.96.945-.368.192-.818.288-1.35.288-.29 0-.57-.04-.84-.12-.27-.078-.51-.2-.72-.363-.21-.163-.38-.364-.505-.602-.126-.238-.19-.516-.19-.833 0-.532.14-.95.414-1.253.274-.303.62-.53 1.035-.68.415-.148.86-.242 1.33-.28.47-.036.903-.055 1.295-.055h.462zm3.948-2.534c.02.177.03.352.035.525.005.173.007.348.007.525h.028c.103-.177.233-.34.392-.49.16-.15.336-.278.532-.385.196-.107.404-.19.623-.252.22-.06.436-.09.65-.09.84 0 1.462.222 1.863.665.4.443.602 1.076.602 1.897V151h-.924v-3.626c0-.728-.126-1.286-.378-1.673-.252-.386-.72-.58-1.4-.58-.047 0-.177.02-.392.056-.215.037-.44.14-.68.308-.237.168-.45.42-.636.756-.187.336-.28.803-.28 1.4V151h-.924v-5.11c0-.177-.007-.4-.02-.672-.015-.27-.03-.527-.05-.77h.952zm10.29.84h-1.89v3.864c0 .243.023.44.07.595.047.154.112.273.196.357.084.084.184.142.3.175.118.032.246.048.386.048.16 0 .322-.023.49-.07.168-.047.322-.107.462-.182l.042.854c-.345.16-.76.238-1.246.238-.177 0-.362-.023-.553-.07-.19-.047-.366-.135-.525-.266-.16-.13-.29-.308-.392-.532-.103-.224-.154-.518-.154-.882v-4.13H273.1v-.84h1.386V142.6h.924v1.848h1.89v.84zm2.954 5.04c0 .196-.07.37-.21.525-.14.154-.322.23-.546.23-.224 0-.406-.076-.546-.23-.14-.154-.21-.33-.21-.525 0-.196.07-.37.21-.525.14-.154.322-.23.546-.23.224 0 .406.076.546.23.14.154.21.33.21.525z" fill="#46454C"/><path d="M102.06 162.8h-3.42l-.036 1.692c.112-.04.254-.068.426-.084s.334-.024.486-.024c.416 0 .798.066 1.146.198.348.132.646.322.894.57.248.248.442.544.582.888.14.344.21.732.21 1.164 0 .456-.078.866-.234 1.23-.156.364-.372.672-.648.924s-.602.446-.978.582c-.376.136-.78.204-1.212.204-.68 0-1.258-.16-1.734-.48-.476-.32-.814-.808-1.014-1.464l1.512-.408c.096.304.26.544.492.72.232.176.532.264.9.264.216 0 .414-.036.594-.108.18-.072.336-.174.468-.306s.234-.286.306-.462c.072-.176.108-.368.108-.576 0-.296-.054-.548-.162-.756-.108-.208-.254-.378-.438-.51s-.396-.228-.636-.288c-.24-.06-.492-.09-.756-.09-.312 0-.622.036-.93.108-.308.072-.59.172-.846.3l.084-4.584h4.836v1.296zm5.352 1.44h1.368v.9h.024c.128-.272.334-.514.618-.726.284-.212.666-.318 1.146-.318.904 0 1.504.356 1.8 1.068.208-.368.468-.638.78-.81.312-.172.684-.258 1.116-.258.384 0 .708.064.972.192s.478.304.642.528c.164.224.282.486.354.786.072.3.108.622.108.966V170h-1.44v-3.264c0-.176-.016-.346-.048-.51-.032-.164-.088-.308-.168-.432-.08-.124-.188-.222-.324-.294-.136-.072-.312-.108-.528-.108-.224 0-.414.042-.57.126-.156.084-.284.196-.384.336-.1.14-.172.3-.216.48-.044.18-.066.362-.066.546V170h-1.44v-3.432c0-.36-.076-.646-.228-.858-.152-.212-.404-.318-.756-.318-.24 0-.442.04-.606.12-.164.08-.3.188-.408.324-.108.136-.186.292-.234.468-.048.176-.072.36-.072.552V170h-1.44v-5.76zm10.524 0h1.44V170h-1.44v-5.76zm-.204-1.956c0-.232.086-.434.258-.606.172-.172.39-.258.654-.258s.486.082.666.246c.18.164.27.37.27.618s-.09.454-.27.618c-.18.164-.402.246-.666.246s-.482-.086-.654-.258c-.172-.172-.258-.374-.258-.606zm3.3 1.956h1.368v.924h.024c.136-.288.344-.538.624-.75.28-.212.66-.318 1.14-.318.384 0 .71.064.978.192s.486.296.654.504c.168.208.288.448.36.72.072.272.108.556.108.852V170h-1.44v-2.916c0-.16-.008-.338-.024-.534s-.058-.38-.126-.552c-.068-.172-.174-.316-.318-.432-.144-.116-.34-.174-.588-.174-.24 0-.442.04-.606.12-.164.08-.3.188-.408.324-.108.136-.186.292-.234.468-.048.176-.072.36-.072.552V170h-1.44v-5.76zm12.144 5.76h-1.368v-.924h-.024c-.136.288-.344.538-.624.75-.28.212-.66.318-1.14.318-.384 0-.71-.062-.978-.186s-.486-.292-.654-.504c-.168-.212-.288-.454-.36-.726-.072-.272-.108-.556-.108-.852v-3.636h1.44v2.916c0 .16.008.338.024.534s.058.38.126.552c.068.172.172.316.312.432.14.116.338.174.594.174.24 0 .442-.04.606-.12.164-.08.3-.188.408-.324.108-.136.186-.292.234-.468.048-.176.072-.36.072-.552v-3.144h1.44V170zm.96-4.536v-1.224h1.188v-1.668h1.44v1.668h1.584v1.224h-1.584v2.52c0 .288.054.516.162.684.108.168.322.252.642.252.128 0 .268-.014.42-.042.152-.028.272-.074.36-.138v1.212c-.152.072-.338.122-.558.15-.22.028-.414.042-.582.042-.384 0-.698-.042-.942-.126-.244-.084-.436-.212-.576-.384-.14-.172-.236-.386-.288-.642-.052-.256-.078-.552-.078-.888v-2.64h-1.188zm6.492 2.16c.048.432.216.768.504 1.008.288.24.636.36 1.044.36.36 0 .662-.074.906-.222.244-.148.458-.334.642-.558l1.032.78c-.336.416-.712.712-1.128.888-.416.176-.852.264-1.308.264-.432 0-.84-.072-1.224-.216-.384-.144-.716-.348-.996-.612s-.502-.582-.666-.954c-.164-.372-.246-.786-.246-1.242 0-.456.082-.87.246-1.242.164-.372.386-.69.666-.954s.612-.468.996-.612c.384-.144.792-.216 1.224-.216.4 0 .766.07 1.098.21.332.14.616.342.852.606.236.264.42.59.552.978.132.388.198.834.198 1.338v.396h-4.392zm2.952-1.08c-.008-.424-.14-.758-.396-1.002s-.612-.366-1.068-.366c-.432 0-.774.124-1.026.372s-.406.58-.462.996h2.952zm5.856-.708c-.28-.392-.656-.588-1.128-.588-.192 0-.38.048-.564.144-.184.096-.276.252-.276.468 0 .176.076.304.228.384.152.08.344.148.576.204.232.056.482.114.75.174.268.06.518.152.75.276.232.124.424.294.576.51.152.216.228.512.228.888 0 .344-.074.634-.222.87-.148.236-.34.426-.576.57-.236.144-.502.248-.798.312-.296.064-.592.096-.888.096-.448 0-.86-.064-1.236-.192s-.712-.36-1.008-.696l.96-.9c.184.208.382.378.594.51.212.132.47.198.774.198.104 0 .212-.012.324-.036.112-.024.216-.064.312-.12.096-.056.174-.126.234-.21.06-.084.09-.182.09-.294 0-.2-.076-.348-.228-.444-.152-.096-.344-.174-.576-.234-.232-.06-.482-.116-.75-.168-.268-.052-.518-.136-.75-.252-.232-.116-.424-.278-.576-.486-.152-.208-.228-.496-.228-.864 0-.32.066-.598.198-.834s.306-.43.522-.582c.216-.152.464-.264.744-.336.28-.072.564-.108.852-.108.384 0 .764.066 1.14.198.376.132.68.358.912.678l-.96.864zm9.408 3.372h-.036c-.208.328-.472.566-.792.714-.32.148-.672.222-1.056.222-.264 0-.522-.036-.774-.108-.252-.072-.476-.18-.672-.324-.196-.144-.354-.324-.474-.54-.12-.216-.18-.468-.18-.756 0-.312.056-.578.168-.798.112-.22.262-.404.45-.552.188-.148.406-.266.654-.354.248-.088.506-.154.774-.198.268-.044.538-.072.81-.084.272-.012.528-.018.768-.018h.36v-.156c0-.36-.124-.63-.372-.81-.248-.18-.564-.27-.948-.27-.304 0-.588.054-.852.162-.264.108-.492.254-.684.438l-.756-.756c.32-.328.694-.564 1.122-.708.428-.144.87-.216 1.326-.216.408 0 .752.046 1.032.138.28.092.512.21.696.354.184.144.326.31.426.498.1.188.172.378.216.57.044.192.07.378.078.558.008.18.012.338.012.474V170h-1.296v-.792zm-.084-1.788h-.3c-.2 0-.424.008-.672.024-.248.016-.482.054-.702.114-.22.06-.406.148-.558.264-.152.116-.228.278-.228.486 0 .136.03.25.09.342.06.092.138.17.234.234s.204.11.324.138c.12.028.24.042.36.042.496 0 .862-.118 1.098-.354.236-.236.354-.558.354-.966v-.324zm8.856-3.18v5.244c0 .52-.064.99-.192 1.41-.128.42-.326.776-.594 1.068-.268.292-.606.518-1.014.678-.408.16-.892.24-1.452.24-.536 0-1.044-.068-1.524-.204-.48-.136-.924-.384-1.332-.744l.864-1.176c.288.264.588.468.9.612.312.144.672.216 1.08.216.344 0 .634-.048.87-.144.236-.096.424-.228.564-.396.14-.168.24-.37.3-.606s.09-.498.09-.786v-.42h-.024c-.208.28-.484.49-.828.63s-.696.21-1.056.21c-.432 0-.824-.078-1.176-.234-.352-.156-.654-.366-.906-.63s-.446-.576-.582-.936c-.136-.36-.204-.744-.204-1.152 0-.424.064-.82.192-1.188s.316-.688.564-.96c.248-.272.546-.486.894-.642.348-.156.746-.234 1.194-.234.408 0 .788.08 1.14.24.352.16.632.416.84.768h.024v-.864h1.368zm-3.072 1.152c-.256 0-.488.042-.696.126-.208.084-.386.2-.534.348-.148.148-.264.328-.348.54-.084.212-.126.446-.126.702 0 .232.042.448.126.648.084.2.202.376.354.528.152.152.332.272.54.36.208.088.432.132.672.132.264 0 .502-.044.714-.132.212-.088.392-.206.54-.354.148-.148.262-.326.342-.534.08-.208.12-.432.12-.672 0-.504-.152-.912-.456-1.224-.304-.312-.72-.468-1.248-.468zm4.416 1.728c0-.456.082-.87.246-1.242.164-.372.386-.69.666-.954s.612-.468.996-.612c.384-.144.792-.216 1.224-.216.432 0 .84.072 1.224.216.384.144.716.348.996.612s.502.582.666.954c.164.372.246.786.246 1.242 0 .456-.082.87-.246 1.242-.164.372-.386.69-.666.954s-.612.468-.996.612c-.384.144-.792.216-1.224.216-.432 0-.84-.072-1.224-.216-.384-.144-.716-.348-.996-.612s-.502-.582-.666-.954c-.164-.372-.246-.786-.246-1.242zm1.44 0c0 .224.038.44.114.648.076.208.188.392.336.552.148.16.326.288.534.384.208.096.444.144.708.144.264 0 .5-.048.708-.144.208-.096.386-.224.534-.384.148-.16.26-.344.336-.552.076-.208.114-.424.114-.648 0-.224-.038-.44-.114-.648-.076-.208-.188-.392-.336-.552-.148-.16-.326-.288-.534-.384-.208-.096-.444-.144-.708-.144-.264 0-.5.048-.708.144-.208.096-.386.224-.534.384-.148.16-.26.344-.336.552-.076.208-.114.424-.114.648z" fill="#F13564"/><g transform="translate(74 210)"><use fill="#000" filter="url(#g)" xlink:href="#h"/><use fill="#FFF" xlink:href="#h"/></g><path d="M97.344 231.088h1.008v4.298h5.404v-4.298h1.008V241h-1.008v-4.69h-5.404V241h-1.008v-9.912zm15.386 6.636c0-.364-.058-.705-.175-1.022-.117-.317-.282-.593-.497-.826-.215-.233-.474-.418-.777-.553-.302-.135-.645-.203-1.028-.203s-.726.068-1.03.203c-.302.135-.56.32-.77.553-.21.233-.372.51-.49.826-.116.317-.174.658-.174 1.022s.058.705.175 1.022c.117.317.28.593.49.826.21.233.467.418.77.553.303.135.646.203 1.03.203.382 0 .725-.068 1.028-.203.304-.135.563-.32.778-.553.215-.233.38-.51.497-.826.117-.317.175-.658.175-1.022zm1.008 0c0 .495-.086.952-.26 1.372-.172.42-.412.784-.72 1.092-.308.308-.674.548-1.1.72-.424.174-.893.26-1.406.26-.504 0-.968-.086-1.393-.26-.426-.172-.792-.412-1.1-.72-.308-.308-.548-.672-.72-1.092-.174-.42-.26-.877-.26-1.372 0-.495.086-.952.26-1.372.172-.42.412-.784.72-1.092.308-.308.674-.548 1.1-.72.424-.174.888-.26 1.392-.26.513 0 .982.086 1.407.26.424.172.79.412 1.098.72.308.308.548.672.72 1.092.174.42.26.877.26 1.372zm1.96-3.276l1.512 5.32h.028l1.75-5.32h.952l1.75 5.32h.028l1.512-5.32h1.092L122.25 241h-1.036l-1.736-5.376h-.028L117.714 241h-1.036l-2.072-6.552h1.092zm18.494 1.54c-.16-.243-.38-.448-.665-.616-.285-.168-.61-.252-.973-.252-.383-.01-.726.05-1.03.182-.302.13-.56.313-.776.546-.215.233-.378.51-.49.833-.112.323-.168.67-.168 1.044 0 .373.056.72.168 1.043.112.322.275.6.49.833.215.233.474.415.777.546.303.13.646.19 1.03.182.363 0 .687-.084.972-.252.285-.168.506-.373.665-.616l.756.574c-.327.383-.695.665-1.106.847-.41.183-.84.28-1.288.288-.532.01-1.013-.072-1.442-.245-.43-.173-.796-.413-1.1-.72-.302-.31-.533-.675-.692-1.1-.16-.425-.238-.884-.238-1.38 0-.494.08-.953.238-1.378.16-.425.39-.79.693-1.1.303-.307.67-.547 1.1-.72.428-.173.91-.254 1.44-.245.45.01.878.105 1.29.287.41.182.778.464 1.105.847l-.756.574zm5.698 1.75c-.233 0-.525.012-.875.035-.35.023-.686.08-1.008.168-.322.09-.597.227-.826.414-.228.187-.342.443-.342.77 0 .215.044.4.133.553.09.154.21.28.358.378.15.098.315.168.497.21.182.042.366.063.553.063.336 0 .628-.056.875-.168.247-.112.455-.264.623-.455.168-.19.292-.415.37-.672.08-.257.12-.53.12-.82v-.475h-.476zm.476-.756v-.168c0-1.13-.56-1.694-1.68-1.694-.765 0-1.433.257-2.002.77l-.56-.658c.616-.635 1.54-.952 2.772-.952.317 0 .623.047.917.14.294.093.548.236.763.427.215.19.387.432.518.72.13.29.196.636.196 1.037v2.926c0 .252.012.516.035.79.023.276.05.503.077.68h-.896c-.028-.16-.05-.33-.063-.518-.014-.187-.02-.37-.02-.546h-.03c-.27.44-.59.754-.958.945-.37.192-.82.288-1.35.288-.29 0-.57-.04-.84-.12-.272-.078-.512-.2-.722-.363-.21-.163-.378-.364-.504-.602-.127-.238-.19-.516-.19-.833 0-.532.138-.95.413-1.253.275-.303.62-.53 1.036-.68.414-.148.858-.242 1.33-.28.47-.036.902-.055 1.294-.055h.462zm3.948-2.534c.02.177.03.352.035.525.004.173.006.348.006.525h.028c.103-.177.233-.34.392-.49.16-.15.336-.278.532-.385.196-.107.404-.19.623-.252.22-.06.437-.09.652-.09.84 0 1.46.222 1.862.665.4.443.602 1.076.602 1.897V241h-.924v-3.626c0-.728-.126-1.286-.378-1.673-.252-.386-.72-.58-1.4-.58-.047 0-.177.02-.392.056-.215.037-.44.14-.68.308-.237.168-.45.42-.636.756-.187.336-.28.803-.28 1.4V241h-.924v-5.11c0-.177-.007-.4-.02-.672-.015-.27-.03-.527-.05-.77h.952zM156.452 241h-1.008v-9.912h1.008V241zm6.244-10.584h.924v5.082h.028c.103-.177.233-.34.392-.49.16-.15.336-.278.532-.385.196-.107.404-.19.623-.252.22-.06.436-.09.65-.09.84 0 1.462.222 1.863.665.4.443.602 1.076.602 1.897V241h-.924v-3.626c0-.728-.126-1.286-.378-1.673-.252-.386-.72-.58-1.4-.58-.047 0-.177.02-.392.056-.215.037-.44.14-.68.308-.237.168-.45.42-.636.756-.187.336-.28.803-.28 1.4V241h-.924v-10.584zm12.88 6.804c0-.625-.187-1.132-.56-1.52-.373-.386-.896-.58-1.568-.58-.3 0-.588.058-.868.175-.28.117-.525.273-.735.47-.21.195-.378.42-.504.67-.125.253-.188.514-.188.785h4.424zm-4.452.756c.028.327.107.635.238.924.13.29.303.54.518.75.215.21.462.375.742.496.28.12.583.182.91.182.495 0 .922-.114 1.28-.343.36-.23.633-.492.82-.79l.714.587c-.392.495-.824.85-1.295 1.064-.47.215-.977.322-1.518.322-.485 0-.936-.086-1.35-.26-.416-.172-.773-.412-1.072-.72-.3-.308-.534-.672-.707-1.092-.173-.42-.26-.877-.26-1.372 0-.495.085-.952.253-1.372.168-.42.4-.784.7-1.092.3-.308.65-.548 1.05-.72.4-.174.835-.26 1.302-.26.495 0 .938.09 1.33.266.392.177.72.413.987.707.266.294.47.64.61 1.036s.21.818.21 1.266v.42h-5.46zm8.274 3.024h-.924v-10.584h.924V241zm8.204-3.276c0-.364-.058-.705-.175-1.022-.117-.317-.282-.593-.497-.826-.215-.233-.474-.418-.777-.553-.303-.135-.646-.203-1.03-.203-.382 0-.732.068-1.05.203-.316.135-.592.32-.825.553-.233.233-.415.51-.546.826-.13.317-.196.658-.196 1.022s.065.705.196 1.022c.13.317.313.593.546.826.233.233.51.418.826.553.317.135.667.203 1.05.203s.726-.068 1.03-.203c.302-.135.56-.32.776-.553.215-.233.38-.51.497-.826.117-.317.175-.658.175-1.022zm-5.978-3.276h.924v1.092h.028c.15-.224.327-.415.532-.574.205-.16.42-.29.644-.392.224-.103.455-.177.693-.224.238-.047.464-.07.68-.07.512 0 .98.086 1.406.26.426.172.792.412 1.1.72.308.308.548.672.72 1.092.174.42.26.877.26 1.372 0 .495-.086.952-.26 1.372-.172.42-.412.784-.72 1.092-.308.308-.674.548-1.1.72-.424.174-.893.26-1.406.26-.215 0-.44-.023-.68-.07-.237-.047-.468-.12-.692-.224-.224-.103-.44-.233-.644-.392-.205-.16-.383-.35-.532-.574h-.028v5.124h-.924v-10.584zm14.882 5.418l2.002-5.418h1.12l-3.276 8.26c-.196.504-.446.905-.75 1.204-.302.3-.74.448-1.308.448-.14 0-.282-.005-.427-.014-.145-.01-.287-.037-.427-.084l.098-.896c.196.103.43.154.7.154.327 0 .583-.103.77-.308.187-.205.35-.495.49-.868l.476-1.26-2.688-6.636h1.162l2.058 5.418zm9.926-2.142c0-.364-.058-.705-.175-1.022-.117-.317-.282-.593-.497-.826-.215-.233-.474-.418-.777-.553-.303-.135-.646-.203-1.03-.203-.382 0-.725.068-1.028.203-.303.135-.56.32-.77.553-.21.233-.373.51-.49.826-.117.317-.175.658-.175 1.022s.058.705.175 1.022c.117.317.28.593.49.826.21.233.467.418.77.553.303.135.646.203 1.03.203.382 0 .725-.068 1.028-.203.303-.135.562-.32.777-.553.215-.233.38-.51.497-.826.117-.317.175-.658.175-1.022zm1.008 0c0 .495-.086.952-.26 1.372-.172.42-.412.784-.72 1.092-.308.308-.674.548-1.1.72-.424.174-.893.26-1.406.26-.504 0-.968-.086-1.393-.26-.424-.172-.79-.412-1.098-.72-.308-.308-.548-.672-.72-1.092-.174-.42-.26-.877-.26-1.372 0-.495.086-.952.26-1.372.172-.42.412-.784.72-1.092.308-.308.674-.548 1.1-.72.424-.174.888-.26 1.392-.26.513 0 .982.086 1.407.26.426.172.792.412 1.1.72.308.308.548.672.72 1.092.174.42.26.877.26 1.372zm6.412 3.276c-.02-.177-.03-.352-.035-.525-.005-.173-.007-.348-.007-.525h-.028c-.103.177-.233.34-.392.49-.16.15-.336.278-.532.385-.196.107-.404.19-.623.252-.22.06-.436.09-.65.09-.84 0-1.462-.22-1.863-.664-.4-.443-.602-1.076-.602-1.897v-4.158h.924v3.626c0 .364.028.686.084.966.056.28.152.516.287.707.135.19.317.336.546.434.23.1.517.148.862.148.047 0 .177-.02.392-.056.215-.037.44-.14.68-.308.237-.168.45-.42.636-.756.187-.336.28-.803.28-1.4v-3.36h.924v5.11c0 .177.007.4.02.672.015.27.03.527.05.77h-.952zm6.244-.672c0 .196-.07.37-.21.525-.14.154-.322.23-.546.23-.224 0-.406-.076-.546-.23-.14-.154-.21-.33-.21-.525 0-.196.07-.37.21-.525.14-.154.322-.23.546-.23.224 0 .406.076.546.23.14.154.21.33.21.525zm-.336-2.016h-1.008v-1.162c0-.252.058-.483.175-.693.117-.21.26-.406.427-.588.168-.183.35-.358.546-.526.196-.168.376-.348.54-.54.162-.19.3-.393.412-.608.112-.215.168-.462.168-.742 0-.476-.152-.863-.455-1.162-.303-.3-.698-.448-1.183-.448-.476 0-.87.14-1.183.42-.314.28-.512.65-.596 1.106l-1.05-.126c.056-.364.166-.69.33-.98.162-.29.368-.534.615-.735.246-.202.53-.353.846-.456.317-.103.658-.154 1.022-.154.373 0 .723.054 1.05.16.327.108.61.265.847.47.238.205.425.462.56.77.135.308.203.658.203 1.05s-.056.723-.168.994c-.112.27-.252.506-.42.707-.168.202-.35.38-.546.54-.196.16-.378.33-.546.51-.168.183-.308.39-.42.624-.112.233-.168.518-.168.854v.714z" fill="#46454C"/><path d="M102.06 252.8h-3.42l-.036 1.692c.112-.04.254-.068.426-.084s.334-.024.486-.024c.416 0 .798.066 1.146.198.348.132.646.322.894.57.248.248.442.544.582.888.14.344.21.732.21 1.164 0 .456-.078.866-.234 1.23-.156.364-.372.672-.648.924s-.602.446-.978.582c-.376.136-.78.204-1.212.204-.68 0-1.258-.16-1.734-.48-.476-.32-.814-.808-1.014-1.464l1.512-.408c.096.304.26.544.492.72.232.176.532.264.9.264.216 0 .414-.036.594-.108.18-.072.336-.174.468-.306s.234-.286.306-.462c.072-.176.108-.368.108-.576 0-.296-.054-.548-.162-.756-.108-.208-.254-.378-.438-.51s-.396-.228-.636-.288c-.24-.06-.492-.09-.756-.09-.312 0-.622.036-.93.108-.308.072-.59.172-.846.3l.084-4.584h4.836v1.296zm5.352 1.44h1.368v.9h.024c.128-.272.334-.514.618-.726.284-.212.666-.318 1.146-.318.904 0 1.504.356 1.8 1.068.208-.368.468-.638.78-.81.312-.172.684-.258 1.116-.258.384 0 .708.064.972.192s.478.304.642.528c.164.224.282.486.354.786.072.3.108.622.108.966V260h-1.44v-3.264c0-.176-.016-.346-.048-.51-.032-.164-.088-.308-.168-.432-.08-.124-.188-.222-.324-.294-.136-.072-.312-.108-.528-.108-.224 0-.414.042-.57.126-.156.084-.284.196-.384.336-.1.14-.172.3-.216.48-.044.18-.066.362-.066.546V260h-1.44v-3.432c0-.36-.076-.646-.228-.858-.152-.212-.404-.318-.756-.318-.24 0-.442.04-.606.12-.164.08-.3.188-.408.324-.108.136-.186.292-.234.468-.048.176-.072.36-.072.552V260h-1.44v-5.76zm10.524 0h1.44V260h-1.44v-5.76zm-.204-1.956c0-.232.086-.434.258-.606.172-.172.39-.258.654-.258s.486.082.666.246c.18.164.27.37.27.618s-.09.454-.27.618c-.18.164-.402.246-.666.246s-.482-.086-.654-.258c-.172-.172-.258-.374-.258-.606zm3.3 1.956h1.368v.924h.024c.136-.288.344-.538.624-.75.28-.212.66-.318 1.14-.318.384 0 .71.064.978.192s.486.296.654.504c.168.208.288.448.36.72.072.272.108.556.108.852V260h-1.44v-2.916c0-.16-.008-.338-.024-.534s-.058-.38-.126-.552c-.068-.172-.174-.316-.318-.432-.144-.116-.34-.174-.588-.174-.24 0-.442.04-.606.12-.164.08-.3.188-.408.324-.108.136-.186.292-.234.468-.048.176-.072.36-.072.552V260h-1.44v-5.76zm12.144 5.76h-1.368v-.924h-.024c-.136.288-.344.538-.624.75-.28.212-.66.318-1.14.318-.384 0-.71-.062-.978-.186s-.486-.292-.654-.504c-.168-.212-.288-.454-.36-.726-.072-.272-.108-.556-.108-.852v-3.636h1.44v2.916c0 .16.008.338.024.534s.058.38.126.552c.068.172.172.316.312.432.14.116.338.174.594.174.24 0 .442-.04.606-.12.164-.08.3-.188.408-.324.108-.136.186-.292.234-.468.048-.176.072-.36.072-.552v-3.144h1.44V260zm.96-4.536v-1.224h1.188v-1.668h1.44v1.668h1.584v1.224h-1.584v2.52c0 .288.054.516.162.684.108.168.322.252.642.252.128 0 .268-.014.42-.042.152-.028.272-.074.36-.138v1.212c-.152.072-.338.122-.558.15-.22.028-.414.042-.582.042-.384 0-.698-.042-.942-.126-.244-.084-.436-.212-.576-.384-.14-.172-.236-.386-.288-.642-.052-.256-.078-.552-.078-.888v-2.64h-1.188zm6.492 2.16c.048.432.216.768.504 1.008.288.24.636.36 1.044.36.36 0 .662-.074.906-.222.244-.148.458-.334.642-.558l1.032.78c-.336.416-.712.712-1.128.888-.416.176-.852.264-1.308.264-.432 0-.84-.072-1.224-.216-.384-.144-.716-.348-.996-.612s-.502-.582-.666-.954c-.164-.372-.246-.786-.246-1.242 0-.456.082-.87.246-1.242.164-.372.386-.69.666-.954s.612-.468.996-.612c.384-.144.792-.216 1.224-.216.4 0 .766.07 1.098.21.332.14.616.342.852.606.236.264.42.59.552.978.132.388.198.834.198 1.338v.396h-4.392zm2.952-1.08c-.008-.424-.14-.758-.396-1.002s-.612-.366-1.068-.366c-.432 0-.774.124-1.026.372s-.406.58-.462.996h2.952zm5.856-.708c-.28-.392-.656-.588-1.128-.588-.192 0-.38.048-.564.144-.184.096-.276.252-.276.468 0 .176.076.304.228.384.152.08.344.148.576.204.232.056.482.114.75.174.268.06.518.152.75.276.232.124.424.294.576.51.152.216.228.512.228.888 0 .344-.074.634-.222.87-.148.236-.34.426-.576.57-.236.144-.502.248-.798.312-.296.064-.592.096-.888.096-.448 0-.86-.064-1.236-.192s-.712-.36-1.008-.696l.96-.9c.184.208.382.378.594.51.212.132.47.198.774.198.104 0 .212-.012.324-.036.112-.024.216-.064.312-.12.096-.056.174-.126.234-.21.06-.084.09-.182.09-.294 0-.2-.076-.348-.228-.444-.152-.096-.344-.174-.576-.234-.232-.06-.482-.116-.75-.168-.268-.052-.518-.136-.75-.252-.232-.116-.424-.278-.576-.486-.152-.208-.228-.496-.228-.864 0-.32.066-.598.198-.834s.306-.43.522-.582c.216-.152.464-.264.744-.336.28-.072.564-.108.852-.108.384 0 .764.066 1.14.198.376.132.68.358.912.678l-.96.864zm9.408 3.372h-.036c-.208.328-.472.566-.792.714-.32.148-.672.222-1.056.222-.264 0-.522-.036-.774-.108-.252-.072-.476-.18-.672-.324-.196-.144-.354-.324-.474-.54-.12-.216-.18-.468-.18-.756 0-.312.056-.578.168-.798.112-.22.262-.404.45-.552.188-.148.406-.266.654-.354.248-.088.506-.154.774-.198.268-.044.538-.072.81-.084.272-.012.528-.018.768-.018h.36v-.156c0-.36-.124-.63-.372-.81-.248-.18-.564-.27-.948-.27-.304 0-.588.054-.852.162-.264.108-.492.254-.684.438l-.756-.756c.32-.328.694-.564 1.122-.708.428-.144.87-.216 1.326-.216.408 0 .752.046 1.032.138.28.092.512.21.696.354.184.144.326.31.426.498.1.188.172.378.216.57.044.192.07.378.078.558.008.18.012.338.012.474V260h-1.296v-.792zm-.084-1.788h-.3c-.2 0-.424.008-.672.024-.248.016-.482.054-.702.114-.22.06-.406.148-.558.264-.152.116-.228.278-.228.486 0 .136.03.25.09.342.06.092.138.17.234.234s.204.11.324.138c.12.028.24.042.36.042.496 0 .862-.118 1.098-.354.236-.236.354-.558.354-.966v-.324zm8.856-3.18v5.244c0 .52-.064.99-.192 1.41-.128.42-.326.776-.594 1.068-.268.292-.606.518-1.014.678-.408.16-.892.24-1.452.24-.536 0-1.044-.068-1.524-.204-.48-.136-.924-.384-1.332-.744l.864-1.176c.288.264.588.468.9.612.312.144.672.216 1.08.216.344 0 .634-.048.87-.144.236-.096.424-.228.564-.396.14-.168.24-.37.3-.606s.09-.498.09-.786v-.42h-.024c-.208.28-.484.49-.828.63s-.696.21-1.056.21c-.432 0-.824-.078-1.176-.234-.352-.156-.654-.366-.906-.63s-.446-.576-.582-.936c-.136-.36-.204-.744-.204-1.152 0-.424.064-.82.192-1.188s.316-.688.564-.96c.248-.272.546-.486.894-.642.348-.156.746-.234 1.194-.234.408 0 .788.08 1.14.24.352.16.632.416.84.768h.024v-.864h1.368zm-3.072 1.152c-.256 0-.488.042-.696.126-.208.084-.386.2-.534.348-.148.148-.264.328-.348.54-.084.212-.126.446-.126.702 0 .232.042.448.126.648.084.2.202.376.354.528.152.152.332.272.54.36.208.088.432.132.672.132.264 0 .502-.044.714-.132.212-.088.392-.206.54-.354.148-.148.262-.326.342-.534.08-.208.12-.432.12-.672 0-.504-.152-.912-.456-1.224-.304-.312-.72-.468-1.248-.468zm4.416 1.728c0-.456.082-.87.246-1.242.164-.372.386-.69.666-.954s.612-.468.996-.612c.384-.144.792-.216 1.224-.216.432 0 .84.072 1.224.216.384.144.716.348.996.612s.502.582.666.954c.164.372.246.786.246 1.242 0 .456-.082.87-.246 1.242-.164.372-.386.69-.666.954s-.612.468-.996.612c-.384.144-.792.216-1.224.216-.432 0-.84-.072-1.224-.216-.384-.144-.716-.348-.996-.612s-.502-.582-.666-.954c-.164-.372-.246-.786-.246-1.242zm1.44 0c0 .224.038.44.114.648.076.208.188.392.336.552.148.16.326.288.534.384.208.096.444.144.708.144.264 0 .5-.048.708-.144.208-.096.386-.224.534-.384.148-.16.26-.344.336-.552.076-.208.114-.424.114-.648 0-.224-.038-.44-.114-.648-.076-.208-.188-.392-.336-.552-.148-.16-.326-.288-.534-.384-.208-.096-.444-.144-.708-.144-.264 0-.5.048-.708.144-.208.096-.386.224-.534.384-.148.16-.26.344-.336.552-.076.208-.114.424-.114.648z" fill="#F13564"/><circle fill="#D2F0F3" cx="37" cy="157" r="18"/><g><g transform="translate(23 144)"><use fill="url(#i)" xlink:href="#j"/><use fill-opacity=".74" fill="url(#k)" xlink:href="#j"/></g></g><circle fill="#D2F0F3" cx="37" cy="463" r="18"/><g><g transform="translate(23 450)"><use fill="url(#i)" xlink:href="#l"/><use fill-opacity=".74" fill="url(#k)" xlink:href="#l"/></g></g><path fill="#FFF" d="M41.05 537.15v-5.5h2.55v5.5h5.5v2.55h-5.5v5.5h-2.55v-5.5h-5.5v-2.55"/><path d="M212.7 17.3h2.725L223.05 35h-3.6l-1.65-4.05h-7.675l-1.6 4.05H205l7.7-17.7zm4 10.95l-2.725-7.2-2.775 7.2h5.5zm8.05-5.25h3v1.9h.05c.333-.7.808-1.242 1.425-1.625s1.325-.575 2.125-.575c.183 0 .362.017.537.05.176.033.355.075.538.125v2.9c-.25-.067-.496-.12-.738-.162-.24-.042-.48-.063-.712-.063-.7 0-1.262.13-1.688.387-.425.26-.75.555-.975.888-.225.333-.375.667-.45 1-.075.333-.112.583-.112.75V35h-3V23zm17.225 10.35h-.075c-.433.683-.983 1.18-1.65 1.487-.667.31-1.4.463-2.2.463-.55 0-1.087-.075-1.613-.225-.525-.15-.99-.375-1.4-.675-.408-.3-.737-.675-.987-1.125-.25-.45-.375-.975-.375-1.575 0-.65.117-1.204.35-1.662.233-.46.546-.842.938-1.15.39-.31.845-.555 1.362-.738.517-.183 1.054-.32 1.613-.412.558-.092 1.12-.15 1.687-.175.567-.026 1.1-.038 1.6-.038h.75V27.2c0-.75-.258-1.312-.775-1.688-.517-.375-1.175-.562-1.975-.562-.633 0-1.225.112-1.775.338-.55.225-1.025.53-1.425.912l-1.575-1.575c.667-.683 1.446-1.175 2.338-1.475.89-.3 1.812-.45 2.762-.45.85 0 1.567.096 2.15.288.583.19 1.067.437 1.45.737s.68.646.887 1.037c.21.392.36.788.45 1.188.092.4.146.787.163 1.163.017.375.025.704.025.987V35h-2.7v-1.65zm-.175-3.725h-.625c-.417 0-.883.017-1.4.05-.517.033-1.004.112-1.463.238-.458.125-.845.308-1.162.55-.317.24-.475.58-.475 1.012 0 .283.062.52.188.712.125.192.287.355.487.488s.425.23.675.288c.25.058.5.087.75.087 1.033 0 1.796-.246 2.287-.737.492-.492.738-1.163.738-2.013v-.675z" fill="#D9D9D9"/></g></svg>