<svg width="420" height="338" viewBox="0 0 420 338" xmlns="http://www.w3.org/2000/svg" xmlns:xlink="http://www.w3.org/1999/xlink"><defs><path d="M0 0h416v285.83c0 1.5-1.2 2.17-3.85 2.17H3.85C1.2 288 0 287.33 0 285.83V0z" id="a"/><path d="M0 0h416v285.83c0 1.5-1.2 2.17-3.85 2.17H3.85C1.2 288 0 287.33 0 285.83V0z" id="c"/><path d="M0 0h416v285.83c0 1.5-1.2 2.17-3.85 2.17H3.85C1.2 288 0 287.33 0 285.83V0z" id="e"/><path d="M0 0h416v285.83c0 1.5-1.2 2.17-3.85 2.17H3.85C1.2 288 0 287.33 0 285.83V0z" id="g"/><path d="M0 0h416v285.83c0 1.5-1.2 2.17-3.85 2.17H3.85C1.2 288 0 287.33 0 285.83V0z" id="i"/><filter x="-16.6%" y="-9.9%" width="133.1%" height="128.3%" filterUnits="objectBoundingBox" id="k"><feOffset dy="8" in="SourceAlpha" result="shadowOffsetOuter1"/><feGaussianBlur stdDeviation="7.5" in="shadowOffsetOuter1" result="shadowBlurOuter1"/><feColorMatrix values="0 0 0 0 0 0 0 0 0 0 0 0 0 0 0 0 0 0 0.17 0" in="shadowBlurOuter1" result="shadowMatrixOuter1"/><feMerge><feMergeNode in="shadowMatrixOuter1"/><feMergeNode in="SourceGraphic"/></feMerge></filter><rect id="l" width="159.493" height="186.003" rx="2"/></defs><g fill="none" fill-rule="evenodd"><g transform="translate(1 1)"><rect stroke="#EFF1F5" stroke-width="2" fill="#608EA5" fill-rule="nonzero" width="418" height="336" rx="4"/><rect fill-opacity=".31" fill="#FFF" fill-rule="nonzero" x="312" y="22" width="37" height="3" rx="1"/><rect fill-opacity=".31" fill="#FFF" fill-rule="nonzero" x="13" y="22" width="37" height="3" rx="1"/><rect fill-opacity=".31" fill="#FFF" fill-rule="nonzero" x="361" y="22" width="20" height="3" rx="1"/><rect fill-opacity=".31" fill="#FFF" fill-rule="nonzero" x="62" y="22" width="23" height="3" rx="1"/><rect fill-opacity=".31" fill="#FFF" fill-rule="nonzero" x="97" y="22" width="10" height="3" rx="1"/><path d="M1 47h416v285.83c0 1.5-1.2 2.17-3.85 2.17H4.85C2.2 335 1 334.33 1 332.83V47z" fill-rule="nonzero" fill="#FFF"/><g transform="translate(1 47)"><mask id="b" fill="#fff"><use xlink:href="#a"/></mask><rect fill="#F6F9FC" fill-rule="nonzero" mask="url(#b)" x="20" y="19" width="56" height="5" rx="1"/></g><g transform="translate(1 47)"><mask id="d" fill="#fff"><use xlink:href="#c"/></mask><rect fill="#F6F9FC" fill-rule="nonzero" mask="url(#d)" x="20" y="30" width="121" height="5" rx="1"/></g><g transform="translate(1 47)"><mask id="f" fill="#fff"><use xlink:href="#e"/></mask><path fill="#F6F9FC" fill-rule="nonzero" mask="url(#f)" d="M0 0h147v288H0z"/></g><g transform="translate(1 47)"><mask id="h" fill="#fff"><use xlink:href="#g"/></mask><path fill="#FFF" fill-rule="nonzero" mask="url(#h)" d="M-1 249h418v39H-1z"/></g><g transform="translate(1 47)"><mask id="j" fill="#fff"><use xlink:href="#i"/></mask><path stroke="#EFF1F5" mask="url(#j)" d="M-.5 249.5h416v1H-.5z"/></g><g transform="translate(393 19)" stroke="#FFF" stroke-width="2"><circle cx="4" cy="4" r="4"/><path d="M6.5 6.5L10 10"/></g><path stroke="#EFF1F5" d="M.5 70.5h147v1H.5zM74.5 47.5v23h-1v-23z"/><path fill="#C4F0FF" fill-rule="nonzero" d="M1 68h72v2H1z"/><rect fill="#E3E7ED" fill-rule="nonzero" x="25" y="58" width="24" height="3" rx="1"/><rect fill="#E3E7ED" fill-rule="nonzero" x="102" y="58" width="19" height="3" rx="1"/><rect fill="#C4F0FF" fill-rule="nonzero" x="160" y="58" width="55" height="3" rx="1"/><rect fill="#E3E7ED" fill-rule="nonzero" x="13" y="95" width="90" height="3" rx="1"/><rect fill="#E3E7ED" fill-rule="nonzero" x="13" y="121" width="41" height="3" rx="1"/><rect fill="#E3E7ED" fill-rule="nonzero" x="13" y="147" width="90" height="3" rx="1"/><rect fill="#E3E7ED" fill-rule="nonzero" x="13" y="173" width="62" height="3" rx="1"/><rect fill="#E3E7ED" fill-rule="nonzero" x="13" y="199" width="24" height="3" rx="1"/><rect fill="#E3E7ED" fill-rule="nonzero" x="13" y="225" width="86" height="3" rx="1"/><rect fill="#E3E7ED" fill-rule="nonzero" x="13" y="251" width="24" height="3" rx="1"/><rect fill="#E3E7ED" fill-rule="nonzero" x="13" y="277" width="34" height="3" rx="1"/><g fill-rule="nonzero" fill="#E3E7ED"><path d="M129.4 97.4h-1.15l.57-.57.56.56.02.01zm1.13-2.27h1.13l-2.83 2.83-2.83-2.83h1.13l1.7 1.7 1.7-1.7zm-1.14 2.26h-1.13l.57-.56.56.56zm1.14-2.26h1.13l-2.83 2.83-2.83-2.83h1.13l1.7 1.7 1.7-1.7zM129.4 123.4h-1.15l.57-.57.56.56.02.01zm1.13-2.27h1.13l-2.83 2.83-2.83-2.83h1.13l1.7 1.7 1.7-1.7zm-1.14 2.26h-1.13l.57-.56.56.56zm1.14-2.26h1.13l-2.83 2.83-2.83-2.83h1.13l1.7 1.7 1.7-1.7zM129.4 149.4h-1.15l.57-.57.56.56.02.01zm1.13-2.27h1.13l-2.83 2.83-2.83-2.83h1.13l1.7 1.7 1.7-1.7zm-1.14 2.26h-1.13l.57-.56.56.56zm1.14-2.26h1.13l-2.83 2.83-2.83-2.83h1.13l1.7 1.7 1.7-1.7zM129.4 175.4h-1.15l.57-.57.56.56.02.01zm1.13-2.27h1.13l-2.83 2.83-2.83-2.83h1.13l1.7 1.7 1.7-1.7zm-1.14 2.26h-1.13l.57-.56.56.56zm1.14-2.26h1.13l-2.83 2.83-2.83-2.83h1.13l1.7 1.7 1.7-1.7zM129.4 201.4h-1.15l.57-.57.56.56.02.01zm1.13-2.27h1.13l-2.83 2.83-2.83-2.83h1.13l1.7 1.7 1.7-1.7zm-1.14 2.26h-1.13l.57-.56.56.56zm1.14-2.26h1.13l-2.83 2.83-2.83-2.83h1.13l1.7 1.7 1.7-1.7zM129.4 227.4h-1.15l.57-.57.56.56.02.01zm1.13-2.27h1.13l-2.83 2.83-2.83-2.83h1.13l1.7 1.7 1.7-1.7zm-1.14 2.26h-1.13l.57-.56.56.56zm1.14-2.26h1.13l-2.83 2.83-2.83-2.83h1.13l1.7 1.7 1.7-1.7zM129.4 253.4h-1.15l.57-.57.56.56.02.01zm1.13-2.27h1.13l-2.83 2.83-2.83-2.83h1.13l1.7 1.7 1.7-1.7zm-1.14 2.26h-1.13l.57-.56.56.56zm1.14-2.26h1.13l-2.83 2.83-2.83-2.83h1.13l1.7 1.7 1.7-1.7zM129.4 279.4h-1.15l.57-.57.56.56.02.01zm1.13-2.27h1.13l-2.83 2.83-2.83-2.83h1.13l1.7 1.7 1.7-1.7zm-1.14 2.26h-1.13l.57-.56.56.56zm1.14-2.26h1.13l-2.83 2.83-2.83-2.83h1.13l1.7 1.7 1.7-1.7z"/></g><path fill="#EFF1F5" fill-rule="nonzero" d="M148 190h270v2H148z"/><path d="M293.32 143.41h.56c.58 0 1.05-.47 1.05-1.05 0-.58-.47-1.06-1.05-1.06h-.24c.51.73.44 1.4-.21 2l-.1.11h-.01z" fill="#E39F48" fill-rule="nonzero"/><path d="M274.69 143.41c-.498-.02-.915-.384-1.002-.875-.087-.49.18-.976.642-1.165-.41.674-.255 1.547.36 2.04z" fill="#FCD669" fill-rule="nonzero"/></g><path d="M392 306c-6.075 0-11 4.925-11 11s4.925 11 11 11 11-4.925 11-11-4.925-11-11-11zm-.167 2.185c.788 0 1.426.637 1.426 1.42 0 .788-.64 1.426-1.427 1.426-.782 0-1.42-.637-1.42-1.425 0-.783.637-1.42 1.42-1.42zm6.165 4.594l-4.233.533.002 4.237 2.05 6.844c.11.432-.15.865-.58.972-.426.106-.863-.13-.97-.56l-2.1-6.232h-.648l-1.933 6.36c-.162.415-.624.606-1.038.444-.412-.16-.663-.627-.5-1.042l1.774-6.717v-4.307l-3.9-.53c-.4-.032-.67-.385-.638-.785.03-.403.393-.702.793-.67l4.736.408h2.078l5.044-.416c.4-.016.74.295.754.7.016.4-.293.742-.694.76z" fill-rule="nonzero" fill="#4A90E2"/><g filter="url(#k)" transform="translate(245 113)"><rect width="159.493" height="186.003" rx="2" fill-rule="nonzero" fill="#F6F9FC"/><mask id="m" fill="#fff"><use xlink:href="#l"/></mask><use fill="#FFF" xlink:href="#l"/><path fill="#4A90E2" fill-rule="nonzero" mask="url(#m)" d="M-4 0h163.064v31.167H-4z"/></g><path d="M255.027 133l3.67-9.338h2.045l3.664 9.338h-1.86l-.683-1.805h-4.286l-.69 1.805h-1.86zm3.008-3.247h3.363l-1.68-4.45-1.683 4.45zm6.932-.144c0-1.026.327-1.873.98-2.54.655-.668 1.49-1.002 2.506-1.002 1.13 0 1.994.4 2.59 1.203l-.97.883c-.364-.52-.882-.78-1.552-.78-.605 0-1.097.208-1.475.623-.378.415-.567.953-.567 1.613s.19 1.2.567 1.623c.378.42.87.632 1.476.632.653 0 1.17-.27 1.553-.813l.97.91c-.614.806-1.478 1.21-2.59 1.21-1.016 0-1.85-.338-2.505-1.013-.654-.675-.98-1.525-.98-2.55zm6.966 0c0-1.026.327-1.873.98-2.54.655-.668 1.49-1.002 2.506-1.002 1.13 0 1.993.4 2.59 1.203l-.97.883c-.366-.52-.883-.78-1.553-.78-.606 0-1.098.208-1.476.623-.378.415-.567.953-.567 1.613s.19 1.2.568 1.623c.38.42.87.632 1.477.632.652 0 1.17-.27 1.552-.813l.97.91c-.615.806-1.48 1.21-2.59 1.21-1.017 0-1.852-.338-2.506-1.013-.654-.675-.98-1.525-.98-2.55zm6.965 0c0-.648.145-1.24.435-1.78.29-.54.698-.97 1.227-1.287.528-.316 1.118-.475 1.77-.475 1.003 0 1.806.343 2.41 1.03.604.685.906 1.566.906 2.64v.364h-5.21c.06.528.28.97.657 1.326.378.355.872.533 1.483.533.347 0 .696-.065 1.05-.197.353-.132.648-.317.885-.554l.67.963c-.34.32-.75.565-1.226.738-.477.174-.98.26-1.515.26-1.03 0-1.878-.327-2.544-.983-.665-.657-.998-1.516-.998-2.578zm1.525-.56h3.807c-.01-.21-.053-.416-.133-.616-.08-.2-.192-.39-.338-.57-.147-.18-.344-.325-.593-.432-.248-.107-.532-.16-.85-.16-.575 0-1.026.18-1.354.543-.328.362-.508.774-.54 1.234zm6.098 3.054l.677-1.052c.25.26.59.482 1.015.666.427.185.847.277 1.262.277.433 0 .765-.082.998-.246.232-.165.348-.384.348-.657 0-.178-.075-.326-.225-.445-.15-.118-.345-.21-.585-.276-.24-.066-.504-.13-.796-.188-.292-.06-.583-.136-.875-.23-.293-.093-.558-.208-.798-.345-.24-.137-.434-.333-.584-.59-.15-.254-.226-.557-.226-.908 0-.578.237-1.064.71-1.456.475-.392 1.125-.588 1.95-.588 1.04 0 1.91.313 2.618.937l-.615 1.04c-.215-.238-.5-.433-.855-.586-.355-.153-.738-.23-1.148-.23-.38 0-.68.08-.906.236-.226.158-.34.36-.34.605 0 .143.06.263.176.364.116.1.27.176.46.23.193.05.41.107.657.166.246.06.496.116.75.17.257.056.507.137.753.244.246.107.465.232.657.376.19.143.345.338.46.584.117.246.175.53.175.848 0 .62-.248 1.128-.745 1.524-.497.397-1.187.595-2.07.595-.58 0-1.12-.09-1.62-.276-.502-.185-.93-.448-1.28-.79zm6.604 0l.677-1.052c.25.26.59.482 1.016.666.426.185.846.277 1.26.277.434 0 .767-.082 1-.246.232-.165.348-.384.348-.657 0-.178-.075-.326-.226-.445-.15-.118-.345-.21-.584-.276-.24-.066-.505-.13-.797-.188-.29-.06-.583-.136-.875-.23-.29-.093-.557-.208-.796-.345-.24-.137-.434-.333-.584-.59-.15-.254-.226-.557-.226-.908 0-.578.237-1.064.71-1.456.475-.392 1.124-.588 1.95-.588 1.038 0 1.91.313 2.617.937l-.615 1.04c-.214-.238-.5-.433-.854-.586-.356-.153-.74-.23-1.15-.23-.377 0-.68.08-.905.236-.226.158-.34.36-.34.605 0 .143.06.263.175.364.117.1.27.176.462.23.19.05.41.107.656.166.246.06.497.116.752.17.255.056.506.137.752.244.246.107.465.232.656.376.192.143.345.338.462.584.116.246.174.53.174.848 0 .62-.25 1.128-.746 1.524-.497.397-1.187.595-2.072.595-.578 0-1.118-.09-1.62-.276-.5-.185-.927-.448-1.278-.79zm7.014-7.6c0-.252.087-.466.263-.644.176-.177.392-.266.647-.266s.47.09.646.266c.175.178.263.392.263.643 0 .25-.088.465-.263.643-.176.177-.39.266-.646.266-.255 0-.47-.09-.646-.266-.175-.178-.262-.392-.262-.643zm.164 8.496v-6.76h1.47V133h-1.47zm3.37 0v-9.338h1.47v3.514c.268-.36.592-.635.97-.824.38-.19.78-.284 1.203-.284.89 0 1.613.322 2.17.964.56.643.838 1.502.838 2.577 0 1.098-.28 1.966-.837 2.604-.558.638-1.282.957-2.17.957-.43 0-.832-.096-1.21-.29-.38-.193-.7-.46-.964-.803V133h-1.47zm1.47-2.03c.168.255.417.468.745.64.328.17.663.255 1.005.255.574 0 1.035-.21 1.384-.63.35-.418.523-.96.523-1.626 0-.657-.175-1.193-.524-1.61-.35-.417-.81-.626-1.384-.626-.342 0-.676.087-1.002.26-.326.173-.575.39-.748.65v2.686zm6.494-6.467c0-.25.087-.465.263-.643.174-.177.39-.266.645-.266s.47.09.646.266c.176.178.264.392.264.643 0 .25-.088.465-.263.643-.175.177-.39.266-.645.266s-.47-.09-.646-.266c-.177-.178-.264-.392-.264-.643zM311.8 133v-6.76h1.47V133h-1.47zm3.37 0v-9.338h1.47V133h-1.47zm3.206-8.497c0-.25.088-.465.263-.643.175-.177.39-.266.645-.266s.47.09.646.266c.177.178.264.392.264.643 0 .25-.087.465-.263.643-.174.177-.39.266-.645.266s-.47-.09-.646-.266c-.176-.178-.264-.392-.264-.643zm.164 8.497v-6.76h1.47V133h-1.47zm2.557-5.49v-1.27h1.12v-1.853h1.47v1.852h1.375v1.27h-1.375v3.542c0 .24.057.437.17.588.115.15.275.225.48.225.132 0 .257-.025.376-.075.118-.05.207-.11.266-.178l.348 1.12c-.323.293-.78.44-1.374.44-.57 0-1-.15-1.295-.45-.295-.297-.442-.73-.442-1.3v-3.91h-1.12zm4.3-1.27h1.58l1.974 5.065 1.977-5.066h1.565l-3.26 7.977c-.224.547-.525.935-.903 1.165-.38.23-.85.35-1.41.36-.318 0-.594-.033-.826-.096l.212-1.313c.168.073.355.11.56.11.25 0 .453-.044.605-.13.154-.087.278-.24.374-.46l.335-.77-2.784-6.844z" fill="#FFF"/><path fill="#FFFDE3" d="M253 152h69v41h-69z"/><path fill-opacity=".61" fill="#BFBFBF" d="M329 152h69v41h-69z"/><path d="M299 179.157V165.88c-.265 0-.525.003-.78.01v-.92h-.257c-.306 0-.603.007-.895.017v-.98h-.257c-5.776 0-8.77 2.328-8.8 2.352l-.01.006-.01-.007c-.03-.025-3.025-2.352-8.8-2.352h-.258v.98c-.292-.01-.59-.017-.895-.017h-.257v.92c-.256-.007-.515-.01-.78-.01v13.277c7.26 0 11 1.504 11 1.504s3.74-1.503 11-1.503zm-20.707-13.7c.217.002.43.007.64.015v11.847c-.002.033.004.063.014.08.044.096.07.095.083.11.04.028.035.02.04.025h.004l.37.177v-.148c2.688.033 4.727.58 6.103 1.127.256.102.487.203.697.3-1.574-.418-4.233-.927-7.95-.95v-12.583zm7.254.165c.71.28 1.243.562 1.596.77.177.106.31.192.396.252l.03.022v12.48c-.99-.615-3.727-2.015-8.125-2.068v-12.583c2.687.033 4.726.58 6.102 1.127zm11.008-1.127v12.583c-4.398.053-7.135 1.453-8.126 2.066v-12.477c.527-.37 3.27-2.112 8.125-2.172zm1.152 13.545c-3.72.023-6.38.532-7.952.952 1.365-.638 3.707-1.42 6.996-1.43l.318.15v-12.24c.21-.007.422-.013.64-.015v12.583z" fill="#ACA441" fill-rule="nonzero"/><path d="M362.252 162c-3.612 1.047-6.252 4.38-6.252 8.33 0 4.788 3.882 8.67 8.67 8.67 3.95 0 7.283-2.64 8.33-6.252-1.315 1.07-2.992 1.71-4.82 1.71-4.218 0-7.638-3.42-7.638-7.64 0-1.826.64-3.503 1.71-4.818z" opacity=".296" fill-rule="nonzero" fill="#000"/><path fill="#FFEEDE" d="M253 201h69v41h-69z"/><path fill="#F7F7F7" d="M329 201h69v41h-69zM253 249h69v41h-69zM329 249h69v41h-69z"/><g fill-rule="nonzero"><path d="M287 209c-.323 0-.585.262-.585.585v4.683c0 .324.262.586.585.586.323 0 .585-.262.585-.586v-4.683c0-.323-.262-.585-.585-.585zm-8.067 3.348c-.15 0-.307.05-.42.164-.23.23-.23.604 0 .833l3.31 3.31c.23.23.604.23.832 0 .23-.228.23-.603 0-.832l-3.31-3.31c-.115-.115-.262-.165-.412-.165zm16.134 0c-.15 0-.297.05-.412.164l-3.31 3.31c-.23.23-.23.605 0 .833.228.23.603.23.832 0l3.31-3.31c.23-.23.23-.604 0-.833-.113-.114-.27-.164-.42-.164zM287 216.61c-2.425 0-4.39 1.965-4.39 4.39s1.965 4.39 4.39 4.39 4.39-1.965 4.39-4.39-1.965-4.39-4.39-4.39zm-11.415 3.805c-.323 0-.585.262-.585.585 0 .323.262.585.585.585h4.683c.324 0 .586-.262.586-.585 0-.323-.262-.585-.586-.585h-4.683zm18.147 0c-.324 0-.586.262-.586.585 0 .323.262.585.586.585h4.683c.323 0 .585-.262.585-.585 0-.323-.262-.585-.585-.585h-4.683zm-11.488 4.756c-.15 0-.307.06-.42.174l-3.312 3.31c-.228.23-.228.605 0 .834.23.228.604.228.833 0l3.31-3.31c.23-.23.23-.605 0-.834-.114-.114-.26-.173-.41-.173zm9.512 0c-.15 0-.297.06-.41.174-.23.23-.23.604 0 .833l3.31 3.31c.228.23.603.23.832 0 .228-.228.228-.603 0-.832l-3.31-3.31c-.115-.115-.272-.174-.422-.174zM287 227.147c-.323 0-.585.262-.585.586v4.683c0 .323.262.585.585.585.323 0 .585-.262.585-.585v-4.683c0-.324-.262-.586-.585-.586z" fill="#8B572A" opacity=".533"/><path d="M287 260c-4.96 0-9 4.04-9 9s4.04 9 9 9 9-4.04 9-9-4.04-9-9-9zm-.602 1.297v2.303h-2.126c.042-.092.085-.177.127-.262.573-1.106 1.275-1.793 1.998-2.04zm1.204 0c.723.248 1.425.935 2 2.04.04.086.084.17.126.263h-2.126v-2.303zm-3.685.53c-.212.3-.404.618-.58.95-.135.263-.256.54-.376.823h-1.594c.723-.75 1.588-1.354 2.55-1.772zm6.166 0c.963.42 1.828 1.022 2.55 1.773h-1.594c-.12-.283-.242-.56-.376-.822-.177-.333-.37-.652-.58-.95zm-9.66 2.97h2.127c-.178.63-.312 1.305-.404 2.006h-2.637c.212-.716.524-1.39.914-2.005zm3.38 0h2.595v2.006h-3.04c.1-.716.255-1.39.446-2.005zm3.8 0h2.593c.19.617.347 1.29.447 2.006h-3.04v-2.005zm3.847 0h2.126c.39.617.702 1.29.915 2.006h-2.636c-.092-.7-.226-1.375-.404-2.005zm-12.19 3.204h2.772c-.02.327-.035.66-.035 1 0 .34.014.673.035 1h-2.77c-.043-.327-.064-.66-.064-1 0-.34.02-.673.063-1zm3.97 0h3.168v2h-3.168c-.02-.327-.028-.66-.028-1 0-.34.007-.673.028-1zm4.372 0h3.168c.02.327.028.66.028 1 0 .34-.007.673-.028 1h-3.168v-2zm4.366 0h2.77c.043.327.064.66.064 1 0 .34-.02.673-.063 1h-2.772c.02-.327.035-.66.035-1 0-.34-.014-.673-.035-1zm-12.46 3.197h2.638c.092.71.234 1.375.41 2.005h-2.132c-.39-.616-.702-1.29-.915-2.005zm3.85 0h3.04v2.005h-2.594c-.19-.616-.347-1.29-.447-2.005zm4.244 0h3.04c-.1.716-.255 1.39-.446 2.005h-2.594v-2.005zm4.252 0h2.637c-.212.716-.524 1.39-.914 2.005h-2.133c.177-.63.32-1.296.41-2.005zm-10.488 3.203h1.602c.113.283.234.553.368.815.177.34.376.666.588.957-.97-.41-1.835-1.02-2.558-1.772zm2.906 0h2.126v2.303c-.723-.248-1.425-.935-2-2.04-.04-.086-.084-.17-.126-.263zm3.33 0h2.126c-.042.092-.085.177-.127.262-.573 1.106-1.275 1.793-1.998 2.04V274.4zm3.43 0h1.602c-.723.75-1.588 1.36-2.558 1.772.212-.29.41-.617.588-.957.134-.262.255-.532.368-.815z" opacity=".265" fill="#000"/><path d="M354.676 217.235v8.238h5.747l5.204 4.055V213.18l-5.204 4.055h-5.747zm15.858 4.12c0-2.03-1.233-3.776-2.99-4.53v9.06c1.757-.755 2.99-2.502 2.99-4.53zm-2.99-8.5v1.78c2.916.845 5.054 3.536 5.054 6.72 0 3.183-2.138 5.874-5.053 6.718v1.78c3.877-.884 6.78-4.357 6.78-8.498 0-4.14-2.903-7.616-6.78-8.5z" fill="#000" opacity=".239"/><path d="M370.454 271.458c-.208-.074-.436-.064-.636.03s-.353.263-.428.47c-.844 2.33-3.024 3.907-5.5 3.982-2.477.075-4.748-1.37-5.732-3.642-.984-2.274-.48-4.918 1.27-6.672 2.212-2.208 5.742-2.368 8.146-.37h-2.4c-.46 0-.83.373-.83.832 0 .46.37.83.83.83l4.246-.01c.457 0 .828-.372.83-.83l.01-4.245c0-.22-.087-.432-.242-.588-.155-.157-.367-.245-.587-.245-.457 0-.83.37-.83.83v2.098c-3.213-2.64-7.94-2.255-10.684.87-2.744 3.125-2.514 7.863.52 10.708 3.033 2.844 7.776 2.77 10.718-.17.805-.8 1.42-1.768 1.804-2.837.14-.427-.082-.888-.504-1.042z" fill="#000" opacity=".245"/></g></g></svg>