<!DOCTYPE svg PUBLIC "-//W3C//DTD SVG 20010904//EN" "http://www.w3.org/TR/2001/REC-SVG-20010904/DTD/svg10.dtd">
<svg version="1.0" xmlns="http://www.w3.org/2000/svg" width="1600px" height="297px" viewBox="0 0 16000 2970" preserveAspectRatio="xMidYMid meet">
<g id="layer1" fill="#bd1622" stroke="none">
 <path d="M1515 2680 c-359 -30 -435 -40 -600 -81 -150 -37 -181 -48 -285 -98 -188 -90 -276 -228 -220 -348 22 -47 115 -153 134 -153 5 0 17 -6 25 -14 33 -28 205 -94 326 -124 251 -63 492 -87 865 -87 368 0 661 29 862 86 36 11 73 19 81 19 21 0 111 36 206 83 100 50 185 128 200 184 12 44 14 105 4 154 -14 74 -164 187 -323 244 -146 53 -422 107 -640 125 -181 15 -512 20 -635 10z m600 -230 c323 -25 668 -113 763 -194 32 -28 28 -42 -21 -70 -139 -82 -410 -149 -712 -178 -180 -17 -590 -17 -770 0 -324 31 -665 122 -736 198 l-21 22 21 21 c34 34 158 89 251 111 19 5 60 16 90 24 102 27 284 54 445 66 88 6 176 12 195 14 54 6 339 -2 495 -14z"/>
 <path d="M451 1882 c-25 -25 -29 -37 -35 -117 -19 -243 -65 -425 -147 -581 -51 -98 -56 -104 -83 -104 -50 0 -116 -32 -151 -73 -34 -39 -35 -43 -35 -124 0 -55 5 -94 15 -113 27 -52 107 -100 168 -100 45 0 128 44 161 86 25 31 29 47 32 110 3 65 7 79 39 122 19 27 35 54 35 61 0 16 1 16 124 -44 62 -30 119 -55 127 -55 8 0 19 -4 25 -9 15 -16 312 -107 419 -130 145 -30 292 -51 406 -58 l99 -6 0 -194 0 -194 -42 -50 c-38 -45 -43 -56 -46 -114 -4 -56 -1 -70 22 -109 40 -68 77 -86 177 -86 73 0 89 3 120 24 44 30 79 100 79 158 0 51 -28 114 -64 147 l-26 24 0 197 0 197 58 7 c401 44 723 133 1037 287 45 21 84 39 87 39 4 0 24 -28 45 -62 34 -56 38 -70 38 -129 0 -91 37 -152 114 -191 65 -33 110 -35 166 -8 132 64 166 216 71 319 -35 38 -98 70 -137 71 -16 0 -33 10 -45 28 -26 35 -114 218 -114 236 0 8 -9 38 -19 68 -27 74 -51 218 -58 343 -6 101 -7 107 -35 130 -22 19 -41 25 -75 25 -40 0 -50 -5 -81 -37 l-35 -37 5 -106 c6 -119 30 -263 60 -364 23 -79 29 -70 -82 -122 -143 -68 -168 -78 -322 -134 -183 -65 -395 -111 -620 -136 l-58 -7 0 284 c0 314 -2 321 -62 353 -31 17 -41 18 -76 8 -28 -9 -47 -23 -61 -46 -20 -32 -21 -48 -21 -315 l0 -281 -67 0 c-118 0 -392 49 -568 102 -129 39 -276 95 -322 124 -12 8 -28 14 -35 14 -7 0 -24 9 -38 20 -14 11 -33 20 -42 20 -24 0 -29 13 -18 46 43 140 63 256 75 439 6 80 4 94 -14 123 -38 59 -123 71 -170 24z"/>
 </g>
<g id="layer2" fill="#1d1d1b" stroke="none">
 <path d="M6945 2951 c-68 -17 -153 -53 -205 -89 -14 -9 -42 -27 -63 -40 -58 -37 -57 -54 3 -147 11 -16 30 -47 42 -69 13 -21 28 -47 34 -57 6 -11 19 -28 28 -38 18 -20 19 -19 82 29 81 62 139 88 239 106 100 18 153 18 235 0 170 -36 248 -138 250 -325 l0 -74 -42 39 c-57 52 -101 78 -182 109 -57 22 -83 25 -186 25 -100 0 -132 -4 -196 -25 -264 -86 -416 -334 -417 -680 0 -81 5 -141 16 -183 9 -35 17 -72 17 -83 0 -10 19 -58 41 -106 55 -114 171 -235 269 -281 218 -100 473 -73 632 67 l47 42 3 -68 3 -68 184 -3 c127 -2 188 1 197 9 12 10 14 126 14 698 0 664 -1 690 -21 772 -11 46 -29 99 -40 117 -10 18 -19 38 -19 43 0 19 -77 114 -121 149 -155 125 -252 150 -563 149 -162 -1 -227 -5 -281 -18z m460 -898 c91 -35 128 -57 159 -94 l26 -31 0 -218 0 -218 -28 -29 c-16 -15 -58 -44 -93 -62 -61 -33 -69 -35 -169 -35 -93 0 -110 3 -150 24 -60 33 -119 98 -146 162 -33 77 -34 242 -1 325 32 82 106 153 183 175 105 31 143 31 219 1z"/>
 <path d="M4010 2461 c-117 -16 -268 -103 -344 -199 -59 -74 -113 -185 -139 -286 -29 -113 -30 -346 -3 -461 18 -75 42 -143 69 -190 6 -11 17 -32 24 -47 7 -14 43 -58 78 -96 140 -151 363 -215 566 -162 90 23 151 56 218 116 l50 45 3 -73 3 -73 186 -3 c149 -2 188 0 198 11 8 11 10 196 9 703 l-3 689 -195 0 -195 0 -3 -67 -3 -66 -70 52 c-102 77 -177 105 -297 110 -53 2 -122 1 -152 -3z m286 -351 c39 -9 98 -34 156 -66 15 -8 39 -30 53 -48 l25 -33 0 -230 0 -230 -33 -34 c-19 -19 -63 -50 -98 -69 -60 -32 -70 -34 -160 -35 -81 0 -102 4 -141 23 -67 35 -117 88 -152 162 -30 62 -31 70 -30 190 1 114 3 130 28 183 30 62 113 151 149 160 12 3 40 12 62 21 46 18 84 19 141 6z"/>
 <path d="M8720 2461 c-94 -11 -208 -53 -305 -114 -57 -35 -178 -162 -211 -222 -47 -85 -64 -132 -79 -219 -27 -151 -14 -341 29 -441 44 -102 69 -144 113 -200 255 -316 761 -355 1039 -80 102 101 144 170 191 318 21 67 25 100 26 220 l2 142 -504 3 c-474 2 -503 3 -496 20 4 9 13 32 20 50 6 18 28 53 48 76 81 97 225 141 379 116 86 -13 190 -54 245 -96 17 -13 36 -24 41 -24 9 0 42 44 102 135 8 13 30 45 49 71 l33 49 -40 35 c-39 35 -196 120 -221 120 -6 0 -37 9 -69 19 -65 22 -284 34 -392 22z m420 -910 c-24 -130 -167 -228 -322 -219 -153 9 -259 93 -294 234 l-6 24 315 0 314 0 -7 -39z"/>
 <path d="M12225 2460 c-69 -9 -147 -38 -208 -77 -50 -31 -159 -139 -180 -180 -89 -162 -117 -277 -117 -473 0 -172 23 -276 89 -405 52 -104 168 -219 262 -263 78 -36 188 -62 265 -62 121 0 275 57 358 133 l41 37 5 -67 5 -68 195 0 195 0 0 700 0 700 -195 0 -195 0 -5 -69 c-5 -63 -6 -68 -20 -51 -29 36 -117 93 -181 119 -73 29 -211 41 -314 26z m334 -366 c44 -14 85 -32 92 -40 6 -8 15 -14 20 -14 5 0 22 -14 39 -31 l30 -32 0 -240 0 -240 -39 -37 c-22 -21 -66 -51 -98 -66 -52 -26 -68 -29 -159 -29 -87 1 -104 4 -131 23 -17 12 -34 22 -38 22 -14 0 -88 87 -109 130 -13 25 -28 79 -34 121 -30 205 59 383 220 437 82 28 111 27 207 -4z"/>
 <path d="M13885 2463 c-112 -9 -256 -69 -356 -149 -91 -72 -149 -144 -194 -239 -56 -119 -78 -233 -71 -375 12 -269 125 -466 341 -597 21 -13 27 -16 93 -45 64 -28 218 -58 303 -58 83 0 240 29 290 54 18 9 36 16 41 16 29 0 228 168 228 193 0 14 -235 237 -250 237 -6 0 -30 -19 -53 -42 -76 -77 -116 -92 -237 -92 -97 -1 -109 1 -164 29 -56 29 -146 116 -146 141 0 7 -9 31 -20 55 -15 34 -20 66 -20 141 0 84 4 107 28 165 37 91 106 161 193 194 135 51 270 21 370 -84 l47 -48 126 117 c69 65 126 122 126 127 0 22 -87 110 -153 154 -107 71 -205 101 -352 106 -66 3 -142 3 -170 0z"/>
 <path d="M5135 2428 c-3 -7 -4 -323 -3 -703 l3 -690 195 0 195 0 5 68 5 68 60 -44 c150 -110 349 -151 528 -111 96 22 155 54 215 118 60 64 75 91 96 181 15 61 16 134 14 595 l-3 525 -195 0 -195 0 -5 -476 -5 -475 -24 -36 c-13 -19 -40 -46 -59 -59 -32 -22 -45 -24 -141 -23 -96 0 -111 3 -156 28 -27 15 -69 45 -92 66 l-43 39 -2 468 -3 468 -193 3 c-148 2 -194 0 -197 -10z"/>
 <path d="M9645 2428 c-3 -7 -4 -440 -3 -963 l3 -950 195 0 195 0 0 960 0 960 -193 3 c-148 2 -194 0 -197 -10z"/>
 <path d="M10285 2428 c-3 -7 -4 -440 -3 -963 l3 -950 195 0 195 0 5 329 5 329 30 -24 c133 -106 292 -157 459 -146 190 13 318 87 379 220 44 96 49 173 45 712 l-3 500 -195 0 -195 0 -5 -476 -5 -475 -24 -36 c-13 -19 -40 -46 -59 -59 -32 -21 -46 -24 -136 -24 -90 0 -107 3 -156 27 -30 15 -73 43 -95 62 l-40 34 -5 473 -5 474 -193 3 c-148 2 -194 0 -197 -10z"/>
 <path d="M14655 2428 c-3 -7 -4 -440 -3 -963 l3 -950 190 0 190 0 3 543 c1 298 5 542 8 542 3 0 15 -11 26 -25 11 -14 75 -89 142 -167 66 -78 144 -169 171 -203 28 -33 73 -87 100 -118 l50 -57 228 0 227 0 0 23 c0 13 -23 46 -53 79 -29 31 -97 110 -152 174 -55 65 -109 128 -120 140 -41 46 -143 160 -172 193 l-30 34 109 146 c60 80 131 175 158 211 27 36 66 88 86 115 21 28 49 66 64 85 88 115 120 165 120 186 l0 24 -229 0 -229 0 -29 -37 c-24 -32 -77 -108 -118 -171 -57 -88 -208 -302 -212 -302 -2 0 -34 32 -71 70 l-67 71 -5 182 -5 182 -188 3 c-144 2 -189 0 -192 -10z"/>
 <path d="M436 2361 c-4 -5 -2 -12 3 -15 5 -4 12 -2 15 3 4 5 2 12 -3 15 -5 4 -12 2 -15 -3z"/>
 <path d="M476 2061 c-4 -5 -2 -12 3 -15 5 -4 12 -2 15 3 4 5 2 12 -3 15 -5 4 -12 2 -15 -3z"/>
 <path d="M1326 2011 c-4 -5 -2 -12 3 -15 5 -4 12 -2 15 3 4 5 2 12 -3 15 -5 4 -12 2 -15 -3z"/>
 <path d="M1726 1611 c-4 -5 -2 -12 3 -15 5 -4 12 -2 15 3 4 5 2 12 -3 15 -5 4 -12 2 -15 -3z"/>
 <path d="M876 1111 c-4 -5 -2 -12 3 -15 5 -4 12 -2 15 3 4 5 2 12 -3 15 -5 4 -12 2 -15 -3z"/>
 <path d="M1496 771 c-4 -5 -2 -12 3 -15 5 -4 12 -2 15 3 4 5 2 12 -3 15 -5 4 -12 2 -15 -3z"/>
 </g>

</svg>