<svg width="574px" height="120px" viewBox="0 0 574 120" version="1.1" xmlns="http://www.w3.org/2000/svg" xmlns:xlink="http://www.w3.org/1999/xlink">
	<g id="Page-1" stroke="none" stroke-width="1" fill="none" fill-rule="evenodd">
		<g id="Group-2" transform="translate(0.000000, 2.000000)">
			<path d="M0.570707865,5.472 L22.4452472,5.472 C27.2410315,5.472 31.3271741,6.2060376 34.7037978,7.67413483 C38.0804214,9.14223206 40.8452964,11.0996657 42.9985056,13.5464944 C45.1517149,15.9933231 46.6931939,18.8071339 47.6229888,21.9880112 C48.5527837,25.1688886 49.0176742,28.4720578 49.0176742,31.897618 L49.0176742,35.7146517 C49.0176742,38.552973 48.7974629,40.9508292 48.3570337,42.9082921 C47.9166045,44.8657551 47.2559707,46.5785095 46.3751124,48.0466067 C45.494254,49.514704 44.4176655,50.8115037 43.1453146,51.9370449 C41.8729637,53.0625862 40.4048885,54.1147067 38.7410449,55.0934382 C42.2644783,56.7572817 44.8580778,59.2285417 46.5219213,62.5072921 C48.1857649,65.7860426 49.0176742,70.1658003 49.0176742,75.6466966 L49.0176742,81.5190562 C49.0176742,90.7191321 46.7910934,97.7658931 42.3378652,102.659551 C37.8846369,107.553208 30.7644722,110 20.9771573,110 L0.570707865,110 L0.570707865,5.472 Z M15.5452247,95.0254831 L22.0048202,95.0254831 C25.0388878,95.0254831 27.4122761,94.5850606 29.1250562,93.7042022 C30.8378363,92.8233439 32.134636,91.5999479 33.0154944,90.0339775 C33.8963527,88.4680072 34.434647,86.6084452 34.6303933,84.455236 C34.8261396,82.3020267 34.9240112,79.9531064 34.9240112,77.4084045 C34.9240112,74.7658295 34.7772037,72.465845 34.4835843,70.508382 C34.1899648,68.5509191 33.5782668,66.9115684 32.6484719,65.5902809 C31.718677,64.2689934 30.4218772,63.2658087 28.7580337,62.5806966 C27.0941902,61.8955846 24.8920774,61.5530337 22.1516292,61.5530337 L15.5452247,61.5530337 L15.5452247,95.0254831 Z M15.5452247,48.3402247 L22.2984382,48.3402247 C27.2899688,48.3402247 30.6420738,47.0923608 32.3548539,44.5965955 C34.067634,42.1008302 34.9240112,38.4551101 34.9240112,33.6593258 C34.9240112,28.9614147 33.9697624,25.4380342 32.061236,23.0890787 C30.1527096,20.7401231 26.7027328,19.5656629 21.7112022,19.5656629 L15.5452247,19.5656629 L15.5452247,48.3402247 Z M125.211539,110 L111.117876,110 L99.6667753,42.1742472 L99.3731573,42.1742472 L88.0688652,110 L73.9752022,110 L58.4134494,5.472 L74.2688202,5.472 L81.7560787,71.8296629 L82.0496966,71.8296629 L93.7944157,5.472 L105.245517,5.472 L117.430663,73.4445618 L117.724281,73.4445618 L124.917921,5.472 L140.773292,5.472 L125.211539,110 Z" id="BW" fill="#D0021B"></path>
			<path d="M174.912,6.472 L196.656,6.472 C205.008042,6.472 211.391978,8.79997672 215.808,13.456 C220.224022,18.1120233 222.432,24.6159582 222.432,32.968 L222.432,80.92 C222.432,90.520048 220.104023,97.5999772 215.448,102.16 C210.791977,106.720023 204.096044,109 195.36,109 L174.912,109 L174.912,6.472 Z M189.6,95.176 L196.368,95.176 C200.496021,95.176 203.423991,94.1440103 205.152,92.08 C206.880009,90.0159897 207.744,86.7760221 207.744,82.36 L207.744,32.968 C207.744,28.9359798 206.928008,25.816011 205.296,23.608 C203.663992,21.399989 200.688022,20.296 196.368,20.296 L189.6,20.296 L189.6,95.176 Z M236.688,46.608 L251.376,46.608 L251.376,109 L236.688,109 L236.688,46.608 Z M313.152,35.992 L298.464,35.992 L298.464,32.68 C298.464,29.3199832 297.672008,26.4160122 296.088,23.968 C294.503992,21.5199878 291.840019,20.296 288.096,20.296 C286.07999,20.296 284.424006,20.6799962 283.128,21.448 C281.831994,22.2160038 280.824004,23.199994 280.104,24.4 C279.383996,25.600006 278.880001,26.9919921 278.592,28.576 C278.303999,30.1600079 278.16,31.8159914 278.16,33.544 C278.16,35.5600101 278.231999,37.263993 278.376,38.656 C278.520001,40.048007 278.879997,41.247995 279.456,42.256 C280.032003,43.264005 280.871994,44.1519962 281.976,44.92 C283.080006,45.6880038 284.59199,46.4559962 286.512,47.224 L297.744,51.688 C301.008016,52.9360062 303.64799,54.3999916 305.664,56.08 C307.68001,57.7600084 309.239994,59.7279887 310.344,61.984 C311.448006,64.2400113 312.191998,66.8319854 312.576,69.76 C312.960002,72.6880146 313.152,76.0239813 313.152,79.768 C313.152,84.0880216 312.720004,88.0959815 311.856,91.792 C310.991996,95.4880185 309.57601,98.6559868 307.608,101.296 C305.63999,103.936013 303.024016,106.023992 299.76,107.56 C296.495984,109.096008 292.512024,109.864 287.808,109.864 C284.255982,109.864 280.944015,109.240006 277.872,107.992 C274.799985,106.743994 272.160011,105.040011 269.952,102.88 C267.743989,100.719989 265.992006,98.1520149 264.696,95.176 C263.399994,92.1999851 262.752,88.9840173 262.752,85.528 L262.752,80.056 L277.44,80.056 L277.44,84.664 C277.44,87.3520134 278.231992,89.7759892 279.816,91.936 C281.400008,94.0960108 284.063981,95.176 287.808,95.176 C290.304012,95.176 292.247993,94.8160036 293.64,94.096 C295.032007,93.3759964 296.087996,92.3680065 296.808,91.072 C297.528004,89.7759935 297.983999,88.1680096 298.176,86.248 C298.368001,84.3279904 298.464,82.2160115 298.464,79.912 C298.464,77.2239866 298.368001,75.0160086 298.176,73.288 C297.983999,71.5599914 297.576003,70.1680053 296.952,69.112 C296.327997,68.0559947 295.464006,67.1920034 294.36,66.52 C293.255994,65.8479966 291.792009,65.1280038 289.968,64.36 L279.456,60.04 C273.119968,57.447987 268.872011,54.0160214 266.712,49.744 C264.551989,45.4719786 263.472,40.1200322 263.472,33.688 C263.472,29.8479808 263.999995,26.2000173 265.056,22.744 C266.112005,19.2879827 267.67199,16.3120125 269.736,13.816 C271.80001,11.3199875 274.415984,9.32800744 277.584,7.84 C280.752016,6.35199256 284.447979,5.608 288.672,5.608 C292.320018,5.608 295.655985,6.27999328 298.68,7.624 C301.704015,8.96800672 304.295989,10.743989 306.456,12.952 C308.616011,15.160011 310.271994,17.6319863 311.424,20.368 C312.576006,23.1040137 313.152,25.9119856 313.152,28.792 L313.152,35.992 Z M457.968,85.96 C457.968,89.3200168 457.344006,92.4399856 456.096,95.32 C454.847994,98.2000144 453.144011,100.719989 450.984,102.88 C448.823989,105.040011 446.304014,106.743994 443.424,107.992 C440.543986,109.240006 437.472016,109.864 434.208,109.864 C430.943984,109.864 427.872014,109.240006 424.992,107.992 C422.111986,106.743994 419.592011,105.040011 417.432,102.88 C415.271989,100.719989 413.568006,98.2000144 412.32,95.32 C411.071994,92.4399856 410.448,89.3200168 410.448,85.96 L410.448,6.472 L425.136,6.472 L425.136,84.52 C425.136,88.1680182 425.999991,90.8559914 427.728,92.584 C429.456009,94.3120086 431.615987,95.176 434.208,95.176 C436.800013,95.176 438.959991,94.3120086 440.688,92.584 C442.416009,90.8559914 443.28,88.1680182 443.28,84.52 L443.28,6.472 L457.968,6.472 L457.968,85.96 Z M471.792,6.472 L493.824,6.472 C497.85602,6.472 501.407985,6.99999472 504.48,8.056 C507.552015,9.11200528 510.335988,10.9839866 512.832,13.672 C515.328012,16.3600134 517.055995,19.503982 518.016,23.104 C518.976005,26.704018 519.456,31.5759693 519.456,37.72 C519.456,42.2320226 519.192003,46.0959839 518.664,49.312 C518.135997,52.5280161 517.008009,55.5279861 515.28,58.312 C513.26399,61.6720168 510.576017,64.2879906 507.216,66.16 C503.855983,68.0320094 499.440027,68.968 493.968,68.968 L486.48,68.968 L486.48,109 L471.792,109 L471.792,6.472 Z M487.48,55.144 L494.536,55.144 C497.512015,55.144 499.815992,54.7120043 501.448,53.848 C503.080008,52.9839957 504.279996,51.8080074 505.048,50.32 C505.816004,48.8319926 506.271999,47.0320106 506.416,44.92 C506.560001,42.8079894 506.632,40.456013 506.632,37.864 C506.632,35.463988 506.560001,33.1840108 506.416,31.024 C506.271999,28.8639892 505.840004,26.9920079 505.12,25.408 C504.399996,23.8239921 503.272008,22.5760046 501.736,21.664 C500.199992,20.7519954 497.992014,20.296 495.112,20.296 L487.48,20.296 L487.48,55.144 Z M540.048,20.296 L523.056,20.296 L523.056,6.472 L571.728,6.472 L571.728,20.296 L554.736,20.296 L554.736,109 L540.048,109 L540.048,20.296 Z" id="DIS-UPT" stroke="#000000" stroke-width="3" fill="#000000"></path>
			<path d="M355.6,52.264 L363.952,52.264 C366.544013,52.264 368.607992,51.9040036 370.144,51.184 C371.680008,50.4639964 372.855996,49.4320067 373.672,48.088 C374.488004,46.7439933 375.039999,45.0880098 375.328,43.12 C375.616001,41.1519902 375.76,38.872013 375.76,36.28 C375.76,33.687987 375.616001,31.4080098 375.328,29.44 C375.039999,27.4719902 374.440005,25.792007 373.528,24.4 C372.615995,23.007993 371.344008,21.9760034 369.712,21.304 C368.079992,20.6319966 365.920013,20.296 363.232,20.296 L355.6,20.296 L355.6,52.264 Z M340.912,6.472 L364.528,6.472 C381.808086,6.472 390.448,16.5038997 390.448,36.568 C390.448,42.5200298 389.512009,47.6319786 387.64,51.904 C385.767991,56.1760214 382.480024,59.607987 377.776,62.2 L393.616,109 L378.064,109 L364.384,65.224 L355.6,65.224 L355.6,109 L340.912,109 L340.912,6.472 Z" id="R" stroke="#000000" stroke-width="3" fill="#000000" transform="translate(367.264000, 57.736000) rotate(-330.000000) translate(-367.264000, -57.736000) "></path>
			<g id="Group" transform="translate(228.000000, 5.000000)" fill-rule="nonzero" fill="#000000">
				<g id="Shape">
					<path d="M26.35,18.2592593 C26.35,24.344619 21.4922895,29.2777778 15.5,29.2777778 C9.50771048,29.2777778 4.65,24.344619 4.65,18.2592593 C4.65,14.171631 6.85924662,10.4814387 10.3348224,8.56651187 C11.3882312,7.98611865 11.778882,6.64839702 11.2073653,5.57862707 C10.6358487,4.50885705 9.31858636,4.11213888 8.26517759,4.6925321 C3.40410758,7.37082021 0.31,12.5390309 0.31,18.2592593 C0.31,26.7787629 7.11079463,33.6851852 15.5,33.6851852 C23.8892054,33.6851852 30.69,26.7787629 30.69,18.2592593 C30.69,12.5390309 27.5958924,7.37082021 22.7348224,4.6925321 C21.6814136,4.11213888 20.3641513,4.50885705 19.7926347,5.57862707 C19.221118,6.64839702 19.6117688,7.98611865 20.6651776,8.56651187 C24.1407534,10.4814387 26.35,14.171631 26.35,18.2592593 Z M13.33,16.6886827 C13.33,17.9057546 14.3015421,18.8923864 15.5,18.8923864 C16.6984579,18.8923864 17.67,17.9057546 17.67,16.6886827 L17.67,2.51851852 C17.67,1.30144659 16.6984579,0.314814815 15.5,0.314814815 C14.3015421,0.314814815 13.33,1.30144659 13.33,2.51851852 L13.33,16.6886827 Z"></path>
				</g>
			</g>
		</g>
	</g>
</svg>