<!DOCTYPE svg PUBLIC "-//W3C//DTD SVG 20010904//EN" "http://www.w3.org/TR/2001/REC-SVG-20010904/DTD/svg10.dtd">
<svg version="1.0" xmlns="http://www.w3.org/2000/svg" width="1135px" height="821px" viewBox="0 0 11350 8210" preserveAspectRatio="xMidYMid meet">
<g id="layer1" fill="#1d1d1b" stroke="none">
 <path d="M3184 8011 c-42 -25 -72 -66 -80 -106 -19 -103 56 -172 234 -214 l77 -18 3 -43 c5 -67 -4 -87 -42 -100 -47 -15 -102 -1 -98 26 15 83 14 93 -12 118 -56 57 -151 17 -151 -63 0 -46 24 -84 75 -119 49 -33 106 -45 191 -40 87 5 132 26 166 78 22 31 23 43 23 206 0 95 4 175 9 178 16 10 30 -19 33 -69 l3 -50 40 0 40 0 3 50 c5 69 -12 118 -53 154 -29 25 -44 31 -83 31 -53 0 -107 -27 -117 -60 -6 -20 -7 -20 -38 6 -67 56 -163 71 -223 35z m187 -101 c28 -15 49 -63 49 -110 0 -41 0 -42 -31 -35 -46 10 -95 32 -113 50 -20 21 -21 69 0 89 18 18 66 21 95 6z"/>
 <path d="M4570 8021 c-126 -39 -198 -154 -188 -305 8 -112 59 -195 150 -240 143 -72 333 2 355 137 12 75 -30 137 -94 137 -73 0 -112 -93 -61 -147 29 -31 15 -44 -51 -51 -64 -6 -96 13 -123 74 -25 57 -26 154 -4 209 34 79 80 105 154 86 47 -13 58 -25 81 -88 17 -48 17 -48 61 -48 l45 0 -2 42 c-3 82 -73 171 -150 192 -43 12 -136 13 -173 2z"/>
 <path d="M5460 8021 c-71 -23 -132 -75 -166 -141 -26 -51 -31 -184 -10 -248 23 -68 83 -134 147 -162 43 -18 66 -21 130 -18 67 3 83 7 120 33 58 41 98 108 111 187 18 103 27 98 -186 98 l-185 0 6 33 c17 92 55 131 128 129 74 -1 106 -29 144 -124 9 -24 16 -28 51 -28 51 0 58 16 36 85 -17 56 -66 114 -119 142 -36 18 -167 27 -207 14z m175 -383 c-25 -127 -170 -123 -201 5 l-6 27 107 0 107 0 -7 -32z"/>
 <path d="M6030 8021 c-129 -42 -198 -154 -188 -305 11 -164 115 -266 273 -266 114 0 181 43 226 145 14 32 23 71 23 110 l1 60 -186 5 -186 5 12 47 c6 25 19 57 28 72 31 46 120 52 181 12 14 -8 33 -39 44 -68 20 -53 20 -53 63 -53 l44 0 -2 44 c-3 60 -46 128 -106 165 -40 25 -60 30 -125 32 -42 2 -88 0 -102 -5z m176 -383 c-25 -127 -171 -123 -202 5 l-6 27 107 0 108 0 -7 -32z"/>
 <path d="M6950 8015 c-175 -56 -238 -308 -117 -466 49 -65 122 -99 211 -99 87 0 137 21 188 78 43 47 71 129 66 194 l-3 43 -182 3 c-204 3 -194 -2 -172 76 6 21 22 49 35 61 70 65 197 18 221 -82 8 -37 10 -38 53 -38 52 0 59 13 40 80 -15 55 -61 110 -113 137 -54 27 -164 34 -227 13z m190 -366 c0 -53 -49 -109 -96 -109 -45 0 -89 43 -108 108 -7 22 -7 22 98 22 101 0 106 -1 106 -21z"/>
 <path d="M1732 7998 c-16 -16 -16 -63 1 -76 6 -6 28 -12 47 -14 l35 -3 3 -167 2 -168 -38 0 c-46 0 -62 -14 -62 -55 0 -41 16 -55 62 -55 35 0 38 -2 38 -27 0 -75 93 -181 183 -208 101 -30 190 -14 249 45 33 32 38 44 38 82 0 58 -33 92 -87 91 -63 -2 -88 -57 -58 -125 6 -16 1 -18 -39 -18 -83 0 -125 37 -141 123 l-7 37 168 2 169 3 5 220 5 220 45 5 45 5 0 45 0 45 -155 0 -155 0 0 -45 c0 -43 1 -45 33 -48 l32 -3 0 -170 0 -169 -95 0 -95 0 0 148 c0 180 2 190 44 194 30 3 31 5 31 48 l0 45 -145 3 c-105 2 -149 -1 -158 -10z"/>
 <path d="M2422 7998 c-16 -16 -16 -63 1 -76 6 -6 28 -12 47 -14 l35 -3 0 -165 0 -165 -35 -3 c-46 -5 -60 -18 -60 -57 0 -50 15 -56 131 -53 l104 3 3 27 3 27 45 -32 c37 -26 56 -32 112 -35 57 -3 72 0 101 20 67 45 75 72 79 265 l4 172 42 3 41 3 0 45 0 45 -160 0 -160 0 0 -45 0 -45 40 -5 40 -5 0 -163 c0 -150 -2 -165 -19 -178 -45 -32 -107 -9 -136 52 -23 47 -38 194 -26 257 6 33 10 36 44 39 37 3 37 3 37 48 l0 45 -150 3 c-109 2 -154 -1 -163 -10z"/>
 <path d="M3704 7996 c-3 -8 -4 -29 -2 -48 3 -31 5 -33 46 -36 l42 -3 0 -169 0 -169 -42 -3 -43 -3 0 -50 0 -50 104 -3 c108 -3 131 4 131 40 0 17 5 15 40 -14 34 -27 51 -33 104 -36 75 -5 125 14 159 62 20 29 22 45 27 211 l5 180 40 5 40 5 0 45 0 45 -155 0 -155 0 0 -45 c0 -45 0 -45 38 -48 l37 -3 0 -164 c0 -140 -2 -166 -17 -180 -21 -21 -85 -15 -114 11 -33 30 -50 111 -47 225 l3 104 35 5 c34 5 35 6 35 50 l0 45 -153 3 c-125 2 -153 0 -158 -12z"/>
 <path d="M4924 7996 c-3 -8 -4 -29 -2 -48 3 -30 6 -33 43 -38 l40 -5 3 -167 2 -167 -47 -3 -48 -3 -3 -41 c-4 -60 7 -65 134 -62 l109 3 5 220 5 220 40 5 40 5 0 45 0 45 -158 3 c-129 2 -158 0 -163 -12z"/>
 <path d="M6414 7996 c-3 -8 -4 -29 -2 -48 3 -31 5 -33 46 -36 l42 -3 0 -294 0 -294 -47 -3 -48 -3 -3 -41 c-4 -60 7 -65 134 -62 l109 3 5 345 5 345 40 5 40 5 0 45 0 45 -158 3 c-129 2 -158 0 -163 -12z"/>
 <path d="M5009 7381 c-21 -22 -29 -39 -29 -66 0 -51 44 -95 95 -95 27 0 44 8 66 29 21 22 29 39 29 66 0 51 -44 95 -95 95 -27 0 -44 -8 -66 -29z"/>
 <path d="M10450 7049 c-198 -51 -360 -180 -450 -359 -108 -215 -96 -519 28 -725 55 -91 164 -194 258 -243 123 -63 216 -85 359 -85 144 0 236 22 359 86 165 86 298 259 331 433 19 101 19 297 0 398 -45 233 -245 432 -499 496 -107 27 -281 27 -386 -1z"/>
 <path d="M45 6894 l-25 -27 0 -447 0 -447 26 -24 c25 -24 27 -24 307 -30 353 -8 396 -18 438 -101 49 -95 49 -105 49 -1429 l0 -1239 -384 0 -385 0 -28 -24 -28 -24 0 -396 0 -396 28 -27 27 -28 385 -3 385 -3 0 -172 c1 -322 26 -518 96 -727 87 -262 224 -486 424 -694 295 -308 688 -516 1137 -605 197 -39 504 -56 753 -41 241 14 267 17 416 55 319 82 552 207 765 412 270 261 403 563 386 876 -17 288 -107 503 -279 662 -78 72 -207 143 -313 171 -95 25 -285 30 -384 10 -286 -58 -494 -248 -561 -512 -25 -97 -27 -260 -4 -348 48 -187 193 -355 409 -472 l77 -42 -59 -36 c-104 -65 -238 -92 -423 -83 -486 24 -729 260 -790 767 -5 46 -10 241 -10 432 l0 348 450 0 c506 0 509 0 536 65 12 30 14 95 12 406 l-3 371 -33 29 -32 29 -465 0 -466 0 4 1268 c3 1188 4 1271 21 1327 25 82 45 114 86 135 59 29 85 32 408 39 l314 6 24 28 24 28 0 439 0 438 -26 31 -26 31 -1619 0 -1620 0 -24 -26z"/>
 </g>
<g id="layer2" fill="#68a0b1" stroke="none">
 <path d="M8710 8198 c-19 -5 -50 -24 -67 -41 -28 -26 -33 -38 -33 -75 0 -36 6 -50 33 -77 l32 -32 -27 -27 c-41 -40 -39 -94 6 -143 l34 -37 -20 -26 c-42 -58 -35 -159 15 -217 49 -56 103 -75 201 -72 l82 3 35 -39 c32 -34 41 -38 83 -38 78 0 125 67 92 131 -16 32 -34 42 -72 42 -22 0 -23 2 -13 21 6 13 10 50 7 89 -4 79 -33 126 -94 155 -50 23 -149 31 -214 15 -44 -10 -54 -10 -61 1 -5 9 -3 20 7 29 12 12 49 16 177 18 171 3 207 10 231 47 60 92 -2 236 -117 270 -58 17 -260 19 -317 3z m270 -74 c41 -17 55 -40 48 -85 -4 -31 -50 -42 -166 -37 -80 2 -96 6 -108 23 -25 35 -14 78 26 97 45 23 146 24 200 2z m-51 -393 c24 -24 36 -79 27 -125 -11 -59 -64 -85 -122 -61 -57 24 -70 130 -21 183 27 29 89 30 116 3z"/>
 <path d="M839 8014 c-58 -17 -124 -80 -152 -142 -15 -35 -21 -68 -21 -127 0 -101 26 -166 94 -229 57 -53 108 -70 201 -64 88 5 150 42 191 114 34 61 55 168 37 190 -9 11 -49 14 -191 14 l-180 0 7 38 c10 55 36 95 77 115 69 34 167 -14 184 -91 11 -52 12 -53 56 -50 39 3 43 6 46 32 9 77 -75 183 -163 205 -58 15 -129 13 -186 -5z m191 -371 c0 -42 -34 -90 -68 -98 -45 -9 -95 16 -115 58 -31 65 -29 67 83 67 l100 0 0 -27z"/>
 <path d="M1364 8016 c-17 -7 -40 -26 -52 -41 -21 -26 -22 -38 -22 -216 l0 -188 -52 -3 c-52 -3 -53 -4 -56 -35 -3 -28 1 -34 37 -52 49 -25 86 -72 117 -148 22 -56 24 -58 61 -58 l38 0 3 93 3 92 73 0 c85 0 99 10 94 67 l-3 38 -82 3 -83 3 0 164 c0 152 1 165 19 175 13 6 28 7 45 1 25 -10 32 -34 38 -136 3 -40 3 -40 43 -40 l40 0 3 80 c2 67 -1 87 -20 124 -34 65 -66 85 -146 88 -42 2 -79 -2 -98 -11z"/>
 <path d="M7509 8007 c-49 -26 -102 -95 -119 -155 -15 -54 -12 -181 5 -238 29 -98 111 -164 204 -164 61 0 97 13 134 48 l27 26 0 -102 0 -101 -47 -3 -48 -3 -3 -41 c-4 -60 7 -65 134 -62 l109 3 3 347 2 347 48 3 47 3 3 43 c3 38 0 43 -24 52 -15 6 -68 9 -118 8 -83 -3 -91 -5 -102 -26 -7 -15 -14 -20 -19 -13 -3 6 -24 20 -45 31 -55 28 -134 27 -191 -3z m175 -79 c84 -38 100 -285 24 -355 -53 -48 -124 -37 -154 25 -22 45 -25 207 -5 264 22 66 77 93 135 66z"/>
 <path d="M8105 8016 c-67 -30 -104 -106 -85 -176 18 -67 95 -118 228 -149 l77 -18 3 -43 c5 -67 -4 -87 -43 -100 -52 -17 -132 12 -95 35 6 3 10 25 10 49 0 55 -30 86 -84 86 -52 0 -86 -35 -86 -91 0 -87 84 -150 209 -157 95 -5 152 10 199 53 l37 33 5 185 c3 102 8 189 12 193 14 13 23 -7 28 -64 l5 -57 40 0 40 0 3 62 c5 111 -46 173 -144 173 -41 0 -51 -5 -85 -39 -38 -38 -39 -38 -56 -18 -45 50 -154 72 -218 43z m188 -116 c39 -31 64 -140 32 -140 -24 0 -124 40 -140 56 -19 20 -19 54 1 82 20 28 72 29 107 2z"/>
 <path d="M9415 8016 c-16 -7 -44 -25 -61 -39 l-31 -26 -17 35 c-14 31 -20 35 -49 32 l-32 -3 -5 -345 -5 -345 -45 -5 c-45 -5 -45 -5 -48 -47 -4 -57 13 -64 136 -61 l97 3 5 154 c5 139 6 152 20 136 38 -46 151 -69 217 -44 38 14 90 65 116 114 19 35 22 56 22 160 0 104 -3 125 -22 160 -26 49 -88 110 -126 124 -39 15 -136 13 -172 -3z m117 -90 c64 -48 76 -287 18 -358 -24 -30 -89 -31 -121 -3 -53 48 -75 171 -48 270 22 79 103 128 151 91z"/>
 <path d="M10210 8011 c-48 -26 -72 -62 -78 -119 -10 -108 54 -157 276 -212 41 -11 42 -12 42 -53 0 -84 -42 -118 -119 -97 l-40 11 16 33 c45 96 -64 171 -139 96 -27 -27 -30 -36 -25 -72 4 -29 16 -51 43 -79 51 -52 114 -72 212 -67 100 4 149 28 180 88 20 41 22 58 22 212 0 155 6 189 26 157 3 -6 9 -34 13 -63 l6 -51 41 0 42 0 5 -84 c10 -159 85 -251 211 -259 70 -5 111 10 153 56 l24 26 -3 -105 -3 -104 -45 -5 -45 -5 0 -50 0 -50 115 0 115 0 5 345 5 345 43 3 42 3 0 49 c0 60 -5 62 -135 58 l-90 -3 -5 -29 -5 -28 -20 22 c-45 51 -146 65 -221 31 -55 -25 -109 -90 -126 -154 l-15 -52 -6 63 c-7 68 -23 106 -57 137 -17 16 -36 20 -87 20 -61 0 -66 -2 -95 -33 -27 -31 -31 -33 -46 -18 -58 52 -170 70 -232 37z m829 -86 c48 -24 66 -76 66 -190 0 -116 -15 -156 -70 -182 -43 -21 -90 -9 -119 30 -16 22 -21 46 -24 125 -5 111 8 173 43 208 27 27 63 31 104 9z m-629 -25 c27 -27 40 -62 40 -106 0 -35 -1 -35 -32 -29 -18 4 -53 16 -78 28 -40 20 -45 26 -48 60 -2 21 2 45 9 53 18 22 85 18 109 -6z"/>
 <path d="M0 7960 l0 -50 39 0 c26 0 41 -5 45 -16 8 -20 8 -538 0 -558 -4 -11 -19 -16 -45 -16 l-39 0 0 -55 0 -56 113 3 112 3 5 154 c4 136 7 152 19 137 27 -32 88 -56 144 -56 62 0 108 25 144 79 22 32 23 44 23 195 0 89 4 166 8 173 4 6 25 13 47 15 l40 3 0 45 0 45 -160 0 -160 0 0 -45 c0 -44 1 -45 35 -48 19 -2 38 -9 42 -15 11 -18 10 -247 -2 -286 -12 -41 -24 -51 -68 -51 -43 0 -86 42 -102 98 -6 23 -9 88 -8 144 l3 103 40 5 40 5 0 45 0 45 -157 3 -158 3 0 -51z"/>
 <path d="M9764 7996 c-3 -8 -4 -29 -2 -48 3 -31 5 -33 46 -36 l42 -3 0 -294 0 -294 -47 -3 -48 -3 -3 -41 c-4 -60 7 -65 134 -62 l109 3 5 345 5 345 40 5 40 5 0 45 0 45 -158 3 c-129 2 -158 0 -163 -12z"/>
 <path d="M5330 7070 c-415 -57 -756 -231 -1042 -528 -339 -354 -540 -819 -625 -1447 -25 -189 -25 -786 0 -965 90 -633 310 -1113 679 -1480 403 -401 900 -576 1510 -531 285 21 481 67 663 156 246 119 416 296 545 566 l49 104 0 -815 c0 -448 -4 -858 -9 -910 -17 -175 -52 -245 -136 -270 -23 -7 -168 -15 -365 -20 -333 -8 -358 -12 -379 -50 -6 -12 -10 -158 -10 -395 0 -403 2 -419 51 -446 15 -7 364 -13 1187 -18 641 -4 1176 -6 1190 -3 13 3 32 19 43 36 18 30 19 98 19 2816 0 1867 4 2806 10 2850 15 93 46 151 94 174 42 21 142 29 533 44 194 7 203 8 227 31 l26 24 0 445 0 444 -28 28 -28 28 -355 6 c-1386 27 -1995 33 -2026 21 -67 -28 -68 -32 -71 -404 l-3 -334 -68 115 c-204 346 -431 540 -758 648 -194 63 -328 82 -613 86 -135 1 -274 -1 -310 -6z m1085 -884 c382 -102 580 -507 625 -1278 19 -342 6 -794 -30 -1050 -78 -533 -273 -777 -665 -829 -166 -22 -320 2 -460 70 -278 136 -443 481 -507 1056 -20 184 -17 770 5 955 56 458 164 743 350 916 99 94 211 149 349 174 74 13 261 5 333 -14z"/>
 </g>

</svg>