<svg class="svg_logo" id="Laag_1" data-name="Laag 1" xmlns="http://www.w3.org/2000/svg" xmlns:xlink="http://www.w3.org/1999/xlink" viewBox="0 0 663 126">
    <defs>
        <style>.cls-1{fill:#d81e06;}.cls-2{fill:url(#Naamloos_verloop_36);}.cls-3{fill:#fdeb19;}.cls-4{fill:url(#Naamloos_verloop_31);}.cls-5{fill:url(#Naamloos_verloop_38);}.cls-6{fill:url(#Naamloos_verloop_35);}.cls-7{fill:url(#Naamloos_verloop_32);}.cls-8{fill:url(#Naamloos_verloop_33);}.cls-9{fill:url(#Naamloos_verloop_39);}.cls-10{fill:url(#Naamloos_verloop_37);}.cls-11{fill:url(#Naamloos_verloop_34);}</style>
        <linearGradient id="Naamloos_verloop_36" x1="352.06" y1="58.68" x2="429.05" y2="58.68" gradientUnits="userSpaceOnUse">
            <stop offset="0" stop-color="#fdeb19" stop-opacity="0"></stop>
            <stop offset="0.1" stop-color="#fce518" stop-opacity="0.03"></stop>
            <stop offset="0.24" stop-color="#f9d417" stop-opacity="0.11"></stop>
            <stop offset="0.4" stop-color="#f4b914" stop-opacity="0.25"></stop>
            <stop offset="0.58" stop-color="#ed9211" stop-opacity="0.43"></stop>
            <stop offset="0.77" stop-color="#e4610c" stop-opacity="0.67"></stop>
            <stop offset="0.97" stop-color="#d92607" stop-opacity="0.96"></stop>
            <stop offset="1" stop-color="#d81e06"></stop>
        </linearGradient>
        <linearGradient id="Naamloos_verloop_31" x1="431.67" y1="36.34" x2="536.92" y2="36.34" xlink:href="#Naamloos_verloop_36"></linearGradient>
        <linearGradient id="Naamloos_verloop_38" x1="420.78" y1="58.68" x2="526.03" y2="58.68" xlink:href="#Naamloos_verloop_36"></linearGradient>
        <linearGradient id="Naamloos_verloop_35" x1="454.42" y1="47.51" x2="559.67" y2="47.51" xlink:href="#Naamloos_verloop_36"></linearGradient>
        <linearGradient id="Naamloos_verloop_32" x1="379.33" y1="32.61" x2="484.57" y2="32.61" xlink:href="#Naamloos_verloop_36"></linearGradient>
        <linearGradient id="Naamloos_verloop_33" x1="337.26" y1="40.13" x2="409.34" y2="40.13" xlink:href="#Naamloos_verloop_36"></linearGradient>
        <linearGradient id="Naamloos_verloop_39" x1="387.68" y1="62.4" x2="492.93" y2="62.4" xlink:href="#Naamloos_verloop_36"></linearGradient>
        <linearGradient id="Naamloos_verloop_37" x1="347.43" y1="51.23" x2="461.68" y2="51.23" xlink:href="#Naamloos_verloop_36"></linearGradient>
        <linearGradient id="Naamloos_verloop_34" x1="398.08" y1="43.78" x2="503.32" y2="43.78" xlink:href="#Naamloos_verloop_36"></linearGradient>
    </defs>
    <rect class="cls-2 tale tale_1 in" x="352.06" y="51.23" width="76.99" height="14.89" x_original="352.06" data-svg-origin="243.00999450683594 51.22999954223633" style="opacity: 1;"></rect>
    <circle class="cls-3 comet comet_1 in" cx="429.05" cy="58.68" r="7.45" x_original="429.05" data-svg-origin="312.54998779296875 51.22999954223633" style="opacity: 1;"></circle>
    <rect class="cls-4 tale tale_2 in" x="431.67" y="28.89" width="105.24" height="14.89" x_original="431.67"></rect>
    <circle class="cls-3 comet comet_2 in" cx="536.92" cy="36.34" r="7.45" x_original="536.92"></circle>
    <rect class="cls-5 tale tale_3 in" x="420.78" y="51.23" width="105.24" height="14.89" x_original="420.78" data-svg-origin="420.7799987792969 51.22999954223633" style="opacity: 1;"></rect>
    <circle class="cls-3 comet comet_3 in" cx="526.03" cy="58.68" r="7.45" x_original="526.03" data-svg-origin="518.5800170898438 51.22999954223633" style="opacity: 1;"></circle>
    <rect class="cls-6 tale tale_4 in" x="454.42" y="40.06" width="105.24" height="14.89" x_original="454.42"></rect>
    <circle class="cls-3 comet comet_4 in" cx="559.67" cy="47.51" r="7.45" x_original="559.67"></circle>
    <rect class="cls-7 tale tale_5 in" x="379.33" y="25.17" width="105.24" height="14.89" x_original="379.33"></rect>
    <circle class="cls-3 comet comet_5 in" cx="484.57" cy="32.61" r="7.45" x_original="484.57"></circle>
    <rect class="cls-8 tale tale_6 in" x="337.26" y="32.68" width="72.08" height="14.89" x_original="337.26"></rect>
    <circle class="cls-3 comet comet_6 in" cx="409.34" cy="40.13" r="7.45" x_original="409.34"></circle>
    <rect class="cls-9 tale tale_7 out" x="514.75" y="54.95" width="105.24" height="14.89" x_original="387.68" data-svg-origin="387.67999267578125 54.95000076293945" style="opacity: 0;"></rect>
    <circle class="cls-3 comet comet_7 out" cx="620" cy="62.4" r="7.45" x_original="492.93" data-svg-origin="485.47998046875 54.95000076293945" style="opacity: 0;"></circle>
    <rect class="cls-10 tale tale_8 in" x="347.43" y="43.78" width="114.25" height="14.89" x_original="347.43" data-svg-origin="347.42999267578125 43.779998779296875" style="opacity: 1;"></rect>
    <circle class="cls-3 comet comet_8 in" cx="461.68" cy="51.23" r="7.45" x_original="461.68" data-svg-origin="454.22998046875 43.779998779296875" style="opacity: 1;"></circle>
    <rect class="cls-11 tale tale_9 in" x="398.08" y="36.34" width="105.24" height="14.89" x_original="398.08"></rect>
    <circle class="cls-3 comet comet_9 in" cx="503.32" cy="43.78" r="7.45" x_original="503.32"></circle>
    <path class="cls-1" d="M84,8.35v65H64.08L26.37,34.45V73.38H4.53v-65h24L62,43.65V8.35Z"></path>
    <path class="cls-1" d="M93.45,47.46c0-17.37,13.47-28,34.56-28s34.56,10.59,34.56,28S149.1,75.52,128,75.52,93.45,64.93,93.45,47.46Zm48.4,0c0-7.62-5.76-11.71-13.84-11.71s-13.84,4.09-13.84,11.71S120,59.26,128,59.26,141.85,55.08,141.85,47.46Z"></path>
    <path class="cls-1" d="M209.31,73.38H187L162.2,21.63H185L198.34,53.5l13.38-31.87h22.39Z"></path>
    <path class="cls-1" d="M308.63,73.38V4.63h21.83V73.38Z"></path>
    <path class="cls-1" d="M267.75,19.4c-21,0-34,10.68-34,28.06,0,17.56,13.1,28.06,35.67,28.06,10.82,0,20-2.14,27.21-7.76L286.39,56.39c-4.44,3-8.7,4.45-15.76,4.45-9,0-14.49-2.41-16.17-8.82h45.15a17.54,17.54,0,0,0,.65-5.11C300.26,28.6,286.33,19.4,267.75,19.4ZM254.93,41.52c1.86-5.2,6.5-7.62,13-7.62,6.69,0,10.78,2.6,12.54,7.52Z"></path>
    <rect class="cls-1" x="582.35" y="8.35" width="74.04" height="17.17"></rect>
    <rect class="cls-1" x="608.04" y="31.24" width="22.67" height="42.14"></rect>
    <path class="cls-1" d="M197.68,94.74a2.05,2.05,0,0,1,4.08,0,2.05,2.05,0,0,1-4.08,0Zm3.49,24h-2.89V99.56h2.89Z"></path>
    <path class="cls-1" d="M208.24,118.76V99.56h2.89v4a10.37,10.37,0,0,1,9.16-4.68c6,0,8.8,3.8,8.8,9.05v10.85h-2.89V108.12c0-4.33-2.15-6.69-6.48-6.69a9.11,9.11,0,0,0-8.59,5.28v12Z"></path>
    <path class="cls-1" d="M236,118.76V99.56h2.89v4A10.37,10.37,0,0,1,248,98.86c6,0,8.8,3.8,8.8,9.05v10.85H254V108.12c0-4.33-2.15-6.69-6.48-6.69a9.11,9.11,0,0,0-8.59,5.28v12Z"></path>
    <path class="cls-1" d="M262.29,109.18c0-6.34,4.33-10.35,11.66-10.35s11.66,4,11.66,10.35S281.28,119.5,274,119.5,262.29,115.52,262.29,109.18Zm20.39,0c0-5.21-3.73-7.78-8.73-7.78s-8.73,2.57-8.73,7.78,3.73,7.75,8.73,7.75S282.69,114.36,282.69,109.18Z"></path>
    <path class="cls-1" d="M300.85,118.76h-3.17L287.61,99.56h3.27l8.42,16.31,8.42-16.31h3.2Z"></path>
    <path class="cls-1" d="M333.78,108.12V115a6.92,6.92,0,0,0,.92,3.73h-3.06a5.88,5.88,0,0,1-.81-3.06v-.07c-1.51,2.08-4.54,3.84-8.7,3.84s-9.79-1.69-9.79-6.8,5.6-6.8,9.79-6.8,7.18,1.73,8.7,3.84v-1.58c0-4.65-2.64-6.76-7.92-6.76a13.33,13.33,0,0,0-7.54,2.22L314,101.47a17.89,17.89,0,0,1,9.37-2.61C329.83,98.86,333.78,102,333.78,108.12Zm-2.89,4.19c-1.65-3-5.28-4.05-8.52-4.05-2.82,0-7.18.81-7.18,4.4s4.37,4.4,7.18,4.4c3.24,0,6.87-1.09,8.52-4Z"></path>
    <path class="cls-1" d="M353.11,117.67a9.71,9.71,0,0,1-5.56,1.8c-3.45,0-6.3-1.83-6.3-5.56V102.1h-3.87V99.56h3.87V95.09h2.89v4.47H353v2.54h-8.84v11.38c0,2.36,1.8,3.42,3.91,3.42a7.88,7.88,0,0,0,4-1.3Z"></path>
    <path class="cls-1" d="M367.33,117c3.8,0,6.09-1,8.31-3l1.9,2c-2.61,2.36-5.81,3.49-10.35,3.49-7.43,0-11.69-4-11.69-10.32S359.76,98.83,367,98.83c6.83,0,11.2,3.7,11.2,10.32a2.4,2.4,0,0,1-.07.63H358.42C358.7,114.64,362.23,117,367.33,117Zm-8.77-9.65h16.73c-.85-4.26-4.12-6.09-8.24-6.09C362.61,101.29,359.3,103.33,358.56,107.38Z"></path>
    <path class="cls-1" d="M418,118.76l-2.64-1.94c-2.25,1.69-5.39,2.64-9.44,2.64-7,0-12.33-3.56-12.33-8.21,0-2.85,2-5.49,5.11-6.8a5.76,5.76,0,0,1-2.11-4.4c0-4,3.73-6.66,9.05-6.66,5.85,0,9,3.13,10.42,6.52L413.42,101c-1.37-3.17-3.8-4.89-7.85-4.89-3.77,0-6,1.51-6,3.84s2.11,3.52,5.18,5.78L415,113.23a9.87,9.87,0,0,0,1.8-6h2.89a12.48,12.48,0,0,1-2.43,7.68l5.28,3.87Zm-5-3.63-11.23-8.28c-.39-.28-.74-.53-1.09-.81-2.85,1.13-4.05,3-4.05,5,0,3.94,4.51,5.71,9.47,5.71A13,13,0,0,0,413,115.13Z"></path>
    <path class="cls-1" d="M457.09,108.12V115a6.91,6.91,0,0,0,.92,3.73h-3.06a5.87,5.87,0,0,1-.81-3.06v-.07c-1.51,2.08-4.54,3.84-8.7,3.84s-9.79-1.69-9.79-6.8,5.6-6.8,9.79-6.8,7.18,1.73,8.7,3.84v-1.58c0-4.65-2.64-6.76-7.92-6.76a13.33,13.33,0,0,0-7.54,2.22l-1.34-2.11a17.89,17.89,0,0,1,9.37-2.61C453.14,98.86,457.09,102,457.09,108.12Zm-2.89,4.19c-1.66-3-5.28-4.05-8.52-4.05-2.82,0-7.18.81-7.18,4.4s4.37,4.4,7.18,4.4c3.24,0,6.87-1.09,8.52-4Z"></path>
    <path class="cls-1" d="M473.64,119.5c-7.29,0-11.62-4-11.62-10.32s4.33-10.35,11.62-10.35c5.25,0,8.21,2,10,4.61l-2.82,1.41c-1.41-2.5-4.4-3.45-7.15-3.45-5.07,0-8.73,2.57-8.73,7.78s3.66,7.75,8.73,7.75c2.78,0,5.85-1,7.22-3.56l2.85,1.27C482,117.46,479,119.5,473.64,119.5Z"></path>
    <path class="cls-1" d="M498.64,119.5c-7.29,0-11.62-4-11.62-10.32s4.33-10.35,11.62-10.35c5.25,0,8.21,2,10,4.61l-2.82,1.41c-1.41-2.5-4.4-3.45-7.15-3.45-5.07,0-8.73,2.57-8.73,7.78s3.66,7.75,8.73,7.75c2.78,0,5.85-1,7.22-3.56l2.85,1.27C507,117.46,504,119.5,498.64,119.5Z"></path>
    <path class="cls-1" d="M523.85,117c3.8,0,6.09-1,8.31-3l1.9,2c-2.61,2.36-5.81,3.49-10.35,3.49-7.43,0-11.69-4-11.69-10.32s4.26-10.35,11.52-10.35c6.83,0,11.2,3.7,11.2,10.32a2.4,2.4,0,0,1-.07.63H514.94C515.22,114.64,518.74,117,523.85,117Zm-8.77-9.65h16.73c-.85-4.26-4.12-6.09-8.24-6.09C519.13,101.29,515.82,103.33,515.08,107.38Z"></path>
    <path class="cls-1" d="M540.15,118.76V92.7H543v26.06Z"></path>
    <path class="cls-1" d="M560.5,117c3.8,0,6.09-1,8.31-3l1.9,2c-2.61,2.36-5.81,3.49-10.35,3.49-7.43,0-11.69-4-11.69-10.32s4.26-10.35,11.52-10.35c6.83,0,11.2,3.7,11.2,10.32a2.4,2.4,0,0,1-.07.63H551.59C551.87,114.64,555.4,117,560.5,117Zm-8.77-9.65h16.73c-.85-4.26-4.12-6.09-8.24-6.09C555.78,101.29,552.47,103.33,551.73,107.38Z"></path>
    <path class="cls-1" d="M576.7,118.76V99.56h2.89v4.72c1.55-3.24,5.39-5.11,9.54-5.11v2.61c-4.37,0-8.1,1.94-9.54,5.78v11.2Z"></path>
    <path class="cls-1" d="M612.16,108.12V115a6.92,6.92,0,0,0,.92,3.73H610a5.87,5.87,0,0,1-.81-3.06v-.07c-1.51,2.08-4.54,3.84-8.7,3.84s-9.79-1.69-9.79-6.8,5.6-6.8,9.79-6.8,7.18,1.73,8.7,3.84v-1.58c0-4.65-2.64-6.76-7.92-6.76a13.33,13.33,0,0,0-7.54,2.22l-1.34-2.11a17.89,17.89,0,0,1,9.37-2.61C608.21,98.86,612.16,102,612.16,108.12Zm-2.89,4.19c-1.66-3-5.28-4.05-8.52-4.05-2.82,0-7.18.81-7.18,4.4s4.37,4.4,7.18,4.4c3.24,0,6.87-1.09,8.52-4Z"></path>
    <path class="cls-1" d="M631.49,117.67a9.71,9.71,0,0,1-5.56,1.8c-3.45,0-6.3-1.83-6.3-5.56V102.1h-3.87V99.56h3.87V95.09h2.89v4.47h8.84v2.54h-8.84v11.38c0,2.36,1.8,3.42,3.91,3.42a7.88,7.88,0,0,0,4-1.3Z"></path>
    <path class="cls-1" d="M645.71,117c3.8,0,6.09-1,8.31-3l1.9,2c-2.61,2.36-5.81,3.49-10.35,3.49-7.43,0-11.69-4-11.69-10.32s4.26-10.35,11.52-10.35c6.83,0,11.2,3.7,11.2,10.32a2.4,2.4,0,0,1-.07.63H636.8C637.08,114.64,640.61,117,645.71,117Zm-8.77-9.65h16.73c-.85-4.26-4.12-6.09-8.24-6.09C641,101.29,637.68,103.33,636.94,107.38Z"></path>
</svg>