<!DOCTYPE svg PUBLIC "-//W3C//DTD SVG 20010904//EN" "http://www.w3.org/TR/2001/REC-SVG-20010904/DTD/svg10.dtd">
<svg version="1.0" xmlns="http://www.w3.org/2000/svg" width="500px" height="399px" viewBox="0 0 5000 3990" preserveAspectRatio="xMidYMid meet">
<g id="layer101" fill="#9ca157" stroke="none">
 <path d="M265 3957 c-29 -22 -10 -38 25 -20 17 8 28 19 25 24 -9 13 -28 11 -50 -4z"/>
 <path d="M435 3931 c-3 -6 3 -15 14 -21 12 -6 22 -6 26 -1 3 6 -3 15 -14 21 -12 6 -22 6 -26 1z"/>
 <path d="M745 3881 c-7 -12 12 -24 25 -16 11 7 4 25 -10 25 -5 0 -11 -4 -15 -9z"/>
 <path d="M856 3861 c-4 -5 -2 -12 4 -16 5 -3 10 -3 10 1 0 3 6 1 14 -5 10 -8 16 -9 21 -1 3 5 4 11 1 11 -3 1 -9 2 -13 3 -5 1 -13 5 -20 9 -6 4 -14 3 -17 -2z"/>
 <path d="M666 3821 c-15 -17 -13 -31 5 -31 13 0 30 38 20 44 -4 3 -16 -3 -25 -13z"/>
 <path d="M1205 3801 c-7 -12 12 -24 25 -16 11 7 4 25 -10 25 -5 0 -11 -4 -15 -9z"/>
 <path d="M894 3766 c-4 -10 -2 -22 4 -28 8 -8 13 -7 18 6 4 10 2 22 -4 28 -8 8 -13 7 -18 -6z"/>
 <path d="M1366 3772 c-3 -5 3 -17 13 -26 11 -10 22 -13 25 -8 3 5 -3 17 -13 26 -11 10 -22 13 -25 8z"/>
 <path d="M1690 3714 c-9 -10 -10 -18 -3 -25 8 -8 14 -5 22 9 13 25 -2 38 -19 16z"/>
 <path d="M1395 3659 c-10 -26 -1 -304 10 -302 14 4 19 293 6 306 -7 7 -12 5 -16 -4z"/>
 <path d="M905 3650 c-4 -6 -3 -16 3 -22 6 -6 12 -6 17 2 4 6 3 16 -3 22 -6 6 -12 6 -17 -2z"/>
 <path d="M2265 3631 c-7 -12 12 -24 25 -16 11 7 4 25 -10 25 -5 0 -11 -4 -15 -9z"/>
 <path d="M2335 3630 c-8 -12 20 -24 35 -15 6 3 8 11 5 16 -8 12 -32 12 -40 -1z"/>
 <path d="M2165 3606 c-11 -8 -14 -16 -8 -19 6 -4 18 0 28 7 11 8 14 16 8 19 -6 4 -18 0 -28 -7z"/>
 <path d="M2655 3551 c-3 -6 3 -15 14 -21 12 -6 22 -6 26 -1 3 6 -3 15 -14 21 -12 6 -22 6 -26 1z"/>
 <path d="M915 3540 c-4 -6 -3 -16 3 -22 6 -6 12 -6 17 2 4 6 3 16 -3 22 -6 6 -12 6 -17 -2z"/>
 <path d="M2090 3531 c-6 -12 -6 -22 -1 -26 6 -3 15 3 21 14 6 12 6 22 1 26 -6 3 -15 -3 -21 -14z"/>
 <path d="M1995 3517 c-9 -22 -2 -62 10 -60 6 1 11 14 13 29 4 32 -14 56 -23 31z"/>
 <path d="M3215 3461 c-7 -12 12 -24 25 -16 11 7 4 25 -10 25 -5 0 -11 -4 -15 -9z"/>
 <path d="M3305 3461 c-7 -12 12 -24 25 -16 11 7 4 25 -10 25 -5 0 -11 -4 -15 -9z"/>
 <path d="M3385 3451 c-7 -12 12 -24 25 -16 11 7 4 25 -10 25 -5 0 -11 -4 -15 -9z"/>
 <path d="M924 3436 c-4 -10 -2 -22 4 -28 8 -8 13 -7 18 6 4 10 2 22 -4 28 -8 8 -13 7 -18 -6z"/>
 <path d="M935 3330 c-4 -6 -3 -16 3 -22 6 -6 12 -6 17 2 4 6 3 16 -3 22 -6 6 -12 6 -17 -2z"/>
 <path d="M3965 3300 c-4 -6 -3 -16 3 -22 6 -6 12 -6 17 2 4 6 3 16 -3 22 -6 6 -12 6 -17 -2z"/>
 <path d="M4015 3301 c-7 -12 12 -24 25 -16 11 7 4 25 -10 25 -5 0 -11 -4 -15 -9z"/>
 <path d="M1395 3258 c-9 -23 -2 -83 10 -83 14 0 19 75 6 88 -7 7 -12 5 -16 -5z"/>
 <path d="M945 3230 c-4 -6 -3 -16 3 -22 6 -6 12 -6 17 2 4 6 3 16 -3 22 -6 6 -12 6 -17 -2z"/>
 <path d="M1436 3151 c-4 -5 -2 -12 4 -16 5 -3 10 -3 10 1 0 3 6 1 14 -5 10 -8 16 -9 21 -1 3 5 4 11 1 11 -3 1 -9 2 -13 3 -5 1 -13 5 -20 9 -6 4 -14 3 -17 -2z"/>
 <path d="M954 3126 c-4 -10 -2 -22 4 -28 8 -8 13 -7 18 6 4 10 2 22 -4 28 -8 8 -13 7 -18 -6z"/>
 <path d="M1565 3121 c-7 -12 12 -24 25 -16 11 7 4 25 -10 25 -5 0 -11 -4 -15 -9z"/>
 <path d="M2275 3080 c-4 -6 -3 -16 3 -22 6 -6 12 -6 17 2 4 6 3 16 -3 22 -6 6 -12 6 -17 -2z"/>
 <path d="M964 3026 c-4 -10 -2 -22 4 -28 8 -8 13 -7 18 6 4 10 2 22 -4 28 -8 8 -13 7 -18 -6z"/>
 <path d="M425 3008 c-9 -22 -2 -68 10 -71 14 -3 19 63 6 76 -7 7 -12 5 -16 -5z"/>
 <path d="M2264 2966 c-4 -10 -2 -22 4 -28 8 -8 13 -7 18 6 4 10 2 22 -4 28 -8 8 -13 7 -18 -6z"/>
 <path d="M3895 2971 c-4 -8 -1 -19 8 -28 19 -20 30 -1 13 22 -10 14 -15 15 -21 6z"/>
 <path d="M3235 2940 c-4 -6 -3 -16 3 -22 6 -6 12 -6 17 2 4 6 3 16 -3 22 -6 6 -12 6 -17 -2z"/>
 <path d="M974 2926 c-4 -10 -2 -22 4 -28 8 -8 13 -7 18 6 4 10 2 22 -4 28 -8 8 -13 7 -18 -6z"/>
 <path d="M3904 2906 c-8 -21 3 -49 16 -41 5 3 10 15 10 25 0 25 -18 36 -26 16z"/>
 <path d="M3225 2840 c-4 -6 -3 -16 3 -22 6 -6 12 -6 17 2 4 6 3 16 -3 22 -6 6 -12 6 -17 -2z"/>
 <path d="M985 2820 c-4 -6 -3 -16 3 -22 6 -6 12 -6 17 2 4 6 3 16 -3 22 -6 6 -12 6 -17 -2z"/>
 <path d="M4336 2803 c-11 -11 -6 -129 6 -141 15 -15 45 -16 53 -1 4 6 -2 13 -14 16 -18 5 -21 13 -21 64 0 54 -9 77 -24 62z"/>
 <path d="M994 2726 c-4 -10 -2 -22 4 -28 8 -8 13 -7 18 6 4 10 2 22 -4 28 -8 8 -13 7 -18 -6z"/>
 <path d="M1964 2677 c-7 -20 -2 -47 11 -50 14 -3 19 43 6 56 -7 7 -12 6 -17 -6z"/>
 <path d="M2265 2680 c-4 -6 -3 -16 3 -22 6 -6 12 -6 17 2 4 6 3 16 -3 22 -6 6 -12 6 -17 -2z"/>
 <path d="M3215 2648 c-9 -22 -2 -68 10 -71 14 -3 19 63 6 76 -7 7 -12 5 -16 -5z"/>
 <path d="M4476 2651 c-4 -5 -2 -12 4 -16 5 -3 10 -3 10 1 0 3 6 1 14 -5 10 -8 16 -9 21 -1 3 5 4 11 1 11 -3 1 -9 2 -13 3 -5 1 -13 5 -20 9 -6 4 -14 3 -17 -2z"/>
 <path d="M1364 2636 c-4 -10 -2 -22 4 -28 8 -8 13 -7 18 6 4 10 2 22 -4 28 -8 8 -13 7 -18 -6z"/>
 <path d="M4555 2621 c-3 -6 3 -15 14 -21 12 -6 22 -6 26 -1 3 6 -3 15 -14 21 -12 6 -22 6 -26 1z"/>
 <path d="M1955 2487 c-9 -22 -2 -62 10 -60 6 1 11 14 13 29 4 32 -14 56 -23 31z"/>
 <path d="M3225 2480 c-4 -6 -3 -16 3 -22 6 -6 12 -6 17 2 4 6 3 16 -3 22 -6 6 -12 6 -17 -2z"/>
 <path d="M1354 2447 c-7 -20 -2 -47 11 -50 14 -3 19 43 6 56 -7 7 -12 6 -17 -6z"/>
 <path d="M415 2420 c-4 -6 -3 -16 3 -22 6 -6 12 -6 17 2 4 6 3 16 -3 22 -6 6 -12 6 -17 -2z"/>
 <path d="M395 2381 c-7 -12 12 -24 25 -16 11 7 4 25 -10 25 -5 0 -11 -4 -15 -9z"/>
 <path d="M585 2381 c-7 -12 12 -24 25 -16 11 7 4 25 -10 25 -5 0 -11 -4 -15 -9z"/>
 <path d="M245 2340 c-4 -6 -3 -16 3 -22 6 -6 12 -6 17 2 4 6 3 16 -3 22 -6 6 -12 6 -17 -2z"/>
 <path d="M2505 2330 c-8 -13 20 -24 41 -16 20 8 9 26 -16 26 -10 0 -22 -5 -25 -10z"/>
 <path d="M1345 2290 c-4 -6 -3 -16 3 -22 6 -6 12 -6 17 2 4 6 3 16 -3 22 -6 6 -12 6 -17 -2z"/>
 <path d="M166 2271 c-10 -11 -13 -22 -8 -25 5 -3 17 3 26 13 10 11 13 22 8 25 -5 3 -17 -3 -26 -13z"/>
 <path d="M1375 2251 c-7 -12 12 -24 25 -16 11 7 4 25 -10 25 -5 0 -11 -4 -15 -9z"/>
 <path d="M1945 2227 c-9 -22 -2 -62 10 -60 6 1 11 14 13 29 4 32 -14 56 -23 31z"/>
 <path d="M3465 2160 c-8 -12 20 -24 35 -15 6 3 8 11 5 16 -8 12 -32 12 -40 -1z"/>
 <path d="M4935 2140 c-4 -6 -3 -16 3 -22 6 -6 12 -6 17 2 4 6 3 16 -3 22 -6 6 -12 6 -17 -2z"/>
 <path d="M3905 2090 c-4 -6 -3 -16 3 -22 6 -6 12 -6 17 2 4 6 3 16 -3 22 -6 6 -12 6 -17 -2z"/>
 <path d="M4274 2077 c-7 -20 -2 -47 11 -50 14 -3 19 43 6 56 -7 7 -12 6 -17 -6z"/>
 <path d="M3121 1876 c-7 -8 -8 -17 -3 -20 6 -3 15 1 21 8 7 8 8 17 3 20 -6 3 -15 -1 -21 -8z"/>
 <path d="M2015 1831 c-7 -12 12 -24 25 -16 11 7 4 25 -10 25 -5 0 -11 -4 -15 -9z"/>
 <path d="M475 1751 c-7 -13 17 -24 40 -19 9 1 16 8 16 13 0 14 -48 19 -56 6z"/>
 <path d="M335 1740 c-4 -6 -10 -8 -15 -5 -5 3 -11 1 -14 -4 -4 -5 -2 -12 3 -15 5 -4 12 -2 16 4 4 6 10 8 15 5 5 -3 11 -1 14 4 4 5 2 12 -3 15 -5 4 -12 2 -16 -4z"/>
 <path d="M1415 1700 c-4 -6 -3 -16 3 -22 6 -6 12 -6 17 2 4 6 3 16 -3 22 -6 6 -12 6 -17 -2z"/>
 <path d="M1405 1529 c-10 -26 -1 -319 10 -322 14 -3 19 313 6 326 -7 7 -12 5 -16 -4z"/>
 <path d="M2295 1530 c-4 -6 -3 -16 3 -22 6 -6 12 -6 17 2 4 6 3 16 -3 22 -6 6 -12 6 -17 -2z"/>
 <path d="M2284 1416 c-4 -10 -2 -22 4 -28 8 -8 13 -7 18 6 4 10 2 22 -4 28 -8 8 -13 7 -18 -6z"/>
 <path d="M3915 1421 c-10 -17 15 -45 29 -31 7 7 5 15 -6 26 -11 11 -18 13 -23 5z"/>
 <path d="M3255 1390 c-4 -6 -3 -16 3 -22 6 -6 12 -6 17 2 4 6 3 16 -3 22 -6 6 -12 6 -17 -2z"/>
 <path d="M3924 1346 c-4 -10 -2 -22 4 -28 8 -8 13 -7 18 6 4 10 2 22 -4 28 -8 8 -13 7 -18 -6z"/>
 <path d="M4355 1308 c-9 -24 -1 -188 10 -191 14 -3 19 183 6 196 -7 7 -12 5 -16 -5z"/>
 <path d="M3244 1296 c-4 -10 -2 -22 4 -28 8 -8 13 -7 18 6 4 10 2 22 -4 28 -8 8 -13 7 -18 -6z"/>
 <path d="M845 1291 c-7 -12 12 -24 25 -16 11 7 4 25 -10 25 -5 0 -11 -4 -15 -9z"/>
 <path d="M1785 1230 c-8 -13 20 -24 41 -16 20 8 9 26 -16 26 -10 0 -22 -5 -25 -10z"/>
 <path d="M1695 1220 c-4 -6 -3 -16 3 -22 6 -6 12 -6 17 2 4 6 3 16 -3 22 -6 6 -12 6 -17 -2z"/>
 <path d="M1885 1221 c-7 -12 12 -24 25 -16 11 7 4 25 -10 25 -5 0 -11 -4 -15 -9z"/>
 <path d="M1985 1210 c-4 -6 -3 -16 3 -22 6 -6 12 -6 17 2 4 6 3 16 -3 22 -6 6 -12 6 -17 -2z"/>
 <path d="M525 1191 c-3 -6 3 -15 14 -21 12 -6 22 -6 26 -1 3 6 -3 15 -14 21 -12 6 -22 6 -26 1z"/>
 <path d="M675 1176 c-11 -8 -14 -16 -8 -19 6 -4 18 0 28 7 11 8 14 16 8 19 -6 4 -18 0 -28 -7z"/>
 <path d="M615 1161 c-7 -12 12 -24 25 -16 11 7 4 25 -10 25 -5 0 -11 -4 -15 -9z"/>
 <path d="M2285 1130 c-4 -6 -3 -16 3 -22 6 -6 12 -6 17 2 4 6 3 16 -3 22 -6 6 -12 6 -17 -2z"/>
 <path d="M3235 1118 c-9 -24 -2 -93 10 -93 14 0 19 85 6 98 -7 7 -12 5 -16 -5z"/>
 <path d="M4385 1121 c-7 -12 12 -24 25 -16 11 7 4 25 -10 25 -5 0 -11 -4 -15 -9z"/>
 <path d="M4575 1070 c-3 -5 8 -16 24 -25 18 -9 32 -11 36 -5 3 5 -8 16 -24 25 -18 9 -32 11 -36 5z"/>
 <path d="M3245 930 c-4 -6 -3 -16 3 -22 6 -6 12 -6 17 2 4 6 3 16 -3 22 -6 6 -12 6 -17 -2z"/>
 <path d="M2001 806 c-7 -8 -8 -17 -3 -20 6 -3 15 1 21 8 7 8 8 17 3 20 -6 3 -15 -1 -21 -8z"/>
 <path d="M3277 804 c-9 -10 22 -66 33 -59 6 4 4 18 -5 36 -17 31 -18 32 -28 23z"/>
 <path d="M2525 780 c-8 -13 20 -24 41 -16 20 8 9 26 -16 26 -10 0 -22 -5 -25 -10z"/>
 <path d="M2950 661 c-6 -12 -6 -22 -1 -26 6 -3 15 3 21 14 6 12 6 22 1 26 -6 3 -15 -3 -21 -14z"/>
 <path d="M3555 626 c-11 -8 -14 -16 -8 -19 6 -4 18 0 28 7 11 8 14 16 8 19 -6 4 -18 0 -28 -7z"/>
 <path d="M3495 611 c-7 -12 12 -24 25 -16 11 7 4 25 -10 25 -5 0 -11 -4 -15 -9z"/>
 <path d="M4955 590 c-4 -6 -3 -16 3 -22 6 -6 12 -6 17 2 4 6 3 16 -3 22 -6 6 -12 6 -17 -2z"/>
 <path d="M3925 550 c-4 -6 -3 -16 3 -22 6 -6 12 -6 17 2 4 6 3 16 -3 22 -6 6 -12 6 -17 -2z"/>
 <path d="M4294 527 c-7 -20 -2 -47 11 -50 14 -3 19 43 6 56 -7 7 -12 6 -17 -6z"/>
 </g>
<g id="layer102" fill="#b07851" stroke="none">
 <path d="M204 3876 c-4 -10 -2 -22 4 -28 8 -8 13 -7 18 6 4 10 2 22 -4 28 -8 8 -13 7 -18 -6z"/>
 <path d="M195 3800 c-4 -6 -3 -16 3 -22 6 -6 12 -6 17 2 4 6 3 16 -3 22 -6 6 -12 6 -17 -2z"/>
 <path d="M175 3670 c-4 -6 -3 -16 3 -22 6 -6 12 -6 17 2 4 6 3 16 -3 22 -6 6 -12 6 -17 -2z"/>
 <path d="M599 3666 c-1 -3 -2 -9 -3 -13 -1 -5 -5 -14 -10 -21 -4 -7 -5 -16 -2 -19 3 -3 1 -12 -5 -19 -6 -8 -6 -14 0 -18 5 -4 12 -2 16 4 3 5 3 10 -1 10 -3 0 -1 7 6 15 7 9 10 18 7 22 -4 3 -2 12 4 19 7 8 7 14 -1 19 -5 3 -11 4 -11 1z"/>
 <path d="M1024 3657 c-7 -20 -2 -47 11 -50 14 -3 19 43 6 56 -7 7 -12 6 -17 -6z"/>
 <path d="M1640 3635 c-19 -23 -1 -39 21 -19 10 9 16 21 13 25 -8 13 -20 11 -34 -6z"/>
 <path d="M165 3600 c-4 -6 -3 -16 3 -22 6 -6 12 -6 17 2 4 6 3 16 -3 22 -6 6 -12 6 -17 -2z"/>
 <path d="M1625 3537 c-9 -22 -2 -62 10 -60 6 1 11 14 13 29 4 32 -14 56 -23 31z"/>
 <path d="M155 3530 c-4 -6 -3 -16 3 -22 6 -6 12 -6 17 2 4 6 3 16 -3 22 -6 6 -12 6 -17 -2z"/>
 <path d="M2063 3487 c-19 -24 -23 -36 -14 -41 5 -3 16 5 25 19 16 24 6 45 -11 22z"/>
 <path d="M145 3460 c-4 -6 -3 -16 3 -22 6 -6 12 -6 17 2 4 6 3 16 -3 22 -6 6 -12 6 -17 -2z"/>
 <path d="M1015 3438 c-9 -24 -2 -93 10 -93 14 0 19 85 6 98 -7 7 -12 5 -16 -5z"/>
 <path d="M135 3390 c-4 -6 -3 -16 3 -22 6 -6 12 -6 17 2 4 6 3 16 -3 22 -6 6 -12 6 -17 -2z"/>
 <path d="M2005 3380 c-4 -6 -4 -14 -1 -17 3 -3 1 -12 -5 -19 -6 -7 -8 -18 -4 -24 9 -14 28 -1 21 15 -2 7 1 18 7 24 8 8 8 14 0 22 -8 8 -13 8 -18 -1z"/>
 <path d="M125 3320 c-4 -6 -3 -16 3 -22 6 -6 12 -6 17 2 4 6 3 16 -3 22 -6 6 -12 6 -17 -2z"/>
 <path d="M114 3246 c-4 -10 -2 -22 4 -28 8 -8 13 -7 18 6 4 10 2 22 -4 28 -8 8 -13 7 -18 -6z"/>
 <path d="M2365 3230 c-8 -13 20 -24 41 -16 20 8 9 26 -16 26 -10 0 -22 -5 -25 -10z"/>
 <path d="M1615 3218 c-9 -22 -2 -68 10 -71 14 -3 19 63 6 76 -7 7 -12 5 -16 -5z"/>
 <path d="M3914 3216 c-8 -21 3 -49 16 -41 5 3 10 15 10 25 0 25 -18 36 -26 16z"/>
 <path d="M105 3170 c-4 -6 -3 -16 3 -22 6 -6 12 -6 17 2 4 6 3 16 -3 22 -6 6 -12 6 -17 -2z"/>
 <path d="M2556 3162 c-3 -6 1 -15 8 -21 8 -7 17 -8 20 -3 3 6 -1 15 -8 21 -8 7 -17 8 -20 3z"/>
 <path d="M445 3100 c-4 -6 -1 -18 7 -27 7 -9 12 -18 11 -20 -2 -1 -1 -3 2 -3 3 0 8 0 12 0 4 0 2 5 -4 11 -6 6 -9 17 -7 24 7 16 -12 29 -21 15z"/>
 <path d="M94 3086 c-4 -10 -2 -22 4 -28 8 -8 13 -7 18 6 4 10 2 22 -4 28 -8 8 -13 7 -18 -6z"/>
 <path d="M644 3087 c-7 -20 -2 -47 11 -50 14 -3 19 43 6 56 -7 7 -12 6 -17 -6z"/>
 <path d="M3315 3061 c-7 -13 17 -24 40 -19 9 1 16 8 16 13 0 14 -48 19 -56 6z"/>
 <path d="M1005 3048 c-9 -24 -1 -128 10 -131 13 -3 19 123 6 136 -7 7 -12 5 -16 -5z"/>
 <path d="M3406 3051 c-4 -5 -2 -12 4 -16 5 -3 10 -3 10 1 0 3 6 1 14 -5 10 -8 16 -9 21 -1 3 5 4 11 1 11 -3 1 -9 2 -13 3 -5 1 -13 5 -20 9 -6 4 -14 3 -17 -2z"/>
 <path d="M2624 3037 c-7 -20 -2 -47 11 -50 14 -3 19 43 6 56 -7 7 -12 6 -17 -6z"/>
 <path d="M84 2996 c-4 -10 -2 -22 4 -28 8 -8 13 -7 18 6 4 10 2 22 -4 28 -8 8 -13 7 -18 -6z"/>
 <path d="M549 2916 c-1 -3 -2 -9 -3 -13 -1 -5 -5 -13 -9 -20 -4 -6 -3 -14 3 -18 5 -3 11 -4 11 -1 1 3 2 9 3 14 1 4 5 12 9 19 4 6 3 14 -3 18 -5 3 -11 4 -11 1z"/>
 <path d="M74 2896 c-8 -21 3 -49 16 -41 5 3 10 15 10 25 0 25 -18 36 -26 16z"/>
 <path d="M495 2900 c-4 -6 -1 -18 7 -27 7 -9 12 -18 11 -20 -2 -1 -1 -3 2 -3 3 0 8 0 12 0 4 0 2 5 -4 11 -6 6 -9 17 -7 24 7 16 -12 29 -21 15z"/>
 <path d="M655 2828 c-9 -24 -1 -113 10 -111 14 4 19 103 6 116 -7 7 -12 5 -16 -5z"/>
 <path d="M2635 2808 c-9 -24 -1 -128 10 -131 13 -3 19 123 6 136 -7 7 -12 5 -16 -5z"/>
 <path d="M3585 2797 c-9 -22 -2 -62 10 -60 6 1 11 14 13 29 4 32 -14 56 -23 31z"/>
 <path d="M64 2776 c-8 -21 3 -49 16 -41 5 3 10 15 10 25 0 25 -18 36 -26 16z"/>
 <path d="M54 2627 c-7 -20 -2 -47 11 -50 14 -3 19 43 6 56 -7 7 -12 6 -17 -6z"/>
 <path d="M1584 2607 c-7 -20 -2 -47 11 -50 14 -3 19 43 6 56 -7 7 -12 6 -17 -6z"/>
 <path d="M2624 2516 c-8 -21 3 -49 16 -41 5 3 10 15 10 25 0 25 -18 36 -26 16z"/>
 <path d="M1975 2497 c-9 -22 -2 -62 10 -60 6 1 11 14 13 29 4 32 -14 56 -23 31z"/>
 <path d="M665 2468 c-9 -22 -2 -68 10 -71 14 -3 19 63 6 76 -7 7 -12 5 -16 -5z"/>
 <path d="M364 2396 c-4 -10 -2 -22 4 -28 8 -8 13 -7 18 6 4 10 2 22 -4 28 -8 8 -13 7 -18 -6z"/>
 <path d="M66 2381 c-4 -5 -2 -12 4 -16 5 -3 10 -3 10 1 0 3 6 1 14 -5 10 -8 16 -9 21 -1 3 5 4 11 1 11 -3 1 -9 2 -13 3 -5 1 -13 5 -20 9 -6 4 -14 3 -17 -2z"/>
 <path d="M3584 2376 c-4 -10 -2 -22 4 -28 8 -8 13 -7 18 6 4 10 2 22 -4 28 -8 8 -13 7 -18 -6z"/>
 <path d="M175 2350 c-8 -12 20 -24 35 -15 6 3 8 11 5 16 -8 12 -32 12 -40 -1z"/>
 <path d="M1995 2330 c-4 -6 -1 -17 5 -25 7 -8 9 -15 5 -15 -4 0 -3 -6 3 -12 6 -7 11 -16 11 -20 1 -5 3 -8 6 -8 3 0 8 0 11 0 4 0 1 7 -6 15 -7 8 -9 15 -4 15 4 0 3 5 -3 11 -6 6 -9 17 -7 24 7 16 -12 29 -21 15z"/>
 <path d="M974 2286 c-4 -10 -2 -22 4 -28 8 -8 13 -7 18 6 4 10 2 22 -4 28 -8 8 -13 7 -18 -6z"/>
 <path d="M3574 2246 c-4 -10 -2 -22 4 -28 8 -8 13 -7 18 6 4 10 2 22 -4 28 -8 8 -13 7 -18 -6z"/>
 <path d="M4405 2250 c-3 -5 -4 -11 -1 -11 3 -1 9 -2 14 -3 4 -1 21 -10 39 -19 19 -10 34 -13 38 -7 3 5 -8 16 -25 25 -16 8 -30 13 -30 9 0 -4 -6 -1 -14 5 -10 8 -16 9 -21 1z"/>
 <path d="M935 2221 c-7 -13 11 -23 38 -20 12 1 30 -1 39 -5 9 -4 22 -5 28 -1 16 10 0 27 -21 22 -10 -3 -22 -1 -25 4 -7 12 -51 12 -59 0z"/>
 <path d="M2037 2213 c-4 -6 0 -18 7 -28 8 -11 16 -14 19 -8 4 6 0 18 -7 28 -8 11 -16 14 -19 8z"/>
 <path d="M1075 2201 c-7 -12 12 -24 25 -16 11 7 4 25 -10 25 -5 0 -11 -4 -15 -9z"/>
 <path d="M2945 2190 c-4 -6 -3 -16 3 -22 6 -6 12 -6 17 2 4 6 3 16 -3 22 -6 6 -12 6 -17 -2z"/>
 <path d="M91 2166 c-7 -8 -8 -17 -3 -20 6 -3 15 1 21 8 7 8 8 17 3 20 -6 3 -15 -1 -21 -8z"/>
 <path d="M2066 2152 c-3 -6 1 -15 8 -21 8 -7 17 -8 20 -3 3 6 -1 15 -8 21 -8 7 -17 8 -20 3z"/>
 <path d="M55 2110 c-8 -16 -13 -30 -9 -30 4 0 1 -6 -5 -14 -8 -10 -9 -16 -1 -21 5 -3 11 -4 11 -1 1 3 2 9 3 14 1 4 10 21 19 39 10 19 13 34 7 38 -5 3 -16 -8 -25 -25z"/>
 <path d="M4565 2120 c-4 -6 -3 -16 3 -22 6 -6 12 -6 17 2 4 6 3 16 -3 22 -6 6 -12 6 -17 -2z"/>
 <path d="M2966 2111 c-4 -5 -2 -12 4 -16 6 -4 8 -10 5 -15 -3 -5 -1 -11 4 -14 5 -4 12 -2 15 3 4 5 2 12 -4 16 -6 4 -8 10 -5 15 3 5 1 11 -4 14 -5 4 -12 2 -15 -3z"/>
 <path d="M2106 2102 c-3 -6 1 -15 8 -21 8 -7 17 -8 20 -3 3 6 -1 15 -8 21 -8 7 -17 8 -20 3z"/>
 <path d="M24 2016 c-4 -10 -2 -22 4 -28 8 -8 13 -7 18 6 4 10 2 22 -4 28 -8 8 -13 7 -18 -6z"/>
 <path d="M2772 1998 c-17 -11 -30 -24 -26 -29 5 -9 58 14 69 30 11 19 -11 18 -43 -1z"/>
 <path d="M475 1980 c-3 -5 -2 -11 2 -13 14 -8 63 -2 66 8 3 12 -61 17 -68 5z"/>
 <path d="M3905 1958 c-9 -24 -1 -143 10 -143 13 0 19 135 6 148 -7 7 -12 5 -16 -5z"/>
 <path d="M3046 1952 c-3 -6 1 -15 8 -21 8 -7 17 -8 20 -3 3 6 -1 15 -8 21 -8 7 -17 8 -20 3z"/>
 <path d="M36 1922 c-3 -6 -2 -13 4 -17 5 -3 10 -3 10 1 0 3 7 1 15 -6 8 -6 19 -9 25 -5 14 9 1 28 -15 21 -7 -2 -17 0 -23 6 -6 6 -12 6 -16 0z"/>
 <path d="M370 1910 c-11 -21 -5 -44 9 -35 13 7 20 44 11 50 -5 3 -14 -4 -20 -15z"/>
 <path d="M3086 1911 c-6 -8 5 -20 31 -35 23 -13 22 12 -2 28 -13 9 -26 12 -29 7z"/>
 <path d="M115 1900 c-8 -12 20 -24 35 -15 6 3 8 11 5 16 -8 12 -32 12 -40 -1z"/>
 <path d="M255 1881 c-7 -12 12 -24 25 -16 11 7 4 25 -10 25 -5 0 -11 -4 -15 -9z"/>
 <path d="M325 1871 c-7 -12 12 -24 25 -16 11 7 4 25 -10 25 -5 0 -11 -4 -15 -9z"/>
 <path d="M3020 1741 c-6 -12 -6 -22 -1 -26 6 -3 15 3 21 14 6 12 6 22 1 26 -6 3 -15 -3 -21 -14z"/>
 <path d="M3915 1700 c-3 -6 0 -13 8 -16 8 -3 13 -13 10 -24 -8 -28 13 -32 31 -5 16 24 15 25 -13 40 -19 9 -32 11 -36 5z"/>
 <path d="M2375 1680 c-3 -5 0 -13 9 -16 21 -8 61 -1 61 11 0 14 -62 19 -70 5z"/>
 <path d="M4677 1644 c-38 -20 -24 -38 14 -19 16 9 27 20 24 25 -7 12 -4 13 -38 -6z"/>
 <path d="M2566 1622 c-3 -5 5 -19 18 -31 13 -13 26 -18 30 -13 3 5 -5 19 -18 31 -13 13 -26 18 -30 13z"/>
 <path d="M4535 1601 c-7 -12 12 -24 25 -16 11 7 4 25 -10 25 -5 0 -11 -4 -15 -9z"/>
 <path d="M1664 1586 c-8 -21 3 -49 16 -41 5 3 10 15 10 25 0 25 -18 36 -26 16z"/>
 <path d="M3325 1512 c-4 -4 -11 -7 -16 -7 -5 0 -9 -3 -9 -7 0 -8 3 -9 18 -7 4 1 23 2 42 3 19 0 37 6 40 11 6 11 -64 18 -75 7z"/>
 <path d="M921 1486 c-7 -8 -8 -17 -3 -20 6 -3 15 1 21 8 7 8 8 17 3 20 -6 3 -15 -1 -21 -8z"/>
 <path d="M2645 1487 c-9 -22 -2 -62 10 -60 6 1 11 14 13 29 4 32 -14 56 -23 31z"/>
 <path d="M1984 1461 c-13 -21 -27 -31 -48 -33 -42 -4 -39 -22 3 -26 27 -3 39 2 57 25 25 30 30 48 15 58 -5 3 -18 -8 -27 -24z"/>
 <path d="M881 1446 c-7 -8 -8 -17 -3 -20 6 -3 15 1 21 8 7 8 8 17 3 20 -6 3 -15 -1 -21 -8z"/>
 <path d="M1785 1441 c-7 -12 12 -24 25 -16 11 7 4 25 -10 25 -5 0 -11 -4 -15 -9z"/>
 <path d="M1835 1431 c-7 -12 12 -24 25 -16 11 7 4 25 -10 25 -5 0 -11 -4 -15 -9z"/>
 <path d="M55 1420 c-4 -6 -3 -16 3 -22 6 -6 12 -6 17 2 4 6 3 16 -3 22 -6 6 -12 6 -17 -2z"/>
 <path d="M45 1348 c-9 -24 -1 -103 10 -103 14 0 19 95 6 108 -7 7 -12 5 -16 -5z"/>
 <path d="M525 1340 c-8 -13 20 -24 41 -16 20 8 9 26 -16 26 -10 0 -22 -5 -25 -10z"/>
 <path d="M615 1340 c-8 -13 20 -24 41 -16 20 8 9 26 -16 26 -10 0 -22 -5 -25 -10z"/>
 <path d="M2655 1258 c-9 -24 -1 -128 10 -131 13 -3 19 123 6 136 -7 7 -12 5 -16 -5z"/>
 <path d="M3605 1247 c-9 -22 -2 -62 10 -60 6 1 11 14 13 29 4 32 -14 56 -23 31z"/>
 <path d="M55 1210 c-4 -6 -1 -17 5 -25 7 -8 9 -15 5 -15 -4 0 -3 -6 3 -12 6 -7 11 -16 11 -20 1 -5 3 -8 6 -8 3 0 8 0 11 0 4 0 1 7 -6 15 -7 8 -9 15 -4 15 4 0 3 5 -3 11 -6 6 -9 17 -7 24 7 16 -12 29 -21 15z"/>
 <path d="M1644 1136 c-4 -10 -2 -22 4 -28 8 -8 13 -7 18 6 4 10 2 22 -4 28 -8 8 -13 7 -18 -6z"/>
 <path d="M97 1094 c-9 -10 22 -66 33 -59 6 4 4 18 -5 36 -17 31 -18 32 -28 23z"/>
 <path d="M1635 1010 c-4 -6 -3 -16 3 -22 6 -6 12 -6 17 2 4 6 3 16 -3 22 -6 6 -12 6 -17 -2z"/>
 <path d="M2644 966 c-8 -21 3 -49 16 -41 5 3 10 15 10 25 0 25 -18 36 -26 16z"/>
 <path d="M1056 861 c-4 -5 -2 -12 4 -16 6 -4 8 -10 5 -15 -3 -5 -1 -11 4 -14 5 -4 12 -2 15 3 4 5 2 12 -4 16 -6 4 -8 10 -5 15 3 5 1 11 -4 14 -5 4 -12 2 -15 -3z"/>
 <path d="M2635 850 c-4 -6 -3 -16 3 -22 6 -6 12 -6 17 2 4 6 3 16 -3 22 -6 6 -12 6 -17 -2z"/>
 <path d="M3604 826 c-4 -10 -2 -22 4 -28 8 -8 13 -7 18 6 4 10 2 22 -4 28 -8 8 -13 7 -18 -6z"/>
 <path d="M880 780 c-25 -15 -50 -25 -56 -23 -16 6 -27 -14 -14 -22 6 -4 17 -1 25 5 8 7 15 10 15 6 0 -8 77 31 84 43 13 21 -11 17 -54 -9z"/>
 <path d="M395 791 c-3 -6 4 -15 15 -21 11 -6 20 -8 20 -4 0 3 6 1 14 -5 10 -8 16 -9 21 -1 3 5 4 11 1 11 -3 1 -9 2 -13 3 -5 1 -18 7 -30 14 -13 7 -24 8 -28 3z"/>
 <path d="M2015 780 c-4 -6 -1 -17 5 -25 7 -8 9 -15 5 -15 -4 0 -3 -6 3 -12 6 -7 11 -16 11 -20 1 -5 3 -8 6 -8 3 0 8 0 11 0 4 0 1 7 -6 15 -7 8 -9 15 -4 15 4 0 3 5 -3 11 -6 6 -9 17 -7 24 7 16 -12 29 -21 15z"/>
 <path d="M515 751 c-7 -12 12 -24 25 -16 11 7 4 25 -10 25 -5 0 -11 -4 -15 -9z"/>
 <path d="M575 741 c-7 -12 12 -24 25 -16 11 7 4 25 -10 25 -5 0 -11 -4 -15 -9z"/>
 <path d="M1116 732 c-3 -5 2 -20 12 -33 24 -29 36 -11 13 20 -11 14 -21 19 -25 13z"/>
 <path d="M4395 710 c-3 -5 -4 -11 -1 -11 16 -4 26 -7 31 -9 3 -1 8 -3 13 -4 4 -1 21 -10 39 -19 19 -10 34 -13 38 -7 3 5 -8 16 -25 25 -16 8 -30 13 -30 9 0 -4 -7 -1 -15 6 -8 7 -15 9 -15 5 0 -4 -6 -2 -14 4 -10 8 -16 9 -21 1z"/>
 <path d="M3594 696 c-4 -10 -2 -22 4 -28 8 -8 13 -7 18 6 4 10 2 22 -4 28 -8 8 -13 7 -18 -6z"/>
 <path d="M1166 662 c-3 -6 1 -15 8 -21 8 -7 17 -8 20 -3 3 6 -1 15 -8 21 -8 7 -17 8 -20 3z"/>
 <path d="M1886 651 c-10 -11 -13 -22 -8 -25 5 -3 17 3 26 13 10 11 13 22 8 25 -5 3 -17 -3 -26 -13z"/>
 <path d="M2057 663 c-4 -6 0 -18 7 -28 8 -11 16 -14 19 -8 4 6 0 18 -7 28 -8 11 -16 14 -19 8z"/>
 <path d="M2965 640 c-4 -6 -3 -16 3 -22 6 -6 12 -6 17 2 4 6 3 16 -3 22 -6 6 -12 6 -17 -2z"/>
 <path d="M1785 576 c-11 -8 -14 -16 -8 -19 6 -4 18 0 28 7 11 8 14 16 8 19 -6 4 -18 0 -28 -7z"/>
 <path d="M4585 570 c-4 -6 -3 -16 3 -22 6 -6 12 -6 17 2 4 6 3 16 -3 22 -6 6 -12 6 -17 -2z"/>
 <path d="M2986 561 c-4 -5 -2 -12 4 -16 6 -4 8 -10 5 -15 -3 -5 -1 -11 4 -14 5 -4 12 -2 15 3 4 5 2 12 -4 16 -6 4 -8 10 -5 15 3 5 1 11 -4 14 -5 4 -12 2 -15 -3z"/>
 <path d="M1356 551 c-4 -5 -2 -12 4 -16 5 -3 10 -3 10 1 0 3 6 1 14 -5 10 -8 16 -9 21 -1 3 5 4 11 1 11 -3 1 -9 2 -13 3 -5 1 -13 5 -20 9 -6 4 -14 3 -17 -2z"/>
 <path d="M1715 540 c-4 -6 -10 -8 -15 -5 -5 3 -11 1 -14 -4 -4 -5 -2 -12 3 -15 5 -4 12 -2 16 4 4 6 10 8 15 5 5 -3 11 -1 14 4 4 5 2 12 -3 15 -5 4 -12 2 -16 -4z"/>
 <path d="M1485 520 c-8 -12 20 -24 35 -15 6 3 8 11 5 16 -8 12 -32 12 -40 -1z"/>
 <path d="M1625 521 c-7 -12 12 -24 25 -16 11 7 4 25 -10 25 -5 0 -11 -4 -15 -9z"/>
 <path d="M4585 510 c-4 -6 -3 -16 3 -22 6 -6 12 -6 17 2 4 6 3 16 -3 22 -6 6 -12 6 -17 -2z"/>
 <path d="M2851 496 c-7 -8 -8 -17 -3 -20 6 -3 15 1 21 8 7 8 8 17 3 20 -6 3 -15 -1 -21 -8z"/>
 <path d="M2775 436 c-11 -8 -14 -16 -8 -19 6 -4 18 0 28 7 11 8 14 16 8 19 -6 4 -18 0 -28 -7z"/>
 <path d="M3925 418 c-9 -24 -1 -143 10 -143 13 0 19 135 6 148 -7 7 -12 5 -16 -5z"/>
 <path d="M2425 411 c-7 -12 12 -24 25 -16 11 7 4 25 -10 25 -5 0 -11 -4 -15 -9z"/>
 <path d="M2485 400 c-8 -12 20 -24 35 -15 6 3 8 11 5 16 -8 12 -32 12 -40 -1z"/>
 <path d="M3066 402 c-3 -5 8 -21 23 -36 16 -15 31 -23 35 -18 3 5 -8 21 -23 36 -16 15 -31 23 -35 18z"/>
 <path d="M3385 241 c-7 -12 12 -24 25 -16 11 7 4 25 -10 25 -5 0 -11 -4 -15 -9z"/>
 <path d="M3445 230 c-8 -12 20 -24 35 -15 6 3 8 11 5 16 -8 12 -32 12 -40 -1z"/>
 <path d="M3595 230 c-8 -12 20 -24 35 -15 6 3 8 11 5 16 -8 12 -32 12 -40 -1z"/>
 <path d="M4821 186 c-7 -8 -8 -17 -3 -20 6 -3 15 1 21 8 7 8 8 17 3 20 -6 3 -15 -1 -21 -8z"/>
 <path d="M4781 146 c-7 -8 -8 -17 -3 -20 6 -3 15 1 21 8 7 8 8 17 3 20 -6 3 -15 -1 -21 -8z"/>
 <path d="M4693 90 c-18 -11 -33 -17 -33 -14 0 4 -6 2 -12 -4 -7 -6 -16 -11 -20 -11 -5 -1 -8 -3 -8 -6 0 -3 0 -8 0 -11 0 -4 7 -1 15 6 8 7 15 9 15 5 0 -4 7 -2 15 5 8 7 15 10 15 6 0 -4 14 1 30 9 17 9 28 20 25 25 -8 13 -4 13 -42 -10z"/>
 <path d="M4185 71 c-7 -12 12 -24 25 -16 11 7 4 25 -10 25 -5 0 -11 -4 -15 -9z"/>
 <path d="M4245 61 c-7 -12 12 -24 25 -16 11 7 4 25 -10 25 -5 0 -11 -4 -15 -9z"/>
 <path d="M4315 50 c-8 -12 20 -24 35 -15 6 3 8 11 5 16 -8 12 -32 12 -40 -1z"/>
 <path d="M4545 50 c-8 -12 20 -24 35 -15 6 3 8 11 5 16 -8 12 -32 12 -40 -1z"/>
 </g>
<g id="layer103" fill="#489a98" stroke="none">
 <path d="M305 3961 c-7 -12 12 -24 25 -16 11 7 4 25 -10 25 -5 0 -11 -4 -15 -9z"/>
 <path d="M476 3871 c-4 -5 -2 -12 4 -16 6 -4 8 -10 5 -15 -3 -5 -1 -11 4 -14 5 -4 12 -2 15 3 4 5 2 12 -4 16 -6 4 -8 10 -5 15 3 5 1 11 -4 14 -5 4 -12 2 -15 -3z"/>
 <path d="M195 3820 c-4 -6 -3 -16 3 -22 6 -6 12 -6 17 2 4 6 3 16 -3 22 -6 6 -12 6 -17 -2z"/>
 <path d="M1145 3811 c-7 -12 12 -24 25 -16 11 7 4 25 -10 25 -5 0 -11 -4 -15 -9z"/>
 <path d="M894 3796 c-4 -10 -2 -22 4 -28 8 -8 13 -7 18 6 4 10 2 22 -4 28 -8 8 -13 7 -18 -6z"/>
 <path d="M1225 3801 c-7 -12 12 -24 25 -16 11 7 4 25 -10 25 -5 0 -11 -4 -15 -9z"/>
 <path d="M1074 3776 c-8 -21 3 -49 16 -41 5 3 10 15 10 25 0 25 -18 36 -26 16z"/>
 <path d="M505 3760 c-4 -6 -3 -16 3 -22 6 -6 12 -6 17 2 4 6 3 16 -3 22 -6 6 -12 6 -17 -2z"/>
 <path d="M185 3750 c-4 -6 -3 -16 3 -22 6 -6 12 -6 17 2 4 6 3 16 -3 22 -6 6 -12 6 -17 -2z"/>
 <path d="M1025 3700 c-4 -6 -3 -16 3 -22 6 -6 12 -6 17 2 4 6 3 16 -3 22 -6 6 -12 6 -17 -2z"/>
 <path d="M1394 3686 c-4 -10 -2 -22 4 -28 8 -8 13 -7 18 6 4 10 2 22 -4 28 -8 8 -13 7 -18 -6z"/>
 <path d="M904 3676 c-4 -10 -2 -22 4 -28 8 -8 13 -7 18 6 4 10 2 22 -4 28 -8 8 -13 7 -18 -6z"/>
 <path d="M2245 3631 c-7 -12 12 -24 25 -16 11 7 4 25 -10 25 -5 0 -11 -4 -15 -9z"/>
 <path d="M2365 3631 c-7 -12 12 -24 25 -16 11 7 4 25 -10 25 -5 0 -11 -4 -15 -9z"/>
 <path d="M165 3620 c-4 -6 -3 -16 3 -22 6 -6 12 -6 17 2 4 6 3 16 -3 22 -6 6 -12 6 -17 -2z"/>
 <path d="M2435 3621 c-7 -12 12 -24 25 -16 11 7 4 25 -10 25 -5 0 -11 -4 -15 -9z"/>
 <path d="M544 3598 c-6 -9 -4 -10 26 -11 11 -1 19 3 18 8 -4 12 -37 14 -44 3z"/>
 <path d="M2536 3601 c-4 -5 -2 -12 4 -16 5 -3 10 -3 10 1 0 3 6 1 14 -5 10 -8 16 -9 21 -1 3 5 4 11 1 11 -3 1 -9 2 -13 3 -5 1 -13 5 -20 9 -6 4 -14 3 -17 -2z"/>
 <path d="M2121 3576 c-7 -8 -8 -17 -3 -20 6 -3 15 1 21 8 7 8 8 17 3 20 -6 3 -15 -1 -21 -8z"/>
 <path d="M914 3566 c-4 -10 -2 -22 4 -28 8 -8 13 -7 18 6 4 10 2 22 -4 28 -8 8 -13 7 -18 -6z"/>
 <path d="M2615 3571 c-3 -6 3 -15 14 -21 12 -6 22 -6 26 -1 3 6 -3 15 -14 21 -12 6 -22 6 -26 1z"/>
 <path d="M155 3550 c-4 -6 -3 -16 3 -22 6 -6 12 -6 17 2 4 6 3 16 -3 22 -6 6 -12 6 -17 -2z"/>
 <path d="M2695 3531 c-3 -6 3 -15 14 -21 12 -6 22 -6 26 -1 3 6 -3 15 -14 21 -12 6 -22 6 -26 1z"/>
 <path d="M1015 3500 c-4 -6 -3 -16 3 -22 6 -6 12 -6 17 2 4 6 3 16 -3 22 -6 6 -12 6 -17 -2z"/>
 <path d="M145 3480 c-4 -6 -3 -16 3 -22 6 -6 12 -6 17 2 4 6 3 16 -3 22 -6 6 -12 6 -17 -2z"/>
 <path d="M925 3460 c-4 -6 -3 -16 3 -22 6 -6 12 -6 17 2 4 6 3 16 -3 22 -6 6 -12 6 -17 -2z"/>
 <path d="M1994 3456 c-10 -25 0 -59 18 -62 21 -3 33 12 18 21 -5 3 -10 15 -10 25 0 24 -18 36 -26 16z"/>
 <path d="M3195 3461 c-7 -12 12 -24 25 -16 11 7 4 25 -10 25 -5 0 -11 -4 -15 -9z"/>
 <path d="M3325 3461 c-7 -12 12 -24 25 -16 11 7 4 25 -10 25 -5 0 -11 -4 -15 -9z"/>
 <path d="M3155 3450 c-4 -6 -10 -8 -15 -5 -5 3 -11 1 -14 -4 -4 -5 -2 -12 3 -15 5 -4 12 -2 16 4 4 6 10 8 15 5 5 -3 11 -1 14 4 4 5 2 12 -3 15 -5 4 -12 2 -16 -4z"/>
 <path d="M3496 3431 c-4 -5 -2 -12 4 -16 5 -3 10 -3 10 1 0 3 6 1 14 -5 10 -8 16 -9 21 -1 3 5 4 11 1 11 -3 1 -9 2 -13 3 -5 1 -13 5 -20 9 -6 4 -14 3 -17 -2z"/>
 <path d="M2836 3422 c-3 -6 1 -15 8 -21 8 -7 17 -8 20 -3 3 6 -1 15 -8 21 -8 7 -17 8 -20 3z"/>
 <path d="M135 3410 c-4 -6 -3 -16 3 -22 6 -6 12 -6 17 2 4 6 3 16 -3 22 -6 6 -12 6 -17 -2z"/>
 <path d="M3575 3400 c-3 -5 17 -21 44 -35 29 -14 52 -21 56 -15 3 5 -17 21 -44 35 -29 14 -52 21 -56 15z"/>
 <path d="M2867 3384 c-9 -10 22 -66 33 -59 6 4 4 18 -5 36 -17 31 -18 32 -28 23z"/>
 <path d="M3050 3371 c-6 -12 -6 -22 -1 -26 6 -3 15 3 21 14 6 12 6 22 1 26 -6 3 -15 -3 -21 -14z"/>
 <path d="M934 3356 c-4 -10 -2 -22 4 -28 8 -8 13 -7 18 6 4 10 2 22 -4 28 -8 8 -13 7 -18 -6z"/>
 <path d="M1395 3358 c-9 -24 -1 -103 10 -103 14 0 19 95 6 108 -7 7 -12 5 -16 -5z"/>
 <path d="M125 3340 c-4 -6 -3 -16 3 -22 6 -6 12 -6 17 2 4 6 3 16 -3 22 -6 6 -12 6 -17 -2z"/>
 <path d="M4035 3301 c-7 -12 12 -24 25 -16 11 7 4 25 -10 25 -5 0 -11 -4 -15 -9z"/>
 <path d="M2906 3291 c-4 -5 -2 -12 4 -16 6 -4 8 -10 5 -15 -3 -5 -1 -11 4 -14 5 -4 12 -2 15 3 4 5 2 12 -4 16 -6 4 -8 10 -5 15 3 5 1 11 -4 14 -5 4 -12 2 -15 -3z"/>
 <path d="M3756 3292 c-3 -5 5 -19 18 -31 13 -13 26 -18 30 -13 3 5 -5 19 -18 31 -13 13 -26 18 -30 13z"/>
 <path d="M4105 3291 c-7 -12 12 -24 25 -16 11 7 4 25 -10 25 -5 0 -11 -4 -15 -9z"/>
 <path d="M945 3250 c-4 -6 -3 -16 3 -22 6 -6 12 -6 17 2 4 6 3 16 -3 22 -6 6 -12 6 -17 -2z"/>
 <path d="M4345 3218 c-9 -22 -2 -68 10 -71 14 -3 19 63 6 76 -7 7 -12 5 -16 -5z"/>
 <path d="M2300 3201 c-6 -12 -6 -22 -1 -26 6 -3 15 3 21 14 6 12 6 22 1 26 -6 3 -15 -3 -21 -14z"/>
 <path d="M105 3190 c-4 -6 -3 -16 3 -22 6 -6 12 -6 17 2 4 6 3 16 -3 22 -6 6 -12 6 -17 -2z"/>
 <path d="M2946 3181 c-11 -12 -13 -21 -7 -25 6 -4 8 -13 5 -20 -7 -17 12 -30 21 -15 4 6 2 16 -4 22 -8 8 -6 15 5 28 8 9 11 20 6 23 -5 3 -17 -3 -26 -13z"/>
 <path d="M955 3150 c-4 -6 -3 -16 3 -22 6 -6 12 -6 17 2 4 6 3 16 -3 22 -6 6 -12 6 -17 -2z"/>
 <path d="M2285 3140 c-4 -6 -3 -16 3 -22 6 -6 12 -6 17 2 4 6 3 16 -3 22 -6 6 -12 6 -17 -2z"/>
 <path d="M3857 3144 c-4 -4 -3 -12 1 -18 4 -6 7 -14 8 -18 1 -5 3 -10 4 -13 1 -3 3 -9 4 -15 0 -5 4 -10 9 -10 4 0 10 0 13 0 4 0 1 7 -6 15 -7 8 -9 15 -5 15 4 0 1 7 -6 17 -8 9 -12 18 -11 20 6 8 -4 13 -11 7z"/>
 <path d="M435 3120 c-4 -6 -3 -16 3 -22 6 -6 12 -6 17 2 4 6 3 16 -3 22 -6 6 -12 6 -17 -2z"/>
 <path d="M1585 3121 c-7 -12 12 -24 25 -16 11 7 4 25 -10 25 -5 0 -11 -4 -15 -9z"/>
 <path d="M2275 3060 c-4 -6 -3 -16 3 -22 6 -6 12 -6 17 2 4 6 3 16 -3 22 -6 6 -12 6 -17 -2z"/>
 <path d="M965 3050 c-4 -6 -3 -16 3 -22 6 -6 12 -6 17 2 4 6 3 16 -3 22 -6 6 -12 6 -17 -2z"/>
 <path d="M645 3000 c-4 -6 -3 -16 3 -22 6 -6 12 -6 17 2 4 6 3 16 -3 22 -6 6 -12 6 -17 -2z"/>
 <path d="M3895 2990 c-8 -13 13 -52 25 -45 9 6 2 43 -11 50 -4 3 -10 1 -14 -5z"/>
 <path d="M599 2976 c-1 -3 -2 -9 -3 -13 -1 -5 -5 -13 -9 -20 -4 -6 -3 -14 3 -18 5 -3 11 -4 11 -1 1 3 2 9 3 14 1 4 5 12 9 19 4 6 3 14 -3 18 -5 3 -11 4 -11 1z"/>
 <path d="M975 2950 c-4 -6 -3 -16 3 -22 6 -6 12 -6 17 2 4 6 3 16 -3 22 -6 6 -12 6 -17 -2z"/>
 <path d="M2625 2950 c-4 -6 -3 -16 3 -22 6 -6 12 -6 17 2 4 6 3 16 -3 22 -6 6 -12 6 -17 -2z"/>
 <path d="M425 2939 c-10 -26 -1 -289 10 -292 14 -3 19 283 6 296 -7 7 -12 5 -16 -4z"/>
 <path d="M2264 2936 c-8 -21 3 -49 16 -41 5 3 10 15 10 25 0 25 -18 36 -26 16z"/>
 <path d="M75 2920 c-4 -6 -3 -16 3 -22 6 -6 12 -6 17 2 4 6 3 16 -3 22 -6 6 -12 6 -17 -2z"/>
 <path d="M550 2911 c-11 -21 3 -40 15 -21 4 6 10 8 15 5 5 -3 11 -1 15 4 3 6 -3 15 -14 21 -16 8 -22 7 -31 -9z"/>
 <path d="M3235 2920 c-4 -6 -3 -16 3 -22 6 -6 12 -6 17 2 4 6 3 16 -3 22 -6 6 -12 6 -17 -2z"/>
 <path d="M505 2850 c-4 -6 -3 -16 3 -22 6 -6 12 -6 17 2 4 6 3 16 -3 22 -6 6 -12 6 -17 -2z"/>
 <path d="M984 2846 c-4 -10 -2 -22 4 -28 8 -8 13 -7 18 6 4 10 2 22 -4 28 -8 8 -13 7 -18 -6z"/>
 <path d="M3224 2816 c-4 -10 -2 -22 4 -28 8 -8 13 -7 18 6 4 10 2 22 -4 28 -8 8 -13 7 -18 -6z"/>
 <path d="M1374 2728 c-8 -13 6 -29 19 -21 7 4 17 8 22 8 6 0 12 5 15 10 6 12 -49 15 -56 3z"/>
 <path d="M1455 2721 c-7 -12 12 -24 25 -16 11 7 4 25 -10 25 -5 0 -11 -4 -15 -9z"/>
 <path d="M2264 2706 c-4 -10 -2 -22 4 -28 8 -8 13 -7 18 6 4 10 2 22 -4 28 -8 8 -13 7 -18 -6z"/>
 <path d="M3585 2700 c-4 -6 -3 -16 3 -22 6 -6 12 -6 17 2 4 6 3 16 -3 22 -6 6 -12 6 -17 -2z"/>
 <path d="M55 2670 c-4 -6 -3 -16 3 -22 6 -6 12 -6 17 2 4 6 3 16 -3 22 -6 6 -12 6 -17 -2z"/>
 <path d="M4385 2671 c-7 -12 12 -24 25 -16 11 7 4 25 -10 25 -5 0 -11 -4 -15 -9z"/>
 <path d="M1965 2630 c-4 -6 -3 -16 3 -22 6 -6 12 -6 17 2 4 6 3 16 -3 22 -6 6 -12 6 -17 -2z"/>
 <path d="M2275 2620 c-4 -6 -3 -16 3 -22 6 -6 12 -6 17 2 4 6 3 16 -3 22 -6 6 -12 6 -17 -2z"/>
 <path d="M1364 2606 c-8 -21 3 -49 16 -41 5 3 10 15 10 25 0 25 -18 36 -26 16z"/>
 <path d="M2287 2563 c-4 -3 -2 -12 4 -20 6 -7 9 -13 5 -13 -4 0 1 -14 9 -30 9 -17 20 -28 25 -25 6 4 3 19 -7 38 -9 18 -17 35 -18 39 0 11 -11 18 -18 11z"/>
 <path d="M2625 2540 c-4 -6 -3 -16 3 -22 6 -6 12 -6 17 2 4 6 3 16 -3 22 -6 6 -12 6 -17 -2z"/>
 <path d="M1585 2530 c-4 -6 -3 -16 3 -22 6 -6 12 -6 17 2 4 6 3 16 -3 22 -6 6 -12 6 -17 -2z"/>
 <path d="M3225 2500 c-4 -6 -3 -16 3 -22 6 -6 12 -6 17 2 4 6 3 16 -3 22 -6 6 -12 6 -17 -2z"/>
 <path d="M45 2460 c-4 -6 -3 -16 3 -22 6 -6 12 -6 17 2 4 6 3 16 -3 22 -6 6 -12 6 -17 -2z"/>
 <path d="M3585 2450 c-4 -6 -3 -16 3 -22 6 -6 12 -6 17 2 4 6 3 16 -3 22 -6 6 -12 6 -17 -2z"/>
 <path d="M1966 2437 c-19 -14 -20 -82 -1 -82 6 0 15 -4 22 -8 6 -4 14 -3 18 3 8 13 -4 32 -16 25 -13 -9 -11 29 3 43 19 19 -4 35 -26 19z"/>
 <path d="M3235 2430 c-4 -6 -3 -16 3 -22 6 -6 12 -6 17 2 4 6 3 16 -3 22 -6 6 -12 6 -17 -2z"/>
 <path d="M391 2391 c-6 -10 -8 -21 -5 -24 9 -9 55 24 48 34 -9 15 -33 10 -43 -10z"/>
 <path d="M1354 2396 c-8 -21 3 -49 16 -41 5 3 10 15 10 25 0 25 -18 36 -26 16z"/>
 <path d="M46 2392 c-3 -5 1 -15 9 -22 8 -7 15 -9 15 -5 0 4 6 2 14 -4 9 -8 16 -8 20 -2 4 5 2 12 -4 16 -5 3 -10 3 -10 -1 0 -4 -9 1 -19 10 -11 10 -22 13 -25 8z"/>
 <path d="M475 2391 c-7 -13 17 -24 40 -19 9 1 16 8 16 13 0 14 -48 19 -56 6z"/>
 <path d="M230 2331 c-6 -12 -6 -22 -1 -26 6 -3 15 3 21 14 6 12 6 22 1 26 -6 3 -15 -3 -21 -14z"/>
 <path d="M4867 2344 c-9 -10 32 -86 43 -79 6 4 1 23 -10 46 -22 41 -23 43 -33 33z"/>
 <path d="M3575 2290 c-4 -6 -3 -16 3 -22 6 -6 12 -6 17 2 4 6 3 16 -3 22 -6 6 -12 6 -17 -2z"/>
 <path d="M2006 2281 c-4 -5 -2 -12 4 -16 6 -4 8 -10 5 -15 -3 -5 -1 -11 4 -14 5 -4 12 -2 15 3 4 5 2 12 -4 16 -6 4 -8 10 -5 15 3 5 1 11 -4 14 -5 4 -12 2 -15 -3z"/>
 <path d="M1344 2267 c-10 -27 4 -34 61 -33 60 1 73 21 14 21 -20 0 -43 6 -52 14 -14 11 -18 11 -23 -2z"/>
 <path d="M4396 2251 c-4 -5 -2 -12 4 -16 5 -3 10 -3 10 1 0 3 6 1 14 -5 10 -8 16 -9 21 -1 3 5 4 11 1 11 -3 1 -9 2 -13 3 -5 1 -13 5 -20 9 -6 4 -14 3 -17 -2z"/>
 <path d="M3355 2221 c-3 -6 3 -15 14 -21 12 -6 22 -6 26 -1 3 6 -3 15 -14 21 -12 6 -22 6 -26 1z"/>
 <path d="M1155 2181 c-7 -12 12 -24 25 -16 11 7 4 25 -10 25 -5 0 -11 -4 -15 -9z"/>
 <path d="M3425 2181 c-3 -6 3 -15 14 -21 12 -6 22 -6 26 -1 3 6 -3 15 -14 21 -12 6 -22 6 -26 1z"/>
 <path d="M3535 2176 c-11 -8 -14 -16 -8 -19 6 -4 18 0 28 7 11 8 14 16 8 19 -6 4 -18 0 -28 -7z"/>
 <path d="M1945 2167 c-9 -22 -2 -62 10 -60 6 1 11 14 13 29 4 32 -14 56 -23 31z"/>
 <path d="M2910 2161 c-6 -12 -6 -22 -1 -26 6 -3 15 3 21 14 6 12 6 22 1 26 -6 3 -15 -3 -21 -14z"/>
 <path d="M2086 2122 c-3 -6 1 -15 8 -21 8 -7 17 -8 20 -3 3 6 -1 15 -8 21 -8 7 -17 8 -20 3z"/>
 <path d="M1091 2076 c-7 -8 -8 -17 -3 -20 6 -3 15 1 21 8 7 8 8 17 3 20 -6 3 -15 -1 -21 -8z"/>
 <path d="M3902 2068 c-9 -9 -8 -15 1 -27 9 -11 9 -13 0 -8 -7 5 -16 -1 -23 -12 -17 -32 5 -33 28 -1 12 16 22 34 22 39 0 16 -16 21 -28 9z"/>
 <path d="M4564 2064 c-5 -19 -43 -46 -66 -48 -5 -1 -8 -4 -8 -8 0 -5 0 -11 0 -14 0 -4 7 -1 15 6 8 7 15 10 15 6 0 -4 13 0 29 8 33 17 47 44 31 60 -8 8 -12 4 -16 -10z"/>
 <path d="M2151 2036 c-13 -13 -18 -26 -13 -30 5 -3 19 5 31 18 13 13 18 26 13 30 -5 3 -19 -5 -31 -18z"/>
 <path d="M4935 2000 c-4 -6 -3 -16 3 -22 6 -6 12 -6 17 2 4 6 3 16 -3 22 -6 6 -12 6 -17 -2z"/>
 <path d="M405 1946 c-14 -10 -15 -15 -6 -21 8 -4 19 -1 28 8 20 19 1 30 -22 13z"/>
 <path d="M606 1942 c-3 -5 3 -17 13 -26 11 -10 22 -13 25 -8 3 5 -3 17 -13 26 -11 10 -22 13 -25 8z"/>
 <path d="M2796 1932 c-3 -6 1 -15 8 -21 8 -7 17 -8 20 -3 3 6 -1 15 -8 21 -8 7 -17 8 -20 3z"/>
 <path d="M175 1891 c-7 -12 12 -24 25 -16 11 7 4 25 -10 25 -5 0 -11 -4 -15 -9z"/>
 <path d="M4900 1881 c-6 -12 -6 -22 -1 -26 6 -3 15 3 21 14 6 12 6 22 1 26 -6 3 -15 -3 -21 -14z"/>
 <path d="M305 1871 c-7 -12 12 -24 25 -16 11 7 4 25 -10 25 -5 0 -11 -4 -15 -9z"/>
 <path d="M3771 1856 c-13 -13 -18 -26 -13 -30 5 -3 19 5 31 18 13 13 18 26 13 30 -5 3 -19 -5 -31 -18z"/>
 <path d="M2887 1834 c-9 -10 22 -66 33 -59 6 4 4 18 -5 36 -17 31 -18 32 -28 23z"/>
 <path d="M3701 1806 c-7 -8 -8 -17 -3 -20 6 -3 15 1 21 8 7 8 8 17 3 20 -6 3 -15 -1 -21 -8z"/>
 <path d="M625 1776 c-11 -8 -14 -16 -8 -19 6 -4 18 0 28 7 11 8 14 16 8 19 -6 4 -18 0 -28 -7z"/>
 <path d="M385 1750 c-3 -5 0 -13 8 -16 23 -8 92 0 92 11 0 14 -92 19 -100 5z"/>
 <path d="M2926 1741 c-4 -5 -2 -12 4 -16 6 -4 8 -10 5 -15 -3 -5 -1 -11 4 -14 5 -4 12 -2 15 3 4 5 2 12 -4 16 -6 4 -8 10 -5 15 3 5 1 11 -4 14 -5 4 -12 2 -15 -3z"/>
 <path d="M3776 1742 c-3 -5 8 -21 23 -36 16 -15 31 -23 35 -18 3 5 -8 21 -23 36 -16 15 -31 23 -35 18z"/>
 <path d="M3000 1711 c-6 -12 -6 -22 -1 -26 6 -3 15 3 21 14 6 12 6 22 1 26 -6 3 -15 -3 -21 -14z"/>
 <path d="M1415 1680 c-4 -6 -3 -16 3 -22 6 -6 12 -6 17 2 4 6 3 16 -3 22 -6 6 -12 6 -17 -2z"/>
 <path d="M2966 1631 c-11 -12 -13 -21 -7 -25 6 -4 8 -13 5 -20 -7 -17 12 -30 21 -15 4 6 2 16 -4 22 -8 8 -6 15 5 28 8 9 11 20 6 23 -5 3 -17 -3 -26 -13z"/>
 <path d="M1021 1617 c-9 -11 -8 -17 4 -27 12 -10 16 -9 21 5 9 23 -10 40 -25 22z"/>
 <path d="M4555 1601 c-7 -12 12 -24 25 -16 11 7 4 25 -10 25 -5 0 -11 -4 -15 -9z"/>
 <path d="M2305 1590 c-4 -6 -3 -16 3 -22 6 -6 12 -6 17 2 4 6 3 16 -3 22 -6 6 -12 6 -17 -2z"/>
 <path d="M3877 1594 c-4 -4 -3 -12 1 -18 4 -6 7 -14 8 -18 1 -5 3 -10 4 -13 1 -3 3 -9 4 -15 0 -5 4 -10 9 -10 4 0 10 0 13 0 4 0 1 7 -6 15 -7 8 -9 15 -5 15 4 0 1 7 -6 17 -8 9 -12 18 -11 20 6 8 -4 13 -11 7z"/>
 <path d="M941 1506 c-7 -8 -8 -17 -3 -20 6 -3 15 1 21 8 7 8 8 17 3 20 -6 3 -15 -1 -21 -8z"/>
 <path d="M2295 1510 c-4 -6 -3 -16 3 -22 6 -6 12 -6 17 2 4 6 3 16 -3 22 -6 6 -12 6 -17 -2z"/>
 <path d="M80 1491 c-6 -12 -6 -22 -1 -26 6 -3 15 3 21 14 6 12 6 22 1 26 -6 3 -15 -3 -21 -14z"/>
 <path d="M1715 1451 c-7 -12 12 -24 25 -16 11 7 4 25 -10 25 -5 0 -11 -4 -15 -9z"/>
 <path d="M3915 1441 c-4 -8 -1 -19 8 -28 19 -20 30 -1 13 22 -10 14 -15 15 -21 6z"/>
 <path d="M787 1384 c-38 -20 -24 -38 14 -19 16 9 27 20 24 25 -7 12 -4 13 -38 -6z"/>
 <path d="M2284 1386 c-4 -10 -2 -22 4 -28 8 -8 13 -7 18 6 4 10 2 22 -4 28 -8 8 -13 7 -18 -6z"/>
 <path d="M45 1370 c-4 -6 -3 -16 3 -22 6 -6 12 -6 17 2 4 6 3 16 -3 22 -6 6 -12 6 -17 -2z"/>
 <path d="M3255 1370 c-4 -6 -3 -16 3 -22 6 -6 12 -6 17 2 4 6 3 16 -3 22 -6 6 -12 6 -17 -2z"/>
 <path d="M1985 1330 c-4 -6 -3 -16 3 -22 6 -6 12 -6 17 2 4 6 3 16 -3 22 -6 6 -12 6 -17 -2z"/>
 <path d="M735 1290 c-4 -6 -3 -16 3 -22 6 -6 12 -6 17 2 4 6 3 16 -3 22 -6 6 -12 6 -17 -2z"/>
 <path d="M466 1281 c-4 -5 -2 -12 4 -16 6 -4 8 -10 5 -15 -3 -5 -1 -11 4 -14 5 -4 12 -2 15 3 4 5 2 12 -4 16 -6 4 -8 10 -5 15 3 5 1 11 -4 14 -5 4 -12 2 -15 -3z"/>
 <path d="M915 1281 c-7 -12 12 -24 25 -16 11 7 4 25 -10 25 -5 0 -11 -4 -15 -9z"/>
 <path d="M3244 1266 c-4 -10 -2 -22 4 -28 8 -8 13 -7 18 6 4 10 2 22 -4 28 -8 8 -13 7 -18 -6z"/>
 <path d="M730 1231 c-6 -12 -6 -22 -1 -26 6 -3 15 3 21 14 6 12 6 22 1 26 -6 3 -15 -3 -21 -14z"/>
 <path d="M1825 1231 c-7 -12 12 -24 25 -16 11 7 4 25 -10 25 -5 0 -11 -4 -15 -9z"/>
 <path d="M685 1210 c-4 -6 -3 -16 3 -22 6 -6 12 -6 17 2 4 6 3 16 -3 22 -6 6 -12 6 -17 -2z"/>
 <path d="M2284 1156 c-4 -10 -2 -22 4 -28 8 -8 13 -7 18 6 4 10 2 22 -4 28 -8 8 -13 7 -18 -6z"/>
 <path d="M3605 1150 c-4 -6 -3 -16 3 -22 6 -6 12 -6 17 2 4 6 3 16 -3 22 -6 6 -12 6 -17 -2z"/>
 <path d="M4405 1121 c-7 -12 12 -24 25 -16 11 7 4 25 -10 25 -5 0 -11 -4 -15 -9z"/>
 <path d="M1415 1110 c-4 -6 -3 -16 3 -22 6 -6 12 -6 17 2 4 6 3 16 -3 22 -6 6 -12 6 -17 -2z"/>
 <path d="M4506 1101 c-4 -5 -2 -12 4 -16 5 -3 10 -3 10 1 0 3 6 1 14 -5 10 -8 16 -9 21 -1 3 5 4 11 1 11 -3 1 -9 2 -13 3 -5 1 -13 5 -20 9 -6 4 -14 3 -17 -2z"/>
 <path d="M2295 1070 c-4 -6 -3 -16 3 -22 6 -6 12 -6 17 2 4 6 3 16 -3 22 -6 6 -12 6 -17 -2z"/>
 <path d="M1635 1030 c-4 -6 -3 -16 3 -22 6 -6 12 -6 17 2 4 6 3 16 -3 22 -6 6 -12 6 -17 -2z"/>
 <path d="M2307 1013 c-4 -3 -2 -12 4 -20 6 -7 9 -13 5 -13 -4 0 1 -14 9 -30 9 -17 20 -28 25 -25 6 4 3 19 -7 38 -9 18 -17 35 -18 39 0 11 -11 18 -18 11z"/>
 <path d="M1465 1001 c-3 -6 4 -15 15 -21 11 -6 20 -8 20 -4 0 3 7 1 15 -6 8 -7 15 -9 15 -5 0 4 6 2 14 -4 10 -8 16 -9 21 -1 3 5 4 11 1 11 -16 4 -26 7 -31 9 -3 1 -8 3 -12 4 -5 1 -18 7 -30 14 -13 7 -24 8 -28 3z"/>
 <path d="M2645 990 c-4 -6 -3 -16 3 -22 6 -6 12 -6 17 2 4 6 3 16 -3 22 -6 6 -12 6 -17 -2z"/>
 <path d="M3245 950 c-4 -6 -3 -16 3 -22 6 -6 12 -6 17 2 4 6 3 16 -3 22 -6 6 -12 6 -17 -2z"/>
 <path d="M1021 926 c-10 -12 -8 -17 8 -26 12 -6 20 -14 20 -18 -1 -4 0 -10 1 -14 1 -5 3 -12 4 -18 0 -5 4 -10 9 -10 7 0 8 4 6 15 -1 3 -3 10 -4 15 -1 6 -3 11 -5 13 -1 1 -3 10 -5 21 -6 29 -20 39 -34 22z"/>
 <path d="M3605 910 c-4 -6 -3 -16 3 -22 6 -6 12 -6 17 2 4 6 3 16 -3 22 -6 6 -12 6 -17 -2z"/>
 <path d="M3255 880 c-4 -6 -3 -16 3 -22 6 -6 12 -6 17 2 4 6 3 16 -3 22 -6 6 -12 6 -17 -2z"/>
 <path d="M4836 862 c-3 -6 1 -15 8 -21 8 -7 17 -8 20 -3 3 6 -1 15 -8 21 -8 7 -17 8 -20 3z"/>
 <path d="M2435 831 c-3 -6 3 -15 14 -21 12 -6 22 -6 26 -1 3 6 -3 15 -14 21 -12 6 -22 6 -26 1z"/>
 <path d="M345 810 c-3 -5 8 -16 24 -25 18 -9 32 -11 36 -5 3 5 -8 16 -24 25 -18 9 -32 11 -36 5z"/>
 <path d="M2595 796 c-11 -8 -14 -16 -8 -19 6 -4 18 0 28 7 11 8 14 16 8 19 -6 4 -18 0 -28 -7z"/>
 <path d="M4887 793 c-4 -6 0 -18 7 -28 8 -11 16 -14 19 -8 4 6 0 18 -7 28 -8 11 -16 14 -19 8z"/>
 <path d="M436 771 c-4 -5 -2 -12 4 -16 5 -3 10 -3 10 1 0 3 6 1 14 -5 10 -8 16 -9 21 -1 3 5 4 11 1 11 -3 1 -9 2 -13 3 -5 1 -13 5 -20 9 -6 4 -14 3 -17 -2z"/>
 <path d="M555 741 c-7 -12 12 -24 25 -16 11 7 4 25 -10 25 -5 0 -11 -4 -15 -9z"/>
 <path d="M765 741 c-7 -12 12 -24 25 -16 11 7 4 25 -10 25 -5 0 -11 -4 -15 -9z"/>
 <path d="M3595 740 c-4 -6 -3 -16 3 -22 6 -6 12 -6 17 2 4 6 3 16 -3 22 -6 6 -12 6 -17 -2z"/>
 <path d="M2026 731 c-4 -5 -2 -12 4 -16 6 -4 8 -10 5 -15 -3 -5 -1 -11 4 -14 5 -4 12 -2 15 3 4 5 2 12 -4 16 -6 4 -8 10 -5 15 3 5 1 11 -4 14 -5 4 -12 2 -15 -3z"/>
 <path d="M4335 721 c-7 -12 12 -24 25 -16 11 7 4 25 -10 25 -5 0 -11 -4 -15 -9z"/>
 <path d="M4416 701 c-4 -5 -2 -12 4 -16 5 -3 10 -3 10 1 0 3 6 1 14 -5 10 -8 16 -9 21 -1 3 5 4 11 1 11 -3 1 -9 2 -13 3 -5 1 -13 5 -20 9 -6 4 -14 3 -17 -2z"/>
 <path d="M1911 676 c-7 -8 -8 -17 -3 -20 6 -3 15 1 21 8 7 8 8 17 3 20 -6 3 -15 -1 -21 -8z"/>
 <path d="M1186 642 c-3 -6 1 -15 8 -21 8 -7 17 -8 20 -3 3 6 -1 15 -8 21 -8 7 -17 8 -20 3z"/>
 <path d="M1861 626 c-7 -8 -8 -17 -3 -20 6 -3 15 1 21 8 7 8 8 17 3 20 -6 3 -15 -1 -21 -8z"/>
 <path d="M2930 611 c-6 -12 -6 -22 -1 -26 6 -3 15 3 21 14 6 12 6 22 1 26 -6 3 -15 -3 -21 -14z"/>
 <path d="M2106 572 c-3 -5 8 -21 23 -36 16 -15 31 -23 35 -18 3 5 -8 21 -23 36 -16 15 -31 23 -35 18z"/>
 <path d="M1747 554 c-38 -20 -24 -38 14 -19 16 9 27 20 24 25 -7 12 -4 13 -38 -6z"/>
 <path d="M1645 521 c-7 -12 12 -24 25 -16 11 7 4 25 -10 25 -5 0 -11 -4 -15 -9z"/>
 <path d="M3921 517 c-9 -11 -8 -17 4 -27 12 -10 16 -9 21 5 9 23 -10 40 -25 22z"/>
 <path d="M4557 484 c-38 -20 -24 -38 14 -19 16 9 27 20 24 25 -7 12 -4 13 -38 -6z"/>
 <path d="M4316 481 c-4 -5 -2 -12 4 -16 5 -3 10 -3 10 1 0 3 6 1 14 -5 10 -8 16 -9 21 -1 3 5 4 11 1 11 -3 1 -9 2 -13 3 -5 1 -13 5 -20 9 -6 4 -14 3 -17 -2z"/>
 <path d="M2265 461 c-3 -6 3 -15 14 -21 12 -6 22 -6 26 -1 3 6 -3 15 -14 21 -12 6 -22 6 -26 1z"/>
 <path d="M3885 441 c-9 -18 -11 -32 -5 -36 5 -3 16 8 25 24 9 18 11 32 5 36 -5 3 -16 -8 -25 -24z"/>
 <path d="M2665 401 c-7 -12 12 -24 25 -16 11 7 4 25 -10 25 -5 0 -11 -4 -15 -9z"/>
 <path d="M4949 406 c-1 -3 -2 -9 -3 -13 -1 -5 -5 -13 -9 -20 -4 -6 -3 -14 3 -18 5 -3 11 -4 11 -1 1 3 2 9 3 14 1 4 5 12 9 19 4 6 3 14 -3 18 -5 3 -11 4 -11 1z"/>
 <path d="M3791 306 c-13 -13 -18 -26 -13 -30 5 -3 19 5 31 18 13 13 18 26 13 30 -5 3 -19 -5 -31 -18z"/>
 <path d="M3735 266 c-11 -8 -14 -16 -8 -19 6 -4 18 0 28 7 11 8 14 16 8 19 -6 4 -18 0 -28 -7z"/>
 <path d="M4655 70 c-4 -6 -10 -8 -15 -5 -5 3 -11 1 -14 -4 -4 -5 -2 -12 3 -15 5 -4 12 -2 16 4 4 6 10 8 15 5 5 -3 11 -1 14 4 4 5 2 12 -3 15 -5 4 -12 2 -16 -4z"/>
 <path d="M4225 61 c-7 -12 12 -24 25 -16 11 7 4 25 -10 25 -5 0 -11 -4 -15 -9z"/>
 <path d="M4295 51 c-7 -12 12 -24 25 -16 11 7 4 25 -10 25 -5 0 -11 -4 -15 -9z"/>
 </g>
<g id="layer104" fill="#bdca34" stroke="none">
 <path d="M269 3966 c-1 -3 -2 -9 -3 -13 -1 -5 -5 -14 -9 -20 -5 -7 -5 -18 -2 -23 9 -14 28 -1 21 15 -2 7 0 17 6 23 6 6 6 12 -1 16 -6 4 -12 5 -12 2z"/>
 <path d="M345 3951 c-7 -12 12 -24 25 -16 11 7 4 25 -10 25 -5 0 -11 -4 -15 -9z"/>
 <path d="M396 3941 c-4 -5 -2 -12 4 -16 5 -3 10 -3 10 1 0 3 6 1 14 -5 10 -8 16 -9 21 -1 3 5 4 11 1 11 -3 1 -9 2 -13 3 -5 1 -13 5 -20 9 -6 4 -14 3 -17 -2z"/>
 <path d="M465 3900 c-4 -6 -1 -18 7 -27 7 -9 12 -18 11 -20 -2 -1 -1 -3 2 -3 3 0 8 0 12 0 4 0 2 5 -4 11 -6 6 -9 17 -7 24 7 16 -12 29 -21 15z"/>
 <path d="M690 3860 c-6 -11 -8 -20 -4 -20 3 0 1 -6 -5 -14 -8 -10 -9 -16 -1 -21 5 -3 11 -4 11 -1 1 3 2 9 3 14 1 4 7 17 14 29 7 13 8 24 3 28 -6 3 -15 -4 -21 -15z"/>
 <path d="M785 3871 c-7 -12 12 -24 25 -16 11 7 4 25 -10 25 -5 0 -11 -4 -15 -9z"/>
 <path d="M1115 3811 c-7 -12 12 -24 25 -16 11 7 4 25 -10 25 -5 0 -11 -4 -15 -9z"/>
 <path d="M1185 3801 c-7 -12 12 -24 25 -16 11 7 4 25 -10 25 -5 0 -11 -4 -15 -9z"/>
 <path d="M1265 3790 c-8 -12 20 -24 35 -15 6 3 8 11 5 16 -8 12 -32 12 -40 -1z"/>
 <path d="M1325 3781 c-7 -12 12 -24 25 -16 11 7 4 25 -10 25 -5 0 -11 -4 -15 -9z"/>
 <path d="M894 3736 c-4 -10 -2 -22 4 -28 8 -8 13 -7 18 6 4 10 2 22 -4 28 -8 8 -13 7 -18 -6z"/>
 <path d="M1385 3740 c-4 -6 -3 -16 3 -22 6 -6 12 -6 17 2 4 6 3 16 -3 22 -6 6 -12 6 -17 -2z"/>
 <path d="M1775 3701 c-7 -12 12 -24 25 -16 11 7 4 25 -10 25 -5 0 -11 -4 -15 -9z"/>
 <path d="M1685 3690 c-4 -6 -3 -16 3 -22 6 -6 12 -6 17 2 4 6 3 16 -3 22 -6 6 -12 6 -17 -2z"/>
 <path d="M527 3654 c-4 -4 -3 -12 1 -18 4 -6 7 -14 8 -18 1 -5 3 -10 4 -13 1 -3 4 -9 5 -15 1 -5 4 -12 5 -15 1 -3 3 -9 4 -15 0 -5 4 -10 9 -10 7 0 8 4 6 15 -1 3 -3 10 -4 15 -1 6 -4 12 -5 15 -1 3 -4 10 -5 15 -1 6 -4 12 -5 15 -1 3 -3 9 -4 14 -2 14 -12 22 -19 15z"/>
 <path d="M904 3626 c-4 -10 -2 -22 4 -28 8 -8 13 -7 18 6 4 10 2 22 -4 28 -8 8 -13 7 -18 -6z"/>
 <path d="M2285 3631 c-7 -13 17 -24 40 -19 9 1 16 8 16 13 0 14 -48 19 -56 6z"/>
 <path d="M2216 3623 c-4 -5 -12 -8 -17 -8 -5 0 -9 -3 -9 -7 0 -8 3 -9 18 -7 4 1 12 2 17 3 13 1 19 20 8 23 -5 2 -13 0 -17 -4z"/>
 <path d="M2405 3621 c-7 -12 12 -24 25 -16 11 7 4 25 -10 25 -5 0 -11 -4 -15 -9z"/>
 <path d="M2515 3600 c-3 -5 -3 -11 2 -12 12 -2 27 -5 36 -8 4 -1 10 -3 15 -4 4 -1 21 -10 39 -19 19 -10 34 -13 38 -7 3 5 -8 16 -25 25 -16 8 -30 13 -30 9 0 -4 -7 -1 -15 6 -8 7 -15 9 -15 4 0 -4 -5 -3 -12 4 -15 15 -25 15 -33 2z"/>
 <path d="M1995 3588 c-9 -22 -2 -68 10 -71 14 -3 19 63 6 76 -7 7 -12 5 -16 -5z"/>
 <path d="M914 3516 c-4 -10 -2 -22 4 -28 8 -8 13 -7 18 6 4 10 2 22 -4 28 -8 8 -13 7 -18 -6z"/>
 <path d="M2705 3521 c-3 -6 3 -15 14 -21 12 -6 22 -6 26 -1 3 6 -3 15 -14 21 -12 6 -22 6 -26 1z"/>
 <path d="M2756 3492 c-3 -6 1 -15 8 -21 8 -7 17 -8 20 -3 3 6 -1 15 -8 21 -8 7 -17 8 -20 3z"/>
 <path d="M3235 3460 c-3 -5 0 -13 9 -16 21 -8 71 -1 71 11 0 14 -72 19 -80 5z"/>
 <path d="M2806 3452 c-3 -5 3 -17 13 -26 11 -10 22 -13 25 -8 3 5 -3 17 -13 26 -11 10 -22 13 -25 8z"/>
 <path d="M3162 3448 c-7 -7 -12 -9 -12 -5 0 4 -9 3 -20 -3 -11 -6 -18 -15 -15 -21 4 -5 15 -4 28 3 12 7 27 12 32 13 13 0 19 19 8 22 -5 2 -14 -2 -21 -9z"/>
 <path d="M3365 3451 c-7 -12 12 -24 25 -16 11 7 4 25 -10 25 -5 0 -11 -4 -15 -9z"/>
 <path d="M3475 3431 c-7 -12 12 -24 24 -16 5 3 12 1 16 -5 4 -6 11 -8 16 -4 5 3 7 10 3 15 -3 5 -9 7 -14 4 -5 -3 -11 -1 -15 5 -8 13 -22 13 -30 1z"/>
 <path d="M924 3406 c-4 -10 -2 -22 4 -28 8 -8 13 -7 18 6 4 10 2 22 -4 28 -8 8 -13 7 -18 -6z"/>
 <path d="M3081 3406 c-7 -8 -8 -17 -3 -20 6 -3 15 1 21 8 7 8 8 17 3 20 -6 3 -15 -1 -21 -8z"/>
 <path d="M3565 3400 c-3 -5 21 -23 54 -40 34 -17 63 -26 66 -20 3 5 -21 23 -54 40 -34 17 -63 26 -66 20z"/>
 <path d="M2857 3394 c-3 -4 6 -30 20 -58 15 -28 27 -54 28 -58 0 -5 3 -8 8 -8 4 0 10 0 13 0 4 0 1 7 -6 15 -7 8 -10 15 -6 15 3 0 -5 23 -19 50 -27 52 -28 54 -38 44z"/>
 <path d="M1984 3327 c-9 -24 1 -142 11 -140 14 4 19 139 6 148 -6 3 -14 0 -17 -8z"/>
 <path d="M934 3306 c-4 -10 -2 -22 4 -28 8 -8 13 -7 18 6 4 10 2 22 -4 28 -8 8 -13 7 -18 -6z"/>
 <path d="M3726 3312 c-3 -6 1 -15 8 -21 8 -7 17 -8 20 -3 3 6 -1 15 -8 21 -8 7 -17 8 -20 3z"/>
 <path d="M3976 3291 c-10 -11 -16 -30 -14 -45 4 -38 23 -32 23 7 0 25 4 33 17 33 20 -1 25 18 5 22 -7 1 -21 -6 -31 -17z"/>
 <path d="M4075 3291 c-7 -12 12 -24 25 -16 11 7 4 25 -10 25 -5 0 -11 -4 -15 -9z"/>
 <path d="M4135 3281 c-7 -12 12 -24 25 -16 11 7 4 25 -10 25 -5 0 -11 -4 -15 -9z"/>
 <path d="M4276 3251 c-4 -5 -2 -12 4 -16 5 -3 10 -3 10 1 0 3 7 1 15 -6 8 -7 15 -9 15 -5 0 4 6 2 14 -4 10 -8 16 -9 21 -1 3 5 4 11 1 11 -16 4 -26 7 -31 9 -3 1 -8 3 -12 4 -5 1 -13 5 -20 9 -6 4 -14 3 -17 -2z"/>
 <path d="M3806 3232 c-3 -6 1 -15 8 -21 8 -7 17 -8 20 -3 3 6 -1 15 -8 21 -8 7 -17 8 -20 3z"/>
 <path d="M944 3206 c-4 -10 -2 -22 4 -28 8 -8 13 -7 18 6 4 10 2 22 -4 28 -8 8 -13 7 -18 -6z"/>
 <path d="M1395 3181 c-4 -8 -1 -19 8 -28 19 -20 30 -1 13 22 -10 14 -15 15 -21 6z"/>
 <path d="M2285 3170 c-4 -6 -3 -16 3 -22 6 -6 12 -6 17 2 4 6 3 16 -3 22 -6 6 -12 6 -17 -2z"/>
 <path d="M2935 3150 c-4 -6 -3 -16 3 -22 6 -6 12 -6 17 2 4 6 3 16 -3 22 -6 6 -12 6 -17 -2z"/>
 <path d="M635 3140 c-4 -6 -4 -14 -1 -17 3 -3 1 -12 -5 -19 -6 -8 -6 -14 0 -18 5 -4 12 -2 16 4 3 5 3 10 -1 10 -3 0 -1 7 6 15 9 11 10 19 3 26 -8 8 -13 7 -18 -1z"/>
 <path d="M3856 3131 c-4 -5 -2 -12 4 -16 6 -4 8 -10 5 -15 -3 -5 -1 -11 4 -14 5 -4 12 -2 15 3 4 5 2 12 -4 16 -6 4 -8 10 -5 15 3 5 1 11 -4 14 -5 4 -12 2 -15 -3z"/>
 <path d="M1545 3121 c-7 -12 12 -24 25 -16 11 7 4 25 -10 25 -5 0 -11 -4 -15 -9z"/>
 <path d="M955 3100 c-4 -6 -3 -16 3 -22 6 -6 12 -6 17 2 4 6 3 16 -3 22 -6 6 -12 6 -17 -2z"/>
 <path d="M2275 3100 c-4 -6 -3 -16 3 -22 6 -6 12 -6 17 2 4 6 3 16 -3 22 -6 6 -12 6 -17 -2z"/>
 <path d="M1974 3066 c-4 -10 -2 -22 4 -28 8 -8 13 -7 18 6 4 10 2 22 -4 28 -8 8 -13 7 -18 -6z"/>
 <path d="M424 3057 c-7 -20 -2 -47 11 -50 14 -3 19 43 6 56 -7 7 -12 6 -17 -6z"/>
 <path d="M3250 3030 c-11 -21 -5 -44 9 -35 13 7 20 44 11 50 -5 3 -14 -4 -20 -15z"/>
 <path d="M4335 3029 c-10 -26 -1 -234 10 -232 13 4 19 223 6 236 -7 7 -12 5 -16 -4z"/>
 <path d="M609 3026 c-1 -3 -2 -9 -3 -13 -1 -5 -5 -13 -9 -20 -4 -6 -3 -14 3 -18 5 -3 11 -4 11 -1 1 3 2 9 3 14 1 4 5 12 9 19 4 6 3 14 -3 18 -5 3 -11 4 -11 1z"/>
 <path d="M3885 3020 c-4 -6 -3 -16 3 -22 6 -6 12 -6 17 2 4 6 3 16 -3 22 -6 6 -12 6 -17 -2z"/>
 <path d="M965 3000 c-4 -6 -3 -16 3 -22 6 -6 12 -6 17 2 4 6 3 16 -3 22 -6 6 -12 6 -17 -2z"/>
 <path d="M2264 2996 c-4 -10 -2 -22 4 -28 8 -8 13 -7 18 6 4 10 2 22 -4 28 -8 8 -13 7 -18 -6z"/>
 <path d="M3235 2960 c-4 -6 -3 -16 3 -22 6 -6 12 -6 17 2 4 6 3 16 -3 22 -6 6 -12 6 -17 -2z"/>
 <path d="M3895 2951 c-10 -17 15 -45 29 -31 7 7 5 15 -6 26 -11 11 -18 13 -23 5z"/>
 <path d="M555 2941 c-6 -11 1 -15 18 -12 4 1 3 -8 -3 -18 -6 -12 -6 -22 -1 -26 6 -3 15 3 20 13 8 15 6 23 -8 36 -13 11 -21 14 -26 7z"/>
 <path d="M975 2900 c-4 -6 -3 -16 3 -22 6 -6 12 -6 17 2 4 6 3 16 -3 22 -6 6 -12 6 -17 -2z"/>
 <path d="M3224 2866 c-4 -10 -2 -22 4 -28 8 -8 13 -7 18 6 4 10 2 22 -4 28 -8 8 -13 7 -18 -6z"/>
 <path d="M3905 2867 c-9 -22 -2 -62 10 -60 6 1 11 14 13 29 4 32 -14 56 -23 31z"/>
 <path d="M1965 2808 c-9 -24 -1 -128 10 -131 13 -3 19 123 6 136 -7 7 -12 5 -16 -5z"/>
 <path d="M984 2796 c-4 -10 -2 -22 4 -28 8 -8 13 -7 18 6 4 10 2 22 -4 28 -8 8 -13 7 -18 -6z"/>
 <path d="M3215 2748 c-9 -24 -1 -103 10 -103 14 0 19 95 6 108 -7 7 -12 5 -16 -5z"/>
 <path d="M994 2696 c-4 -10 -2 -22 4 -28 8 -8 13 -7 18 6 4 10 2 22 -4 28 -8 8 -13 7 -18 -6z"/>
 <path d="M1364 2676 c-8 -21 3 -49 16 -41 5 3 10 15 10 25 0 25 -18 36 -26 16z"/>
 <path d="M2265 2660 c-4 -6 -3 -16 3 -22 6 -6 12 -6 17 2 4 6 3 16 -3 22 -6 6 -12 6 -17 -2z"/>
 <path d="M4415 2661 c-7 -12 12 -24 25 -16 11 7 4 25 -10 25 -5 0 -11 -4 -15 -9z"/>
 <path d="M4466 2651 c-4 -5 -2 -12 4 -16 5 -3 10 -3 10 1 0 3 7 1 15 -6 8 -7 15 -9 15 -5 0 4 6 2 14 -4 10 -8 16 -9 21 -1 3 5 4 11 1 11 -16 4 -26 7 -31 9 -3 1 -8 3 -12 4 -5 1 -13 5 -20 9 -6 4 -14 3 -17 -2z"/>
 <path d="M4596 2601 c-6 -8 5 -20 31 -35 23 -13 22 12 -2 28 -13 9 -26 12 -29 7z"/>
 <path d="M2275 2590 c-4 -6 -1 -17 5 -25 7 -8 9 -15 5 -15 -4 0 -2 -7 5 -15 7 -8 10 -15 6 -15 -4 0 1 -14 9 -30 9 -17 20 -28 25 -25 6 4 3 19 -7 38 -9 18 -17 35 -18 39 0 3 -3 9 -7 13 -4 4 -4 13 -2 20 7 16 -12 29 -21 15z"/>
 <path d="M3214 2577 c-7 -20 -2 -47 11 -50 14 -3 19 43 6 56 -7 7 -12 6 -17 -6z"/>
 <path d="M1955 2558 c-9 -22 -2 -68 10 -71 14 -3 19 63 6 76 -7 7 -12 5 -16 -5z"/>
 <path d="M4706 2522 c-3 -5 3 -17 13 -26 11 -10 22 -13 25 -8 3 5 -3 17 -13 26 -11 10 -22 13 -25 8z"/>
 <path d="M1355 2507 c-9 -22 -2 -62 10 -60 6 1 11 14 13 29 4 32 -14 56 -23 31z"/>
 <path d="M415 2488 c-9 -22 -2 -68 10 -71 14 -3 19 63 6 76 -7 7 -12 5 -16 -5z"/>
 <path d="M4786 2442 c-3 -5 3 -17 13 -26 11 -10 22 -13 25 -8 3 5 -3 17 -13 26 -11 10 -22 13 -25 8z"/>
 <path d="M3237 2404 c-4 -4 -3 -12 1 -18 4 -6 7 -14 8 -18 1 -5 3 -10 4 -13 1 -3 3 -9 4 -15 0 -5 4 -10 9 -10 4 0 10 0 13 0 4 0 1 7 -6 15 -7 8 -9 15 -5 15 4 0 1 7 -6 17 -8 9 -12 18 -11 20 6 8 -4 13 -11 7z"/>
 <path d="M4826 2392 c-3 -6 1 -15 8 -21 8 -7 17 -8 20 -3 3 6 -1 15 -8 21 -8 7 -17 8 -20 3z"/>
 <path d="M415 2381 c-7 -12 12 -24 25 -16 11 7 4 25 -10 25 -5 0 -11 -4 -15 -9z"/>
 <path d="M565 2381 c-7 -12 12 -24 25 -16 11 7 4 25 -10 25 -5 0 -11 -4 -15 -9z"/>
 <path d="M2405 2380 c-3 -5 8 -16 24 -25 18 -9 32 -11 36 -5 3 5 -8 16 -24 25 -18 9 -32 11 -36 5z"/>
 <path d="M625 2371 c-7 -12 12 -24 25 -16 11 7 4 25 -10 25 -5 0 -11 -4 -15 -9z"/>
 <path d="M2584 2346 c-10 -8 -22 -14 -26 -15 -5 0 -8 -3 -8 -6 0 -4 6 -6 13 -4 1 0 10 2 21 4 24 5 41 21 29 28 -6 4 -18 0 -29 -7z"/>
 <path d="M4857 2354 c-3 -4 8 -34 25 -68 18 -33 32 -64 33 -68 0 -5 3 -8 8 -8 4 0 10 0 13 0 4 0 1 7 -6 15 -7 8 -10 15 -6 15 3 0 -7 27 -24 60 -32 62 -33 64 -43 54z"/>
 <path d="M2475 2341 c-3 -6 3 -15 14 -21 12 -6 22 -6 26 -1 3 6 -3 15 -14 21 -12 6 -22 6 -26 1z"/>
 <path d="M1344 2326 c-8 -21 3 -49 16 -41 5 3 10 15 10 25 0 25 -18 36 -26 16z"/>
 <path d="M975 2301 c-7 -12 12 -24 25 -16 11 7 4 25 -10 25 -5 0 -11 -4 -15 -9z"/>
 <path d="M1945 2298 c-9 -22 -2 -68 10 -71 14 -3 19 63 6 76 -7 7 -12 5 -16 -5z"/>
 <path d="M4275 2258 c-10 -24 -1 -178 10 -178 13 0 19 170 6 183 -7 7 -12 5 -16 -5z"/>
 <path d="M3316 2252 c-6 -10 27 -43 61 -61 13 -7 24 -7 28 -2 3 6 -5 15 -17 22 -13 6 -33 20 -44 31 -12 11 -24 15 -28 10z"/>
 <path d="M1475 2241 c-7 -12 12 -24 25 -16 11 7 4 25 -10 25 -5 0 -11 -4 -15 -9z"/>
 <path d="M131 2226 c-7 -8 -8 -17 -3 -20 6 -3 15 1 21 8 7 8 8 17 3 20 -6 3 -15 -1 -21 -8z"/>
 <path d="M2939 2236 c-1 -3 -2 -9 -3 -13 -1 -5 -12 -27 -24 -50 -13 -24 -18 -44 -12 -48 5 -3 18 12 30 35 11 22 18 40 14 40 -4 0 -1 6 5 14 8 10 9 16 1 21 -5 3 -11 4 -11 1z"/>
 <path d="M916 2221 c-7 -10 28 -43 37 -35 8 8 -11 44 -23 44 -5 0 -11 -4 -14 -9z"/>
 <path d="M1575 2221 c-7 -12 12 -24 25 -16 11 7 4 25 -10 25 -5 0 -11 -4 -15 -9z"/>
 <path d="M3415 2180 c-3 -5 8 -16 24 -25 18 -9 32 -11 36 -5 3 5 -8 16 -24 25 -18 9 -32 11 -36 5z"/>
 <path d="M4925 2180 c-4 -6 -3 -16 3 -22 6 -6 12 -6 17 2 4 6 3 16 -3 22 -6 6 -12 6 -17 -2z"/>
 <path d="M956 2172 c-3 -6 1 -15 8 -21 8 -7 17 -8 20 -3 3 6 -1 15 -8 21 -8 7 -17 8 -20 3z"/>
 <path d="M1151 2156 c-13 -13 -18 -26 -13 -30 5 -3 19 5 31 18 13 13 18 26 13 30 -5 3 -19 -5 -31 -18z"/>
 <path d="M3536 2171 c-4 -6 -13 -8 -20 -5 -17 7 -30 -12 -16 -21 6 -4 16 -2 23 3 7 6 15 11 20 11 8 1 11 11 4 17 -3 3 -8 1 -11 -5z"/>
 <path d="M1895 2121 c-7 -12 12 -24 25 -16 11 7 4 25 -10 25 -5 0 -11 -4 -15 -9z"/>
 <path d="M3905 2118 c-3 -8 -5 -19 -4 -24 1 -5 0 -12 -1 -16 -1 -5 -3 -11 -4 -15 -1 -5 -7 -18 -14 -30 -7 -13 -8 -24 -3 -28 6 -3 15 4 21 15 6 11 8 20 4 20 -3 0 -2 6 4 13 6 6 10 14 11 17 0 3 3 13 7 23 4 10 2 23 -4 29 -8 8 -13 7 -17 -4z"/>
 <path d="M4934 2116 c-4 -10 -2 -22 4 -28 8 -8 13 -7 18 6 4 10 2 22 -4 28 -8 8 -13 7 -18 -6z"/>
 <path d="M996 2112 c-2 -4 6 -29 18 -55 13 -26 21 -47 19 -47 -2 0 1 -9 7 -20 6 -11 15 -18 21 -15 5 4 4 15 -3 28 -7 12 -13 30 -15 40 -3 20 -31 77 -38 77 -2 0 -6 -3 -9 -8z"/>
 <path d="M1110 2101 c-6 -12 -6 -22 -1 -26 6 -3 15 3 21 14 6 12 6 22 1 26 -6 3 -15 -3 -21 -14z"/>
 <path d="M4934 2036 c-4 -10 -2 -22 4 -28 8 -8 13 -7 18 6 4 10 2 22 -4 28 -8 8 -13 7 -18 -6z"/>
 <path d="M4285 2031 c-3 -6 3 -15 14 -21 12 -6 22 -6 26 -1 3 6 -3 15 -14 21 -12 6 -22 6 -26 1z"/>
 <path d="M4534 2026 c-10 -8 -22 -14 -26 -15 -5 0 -8 -3 -8 -6 0 -4 6 -6 13 -4 1 0 10 2 21 4 24 5 41 21 29 28 -6 4 -18 0 -29 -7z"/>
 <path d="M1906 2022 c-3 -6 1 -15 8 -21 8 -7 17 -8 20 -3 3 6 -1 15 -8 21 -8 7 -17 8 -20 3z"/>
 <path d="M4395 1999 c-4 -5 0 -11 7 -13 22 -8 68 -1 71 9 3 13 -70 17 -78 4z"/>
 <path d="M1936 1982 c-3 -6 1 -15 8 -21 8 -7 17 -8 20 -3 3 6 -1 15 -8 21 -8 7 -17 8 -20 3z"/>
 <path d="M4928 1975 c-3 -24 -6 -32 -16 -58 -7 -16 -17 -37 -22 -47 -6 -12 -7 -21 0 -25 10 -6 55 73 46 83 -3 3 -1 11 6 19 8 10 8 17 0 25 -7 7 -13 8 -14 3z"/>
 <path d="M2746 1961 c-3 -5 5 -16 19 -25 24 -16 45 -6 22 11 -24 19 -36 23 -41 14z"/>
 <path d="M1977 1924 c-9 -10 22 -66 33 -59 6 4 4 18 -5 36 -17 31 -18 32 -28 23z"/>
 <path d="M2816 1912 c-3 -5 5 -19 18 -31 13 -13 26 -18 30 -13 3 5 -5 19 -18 31 -13 13 -26 18 -30 13z"/>
 <path d="M3101 1856 c-7 -8 -8 -17 -3 -20 6 -3 15 1 21 8 7 8 8 17 3 20 -6 3 -15 -1 -21 -8z"/>
 <path d="M2877 1844 c-3 -4 6 -30 20 -58 15 -28 27 -54 28 -58 0 -5 3 -8 8 -8 4 0 10 0 13 0 4 0 1 7 -6 15 -7 8 -10 15 -6 15 3 0 -5 23 -19 50 -27 52 -28 54 -38 44z"/>
 <path d="M635 1777 c-16 -12 -31 -21 -32 -19 -2 1 -3 0 -3 -3 0 -4 6 -6 13 -4 1 0 11 2 21 4 24 5 51 31 39 38 -4 3 -22 -4 -38 -16z"/>
 <path d="M525 1750 c-8 -12 20 -24 35 -15 6 3 8 11 5 16 -8 12 -32 12 -40 -1z"/>
 <path d="M342 1738 c-7 -7 -12 -8 -12 -4 0 5 -7 3 -15 -4 -8 -7 -15 -9 -15 -6 0 4 -9 2 -20 -4 -11 -6 -18 -15 -15 -21 4 -5 15 -4 28 3 12 7 25 13 30 14 4 1 10 3 15 4 4 1 12 3 17 4 13 1 19 20 8 23 -5 2 -14 -2 -21 -9z"/>
 <path d="M1415 1720 c-4 -6 -3 -16 3 -22 6 -6 12 -6 17 2 4 6 3 16 -3 22 -6 6 -12 6 -17 -2z"/>
 <path d="M3847 1653 c-4 -3 0 -17 8 -30 9 -13 13 -23 10 -23 -3 0 0 -10 7 -22 7 -13 12 -26 13 -30 0 -5 3 -8 8 -8 4 0 10 0 13 0 4 0 1 7 -6 15 -7 8 -9 15 -6 15 4 0 1 10 -6 23 -6 12 -13 28 -14 36 -3 19 -19 33 -27 24z"/>
 <path d="M181 1636 c-7 -8 -8 -17 -3 -20 6 -3 15 1 21 8 7 8 8 17 3 20 -6 3 -15 -1 -21 -8z"/>
 <path d="M1021 1626 c-7 -8 -8 -17 -3 -20 6 -3 15 1 21 8 7 8 8 17 3 20 -6 3 -15 -1 -21 -8z"/>
 <path d="M2305 1620 c-4 -6 -3 -16 3 -22 6 -6 12 -6 17 2 4 6 3 16 -3 22 -6 6 -12 6 -17 -2z"/>
 <path d="M1405 1608 c-9 -23 -2 -83 10 -83 14 0 19 75 6 88 -7 7 -12 5 -16 -5z"/>
 <path d="M2955 1600 c-4 -6 -3 -16 3 -22 6 -6 12 -6 17 2 4 6 3 16 -3 22 -6 6 -12 6 -17 -2z"/>
 <path d="M2295 1550 c-4 -6 -3 -16 3 -22 6 -6 12 -6 17 2 4 6 3 16 -3 22 -6 6 -12 6 -17 -2z"/>
 <path d="M4355 1488 c-10 -24 -1 -178 10 -178 13 0 19 170 6 183 -7 7 -12 5 -16 -5z"/>
 <path d="M3265 1470 c-4 -6 -3 -16 3 -22 6 -6 12 -6 17 2 4 6 3 16 -3 22 -6 6 -12 6 -17 -2z"/>
 <path d="M3905 1470 c-4 -6 -3 -16 3 -22 6 -6 12 -6 17 2 4 6 3 16 -3 22 -6 6 -12 6 -17 -2z"/>
 <path d="M2284 1456 c-8 -21 3 -49 16 -41 5 3 10 15 10 25 0 25 -18 36 -26 16z"/>
 <path d="M3255 1410 c-4 -6 -3 -16 3 -22 6 -6 12 -6 17 2 4 6 3 16 -3 22 -6 6 -12 6 -17 -2z"/>
 <path d="M3915 1401 c-10 -17 15 -45 29 -31 7 7 5 15 -6 26 -11 11 -18 13 -23 5z"/>
 <path d="M3245 1320 c-4 -6 -3 -16 3 -22 6 -6 12 -6 17 2 4 6 3 16 -3 22 -6 6 -12 6 -17 -2z"/>
 <path d="M3925 1317 c-9 -22 -2 -62 10 -60 6 1 11 14 13 29 4 32 -14 56 -23 31z"/>
 <path d="M815 1290 c-8 -12 20 -24 35 -15 6 3 8 11 5 16 -8 12 -32 12 -40 -1z"/>
 <path d="M895 1281 c-7 -12 12 -24 25 -16 11 7 4 25 -10 25 -5 0 -11 -4 -15 -9z"/>
 <path d="M466 1271 c-4 -5 -2 -12 4 -16 6 -4 8 -10 5 -15 -3 -5 -1 -11 4 -14 5 -4 12 -2 15 3 4 5 2 12 -4 16 -6 4 -8 10 -5 15 3 5 1 11 -4 14 -5 4 -12 2 -15 -3z"/>
 <path d="M1025 1260 c-4 -6 -3 -16 3 -22 6 -6 12 -6 17 2 4 6 3 16 -3 22 -6 6 -12 6 -17 -2z"/>
 <path d="M1705 1230 c-3 -5 0 -13 8 -16 23 -8 82 0 82 11 0 14 -82 19 -90 5z"/>
 <path d="M1865 1221 c-7 -12 12 -24 25 -16 11 7 4 25 -10 25 -5 0 -11 -4 -15 -9z"/>
 <path d="M1405 1207 c-9 -22 -2 -62 10 -60 6 1 11 14 13 29 4 32 -14 56 -23 31z"/>
 <path d="M1925 1211 c-6 -11 13 -26 22 -17 3 3 12 1 19 -5 7 -6 18 -8 24 -4 14 9 1 28 -16 21 -7 -3 -16 -1 -19 4 -8 13 -22 13 -30 1z"/>
 <path d="M1694 1197 c-7 -20 -2 -47 11 -50 14 -3 19 43 6 56 -7 7 -12 6 -17 -6z"/>
 <path d="M3235 1198 c-9 -23 -2 -83 10 -83 14 0 19 75 6 88 -7 7 -12 5 -16 -5z"/>
 <path d="M604 1158 c-6 -9 -4 -10 26 -11 11 -1 19 3 18 8 -4 12 -37 14 -44 3z"/>
 <path d="M4355 1120 c-8 -12 20 -24 35 -15 6 3 8 11 5 16 -8 12 -32 12 -40 -1z"/>
 <path d="M2285 1110 c-4 -6 -3 -16 3 -22 6 -6 12 -6 17 2 4 6 3 16 -3 22 -6 6 -12 6 -17 -2z"/>
 <path d="M4485 1100 c-6 -9 -4 -11 20 -14 6 -1 21 -8 34 -15 16 -9 26 -10 34 -2 11 11 -3 20 -37 25 -8 1 -19 5 -22 9 -10 10 -22 9 -29 -3z"/>
 <path d="M1415 1080 c-4 -6 -3 -16 3 -22 6 -6 12 -6 17 2 4 6 3 16 -3 22 -6 6 -12 6 -17 -2z"/>
 <path d="M2295 1040 c-4 -6 -1 -17 5 -25 7 -8 9 -15 5 -15 -4 0 -2 -7 5 -15 7 -8 10 -15 6 -15 -4 0 1 -14 9 -30 9 -17 20 -28 25 -25 6 4 3 19 -7 38 -9 18 -17 35 -18 39 0 3 -3 9 -7 13 -4 4 -4 13 -2 20 7 16 -12 29 -21 15z"/>
 <path d="M4625 1041 c-3 -6 3 -15 14 -21 12 -6 22 -6 26 -1 3 6 -3 15 -14 21 -12 6 -22 6 -26 1z"/>
 <path d="M3234 1027 c-7 -20 -2 -47 11 -50 14 -3 19 43 6 56 -7 7 -12 6 -17 -6z"/>
 <path d="M1436 1022 c-3 -6 1 -15 8 -21 8 -7 17 -8 20 -3 3 6 -1 15 -8 21 -8 7 -17 8 -20 3z"/>
 <path d="M4676 1012 c-3 -6 1 -15 8 -21 8 -7 17 -8 20 -3 3 6 -1 15 -8 21 -8 7 -17 8 -20 3z"/>
 <path d="M1475 990 c-3 -5 -4 -11 -1 -11 16 -4 26 -7 31 -9 3 -1 10 -4 15 -5 6 -1 12 -4 15 -5 3 -1 8 -3 13 -4 4 -1 12 -4 17 -8 15 -9 55 -4 55 7 0 6 -12 11 -28 11 -15 1 -30 3 -34 4 -5 1 -12 4 -18 5 -5 1 -12 4 -15 5 -3 1 -8 3 -12 4 -5 1 -13 5 -20 9 -6 4 -14 3 -18 -3z"/>
 <path d="M4716 982 c-3 -5 3 -17 13 -26 11 -10 22 -13 25 -8 3 5 -3 17 -13 26 -11 10 -22 13 -25 8z"/>
 <path d="M4806 892 c-3 -5 3 -17 13 -26 11 -10 22 -13 25 -8 3 5 -3 17 -13 26 -11 10 -22 13 -25 8z"/>
 <path d="M3256 851 c-4 -5 -2 -12 4 -16 6 -4 8 -10 5 -15 -3 -5 -1 -11 4 -14 5 -4 12 -2 15 3 4 5 2 12 -4 16 -6 4 -8 10 -5 15 3 5 1 11 -4 14 -5 4 -12 2 -15 -3z"/>
 <path d="M4857 834 c-8 -9 34 -75 44 -68 5 3 2 18 -6 34 -16 31 -29 43 -38 34z"/>
 <path d="M2445 821 c-3 -6 3 -15 14 -21 12 -6 22 -6 26 -1 3 6 -3 15 -14 21 -12 6 -22 6 -26 1z"/>
 <path d="M2605 797 c-16 -12 -31 -21 -32 -19 -2 1 -3 0 -3 -3 0 -4 6 -6 13 -4 1 0 11 2 21 4 24 5 51 31 39 38 -4 3 -22 -4 -38 -16z"/>
 <path d="M2506 792 c-3 -6 1 -15 8 -21 8 -7 17 -8 20 -3 3 6 -1 15 -8 21 -8 7 -17 8 -20 3z"/>
 <path d="M4917 724 c-3 -4 -1 -16 5 -28 7 -11 12 -24 13 -28 0 -5 3 -8 8 -8 6 0 9 5 6 13 0 1 -2 10 -4 21 -4 23 -19 39 -28 30z"/>
 <path d="M4295 708 c-10 -24 -1 -178 10 -178 13 0 19 170 6 183 -7 7 -12 5 -16 -5z"/>
 <path d="M3335 700 c-3 -5 9 -20 27 -34 38 -29 52 -34 56 -23 4 12 -76 68 -83 57z"/>
 <path d="M2930 621 c-6 -12 -6 -22 -1 -26 6 -3 15 3 21 14 6 12 6 22 1 26 -6 3 -15 -3 -21 -14z"/>
 <path d="M3446 631 c-10 -15 34 -38 69 -37 39 1 35 20 -5 22 -17 1 -36 7 -44 13 -9 8 -16 8 -20 2z"/>
 <path d="M4945 630 c-4 -6 -3 -16 3 -22 6 -6 12 -6 17 2 4 6 3 16 -3 22 -6 6 -12 6 -17 -2z"/>
 <path d="M3925 569 c-4 -5 -4 -13 -1 -16 3 -3 1 -12 -4 -19 -6 -6 -10 -16 -8 -20 1 -5 -8 -28 -20 -51 -13 -24 -18 -44 -12 -48 5 -3 18 12 30 35 11 22 18 40 14 40 -4 0 -1 7 6 16 16 18 22 62 10 69 -5 3 -12 0 -15 -6z"/>
 <path d="M4954 566 c-4 -10 -2 -22 4 -28 8 -8 13 -7 18 6 4 10 2 22 -4 28 -8 8 -13 7 -18 -6z"/>
 <path d="M4954 486 c-4 -10 -2 -22 4 -28 8 -8 13 -7 18 6 4 10 2 22 -4 28 -8 8 -13 7 -18 -6z"/>
 <path d="M4305 481 c-3 -6 3 -15 14 -21 12 -6 22 -6 26 -1 3 6 -3 15 -14 21 -12 6 -22 6 -26 1z"/>
 <path d="M4545 470 c-4 -6 -10 -8 -15 -5 -5 3 -11 1 -14 -4 -4 -5 -2 -12 3 -15 5 -4 12 -2 16 4 4 6 10 8 15 5 5 -3 11 -1 14 4 4 5 2 12 -3 15 -5 4 -12 2 -16 -4z"/>
 <path d="M4425 451 c-7 -13 17 -24 40 -19 9 1 16 8 16 13 0 14 -48 19 -56 6z"/>
 <path d="M4939 386 c-1 -3 -2 -9 -3 -13 -1 -5 -10 -22 -19 -40 -10 -19 -13 -34 -7 -38 5 -3 16 8 25 25 8 16 13 30 9 30 -4 0 -1 6 5 14 8 10 9 16 1 21 -5 3 -11 4 -11 1z"/>
 </g>
<g id="layer105" fill="#03a4ca" stroke="none">
 <path d="M236 3974 c-9 -8 -16 -24 -16 -35 0 -11 -7 -22 -15 -25 -9 -4 -20 -14 -25 -24 -12 -22 -103 -658 -131 -910 -11 -107 -23 -290 -26 -406 l-6 -211 23 -16 c13 -9 45 -21 71 -28 l49 -13 -23 -25 c-48 -52 -107 -147 -122 -196 -20 -66 -20 -179 0 -198 18 -18 69 -30 232 -53 118 -16 124 -16 143 1 11 10 22 27 26 38 18 57 115 78 167 37 29 -23 52 -89 37 -104 -5 -5 -70 -12 -145 -17 -195 -12 -258 -44 -352 -181 -92 -133 -97 -147 -101 -288 -3 -113 -1 -131 21 -192 72 -199 237 -357 427 -412 208 -60 409 -30 512 76 l42 44 36 -76 c65 -132 136 -194 296 -257 62 -24 82 -27 204 -27 l136 -1 77 38 c78 39 181 124 207 171 l13 26 38 -76 c44 -88 74 -123 145 -170 217 -141 545 -156 680 -32 24 22 53 56 65 74 11 19 24 34 27 34 4 0 20 -31 37 -68 60 -136 187 -227 380 -273 131 -31 286 -25 370 14 68 32 87 47 127 102 l30 40 -3 -109 c-4 -132 -7 -128 151 -181 212 -71 545 -80 677 -20 84 38 182 142 245 258 19 36 37 138 38 212 1 230 -114 413 -355 564 -44 28 -126 58 -207 75 l-28 6 0 189 0 189 78 6 c196 18 307 83 413 244 71 108 82 149 77 300 -3 123 -4 130 -41 206 -94 198 -290 360 -482 400 l-60 13 0 260 c-1 286 0 282 -62 308 -46 20 -208 53 -292 61 -61 6 -74 4 -91 -11 -11 -10 -20 -26 -20 -36 0 -10 -13 -30 -29 -46 l-28 -28 -28 38 c-118 164 -483 290 -678 233 -68 -20 -112 -56 -164 -136 -21 -33 -40 -60 -43 -60 -3 0 -16 26 -30 58 -44 101 -148 192 -290 253 -105 44 -192 62 -315 63 -100 1 -115 -1 -160 -25 -28 -14 -64 -44 -82 -68 l-33 -43 0 65 c0 50 -4 68 -19 81 -22 20 -91 40 -232 65 -98 18 -100 18 -124 -1 -14 -11 -25 -28 -25 -38 0 -9 -9 -24 -21 -31 -29 -20 -37 -71 -45 -308 l-7 -203 -38 6 c-21 3 -49 10 -62 15 l-25 10 -4 278 c-2 192 -7 285 -15 299 -19 33 -73 53 -189 69 -59 9 -118 18 -131 21 -28 7 -63 -19 -63 -48 0 -10 -12 -29 -27 -42 -25 -22 -27 -29 -35 -157 -4 -74 -9 -138 -11 -143 -2 -5 -11 81 -20 190 -14 160 -20 202 -34 216 -19 18 -141 48 -199 48 -29 0 -38 -5 -52 -31 -9 -17 -27 -44 -40 -60 -13 -16 -31 -51 -41 -79 -17 -48 -31 -57 -31 -19 0 36 -52 195 -70 213 -11 11 -47 24 -92 32 -99 18 -143 17 -162 -2z m177 -48 c21 -7 42 -17 48 -23 5 -5 23 -66 40 -134 36 -153 50 -200 62 -216 12 -16 27 -7 27 15 0 34 60 206 79 226 11 12 24 33 30 49 7 19 18 27 34 27 33 0 140 -21 150 -30 4 -4 21 -151 38 -326 57 -616 74 -774 84 -774 10 0 12 60 30 660 7 226 8 270 14 316 0 7 9 11 18 10 12 -1 19 10 25 39 l8 41 126 -18 c69 -10 133 -22 143 -28 26 -13 31 -68 31 -351 l0 -248 28 -14 c31 -16 109 -35 162 -39 l35 -3 6 65 c4 36 7 124 8 195 2 177 11 267 26 261 20 -7 35 15 35 50 l0 32 43 -9 c23 -4 91 -18 151 -30 l108 -22 -3 -153 c-4 -157 4 -192 27 -114 13 43 96 175 124 197 37 29 124 45 210 39 120 -9 201 -30 306 -81 156 -76 213 -146 259 -318 11 -43 24 -79 29 -80 5 -1 15 22 22 50 16 61 74 162 121 208 55 56 156 68 317 40 109 -19 200 -56 291 -116 100 -67 142 -133 180 -284 11 -44 25 -79 30 -78 6 2 11 57 13 127 2 120 3 125 25 128 18 2 23 11 25 41 3 33 6 37 31 37 46 0 201 -29 271 -50 l65 -20 0 -277 0 -277 65 -12 c148 -28 256 -89 369 -210 108 -115 161 -242 161 -384 0 -94 -27 -173 -91 -265 -96 -139 -183 -185 -369 -194 l-115 -6 0 -239 0 -239 87 -17 c127 -26 213 -75 324 -185 74 -73 98 -104 126 -165 48 -102 62 -172 55 -267 -6 -93 -23 -140 -88 -237 -57 -88 -93 -119 -179 -160 l-65 -31 -185 0 c-207 0 -285 15 -474 89 l-28 11 4 167 c4 132 2 170 -8 179 -11 9 -19 -1 -39 -43 -67 -141 -125 -193 -245 -219 -75 -16 -238 -6 -322 21 -100 31 -204 87 -239 129 -40 48 -84 142 -100 214 -7 32 -16 60 -21 63 -5 3 -15 -10 -23 -30 -8 -19 -35 -64 -61 -100 -77 -111 -157 -142 -337 -133 -153 8 -291 54 -393 132 -37 28 -108 165 -120 228 -3 20 -10 40 -15 42 -4 3 -33 -30 -64 -74 -126 -180 -274 -239 -504 -200 -93 15 -241 88 -278 137 -46 58 -71 103 -99 178 -14 38 -29 73 -34 77 -4 5 -20 -9 -36 -30 -50 -68 -78 -94 -129 -121 -44 -22 -65 -26 -170 -30 -194 -6 -323 35 -442 143 -204 185 -259 450 -135 650 55 88 138 168 192 184 25 8 100 17 166 21 158 9 189 24 188 93 0 42 -5 53 -44 92 -31 31 -56 47 -84 53 -47 9 -115 -4 -123 -24 -3 -8 -12 -14 -20 -14 -8 0 -21 -16 -29 -36 -15 -35 -17 -36 -52 -30 -20 3 -68 11 -107 16 -38 6 -94 15 -124 21 l-54 11 6 68 c6 69 39 153 71 179 9 8 16 18 16 23 0 18 51 76 90 103 32 22 38 31 29 41 -6 8 -19 14 -29 14 -10 0 -48 7 -86 16 l-69 15 2 62 c8 313 47 710 108 1107 8 52 22 144 31 205 8 60 16 110 17 110 20 1 43 29 45 55 l3 32 53 -6 c28 -4 69 -13 89 -20z"/>
 <path d="M2317 3208 c-19 -19 -26 -41 -35 -113 -20 -162 -25 -325 -12 -430 20 -165 68 -251 176 -311 74 -41 121 -44 160 -11 26 22 28 31 36 148 13 170 5 557 -11 588 -20 37 -92 111 -124 127 -16 9 -59 18 -97 21 -63 5 -70 4 -93 -19z m180 -56 c22 -12 52 -40 68 -64 l29 -43 -1 -300 c-1 -165 -5 -316 -10 -335 -11 -46 -44 -50 -111 -16 -56 28 -97 72 -123 131 -26 61 -42 222 -35 360 7 126 24 273 33 288 9 15 107 1 150 -21z"/>
 <path d="M636 3109 c-2 -8 -12 -41 -21 -74 -32 -114 -37 -125 -45 -120 -11 7 -40 -46 -41 -72 0 -10 -12 32 -26 92 -52 228 -73 229 -73 2 0 -89 -3 -246 -7 -349 -6 -182 -7 -187 -27 -185 -15 1 -21 -4 -21 -18 0 -13 6 -19 15 -17 38 9 210 4 244 -8 21 -7 41 -8 45 -4 7 8 2 233 -13 618 -4 116 -17 175 -30 135z m-13 -464 l6 -231 -66 7 c-37 4 -73 5 -80 2 -10 -4 -13 13 -13 73 0 151 12 306 24 294 23 -23 56 -11 74 28 14 30 43 66 48 59 1 -1 4 -106 7 -232z"/>
 <path d="M3280 3047 c-28 -14 -34 -36 -49 -191 -22 -223 -8 -445 34 -527 33 -64 76 -109 139 -144 72 -40 107 -43 154 -15 23 14 32 27 33 47 1 16 4 46 7 68 3 22 5 164 5 315 0 266 -1 276 -23 318 -30 58 -100 117 -155 131 -57 14 -114 14 -145 -2z m171 -65 c39 -20 58 -38 76 -71 23 -43 23 -50 22 -315 -1 -149 -4 -298 -8 -331 -6 -58 -7 -60 -37 -63 -35 -3 -123 43 -155 81 -72 86 -96 288 -69 568 16 166 14 159 70 159 33 0 64 -9 101 -28z"/>
 <path d="M1381 2723 c-10 -20 -35 -459 -27 -472 3 -4 37 -11 75 -14 38 -3 87 -11 109 -18 77 -23 76 -28 69 233 -3 127 -10 235 -15 240 -4 4 -42 15 -83 23 -41 8 -84 17 -96 20 -15 3 -25 -1 -32 -12z m114 -56 l50 -13 8 -160 c4 -87 5 -174 2 -192 -6 -30 -9 -33 -33 -28 -15 3 -49 8 -75 12 l-48 6 5 77 c3 42 8 129 12 194 4 78 10 117 17 117 7 0 35 -6 62 -13z"/>
 <path d="M1967 2613 c-3 -5 -8 -117 -12 -250 l-7 -242 -27 -3 c-22 -3 -26 -8 -29 -41 -3 -31 3 -46 31 -80 38 -47 59 -84 81 -139 8 -21 20 -38 25 -38 6 0 19 19 30 43 11 23 42 75 70 114 l50 73 -39 31 c-45 36 -101 138 -125 227 -9 31 -19 112 -22 180 -5 110 -13 147 -26 125z m116 -540 l30 -32 -40 -61 -40 -61 -32 50 c-18 27 -39 55 -47 61 -18 16 -18 40 0 40 24 0 46 41 46 85 l0 40 26 -45 c15 -25 40 -59 57 -77z"/>
 <path d="M987 2294 c-4 -4 -7 -22 -7 -41 0 -25 -4 -33 -18 -33 -31 0 -33 -12 -8 -44 29 -39 76 -131 76 -149 0 -8 6 -19 13 -25 10 -9 23 4 57 56 24 37 52 76 62 88 26 29 8 42 -76 56 l-65 11 -3 40 c-3 38 -16 56 -31 41z m90 -140 c21 -6 22 -8 7 -35 -8 -16 -16 -29 -18 -29 -2 0 -13 16 -25 35 -18 32 -19 35 -3 35 9 0 27 -3 39 -6z"/>
 <path d="M4287 2274 c-4 -4 -7 -60 -7 -125 0 -113 1 -119 23 -134 13 -8 57 -18 98 -21 63 -6 83 -3 122 14 57 25 72 56 57 113 -8 29 -23 48 -58 74 -58 43 -217 96 -235 79z m153 -86 c64 -27 90 -55 90 -95 0 -27 -5 -35 -27 -44 -28 -11 -142 -7 -162 5 -7 4 -11 40 -11 87 l0 81 33 -7 c17 -4 52 -16 77 -27z"/>
 <path d="M2920 2178 c-33 -73 -93 -151 -139 -182 l-45 -30 29 -20 c102 -74 144 -139 180 -281 11 -44 25 -78 30 -76 6 3 16 28 23 55 13 51 63 138 114 200 l27 33 -42 35 c-50 41 -108 152 -128 241 -7 32 -16 60 -21 63 -4 3 -17 -14 -28 -38z m45 -156 c16 -37 47 -86 68 -109 l38 -41 -43 -66 c-24 -36 -45 -66 -48 -66 -3 0 -16 26 -30 58 -14 32 -47 81 -77 113 l-53 56 31 29 c17 16 39 44 51 62 11 17 23 32 26 32 4 0 20 -31 37 -68z"/>
 <path d="M3876 2008 c-39 -79 -96 -155 -138 -183 -21 -14 -38 -27 -38 -29 0 -2 26 -24 58 -49 70 -54 113 -129 142 -243 36 -139 48 -126 51 51 1 112 -1 130 -16 141 -16 12 -17 29 -13 178 5 129 3 168 -7 176 -10 8 -19 -1 -39 -42z m-11 -276 c-4 -12 -15 -7 -45 23 l-39 38 40 45 c21 25 40 50 41 56 1 6 4 -25 5 -68 2 -44 1 -86 -2 -94z"/>
 <path d="M1462 1780 c-44 -18 -47 -45 -47 -390 0 -269 3 -330 15 -355 28 -56 178 -108 208 -72 7 8 15 51 19 95 5 72 8 81 27 84 17 2 22 11 24 42 l3 39 97 -6 c53 -4 114 -11 135 -17 62 -18 66 -9 64 141 -1 78 -6 129 -12 129 -5 1 -11 -9 -13 -20 -5 -32 -23 -34 -135 -16 -172 28 -153 16 -161 103 -12 136 -50 207 -125 239 -38 16 -66 17 -99 4z m108 -62 c37 -23 53 -69 60 -170 9 -132 8 -131 183 -160 l137 -22 0 -59 c0 -57 -1 -59 -22 -53 -13 3 -66 9 -119 12 -106 7 -133 0 -143 -40 -3 -14 -17 -36 -29 -49 -19 -18 -25 -38 -30 -96 -3 -40 -8 -76 -11 -79 -10 -10 -95 20 -113 40 -17 18 -18 46 -18 342 0 176 3 329 8 340 6 15 14 17 43 11 20 -3 44 -11 54 -17z"/>
 <path d="M2332 1663 c-15 -14 -22 -40 -31 -118 -40 -357 -18 -548 74 -670 32 -41 142 -105 182 -105 15 0 42 9 60 19 44 27 48 60 48 416 0 337 2 326 -77 402 -70 67 -208 97 -256 56z m183 -59 c20 -11 51 -39 68 -62 l31 -43 -1 -302 c-1 -166 -5 -318 -10 -337 -11 -44 -43 -50 -101 -21 -104 53 -145 122 -163 276 -15 130 4 469 28 508 9 15 107 2 148 -19z"/>
 <path d="M988 1565 c-118 -165 -202 -212 -391 -222 -61 -3 -114 -11 -124 -18 -16 -12 -16 -17 -2 -61 19 -61 74 -104 143 -111 47 -6 103 17 91 37 -4 6 1 10 9 10 21 0 50 46 42 66 -6 15 2 16 81 11 49 -3 110 -13 136 -22 75 -25 77 -22 77 170 0 128 -3 165 -14 174 -12 10 -21 4 -48 -34z m2 -173 l0 -89 -62 13 c-35 8 -79 14 -98 14 l-35 0 50 29 c28 16 70 50 95 75 24 25 45 46 47 46 2 0 3 -40 3 -88z m-284 -117 c1 -15 -4 -25 -11 -25 -8 0 -22 -11 -33 -25 -11 -14 -30 -25 -43 -25 -33 0 -88 35 -98 63 -8 21 -6 22 78 28 47 3 91 6 96 7 6 1 11 -9 11 -23z"/>
 <path d="M3331 1509 c-18 -4 -39 -13 -46 -20 -19 -20 -35 -148 -42 -330 -12 -311 34 -441 181 -524 72 -40 107 -43 154 -15 23 14 32 27 33 47 1 16 4 46 7 68 3 22 5 164 5 316 0 273 0 276 -24 319 -52 94 -177 159 -268 139z m137 -75 c32 -16 60 -39 74 -62 23 -37 23 -40 23 -370 0 -359 1 -351 -52 -352 -25 0 -120 53 -140 78 -76 96 -101 290 -73 573 16 165 14 159 69 159 31 0 65 -9 99 -26z"/>
 <path d="M4307 723 c-4 -3 -7 -60 -7 -125 l0 -119 38 -16 c20 -9 66 -18 103 -21 53 -4 73 -1 107 17 54 28 67 54 53 109 -14 50 -65 93 -148 126 -64 25 -136 39 -146 29z m155 -85 c64 -27 90 -57 86 -99 -3 -32 -6 -35 -50 -43 -29 -6 -67 -6 -95 0 l-48 9 -3 83 -3 84 33 -7 c18 -4 54 -16 80 -27z"/>
 </g>
<g id="layer106" fill="#f06823" stroke="none">
 <path d="M211 3868 c-12 -32 -108 -719 -126 -903 -19 -197 -35 -422 -35 -513 l0 -73 33 -14 c19 -8 69 -20 113 -27 71 -12 84 -12 124 3 95 35 77 70 -45 87 -44 6 -97 16 -118 22 l-37 11 0 77 c0 199 34 549 96 987 24 176 45 329 47 340 3 31 -40 33 -52 3z"/>
 <path d="M642 3783 c-11 -16 -30 -66 -41 -111 -12 -45 -25 -92 -31 -106 -6 -18 -5 -28 6 -36 12 -10 17 -5 34 32 33 76 73 229 62 240 -6 6 -16 0 -30 -19z"/>
 <path d="M1036 3742 c-7 -13 -16 -222 -27 -607 -13 -457 -13 -431 7 -654 15 -160 15 -175 0 -183 -9 -5 -16 -17 -17 -26 -1 -10 -4 -7 -8 8 -5 17 -15 26 -31 28 -51 5 -210 44 -215 51 -2 5 -10 172 -16 372 -12 427 -20 555 -34 553 -5 -1 -19 -30 -31 -65 -20 -62 -21 -73 -12 -354 12 -408 20 -506 38 -516 8 -4 45 -21 81 -38 36 -17 87 -47 113 -67 34 -26 55 -35 79 -33 18 1 43 -3 57 -8 14 -5 57 -15 95 -22 l70 -13 58 32 c34 19 55 36 50 41 -5 5 -57 19 -116 31 l-107 23 0 305 c0 260 14 949 22 1089 3 41 1 45 -24 52 -16 4 -30 4 -32 1z"/>
 <path d="M1642 3623 c-11 -20 -20 -170 -24 -378 l-3 -140 30 0 30 0 6 90 c4 50 8 169 10 265 4 174 4 175 -18 178 -13 2 -25 -4 -31 -15z"/>
 <path d="M2047 3456 c-58 -75 -73 -225 -71 -736 1 -296 3 -332 22 -400 11 -41 30 -96 41 -121 21 -47 90 -133 121 -149 21 -11 142 11 147 27 2 5 -26 28 -63 49 -109 63 -172 185 -194 370 -22 191 -5 842 25 940 16 55 5 64 -28 20z"/>
 <path d="M3014 3308 c-24 -31 -55 -107 -63 -153 -6 -32 -6 -105 0 -201 6 -85 8 -270 4 -420 -3 -148 -6 -295 -6 -326 -2 -105 83 -275 160 -321 27 -16 34 -16 87 -2 32 8 62 19 67 24 5 5 -16 22 -53 42 -70 37 -99 68 -140 149 -46 91 -61 169 -71 369 -12 241 7 716 32 804 9 33 -2 56 -17 35z"/>
 <path d="M2371 3293 c-78 -41 -92 -108 -18 -84 60 20 154 -9 211 -66 63 -62 68 -88 68 -372 -1 -141 -5 -290 -10 -331 -5 -41 -6 -79 -2 -84 5 -4 20 10 35 32 21 32 28 59 36 141 15 145 8 599 -9 629 -25 44 -85 103 -126 124 -57 29 -142 34 -185 11z"/>
 <path d="M455 3288 c-2 -7 -8 -43 -13 -80 -8 -61 -5 -81 30 -220 22 -84 41 -159 44 -167 8 -26 29 6 42 66 13 56 12 64 -30 232 -40 159 -60 206 -73 169z"/>
 <path d="M3923 3218 c-13 -21 -19 -285 -11 -558 8 -247 4 -601 -8 -842 l-6 -117 25 -12 c22 -10 24 -15 16 -37 -6 -15 -9 -162 -7 -356 4 -507 3 -651 -2 -911 l-5 -240 80 -32 c136 -54 267 -77 445 -77 148 0 158 1 225 28 77 32 131 73 176 134 31 42 26 67 -6 32 -28 -31 -95 -66 -159 -85 -50 -15 -87 -17 -225 -12 -172 5 -273 24 -411 76 l-55 21 3 752 c3 487 7 757 14 765 7 9 3 15 -13 23 l-24 11 0 722 0 722 -22 3 c-11 2 -25 -3 -30 -10z"/>
 <path d="M3335 3130 c-32 -13 -78 -67 -72 -84 5 -12 13 -13 42 -5 46 13 131 -4 176 -34 64 -44 90 -88 101 -173 8 -67 5 -564 -4 -614 -6 -28 17 -23 39 9 32 47 38 115 38 436 l0 290 -27 47 c-35 58 -88 103 -147 123 -48 16 -114 19 -146 5z"/>
 <path d="M1392 2808 c-5 -7 -12 -28 -14 -47 l-3 -34 95 -19 c52 -11 100 -24 105 -29 6 -6 11 -105 14 -240 l3 -230 26 -10 c16 -6 29 -6 35 0 6 6 8 116 5 280 -3 224 -6 273 -19 286 -14 14 -171 54 -215 55 -12 0 -26 -6 -32 -12z"/>
 <path d="M4300 2356 c-18 -22 -23 -71 -8 -83 7 -6 45 -18 83 -28 126 -30 184 -77 195 -158 7 -56 26 -58 50 -5 59 131 -22 220 -247 272 -50 11 -64 11 -73 2z"/>
 <path d="M76 2139 c-27 -43 -44 -94 -51 -156 -7 -56 -5 -62 14 -72 24 -13 322 -62 333 -55 5 3 8 13 8 22 0 10 7 27 15 39 8 12 11 24 7 27 -5 3 -55 12 -113 21 -57 9 -125 21 -151 26 -45 10 -48 13 -48 42 0 18 5 50 10 72 11 48 -2 67 -24 34z"/>
 <path d="M1796 2132 c-6 -10 100 -103 108 -95 11 12 6 84 -6 87 -32 10 -97 15 -102 8z"/>
 <path d="M2855 2090 c-11 -18 -93 -50 -148 -58 -28 -4 -52 -12 -54 -18 -2 -7 17 -22 42 -34 l45 -22 45 26 c54 32 103 92 88 107 -8 8 -13 7 -18 -1z"/>
 <path d="M1075 2048 c-26 -30 -27 -35 -19 -93 15 -103 11 -235 -9 -283 -14 -35 -17 -75 -17 -237 l0 -195 26 -10 c14 -6 30 -8 35 -4 5 3 9 155 10 357 0 194 3 383 8 420 4 38 4 70 0 73 -4 2 -19 -10 -34 -28z"/>
 <path d="M483 2044 c-37 -18 -67 -59 -59 -79 4 -11 13 -12 42 -3 98 26 194 -41 194 -136 0 -46 12 -51 41 -20 20 22 24 36 24 90 0 63 -1 65 -47 111 -44 43 -51 47 -105 50 -40 3 -68 -1 -90 -13z"/>
 <path d="M2075 1925 c-8 -14 -23 -37 -32 -52 -12 -20 -16 -43 -13 -78 2 -27 4 -101 4 -163 1 -146 1 -146 -126 -122 -51 10 -109 20 -129 24 l-36 6 -6 85 c-9 131 -46 195 -131 230 -66 28 -127 1 -165 -72 -11 -22 1 -43 14 -23 9 14 81 13 108 -2 67 -38 107 -126 107 -238 0 -34 5 -61 13 -67 19 -15 219 -46 266 -41 l41 4 0 -112 c0 -108 1 -112 25 -128 14 -9 30 -14 35 -11 6 4 10 69 10 153 0 203 19 512 34 572 15 56 5 74 -19 35z"/>
 <path d="M3764 1894 c-27 -13 -74 -27 -104 -31 -29 -5 -53 -12 -54 -18 -1 -18 81 -56 107 -50 32 8 124 102 112 114 -6 5 -31 -1 -61 -15z"/>
 <path d="M4824 1779 c-60 -66 -172 -100 -337 -102 l-122 -2 0 -45 0 -45 70 -3 c172 -8 320 54 396 164 30 45 25 69 -7 33z"/>
 <path d="M3015 1723 c-47 -78 -56 -145 -44 -321 6 -88 8 -266 4 -420 -3 -147 -6 -292 -7 -323 -1 -64 32 -163 74 -225 35 -53 113 -122 158 -141 19 -8 53 -23 75 -33 22 -10 85 -26 140 -35 182 -31 316 -3 399 83 52 54 40 67 -32 34 -48 -22 -74 -27 -168 -30 -137 -5 -239 17 -362 79 -91 46 -119 73 -162 159 -46 92 -60 161 -71 365 -13 242 6 718 32 808 15 51 -6 52 -36 0z"/>
 <path d="M2383 1741 c-39 -25 -70 -68 -57 -81 6 -6 24 -5 47 2 31 9 48 8 95 -6 86 -27 126 -57 157 -120 l27 -55 0 -258 c-1 -142 -5 -292 -10 -333 -5 -41 -6 -79 -2 -84 5 -4 20 10 35 32 37 55 47 178 43 495 -3 274 -2 268 -66 339 -48 53 -104 80 -177 85 -48 3 -66 0 -92 -16z"/>
 <path d="M3355 1581 c-32 -14 -78 -68 -72 -84 4 -12 13 -13 46 -4 62 17 166 -19 216 -74 20 -22 41 -52 47 -67 15 -36 22 -459 10 -592 -5 -58 -7 -109 -4 -113 9 -18 43 29 60 82 14 48 17 102 17 366 l0 310 -27 46 c-29 50 -71 90 -121 116 -36 18 -143 27 -172 14z"/>
 <path d="M954 1539 c-66 -70 -192 -119 -304 -119 -94 0 -126 -8 -161 -41 -31 -29 -36 -67 -9 -61 8 2 54 5 103 7 111 5 137 10 212 45 59 28 141 99 184 159 29 40 11 47 -25 10z"/>
 <path d="M113 1538 c-58 -72 -81 -249 -49 -364 52 -182 189 -337 352 -402 225 -88 453 -62 563 64 39 44 29 69 -15 35 -44 -35 -118 -51 -233 -51 -194 0 -321 48 -437 164 -76 76 -133 168 -158 255 -18 61 -21 208 -6 261 10 36 0 59 -17 38z"/>
 <path d="M694 1205 c-10 -26 6 -38 27 -19 10 9 16 21 13 25 -8 14 -34 10 -40 -6z"/>
 <path d="M1655 1150 c-9 -14 -24 -172 -17 -183 10 -19 52 39 63 87 15 68 10 100 -18 104 -11 2 -24 -2 -28 -8z"/>
 <path d="M1056 986 l-25 -57 26 -77 c72 -211 226 -325 468 -348 149 -13 258 29 378 148 84 82 99 128 20 58 -26 -22 -76 -55 -112 -73 -57 -28 -78 -32 -160 -36 -52 -1 -121 2 -155 9 -84 16 -214 79 -258 124 -43 45 -99 149 -124 231 -10 33 -21 64 -25 69 -5 5 -19 -17 -33 -48z"/>
 <path d="M2046 939 c-39 -133 -39 -134 -22 -191 8 -30 25 -75 36 -100 23 -52 98 -140 138 -162 210 -114 468 -138 601 -56 48 31 106 94 97 109 -3 4 -33 -6 -68 -23 -56 -28 -73 -31 -174 -35 -89 -2 -129 1 -195 18 -103 26 -218 81 -264 126 -44 44 -91 144 -111 237 -17 75 -30 102 -38 77z"/>
 <path d="M4314 805 c-12 -31 -9 -77 6 -85 8 -5 45 -16 82 -25 117 -29 188 -92 188 -164 0 -16 4 -32 9 -36 14 -8 50 42 57 80 19 105 -72 188 -244 225 -26 6 -57 12 -70 15 -14 4 -24 0 -28 -10z"/>
 </g>
<g id="layer107" fill="#fdde00" stroke="none">
 <path d="M267 3953 c-17 -29 -102 -614 -131 -893 -21 -202 -38 -483 -34 -555 l3 -59 45 -13 c83 -25 260 -47 273 -34 7 7 13 128 19 373 7 324 15 458 29 472 2 3 24 -74 48 -170 25 -96 48 -177 52 -180 12 -7 25 23 54 131 15 55 35 124 45 154 l18 54 6 -84 c8 -107 28 -781 23 -785 -2 -2 -46 4 -98 13 -192 33 -355 -10 -455 -120 -61 -67 -85 -123 -87 -200 -2 -57 0 -62 23 -74 23 -11 264 -53 305 -53 9 0 22 15 30 33 24 58 49 72 126 72 66 0 70 -1 106 -38 36 -35 38 -41 38 -101 0 -109 -42 -135 -238 -146 -166 -9 -217 -32 -294 -134 -60 -80 -73 -123 -73 -239 0 -154 54 -273 184 -403 133 -133 257 -179 471 -172 95 3 130 8 167 25 50 23 120 89 145 138 l16 30 18 -52 c52 -154 128 -245 252 -303 103 -48 179 -63 298 -59 82 4 103 8 160 36 36 18 86 51 111 73 52 45 113 132 124 175 7 27 8 25 24 -32 41 -150 108 -236 231 -297 117 -57 220 -79 353 -74 130 5 196 28 248 86 38 44 78 130 85 183 7 46 23 63 23 24 0 -82 64 -236 125 -304 45 -50 176 -115 284 -142 120 -30 282 -24 362 13 88 40 137 119 165 263 16 80 17 117 6 434 -13 369 -24 466 -68 575 -33 83 -81 138 -171 197 l-72 47 37 7 c70 12 139 51 172 97 81 111 93 189 85 543 -14 651 -51 758 -305 889 -109 56 -179 75 -310 83 -135 7 -181 -5 -235 -61 -73 -75 -85 -123 -102 -401 l-7 -110 -8 110 c-21 318 -95 453 -302 554 -120 58 -191 74 -331 75 -103 1 -126 -2 -160 -20 -48 -25 -100 -97 -120 -168 -30 -106 -47 -745 -25 -940 21 -178 87 -309 191 -376 l59 -38 -42 -7 c-32 -6 -53 -18 -84 -50 -57 -59 -83 -119 -93 -211 -5 -44 -9 -70 -10 -59 -1 11 -8 40 -16 63 -33 93 -76 162 -159 251 l-41 43 58 -5 c40 -4 59 -2 62 6 3 10 25 534 41 972 3 77 9 235 14 350 4 116 5 214 0 218 -12 14 -303 68 -312 59 -14 -14 -27 -150 -28 -277 0 -66 -3 -164 -7 -219 l-6 -99 -71 6 c-39 3 -95 13 -123 23 l-53 17 0 267 c0 291 -3 326 -32 341 -10 5 -74 18 -141 28 -67 10 -129 20 -137 22 -12 3 -16 -13 -22 -80 -10 -116 -28 -791 -29 -1106 l-2 -260 -13 125 c-36 350 -104 1042 -114 1170 -6 80 -15 155 -20 166 -7 17 -23 24 -77 33 -37 7 -78 15 -90 18 -20 4 -27 -3 -53 -60 -16 -36 -30 -70 -30 -76 0 -23 -61 -201 -69 -201 -10 0 -11 1 -61 199 -22 85 -45 160 -52 167 -27 27 -190 56 -201 37z m2295 -695 c62 -34 105 -96 114 -164 10 -83 -2 -612 -15 -656 -16 -52 -60 -95 -106 -104 -80 -15 -203 83 -246 195 -42 109 -36 557 10 681 22 61 64 83 143 77 34 -3 75 -15 100 -29z m954 -169 c32 -16 60 -41 80 -71 27 -40 32 -57 37 -138 17 -230 2 -583 -27 -637 -22 -43 -60 -73 -98 -80 -55 -8 -156 52 -201 120 -42 64 -53 98 -68 212 -17 132 3 461 33 540 14 37 37 65 63 76 36 16 130 4 181 -22z m-1958 -314 l69 -16 7 -67 c3 -37 6 -160 6 -273 l0 -206 -87 18 c-49 10 -112 19 -142 19 l-53 0 6 73 c3 39 8 126 11 192 3 66 11 158 17 204 l12 83 42 -6 c23 -3 74 -13 112 -21z m1452 -575 c17 -62 64 -152 102 -195 17 -20 53 -49 80 -64 l49 -28 -43 -7 c-33 -5 -53 -17 -88 -54 -78 -81 -90 -125 -107 -407 l-7 -110 -7 108 c-19 290 -80 419 -249 531 -31 20 -47 36 -37 36 38 0 133 42 165 72 41 39 87 131 104 207 l12 56 7 -50 c3 -27 12 -70 19 -95z m-2025 87 c33 -3 67 -7 75 -10 8 -3 58 -13 110 -24 l94 -19 -45 -26 c-75 -44 -129 -128 -129 -201 0 -24 -3 -47 -7 -50 -3 -4 -23 33 -43 82 -43 104 -114 199 -182 243 -26 17 -48 32 -48 33 0 1 26 -4 58 -11 31 -7 84 -15 117 -17z m635 -459 c63 -32 88 -86 98 -209 l7 -94 85 -18 c47 -9 118 -18 157 -20 l73 -2 0 -154 c0 -121 -3 -151 -12 -144 -23 18 -184 44 -254 41 l-69 -3 -12 -90 c-15 -111 -25 -139 -59 -161 -23 -15 -32 -16 -72 -5 -81 21 -110 40 -124 79 -10 27 -13 118 -13 347 l0 310 30 60 c44 87 85 103 165 63z m961 -119 c63 -35 106 -96 115 -165 10 -83 -2 -612 -15 -656 -16 -51 -60 -95 -105 -103 -77 -15 -205 84 -246 191 -43 110 -39 537 7 677 21 68 58 90 140 84 39 -3 77 -13 104 -28z m-1501 -243 l0 -223 -96 23 c-53 13 -128 25 -168 26 l-71 3 -3 -35 c-9 -98 -138 -128 -224 -51 -26 23 -32 37 -36 83 -7 86 27 108 167 108 111 0 217 39 293 108 47 43 112 127 122 160 4 12 9 22 12 22 2 0 4 -101 4 -224z m2468 67 c27 -17 58 -48 75 -75 l29 -47 5 -228 c6 -261 -6 -434 -34 -490 -20 -43 -74 -83 -110 -83 -36 0 -155 74 -180 112 -81 122 -101 329 -63 649 21 167 51 202 168 195 48 -3 75 -11 110 -33z"/>
 <path d="M3976 3301 c-12 -21 -16 -203 -18 -831 -2 -671 -2 -705 16 -708 9 -2 15 -9 13 -16 -3 -7 -6 -352 -8 -766 -3 -734 -3 -753 16 -766 30 -22 194 -72 291 -89 118 -20 334 -20 405 1 251 74 357 358 230 616 -98 198 -344 377 -518 378 l-33 0 0 143 c0 78 3 200 7 271 l6 128 51 -5 c77 -7 214 8 278 33 79 29 159 104 197 183 104 213 22 474 -205 657 -105 84 -236 140 -328 140 l-29 0 6 274 c6 217 4 276 -6 284 -7 6 -46 20 -87 31 -64 17 -111 25 -258 45 -12 2 -24 1 -26 -3z m494 -992 c59 -19 119 -62 136 -98 20 -41 14 -103 -13 -140 -44 -60 -156 -82 -262 -52 l-44 12 6 137 c3 75 8 147 12 158 7 21 8 21 68 8 34 -8 78 -19 97 -25z m41 -1558 c102 -39 145 -107 120 -192 -28 -91 -136 -125 -285 -87 l-39 9 6 137 c7 189 4 182 81 166 34 -7 87 -22 117 -33z"/>
 </g>

</svg>