<?xml version="1.0" encoding="utf-8"?>
<!-- Generator: Adobe Illustrator 22.0.1, SVG Export Plug-In . SVG Version: 6.00 Build 0)  -->
<svg version="1.1" id="Layer_1" xmlns="http://www.w3.org/2000/svg" xmlns:xlink="http://www.w3.org/1999/xlink" x="0px" y="0px"
	 viewBox="0 0 1046 207" style="enable-background:new 0 0 1046 207;" xml:space="preserve">
<style type="text/css">
	.st0{clip-path:url(#SVGID_4_);}
	.st1{clip-path:url(#SVGID_5_);}
	.st2{clip-path:url(#SVGID_6_);}
	.st3{clip-path:url(#SVGID_9_);}
	.st4{clip-path:url(#SVGID_10_);}
	.st5{clip-path:url(#SVGID_13_);}
	.st6{clip-path:url(#SVGID_14_);}
	.st7{clip-path:url(#SVGID_17_);}
	.st8{clip-path:url(#SVGID_18_);}
	.st9{clip-path:url(#SVGID_22_);}
	.st10{clip-path:url(#SVGID_23_);}
	.st11{clip-path:url(#SVGID_24_);}
	.st12{clip-path:url(#SVGID_27_);}
	.st13{clip-path:url(#SVGID_28_);}
	.st14{clip-path:url(#SVGID_31_);}
	.st15{clip-path:url(#SVGID_32_);}
</style>
<g>
	<defs>
		<rect id="SVGID_1_" x="6.1" y="12" width="1113" height="192"/>
	</defs>
	<defs>
		<path id="SVGID_2_" d="M149.3,38.6v89.1c0,86.5-132,86.5-132,0V48.3l84.6,84.7c1.7,1.6,4.3,1.5,5.8-0.2s1.5-4.3-0.2-5.8L15.9,35.3
			c-1.2-1.1-2.9-1.4-4.5-0.8C10,35.2,9,36.7,9,38.3v89.4c0,97.8,148.6,97.8,148.6,0V38.2c-0.2-2.2-2.1-3.9-4.4-3.8
			C151.1,34.5,149.3,36.3,149.3,38.6L149.3,38.6L149.3,38.6z"/>
	</defs>
	<defs>
		<rect id="SVGID_3_" x="6.1" y="-588" width="1113.1" height="792"/>
	</defs>
	<clipPath id="SVGID_4_">
		<use xlink:href="#SVGID_1_"  style="overflow:visible;"/>
	</clipPath>
	<clipPath id="SVGID_5_" class="st0">
		<use xlink:href="#SVGID_2_"  style="overflow:visible;"/>
	</clipPath>
	<clipPath id="SVGID_6_" class="st1">
		<use xlink:href="#SVGID_3_"  style="overflow:visible;"/>
	</clipPath>
	<rect x="-6" y="19.2" class="st2" width="178.6" height="196.8"/>
</g>
<g>
	<defs>
		<rect id="SVGID_7_" x="6.1" y="12" width="1113" height="192"/>
	</defs>
	<defs>
		<path id="SVGID_8_" d="M350.9,40.1v143.4L239.1,38.2c-3.6-4.6-9-3.8-9,2.6v153.9c-0.1,1.6,0.6,3.1,2,4c1.4,0.8,3.1,0.8,4.5,0
			c1.4-0.8,2.1-2.4,2-4V51.1l112,145.2c3.4,4.1,9,4.1,9-2V40.1c0.2-1.7-0.6-3.3-2-4.2c-1.4-0.9-3.3-0.9-4.7,0
			C351.5,36.8,350.7,38.5,350.9,40.1L350.9,40.1L350.9,40.1z"/>
	</defs>
	<clipPath id="SVGID_9_">
		<use xlink:href="#SVGID_7_"  style="overflow:visible;"/>
	</clipPath>
	<clipPath id="SVGID_10_" class="st3">
		<use xlink:href="#SVGID_8_"  style="overflow:visible;"/>
	</clipPath>
	<rect x="215.1" y="20.2" class="st4" width="159.6" height="194.1"/>
</g>
<g>
	<defs>
		<rect id="SVGID_11_" x="6.1" y="12" width="1113" height="192"/>
	</defs>
	<defs>
		<path id="SVGID_12_" d="M550.3,191.5H442.1V39.6c0.2-1.7-0.6-3.3-2-4.2c-1.4-0.9-3.3-0.9-4.7,0c-1.4,0.9-2.2,2.6-2,4.2v154.9
			c0,3,1.3,4.9,4.6,4.9h112.3c1.5,0.1,3-0.6,3.7-1.9c0.8-1.3,0.8-2.9,0-4.2C553.3,192.1,551.8,191.3,550.3,191.5L550.3,191.5
			L550.3,191.5z"/>
	</defs>
	<clipPath id="SVGID_13_">
		<use xlink:href="#SVGID_11_"  style="overflow:visible;"/>
	</clipPath>
	<clipPath id="SVGID_14_" class="st5">
		<use xlink:href="#SVGID_12_"  style="overflow:visible;"/>
	</clipPath>
	<rect x="418.3" y="19.7" class="st6" width="151.3" height="194.7"/>
</g>
<g>
	<defs>
		<rect id="SVGID_15_" x="6.1" y="12" width="1113" height="192"/>
	</defs>
	<defs>
		<path id="SVGID_16_" d="M681.2,34c-9.2-1.3-18.6-1.3-27.8,0c-40.5,6.4-65.2,41.5-66.5,81.2c-1.3,49.4,37.4,87.3,81.9,87.3
			c44.6,0,83.5-37.9,81.9-87.3C749.7,75.5,721.9,40.4,681.2,34L681.2,34L681.2,34z M668.8,194.6c-39.9,0-74.5-35.1-73.2-79.1
			c1-35.8,22.7-67.6,59-73.2c8.4-1.3,16.9-1.3,25.3,0c36.6,5.6,61.3,37.4,62.3,73.2C743.5,159.5,709,194.6,668.8,194.6L668.8,194.6
			L668.8,194.6z"/>
	</defs>
	<clipPath id="SVGID_17_">
		<use xlink:href="#SVGID_15_"  style="overflow:visible;"/>
	</clipPath>
	<clipPath id="SVGID_18_" class="st7">
		<use xlink:href="#SVGID_16_"  style="overflow:visible;"/>
	</clipPath>
	<rect x="571.9" y="18.1" class="st8" width="193.9" height="199.5"/>
</g>
<g>
	<defs>
		<rect id="SVGID_19_" x="6.1" y="12" width="1113" height="192"/>
	</defs>
	<defs>
		<path id="SVGID_20_" d="M946.8,174.8c14.4-16.5,21.9-37.8,21-59.7c-1-39.7-28.6-74.8-69.3-81.2c-9.2-1.3-18.6-1.3-27.8,0
			c-40.7,6.4-65.2,41.5-66.5,81.2c-1.5,49.4,37.1,87.3,81.9,87.3c20.4,0,40-7.8,54.9-21.8l18.5,19.2c4.4,4.1,9.8-1.5,5.7-6
			l-18.5-19.2L946.8,174.8L946.8,174.8z M940.8,168.8L922,149.6c-0.9-1.3-2.4-2-4-1.7c-1.5,0.3-2.8,1.5-3.1,3
			c-0.4,1.5,0.2,3.1,1.5,4.1l19.1,19.5c-13.2,12.9-30.8,20.1-49.2,20.2c-40.2,0-74.7-35.1-73.4-79.1c1-35.9,22.9-67.6,59.3-73.2
			c8.3-1.3,16.7-1.3,25,0c36.6,5.6,61.3,37.4,62.3,73.2c0.5,19.4-6.1,38.3-18.5,53.1V168.8L940.8,168.8z"/>
	</defs>
	<defs>
		<rect id="SVGID_21_" x="6.1" y="-588" width="1113.1" height="792"/>
	</defs>
	<clipPath id="SVGID_22_">
		<use xlink:href="#SVGID_19_"  style="overflow:visible;"/>
	</clipPath>
	<clipPath id="SVGID_23_" class="st9">
		<use xlink:href="#SVGID_20_"  style="overflow:visible;"/>
	</clipPath>
	<clipPath id="SVGID_24_" class="st10">
		<use xlink:href="#SVGID_21_"  style="overflow:visible;"/>
	</clipPath>
	<rect x="789.1" y="18" class="st11" width="193.7" height="199.5"/>
</g>
<g>
	<defs>
		<rect id="SVGID_25_" x="6.1" y="12" width="1113" height="192"/>
	</defs>
	<defs>
		<path id="SVGID_26_" d="M1012.3,76.7c-17.8-0.1-32.2-14.6-32.2-32.4c0-17.8,14.5-32.3,32.3-32.3c17.8,0,32.3,14.4,32.4,32.2
			c-0.1,17.9-14.6,32.4-32.5,32.3V76.7L1012.3,76.7z M1012.3,18.7c-14.2,0.1-25.6,11.6-25.6,25.8c0.1,14.2,11.6,25.6,25.8,25.6
			c14.2,0,25.7-11.5,25.7-25.7C1038.1,30.1,1026.5,18.6,1012.3,18.7L1012.3,18.7L1012.3,18.7z"/>
	</defs>
	<clipPath id="SVGID_27_">
		<use xlink:href="#SVGID_25_"  style="overflow:visible;"/>
	</clipPath>
	<clipPath id="SVGID_28_" class="st12">
		<use xlink:href="#SVGID_26_"  style="overflow:visible;"/>
	</clipPath>
	<rect x="965.1" y="-3" class="st13" width="94.7" height="94.7"/>
</g>
<g>
	<defs>
		<rect id="SVGID_29_" x="6.1" y="12" width="1113" height="192"/>
	</defs>
	<defs>
		<path id="SVGID_30_" d="M1018,44.7c2.2,0.8,4,2.4,5,4.5c1.4,2.4,2.5,4.9,3.7,7.4c0.6,1.2,1.2,2.4,1.8,3.6c0,0.3,0,0.4-0.2,0.4
			h-8.7c-0.2,0-0.4-0.1-0.5-0.3c-1.3-2.6-2.6-5.3-3.9-7.9c-0.5-1-1.1-2-1.8-2.8c-0.8-0.9-1.8-1.5-3-1.6c-1.1-0.1-2.2-0.1-3.3,0
			c-0.2,0-0.3,0-0.3,0.3v12c0,0.5,0,0.5-0.5,0.5h-7.9c-0.5,0-0.5,0-0.5-0.5v-33c0-0.5,0-0.5,0.5-0.5h13.7c2.2,0,4.3,0.3,6.4,0.9
			c3.2,0.8,5.6,3.7,5.8,7c0.2,1.3,0.1,2.7-0.2,4c-0.6,2.5-2.4,4.6-4.8,5.6L1018,44.7L1018,44.7L1018,44.7z M1006.8,37.4v3.9
			c0,0.3,0,0.3,0.3,0.3h3c0.8,0,1.5-0.1,2.3-0.2c1.5-0.1,2.7-1.3,3-2.8c0.2-0.9,0.2-1.9,0-2.8c-0.2-1.3-1.2-2.3-2.5-2.6
			c-0.6-0.2-1.2-0.3-1.8-0.3h-4c-0.3,0-0.3,0-0.3,0.4v3.9L1006.8,37.4L1006.8,37.4z"/>
	</defs>
	<clipPath id="SVGID_31_">
		<use xlink:href="#SVGID_29_"  style="overflow:visible;"/>
	</clipPath>
	<clipPath id="SVGID_32_" class="st14">
		<use xlink:href="#SVGID_30_"  style="overflow:visible;"/>
	</clipPath>
	<rect x="983.1" y="11.7" class="st15" width="60.5" height="64"/>
</g>
</svg>
