<svg class="icon-image" viewBox="0 0 320 320" xmlns="http://www.w3.org/2000/svg"><g fill="none" fill-rule="evenodd"><circle fill="#ED9E9E" cx="160" cy="160" r="160"/><path d="M57 83h32c7 0 13 1 18 3s9 5 12 9c4 3 6 8 7 12 2 5 2 10 2 15v5l-1 11c0 3-1 5-3 8l-4 5-7 5c5 2 9 6 12 11 2 5 3 11 3 19v9c0 13-3 24-10 31-6 7-17 11-31 11H57V83zm22 132h9l11-2 6-6 2-8a115 115 0 0 0 0-20c-1-3-1-6-3-8-1-2-3-3-6-4l-9-2H79v50zm0-69h10c7 0 12-2 15-6 2-3 3-9 3-16 0-6-1-12-4-15-3-4-8-5-15-5h-9v42zm161 91h-21l-16-100h-1l-16 100h-21L142 83h23l11 98h1l17-98h17l18 100 11-100h23l-23 154z" fill="#FFF" fill-rule="nonzero"/></g></svg>