<svg width="574" height="120" version="1" xmlns="http://www.w3.org/2000/svg"><g fill="none" fill-rule="evenodd"><path d="M1 7h21c5 0 9 1 13 3 3 1 6 3 8 6l5 8 1 10v4l-1 7-2 5-3 4-4 3c3 2 6 4 8 8l2 13v6c0 9-2 16-7 21-4 5-11 7-21 7H1V7zm15 90h6l7-1 4-4 2-6a78 78 0 0 0-1-13l-1-5-4-3-7-1h-6v33zm0-47h6c5 0 9-1 10-3 2-3 3-7 3-11 0-5-1-9-3-11s-5-3-10-3h-6v28zm109 62h-14l-11-68h-1l-11 68H74L58 7h16l8 67L94 7h11l12 68h1l7-68h16l-16 105z" fill="#D0021B"/><path d="M175 8h22c8 0 14 3 19 7 4 5 6 12 6 20v48c0 10-2 17-7 21-4 5-11 7-20 7h-20V8zm15 89h6c4 0 7-1 9-3s3-5 3-10V35c0-4-1-7-3-9-1-3-4-4-9-4h-6v75zm47-48h14v62h-14V49zm76-11h-15v-3c0-4 0-7-2-9-1-2-4-4-8-4l-5 1-3 3-1 5-1 5v5l1 3 3 3 5 2 11 5 8 4 4 6 3 8a78 78 0 0 1-1 22c-1 3-2 7-4 9l-8 7-12 2a26 26 0 0 1-18-7 24 24 0 0 1-7-17v-6h14v5c0 2 1 5 3 7 1 2 4 3 8 3l6-1 3-3 1-5a64 64 0 0 0 0-13l-1-4-3-2-4-3-11-4c-6-3-10-6-12-10-2-5-4-10-4-16l2-11c1-4 3-7 5-9 2-3 4-5 8-6 3-2 6-2 11-2a24 24 0 0 1 22 14c2 3 2 6 2 9v7zm145 50a23 23 0 0 1-7 17 24 24 0 0 1-17 7 23 23 0 0 1-17-7 24 24 0 0 1-7-17V8h15v79c0 3 1 6 3 8l6 2 7-2 2-8V8h15v80zm14-80h22l10 2c4 1 6 3 9 6l5 9 1 15v11a24 24 0 0 1-12 17c-3 2-8 3-13 3h-8v40h-14V8zm15 49h8l6-1 4-4 1-5a104 104 0 0 0 0-14l-1-6-3-3-7-2h-8v35zm53-35h-17V8h49v14h-17v89h-15V22zM360 49l7 4 6 3 5-1 4-4a48 48 0 0 0 6-12l1-5-1-5-6-4-6-4-16 28zm10-47l21 12c14 9 17 22 7 39-3 5-6 9-10 12s-8 4-14 4l-10 48-13-7 10-45-8-5-21 38-13-7 51-89z" stroke="#000" stroke-width="3" fill="#000"/><path d="M254 25c0 6-5 11-11 11-5 0-10-5-10-11 0-4 2-8 5-9 1-1 2-2 1-3 0-1-2-2-3-1-5 2-8 8-8 13 0 9 7 16 16 16 8 0 15-7 15-16 0-5-3-11-8-13-1-1-3 0-3 1-1 1 0 2 1 3 3 1 5 5 5 9zm-13-1l2 2c2 0 3-1 3-2V10c0-2-1-3-3-3-1 0-2 1-2 3v14z" fill-rule="nonzero" fill="#000"/></g></svg>