<svg xmlns="http://www.w3.org/2000/svg" viewBox="0 0 675 225"><g id="Layer_1"><path d="M202.3 15.2a59.8 59.8 0 0 0-31 31 56.2 56.2 0 0 0-4.6 22.7v22.9a58.4 58.4 0 0 0 58.4 58.3h122.2s-1.6-26.5-22.1-26.5H224.8a29 29 0 0 1-12.2-2.5 33.6 33.6 0 0 1-17-17.2 29.6 29.6 0 0 1-2.5-12.2V68.9c0-4.4.8-8.5 2.5-12.2a33.3 33.3 0 0 1 29.5-19.6h86.5c20.5 0 22.1-26.5 22.1-26.5H225.2c-8.1 0-15.7 1.5-22.9 4.6zM665.7 92.2A40.8 40.8 0 0 0 627.6 67h-92.9a13 13 0 0 1-10.1-4.3c-2.8-3-4.4-6.7-4.9-11.2.1-2 .5-3.9 1.3-5.7.8-1.8 1.7-3.2 3-4.4 1.4-1.3 3.1-2.4 5-3.3a13 13 0 0 1 5.7-1.2h106.6c19.5 0 20.8-26.5 20.8-26.5H534.5a42.8 42.8 0 0 0-38.2 25.3c-2.2 5-3.3 10.4-3.3 16.2a40.1 40.1 0 0 0 12.3 29.4 42.4 42.4 0 0 0 29.2 12.1h92.9a14.8 14.8 0 0 1 13.8 9.3 15.8 15.8 0 0 1 .1 11.7c-.8 1.8-1.8 3.4-3.2 4.8a14 14 0 0 1-4.8 3.2 14 14 0 0 1-5.8 1.1H519.9c-15.4 0-21 21-21 21s-5.7-21-20.7-21h-72.4a29 29 0 0 1-12.2-2.5 36.3 36.3 0 0 1-10.4-7.1 30.7 30.7 0 0 1-9.2-22.4V10.6h-26.5v81.1a57.8 57.8 0 0 0 35.5 53.8 56.4 56.4 0 0 0 22.8 4.7h221.8a40.1 40.1 0 0 0 29.4-12.3 42.4 42.4 0 0 0 12.1-29.4 46.5 46.5 0 0 0-3.4-16.3z" class="st0"/></g><g id="Layer_5" class="st1"><g class="st2"><path d="M690.2 10.2a13.8 13.8 0 0 1 0 27.6 13.8 13.8 0 0 1 0-27.6zm0 26a12 12 0 0 0 12-12.2 12 12 0 0 0-24 .1 12 12 0 0 0 12 12.1zm.2-11.3h-3.5v7.3h-1.8V15.8h6.3c3.7 0 5.3 1.6 5.3 4.6 0 2.9-1.9 4.2-4.1 4.6l4.9 7.3h-2.3l-4.8-7.4zm-3.5-1.6h4.1c2.2 0 3.9-.6 3.9-3 0-2.3-1.9-2.9-3.9-2.9h-4.1v5.9z" class="st0"/></g></g><g id="Layer_4"><path d="M98.6 118.9a44.8 44.8 0 0 1-49.9-7 42.5 42.5 0 0 1 8.8-68.7 38.6 38.6 0 0 0-48 29.5 53.4 53.4 0 0 0 89.1 46.2z" class="st0"/><path fill="#007ac2" d="M62.4 25.5A53 53 0 0 0 24 41.9a44.2 44.2 0 0 1 48.8 73.3 37.7 37.7 0 0 0 42.8-32.6l.2-3.8a53.5 53.5 0 0 0-53.4-53.3z" opacity=".8"/><path fill="#007ac2" d="M78.3 10.8A74 74 0 0 0 40.1 22c5.1-2 13.5-5.1 22.4-5.1a62 62 0 1 1-28.7 116.9 69.7 69.7 0 1 0 44.5-123z"/></g><g id="Layer_3"><path d="M15.3 167.1h4v9.9h8v3.4h-8v20.8c0 2.7.8 4 4 4 2 0 3.2-.2 4-.4v3.8a36 36 0 0 1-4.4.4c-6.3 0-7.6-2.7-7.6-7.8v-20.8H9.1V177h6.2v-9.9zM31.7 177.1h4v7.2h.1c1.5-3.8 4.1-8.2 10.9-8.2l2.4.2v4.6c-1.3-.2-2.5-.4-3.7-.4-4.4 0-9.7 3-9.7 11.9v16.1h-4v-31.4zM76 202.4h-.1c-1.2 3.3-5.5 7.2-11.7 7.2-9.4 0-12.3-5.5-12.3-13v-19.5h4v20.3c0 6.2 3.4 8.4 8.6 8.4 7.9 0 11.5-4.5 11.5-11.6v-17.1h4v31.5h-4v-6.2zM107.4 186.4c-1-5.1-3.9-6.5-9.8-6.5-4.3 0-8.2 1-8.2 5.4 0 3.3 1.9 3.9 10.5 5.2 8.7 1.3 12.3 3 12.3 9.1 0 6.2-4.6 10-13.5 10-9 0-14.3-3.3-14.3-10.8h3.7c.7 5.3 3.4 7.1 10.6 7.1 5.6 0 9.4-1.3 9.4-6 0-3.2-2-4.5-10.9-5.5-8.8-1-11.9-3.3-11.9-8.8 0-5.5 4-9.3 12.2-9.3 9.2 0 13 3.7 13.5 10.3h-3.6zM119.3 167.1h4v9.9h8v3.4h-8v20.8c0 2.7.8 4 4 4 2 0 3.2-.2 4-.4v3.8a36 36 0 0 1-4.4.4c-6.3 0-7.6-2.7-7.6-7.8v-20.8h-6.2V177h6.2v-9.9zM165.5 198.5c-1.6 5.6-5.9 11-15.3 11-11.6 0-15.4-9-15.4-16.7 0-8.8 4.9-16.7 15.4-16.7 7.3 0 16 3.5 16 17.8h-27.4c0 6.5 4.2 11.9 11.4 11.9 6.8 0 9.8-2.5 11.2-7.3h4.1zm-3.3-8c-1.1-7.8-6.3-10.7-11.7-10.7-5.2 0-10.7 3-11.7 10.7h23.4zM197.2 202.3h-.1a12.3 12.3 0 0 1-11.6 7.3c-11.6 0-15.4-9-15.4-16.7 0-8.8 4.9-16.7 15.4-16.7 5.4 0 9.7 3.3 11.6 7.3h.1v-18.4h4v43.6h-4v-6.4zm-11.6-22.5c-6.4 0-11.4 5-11.4 13 0 6.3 3.2 13 11.4 13 6.7 0 11.9-4.7 11.9-13 0-6.5-3.7-13-11.9-13zM266.9 188.6c0-5.8-2.6-8.7-8.5-8.7-6.2 0-9.7 4-9.7 10.1v18.6h-4v-21.3c0-4-2.6-7.4-8.1-7.4-5.8 0-10 3.7-10 11v17.8h-4v-31.5h4v5.8h.1c1.7-3.3 4.7-6.8 11.2-6.8 6.4 0 9.3 3.8 10.1 6.9 1.4-3.2 5.5-6.9 11.1-6.9 8 0 11.7 4.5 11.7 11v21.5h-4v-20.1zM277 186.7c.6-6.6 3.8-10.7 13.5-10.7 9.5 0 13 3.3 13 9.3v16.5c0 2.6.7 3.5 2.2 3.5l2.1-.1v3c-.8.2-2.1.5-3.4.5-4.1 0-4.3-3.1-4.4-5.6-1.3 2.1-4 6.3-13.3 6.3-4.9 0-11-2.4-11-9.5 0-8.5 7.9-9.5 14.1-9.9 8.8-.5 9.9-1.1 9.9-4.2 0-4.5-2.7-6.2-9.4-6.2-6.4 0-9.4 1.9-9.7 6.9H277zm22.8 4.9c-1.8 1.3-4.5 1.5-12.6 2.4-4.7.5-7.4 2.1-7.4 5.8 0 4.9 3.8 6.4 8.2 6.4 5.5 0 11.8-3.3 11.8-9.8v-4.8zM310.5 177.1h4v7.2h.1c1.5-3.8 4.1-8.2 10.9-8.2l2.4.2v4.6c-1.3-.2-2.5-.4-3.7-.4-4.4 0-9.7 3-9.7 11.9v16.1h-4v-31.4zM330.7 164.9h4v27.4L352 177h6l-13.9 12 14.9 19.6h-5.3l-12.6-16.7-6.4 5.4v11.3h-4v-43.7zM391.7 198.5c-1.6 5.6-5.9 11-15.3 11-11.6 0-15.4-9-15.4-16.7 0-8.8 4.9-16.7 15.4-16.7 7.3 0 16 3.5 16 17.8H365c0 6.5 4.2 11.9 11.4 11.9 6.8 0 9.8-2.5 11.2-7.3h4.1zm-3.3-8c-1.1-7.8-6.3-10.7-11.7-10.7-5.2 0-10.7 3-11.7 10.7h23.4zM400.1 167.1h4v9.9h8v3.4h-8v20.8c0 2.7.8 4 4 4 2 0 3.2-.2 4-.4v3.8a36 36 0 0 1-4.4.4c-6.3 0-7.6-2.7-7.6-7.8v-20.8h-6.2V177h6.2v-9.9zM452.8 186.4c-1-5.1-3.9-6.5-9.8-6.5-4.3 0-8.2 1-8.2 5.4 0 3.3 1.9 3.9 10.5 5.2 8.7 1.3 12.3 3 12.3 9.1 0 6.2-4.6 10-13.5 10-9 0-14.3-3.3-14.3-10.8h3.7c.7 5.3 3.4 7.1 10.6 7.1 5.6 0 9.4-1.3 9.4-6 0-3.2-2-4.5-10.9-5.5-8.8-1-11.9-3.3-11.9-8.8 0-5.5 4-9.3 12.2-9.3 9.2 0 13 3.7 13.5 10.3h-3.6zM477.1 176.1c10.9 0 16.1 7.9 16.1 16.7s-5.2 16.7-16.1 16.7-16.1-7.9-16.1-16.7 5.2-16.7 16.1-16.7zm0 29.7c7.6 0 12.1-5.4 12.1-13s-4.4-13-12.1-13-12.1 5.4-12.1 13 4.5 13 12.1 13zM498.3 164.9h4v43.6h-4v-43.6zM532.6 202.4h-.1c-1.2 3.3-5.5 7.2-11.7 7.2-9.4 0-12.3-5.5-12.3-13v-19.5h4v20.3c0 6.2 3.4 8.4 8.6 8.4 7.9 0 11.5-4.5 11.5-11.6v-17.1h4v31.5h-4v-6.2zM545.6 167.1h4v9.9h8v3.4h-8v20.8c0 2.7.8 4 4 4 2 0 3.2-.2 4-.4v3.8a36 36 0 0 1-4.4.4c-6.3 0-7.6-2.7-7.6-7.8v-20.8h-6.2V177h6.2v-9.9zM561.9 164.9h4v6.7h-4v-6.7zm0 12.2h4v31.5h-4v-31.5zM587.2 176.1c10.9 0 16.1 7.9 16.1 16.7s-5.2 16.7-16.1 16.7-16.1-7.9-16.1-16.7 5.2-16.7 16.1-16.7zm0 29.7c7.6 0 12.1-5.4 12.1-13s-4.4-13-12.1-13-12.1 5.4-12.1 13 4.4 13 12.1 13zM632.6 188.3c0-6.2-3.4-8.4-8.6-8.4-7.9 0-11.5 4.5-11.5 11.6v17.1h-4v-31.5h4v6.2h.1c1.2-3.3 5.5-7.1 11.7-7.1 9.4 0 12.3 5.5 12.3 13v19.5h-4v-20.4zM664 186.4c-1-5.1-3.9-6.5-9.8-6.5-4.3 0-8.2 1-8.2 5.4 0 3.3 1.9 3.9 10.5 5.2 8.7 1.3 12.3 3 12.3 9.1 0 6.2-4.6 10-13.5 10-9 0-14.3-3.3-14.3-10.8h3.7c.7 5.3 3.4 7.1 10.6 7.1 5.6 0 9.4-1.3 9.4-6 0-3.2-2-4.5-10.9-5.5-8.8-1-11.9-3.3-11.9-8.8 0-5.5 4-9.3 12.2-9.3 9.2 0 13 3.7 13.5 10.3H664z" class="st0"/></g><g id="Layer_2" class="st1"><g stroke="#fff" stroke-miterlimit="10" stroke-width="4" class="st2"><path fill="#9d9d9c" d="M110.2 81.3a53.6 53.6 0 0 0-94.9-35.6 43.2 43.2 0 1 1 47.6 71.9c3.2.8 6.5 1.2 9.8 1.2a37 37 0 0 0 37.5-37.5z"/><path fill="#007ac2" d="M69.8 11.2c-18.1 0-35.3 7-48.3 19.6l-.2.2a57.8 57.8 0 0 1 33.3-10.3 58 58 0 0 1 58.3 59.7 56.9 56.9 0 0 1-55.5 57.1c-11 0-28.4-2.9-44-16.9a68.9 68.9 0 0 0 56.3 29c38.1 0 68.2-31 68.2-69.2s-30-69.2-68.1-69.2z"/><path fill="#1d3176" d="M100.6 114.2a42 42 0 0 1-25.1 8.2c-11 0-22-4.2-30.1-11.6a42 42 0 0 1 9.3-68.5 44 44 0 0 0-11.3-1.6c-10.3 0-19.8 4-26.8 11.3a40.4 40.4 0 0 0-11 28.3c0 13.8 4.7 25.5 14.1 34.9a62.8 62.8 0 0 0 50.4 16.9C87.8 129 97 118 100.6 114.2z"/></g></g></svg>