<svg version="1" xmlns="http://www.w3.org/2000/svg" width="1135" height="821" viewBox="0 0 11350 8210"><g fill="#1d1d1b"><path d="M3184 8011c-42-25-72-66-80-106-19-103 56-172 234-214l77-18 3-43c5-67-4-87-42-100-47-15-102-1-98 26 15 83 14 93-12 118a88 88 0 0 1-151-63c0-46 24-84 75-119 49-33 106-45 191-40 87 5 132 26 166 78 22 31 23 43 23 206 0 95 4 175 9 178 16 10 30-19 33-69l3-50h80l3 50c5 69-12 118-53 154-29 25-44 31-83 31-53 0-107-27-117-60-6-20-7-20-38 6-67 56-163 71-223 35zm187-101c28-15 49-63 49-110 0-41 0-42-31-35-46 10-95 32-113 50-20 21-21 69 0 89 18 18 66 21 95 6zM4570 8021c-126-39-198-154-188-305 8-112 59-195 150-240 143-72 333 2 355 137 12 75-30 137-94 137-73 0-112-93-61-147 29-31 15-44-51-51-64-6-96 13-123 74-25 57-26 154-4 209 34 79 80 105 154 86 47-13 58-25 81-88 17-48 17-48 61-48h45l-2 42c-3 82-73 171-150 192-43 12-136 13-173 2zM5460 8021c-71-23-132-75-166-141-26-51-31-184-10-248 23-68 83-134 147-162 43-18 66-21 130-18 67 3 83 7 120 33 58 41 98 108 111 187 18 103 27 98-186 98h-185l6 33c17 92 55 131 128 129 74-1 106-29 144-124 9-24 16-28 51-28 51 0 58 16 36 85-17 56-66 114-119 142-36 18-167 27-207 14zm175-383c-25-127-170-123-201 5l-6 27h214l-7-32zM6030 8021c-129-42-198-154-188-305 11-164 115-266 273-266 114 0 181 43 226 145 14 32 23 71 23 110l1 60-186 5-186 5 12 47c6 25 19 57 28 72 31 46 120 52 181 12 14-8 33-39 44-68 20-53 20-53 63-53h44l-2 44c-3 60-46 128-106 165-40 25-60 30-125 32-42 2-88 0-102-5zm176-383c-25-127-171-123-202 5l-6 27h215l-7-32zM6950 8015c-175-56-238-308-117-466 49-65 122-99 211-99 87 0 137 21 188 78 43 47 71 129 66 194l-3 43-182 3c-204 3-194-2-172 76 6 21 22 49 35 61 70 65 197 18 221-82 8-37 10-38 53-38 52 0 59 13 40 80-15 55-61 110-113 137-54 27-164 34-227 13zm190-366c0-53-49-109-96-109-45 0-89 43-108 108-7 22-7 22 98 22 101 0 106-1 106-21zM1732 7998c-16-16-16-63 1-76 6-6 28-12 47-14l35-3 3-167 2-168h-38c-46 0-62-14-62-55s16-55 62-55c35 0 38-2 38-27 0-75 93-181 183-208 101-30 190-14 249 45 33 32 38 44 38 82 0 58-33 92-87 91-63-2-88-57-58-125 6-16 1-18-39-18-83 0-125 37-141 123l-7 37 168 2 169 3 5 220 5 220 45 5 45 5v90h-310v-45c0-43 1-45 33-48l32-3v-339h-190v148c0 180 2 190 44 194 30 3 31 5 31 48v45l-145 3c-105 2-149-1-158-10zM2422 7998c-16-16-16-63 1-76 6-6 28-12 47-14l35-3v-330l-35-3c-46-5-60-18-60-57 0-50 15-56 131-53l104 3 3 27 3 27 45-32c37-26 56-32 112-35 57-3 72 0 101 20 67 45 75 72 79 265l4 172 42 3 41 3v90h-320v-90l40-5 40-5v-163c0-150-2-165-19-178-45-32-107-9-136 52-23 47-38 194-26 257 6 33 10 36 44 39 37 3 37 3 37 48v45l-150 3c-109 2-154-1-163-10zM3704 7996c-3-8-4-29-2-48 3-31 5-33 46-36l42-3v-338l-42-3-43-3v-100l104-3c108-3 131 4 131 40 0 17 5 15 40-14 34-27 51-33 104-36 75-5 125 14 159 62 20 29 22 45 27 211l5 180 40 5 40 5v90h-310v-45c0-45 0-45 38-48l37-3v-164c0-140-2-166-17-180-21-21-85-15-114 11-33 30-50 111-47 225l3 104 35 5c34 5 35 6 35 50v45l-153 3c-125 2-153 0-158-12zM4924 7996c-3-8-4-29-2-48 3-30 6-33 43-38l40-5 3-167 2-167-47-3-48-3-3-41c-4-60 7-65 134-62l109 3 5 220 5 220 40 5 40 5v90l-158 3c-129 2-158 0-163-12zM6414 7996c-3-8-4-29-2-48 3-31 5-33 46-36l42-3v-588l-47-3-48-3-3-41c-4-60 7-65 134-62l109 3 5 345 5 345 40 5 40 5v90l-158 3c-129 2-158 0-163-12zM5009 7381c-21-22-29-39-29-66 0-51 44-95 95-95 27 0 44 8 66 29 21 22 29 39 29 66 0 51-44 95-95 95-27 0-44-8-66-29zM10450 7049a691 691 0 0 1-450-359 799 799 0 0 1 28-725 701 701 0 0 1 617-328c144 0 236 22 359 86a655 655 0 0 1 331 433c19 101 19 297 0 398-45 233-245 432-499 496a913 913 0 0 1-386-1zM45 6894l-25-27v-894l26-24c25-24 27-24 307-30 353-8 396-18 438-101 49-95 49-105 49-1429V3150H71l-28-24-28-24v-792l28-27 27-28 385-3 385-3v-172c1-322 26-518 96-727 87-262 224-486 424-694 295-308 688-516 1137-605 197-39 504-56 753-41 241 14 267 17 416 55 319 82 552 207 765 412 270 261 403 563 386 876-17 288-107 503-279 662a825 825 0 0 1-313 171c-95 25-285 30-384 10a697 697 0 0 1-561-512c-25-97-27-260-4-348 48-187 193-355 409-472l77-42-59-36c-104-65-238-92-423-83-486 24-729 260-790 767-5 46-10 241-10 432v348h450c506 0 509 0 536 65 12 30 14 95 12 406l-3 371-33 29-32 29h-931l4 1268c3 1188 4 1271 21 1327 25 82 45 114 86 135 59 29 85 32 408 39l314 6 24 28 24 28v877l-26 31-26 31H69l-24-26z"/></g><g fill="#68a0b1"><path d="M8710 8198c-19-5-50-24-67-41-28-26-33-38-33-75 0-36 6-50 33-77l32-32-27-27c-41-40-39-94 6-143l34-37-20-26c-42-58-35-159 15-217 49-56 103-75 201-72l82 3 35-39c32-34 41-38 83-38 78 0 125 67 92 131-16 32-34 42-72 42-22 0-23 2-13 21 6 13 10 50 7 89-4 79-33 126-94 155-50 23-149 31-214 15-44-10-54-10-61 1-5 9-3 20 7 29 12 12 49 16 177 18 171 3 207 10 231 47 60 92-2 236-117 270-58 17-260 19-317 3zm270-74c41-17 55-40 48-85-4-31-50-42-166-37-80 2-96 6-108 23-25 35-14 78 26 97 45 23 146 24 200 2zm-51-393c24-24 36-79 27-125-11-59-64-85-122-61-57 24-70 130-21 183 27 29 89 30 116 3zM839 8014c-58-17-124-80-152-142-15-35-21-68-21-127 0-101 26-166 94-229 57-53 108-70 201-64 88 5 150 42 191 114 34 61 55 168 37 190-9 11-49 14-191 14H818l7 38c10 55 36 95 77 115 69 34 167-14 184-91 11-52 12-53 56-50 39 3 43 6 46 32 9 77-75 183-163 205-58 15-129 13-186-5zm191-371c0-42-34-90-68-98-45-9-95 16-115 58-31 65-29 67 83 67h100v-27zM1364 8016c-17-7-40-26-52-41-21-26-22-38-22-216v-188l-52-3c-52-3-53-4-56-35-3-28 1-34 37-52 49-25 86-72 117-148 22-56 24-58 61-58h38l3 93 3 92h73c85 0 99 10 94 67l-3 38-82 3-83 3v164c0 152 1 165 19 175 13 6 28 7 45 1 25-10 32-34 38-136 3-40 3-40 43-40h40l3 80c2 67-1 87-20 124-34 65-66 85-146 88-42 2-79-2-98-11zM7509 8007c-49-26-102-95-119-155-15-54-12-181 5-238 29-98 111-164 204-164 61 0 97 13 134 48l27 26v-203l-47-3-48-3-3-41c-4-60 7-65 134-62l109 3 3 347 2 347 48 3 47 3 3 43c3 38 0 43-24 52-15 6-68 9-118 8-83-3-91-5-102-26-7-15-14-20-19-13-3 6-24 20-45 31-55 28-134 27-191-3zm175-79c84-38 100-285 24-355-53-48-124-37-154 25-22 45-25 207-5 264 22 66 77 93 135 66z"/><path d="M8105 8016a152 152 0 0 1-85-176c18-67 95-118 228-149l77-18 3-43c5-67-4-87-43-100-52-17-132 12-95 35 6 3 10 25 10 49 0 55-30 86-84 86-52 0-86-35-86-91 0-87 84-150 209-157 95-5 152 10 199 53l37 33 5 185c3 102 8 189 12 193 14 13 23-7 28-64l5-57h80l3 62c5 111-46 173-144 173-41 0-51-5-85-39-38-38-39-38-56-18-45 50-154 72-218 43zm188-116c39-31 64-140 32-140-24 0-124 40-140 56-19 20-19 54 1 82s72 29 107 2zM9415 8016c-16-7-44-25-61-39l-31-26-17 35c-14 31-20 35-49 32l-32-3-5-345-5-345-45-5c-45-5-45-5-48-47-4-57 13-64 136-61l97 3 5 154c5 139 6 152 20 136 38-46 151-69 217-44 38 14 90 65 116 114 19 35 22 56 22 160s-3 125-22 160c-26 49-88 110-126 124-39 15-136 13-172-3zm117-90c64-48 76-287 18-358-24-30-89-31-121-3-53 48-75 171-48 270 22 79 103 128 151 91zM10210 8011c-48-26-72-62-78-119-10-108 54-157 276-212 41-11 42-12 42-53 0-84-42-118-119-97l-40 11 16 33c45 96-64 171-139 96-27-27-30-36-25-72 4-29 16-51 43-79 51-52 114-72 212-67 100 4 149 28 180 88 20 41 22 58 22 212 0 155 6 189 26 157 3-6 9-34 13-63l6-51h83l5-84c10-159 85-251 211-259 70-5 111 10 153 56l24 26-3-105-3-104-45-5-45-5v-100h230l5 345 5 345 43 3 42 3v49c0 60-5 62-135 58l-90-3-5-29-5-28-20 22c-45 51-146 65-221 31-55-25-109-90-126-154l-15-52-6 63c-7 68-23 106-57 137-17 16-36 20-87 20-61 0-66-2-95-33-27-31-31-33-46-18-58 52-170 70-232 37zm829-86c48-24 66-76 66-190 0-116-15-156-70-182-43-21-90-9-119 30-16 22-21 46-24 125-5 111 8 173 43 208 27 27 63 31 104 9zm-629-25c27-27 40-62 40-106 0-35-1-35-32-29-18 4-53 16-78 28-40 20-45 26-48 60-2 21 2 45 9 53 18 22 85 18 109-6zM0 7960v-50h39c26 0 41-5 45-16 8-20 8-538 0-558-4-11-19-16-45-16H0v-111l113 3 112 3 5 154c4 136 7 152 19 137 27-32 88-56 144-56 62 0 108 25 144 79 22 32 23 44 23 195 0 89 4 166 8 173 4 6 25 13 47 15l40 3v90H335v-45c0-44 1-45 35-48 19-2 38-9 42-15 11-18 10-247-2-286-12-41-24-51-68-51-43 0-86 42-102 98-6 23-9 88-8 144l3 103 40 5 40 5v90l-157 3-158 3v-51zM9764 7996c-3-8-4-29-2-48 3-31 5-33 46-36l42-3v-588l-47-3-48-3-3-41c-4-60 7-65 134-62l109 3 5 345 5 345 40 5 40 5v90l-158 3c-129 2-158 0-163-12zM5330 7070c-415-57-756-231-1042-528-339-354-540-819-625-1447-25-189-25-786 0-965 90-633 310-1113 679-1480 403-401 900-576 1510-531 285 21 481 67 663 156 246 119 416 296 545 566l49 104v-815c0-448-4-858-9-910-17-175-52-245-136-270-23-7-168-15-365-20-333-8-358-12-379-50-6-12-10-158-10-395 0-403 2-419 51-446 15-7 364-13 1187-18 641-4 1176-6 1190-3 13 3 32 19 43 36 18 30 19 98 19 2816 0 1867 4 2806 10 2850 15 93 46 151 94 174 42 21 142 29 533 44 194 7 203 8 227 31l26 24v889l-28 28-28 28-355 6c-1386 27-1995 33-2026 21-67-28-68-32-71-404l-3-334-68 115c-204 346-431 540-758 648-194 63-328 82-613 86-135 1-274-1-310-6zm1085-884c382-102 580-507 625-1278 19-342 6-794-30-1050-78-533-273-777-665-829-166-22-320 2-460 70-278 136-443 481-507 1056-20 184-17 770 5 955 56 458 164 743 350 916 99 94 211 149 349 174 74 13 261 5 333-14z"/></g></svg>