<svg xmlns="http://www.w3.org/2000/svg" version="1" viewBox="0 0 13910 3640"><g fill="#33629a"><path d="M3396 3624c-532-105-859-511-917-1135-33-354 42-703 202-950 187-287 428-449 779-525 127-28 439-26 570 3 361 81 608 269 764 581 167 333 200 840 80 1209-142 436-476 734-915 818-105 20-463 19-563-1zm452-210c207-103 312-461 312-1064 0-523-88-874-265-1055-70-72-120-95-210-95-283 0-425 364-425 1090 0 633 139 1053 375 1138 17 6 59 11 96 11 51 1 76-5 117-25zM7640 3620c-157-24-393-67-444-81-37-10-38-11-32-47 12-72 18-2200 8-2537-12-358-20-414-76-509-34-59-52-70-156-97-47-12-91-27-97-32-8-5-13-32-13-63 0-64-26-53 285-113C7671 34 7867-1 7894 2l30 3-3 573-3 573 39-17c90-41 234-84 316-94 50-7 154-10 235-8 134 4 156 7 244 37 468 159 736 665 689 1301-29 402-158 703-400 933-157 149-350 250-590 308-75 19-123 22-386 25-259 3-317 1-425-16zm593-223c183-84 325-346 400-737 19-100 21-148 21-375 0-229-3-272-22-362-38-177-98-321-178-424-52-68-94-101-180-141-64-30-70-31-162-25-54 3-117 12-142 20l-45 14-9 234c-10 245 7 1769 19 1801 9 24 27 27 140 24 85-1 109-6 158-29zM10625 3629c-86-14-227-59-311-98-293-138-518-400-622-726-51-157-57-210-57-475 0-273 8-330 72-515 130-376 385-639 734-756 129-43 214-58 369-65 215-10 378 23 541 107 307 159 497 517 516 972l6 147h-1486l7 103c23 354 134 600 345 767 137 109 271 151 480 151 194 0 302-30 461-126 76-46 100-45 135 5 25 36 26 42 15 70-16 38-130 154-216 219-127 96-329 184-501 217-82 15-401 18-488 3zm237-1638c131-4 240-10 243-12 8-8-14-277-30-371-29-167-69-269-132-339-47-52-81-69-140-69-106 1-204 87-278 243-66 138-125 380-125 510v47l113-1c61 0 219-4 349-8zM12519 3625c-171-27-445-96-487-123-9-6-15-90-22-333-14-465-15-428 18-440 15-6 47-13 72-16l45-5 48 114c74 175 139 280 237 380 106 107 190 152 316 168 203 26 358-50 432-209 23-47 27-70 27-146 0-74-4-98-23-137-52-105-192-194-502-318-255-102-320-140-430-250-142-142-187-246-197-461-7-143 13-250 66-364 114-242 331-403 631-468 129-28 440-30 610-3 130 20 268 54 352 85l57 22 5 62c3 34 8 186 11 338l7 276-30 12c-17 7-47 16-67 21-43 10-50 1-90-104-89-235-204-392-339-460-181-91-358-67-463 62-56 69-77 139-71 246 5 98 21 132 98 206 76 74 188 138 410 236 234 103 276 124 376 190 143 94 240 224 278 370 24 93 22 337-4 437-22 86-74 198-126 269-54 73-163 168-249 217-96 55-274 116-378 130-110 15-512 12-618-4z"/><path d="M7 3573c-13-12-8-140 6-151 7-6 66-22 130-36 65-14 133-34 152-46 109-67 161-211 185-515 6-77 14-453 17-835 9-1117-14-1436-111-1588-57-89-123-124-280-148L0 237V60l1418 2 1417 3 6 180c4 99 8 326 10 504l4 325-57 17c-31 9-72 19-91 23-39 7-31 20-131-219-114-273-282-452-486-516-75-24-284-38-577-39-165 0-182 2-187 18-11 35-26 599-26 974v387l143-5c211-8 299-19 354-48 101-51 176-168 223-348l23-88h177v1212l-22-6c-13-3-53-6-89-6h-67l-21-87c-42-170-127-305-221-353-44-22-146-35-357-46l-143-7v281c0 700 43 981 169 1095 45 40 96 58 241 82 52 9 101 22 109 30 18 18 25 93 12 128l-11 27H917c-497 0-907-3-910-7zM4937 3573c-7-7-10-153-3-153 2 0 39-7 82-16 97-20 145-44 178-87 71-93 80-200 80-967 1-733-7-821-80-917-34-44-53-53-164-78l-95-20-3-62-3-62 38-10c97-26 993-201 1030-201 29 0 41 4 38 13-2 6-6 118-10 247l-6 235 48-80c107-177 225-291 377-365 110-53 164-63 315-58 104 4 136 9 185 29 33 13 64 31 69 40 7 11-8 64-56 195-90 248-175 465-192 491l-15 22-99-44c-129-57-200-75-303-75-94 0-175 18-248 55-91 46-85 3-85 640 1 709 14 867 79 966 14 21 40 46 58 55 37 19 163 43 228 44 26 0 51 5 58 12 12 12 17 114 6 142-6 14-81 16-753 16-411 0-751-3-754-7z"/></g></svg>