<svg xmlns="http://www.w3.org/2000/svg" width="8128" height="862" version="1"><g fill="none" fill-rule="nonzero"><g fill="#D2EAEF"><path d="M3623 851c-34-14-28-21 7-9 17 6 30 13 30 15 0 6-12 4-37-6zM4510 847c14-8 27-12 29-10 6 6-1 11-29 18l-25 7 25-15zM5180 663l5-197 3 189c1 104-1 193-5 197-5 5-6-81-3-189zM5597 854c-3-5 44-8 104-8s109 3 109 8c0 4-47 7-104 7-58 0-107-3-109-7zM5850 854c0-5 50-8 110-8 61 0 110 3 110 8 0 4-49 7-110 7-60 0-110-3-110-7zM6267 854c-3-5 42-8 99-8s104 3 104 8c0 4-45 7-99 7-55 0-102-3-104-7zM6667 854c-3-5 29-7 71-5 135 4 150 9 40 10-59 1-109-1-111-5zM5318 829c-13-13-17-18-8-12l35 22c11 6 15 12 8 12s-22-10-35-22zM1589 694c-5-14-8-30-6-36 1-5 8 7 14 27 13 42 7 49-8 9zM7139 694l-24-28 30 25 34 28c2 1 0 2-6 2-5 0-20-12-34-27zM7283 698c12-13 24-22 26-20 6 4-30 43-40 43-5 0 2-10 14-23zM7730 706c-33-19-21-19 21 0 19 8 27 14 19 14s-26-6-40-14zM1980 684c13-18 25-33 27-33 8 0-17 38-33 51-11 9-9 2 6-18zM5535 701l-40-7 37-2c20 0 40 4 43 9 3 6 5 9 3 9l-43-9zM5248 546c-2-74 0-135 5-135 4 0 7 61 7 135s-2 135-4 135c-3 0-6-61-8-135zM7682 656c-6-14-8-25-3-25 8 0 23 41 17 47-1 2-8-8-14-22zM7310 650c0-5 11-9 25-9s25 2 25 4-11 6-25 8c-14 3-25 1-25-3zM2003 551c0-36 2-50 4-32 2 17 2 47 0 65-2 17-4 3-4-33zM7538 561c2-22 7-38 11-36 9 6 1 76-8 76-4 0-5-18-3-40zM7111 470c-1-8 6-24 15-35 15-19 15-19 6 1l-15 35c-5 13-6 13-6-1zM7741 436c-1-22 16-45 33-45 5 0 3 6-6 13-9 6-18 21-21 32-5 20-5 20-6 0zM7501 402c-9-16-10-21-1-16 6 4 18-1 26-11 14-18 15-18 6 1l-14 35c-4 11-8 9-17-9zM1542 372c-6-17-9-31-6-31 7 0 25 52 20 57-2 2-8-10-14-26zM6852 359c-10-30-10-31 3-14s21 46 12 46l-15-32zM8036 315c-26-19-44-34-39-34 11 0 93 57 93 65 0 7 2 8-54-31zM6414 309l-19-23 22 19c20 16 25 17 40 5 16-13 17-12 4 4-18 22-24 22-47-5zM2002 306c-5-17-1-299 3-304 10-9 10 7 5 159-3 85-7 151-8 145zM5597 259c2-5 51-8 109-8 57 0 104 3 104 8 0 4-49 7-109 7s-107-3-104-7zM5850 259c0-5 50-8 110-8 61 0 110 3 110 8 0 4-49 7-110 7-60 0-110-3-110-7zM5253 196c0-38 2-53 4-32 2 20 2 52 0 70-2 17-4 1-4-38zM5345 101c11-5 27-9 35-9 9 0 8 4-5 9-11 5-27 9-35 9-9 0-8-4 5-9z"/></g><g fill="#028DC5"><path d="M5383 851c-46-11-80-35-100-73-15-26-19-63-21-200l-4-169-44 4-44 3V261h90V132l43-11 102-30 60-18 3 94 3 94h99v149l-47 3-48 3v133c0 146 2 152 63 152h32v147l-52 7c-64 7-93 6-135-4zM7140 851c-102-14-173-59-212-134-30-56-37-201-14-278 34-119 139-181 306-182 89-1 101 2 164 33 55 27 74 43 99 82l30 49 17-38c37-83 134-125 291-126 100 0 109 1 172 32 40 20 78 47 93 68 15 19 25 36 23 38s-41 16-87 30l-83 26-22-26c-52-60-198-44-174 19 7 17 36 26 172 51 168 31 220 77 212 189-4 64-32 103-97 137-49 25-181 43-259 35-112-11-168-31-216-79l-44-44-44 43c-69 65-192 94-327 75zm146-141c9-7 20-23 25-36 10-26 23-28 144-14 67 8 92 7 148-9l68-18 15 29c20 40 63 59 132 59 65 0 82-11 82-52 0-35-15-43-121-63-129-24-168-36-204-61l-34-23-3 37-3 37-214 3-214 2 6 36c7 39 30 71 62 85 26 11 92 4 111-12zm44-239c0-21-30-70-49-80-11-5-38-10-61-10-34 0-48 6-76 34-59 59-50 66 76 66 70 0 110-4 110-10zM5600 556V260l103 3 102 3v580l-102 3-103 3zM5855 839c-3-7-4-139-3-293l3-280h210l3 26 3 26 55-29c46-25 67-30 127-31 75-1 119 14 164 56 21 19 24 19 41 4 69-63 229-81 317-37 40 20 55 36 75 75 24 48 25 58 28 273l3 222h-209l-4-199c-3-175-5-201-21-219-35-38-115-33-153 9-17 19-20 43-24 213l-5 191-97 3-98 3V671c0-197-9-242-52-256-45-14-90-6-119 22l-29 27-2 191-3 191-103 3c-77 2-104-1-107-10zM5640 218a83 83 0 0 1-18-137c64-59 178-14 178 71 0 11-13 34-29 50-33 32-86 39-131 16z"/></g><g fill="#020202"><path d="M2429 851c-58-10-80-22-113-60-40-48-46-90-46-317V261h210v184c0 102 5 196 10 213 27 75 146 68 184-11 13-27 16-68 16-210V261h210v133l23-34c71-105 324-140 470-65l53 26c2 0 4-13 4-30 0-29 2-30 45-30h45v-65c0-36 1-65 3-65l190-56c15-5 17 4 17 90v96h100v150h-100v133c0 144 4 157 52 157 26 0 28-3 28-37 0-101 90-156 298-183 104-14 132-24 132-49 0-50-140-54-213-5l-41 27-42-24c-23-12-53-30-65-40l-22-17 27-26c61-62 207-103 321-91 93 10 136 26 181 70 53 51 64 90 64 235 0 119 12 160 46 160 11 0 14 14 14 60 0 54-2 60-22 64-101 20-176 9-207-30l-19-24-48 25c-122 62-306 51-364-23l-20-25v80l-68 7c-39 4-89 2-117-4-110-25-118-43-125-265l-5-170-37-3c-21-2-68 6-105 17l-68 20-26-25c-62-59-194-48-175 14 7 21 28 28 196 61 58 11 116 29 130 39 65 49 84 147 41 216-31 49-97 81-198 96-154 23-317-16-374-88l-19-25v113h-210v-59l-57 29c-64 32-134 42-204 30zm845-146c19-18 20-28 6-54-12-22-46-34-165-55-109-20-171-47-196-89l-19-31v98c0 53 3 97 8 97l77-19c39-11 71-16 73-11 8 21 46 62 66 70 37 15 133 12 150-6zm936 1c35-18 47-38 51-84l4-35-59 3c-97 4-146 32-146 82 0 16 7 32 18 38 26 15 99 13 132-4zM0 426V0l103 3 102 3 3 157 3 158 37-25c76-50 191-56 281-13 34 17 48 31 67 72 23 49 24 60 24 274v222H410V657c0-177-2-195-20-218-36-46-120-41-160 9-19 24-20 39-20 214v189H0V426zM670 556V261h210v590H670zM930 556V261h210v30c0 17 2 30 5 30s23-11 44-25c87-58 237-54 306 7 56 48 65 98 65 340v208h-209l-3-199c-3-175-5-201-21-219-36-40-114-33-158 14-23 25-24 30-27 215l-4 189H930V556zM1737 841c-51-16-99-61-126-119-23-50-26-68-26-167 0-103 2-114 30-169 45-87 100-119 214-123 75-3 92 0 133 21l47 24 3-151 3-151 103-3 102-3v851h-101c-92 0-101-2-106-20-6-24-2-24-44-3-38 20-185 28-232 13zm244-149c28-29 29-32 29-136s-1-107-29-136c-23-23-38-29-71-29-51 0-76 13-94 49-36 70-27 212 16 258 17 18 32 23 71 23 40 0 53-5 78-29zM4550 556V261h210v30c0 17 2 30 5 30s23-11 44-25c83-55 235-54 301 2 62 51 65 65 68 321l4 232h-212V664c0-211-5-229-62-251-34-13-41-12-82 8-60 29-66 52-66 263v167h-210V556zM723 219c-11-5-29-25-38-42-16-29-16-36-4-62 8-16 31-37 52-48 102-50 200 67 116 138-33 28-85 34-126 14z"/></g></g></svg>