<svg xmlns="http://www.w3.org/2000/svg" version="1" viewBox="0 0 16000 1860"><path d="M3615 1855c-5-1-39-10-75-20-134-35-222-84-305-170-97-100-144-235-145-415 0-90 6-133 50-380 11-58 29-159 40-225l40-220c10-55 28-156 40-225s24-135 26-148l4-22h598l-5 43c-2 23-11 74-20 112-8 39-18 95-22 125s-16 96-25 145c-41 210-90 482-107 590-36 222 5 328 135 355 88 18 164-1 219-55 68-68 99-165 157-500 12-66 29-165 40-220 10-55 28-156 40-225s30-169 41-223c10-54 19-109 19-122V30h600v28c0 15-9 79-21 142-44 239-58 319-79 440-12 69-30 172-40 230s-29 161-41 230c-20 117-62 286-80 320-4 8-22 46-41 84-18 37-39 71-45 73-7 3-13 11-13 18s-30 41-67 75c-98 90-171 126-338 166-91 22-120 24-335 23-129 0-239-2-245-4zM10445 1843c-27-8-63-18-80-22-62-17-205-95-205-112 0-5-5-9-11-9-14 0-88-76-120-126-102-154-135-277-133-504 1-141 21-303 48-380 9-25 16-51 16-57 0-28 96-215 145-282 24-33 176-180 198-193 159-86 200-102 327-134 83-21 118-24 281-24 156 0 199 3 270 21 196 50 307 124 437 294 18 24 62 126 84 195 21 69 23 91 22 285-1 202-2 215-33 335-17 68-36 129-41 134-6 6-10 17-10 25-1 26-41 102-107 203-54 80-238 248-273 248-7 0-23 9-37 20s-31 20-37 20c-7 0-31 9-54 20-22 11-47 20-54 20s-42 9-76 20c-56 18-91 20-285 19-164-1-235-5-272-16zm423-477c92-48 137-110 185-257 63-191 78-391 38-488-28-69-54-97-116-127-133-64-288 8-362 166-65 138-93 271-93 435 1 123 2 133 28 180 18 32 46 62 76 83 44 29 55 32 122 32 59 0 84-5 122-24zM12153 1835c-75-21-155-55-208-88-40-24-131-123-154-167-27-51-52-130-46-141 3-4 22-10 42-13 36-7 67-15 213-56 254-71 272-74 278-47 2 10 22 36 44 57 83 78 225 87 283 18 29-35 33-92 9-127-17-24-132-81-164-81-23 0-108-33-197-76-135-66-214-147-270-276-25-60-27-71-26-218 0-144 2-160 26-223 35-89 69-141 131-203 85-84 148-119 306-170 44-14 100-19 271-22 200-3 223-2 300 19 89 24 209 76 209 90 0 5 5 9 12 9 18 0 101 95 124 142 37 76 48 119 33 129-8 5-20 9-27 9-8 0-44 9-80 19-37 10-96 26-132 36-36 9-87 23-115 31-139 41-159 44-170 27-24-39-67-72-116-88-43-15-58-16-93-5-22 6-51 21-63 33-45 41-39 122 10 158 13 9 84 37 157 62 235 80 330 134 414 238 95 118 128 290 92 479-27 138-78 222-201 328-37 32-178 92-272 116-95 24-116 26-320 25-197-1-226-3-300-24zM0 935V40h971l-6 53c-4 28-15 97-25 152s-28 152-39 215c-32 181-60 340-82 467-11 65-29 166-40 226-37 210-57 324-79 447-12 69-26 149-31 178l-10 52H0V935zM970 1820c0-5 6-42 14-82s24-129 36-198c24-143 53-308 80-460 10-58 28-161 40-230s30-170 40-225 28-156 40-225c11-69 31-178 43-242l22-118h595v23c0 12-9 65-19 117-11 52-29 149-41 215-24 139-40 221-47 253l-5 22h491l10-52c5-29 20-107 31-173 12-66 30-163 41-215 10-52 19-106 19-120s3-35 6-48l6-22h599l-6 53c-4 28-15 97-25 152-21 119-51 283-80 455-12 69-30 170-40 225s-28 156-40 225c-11 69-29 172-40 230-44 250-60 348-68 395l-7 50-304 3-303 2 6-22c3-13 8-41 11-63 7-49 40-236 65-370 11-55 22-124 26-152l6-53h-492v28c0 15-8 72-19 127-22 112-57 309-66 370-4 22-11 61-17 88l-10 47h-299c-187 0-299-4-299-10zM4970 1820c0-5 6-42 14-82s24-129 36-198 29-172 40-230c10-58 28-161 40-230s30-172 40-230 28-161 40-230 30-170 40-225 29-160 42-233l23-132h1286l-6 38c-7 47-41 240-63 357l-17 90-341 3-341 2-21 108c-11 59-23 131-27 160l-6 52h493l-6 23c-6 22-18 88-58 307-11 63-22 121-24 128-3 9-61 12-247 12h-244l-11 58c-30 164-46 252-52 297-4 28-13 76-20 108l-11 57h-300c-187 0-299-4-299-10zM6512 1773c5-32 18-105 28-163 26-147 56-314 80-455 11-66 30-169 40-230 11-60 29-164 40-230 12-66 30-167 40-225 35-202 62-355 68-395l7-40 644-3 644-2-7 37c-3 21-11 71-16 111-5 41-14 91-20 112s-15 73-20 116c-6 43-13 86-16 96-5 17-29 18-349 18h-344l-6 38c-3 20-14 87-25 148s-20 116-20 122c0 9 62 12 240 12h240v38c0 34-15 120-58 342l-17 85-245 5-244 5-17 90c-31 164-58 319-65 373l-6 52h-605l9-57zM8040 1813c0-10 9-63 19-118 19-97 36-190 81-455 12-69 30-170 40-225s28-156 40-225 30-177 42-240c11-63 28-162 38-220s27-149 36-204l18-98 475 5c476 4 476 4 557 30 44 13 105 37 135 52 71 37 178 145 212 215 32 67 57 187 57 273 0 121-40 311-83 392-6 11-20 38-31 59-28 53-108 140-165 179-148 103-282 135-587 144l-201 6-22 101c-12 56-21 110-21 121s-10 66-22 122l-23 103h-297c-277 0-298-1-298-17zm1049-923c63-32 109-93 117-156 11-90-1-139-44-174-50-42-92-52-196-48l-90 3-17 85c-9 47-25 126-34 175-10 50-20 100-23 113-4 22-4 22 122 22 106 0 133-3 165-20zM13757 1788c2-24 13-88 23-143s27-154 39-220c11-66 29-172 40-235 29-166 59-339 81-460 10-58 21-129 25-157l6-53h-459l5-43c2-23 13-85 23-137s27-140 37-195l18-100 756-3 756-2-12 67c-19 105-54 302-62 358l-8 50-222 3-221 2-11 51c-6 27-11 60-11 72s-8 64-19 117c-10 52-29 151-41 220s-30 177-41 240-29 160-39 215c-31 167-60 339-63 365l-2 25-302 3-301 2 5-42zM15035 1783c3-27 15-93 25-148s28-156 40-225 30-172 40-230 28-159 40-225c11-66 29-167 39-225 11-58 29-161 41-230s30-172 40-230c11-58 22-127 25-154 4-27 9-55 12-62 4-12 65-14 334-14h329v1790h-971l6-47z"/><g fill="#0dbe98"><path d="M0 935V40h971l-6 53c-4 28-15 97-25 152-11 55-28 154-40 220-22 128-50 283-80 455-10 58-28 159-40 225-11 66-29 167-40 225-10 58-28 161-40 230s-26 149-31 178l-10 52H0V935zM15036 1783c3-27 14-93 24-148s28-156 40-225 30-172 40-230c11-58 29-159 40-225s29-167 39-225c11-58 29-161 41-230s30-172 40-230c11-58 22-127 25-154 4-27 9-55 12-62 4-12 65-14 334-14h329v1790h-970l6-47z"/></g></svg>