<svg xmlns="http://www.w3.org/2000/svg" version="1" viewBox="0 0 12620 4440"><g fill="#4a4a4a"><path d="M6915 4426c-167-29-270-138-312-329-24-110-21-369 5-469 58-215 177-313 408-334 80-7 222 9 298 34l51 17-1 48c-1 65-11 73-70 53-196-66-430-31-501 75-108 164-107 561 2 704 56 74 204 113 354 94 45-5 93-14 106-19l25-9 2-228 3-228h110l3 273 2 273-37 16c-92 38-311 52-448 29zM5862 2223l3-2198h110l3 2198 2 2197h-120l2-2197zM6322 3868l3-553h120l3 553 2 552h-130l2-552zM7522 3868l3-553 55-3 55-2 290 437 290 438 5-435 5-435h100l3 553 2 553-50-3-50-3-300-450-300-450v905h-110l2-552zM8532 3868l3-553h120l3 553 2 552h-130l2-552zM9060 3925v-495l-167-2-168-3v-110h800v110l-167 3-168 2v990h-130v-495zM9572 3868l3-553h659l9 43c15 76 29 72-273 72h-270v360l233 2 232 3v100l-232 3-233 2v410l283 2 282 3 3 53 3 52h-701l2-552zM8900 2799c-160-27-262-129-307-306-14-53-17-111-17-268 1-172 4-211 22-278 60-220 204-310 466-294 203 13 313 92 366 266 57 184 48 526-19 676a417 417 0 0 1-170 173c-88 39-222 50-341 31zm256-134c51-15 105-59 129-105 45-86 67-324 46-483-31-228-103-300-301-301-180-2-258 47-302 186-21 65-23 93-23 258 0 201 9 261 53 343 46 85 112 115 258 116 52 1 111-5 140-14zM6325 2778c-3-7-4-258-3-558l3-545h120v1110l-58 3c-40 2-59-1-62-10zM6645 2778c-3-7-4-258-3-558l3-545h120l280 422 293 440c10 15 12-62 10-422l-3-440h110v1110h-90l-300-449-300-448-5 448-5 449-53 3c-36 2-54-1-57-10zM7645 2778c-3-7-4-258-3-558l3-545 55-3 55-2 290 437 290 438 5-435 5-435h100v1110l-42 3-42 3-305-458-306-458-2 455-3 455-48 3c-32 2-49-1-52-10zM9843 2778c-16-21-402-1091-397-1100 3-4 32-8 65-8 58 0 60 1 74 33 10 25 197 554 312 886l16 43 167-478 167-479h64c52 0 63 3 61 15-4 22-382 1060-393 1082-8 14-22 18-68 18-35 0-62-5-68-12zM10256 2782c-3-5 89-256 204-558l208-549 65-3c43-2 67 1 74 10 20 26 415 1079 409 1093-7 19-109 21-124 3-5-7-31-73-57-145l-47-133h-503l-51 143-50 142-61 3c-34 2-64-1-67-6zm684-408c0-5-171-491-192-544-9-22-17-6-73 150l-104 288-40 112h204c113 0 205-3 205-6zM11417 2784c-4-4-7-229-7-500v-494l-167-2-168-3v-110h800v110l-167 3-168 2-2 498-3 497-55 3c-31 2-59 0-63-4zM11925 2778c-3-7-4-258-3-558l3-545h670v110l-272 3-273 2v360l238 2 237 3v100l-237 3-238 2v410h573l-7 38c-3 20-6 47-6 60v22h-340c-263 0-342-3-345-12zM7795 1160c-73-10-170-43-205-69-21-16-25-26-22-62 5-69 13-72 95-33 116 55 280 64 364 20 121-62 137-241 29-315-22-15-70-39-106-53l-136-52c-168-64-242-149-244-282 0-86 25-150 83-209 73-72 116-85 283-85 104 0 146 4 197 20 80 25 88 34 77 84-13 59-20 61-97 35-55-20-88-24-178-24-95 0-116 3-153 23a164 164 0 0 0-80 197c17 52 75 95 174 130 235 83 304 127 349 219 24 50 27 64 24 143-5 109-37 184-104 238-78 64-215 94-350 75zM6325 1138c-3-7-4-258-3-558l3-545h120v1110l-58 3c-40 2-59-1-62-10zM6645 1138c-3-7-4-258-3-558l3-545h120l293 440 293 440-3-440-3-440h110v1110h-90l-300-448-300-448-5 448-5 448-53 3c-36 2-54-1-57-10zM8345 1138c-3-7-4-258-3-558l3-545 230-3c207-2 237 0 297 18 82 25 147 84 173 157 41 116 27 285-31 372-62 95-137 120-376 128l-178 6-2 216-3 216-53 3c-36 2-54-1-57-10zm470-559c52-15 100-65 115-120 17-61 8-177-17-225-14-27-35-46-68-64-45-23-61-25-217-28l-168-4v452h158c86 0 175-5 197-11zM9185 1138c-3-7-4-258-3-558l3-545h120v1110l-58 3c-40 2-59-1-62-10zM9505 1138c-3-7-4-258-3-558l3-545 229-3c262-3 305 4 374 64 73 62 87 100 87 239 0 115-1 122-30 174-31 57-94 107-147 118-16 3-28 10-28 15s63 115 141 244c82 137 138 242 135 250-4 12-20 14-68 12l-63-3-139-242-139-243h-227l-2 243-3 242-58 3c-40 2-59-1-62-10zm480-614c63-32 87-88 83-196-3-97-18-127-79-163-29-17-56-20-196-24l-163-3v414l158-3c134-4 163-7 197-25zM10335 1138c-3-7-4-258-3-558l3-545 328-3 327-2 11 27c5 15 9 41 7 57l-3 31-272 3-273 2v350l233 2 232 3v110l-232 3-233 2v410l283 2 282 3v110l-343 3c-269 2-344 0-347-10z"/></g><g fill="#de1920"><path d="M544 4421a503 503 0 0 1-311-246c-51-98-107-325-85-347 14-14 301-31 316-19 7 6 16 33 19 59 14 122 87 234 161 248 124 23 219-71 219-216 0-58-5-80-33-137-28-58-57-90-184-213-290-278-359-358-415-482-38-85-51-150-51-266 0-157 40-276 126-371 97-108 205-152 371-152 217-1 376 90 461 264 43 86 70 213 51 232-8 7-79 24-159 39-163 29-162 29-174-45-10-61-52-137-89-159-42-26-112-26-155 0-70 43-99 171-63 288 28 95 87 178 189 270 250 225 323 305 391 434 58 109 81 193 81 302 0 220-99 400-265 482-71 35-75 36-211 39-77 2-162 0-190-4zM2668 4420c-141-25-299-179-348-337-19-62-20-92-20-722 0-405 4-673 11-700a568 568 0 0 1 229-311c115-73 297-95 430-50a525 525 0 0 1 334 352c15 49 16 132 14 729l-3 674-23 57a589 589 0 0 1-282 290c-51 22-260 34-342 18zm202-352c25-13 55-38 67-57l23-34v-621c0-586-1-623-19-656-54-103-219-105-282-3l-24 38-3 593c-2 388 1 605 8 631 14 52 45 90 94 112 54 24 83 24 136-3zM1567 4414c-4-4-7-402-7-885v-879l-162-2-163-3v-340h1000v340l-162 3-163 2-2 883-3 882-166 3c-91 1-168-1-172-4zM3415 4408c-3-7-4-483-3-1058l3-1045h315c297 0 319 1 385 22a412 412 0 0 1 291 310c21 78 31 427 15 543a524 524 0 0 1-119 271l-41 46 114 449c64 247 113 455 110 462-3 9-49 12-180 12-158 0-176-2-182-17-4-10-48-187-98-393l-92-375-91-3-92-3-2 393-3 393-163 3c-124 2-164 0-167-10zm585-1140c33-17 51-35 68-68 22-43 23-53 20-245-3-223-9-245-68-279-29-17-56-22-152-25l-118-3v642h103c87 0 110-4 147-22zM4850 3975v-445l-210-606c-116-333-208-610-204-615 7-12 361-12 369 0a15857 15857 0 0 1 225 736c6 4 10-7 10-25 0-35 196-687 212-707 8-10 57-13 185-13 147 0 175 2 180 15 3 9-90 289-206 623l-211 607v875h-350v-445zM1573 2156a533 533 0 0 1-336-277c-56-114-59-161-55-854 4-589 4-612 25-672 28-85 72-151 148-221 83-78 147-108 260-122 72-9 109-8 187 3 113 17 163 42 250 125 70 67 113 132 141 215 21 60 22 82 25 671 3 670-1 743-46 840a553 553 0 0 1-297 276c-74 28-224 36-302 16zm199-362c36-18 66-59 78-105 7-26 10-245 8-636l-3-598-24-38c-27-44-85-77-137-77-54 0-119 35-146 78l-23 37v620c0 602 1 621 20 654 48 81 141 108 227 65zM2840 2160a519 519 0 0 1-410-435c-7-51-10-376-8-890l3-810h330l5 835c5 767 6 838 22 867a169 169 0 0 0 296 0c16-29 17-100 22-867l5-835h350l3 805c1 497-1 837-8 890a518 518 0 0 1-610 440zM417 2134c-4-4-7-205-7-447v-440L219 697C46 199 0 58 0 30c0-6 73-10 180-10 178 0 181 0 190 23 22 50 210 670 210 693 0 13 5 24 10 24 6 0 10-15 11-32 0-18 46-184 103-368L806 25l182-3c147-2 183 0 188 11 3 8-89 281-203 608l-208 594-5 450-5 450-166 3c-91 1-168-1-172-4zM3665 2128c-3-7-4-483-3-1058l3-1045h315c336 0 369 4 465 51 59 30 136 102 171 161 52 89 64 173 64 437s-7 317-57 409c-15 27-45 69-66 93-32 36-38 50-33 72l115 455c78 305 106 430 97 433-6 2-90 3-186 2l-174-3-27-110-94-387-67-278h-188l-2 388-3 387-163 3c-124 2-164 0-167-10zm611-1145c58-42 64-68 64-297 0-295-8-306-222-314l-118-4v644l123-4c107-3 126-6 153-25z"/></g></svg>