<svg width="209" height="373" viewBox="0 0 209 373" xmlns="http://www.w3.org/2000/svg" xmlns:xlink="http://www.w3.org/1999/xlink"><defs><rect id="a" width="209" height="373" rx="8"/><path id="c" d="M0 0h211v43H0z"/><path id="e" d="M0 0h116v112H0z"/><path d="M26 .34c14.326 0 26 11.805 26 26.293S40.326 52.926 26 52.926 0 41.12 0 26.633 11.674.34 26 .34zm0 5.634c-11.315 0-20.43 9.216-20.43 20.66C5.57 38.075 14.686 47.29 26 47.29s20.43-9.216 20.43-20.66C46.43 15.19 37.314 5.975 26 5.975zm0 3.757c1.538 0 2.786 1.262 2.786 2.818v12.47l9.053 5.283c1.332.78 1.784 2.498 1.015 3.845-.77 1.348-2.47 1.805-3.8 1.027L24.606 29.07c-.83-.49-1.393-1.395-1.393-2.437V12.548c0-1.556 1.248-2.817 2.786-2.817z" id="g"/><path id="i" d="M.347 0H105.77v112H.346z"/><path d="M50.096 5.212c1.04 0 1.848.803 1.848 1.778v29.99c0 3.155-2.6 5.62-5.715 5.678H5.714C2.595 42.658 0 40.078 0 36.98V1.945C0 .97.808.11 1.788.11h40.518c1.04 0 1.903.86 1.903 1.834v3.268h5.886zm-44.38 33.72H40.86c-.232-.632-.348-1.32-.348-1.95V3.835H3.75V36.98c0 1.09.87 1.95 1.965 1.95zm42.477-1.95V8.88H44.15v28.1c0 1.09.923 1.95 2.023 1.95 1.152 0 2.02-.86 2.02-1.95zm-24.82-12.903v-3.27h13.39v3.27h-13.39zm0 8.486v-3.27h13.39v3.27h-13.39zM7.386 9.112h29.375v6.537H7.387V9.11zm0 23.454v-11.7h12.41v11.7H7.387z" id="k"/><path id="m" d="M0 0h122v112H0z"/><path d="M42.713 2.833c0-1.586-1.49-2.776-3.038-2.493l-24.54 4.93c-1.203.227-2.063 1.303-2.063 2.493v28.674s.23 2.55-3.096 2.55h-3.9c-3.267 0-5.96 2.663-5.96 5.893s2.693 5.893 5.96 5.893h3.5c3.84 0 6.477-2.153 6.477-6.346v-26.35c.058-.624.402-1.814 2.35-2.154l19.036-3.796c.8-.114 2.292-.057 2.292 1.87v17.736s.23 2.55-3.096 2.55h-3.9c-3.267 0-5.96 2.664-5.96 5.894s2.693 5.893 5.96 5.893h3.5c3.84 0 6.477-2.153 6.477-6.347V2.833z" id="o"/><path id="q" d="M.347 0H105.77v112H.346z"/><path d="M30.965.34H4.647C2.077.346 0 2.4 0 4.932V19.42c0 1.214.49 2.376 1.36 3.232.875.855 2.058 1.334 3.287 1.33h3.68v5.145c0 2.078 1.103 2.463 2.454.863l5.074-6.008h15.11c1.235.004 2.413-.475 3.287-1.33.87-.856 1.362-2.018 1.362-3.23V4.93c0-2.53-2.076-4.585-4.647-4.593z" id="s"/><path d="M31.948 0H7.168C3.29 0 .072 3.183.072 7.102v.94h14.265c4.41 0 7.993 3.557 7.993 8.015v11.655h4.176l4.194 5.055c1.33 1.603 2.413 1.206 2.404-.886l-.018-4.252c3.34-.572 5.914-3.61 5.914-7.137V7.103C39 3.182 35.825 0 31.948 0z" id="u"/><path id="w" d="M0 0h116v112H0z"/><path d="M30.32 33.773c-.64.053-1.225-.266-1.81-.585-5.38-3.143-9.96-7.617-13.156-12.942-.586-.906-1.12-1.97-.905-3.036.37-2.024 2.928-2.823 3.673-4.74.693-1.65-.212-3.515-1.278-4.954-1.757-2.396-3.994-4.473-6.55-6.018C9.07.753 7.737.114 6.3.008-.144-.313-.517 10.445.335 14.653c.906 4.367 3.09 8.414 5.645 12.09C12 35.477 20.254 42.88 30.267 46.395c3.515 1.225 7.296 1.97 10.918 1.118 1.81-.426 3.515-1.225 4.793-2.61 1.278-1.33 1.97-3.248 1.652-5.06-.32-1.863-1.598-3.354-2.877-4.686-1.864-1.917-3.94-3.622-6.178-5.113-.426-.266-.852-.532-1.33-.586-.534-.054-1.013.212-1.492.48-1.332.745-2.557 1.65-3.622 2.662-.478.48-1.01.958-1.65 1.065-.054.053-.107.106-.16.106z" id="y"/><path id="A" d="M.347 0H105.77v112H.346z"/><path d="M49.913 20.2c1.4 0 2.566 1.154 2.738 2.54v6.463c0 1.385-1.166 2.54-2.565 2.54H47.52c-.466 1.79-1.164 3.405-2.038 4.963l1.804 1.79c.995.98.995 2.596 0 3.577l-4.663 4.617c-.99.982-2.622.982-3.617 0l-1.804-1.79c-1.576.867-3.268 1.56-5.016 2.02v2.54c0 1.386-1.167 2.54-2.566 2.54h-6.588c-1.4 0-2.567-1.154-2.567-2.54v-2.54c-1.808-.46-3.44-1.153-5.01-2.02l-1.81 1.79c-.99.982-2.627.982-3.617 0l-4.663-4.617c-.99-.98-.99-2.597 0-3.578l1.81-1.79c-.875-1.557-1.577-3.23-2.042-4.962H2.566C1.166 31.743 0 30.646 0 29.26v-6.52c0-1.386 1.167-2.54 2.566-2.483h2.506c.47-1.79 1.167-3.404 2.04-4.963l-1.807-1.79c-.99-.98-.99-2.596 0-3.577L9.972 5.31c.99-.982 2.622-.982 3.613 0l1.808 1.79c1.576-.867 3.264-1.56 5.017-2.02V2.54c0-1.386 1.162-2.54 2.56-2.54h6.533c1.4 0 2.567 1.154 2.506 2.54v2.48c1.808.463 3.44 1.156 5.016 2.02l1.808-1.788c.99-.98 2.622-.98 3.612 0l4.668 4.617c.99.98.99 2.596 0 3.577l-1.808 1.79c.874 1.558 1.57 3.23 2.04 4.963h2.567zM26.24 38.957c7.23 0 13.12-5.83 13.12-12.986 0-7.155-5.89-12.984-13.12-12.984-7.23 0-13.12 5.83-13.12 12.985 0 7.158 5.89 12.987 13.12 12.987z" id="C"/></defs><g fill="none" fill-rule="evenodd"><mask id="b" fill="#fff"><use xlink:href="#a"/></mask><use fill="#D8D8D8" xlink:href="#a"/><g mask="url(#b)"><g transform="translate(-1)"><mask id="d" fill="#fff"><use xlink:href="#c"/></mask><path fill="#1B2162" mask="url(#d)" d="M-2 45h215V-3H-2"/></g><g fill="#FFF"><path d="M175.667 13.83l-1.42-.686-3.004 3.962c-.97 1.237-1.37 1.972-1.37 3.11 0 1.854 1.57 3.158 3.724 3.158 1.352 0 2.454-.452 3.205-1.087l-.768-1.27c-.668.568-1.52.92-2.554.92-1.252 0-1.987-.736-1.987-1.706 0-.885.4-1.353 1.102-2.372l3.072-4.028zm3.706 4.38c-.3 0-.56-.11-.776-.327-.217-.217-.326-.476-.326-.777 0-.3.11-.56.327-.777.217-.22.476-.327.776-.327.3 0 .56.108.777.326.217.216.325.475.325.776 0 .3-.108.56-.325.777-.217.217-.476.326-.777.326zm-1.102 4.813c0-.3.11-.56.327-.778.217-.217.476-.326.776-.326.3 0 .56.108.777.325.217.218.325.477.325.778 0 .3-.108.56-.325.777-.217.217-.476.326-.777.326-.3 0-.56-.11-.776-.326-.217-.217-.326-.477-.326-.777zm9.084 1.002h-1.503v-.15c.152-.184.252-.485.252-.786 0-.703-.668-1.237-2.872-2.758v-.936c1.135-.502 1.953-.953 2.52-1.404h-.266c-1.17 0-2.504-.92-2.504-2.44 0-1.505 1.102-2.575 2.704-2.575 1.653 0 2.805 1.154 2.805 2.658 0 1.872-1.203 3.326-3.457 4.412 1.954 1.354 2.638 2.09 2.638 3.01 0 .367-.15.734-.316.968zm-1.035-6.92c.1 0 .2 0 .283-.016.3-.47.4-.937.4-1.472 0-.77-.517-1.287-1.285-1.287-.752 0-1.27.47-1.27 1.27 0 .904.786 1.506 1.87 1.506zm12.42 6.686l-1.87-3.993c.318-.368.4-.702.4-1.12 0-.67-.583-1.304-1.168-1.89l-1.068.436.35 1.738c-.267.218-.717.436-1.536.436-1 0-1.72-.652-1.72-1.89 0-1.253.635-2.623 1.687-3.743l-1.32-.82c-1.168 1.338-1.952 2.926-1.952 4.63 0 2.023 1.402 3.243 3.24 3.243.95 0 1.535-.217 1.952-.434l1.302 3.744 1.703-.335zM11.76 13.938l-.417.446c-.438-.12-.683-.475-.683-.93 0-.585.498-1.076 1.21-1.076.927 0 1.38.676 1.38 1.39 0 1.136-.942 1.715-1.98 1.678l-.01.03c.217.163.454.327.818.66l.898.863-.587.4-1.744-1.68-.55-.437.41-.542c.243.097.533.134.763.134.726 0 1.268-.408 1.268-1.1 0-.534-.312-.81-.646-.81s-.527.217-.527.484c0 .215.126.423.394.49zm2.306 3.343v-4.827h1.566v.572h-.86v4.256h-.706zm-1.773.47c.43.616 1.024 1.128 1.803 1.128.423 0 .794-.2.794-.646 0-.305-.223-.52-.527-.52-.297 0-.482.15-.593.327l-.483-.417c.245-.312.586-.513 1.106-.513.682 0 1.202.43 1.202 1.122 0 .594-.423 1.24-1.492 1.24-1.15 0-1.93-.742-2.322-1.255l.513-.468zm5.78-1.724h-.03l-1.736 1.292-.556-.497 1.025-.58v-.03c-.445-.065-.95-.467-.95-1.195 0-.86.764-1.39 1.61-1.292l.11.624c-.622-.104-1.008.208-1.008.706 0 .416.297.713.727.713.475 0 .81-.35.81-.862v-1.88h-2.798v-.57h6.203v.57h-2.717v1.122h.03c.148-.178.453-.386.92-.386.705 0 1.29.513 1.29 1.307 0 .922-.748 1.434-1.6 1.338l-.113-.624c.616.105 1.002-.215 1.002-.705 0-.424-.29-.713-.712-.713-.49 0-.817.356-.817.86v2.06h-.69v-1.256zm6.67-3v4.255h-.704v-1.21h-.03c-.15.18-.475.41-1.01.41-.757 0-1.402-.55-1.402-1.39 0-1.063.927-1.53 1.81-1.375l.052.632c-.556-.15-1.127.11-1.127.735 0 .453.31.78.793.78.572 0 .913-.453.913-1.017v-1.82h-2.917v-.572h4.482v.572h-.86zm2.932 0h-.868v4.255h-.698v-4.255h-.86v-.572h2.425v.572zm1.135 2.242l-.007.022c.156.18.304.342.534.632l.817 1.04-.572.364-1.988-2.556.526-.416c.164.208.357.38.66.38.283 0 .44-.127.44-.454v-1.255H27.31v-.572h3.428v.572h-.824v1.3c0 .646-.423.928-.913.958-.044 0-.14 0-.193-.015zm2.716 2.994h-.608l.512-1.828h.72l-.624 1.828zm8.8-5.81v.573h-.86v4.256h-.698v-1.878c-.11.052-.267.09-.452.09-.193 0-.356-.046-.497-.105.006.044.006.09.006.14 0 .744-.564 1.323-1.47 1.323-.734 0-1.2-.38-1.424-.63l.482-.477c.164.23.483.498.95.498.505 0 .772-.31.772-.697 0-.386-.275-.617-.787-.617h-.4v-.61h.236c.46 0 .735-.266.735-.675 0-.355-.23-.593-.608-.593-.31 0-.512.14-.645.334l-.468-.43c.207-.282.6-.512 1.135-.512.78 0 1.26.483 1.26 1.15 0 .447-.26.79-.526.915v.03c.14.037.296.11.422.222.178.097.393.156.646.156.29 0 .49-.073.63-.147v-1.738h-.734v-.572h2.293zm2.665 4.83v-4.257h-1.246v2.808h-.712c-.327-.253-.46-.684-.468-1.01l.49-.357v-1.44H39.97v-.573h4.57v.572h-.86v4.256h-.69zm4.43-2.57c.245 0 .468-.03.654-.098.244-.43.704-.66 1.202-.66h1.083v-.93h-3.592v1.353c0 .09-.008.17-.023.245.193.06.438.09.676.09zm-1.766.608l-.007.022c.163.18.312.342.542.632l.808 1.04-.572.364-1.966-2.533.527-.424c.148.187.334.365.645.365.275 0 .438-.134.438-.453v-1.307h-1.885v-.572h7.74v.572h-.87v4.256h-.696v-2.71h-.95c-.46 0-.787.267-.787.795 0 .69.37 1.203.853 1.552l-.534.43c-.542-.4-1.04-1.09-1.04-1.997v-.037c-.125.022-.266.03-.422.03-.393 0-.772-.082-1.04-.216-.14.11-.325.17-.518.193-.067.007-.186.015-.268 0zm10.663 1.96h-.667v-.066c.066-.08.11-.215.11-.35 0-.31-.296-.55-1.275-1.225v-.417c.504-.222.868-.423 1.12-.624h-.12c-.518 0-1.112-.41-1.112-1.085 0-.67.49-1.144 1.202-1.144.735 0 1.247.513 1.247 1.182 0 .832-.534 1.478-1.536 1.96.868.603 1.172.93 1.172 1.338 0 .164-.066.327-.14.43zm-.46-3.074c.045 0 .09 0 .127-.008.133-.208.178-.416.178-.653 0-.342-.23-.572-.572-.572-.334 0-.564.208-.564.564 0 .4.35.67.83.67zm5.52 2.97l-.83-1.774c.14-.164.178-.312.178-.498 0-.297-.26-.58-.52-.84l-.474.194.157.772c-.12.097-.32.193-.683.193-.445 0-.764-.29-.764-.84 0-.556.282-1.165.75-1.663l-.587-.364c-.52.594-.868 1.3-.868 2.058 0 .9.623 1.44 1.44 1.44.422 0 .682-.096.867-.192l.58 1.664.756-.15zM11.135 25.84l-.386.155c-.327-.186-.587-.587-.587-1.114l.505-.378h1.847V23.24H9.822v-.573h4.252v.572h-.86v4.255h-.7v-2.377h-1.38v.72zm5.818-4.585c-.342 0-.564.23-.564.558 0 .35.244.676.592.854h1.076v.572h-1.024v1.232h-1.402c-.438 0-.512.15-.512.37 0 .217.178.447.423.514l1.24-.267c.28.103.615.46.615 1.03 0 .714-.586 1.086-1.217 1.13v.03l1.196.765-.742.394-1.217-1.086c-.816-.015-1.15-.416-1.15-.78 0-.223.126-.38.274-.453l1.018.677h.208c.49 0 .964-.2.964-.668 0-.21-.104-.343-.178-.395l-1.106.245c-.615-.2-1.046-.728-1.046-1.315 0-.468.327-.772.898-.772h1.046v-.654h-2.626v-.573h2.508v-.03c-.245-.156-.49-.475-.49-.928 0-.648.55-1.056 1.15-1.056.37 0 .608.08.757.163l-.208.572c-.133-.083-.312-.135-.482-.135zm8.162 3.128l-1.113.275c-.69.178-.92.438-.92.86 0 .514.438.893.98.885.26-.007.467-.074.593-.185v-.736l.482-.185c.2.104.438.312.438.668 0 .297-.133.498-.274.64l.854 1.07-.81.2-.526-.974c-.185.075-.43.12-.66.12-1.032 0-1.774-.728-1.774-1.612 0-.683.394-1.114 1.203-1.315l.823-.2v-.654h-2.523v-.573h4.32v.572h-1.092v1.143zM22.25 23.24h-.867v4.255h-.698V23.24h-.86v-.573h.86v-.64c0-.935.705-1.492 1.73-1.492 1.283 0 2.136.787 2.455 1.278l-.482.4c-.356-.497-.994-1.062-1.98-1.062-.632 0-1.025.306-1.025.878v.64h.868v.57zm5.358.846c.475 0 .802.223.928.58h.03c.096-.343.4-.617.875-.617.432 0 .736.17.93.355.23-.215.533-.32.83-.32.475 0 .8.224.927.58h.03c.096-.4.43-.61.78-.61.26 0 .49.098.6.224h.03v-1.04h-7.725v-.573h9.298v.572h-.868v4.255h-.705V24.88c-.09-.09-.304-.2-.52-.2-.348 0-.564.23-.564.706v.705h-.66v-.72c0-.445-.215-.668-.556-.668-.305 0-.594.216-.594.788 0 .616.34 1.196 1.098 1.597l-.466.483c-.772-.4-1.35-1.174-1.35-2.103 0-.208.03-.393.088-.557-.11-.104-.297-.23-.564-.23-.356 0-.586.238-.586.683v.728h-.66v-.727c0-.438-.216-.653-.557-.653-.304 0-.593.208-.593.78 0 .616.34 1.196 1.098 1.597l-.468.483c-.77-.4-1.35-1.174-1.35-2.103 0-.92.623-1.38 1.246-1.38zm9.624-.847h-.868v4.255h-.697V23.24h-.86v-.573h.86c-.045-.78-.497-1.553-1.202-1.553-.334 0-.535.208-.535.498 0 .17.067.364.23.52l-.682.14c-.163-.162-.26-.415-.26-.682 0-.58.482-1.055 1.217-1.055 1.098 0 1.803.9 1.914 2.132h.882v.572zm5.61 4.255h-.69v-1.968h-1.44v.758h-.556c-.312-.253-.49-.736-.497-1.07l.377-.282V23.24H38.99v-.573h4.72v.572h-.868v4.255zm-.69-4.256h-1.425v1.663h1.425V23.24zm.646-.543l-.564.052-.045-.03c-.387-.276-.92-.818-1.262-1.205l-.61-.705.795-.18 1.685 2.067zm-.082-1.3c0-.29.208-.506.482-.506.282 0 .49.217.49.507 0 .26-.208.468-.49.468-.274 0-.482-.208-.482-.468zm5.95 6.165l-1.045-.75v-.03c.617-.037 1.225-.4 1.225-1.114 0-.66-.504-.936-.868-1.003v-.03c.312-.118.63-.408.63-.913 0-.69-.563-1.137-1.327-1.137-.64 0-.987.223-1.217.41l.452.52c.134-.142.4-.32.757-.32.408 0 .646.215.646.57 0 .454-.4.692-1.128.73l.133.586c.127-.02.267-.036.386-.036.526 0 .83.215.83.624 0 .394-.34.64-.912.64-.097 0-.156 0-.268-.023l-.682-.528-.32.312c-.007.05 0 .103.008.163.06.356.4.646.965.668l1.025 1.05.712-.388zm1.13-2.733c0 .377.288.756.756.823l.853 1.694.727-.2-1.038-1.62c.712-.134 1.44-.594 1.44-1.523 0-.87-.67-1.41-1.515-1.41-.416 0-.772.103-1.047.288l.364.565c.207-.15.445-.216.712-.216.452 0 .8.276.8.78 0 .573-.497.893-1.113.952l-.526-.616-.385.26c-.023.06-.03.156-.03.223zm3.568-1.576c0-.154.03-.297.086-.43.056-.135.136-.25.237-.35.1-.1.22-.18.352-.238.133-.06.276-.09.43-.09.153 0 .297.03.43.09.134.06.25.14.35.238.098.1.177.215.236.35.06.133.09.276.09.43 0 .153-.03.297-.09.43-.06.134-.138.252-.237.353-.1.102-.216.18-.35.238-.133.057-.277.086-.43.086-.154 0-.297-.028-.43-.085-.134-.057-.252-.136-.353-.238-.1-.1-.18-.22-.237-.352-.057-.134-.086-.278-.086-.43zm.49 0c0 .173.06.32.178.438.12.12.265.178.438.178s.32-.06.438-.178c.118-.12.178-.265.178-.438 0-.174-.06-.32-.178-.44-.12-.117-.265-.177-.438-.177s-.32.06-.438.178c-.12.12-.178.265-.178.44z"/></g><g transform="translate(-1 39)"><mask id="f" fill="#fff"><use xlink:href="#e"/></mask><path fill="#1A237E" mask="url(#f)" d="M-3 115h121V-2H-3"/></g><g transform="translate(25 53)"><mask id="h" fill="#fff"><use xlink:href="#g"/></mask><path fill="#FFF" mask="url(#h)" d="M-2.3 55.25h56.6V-1.983H-2.3"/></g><path d="M43.188 123.044c.56 0 1.088-.083 1.517-.233v-3.532h-2.968v3.003c0 .216-.016.4-.05.58.43.117.957.184 1.5.184zm-3.924 1.36l-.016.05c.363.398.692.763 1.203 1.41l1.798 2.323-1.27.813-4.368-5.658 1.17-.945c.363.43.742.813 1.435.813.61 0 .973-.3.973-1.012v-2.92H36V118h12.183v1.278H46.27v9.506h-1.565v-4.496c-.38.083-.825.133-1.385.133-.857 0-1.715-.182-2.292-.447-.362.282-.824.43-1.32.464-.114 0-.312 0-.444-.033zm16.684 4.38h-1.533v-4.396h-3.198v1.692H49.98c-.692-.564-1.088-1.643-1.104-2.39l.84-.63v-3.782h-2.324V118h10.485v1.278h-1.93v9.506zm-1.533-9.506H51.25v3.716h3.165v-3.716zm10.106 6.288h-.065c-.33.398-1.12 1.06-2.49 1.06-2.043 0-3.61-1.475-3.824-3.98 1.452-.3 2.326-.813 2.326-1.86 0-.513-.248-1.127-.643-1.508H57.07V118H68v1.278h-1.93v9.506h-1.55v-3.218zm-4.63-2.273c.13.912.823 1.957 2.29 1.957 1.418 0 2.34-.93 2.34-2.488v-3.484h-3.164v.066c.445.43.692.995.692 1.676 0 1.16-.956 1.99-2.16 2.273z" fill="#FFF"/><g transform="translate(104 39)"><mask id="j" fill="#fff"><use xlink:href="#i"/></mask><path fill="#283593" mask="url(#j)" d="M-1.968 114.305h110.05V-2.305H-1.968"/></g><g transform="translate(131 61)"><mask id="l" fill="#fff"><use xlink:href="#k"/></mask><path fill="#FFF" mask="url(#l)" d="M-2.32 44.97h56.584V-2.203H-2.32"/></g><path d="M139.24 122.044c.564 0 1.095-.083 1.527-.233v-3.532h-2.99v3.003c0 .216-.015.4-.048.58.43.117.962.184 1.51.184zm-3.952 1.36l-.017.05c.366.398.698.763 1.213 1.41l1.81 2.323-1.278.813-4.4-5.658 1.178-.945c.366.43.747.813 1.445.813.614 0 .98-.3.98-1.012v-2.92H132V117h12.27v1.278h-1.925v9.506h-1.578v-4.496c-.382.083-.83.133-1.395.133-.863 0-1.726-.182-2.308-.447-.365.282-.83.43-1.328.464-.116 0-.315 0-.448-.033zm16.803 4.38h-1.543v-4.396h-3.22v1.692h-1.246c-.697-.564-1.095-1.643-1.112-2.39l.847-.63v-3.782h-2.34V117h10.56v1.278h-1.944v9.506zm-1.543-9.506h-3.188v3.716h3.187v-3.716zm8.103 0h-1.942v9.506h-1.56v-9.506h-1.927V117h5.43v1.278zm7.356 6.536h-.066c-.35.482-1.23 1.228-2.89 1.228-1.992 0-3.17-1.277-3.17-2.737 0-1.012.497-1.543.83-1.792v-.067h-2.242v-1.377h6.16v1.36h-1.212c-1.23 0-1.91.664-1.91 1.66 0 .895.68 1.575 1.86 1.575 1.544 0 2.64-1.095 2.64-2.953v-3.434h-8.17V117h11.674v1.278h-1.926v9.506h-1.578v-2.97zm8.136-6.536H172.2v9.506h-1.56v-9.506h-1.927V117h5.43v1.278zm2.54 5.01l-.016.05c.35.398.68.763 1.196 1.41l1.826 2.323-1.278.814-4.45-5.708 1.18-.93c.364.466.796.848 1.476.848.63 0 .98-.283.98-1.013v-2.802h-4.267V117H181v1.278h-1.843v2.903c0 1.444-.947 2.075-2.042 2.14-.1 0-.316 0-.432-.032z" fill="#FFF"/><g transform="translate(-1 150)"><mask id="n" fill="#fff"><use xlink:href="#m"/></mask><path fill="#303F9F" mask="url(#n)" d="M-2 115h128V-2H-2"/></g><g transform="translate(30 167)"><mask id="p" fill="#fff"><use xlink:href="#o"/></mask><path fill="#FFF" mask="url(#p)" d="M-2.197 53.07h47.222V-2H-2.197"/></g><path d="M44.294 237.954c.568 0 1.104-.085 1.54-.236v-3.587H42.82v3.05c0 .218-.017.403-.05.588.434.118.97.186 1.522.186zm-3.982 1.38l-.016.05c.368.405.702.776 1.22 1.433l1.824 2.358-1.288.825-4.433-5.743 1.187-.96c.368.438.752.825 1.455.825.62 0 .987-.303.987-1.027v-2.964H37v-1.296h12.362v1.297h-1.94v9.65h-1.59v-4.563c-.384.084-.836.135-1.404.135-.87 0-1.74-.186-2.326-.455-.368.286-.836.438-1.338.47-.117 0-.318 0-.452-.032zm5.236-9.28c0 .59.47 1.062 1.07 1.062.637 0 1.105-.472 1.105-1.06 0-.658-.468-1.147-1.104-1.147-.603 0-1.072.488-1.072 1.145zm9.82 13.727v-9.65h-2.81v6.367h-1.606c-.736-.573-1.038-1.55-1.054-2.29l1.104-.81v-3.266H48.56v-1.296h10.304v1.297h-1.94v9.65h-1.556zm8.164-9.65h-1.958v9.65h-1.572v-9.65h-1.94v-1.296H60c-.1-1.77-1.12-3.52-2.71-3.52-.753 0-1.205.47-1.205 1.128 0 .387.15.825.52 1.18l-1.54.32c-.368-.37-.586-.944-.586-1.55 0-1.314 1.09-2.392 2.745-2.392 2.476 0 4.065 2.038 4.316 4.834h1.992v1.297zm3.948 8.826l-1.205.977c-1.22-.91-2.342-2.476-2.342-4.53 0-2.072 1.455-3.167 3.095-3.167h2.442v-2.105h-6.758v-1.296H73v1.297h-1.957v9.65H69.47v-6.146h-2.14c-1.038 0-1.774.606-1.774 1.802 0 1.566.836 2.728 1.924 3.52z" fill="#FFF"/><g transform="translate(104 150)"><mask id="r" fill="#fff"><use xlink:href="#q"/></mask><path fill="#3949AB" mask="url(#r)" d="M-1.968 114.305h110.05V-2.305H-1.968"/></g><g transform="translate(129 188)"><mask id="t" fill="#fff"><use xlink:href="#s"/></mask><path fill="#FFF" mask="url(#t)" d="M-2.338 33.29H37.95V-1.973H-2.338"/></g><g transform="translate(146 177)"><mask id="v" fill="#fff"><use xlink:href="#u"/></mask><path fill="#FFF" mask="url(#v)" d="M-2.22 36.08h43.516V-2.33H-2.22"/></g><path d="M147.315 237.99c.57 0 1.108-.084 1.544-.234v-3.566h-3.02v3.03c0 .218-.018.402-.05.586.435.117.972.184 1.525.184zm-3.993 1.373l-.017.05c.37.402.705.77 1.225 1.423l1.83 2.344-1.293.82-4.446-5.71 1.192-.953c.37.435.755.82 1.46.82.62 0 .99-.3.99-1.02v-2.947H140v-1.29h12.4v1.29h-1.947v9.592h-1.594v-4.536c-.387.083-.84.133-1.41.133-.873 0-1.745-.185-2.333-.453-.37.285-.838.436-1.342.47-.117 0-.32 0-.453-.034zm5.252-9.225c0 .586.47 1.055 1.074 1.055.637 0 1.107-.47 1.107-1.055 0-.653-.47-1.138-1.107-1.138-.604 0-1.074.485-1.074 1.138zm11.275 10.648h-.068c-.352.485-1.242 1.24-2.92 1.24-2.013 0-3.204-1.29-3.204-2.764 0-1.02.503-1.557.84-1.808v-.067h-2.266v-1.39h6.224v1.374h-1.224c-1.242 0-1.93.67-1.93 1.675 0 .904.688 1.59 1.88 1.59 1.56 0 2.667-1.105 2.667-2.98v-3.465h-8.256v-1.29h11.795v1.29h-1.947v9.592h-1.594v-2.996zm8.22-6.596h-1.963v9.592h-1.577v-9.592h-1.946v-1.29h5.486v1.29zm2.568 5.056l-.017.05c.353.402.69.77 1.21 1.423l1.844 2.343-1.29.82-4.498-5.76 1.19-.937c.37.47.807.854 1.494.854.638 0 .99-.284.99-1.02v-2.83h-4.312v-1.29H175v1.29h-1.862v2.93c0 1.456-.957 2.092-2.064 2.16-.1 0-.32 0-.436-.034z" fill="#FFF"/><g transform="translate(-1 261)"><mask id="x" fill="#fff"><use xlink:href="#w"/></mask><path fill="#3F51B5" mask="url(#x)" d="M-3 115h121V-2H-3"/></g><g transform="translate(28 284)"><mask id="z" fill="#fff"><use xlink:href="#y"/></mask><path fill="#FFF" mask="url(#z)" d="M-2.33 50.21h52.367V-2.33H-2.33"/></g><path d="M43.594 351.764h-.067c-.288.412-.947.875-2.013.875-1.724 0-2.74-1.064-2.74-2.865v-3.756H37v-1.32h14.423v1.32h-6.256v2.64h.067c.288-.377 1.015-.96 2.198-.96 1.64 0 2.96 1.183 2.96 3.018 0 2.16-1.675 3.43-3.67 3.207l-.236-1.458c1.403.275 2.282-.566 2.282-1.732 0-.977-.66-1.612-1.623-1.612-1.184 0-1.978.943-1.978 2.23v4.493h-1.573v-4.082zm0-2.606v-3.14h-3.212v3.534c0 1.166.44 1.646 1.352 1.646 1.2 0 1.86-.84 1.86-2.04zm-4.616 5.882c0-.566.406-.978.947-.978.558 0 .964.412.964.978 0 .548-.407.96-.965.96-.54 0-.947-.412-.947-.96zm17.162-9.02h-1.978v9.826h-1.59v-9.827h-1.96v-1.32h1.927c-.847-.67-1.98-1.82-2.707-2.66l-1.386-1.628 1.81-.412 3.786 4.7h2.097v1.32zm2.164 6l-.88.362c-.743-.43-1.335-1.355-1.335-2.573l1.15-.875h4.21v-2.916H55.31v-1.32H65v1.32h-1.96v9.826h-1.59v-5.488h-3.146v1.663z" fill="#FFF"/><g transform="translate(104 261)"><mask id="B" fill="#fff"><use xlink:href="#A"/></mask><path fill="#5C6BC0" mask="url(#B)" d="M-1.968 114.305h110.05V-2.305H-1.968"/></g><path d="M143.204 349.954c.562 0 1.09-.085 1.52-.236v-3.587h-2.974v3.05c0 .218-.017.403-.05.588.43.118.96.186 1.504.186zm-3.933 1.38l-.015.05c.363.405.694.776 1.206 1.433l1.802 2.358-1.272.825-4.38-5.743 1.174-.96c.364.438.744.825 1.438.825.61 0 .975-.303.975-1.027v-2.964H136v-1.296h12.21v1.297h-1.917v9.65h-1.57v-4.563c-.38.084-.825.135-1.387.135-.86 0-1.718-.186-2.297-.455-.364.286-.827.438-1.322.47-.116 0-.314 0-.447-.032zm6.924-6.433l-1.255.12-.1-.068c-.86-.624-2.05-1.853-2.81-2.73l-1.354-1.6 1.768-.403 3.75 4.68zm5.816 1.23v-1.296h9.286v1.297h-2.247v2.796l-2.397.69c-1.636.472-1.933 1.062-1.933 2.005 0 1.045.826 2.14 2.412 2.14 1.173 0 2-.404 2.71-1.162l.826 1.28c-.942.943-2.148 1.297-3.354 1.297-2.445 0-4.164-1.836-4.164-3.857 0-1.55.826-2.442 2.56-2.964l1.753-.54v-1.683h-5.453zm.81 0h-1.933v9.65h-1.553v-9.65h-1.917v-1.296h1.917v-1.45c0-2.12 1.57-3.384 3.85-3.384 2.858 0 4.758 1.785 5.468 2.897l-1.074.91c-.793-1.13-2.214-2.41-4.41-2.41-1.406 0-2.28.69-2.28 1.988v1.45h1.932v1.296zm6.295-4.43c0 .59.462 1.062 1.057 1.062.628 0 1.09-.47 1.09-1.06 0-.658-.462-1.146-1.09-1.146-.595 0-1.057.488-1.057 1.145zm13.88 8.254c.56 0 1.09-.085 1.52-.236v-3.587h-2.975v3.05c0 .218-.017.403-.05.588.43.118.958.186 1.504.186zm-3.934 1.38l-.015.05c.363.405.694.776 1.206 1.433l1.802 2.358-1.272.825-4.38-5.743 1.174-.96c.364.438.744.825 1.438.825.61 0 .975-.303.975-1.027v-2.964h-5.535v6.367h-1.587c-.727-.573-1.024-1.55-1.04-2.29l1.09-.81v-3.266h-2.412v-1.296H178v1.297h-1.917v9.65h-1.57v-4.563c-.38.084-.825.135-1.387.135-.86 0-1.718-.186-2.297-.455-.364.286-.827.438-1.323.47-.115 0-.313 0-.446-.032z" fill="#FFF"/><g transform="translate(131 277)"><mask id="D" fill="#fff"><use xlink:href="#C"/></mask><path fill="#FFF" mask="url(#D)" d="M-2.325 54.3h57.3V-2.3h-57.3"/></g></g></g></svg>