<svg xmlns="http://www.w3.org/2000/svg" xmlns:xlink="http://www.w3.org/1999/xlink" width="1077.9" height="813" data-name="Layer 1"><defs><linearGradient id="a" x1="975.8" x2="975.8" y1="484.9" y2="87.9" gradientTransform="translate(-77)" gradientUnits="userSpaceOnUse"><stop offset="0" stop-color="gray" stop-opacity=".3"/><stop offset=".5" stop-color="gray" stop-opacity=".1"/><stop offset="1" stop-color="gray" stop-opacity=".1"/></linearGradient><linearGradient id="b" x1="649.1" x2="649.1" y1="832.9" y2="382.1" xlink:href="#a"/></defs><path fill="#c95300" d="M663.8 111.3c-46.2 39.3-106.2 36.8-158.8 16.3S404.2 70.8 353 45A427 427 0 0 0 219.2 2.8c-65.3-9-138.2 2-183.6 65.4-50.7 70.7-46.8 198.2 8 263 27.8 33 64.3 49.2 96.1 75s61.3 68.6 58.6 118.3c-2.5 46-31.6 81.4-61.8 103.5-23.4 17.2-52.1 35.9-55 71.4-2.6 34.3 21.5 61.2 44.6 76.5 75.3 50 168 49.4 243-1.2 26.7-18.1 51.3-42.2 79.4-56.3 73.6-37 154.8.3 232.8 13.9 66 11.5 133.6 5.5 198-17.5 38.6-13.8 77.3-35 104.5-74.3 19.5-28.4 31.7-64.4 43.2-99.9q18.3-56.8 35.2-114.4a339 339 0 0 0 15.1-71.1c3.2-44.7-10.2-88.9-28.3-126.6C1006.1 139 933.5 76 855 60s-161.6 15.3-222.6 83.6" opacity=".1"/><ellipse cx="489.6" cy="532.5" fill="#c95300" opacity=".1" rx="227" ry="10.4"/><path fill="#fff" d="M482 489.8c-113.5 0-205.8-92.4-205.8-205.8S368.4 78.2 481.9 78.2 687.7 170.5 687.7 284s-92.3 205.8-205.8 205.8zm0-409.6c-112.4 0-203.8 91.4-203.8 203.8s91.3 203.8 203.7 203.8S685.7 396.3 685.7 284 594.3 80.2 482 80.2z"/><path fill="#fff" d="M482 443.6c-88 0-159.7-71.6-159.7-159.6S394 124.4 482 124.4 641.5 196 641.5 284 570 443.6 482 443.6zm0-317.2c-87 0-157.7 70.7-157.7 157.6S395 441.6 482 441.6 639.5 370.9 639.5 284 568.8 126.4 482 126.4z"/><path fill="#fff" d="M482 394a110 110 0 1 1 110-110 110.1 110.1 0 0 1-110 110zm0-218a108 108 0 1 0 108 108 108.1 108.1 0 0 0-108-108z"/><ellipse cx="980" cy="403.2" fill="#c95300" opacity=".1" rx="14.3" ry="4.7"/><ellipse cx="178.6" cy="651.8" fill="#c95300" opacity=".1" rx="84" ry="13.8"/><g opacity=".1"><path d="M325.9 269.7H69.5A13.4 13.4 0 0 0 56 283.1v162a13.4 13.4 0 0 0 13.4 13.4h201.1s5.2 27.7-11.9 30.7c0 0 38.3 2.7 31.6-30.7H326a13.4 13.4 0 0 0 13.4-13.4v-162a13.4 13.4 0 0 0-13.4-13.4z"/><g opacity=".2"><rect width="207.7" height="12.7" x="93.8" y="312.7" rx="5.7" ry="5.7"/><rect width="207.7" height="12.7" x="93.8" y="369.3" rx="5.7" ry="5.7"/><rect width="174.2" height="12.7" x="93.8" y="397.6" rx="5.7" ry="5.7"/><rect width="90.1" height="12.7" x="93.8" y="341" rx="5.7" ry="5.7"/></g></g><path fill="#fff" d="M328.1 268.6H71.7A13.4 13.4 0 0 0 58.3 282v162a13.4 13.4 0 0 0 13.4 13.4h201.1s5.3 27.7-11.9 30.6c0 0 38.4 2.8 31.7-30.6H328a13.4 13.4 0 0 0 13.4-13.4V282a13.4 13.4 0 0 0-13.4-13.4z"/><g fill="#c95300" opacity=".2"><rect width="207.7" height="12.7" x="96.1" y="311.6" rx="5.7" ry="5.7"/><rect width="207.7" height="12.7" x="96.1" y="368.2" rx="5.7" ry="5.7"/><rect width="174.2" height="12.7" x="96.1" y="396.5" rx="5.7" ry="5.7"/><rect width="90.1" height="12.7" x="96.1" y="339.9" rx="5.7" ry="5.7"/></g><path fill="#ffd2c6" d="M233 266l-14.3 30.2s-2 5.7-3.4 6.8-7.3 19-7.3 19l-15.3 23.5-1 1.6-6-1.6-4.2-15.7.3-4.6v-.5s9.4-9.9 11.5-10.6c0 0 1.7.1 4.8-7.5s6-9.3 6-9.3l1.6-5.5 17.7-28.1s14.8-21.3 18.8-11.9S233 266 233 266zM174 480.7a3.4 3.4 0 0 1-.5 1.4 827 827 0 0 0-11 51.3c.8 3.3-1.3 9.9-2.6 12.9s-4.4 18.5-4.4 18.5-.7 33.5-2.7 38.8.7 16.4.7 16.4c-.2 5.2 2.9 10.6 4.7 13.4l.4.5 1 1.4a7.8 7.8 0 0 0 2 2.6c.2 0 .3.2.5.3a23.8 23.8 0 0 0 8.4 3.5h.2l2 .4.8 4-8 1.7-15 1s-17.8 1.3-13.8-6.6a12.5 12.5 0 0 0 .7-1.7l.4-1.2c2.5-7.6.8-16.8.8-16.8l-3.4-27c-5.7-25.1 4.4-53 4.4-53s-.9-2.3 1-8 0-18 0-18-1-16-2.3-24a48.4 48.4 0 0 1-.5-10 50.3 50.3 0 0 1 .5-6l34.1-4.5s2 5.5 1.5 8.7z"/><path d="M173.4 646.2l-7.9 1.6-15 1s-17.9 1.4-13.8-6.6a12.5 12.5 0 0 0 .7-1.6l.4-1.2a27.4 27.4 0 0 1 9 1.8c5 2 8.9-3.1 8.9-3.1l2.5-4.7.3-.7 1 1.3a8 8 0 0 0 2.5 3l-.4.8-2.4 5s3 .3 7.3 1a3.2 3.2 0 0 0 3.9-2.1h.3l2 .4z" opacity=".1"/><path fill="#626696" d="M180.8 650c-.6 2.6-17.3 3.4-17.3 3.4s-9.3-.9-11.9 1.3-10.2 1.7-10.5 1.7-4.4-.2-6-7.4c-1.5-7.1 2.1-8.3 2.3-8.4a27.1 27.1 0 0 1 9.4 1.8c5 2 9-3.1 9-3.1l2.7-5.4 1 1.4a7.9 7.9 0 0 0 2.5 2.9l-2.8 5.9s3 .3 7.3 1c3.3.5 4-2.2 4.2-3.3a3.4 3.4 0 0 0 0-.5l5.8 1.7a6 6 0 0 1 4.3 7z"/><path fill="#ffd2c6" d="M212.2 516.3c-.4 2.4-.8 8.6-.8 8.6 1.4 5.2-2.2 17.5-2.2 17.5l-1.8 7c.8 9-5 30.9-5 30.9s-3.8 20.3-5.8 29.1a24.2 24.2 0 0 0 1 14.7l.2.3.1.5.2.7a10.8 10.8 0 0 0 2 3.4 10.1 10.1 0 0 0 1 1l.1.1a21.6 21.6 0 0 0 6.4 4l1 .3a30 30 0 0 0 3.2 1 3.3 3.3 0 0 0 .3.1l-.8 4.7-10.5-2.7-14.2-4.6-7-4 .2-1v-.2l.2-1c1.2-6.2 4-23.5 2.6-36.2-1.7-15.7 4.8-37.5 6.4-42.7a25.9 25.9 0 0 0 1.2-9.1c-2.6-3.8-3.2-19-3.2-19s-4.7-9.8-8.7-20.1a53 53 0 0 1-2.8-10.5 36.6 36.6 0 0 1-.6-7.7s32.1-29.3 35.6-.9l.4 2.8c3 26 1.7 30.7 1.3 33z"/><path d="M212.2 635.6l-.8 4.7-10.6-2.7-14.1-4.6-7-4 .2-1.1v-.2l.2-1 1-.2a13.3 13.3 0 0 1 6 .8c2.3 1 5.3 1.9 6 1.5a7.6 7.6 0 0 1 3.3-.6l1.5-3.2.2-.5a10.7 10.7 0 0 0 2 3.3 11.3 11.3 0 0 0 1.1 1.2v1.1l-.1 1.6a20.6 20.6 0 0 0 5 2.4 3 3 0 0 0 1.5 0l1 .4a30 30 0 0 0 3.2 1 3.3 3.3 0 0 0 .4 0z" opacity=".1"/><path fill="#626696" d="M207 645.6c-3-.9-10.1-2.2-11.3-1.2s-11 0-11 0a6 6 0 0 1-5-3c-2-3.1-.5-13.5-.5-13.5h.8l1.2-.2a13.2 13.2 0 0 1 6 .8c2.3.9 5.3 1.9 6 1.5a7.4 7.4 0 0 1 3.3-.6l1.7-3.7a10.8 10.8 0 0 0 2 3.3 11.3 11.3 0 0 0 1.2 1.2l-.2 2.7a20.7 20.7 0 0 0 5 2.4 2 2 0 0 0 2.5-.8 1.5 1.5 0 0 0 .2-.4c.1.2 1 .5 4.2 1.4 3.4-.2 6.6 1.3 8.1 5.8s-11.4 5.1-14.3 4.3z"/><path d="M174 480.7l-1.9.5a25.2 25.2 0 0 1-4.4 1c-9.4 1.3-25 .5-30 .2a50.3 50.3 0 0 1 .6-6l34.1-4.4s2 5.5 1.5 8.7z" opacity=".1"/><path fill="#626696" d="M203.7 472.4s-12.6 2-22.7 4.2c-3.4.7-6.6 1.5-8.9 2.2a27.2 27.2 0 0 1-4.4 1c-11.3 1.6-31.5 0-31.5 0-5.5-17.9 6.7-40.4 6.7-40.4-.3-1.8 2.6-7.4 2.6-7.4v-.1l1.8-6.4h46.5l.6 2.7 1.1 5.6 7.3 34.7z"/><path d="M210.9 483.3l-.3.1-5.5 2.4c-5.8 2.7-23.5 3.2-29.6 3.3a36.6 36.6 0 0 1-.6-7.7s32.1-29.3 35.6-.9l.4 2.8z" opacity=".1"/><path fill="#626696" d="M211.7 480.5l-1.1.5-5.5 2.4c-6 2.8-24.2 3.3-30 3.3h-1.5c-2.7 0-5.4-2.6-5.4-3.3l-.5-3.6-.4-2.3s-12-5.2-18-9.3c-4.6-3.2-3.5-25.3-2.6-36.4l.6-6.3 47 2.7 6.7.4 3.7.8 1 .3s2.8 19.7 4 21.3.5 7.2.4 10.4a19.2 19.2 0 0 1-.5 4s2 5.5 1.5 8.6a17.2 17.2 0 0 0 .6 6.5z"/><circle cx="161.3" cy="297.3" r="19.3" fill="#ffd2c6"/><path fill="#ffd2c6" d="M152 305.3s1.3 18.3-2.5 22.5-13.4 12.1-13.4 12.1l3 12.4 16.9 2 19.7-21.1-4.5-5.5s-3.4-11.7-.6-17.5-18.7-4.9-18.7-4.9z"/><path d="M192.7 345.5l-1 1.6-6-1.6-4.2-15.7.3-4.6 1.2-1.7s6.6.1 6.3 6.1a52.5 52.5 0 0 0 3.4 16zM205.7 432s-4.7 1.1-10.2 1.8-11.7 1-14.3-.4c-4.3-2.6-27.8-1.9-34.5-1.6h-1.2l1.8-6.3h46.5l.5 2.7 6.6.4 3.8.8 1 2.6z" opacity=".1"/><path fill="#ffcde5" d="M181.8 324.7s6.6.1 6.3 6 3.6 16.4 3.6 16.4l-1.5 3.4s-2.1 8.4-.5 10.5 7.7 2 4.2 19.3c0 0-.7 12.9 1 17s1.9 14.2 4.6 18.4 6.3 14 6.3 14-19.5 4.3-24.6 1.3-36.3-1.5-36.3-1.5.1-5.2 0-5.8a5 5 0 0 1 .7-3.8c1-1.5 2.7-3.8 1.8-6s2.3-5.1.6-8.4-3.6-3.8-3.2-5.6-.7-4.2-1.9-5.7-9.2-17.3-9.2-17.3l-1.4-7.4s-10.4-7.6-10.2-11.2 4-8.6 4-8.6l10-9.8s5.5 6 10.8 3.9 17-12.1 17-12.1 4.2-2.3 4.5-3.9 2.8-.1 2.8-.1 3.8-2.1 4.5-1.4 4 1.4 4 1.4z"/><path fill="#ffd2c6" d="M125.3 355.8l-3.2 2.5s-3.2 5.8-4 16.3-4 25.3-4 25.3l-6.3 11.2s-10.3 21.7-11.7 27.4-7.4 15.5-7.4 15.5-20.8 18.7-6.3 22 15-14.9 15-14.9 3.3-3.7 3.9-6.3 18.9-35 18.9-35 6.4-8.8 5-13.4c0 0 8.5-19.7 8.5-24.6a87.5 87.5 0 0 0-1.4-12.3l1.4-10.3z"/><path d="M168.4 397s-14.7 7.7-17.5 8.1l12.4-1.6zM180.3 403s-19.4 6.6-28 5.4c0 0 21.3 4 28-5.4z" opacity=".1"/><path d="M181.5 405.2s-17.5 11-27.8 9.2c0 0 24 4.8 27.8 2.2l-10.7-3s12-6.3 10.7-8.4zM161.4 263.3c-5.1-1-10.7-.4-14.8 2.8-3 2.4-5 6-8.3 7.7a49.2 49.2 0 0 1-5.5 2 15.8 15.8 0 0 0-9.6 17c.5 3 1.9 5.7 2.6 8.6 1.2 5.2.1 10.7-1.2 15.9a167.1 167.1 0 0 1-16.7 41.2 4.3 4.3 0 0 0-.8 2.8 4 4 0 0 0 1 1.7c7 8 18.2 10.8 28.7 11.1 4 .2 8 0 11.4-1.9a17.2 17.2 0 0 0 5.6-5 27 27 0 0 0 5.1-17.4c-.3-5-2-10.1-.7-15a4 4 0 0 1 1-1.8c1-1.2 3-.9 4.6-1 4.4-.6 7.2-5.2 7.7-9.6s-.6-8.8-.6-13.2a27.7 27.7 0 0 1 5.2-16.3c1.5-2 3.4-4 3.9-6.5.6-3.1-1.3-5.5-2.8-8-2.5-3.9-3.7-8.4-7.4-11.4a20 20 0 0 0-8.4-3.7z" opacity=".1"/><path fill="#985c7e" d="M160.2 262.1c-5-1-10.7-.4-14.8 2.8-3 2.4-5 6-8.3 7.8a48.3 48.3 0 0 1-5.5 1.9 15.8 15.8 0 0 0-9.6 17c.5 3 1.9 5.7 2.6 8.6 1.2 5.2.1 10.7-1.2 15.9a167.2 167.2 0 0 1-16.6 41.2 4.2 4.2 0 0 0-.8 2.8 3.9 3.9 0 0 0 1 1.7c6.9 8 18.1 10.8 28.7 11.1 3.9.2 8 0 11.4-1.8a17.2 17.2 0 0 0 5.5-5.2 27 27 0 0 0 5.2-17.3c-.3-5-2-10.1-.7-15a4 4 0 0 1 .9-1.8c1-1.2 3-.9 4.6-1 4.4-.5 7.2-5.1 7.7-9.5s-.5-8.8-.6-13.2a27.7 27.7 0 0 1 5.2-16.4c1.5-2 3.4-4 3.8-6.5.7-3.1-1.1-5.5-2.7-8-2.5-3.9-3.7-8.4-7.4-11.4a19.8 19.8 0 0 0-8.4-3.7z"/><path d="M153.7 449.1s3.8 18 10.2 22.9z" opacity=".1"/><g opacity=".1"><path d="M123.1 295.6zM177.7 280a6.5 6.5 0 0 1-.1 1.6c-.5 2.5-2.4 4.5-3.8 6.5a27.6 27.6 0 0 0-5.2 16.3c0 4.4 1 8.8.5 13.2s-3.3 9-7.7 9.5c-1.6.2-3.5 0-4.6 1a4 4 0 0 0-1 1.9c-1.2 4.8.5 10 .8 15a27 27 0 0 1-5.2 17.3 17.3 17.3 0 0 1-5.5 5.1c-3.5 1.9-7.5 2-11.4 1.9-10.4-.4-21.4-3-28.4-10.7a2.7 2.7 0 0 0-.1 1.4 3.9 3.9 0 0 0 1 1.8c6.9 8 18.1 10.7 28.7 11 3.9.2 8 0 11.4-1.8a17.3 17.3 0 0 0 5.5-5.1 27 27 0 0 0 5.2-17.4c-.3-5-2-10-.7-15a4 4 0 0 1 .8-1.8c1.2-1.1 3-.8 4.7-1 4.4-.5 7.2-5.1 7.7-9.5s-.5-8.8-.6-13.2a27.7 27.7 0 0 1 5.2-16.3c1.5-2 3.4-4 3.8-6.5a7.4 7.4 0 0 0-1-5.3z"/></g><path fill="#c95300" d="M521.3 764s-38-2.3-33.6 24.3c0 0-.9 4.8 3.4 6.9 0 0 0-2 3.9-1.3a17.5 17.5 0 0 0 4.1.2 8.6 8.6 0 0 0 5-2.1s10.8-4.4 15-21.9c0 0 3-3.8 3-4.8l-6.5 2.8s2.2 4.6.5 8.4c0 0-.2-8.3-1.5-8l-3.3 1.5s3.8 8 1 14c0 0 1-10-2.2-13.4l-4.5 2.6s4.4 8.4 1.4 15.2c0 0 .8-10.4-2.3-14.5l-4.1 3.2s4.1 8.2 1.6 13.8c0 0-.4-12.1-2.5-13 0 0-3.6 3.2-4.2 4.5 0 0 2.9 6 1.1 9 0 0-1-8-2-8 0 0-3.6 5.3-4 9a19.5 19.5 0 0 1 3.1-9.6 10.7 10.7 0 0 0-5.4 2.9s.5-3.8 6.3-4.2c0 0 3-4 3.8-4.3 0 0-5.8-.5-9.3 1 0 0 3-3.5 10.3-2l4-3.2s-7.6-1-10.8.1c0 0 3.7-3.2 12-.9l4.3-2.6s-6.5-1.4-10.3-.9c0 0 4-2.2 11.6.2l3.1-1.4-6-1c-1.4 0-1.5-.6-1.5-.6a16.4 16.4 0 0 1 8.9 1s6.7-2.5 6.6-3z"/><ellipse cx="495.1" cy="797.5" fill="#c95300" opacity=".1" rx="26.9" ry="4.5"/><path fill="#c95300" d="M819.4 731.4s-38-2.3-33.6 24.4c0 0-.9 4.7 3.4 6.8 0 0 0-2 3.9-1.3a17.6 17.6 0 0 0 4.1.2 8.5 8.5 0 0 0 5-2.1s10.8-4.4 15-21.9c0 0 3-3.8 3-4.8l-6.5 2.8s2.2 4.6.5 8.5c0 0-.3-8.3-1.5-8.1l-3.3 1.6s3.7 8 .9 14c0 0 1-10-2.1-13.4l-4.5 2.6s4.4 8.3 1.4 15.1c0 0 .8-10.4-2.4-14.5l-4 3.2s4 8.2 1.5 13.9c0 0-.3-12.2-2.5-13 0 0-3.5 3-4 4.4 0 0 2.8 6 1 9 0 0-1-8-2-8 0 0-3.6 5.3-4 9a19.4 19.4 0 0 1 3.1-9.6 10.8 10.8 0 0 0-5.4 2.8s.5-3.7 6.3-4c0 0 3-4.1 3.8-4.4 0 0-5.8-.5-9.3 1 0 0 3-3.5 10.3-1.9l4-3.3s-7.6-1-10.8.1c0 0 3.7-3.1 11.9-.8l4.4-2.7s-6.5-1.4-10.3-.8c0 0 4-2.2 11.6.1l3.1-1.4-6.1-1c-1.4 0-1.5-.6-1.5-.6a16.4 16.4 0 0 1 9 1s6.7-2.5 6.6-3z"/><ellipse cx="793.2" cy="764.9" fill="#c95300" opacity=".1" rx="26.9" ry="4.5"/><ellipse cx="848.1" cy="436.8" fill="#c95300" opacity=".1" rx="77.5" ry="12.7"/><path fill="url(#a)" d="M999.4 229.5c3.2-10.6 0-21.3 0-21.3v-10s3.7-19.6-12.5-32.2l-10.7-9.4s-6-5.1-7.7-5.5a7.8 7.8 0 0 0-1-.1l-.3-.2a32.2 32.2 0 0 1-2.4-5 4.6 4.6 0 0 0 3.9-1.2 5 5 0 0 0 .9-1.5c.6-1.4.7-3 1.2-4.6a10.6 10.6 0 0 1 2-3.2l-.3.5c1.5-1.9 3.5-3.5 4.9-5.5a12 12 0 0 0 .8-1.2l-.2.2c2-3.1 2.5-7 3.1-10.7a9.6 9.6 0 0 0 0-3.8 12.7 12.7 0 0 0-1-2.4c-2.3-4.8-2.3-10.8-6-14.6-2.8-3-7-3.8-11-4.3s-8.2-.8-11.6-2.8a12.6 12.6 0 0 0-3.1-1.8 2.6 2.6 0 0 0-3.1 1.2 2 2 0 0 1-.4.8 1.3 1.3 0 0 1-1.2 0l-5.3-1.3v.2h-.1l.2.9c.2 0 .3 0 .5.3l-.9 1.3a13.1 13.1 0 0 1-4.8-1 2.3 2.3 0 0 0 0 .2c-.1 1.5 1.6 2.5 2.1 4a3 3 0 0 1 0 1.8 4.3 4.3 0 0 1-1 1.5c-1.9 1.9-4.3 1.5-6.5 2.7a1.4 1.4 0 0 0-.8.9.7.7 0 0 0 0 .4 1.1 1.1 0 0 0 .4.6 10 10 0 0 0 2 1.3l-.5.6a23.7 23.7 0 0 0 8.2 38.7l.2 1.3v.7l-7.1 3a5.7 5.7 0 0 1-5.2-3.3c-1.6-3.5-7.5 0-7.5 0s-18-1.4-24.5 2c0 0-10.7-4.6-12.2-4.9s-3.8-1.5-4.9-1.2-2.4-2-3.1-1.8-1-1.5-3.5-2-3.3 0-6-2.6-24.7-13.3-24.7-13.3l-10-8.1-10.5-8.4-.2.3-.2-.7a100 100 0 0 0-3.9-12.3c-.7-1.7-1-3.7-1.9-2.6-.5.6-1.5-.8-3-1.8a2.5 2.5 0 0 0-3.7 1.1c-8.2 12.9-11.2 13.8-6.4 18.5 4.2 4.2 7 8 10.5 9l.4.2a.6.6 0 0 1-.2 0l20 24s14.5 12.5 24.4 16.5 9.2 5.3 9.2 5.3 30.1 15.2 34.8 15 3.8 31.3 1.8 36.4-5.1 41.9-5.1 41.9-3 7.8.1 13.1c0 0 .7 10.4.1 12.8a43.9 43.9 0 0 0-7.3 18.8l-.1 1.2a2.6 2.6 0 0 1-.7.6l.6-.2a38 38 0 0 1-2 9 36.7 36.7 0 0 0-2.4 13v23.7l-2 14.8s-2.4 11.2 0 13.8a6.3 6.3 0 0 1 1.3 4.6 8.5 8.5 0 0 0 1.6 5.3 4 4 0 0 1 1 3.4c-.8 2.6 1.1 30.2 1.1 30.2s-.5 7.6-1.3 8 1.3 8.7 1.3 8.7-8.1 6.8-6 10.4l2 3.2-.5.5-.4.4a3.2 3.2 0 0 0-2-.4 77.6 77.6 0 0 1-8.2 7.3c-3.7 2.6-13.7 6.5-13.7 6.5l-7.9.6h-.1s-3.8-.4-1.7 5.5 21 4 21 4l11-1.8s19.7.1 25.3-1.1c2.4-.5 3-1.8 2.8-3v-.1a7.9 7.9 0 0 0-1.7-3.3 1.6 1.6 0 0 0-.1-.2l.3-4c8.4-4.8-2.3-14.3-2.3-14.3s3.6-8 5.5-10.6 2-40.7 2-40.7 1-13.8-1.7-17a5.8 5.8 0 0 1 2.8-5.2c1.9-1.2 7.5-18.7 11.9-33.2l2.8 17s-.6 8.2 1.2 10.6a4 4 0 0 1 .7 3.2 14.2 14.2 0 0 0 .4 7 4.5 4.5 0 0 0 1.5 2.4c1.6.8 1.7 3.7 2.3 4.3s4.3-.9 4.5 1.3a49 49 0 0 1 0 5.8l1.2 35.5s-2 3-2.4 10.8a14 14 0 0 1-1.4 6.4 3.3 3.3 0 0 0 .3 3.8l.3.4-1.5 1.1a3.3 3.3 0 0 0-.9 4 3.2 3.2 0 0 0-1 3.5 4 4 0 0 0 .3.5 5.6 5.6 0 0 0-3 1.5 24.6 24.6 0 0 1-5.3 5.4 100 100 0 0 0-8.4 7.2 12.1 12.1 0 0 1-5 4 8 8 0 0 1-1.5.4c-4 .8-2.7 5 .5 5.6s14 4 22.2 2c0 0 2.5 1 6-.8s11.9-4 11.9-4 4.5 0 5.1-1.8a6.9 6.9 0 0 0 .3-1.8h.1l-.1-.2a23.6 23.6 0 0 0-.3-4 23.4 23.4 0 0 0-1.8-6 1.5 1.5 0 0 0 .2-.2c1.7-3-1.2-10-1.2-10a19.1 19.1 0 0 1 3.4-4c1.6-1.2 5.8-32.4 5.8-32.4s-.1-8 2-11.5-3-25.4-3-25.4-2.2-5-1.3-6.8-.9-8.4-.9-8.4v-7.8a8.6 8.6 0 0 0-.4-2.8c-.6-1.8-1.6-5.4-.6-8 1.5-3.6 4.7-25.7 4.7-25.7s-2.5-9.8 1.1-17.6a16.8 16.8 0 0 1 1-1.8c2.7-4.3 2-11.9.6-18l-.7-2.7-.2-1 .4-.3.1-1.6a11 11 0 0 0 7.3-5s9.2-10.3 17.3-14.6 8.7-10.7 8.7-10.7c-1.2-2 2.2-10.6 2.2-10.6zm-32-78.4zm5.6 92.2l-8.7 10c-2.3-3.1 2-10.2 2-10.2l7.3-16.1c0 2-.3 3.9-1 4.8-2 2.7 3.6 7.1 3.6 7.1-3 0-3.3 4.4-3.3 4.4z" transform="translate(-61 -43.5)"/><path fill="#cc818c" d="M758.7 67.5l-4.8 9.2a18.4 18.4 0 0 1-4.4-.9 16.8 16.8 0 0 1-10.4-9c-4.2-9.4 2.8-15.4 6-17.2s6.4-3.9 8.8 2a101.4 101.4 0 0 1 3.9 12.2l.9 3.7zM909.6 115.5l-7.6 11.3s-35.8 17.1-29-3c3-8.8 3.4-15.3 2.8-19.8v-.1c-.7-5.6-2.8-8-2.8-8s35-17.9 29.8-5.7a17 17 0 0 0-1.2 8 27.4 27.4 0 0 0 3.7 11.3 37 37 0 0 0 4.3 6z"/><path fill="#444053" d="M898.7 339.3s5.2 21.6 3 25.2-2 11.5-2 11.5-4.1 31-5.7 32.1a19 19 0 0 0-3.4 4s2.8 7 1.1 10a2.4 2.4 0 0 1-1 1c-2.8 1-12.6-4-18.2-7a3 3 0 0 1-1.4-1.7 3.1 3.1 0 0 1 .9-3.5 3.3 3.3 0 0 1 .9-4l1.4-1.1-.3-.4a3.3 3.3 0 0 1-.3-3.8c.6-1 1.3-3 1.4-6.3.4-7.7 2.4-10.7 2.4-10.7l-1.2-35.3a50.7 50.7 0 0 0 0-5.8c-.2-2.2-3.8-.7-4.4-1.3s-.7-3.4-2.3-4.2a4.4 4.4 0 0 1-1.5-2.5 14.2 14.2 0 0 1-.4-6.9 4 4 0 0 0-.7-3.1c-1.8-2.4-1.2-10.5-1.2-10.5l-2.7-17c-4.4 14.4-10 31.8-11.8 33a5.7 5.7 0 0 0-2.7 5.2c2.5 3.2 1.5 16.9 1.5 16.9s0 37.8-1.8 40.4-5.5 10.5-5.5 10.5 10.6 9.5 2.3 14.3h-.1c-8.5 4.8-26.2-8.5-26.2-8.5l1.8-1.9.6-.5-2-3.2c-2-3.5 6-10.3 6-10.3s-2.2-8.3-1.4-8.7 1.4-8 1.4-8-2-27.3-1.2-29.9a4 4 0 0 0-1-3.4 8.5 8.5 0 0 1-1.4-5.3 6.3 6.3 0 0 0-1.3-4.6c-2.4-2.6 0-13.7 0-13.7l2-14.7v-23.3a37 37 0 0 1 2.4-13.2 39.6 39.6 0 0 0 2.1-10.5c.7-7.5 4.7-14.9 7.4-19l2.5-3.5 63.5-2.5a86.5 86.5 0 0 0 2.7 9.4c1.3 6.1 2 13.7-.6 18a14 14 0 0 0-1 1.7c-3.6 7.8-1.2 17.5-1.2 17.5s-3.1 22-4.5 25.6c-1 2.5 0 6 .5 7.9a8.8 8.8 0 0 1 .5 2.7v7.8s1.6 6.6.8 8.3 1.3 6.8 1.3 6.8z"/><path d="M901.7 261.5a16.4 16.4 0 0 0-1 1.8l-3.6-.2c.3-1.8-2.1-19-2.1-19l7.2-.5c1.3 6.1 2.1 13.7-.5 18z" opacity=".1"/><path fill="#444053" d="M902.3 261a14 14 0 0 0-1 1.7l-3.6-.1c.3-1.9-2.1-19.2-2.1-19.2l7.2-.3c1.3 6 2.1 13.6-.5 17.9z"/><path d="M902.3 261a14 14 0 0 0-1 1.7l-3.6-.1c.3-1.9-2.1-19.2-2.1-19.2l7.2-.3c1.3 6 2.1 13.6-.5 17.9zM891.7 422a2.4 2.4 0 0 1-1 1c-2.8 1.1-12.6-3.9-18.2-6.9a3 3 0 0 1-1.4-1.8c3.1-.5 5.2 3 5.2 3a4.7 4.7 0 0 1 6.6 1.6c2.7 4 8.5 2.3 8.5 2.3l.3.8z" opacity=".1"/><path fill="#ff748f" d="M893.4 434.2c-.6 1.7-5 1.7-5 1.7s-8 2.3-11.6 4.1-6 .8-6 .8c-8.2 2-18.7-1.3-21.9-2s-4.4-4.7-.5-5.5a7.8 7.8 0 0 0 1.5-.5 12 12 0 0 0 4.9-4 101.2 101.2 0 0 1 8.3-7.2 24.2 24.2 0 0 0 5.2-5.3c4.7-4 8 1.6 8 1.6a4.7 4.7 0 0 1 6.6 1.6c2.7 4 8.6 2.3 8.6 2.3a71.7 71.7 0 0 0 1.9 6.4 15.7 15.7 0 0 1 0 6z"/><circle cx="879.8" cy="421.1" r=".6" fill="#575988"/><circle cx="875.1" cy="425.4" r=".6" fill="#575988"/><circle cx="870.4" cy="429.4" r=".6" fill="#575988"/><circle cx="872.8" cy="427.6" r=".6" fill="#575988"/><circle cx="877.5" cy="423.1" r=".6" fill="#575988"/><path fill="#dce6f2" d="M893.4 434.2c-.6 1.7-5 1.7-5 1.7s-8 2.3-11.6 4.1-6 .8-6 .8c-8.2 2-18.7-1.3-21.9-2s-4.4-4.7-.5-5.5a7.8 7.8 0 0 0 1.5-.5 38 38 0 0 0 10.7 2c8 .4 14.5 0 14.5 0l8.2-2.6a13.7 13.7 0 0 1 5-1.8 13 13 0 0 0 5-2.2 15.7 15.7 0 0 1 0 6z"/><path fill="#575988" d="M873 439.3a6.8 6.8 0 0 1-1.3-.2v-.5a8.6 8.6 0 0 0 5-.7l2.2-1 2.5-1.1.8-.3 1.4-.5.7-.3a8.1 8.1 0 0 1 1.8-.7 8.6 8.6 0 0 1 1-.2 8.5 8.5 0 0 0 1 0 7.8 7.8 0 0 0 1.7-.7 8.3 8.3 0 0 1 1.8-.7h.5a2.1 2.1 0 0 0 1.2-.5l.5.4a2.7 2.7 0 0 1-1.6.6h-.5a7.8 7.8 0 0 0-1.7.7 8.3 8.3 0 0 1-1.8.7 6.6 6.6 0 0 1-1 .1 8.7 8.7 0 0 0-1 .1 7.6 7.6 0 0 0-1.7.7l-.7.3-1.4.5-.8.3-2.5 1.1-2.2 1a10.6 10.6 0 0 1-3.9.9z" opacity=".5"/><path d="M875 340.7s4-6 11.1-5.9 10-.7 10-.7-4.5 2.6-7.6 3-13.6 3.6-13.6 3.6zM877.3 342.1s3.7-2.6 5.9-2.7l4-.2a11.3 11.3 0 0 1-3.3 1.5c-1.8.5-6.6 1.4-6.6 1.4zM878.1 344s5.6.4 5.7 1.8M826 260.3c.2 0 5.2-5.2 5.6-7.3a5.1 5.1 0 0 1 2.2-3.2s3.2 1.3.3 5.2-8.2 5.3-8.2 5.3zM902.8 90.2c-1.2 2.7-2.2 2.9-2 5.5a19.9 19.9 0 0 1-4.5 3.6c-3.6 2-7.4 6.2-11.8 6.2a23.4 23.4 0 0 1-8.7-1.6c-.7-5.6-2.8-8-2.8-8s35-18 29.8-5.7z" opacity=".1"/><path fill="#cc818c" d="M908.1 80.7A23.6 23.6 0 1 1 884.5 57 23.6 23.6 0 0 1 908 80.7z"/><path d="M909.6 115.5l-7.6 11.3s-35.8 17.1-29-3c3-8.8 3.4-15.3 2.8-19.8h.1a18.8 18.8 0 0 1 .7 4.6c.1 3 .2 7 7.9 8.2a21.4 21.4 0 0 0 20.8-7.4 37 37 0 0 0 4.3 6.1zM758.7 67.5l-4.8 9.2a18.4 18.4 0 0 1-4.4-.9l-.4-.5c2 .7 8.5-11.6 8.5-11.6l.2.2.9 3.6zM902.2 240.3c-15.3 6.7-68.3 1-68.3 1a6.7 6.7 0 0 0 .3-1.7c1.4-2.2 2.5-3.5 2.5-3.5l63.4-2.5s1 2.8 2 6.7z" opacity=".1"/><path fill="#67647e" d="M876 104.6l-7.1 3a5.6 5.6 0 0 1-5-3.3c-1.7-3.4-7.5 0-7.5 0s-17.7-1.4-24.3 2c0 0-10.5-4.5-12-4.8s-3.7-1.5-4.7-1.2-2.4-2-3.1-1.8-1-1.5-3.5-2.1-3.2.1-6-2.5-24.3-13.3-24.3-13.3l-9.8-8-10.4-8.3s-6.6 12.3-8.5 11.6l19.8 23.8s14.2 12.5 24 16.5 9.1 5.2 9.1 5.2 29.8 15.2 34.4 14.9 3.7 31 1.8 36.1-5 41.7-5 41.7-3 7.7 0 13c0 0 .8 11 0 13 0 0 53.4 5.7 68.5-1 0 0 2.2-24.7 0-27.8s2-10.1 2-10.1l9.5-21.3 23.2-23.4s3.6-19.5-12.3-32l-10.6-9.4s-5.9-5-7.6-5.4-1.1 0-1.1 0-7 10-21 7.7c-7.7-1.3-7.8-5.2-7.9-8.3a18.8 18.8 0 0 0-.7-4.5z"/><path d="M905 184.6s-32.7 1.4-39.3 11.6c0 0 8.5-4 16-2.8s23.3-8.8 23.3-8.8zM868.8 220.5s15.5 1 18.8-2.2 3.3-5.2 3.3-5.2zM908.1 153.1s-13 15.5 2.8 22.2zM830.6 123.2s4.8 9.7 7.1 10.4zM814.5 119s12 10.7 14.2 11.8c0 0-12.4-11.8-14.2-11.8zM862 108.8s-11.5 17-4 27.5c0 0-4.2-12.4 4-27.5z" opacity=".1"/><path fill="#cc818c" d="M890.9 238.3l-3.5 3.3-.5.5-4 3.8-1 .7c-16.4 11.8-19.8-6.2-19.8-6.2s-7.2 4.8-8.3 1 17-9.5 19.6-9.2a3.5 3.5 0 0 0 .8 0 11.3 11.3 0 0 0 3.7-1.3l.8-.4a29.6 29.6 0 0 0 2.6-1.7z"/><path d="M908.7 80.7a23.6 23.6 0 0 1-11.6 20.3 13.8 13.8 0 0 1-.8-1.7c-.9-2-1.4-4.1-2.2-6.1a19 19 0 0 0-4-5.8 2.5 2.5 0 0 0-1-.7 2.9 2.9 0 0 0-2.2.6 9.8 9.8 0 0 1-3.3 1.4 3.5 3.5 0 0 1-3.3-1c-1-1-.8-2.7-.5-4.1.5-3 1.5-6.1 1.5-9.2s-1.2-6.5-3.9-8c-2.4-1.5-5.4-1-8-1.8a8.7 8.7 0 0 1-1.2-.5 23.7 23.7 0 0 1 40.5 16.6z" opacity=".1"/><path fill="#585268" d="M866.5 60.4c-.4.2-.9.6-.8 1.1a1.1 1.1 0 0 0 .5.6 10.2 10.2 0 0 0 3.7 1.9c2.7.7 5.7.3 8 1.7 2.8 1.6 4 5 4 8s-1 6.2-1.6 9.3c-.2 1.4-.4 3 .6 4.1a3.5 3.5 0 0 0 3.3 1 9.8 9.8 0 0 0 3.3-1.4 2.9 2.9 0 0 1 2.1-.6 2.6 2.6 0 0 1 1 .7 18.8 18.8 0 0 1 4 5.8c1 2 1.5 4.1 2.3 6a9.8 9.8 0 0 0 4 5 5 5 0 0 0 6-.6c1.4-1.5 1.3-3.8 2-5.8 1.2-3.3 4.5-5.5 6.5-8.4 2.4-3.2 3-7.4 3.6-11.3a9.5 9.5 0 0 0 .1-3.8 13.8 13.8 0 0 0-1-2.4c-2.4-4.8-2.3-10.8-6-14.6-2.7-2.8-7-3.7-10.9-4.2s-8-.8-11.4-2.8a12.6 12.6 0 0 0-3.1-1.8 2.5 2.5 0 0 0-3 1.2 2 2 0 0 1-.5.8 1.3 1.3 0 0 1-1.1 0l-5.3-1.3.6 2.6a13 13 0 0 1-5.5-1c-.1 1.5 1.6 2.5 2 3.9a3.6 3.6 0 0 1-1 3.6c-1.9 1.9-4.2 1.5-6.4 2.7z"/><path d="M845.3 415.8l-.2 2.4h-.1c-8.5 4.8-26.2-8.5-26.2-8.5l1.8-1.8a3.2 3.2 0 0 1 .8 2.5l3.7.2 4.3 4.6s11.6 1.4 14.8.6z" opacity=".1"/><path fill="#ff748f" d="M843.8 428.8c-5.5 1.2-25 1.1-25 1.1l-10.9 1.7s-18.7 1.8-20.7-4 1.6-5.4 1.6-5.4h.1l7.8-.6s9.9-3.9 13.5-6.5a77.8 77.8 0 0 0 8-7.2s3.3-.7 3.3 3l3.6.3 4.3 4.6s11.7 1.4 14.8.6h1.1l-.5 5.8.2.2c.6.9 3.8 5.3-1.2 6.4z"/><circle cx="823.7" cy="414.3" r=".6" fill="#575988"/><circle cx="809.7" cy="420.4" r=".6" fill="#575988"/><circle cx="802.5" cy="422.6" r=".6" fill="#575988"/><circle cx="813.4" cy="419.2" r=".6" fill="#575988"/><circle cx="806.1" cy="421.5" r=".6" fill="#575988"/><circle cx="817.1" cy="417.5" r=".6" fill="#575988"/><circle cx="820.7" cy="415.9" r=".6" fill="#575988"/><path fill="#dce6f2" d="M843.8 428.8c-5.5 1.2-25 1.1-25 1.1l-10.9 1.7s-18.7 1.8-20.7-4 1.6-5.4 1.6-5.4h.1c1.2 1.5 3.6 3.3 8.3 3.4l13.5.5 13.9-1s13-.4 15.2-.8a31.5 31.5 0 0 0 5.2-2c.6 1 3.8 5.3-1.2 6.5z"/><path fill="#575988" d="M809 430.3a8.8 8.8 0 0 1-2.3-.3l.2-.5a10.8 10.8 0 0 0 5.6-.2l2-.6a22.7 22.7 0 0 1 9.6-1h.5a91.3 91.3 0 0 0 17.8-.9 6.6 6.6 0 0 0 3.8-1.5l.5.4a7.2 7.2 0 0 1-4.2 1.7 92.7 92.7 0 0 1-18 .8h-.4a29.2 29.2 0 0 0-6 .2 30.7 30.7 0 0 0-3.5.9l-2 .5a14.9 14.9 0 0 1-3.7.5z" opacity=".5"/><path d="M890.9 238.3l-3.5 3.3-8.7-11a29.6 29.6 0 0 0 2.6-1.8z" opacity=".1"/><path fill="#67647e" d="M930.3 147l6.8 9.5v10s3.1 10.6 0 21.2l.4 9.2s-3.3 8.5-2.2 10.5c0 0-.6 6.3-8.6 10.6s-17.1 14.5-17.1 14.5-3.4 6.6-12.6 5l-8.8 3.8-10.1-13 13.6-7.4s4.8-6.4 7.6-6l11.6-13.6s.3-4.3 3.3-4.3c0 0-5.5-4.5-3.6-7.2s.3-14.5.3-14.5z"/><path d="M917.5 190.4s15.6-.3 17.5 3.8-12.8-6-17.5-3.8zM887 241.3a4.1 4.1 0 0 1-.1.8 5.3 5.3 0 0 1-5 4.5h-.2a5.3 5.3 0 0 1-5.3-5.3 5.4 5.4 0 0 1 .3-1.7c-2.5-2-2.6-5.6-2.5-7.4a11.3 11.3 0 0 0 3.7-1.3 24.6 24.6 0 0 0 2.6 5.3 5 5 0 0 1 1.2-.1 5.3 5.3 0 0 1 5.2 5.2z" opacity=".1"/><path fill="#575988" d="M878.3 229.8s-3.5.8-3.5 1.4-.8 6.5 3 8.8 3.6-3.3 3.6-3.3-3.4-5.1-3-7z"/><circle cx="882.3" cy="241.3" r="5.3" fill="#e4aab4"/><circle cx="882.3" cy="241.3" r="4.5" fill="#dce6f2"/><path d="M861.8 243.3s11.1 9.3 25.4 3.4v4.5s-9.5 6.5-18.2 2.6-7.2-10.4-7.2-10.4z" opacity=".1"/><path d="M861.8 242.2s11.1 9.2 25.4 3.3v4.5s-9.5 6.5-18.2 2.5-7.2-10.3-7.2-10.3z" opacity=".1"/><path fill="#444053" d="M861.8 242.2s11.1 9.2 25.4 3.3v4.5s-9.5 6.5-18.2 2.5-7.2-10.3-7.2-10.3z"/><path d="M862.1 242.2s11.1 9.2 25.4 3.3v4.5s-9.6 6.5-18.2 2.6-7.2-10.4-7.2-10.4zM827 407.8s14.8 2.8 17 3.3-.6 1.7-.6 1.7-13.6-2.4-16.5-5zM826.5 400c.3 0 10.2-2.8 12.3-7.6M841 343s4 5.3 6.5 5.1-4.2-5.3-6.6-5zM843.2 351.8s1.6 3.7 4.1 2.5M852.5 270l10.6 27.9s1.5-17.9-1.7-23.3a9.3 9.3 0 0 0-8.9-4.5z" opacity=".1"/><g opacity=".1"><path d="M878.5 49.6v-.4l-1.8-.4.2.8a12.2 12.2 0 0 0 1.6 0zM873.8 56.3l.2-.1a3.5 3.5 0 0 0 1-3.7 5 5 0 0 0-.8-1.3 13 13 0 0 1-2.5-.7c0 1.5 1.6 2.4 2.1 3.8a3 3 0 0 1 0 2zM902 102a9.8 9.8 0 0 1-4-4.9c-1-2-1.4-4-2.3-6a18.6 18.6 0 0 0-4-5.8 2.5 2.5 0 0 0-1-.8 2.8 2.8 0 0 0-2.2.6 10 10 0 0 1-3.3 1.5 3.6 3.6 0 0 1-3.3-1c-1-1.1-.8-2.7-.5-4.1.6-3.1 1.5-6.2 1.5-9.3s-1.2-6.5-3.9-8c-2.4-1.4-5.4-1-8-1.7a10.2 10.2 0 0 1-3.7-2l-.2-.1a6.4 6.4 0 0 0-.7.3c-.4.2-.9.6-.8 1a1.2 1.2 0 0 0 .5.6 10.3 10.3 0 0 0 3.7 2c2.7.7 5.7.3 8 1.7 2.8 1.5 4 5 4 8s-1 6.2-1.6 9.2c-.2 1.4-.4 3 .6 4.2a3.5 3.5 0 0 0 3.3 1 10 10 0 0 0 3.3-1.5 2.9 2.9 0 0 1 2.1-.6 2.6 2.6 0 0 1 1 .7 18.9 18.9 0 0 1 4 5.8c.9 2 1.4 4.1 2.3 6.1a9.8 9.8 0 0 0 4 5c1.8 1 4.5 1 6-.6a4.7 4.7 0 0 0 .8-1.5 5.1 5.1 0 0 1-5.7.3zM910.5 94.5c1.5-1.9 3.4-3.5 4.8-5.5a14 14 0 0 0 .8-1.2c-1.8 2.3-4.3 4.2-5.6 6.7z"/></g><g opacity=".1"><path d="M822.2 66.4H585.6a12.4 12.4 0 0 0-12.3 12.4v149.5a12.4 12.4 0 0 0 12.3 12.3h185.6s4.8 25.6-11 28.3c0 0 35.4 2.5 29.2-28.3h32.8a12.4 12.4 0 0 0 12.4-12.3V78.8a12.4 12.4 0 0 0-12.4-12.4z"/><g opacity=".2"><rect width="191.7" height="11.7" x="608.1" y="106.1" rx="5.7" ry="5.7"/><rect width="158.2" height="11.7" x="608.1" y="158.3" rx="5.7" ry="5.7"/><rect width="113.8" height="11.7" x="608.1" y="132.2" rx="5.7" ry="5.7"/></g></g><path fill="#fff" d="M825.3 64.3H588.7a12.4 12.4 0 0 0-12.4 12.4v149.5a12.4 12.4 0 0 0 12.4 12.4h185.6s4.8 25.5-11 28.2c0 0 35.4 2.6 29.2-28.2h32.8a12.4 12.4 0 0 0 12.4-12.4V76.7a12.4 12.4 0 0 0-12.4-12.4z"/><g fill="#c95300" opacity=".2"><rect width="191.7" height="11.7" x="611.2" y="104" rx="5.7" ry="5.7"/><rect width="158.2" height="11.7" x="611.2" y="156.2" rx="5.7" ry="5.7"/><rect width="113.8" height="11.7" x="611.2" y="130.1" rx="5.7" ry="5.7"/></g><path fill="#c95300" d="M81.1 553s3.6 4.7-1.6 11.7-9.5 13-7.8 17.4c0 0 7.9-13.1 14.3-13.3s2.2-8-4.9-15.8z"/><path d="M81.1 553a5.9 5.9 0 0 1 .8 1.5c6.2 7.3 9.5 14.1 3.5 14.3-5.6.2-12.3 10.2-13.9 12.7l.2.6S79.6 569 86 568.8s2.2-8-4.9-15.8z" opacity=".1"/><path fill="#ffd037" d="M87.8 559c0 1.6-.2 3-.5 3s-.4-1.4-.4-3 .3-1 .5-1 .3-.7.3 1z"/><path fill="#ffd037" d="M90 560.9c-1.4.8-2.7 1.3-2.8 1s1-1 2.4-1.7 1-.2 1 0 .9 0-.6.7z"/><path fill="#c95300" d="M62.3 553s-3.6 4.7 1.6 11.7 9.5 13 7.8 17.4c0 0-7.9-13.1-14.3-13.3s-2.2-8 4.9-15.8z"/><path d="M62.3 553a5.9 5.9 0 0 0-.7 1.5c-6.3 7.3-9.6 14.1-3.6 14.3 5.6.2 12.3 10.2 13.9 12.7l-.2.6s-7.9-13.1-14.3-13.3-2.2-8 4.9-15.8z" opacity=".1"/><path fill="#ffd037" d="M55.7 559c0 1.6.1 3 .4 3s.4-1.4.4-3-.2-1-.5-1-.3-.7-.3 1z"/><path fill="#ffd037" d="M53.4 560.9c1.4.8 2.7 1.3 2.8 1s-1-1-2.4-1.7-.9-.2-1 0-.9 0 .6.7z"/><ellipse cx="71.7" cy="612" fill="#c95300" opacity=".1" rx="37.3" ry="5.7"/><path fill="#65617d" d="M91 575.8l-.2 1.4-.3 2-.1 1-.3 2v.9l-.3 2-2.9 23.4c-.2 2.1-3.6 3.7-7.7 3.7H64.3c-4.1 0-7.5-1.6-7.8-3.7l-2.8-23.4-.3-2v-.9l-.3-2-.1-.9-.3-2-.2-1.5c-.1-1.2 1.7-2.2 4-2.2h30.3c2.4 0 4.2 1 4.1 2.2z"/><path fill="#9d9cb5" d="M90.7 577.2l-.2 2.1H53l-.3-2.1h38zM90.4 580.1l-.3 2.1H53.3l-.3-2.1h37.4zM90 583.1l-.2 2H53.7l-.3-2H90z"/><ellipse cx="645.8" cy="789.4" fill="#c95300" opacity=".1" rx="84" ry="13.8"/><g opacity=".1"><path d="M743.1 365.9H486.7a13.4 13.4 0 0 0-13.4 13.4v162a13.4 13.4 0 0 0 13.4 13.4H688s5.2 27.6-12 30.6c0 0 38.4 2.8 31.7-30.6H743a13.4 13.4 0 0 0 13.4-13.4v-162a13.4 13.4 0 0 0-13.4-13.4z"/><g opacity=".2"><rect width="207.7" height="12.7" x="511.1" y="465.4" rx="5.7" ry="5.7"/><rect width="90.1" height="12.7" x="511.1" y="437.2" rx="5.7" ry="5.7"/></g></g><path fill="#fff" d="M741 363.6H484.4a13.4 13.4 0 0 0-13.4 13.4v162a13.4 13.4 0 0 0 13.4 13.4h201.1s5.2 27.7-11.9 30.7c0 0 38.4 2.7 31.7-30.7h35.5a13.4 13.4 0 0 0 13.4-13.4V377a13.4 13.4 0 0 0-13.4-13.4z"/><g fill="#c95300" opacity=".2"><rect width="207.7" height="12.7" x="508.9" y="463.2" rx="5.7" ry="5.7"/><rect width="90.1" height="12.7" x="508.9" y="434.9" rx="5.7" ry="5.7"/></g><path fill="url(#b)" d="M755.2 823.5c-1.2-5.2-2-9.7-2-9.7s.3-5.6-2.2-9.8V792.3a34.6 34.6 0 0 1 2.6-5.4c1.9-3.3 0-15.2 0-15.2s-7-16.7-5.2-27.4-14.2-47.2-14.2-47.2a46.5 46.5 0 0 1 1.5-10.5 8 8 0 0 0 .2-2.2 2.4 2.4 0 0 0 0-.3v.1c-.2-7-5.8-20.2-5.8-20.2l.8-25s3.5-14.8-2.3-34.7c-2-6.9-3.3-12.4-4.1-16.7l-.3-1.4 21-3.3s-6.9-28.9-11.5-33.9-8.4-21-8.4-21-2.4-20.4 1.5-26.3 4.5-16.3 4.5-16.3 9-6.5 10-9.3 3-9.4 3-12.9-1-6.5-.7-8.3-2.6-8.6-1.1-11.9a8.8 8.8 0 0 0 .6-3.1 44.2 44.2 0 0 0-.8-8.5 24 24 0 0 0-8.9-4.8l-.2-.8-.5-2a12 12 0 0 0-.9-.5v-3.7l1.4-6.5c2.7-11.5-12.6-13.2-12.6-13.2a8 8 0 0 0-4.3-3.8c-3-1-.5 17.2 1 18.4 1 .9 4.3 6.6 6 9.4l.2.5a5.6 5.6 0 0 0-.7.7l.6 4v.7a16.7 16.7 0 0 0-2.4 4.1s2.8 3 2.2 6.5.9 7.7 1 8c-.2-.2-2.2-2.4-4.1-1.9l-7.5 2.2s-4 .7-3.7 1.6-2.8 4.9-2.8 4.9l-11-10.4-.3-1a26.2 26.2 0 0 1-1-4.6 26.1 26.1 0 0 0 3.5-1 7.6 7.6 0 0 0 3-2c1.1-1.3 1.3-3.1 1.8-4.8.8-3.2 2.7-6 4-9.1a29.6 29.6 0 0 0 2.3-16.4 10.8 10.8 0 0 0-1.7-4.8c-1.8-2.4-5-3.4-7.5-5.4s-3.9-5-6.6-6.5c-2.5-1.3-5.6-1.2-8.4-.7a45 45 0 0 0-15.6 5.7c-1.6 1-3.4 2-5.2 1.7-1.6-.3-2.8-1.6-3.8-2.8V392.8a19.4 19.4 0 0 0-1.7 8.2v2.2a2 2 0 0 1 0 .5 4.3 4.3 0 0 1-1 1.5 7.8 7.8 0 0 0-1 1.3 4 4 0 0 1 .2-.5 6.5 6.5 0 0 0-1.1 3.5 3.4 3.4 0 0 0 .8 2.5 12 12 0 0 0 1.8 1.4 21 21 0 0 0 10 21.9l.4 1c1.4 3.6 2.4 8 2 12l-.2.8c0 .3-.2.3-.4.4s-18.1.2-22.4-3.7-10.8 9.5-10.8 9.5-6.6 1.3-7.9 0-9-.2-9-.2a16.4 16.4 0 0 0-11.2-4.1 33.6 33.6 0 0 0-8.4-4.6l-.2-.1a9.4 9.4 0 0 0-4-.5s-9-7.4-11.6-11.4-15-18.7-15.1-18.7v-.8l-.2-2.1a7.1 7.1 0 0 1-1 0l-.3-.6a41.5 41.5 0 0 0-2.7-6.1s0-2.7.8-3.4-.3-10.6-.3-10.6-8-18.8-15.3-4.8c0 0-13.6 9.1-2.2 19.7 0 0 4.6 2.2 5.2 4l3 6.5.5 1h-.1l.1 1.8.1.7c-2.1 1.2-3.6 2.4-3.3 3.3a20.3 20.3 0 0 1 1.4 4.9s15.7 19.8 17.8 28.3c0 0 42.5 25.3 56.5 27l-2.5 12.7a101 101 0 0 0-.5 10.3c.2 2.7-1.7 15-1.7 15s-2.4 18-4.5 20.5-1.6 13.4-1.6 13.4a91.1 91.1 0 0 1-2.8 15.3c-2 6.8-.6 15.3-.6 15.3s-7 16.3 10 5.3c0 0 8.3-.6 17.8-.9v5c-.1 9.3-.2 22.1.2 31.8.8 17.1 6 51 6 51v17a23.4 23.4 0 0 0-.5 5 31.8 31.8 0 0 0 4.6 17l1.3 11.3s3 7.5 3.2 12a7 7 0 0 1-.2 1.1 7.8 7.8 0 0 0-.1 1.8c-.2 5.1 3 17.5 3 17.5s0 12.4 2 13.2c1.5.6-2.2 7.1-3.3 9l-.1-.4-.2.4a8.7 8.7 0 0 0-.6 3.2 4.5 4.5 0 0 0 2 4.3c3.6 2.2 5.5 4 2.5 4.7a32.3 32.3 0 0 0-3.3.7l-.1-.4a2 2 0 0 0-1.3 2.2 9 9 0 0 0 1.1 4.2c3 6.7 5 9.2 5 9.2l1.5-.2a7.7 7.7 0 0 1-.8 1.6 6 6 0 0 1-2.2 1.9 6.4 6.4 0 0 1-2.5.8 7.2 7.2 0 0 0-5.3 2.6c-1.8 2.4-3 5.7.7 8.6l13.3 4.6s23 3 21.7-2.2-2-9.7-2-9.7a20.3 20.3 0 0 0-1.9-9 12.2 12.2 0 0 0-.8-1.4l.8-.1s1.7-11.4 4-13.5c.5-.5.6-1 .5-1.2.2-.6-.4-1-1.1-1.2l-.2.4a11 11 0 0 0-2.2-.2s-.8-6 1.7-8.1a2.3 2.3 0 0 0 .4-1.8 10 10 0 0 0-.2-2.4l-.1.1c-1.2-5.4-5.4-14-5.4-14s-.2-5.4 1.3-7.6-.1-29.4-.1-29.4.5-13.1-1.2-19.3 2-13.3 2-13.3v-.4l.1-.1-.2-2c-.4-3.4-1-9.7-1.6-12.7-.8-4.1.2-24 .2-24l3.3-8.4 6 14.6 6.4 19.5s3.1 4 3.2 8.2a4 4 0 0 1 0 .6 11.8 11.8 0 0 0 0 1.4 11.5 11.5 0 0 0 1.8 6.9s1.7 9.2 4.3 11.5 2.6 6.9 2.6 6.9 3.2 13.3 4.7 15.7c1.3 2 1.3 7.4 1.3 9v.5s.5 4.8.4 8.8v1.4a14.7 14.7 0 0 1-.4 3.2v.2-.7a34.4 34.4 0 0 0-1 8.3c0 4.8.7 10.5 3.6 13.8 5 5.8 8.2 5 8.2 5s-2.4 7.3-5.4 8.7a1.7 1.7 0 0 0-.3.2l-.1-.4a3.5 3.5 0 0 0-.9 2.7c-.2 3.2 1.8 8.3 3.7 10.7a5.8 5.8 0 0 0 2.5 1.5l-.4.3a10.3 10.3 0 0 1-1 .5 4.8 4.8 0 0 1-1.6.4 7.1 7.1 0 0 0-5.2 2.5c-1.9 2.4-3 5.7.6 8.6l13.3 4.6s22.8 3 21.6-2.2z" transform="translate(-61 -43.5)"/><path fill="#2d293d" d="M606.6 788.5l-13-4.6c-3.5-2.9-2.3-6.1-.5-8.6a6.9 6.9 0 0 1 5-2.5 6 6 0 0 0 2.5-.9 5.8 5.8 0 0 0 2-1.9 9.4 9.4 0 0 0 1.5-5s14.2-4.1 18 0a10.7 10.7 0 0 1 1.7 2.5 21 21 0 0 1 1.8 9.2s.8 4.5 2 9.6-21 2.2-21 2.2zM669.7 782.1l-12.9-4.6c-3.5-2.8-2.4-6.1-.6-8.5a6.8 6.8 0 0 1 5.1-2.6 4.5 4.5 0 0 0 1.5-.4 7.6 7.6 0 0 0 1-.5c3.6-2 3.5-6.8 3.5-6.8s14.2-4.2 18 0a9.7 9.7 0 0 1 1.3 1.8c2.5 4.2 2.2 9.8 2.2 9.8s.7 4.5 1.9 9.7-21 2.1-21 2.1z"/><path d="M622.2 765a10.7 10.7 0 0 1 1.7 2.6l-21.2 2.4a9.4 9.4 0 0 0 1.5-5s14.1-4.1 18 0zM686.7 760.5v4c-3.3 5.4-19.3 4.3-24 1.5a7.6 7.6 0 0 0 1-.5c3.7-2 3.6-6.8 3.6-6.8s14.2-4.2 18 0a9.7 9.7 0 0 1 1.4 1.8z" opacity=".1"/><path fill="#575988" d="M689.2 743.4a36.8 36.8 0 0 0-2.5 5.4v14.3c-3.6 6-22.4 4-25 .7s-5.1-11.7-2.2-13.2 5.2-8.6 5.2-8.6-3 .7-8-5-3.4-18.7-2.5-21.7 0-13.4 0-13.4.2-7.2-1.3-9.5-4.5-15.7-4.5-15.7 0-4.5-2.5-6.9-4.1-11.5-4.1-11.5a11.8 11.8 0 0 1-1.9-7.8c.6-4.5-3-9.4-3-9.4l-6.1-19.5L625 607l-3.3 8.5s-.9 19.8-.1 24 1.8 15.2 1.8 15.2-3.6 7.2-2 13.3 1 19.3 1 19.3 1.7 27.2.2 29.4-1.2 7.6-1.2 7.6 7.4 15.9 5 18-1.7 8.1-1.7 8.1 5 0 3 2.2-3.8 13.5-3.8 13.5l-21.8 2.5s-2-2.5-4.9-9.2.6-6 3.5-6.6 1-2.5-2.4-4.7-1.4-7-1.4-7 5.2-8.9 3.4-9.6-2-13.1-2-13.1-3.6-14.8-2.7-18.8-2.9-13.5-2.9-13.5l-1.3-11.4a31.3 31.3 0 0 1-4-21.5v-17.5s-5-33.9-5.7-51c-.5-11-.3-26-.2-35.3 0-5.3.2-8.7.2-8.7l78-8.2a64.4 64.4 0 0 0 1.3 11.6c.8 4.3 2 9.8 4 16.7 5.6 19.9 2.2 34.7 2.2 34.7l-.7 25s6.8 16.8 5.4 22.6a48 48 0 0 0-1.4 10.5s15.3 36.6 13.7 47.2 5 27.4 5 27.4 1.8 12 0 15.2z"/><path d="M644.7 649.4l23.7-3.1s-13.5 13.7-23.7 3.1zM665 623s.8 8.5-4.4 11.6c0 0 9.2-1.4 4.3-11.5zM663.5 596.4s-19.8 16.3-27 15 27-15 27-15zM615.3 657s-15.1 3.5-15.6 9.6 15.5-9.5 15.5-9.5zM618.6 732.3s-21.3 4-15.3 6.7 16 4.8 16 4.8 6.8.4-.7-11.5z" opacity=".1"/><g opacity=".1"><path d="M599 743.3a4.2 4.2 0 0 1-2-3.1l-.1.4s-2 4.8 1.4 7l1.1.7 2-.4c2.9-.7 1-2.5-2.4-4.6zM626.4 741.8c.6-.5.6-1.9.3-3.7a10 10 0 0 0-1.3 5.2 4.4 4.4 0 0 1 1-1.5zM623.2 652a24.3 24.3 0 0 0-1.5 6.7 26.1 26.1 0 0 1 1.7-4.5l-.2-2.1zM672 642.6a8.3 8.3 0 0 0 .1-2 46.3 46.3 0 0 0-.2 2zM622.7 716.2a11.5 11.5 0 0 0 .5-4 13.6 13.6 0 0 0-1 5 4.9 4.9 0 0 1 .5-1zM627.1 750.2a71 71 0 0 0-2.5 11.1l-21.8 2.5s-2-2.5-4.9-9.2l-.6-1.6c-1.3.6-1.8 2 0 6 2.8 6.6 4.8 9.2 4.8 9.2l21.8-2.6s1.7-11.3 3.8-13.5c1-1 .4-1.6-.6-1.9zM598.3 717.8s.2 12.5 2 13.2c1-2 1.5-4 .7-4.3-1.8-.8-2-13.2-2-13.2s-3.6-14.8-2.7-18.8-2.9-13.5-2.9-13.5l-1.2-11.4a31.2 31.2 0 0 1-4-21.4v-17.5s-5-34-5.8-51c-.5-11-.3-26-.2-35.3V540h-.5l-.2 8.8a667 667 0 0 0 .2 35.3c.7 17.1 5.7 51 5.7 51v17.5a31.2 31.2 0 0 0 4 21.5l1.3 11.3s3.8 9.6 2.9 13.5 2.7 18.8 2.7 18.8zM662.5 759a21 21 0 0 1-3.4-8.6c-2.3 2 .3 9.8 2.7 12.9 2.5 3.2 21.3 5.2 24.9-.7V759c-4.9 4.9-21.8 3-24.2-.1zM690 738.6a35 35 0 0 0-2.6 5.4v2.5l1.8-3.6a10.8 10.8 0 0 0 .8-4.5.6.6 0 0 0 0 .2zM663.6 741.4a34.8 34.8 0 0 0 1.8-4.3s-3 .8-8-5c-3.5-4.2-3.7-12-3.2-17.3-.9 3-2.3 15.9 2.5 21.7 3.2 3.7 5.6 4.7 7 5zM654.2 701.4a96.4 96.4 0 0 1 .4 10.7 15.6 15.6 0 0 1 .4-1.7c.9-3 0-13.3 0-13.3s.1-7.2-1.3-9.6-4.5-15.7-4.5-15.7 0-4.5-2.5-6.8-4.2-11.6-4.2-11.6a11.8 11.8 0 0 1-1.8-7.7c.5-4.5-3-9.4-3-9.4l-6.2-19.5-5.8-14.6-3.2 8.5-.1 2.7 2.6-6.9 5.8 14.7 6.1 19.4s3.7 5 3.1 9.4a11.8 11.8 0 0 0 1.8 7.8s1.6 9.2 4.2 11.5 2.5 6.9 2.5 6.9 3 13.3 4.5 15.7 1.2 9.5 1.2 9.5z"/></g><path fill="#ffcdd3" d="M669.4 369.5l-1.4 6.6v3l.1 2-7.5.9-.8-1.6a69 69 0 0 0-5.9-9.4c-1.4-1.2-3.8-19.5-.9-18.4a7.9 7.9 0 0 1 4.2 3.8s14.8 1.7 12.2 13.1z"/><path d="M668.2 381.2l-7.6.8-.8-1.6a6.7 6.7 0 0 1 8.3-1.3z" opacity=".1"/><path fill="#dce6f2" d="M670 384.8l-9.9 2.3-.2-1.5-.6-4s4-5.2 9.7-1.3l.4 2z"/><path fill="#ffcdd3" d="M509.3 370.3l-10.6 5.6-1-2-3-6.4c-.6-1.7-5-4-5-4-11-10.6 2.1-19.7 2.1-19.7 7-14 14.8 4.8 14.8 4.8s1.1 10 .3 10.6-.7 3.4-.7 3.4a41 41 0 0 1 2.5 6l.6 1.7z"/><path d="M509.3 370.3l-10.6 5.6-1-2c1.5-1.2 6.8-5.5 8.5-5.3a13.3 13.3 0 0 0 2.5 0l.6 1.7z" opacity=".1"/><path fill="#dce6f2" d="M510.3 373.5l-11.9 5.9-.2-2.6-.2-1.8s7-5.9 9-5.6a10.8 10.8 0 0 0 3 0l.2 2.1z"/><path fill="#ffcdd3" d="M640.5 413.3s-52 5.8-42.2 2.7c6.8-2.2 9.4-6.5 10-11.3.5-4-.6-8.3-2-12a51.6 51.6 0 0 0-4.6-9.3s39.7-21.9 31.8-2a31.8 31.8 0 0 0-2.3 9.4 26.3 26.3 0 0 0 1 9.5 28.3 28.3 0 0 0 8.3 13z"/><path d="M633.5 381.4a31.8 31.8 0 0 0-2.3 9.4c-3.7 3.1-7.8 2.9-13 2.9-4 0-8.6 1-11.8-1a51.6 51.6 0 0 0-4.7-9.4s39.7-21.8 31.8-2z" opacity=".1"/><circle cx="617.4" cy="373.6" r="21.5" fill="#ffcdd3"/><path d="M640.5 413.3s-52 5.8-42.2 2.7c6.8-2.2 9.4-6.5 10-11.3 2.6-2.8 7.8-4.8 11.1-5.9a15.5 15.5 0 0 1 9.4-.1 13 13 0 0 1 3.4 1.6 28.3 28.3 0 0 0 8.3 13zM670 384.8l-9.9 2.3-.2-1.5a8.8 8.8 0 0 1 9.5-3.3zM510.3 373.5l-11.9 5.9-.2-2.6a87.5 87.5 0 0 1 12-5.3zM661 544.1c-20 3.2-48.7 7.3-53.2 6-3.8-1.2-15.8-1-26.3-.7l.2-8.7 78-8.2a64.4 64.4 0 0 0 1.3 11.6z" opacity=".1"/><path fill="#656691" d="M681 539.4s-66.1 11.4-73.2 9.2-43.6.2-43.6.2c-16.4 11-9.6-5.3-9.6-5.3s-1.4-8.5.6-15.3a93.4 93.4 0 0 0 2.7-15.3s-.3-10.9 1.7-13.4 4.3-20.6 4.3-20.6 1.8-12.2 1.6-15a102.6 102.6 0 0 1 .6-10.2l2.3-12.7c-13.5-1.8-54.7-27-54.7-27-2-8.5-17.3-28.3-17.3-28.3a20.6 20.6 0 0 0-1.2-5c-1.1-2.8 15.1-8.6 15.1-8.6S522.4 387 525 391s11.2 11.4 11.2 11.4a8.8 8.8 0 0 1 4 .5h.2a32.3 32.3 0 0 1 8.1 4.7 15.7 15.7 0 0 1 11 4.1s7.4-1 8.7.2 7.5 0 7.5 0 6.4-13.3 10.5-9.5 21.8 3.7 21.8 3.7c2.3-3 8-5.3 11.6-6.5a15.6 15.6 0 0 1 9.4-.1 12.1 12.1 0 0 1 3.7 1.8l10.7 10.4s3-4 2.7-4.8 3.6-1.7 3.6-1.7l7.2-2.1c2-.5 3.8 1.6 4 1.8 0-.3-1.4-4.6-.9-8s-2.1-6.5-2.1-6.5c6.3-15.5 20.5-2.5 20.5-2.5s1.6 8.5.2 11.7 1.4 10.2 1 12 .8 4.8.8 8.3-1.8 9.9-2.9 12.8-9.7 9.3-9.7 9.3-.6 10.3-4.4 16.3-1.5 26.3-1.5 26.3 3.6 16 8.1 21 11.2 33.9 11.2 33.9z"/><path d="M584.6 420.7s-2-6-3.8-6.5a43 43 0 0 1-5.2-2.4l1.1-2.2s6.8 1.9 7.9 3.9 0 7.2 0 7.2zM548.3 407.5c-.3 1.8-16.4 3.4-16.4 3.4l8.1-8.1h.2a32.3 32.3 0 0 1 8.1 4.7z" opacity=".1"/><circle cx="501.9" cy="382.8" r="1.4" fill="#575988"/><circle cx="503.7" cy="385.6" r="1.4" fill="#575988"/><circle cx="505.5" cy="388.3" r="1.4" fill="#575988"/><circle cx="507.4" cy="391.2" r="1.4" fill="#575988"/><circle cx="677.5" cy="391" r="1.2" fill="#575988"/><circle cx="677.6" cy="393.7" r="1.2" fill="#575988"/><circle cx="677.8" cy="396.4" r="1.2" fill="#575988"/><path d="M584.7 469.6c-.2-.2 40.5 51.1 72 21.4 0 0-49.8 6.8-72-21.4zM561.3 496.3s24.3.6 26.9 7.6v7.3a4.7 4.7 0 0 1-4.5 0c-2.5-1.3-17.2-8.8-22.4-5.2z" opacity=".1"/><path fill="#656691" d="M561.8 496.3s23.2.6 25.7 7.3v7a4.5 4.5 0 0 1-4.4 0c-2.3-1.3-16.4-8.5-21.3-5z"/><path d="M574.6 443.4a78.6 78.6 0 0 0 9.4 16.2 63.5 63.5 0 0 0 14.8 14.3s-23.8-27.1-24.2-30.5zM566.6 415.2s4.1 17.5 14.6 23.4zM560.4 417c0-.4-3.6 13.8 13.5 21.6 0 0-7.3-2.4-13.5-21.7zM666.7 405.2c-.3 0 8.4 5.5 10.8 8 0 0-5.7-8.4-10.8-8z" opacity=".1"/><path fill="#2d293d" d="M611.6 393a4.6 4.6 0 0 0 1.7 3 4.6 4.6 0 0 0 2 .4c6.5.4 13.3.7 19.4-1.8a7.3 7.3 0 0 0 3-2c1-1.3 1.3-3 1.7-4.7.9-3.2 2.7-6 4-9.1a30.6 30.6 0 0 0 2.1-16.4 10.8 10.8 0 0 0-1.6-4.8c-1.7-2.5-4.9-3.5-7.2-5.4s-3.8-5-6.4-6.5c-2.5-1.4-5.4-1.2-8.1-.7a42.7 42.7 0 0 0-15.3 5.6c-1.5 1-3.2 2-5 1.8-1.5-.3-2.7-1.7-3.7-2.9a20 20 0 0 0-1.6 9.4 4.2 4.2 0 0 1 0 1.4 4.3 4.3 0 0 1-1 1.5c-1.6 1.8-2.6 4.8-1 6.7.7.8 1.8 1.3 2.5 2.1 1.2 1.5.8 3.7.7 5.6a2.9 2.9 0 0 0 .5 2 2.8 2.8 0 0 0 2.7.6 7.3 7.3 0 0 1 2.8-.3 4.6 4.6 0 0 1 2.4 1.9c3 3.8 4.1 8 5.4 12.7z"/><g opacity=".1"><path d="M638.4 391a7.3 7.3 0 0 1-3 2c-6 2.5-12.9 2.2-19.4 1.8a4.4 4.4 0 0 1-2-.5 4.5 4.5 0 0 1-1.7-2.8 33.4 33.4 0 0 0-5.5-12.7 4.6 4.6 0 0 0-2.4-2 7.2 7.2 0 0 0-2.8.3 2.8 2.8 0 0 1-2.7-.6 2.9 2.9 0 0 1-.4-1.9c0-2 .4-4.1-.8-5.6-.7-.9-1.7-1.3-2.4-2.1a4.2 4.2 0 0 1-.5-4.3c-1.1 1.8-1.6 4.1-.3 5.7.7.8 1.8 1.3 2.5 2.1 1.2 1.5.8 3.7.7 5.6a2.9 2.9 0 0 0 .5 2 2.8 2.8 0 0 0 2.7.6 7.3 7.3 0 0 1 2.8-.3 4.6 4.6 0 0 1 2.4 1.9c3 3.8 4.2 8 5.5 12.7a3.4 3.4 0 0 0 3.7 3.3c6.6.4 13.4.7 19.4-1.8a7.3 7.3 0 0 0 3-2 5.7 5.7 0 0 0 1-1.7 3 3 0 0 1-.3.3zM596.6 359.7a3 3 0 0 0 .7-1 4.2 4.2 0 0 0 0-1.5 19.9 19.9 0 0 1 1-7.8l-.1-.1a19.9 19.9 0 0 0-1.6 9.3 6.2 6.2 0 0 1 0 1.1z"/></g><path d="M607.8 406s26.8 3.6 29.2-.4M660 395s14.8 0 18.1 5.6" opacity=".1"/><path fill="#c95300" d="M980.7 381.5s1.8 2.4-.9 6.1-5 6.8-4 9.1c0 0 4-6.8 7.4-7s1.2-4.1-2.5-8.2z"/><path d="M980.7 381.5a3.3 3.3 0 0 1 .4.8c3.2 3.8 5 7.4 1.8 7.5-2.9 0-6.4 5.3-7.2 6.6v.3c0 .1 4.2-6.8 7.5-7s1.2-4.1-2.5-8.2z" opacity=".1"/><path fill="#ffd037" d="M984.1 384.6c0 .8 0 1.5-.2 1.5s-.2-.7-.2-1.5.1-.5.2-.5.2-.4.2.5z"/><path fill="#ffd037" d="M985.3 385.6c-.7.4-1.4.6-1.4.5s.5-.5 1.2-.9.5-.1.5 0 .5 0-.3.4z"/><path fill="#c95300" d="M970.8 381.5s-1.8 2.4.9 6.1 5 6.8 4 9.1c0 0-4-6.8-7.4-7s-1.1-4.1 2.5-8.2z"/><path d="M970.8 381.5a3 3 0 0 0-.3.8c-3.3 3.8-5 7.4-2 7.5 3 0 6.5 5.3 7.4 6.6l-.1.3c0 .1-4.1-6.8-7.5-7s-1.1-4.1 2.5-8.2z" opacity=".1"/><path fill="#ffd037" d="M967.4 384.6c0 .8 0 1.5.2 1.5a3.2 3.2 0 0 0 .2-1.5c0-.9-.1-.5-.2-.5s-.2-.4-.2.5z"/><path fill="#ffd037" d="M966.2 385.6c.7.4 1.4.6 1.5.5s-.6-.5-1.3-.9-.5-.1-.5 0-.5 0 .3.4z"/><path fill="#a8a8a8" d="M968 396.3s5.2-.1 6.7-1.3 8-2.4 8.4-.6 7.9 9 2 9-13.6-1-15.2-1.9-2-5.2-2-5.2z"/><path d="M985.2 402.7c-5.9 0-13.7-.9-15.2-1.8-1.2-.8-1.7-3.4-1.9-4.6h-.2s.4 4.2 2 5.2 9.3 2 15.2 1.9c1.7 0 2.3-.7 2.2-1.5-.2.5-.8.8-2.1.8z" opacity=".2"/></svg>