<svg data-name="Layer 1" xmlns="http://www.w3.org/2000/svg" xmlns:xlink="http://www.w3.org/1999/xlink" width="965.6" height="800.8"><defs><linearGradient id="a" x1="478.4" y1="695.7" x2="478.4" y2="33.2" gradientUnits="userSpaceOnUse"><stop offset="0" stop-color="gray" stop-opacity=".3"/><stop offset=".5" stop-color="gray" stop-opacity=".1"/><stop offset="1" stop-color="gray" stop-opacity=".1"/></linearGradient><linearGradient id="b" x1="1834.2" y1="806.9" x2="1834.2" y2="195" gradientTransform="matrix(-1 0 0 1 2766 0)" xlink:href="#a"/></defs><path d="M901.9 442.5c-37.1 60-30.2 141.7-13.9 206.2 5.5 21.6 11.8 44.4 7.1 68.5-5.7 29.5-26.5 52.7-47.5 66-38.4 24.1-82.1 23.5-114-1.8-27.5-21.8-45.7-59.8-73.8-80.5-47-34.5-111.5-13.6-167.6 18.7-39.6 22.8-83.2 51.8-119.8 35.4-25.8-11.5-41.9-44-49.4-79.5-3.6-17-5.8-35.7-14-48.7-5-7.8-11.8-13-18.9-17.2C226 570.8 139 603.2 77 559.4 35.1 529.7 11.4 468.6 3.5 403s-1.3-135.4 6.7-204.3c5.7-49 13.5-101.4 39.2-141.3 27.2-42.1 70.1-61 107.4-57s69.6 27.7 97.5 56.5c34.9 36.1 66.3 82.2 111.5 93.8 30.7 8 64.3-1.2 97-6.4 54.6-8.7 108.4-6.2 161.8-3 51.2 3.2 102.6 7 150.3 25 33.8 12.8 59.6 39.3 91.1 56.6 20.5 11.3 43.7 12.7 62.8 27.7a94.4 94.4 0 0 1 34.5 95.7c-9 41-41.7 64.3-61.4 96.1z" fill="#007bff" opacity=".1"/><path d="M664.5 306.9s101-84.6 123.5-127.3 51-79.5 51-79.5" fill="none" stroke="#535461" stroke-miterlimit="10" stroke-width="2"/><path d="M825.7 195.5l-43.7-9.8s10.3 46 43.7 9.8z" fill="#007bff"/><path d="M759 148.5L784 186s-49.1 3.6-25.1-37.6zM843 160.1l-40-7s25 38.2 40 7zM783.8 126.5l19.7 25.8s-34.8 3.2-19.7-25.8zM823.6 121.4s34 1.6 38 4.8-5 22.3-18 19.2-20-24-20-24zM810 91s14 25.3 13.4 30.1-21.2 10.2-25.3-8S810 91 810 91z" fill="#007bff"/><circle cx="963.8" cy="154.1" r="9.5" transform="rotate(-72.5 874 210.4)" fill="#ffd037"/><circle cx="948.9" cy="144.4" r="9.5" transform="matrix(.3 -.95 .95 .3 407.5 955.9)" fill="#ffd037"/><path d="M349.5 638.6s16.2-48.2-86.6-106.3c0 0-104.3-30.4-93.7-135 0 0-120.2 88.2-38.9 200.4S282 685.5 282 685.5z" fill="#007bff"/><path d="M318.1 660.4S268 606.2 220 585.3a95.7 95.7 0 0 1-26-17.4c-30.7-28-44-70.3-36.2-111l11.6-59.5" fill="none" stroke="#535461" stroke-miterlimit="10" stroke-width="2"/><path fill="url(#a)" d="M193.1 33.2h570.6v662.5H193.1z"/><path fill="#f7f7fd" d="M199.7 40.9H757V688H199.7z"/><path fill="#e2e2ec" d="M233.4 113.8h140.9V125H233.4zM233.4 141.3H474v11.2H233.4z"/><path fill="#fff" d="M630.4 103.1h100v86.3h-100z"/><path d="M729.8 103.6V189h-99v-85.3h99m1-1h-101V190h101v-87.3z" fill="#e2e2ec"/><path fill="#fff" d="M529.4 103.1h100v86.3h-100z"/><path d="M628.8 103.6V189h-99v-85.3h99m1-1h-101V190h101v-87.3z" fill="#e2e2ec"/><path fill="#fff" d="M630.4 190.4h100v86.3h-100z"/><path d="M729.8 191v85.2h-99v-85.3h99m1-1h-101v87.3h101v-87.3z" fill="#e2e2ec"/><path fill="#fff" d="M529.4 190.4h100v86.3h-100z"/><path d="M628.8 191v85.2h-99v-85.3h99m1-1h-101v87.3h101v-87.3z" fill="#e2e2ec"/><path fill="#fff" d="M428.4 190.4h100v86.3h-100z"/><path d="M527.9 191v85.2h-99v-85.3h99m1-1h-101v87.3h101v-87.3z" fill="#e2e2ec"/><path fill="#fff" d="M327.4 190.4h100v86.3h-100z"/><path d="M426.9 191v85.2h-99v-85.3h99m1-1h-101v87.3h101v-87.3z" fill="#e2e2ec"/><path fill="#fff" d="M226.4 190.4h100v86.3h-100z"/><path d="M325.9 191v85.2h-99v-85.3h99m1-1h-101v87.3h101v-87.3z" fill="#e2e2ec"/><path fill="#fff" d="M630.4 277.7h100V364h-100z"/><path d="M729.8 278.2v85.3h-99v-85.3h99m1-1h-101v87.3h101v-87.3z" fill="#e2e2ec"/><path fill="#fff" d="M529.4 277.7h100V364h-100z"/><path d="M628.8 278.2v85.3h-99v-85.3h99m1-1h-101v87.3h101v-87.3z" fill="#e2e2ec"/><path fill="#fff" d="M428.4 277.7h100V364h-100z"/><path d="M527.9 278.2v85.3h-99v-85.3h99m1-1h-101v87.3h101v-87.3z" fill="#e2e2ec"/><path fill="#fff" d="M327.4 277.7h100V364h-100z"/><path d="M426.9 278.2v85.3h-99v-85.3h99m1-1h-101v87.3h101v-87.3z" fill="#e2e2ec"/><path fill="#fff" d="M226.4 277.7h100V364h-100z"/><path d="M325.9 278.2v85.3h-99v-85.3h99m1-1h-101v87.3h101v-87.3z" fill="#e2e2ec"/><path fill="#fff" d="M630.4 365h100v86.3h-100z"/><path d="M729.8 365.5v85.2h-99v-85.2h99m1-1h-101v87.2h101v-87.2z" fill="#e2e2ec"/><path fill="#fff" d="M529.4 365h100v86.3h-100z"/><path d="M628.8 365.5v85.2h-99v-85.2h99m1-1h-101v87.2h101v-87.2z" fill="#e2e2ec"/><path fill="#fff" d="M428.4 365h100v86.3h-100z"/><path d="M527.9 365.5v85.2h-99v-85.2h99m1-1h-101v87.2h101v-87.2z" fill="#e2e2ec"/><path fill="#fff" d="M327.4 365h100v86.3h-100z"/><path d="M426.9 365.5v85.2h-99v-85.2h99m1-1h-101v87.2h101v-87.2z" fill="#e2e2ec"/><path fill="#fff" d="M226.4 365h100v86.3h-100z"/><path d="M325.9 365.5v85.2h-99v-85.2h99m1-1h-101v87.2h101v-87.2z" fill="#e2e2ec"/><path fill="#fff" d="M630.4 452.2h100v86.3h-100z"/><path d="M729.8 452.7V538h-99v-85.3h99m1-1h-101V539h101v-87.3z" fill="#e2e2ec"/><path fill="#fff" d="M529.4 452.2h100v86.3h-100z"/><path d="M628.8 452.7V538h-99v-85.3h99m1-1h-101V539h101v-87.3z" fill="#e2e2ec"/><path fill="#fff" d="M428.4 452.2h100v86.3h-100z"/><path d="M527.9 452.7V538h-99v-85.3h99m1-1h-101V539h101v-87.3z" fill="#e2e2ec"/><path fill="#fff" d="M327.4 452.2h100v86.3h-100z"/><path d="M426.9 452.7V538h-99v-85.3h99m1-1h-101V539h101v-87.3z" fill="#e2e2ec"/><path fill="#fff" d="M226.4 452.2h100v86.3h-100z"/><path d="M325.9 452.7V538h-99v-85.3h99m1-1h-101V539h101v-87.3z" fill="#e2e2ec"/><path fill="#fff" d="M630.4 539.5h100v86.3h-100z"/><path d="M729.8 540v85.3h-99V540h99m1-1h-101v87.3h101V539z" fill="#e2e2ec"/><path fill="#fff" d="M529.4 539.5h100v86.3h-100z"/><path d="M628.8 540v85.3h-99V540h99m1-1h-101v87.3h101V539z" fill="#e2e2ec"/><path fill="#fff" d="M428.4 539.5h100v86.3h-100z"/><path d="M527.9 540v85.3h-99V540h99m1-1h-101v87.3h101V539z" fill="#e2e2ec"/><path fill="#fff" d="M327.4 539.5h100v86.3h-100z"/><path d="M426.9 540v85.3h-99V540h99m1-1h-101v87.3h101V539z" fill="#e2e2ec"/><path fill="#fff" d="M226.4 539.5h100v86.3h-100z"/><path d="M325.9 540v85.3h-99V540h99m1-1h-101v87.3h101V539z" fill="#e2e2ec"/><path d="M436.4 704.9c2.9-2.2 5.6-4.7 6.4-7.9a6.6 6.6 0 0 0-4.5-8c-4-1.2-8.4 1-11.7 3.4s-7.1 5-11.5 4.5c4.5-3.2 6.6-8.5 5.4-13.3a5.2 5.2 0 0 0-1.5-2.7c-2.3-2-6.4-1.1-9.1.4-8.7 5-11 14.6-11.1 23.2-.9-3-.2-6.3-.2-9.5s-1-6.8-4.4-8.5a15.7 15.7 0 0 0-6.7-1.3c-3.9 0-8.2.2-10.8 2.5-3.3 3-2.5 7.8.4 11s7.2 5.1 11.2 7.3a23 23 0 0 1 8 6.2 5.7 5.7 0 0 1 .6 1.2h24.4a70 70 0 0 0 15.1-8.5z" fill="#007bff"/><circle cx="239.6" cy="203.5" r="5.7" fill="#fc6681"/><circle cx="253.8" cy="203.5" r="5.7" fill="#ffd037"/><circle cx="440.9" cy="288" r="5.7" fill="#007bff"/><circle cx="455.1" cy="288" r="5.7" fill="#007bff"/><circle cx="745.6" cy="451.3" r="5.7" fill="#007bff"/><circle cx="748.5" cy="444.7" r="5.7" fill="#007bff"/><circle cx="751.3" cy="439" r="5.7" fill="#007bff"/><circle cx="645" cy="203.5" r="5.7" fill="#007bff"/><circle cx="659.2" cy="203.5" r="5.7" fill="#007bff"/><circle cx="673.5" cy="203.5" r="5.7" fill="#007bff"/><circle cx="687.7" cy="203.5" r="5.7" fill="#007bff"/><circle cx="645" cy="380.1" r="5.7" fill="#007bff"/><circle cx="659.2" cy="380.1" r="5.7" fill="#007bff"/><circle cx="673.5" cy="380.1" r="5.7" fill="#007bff"/><circle cx="687.7" cy="380.1" r="5.7" fill="#007bff"/><circle cx="340.2" cy="288" r="5.7" fill="#ffd037"/><circle cx="239.6" cy="374.4" r="5.7" fill="#fc6681"/><path d="M857.9 515.2c6.3 3.7 16 6.1 28.4-1.8l-.2 17.5c1 12 15.8 56 15.8 56l10.5 36a282.5 282.5 0 0 1 11.5 78.6c0 8.8.9 17.9 3.4 24.7 5.6 15.1-2.2 34.6-5.6 41.8a175.7 175.7 0 0 1-17.3 5 11.8 11.8 0 0 0-1.6.4v-.1s-15.8 6.2-22.8 5.4c-5.2-.7-8.5 5.8-4.4 10.6a32 32 0 0 1-10.5 1.4c-7-.9-10.5 11.2 2.6 14.6s87.6 0 87.6 0a10.6 10.6 0 0 0 5.6-11.6l9.3-.4s13.2-6 0-22.4l-.7.5-2.8-8.2V752s16.6-80 11.4-89.5-7.9-57.6-7.9-57.6l1.8-52.5c4.8-9.8 7.2-25.1 8.4-37.1a78.9 78.9 0 0 0 3.4-17.7l.5-8.8A59.3 59.3 0 0 0 981 469c5-7.2 13.1-18.3 19.8-25 10.6-10.2 8-22.3 8-22.3l-4.5-29.2-10.5-50c1.4-13.8-1.5-21.7-4.7-26.2l2-13.5a171.9 171.9 0 0 0-3.1-58.4 39.6 39.6 0 0 0-8.3-18.7c-5.3-5.7-14-9.2-15.9-16.7-.5-1.9-.5-3.9-1.2-5.7-2-4.9-8-6.7-13.3-7.3-9.5-1.2-23.2-2-32.3 1.7a39.2 39.2 0 0 0-18.6 17.4c-2 3.5-3 7.3-2.1 10.7a14.7 14.7 0 0 0 1.5 3.7 33 33 0 0 0-2 11.5 33.6 33.6 0 0 0 21.4 31.1l.5 2a33.4 33.4 0 0 1 .9 4.7l-.5 9.1-.3 1.2a225.4 225.4 0 0 0-22 11.3c5.2 7.7-.9 40.4-.9 40.4-13.1 7.7-26.3 27.5-12.3 48.2s6.2 43 6.2 43l-2.2 33.6-.5 6.8h.2l-.2 2.5.4.1v2.8A40.8 40.8 0 0 0 866 493a53.8 53.8 0 0 1-9.2 11.3 6.8 6.8 0 0 0 1.1 11zM963.7 426a32 32 0 0 1 3-17l6.3.1.7 4.1c1.8 7.6-5.3 11.2-10 12.8z" transform="translate(-117.2 -49.6)" fill="url(#b)"/><path d="M848.2 709.7l3.4 10-11 11-36.3 8.5-26-2.5 1.6-9.3a11.2 11.2 0 0 1 8.3-8.2c10.7-2.5 31.2-8.3 35.5-16.2z" fill="#db8b8b"/><path d="M848.2 709.7l3.4 10-11 11-36.3 8.5-26-2.5 1.6-9.3a11.2 11.2 0 0 1 8.3-8.2c10.7-2.5 31.2-8.3 35.5-16.2z" opacity=".1"/><path d="M786.7 734.1l5-6.7-5-7.8s-15.2 6-22 5.2-10 11 2.6 14.4 84.3 0 84.3 0 12.6-6 0-22l-11 8.5s-18.6 10-27.8 8.4z" fill="#2e3037"/><path d="M764 748.4l26 2.5 36.3-8.4 11-11-.9-2.7-1.3-3.7-1.2-3.7-24.5-6.7a15.1 15.1 0 0 1-5 5c-7.9 5.4-22.2 9.3-30.5 11.3a8.8 8.8 0 0 0-1 .3 11.1 11.1 0 0 0-7.3 7.8z" fill="#db8b8b"/><path d="M764 748.4l26 2.5 36.3-8.4 11-11-.9-2.7-10 7.8s-18.6 10-27.9 8.4h-26.1l5-6.7-4.5-7a11.1 11.1 0 0 0-7.3 7.8z" opacity=".1"/><path d="M772.3 745.9l5.1-6.7-5-7.9s-15.2 6.2-22 5.3-10 11 2.6 14.4 84.2 0 84.2 0 12.7-6 0-22l-11 8.5s-18.5 10-27.8 8.4z" fill="#2e3037"/><path d="M793.4 257s40.5 4.3 34.6-12.6a30.3 30.3 0 0 1-1.3-14.8 41.3 41.3 0 0 1 7.2-17.2l-38 6a47.5 47.5 0 0 1 5.2 12c4.5 18-7.7 26.7-7.7 26.7z" fill="#db8b8b"/><path d="M862.5 449.2s-.8 36.3-9.2 54l-1.7 51.4s2.5 47.2 7.6 56.5-11 87.6-11 87.6v13.5s-27 10.1-34.6-1.7l7.6-100.3-3.4-139z" fill="#474463"/><path d="M862.5 449.2s-.8 36.3-9.2 54l-1.7 51.4s2.5 47.2 7.6 56.5-11 87.6-11 87.6v13.5s-27 10.1-34.6-1.7l7.6-100.3-3.4-139z" opacity=".1"/><path d="M879.4 333l5 13.4 4.3 28.7A25.4 25.4 0 0 1 881 397c-10.1 10-23.6 31.2-23.6 31.2l-16-48s16-2.6 13.5-13.5-1.7-31.3-1.7-31.3z" fill="#fc6681"/><path d="M879.4 333l5 13.4 4.3 28.7A25.4 25.4 0 0 1 881 397c-10.1 10-23.6 31.2-23.6 31.2l-16-48s16-2.6 13.5-13.5-1.7-31.3-1.7-31.3zM804.5 719.7c10.8 17 27.6 7.3 30.6 5.4l-1.2-3.7-24.5-6.7a15.1 15.1 0 0 1-5 5z" opacity=".1"/><path d="M770.7 482.1c.8 11.8 15.1 54.8 15.1 54.8l10.2 35.4a281.4 281.4 0 0 1 11 76.9c0 8.6.9 17.5 3.3 24.2 6.7 18.6-6.7 43.8-6.7 43.8 11.8 21.1 32 6.8 32 6.8v-13.5s16-73.3 11.8-87.6-6-53.1-6-53.1v-70a79.4 79.4 0 0 0 23.2-50.4l.5-8.6c.6-19-12.4-41.3-17.4-49.3l-2-3-74.5 29.5-.1.1v9.3z" fill="#474463"/><path d="M796 218.3a47.5 47.5 0 0 1 5 12.2 33 33 0 0 0 25.7-1 41.3 41.3 0 0 1 7.2-17z" opacity=".1"/><circle cx="812.8" cy="198.1" r="32.9" fill="#db8b8b"/><path d="M770.7 427.3h.3c35.4 7.4 79.7-29.5 79.7-29.5a43.7 43.7 0 0 1-3-6.2c-1.2-2-2-3-2-3L771.3 418l-.2 3z" opacity=".1"/><path d="M780 256.2s47.1-28.6 62.3-16.8l21 27s13.6 4.2 11 31.1l10.2 49L854 354s-17.7 16.9-3.4 41.3c0 0-44.6 37-80 29.5l2.5-39.6s7.6-22-5.9-42.1-.8-39.7 11.8-47.3c0 0 5.9-32 .8-39.6z" fill="#fc6681"/><path d="M777.4 428.2s-17.7 3.3-26.1 16.8a52.5 52.5 0 0 1-8.8 11 6.7 6.7 0 0 0 1 10.7c6.7 4 17.6 6.5 31.3-4.8 23.7-19.4 2.6-33.7 2.6-33.7z" fill="#db8b8b"/><path d="M803.5 272.2s16.9-1.6 21.1 42.2 11 54 11 54 4.2 22.7-5.9 36.2-29.5 42.1-29.5 42.1-21 5.9-25.3-15.2l26.2-48.9s4.2-16.8-6-28.6-17.7-90.2 8.4-81.8z" opacity=".1"/><path d="M801.8 269.7s16.9-1.7 21 42.2 11 53.9 11 53.9 4.3 22.8-5.8 36.2-29.5 42.2-29.5 42.2-21 5.9-25.3-15.2l26.1-48.9s4.3-16.8-5.9-28.6-17.7-90.2 8.4-81.8z" fill="#fc6681"/><path d="M788 301.3s-1.7 26.1 5.8 40.5 7.6 32.8 0 43M783.7 269.3s6.8-6.8 26.2-7.6 27.8-6.7 27.8-6.7" opacity=".1"/><path d="M830.6 155.6c5.1.6 11 2.4 12.8 7.2.7 1.8.7 3.7 1.2 5.5 2 7.4 10.2 10.8 15.3 16.5 4.5 5 6.5 11.6 8 18.2a171.4 171.4 0 0 1 3 57.3c-1.6 14-5 27.7-6 41.7s.8 28.8 8.5 40.6c3.3 5.1 7.7 9.6 10 15.2-4.8 3.9-11.5 4.4-17.7 4.6q-10.9.4-21.8 0c-3.8 0-7.7-.3-11-2.2a17 17 0 0 1-5.8-6.3c-4.2-7-5.2-15.5-5-23.6s1.5-16.3 1.6-24.5c0-4.4-.3-9.2-2.8-12.8-1.9-2.6-4.7-4.4-7-6.5-9-8-12.2-20.9-12.5-33s1.7-24 .7-36c-.4-4.7-2.2-10.4-6.8-11.3-1.5-.3-3 0-4.4-.6-3.7-1.4-3.4-6.6-4.4-10.5-1.2-4.3-4.9-7.6-6-12-2.3-10.2 10.6-22.3 19.2-25.9 8.6-3.6 21.8-2.7 31-1.6z" opacity=".1"/><path d="M831.5 154c5 .5 11 2.3 12.8 7.1.7 1.8.7 3.7 1.1 5.6 2 7.3 10.2 10.8 15.4 16.4 4.5 5 6.5 11.7 8 18.2a171.4 171.4 0 0 1 3 57.3c-1.7 14-5 27.7-6 41.8s.8 28.8 8.5 40.6c3.3 5 7.6 9.5 10 15-4.9 4-11.5 4.6-17.8 4.8q-10.8.3-21.7 0c-3.8-.2-7.8-.4-11-2.3a17 17 0 0 1-5.9-6.3c-4.1-7-5.2-15.5-5-23.6s1.5-16.3 1.7-24.5c0-4.4-.3-9.2-2.9-12.8-1.8-2.6-4.6-4.4-7-6.5-9-8-12.2-20.8-12.5-32.9s1.7-24.1.7-36.1c-.4-4.7-2.1-10.4-6.8-11.3-1.4-.3-3 0-4.4-.5-3.7-1.5-3.3-6.7-4.4-10.5-1.2-4.3-4.8-7.6-5.9-12-2.4-10.2 10.6-22.4 19-26 8.7-3.6 22-2.7 31-1.6z" fill="#472727"/></svg>