<svg xmlns="http://www.w3.org/2000/svg" width="1051.2" height="697.2" data-name="Layer 1"><defs><linearGradient id="a" x1="790.7" x2="943.7" y1="596.5" y2="596.5" gradientUnits="userSpaceOnUse"><stop offset="0" stop-color="gray" stop-opacity=".3"/><stop offset=".5" stop-color="gray" stop-opacity=".1"/><stop offset="1" stop-color="gray" stop-opacity=".1"/></linearGradient></defs><path fill="#007bff" d="M602 133c-64.7-2.3-126.4-23.2-185.2-46S299.6 38.8 236.5 26.7c-40.7-7.8-87.1-9-119.9 12.9-31.5 21-41.7 57.1-47.1 90.7-4.1 25.3-6.6 51.8 4.7 75.5 7.8 16.4 21.8 30.2 31.4 46 33.4 54.7 9.8 122.1-26.5 175.6-17 25-36.7 49-49.9 75.6s-19.2 57.3-7.7 84.5c11.4 27 38.5 47.2 68 61.5 59.6 29 130 37.2 198.5 41.9 151.9 10.4 304.5 5.9 456.7 1.4 56.4-1.7 113-3.4 168.4-12 30.7-5 62.5-12.6 84.9-31.1a71.1 71.1 0 0 0 16.4-93c-32-49.4-120-61.7-142.4-114.8-12.2-29.2.4-61.8 18.2-89 38.2-58 102.3-109.1 105.7-175.6 2.3-45.7-28.5-91.4-76.1-113-50-22.6-119.2-19.8-156 17.7-38 38.6-104.7 53.4-161.8 51.5z" opacity=".1"/><g data-name="flowers" opacity=".6"><path fill="none" stroke="#535461" stroke-miterlimit="10" stroke-width="2" d="M258.3 245.7S231 197 189.5 183a84.8 84.8 0 0 1-42.9-32.1 142.3 142.3 0 0 1-12.7-22.8"/><path fill="#007bff" d="M107.9 119.1c4.7 4.6 26.6 9.3 26.6 9.3s-5.4-21.8-10-26.4a11.9 11.9 0 1 0-16.6 17.1zM120.3 158.6c6.4 1.3 27.4-6.7 27.4-6.7s-16.3-15.3-22.8-16.6a11.9 11.9 0 1 0-4.6 23.3zM165.5 201.3c6.2-2.1 20.4-19.6 20.4-19.6s-22-5-28.2-2.9a11.9 11.9 0 0 0 7.8 22.5zM207 226c6.5-1.1 23.4-16 23.4-16s-20.7-8.6-27.2-7.6A11.9 11.9 0 0 0 207 226zM166 134.9c0 6.5-11.8 25.6-11.8 25.6s-12-19-12-25.6a11.9 11.9 0 0 1 23.9 0zM214.2 164.3c-2 6.2-19 20.9-19 20.9s-5.6-21.8-3.7-28a11.9 11.9 0 0 1 22.8 7zM257.2 199.3c-1 6.5-15.3 23.8-15.3 23.8s-9.2-20.5-8.3-27a11.9 11.9 0 0 1 23.6 3.2z"/><path d="M107.9 119.1c4.7 4.6 26.6 9.3 26.6 9.3s-5.4-21.8-10-26.4a11.9 11.9 0 1 0-16.6 17.1zM120.3 158.6c6.4 1.3 27.4-6.7 27.4-6.7s-16.3-15.3-22.8-16.6a11.9 11.9 0 1 0-4.6 23.3zM165.5 201.3c6.2-2.1 20.4-19.6 20.4-19.6s-22-5-28.2-2.9a11.9 11.9 0 0 0 7.8 22.5zM207 226c6.5-1.1 23.4-16 23.4-16s-20.7-8.6-27.2-7.6A11.9 11.9 0 0 0 207 226zM166 134.9c0 6.5-11.8 25.6-11.8 25.6s-12-19-12-25.6a11.9 11.9 0 0 1 23.9 0zM214.2 164.3c-2 6.2-19 20.9-19 20.9s-5.6-21.8-3.7-28a11.9 11.9 0 0 1 22.8 7zM257.2 199.3c-1 6.5-15.3 23.8-15.3 23.8s-9.2-20.5-8.3-27a11.9 11.9 0 0 1 23.6 3.2z" opacity=".3"/><path fill="none" stroke="#535461" stroke-miterlimit="10" stroke-width="2" d="M256.8 244.8s-5.4-55.7-37.6-85.3a84.8 84.8 0 0 1-26.2-46.7 142.3 142.3 0 0 1-2.4-26"/><path fill="#007bff" d="M170.5 68c2.4 6.1 20.6 19.4 20.6 19.4s4-22.2 1.5-28.3a11.9 11.9 0 1 0-22.1 9zM165.8 109.2c5.4 3.7 27.9 5 27.9 5s-8.8-20.7-14.2-24.5a11.9 11.9 0 1 0-13.7 19.4zM189.9 166.6c6.5.5 26.6-9.8 26.6-9.8s-18-13.4-24.6-14a11.9 11.9 0 0 0-2 23.8zM217.9 205.9c6.3 1.6 27.8-5.1 27.8-5.1s-15.5-16.3-21.8-18a11.9 11.9 0 1 0-6 23zM217.3 106c-2.6 6-21.2 18.6-21.2 18.6s-3.2-22.2-.5-28.2a11.9 11.9 0 1 1 21.7 9.6zM249.5 152.4c-4.4 5-25.9 11.4-25.9 11.4s3.6-22.1 8-27a11.9 11.9 0 0 1 17.9 15.6zM274.5 201.8c-3.4 5.6-23.6 15.6-23.6 15.6s-.1-22.4 3.3-28a11.9 11.9 0 1 1 20.3 12.4z"/></g><path fill="#fff" stroke="#33313f" stroke-miterlimit="10" stroke-width="3" d="M147.4 165.9s147 6 167 0c0 0-11 246-7 254 0 0-163 9-175 0s15-254 15-254zM169.4 211.9s68 108 91 118M260.4 211.9s-65 85-75 114"/><path fill="#fff" stroke="#33313f" stroke-miterlimit="10" stroke-width="3" d="M254.4 370.9h-79c-6 0-6 28-6 28h85zM423.4 165.9s141-7 167 0c0 0-11 246-7 254 0 0-180.2 14-175 0 11-30 15-254 15-254zM478.3 184.6s31.4 49.9 42 54.5M520.3 184.6s-30 39.3-34.6 52.6"/><path fill="#fff" stroke="#33313f" stroke-miterlimit="10" stroke-width="3" d="M556.1 270.9h-106c-8 0-8 28-8 28h114zM541.6 359.9h-79c-6 0-6 28-6 28h85zM556.1 311.9c8 0-96.6 9-106 0-5-4.8-8 28-8 28h114z"/><path fill="#fff" stroke="#33313f" stroke-miterlimit="10" stroke-width="3" d="M488.9 373.4l6 6 11-15M692.4 167.9s140 17 167 0c0 0-11 246-7 254 0 0-185.8 10.4-175 0 27-26 15-254 15-254zM711.8 211.4s20.2 32 27 35M738.8 211.4s-19.3 25.2-22.2 33.8"/><path fill="#fff" stroke="#33313f" stroke-miterlimit="10" stroke-width="3" d="M827.1 277.4h-106c-8 0-8 14.8-8 14.8h114zM769.3 321.4h55.2c8 0 8 14.8 8 14.8h.3M827.1 299c8 0-96.6 4.8-106 0-5-2.4-8 14.9-8 14.9h114zM693.2 186.6s155.2 11.5 165.2 3.9"/><path fill="#fff" stroke="#33313f" stroke-miterlimit="10" stroke-width="2" d="M838.9 179.5c2-.4 4.3.2 6.4.6s4.6.2 6.2-1.3M837.8 183.5a57.2 57.2 0 0 0 13.6.7M837.8 189a103 103 0 0 1 11.6-1.2M702 181.6a13.2 13.2 0 0 0 6 1.2 5.6 5.6 0 0 0 3.7-.8c1.3-1 1.4-3 1.4-4.7a3.5 3.5 0 0 0-.2-1.5 3 3 0 0 0-1.1-1.1 12 12 0 0 0-10-1.2c-4 1.6-3.3 6.3.1 8.1z"/><path fill="#fff" stroke="#33313f" stroke-miterlimit="10" stroke-width="3" d="M746.2 205.1c-.6 7.4 1.2 14.8 2.4 22a144.3 144.3 0 0 1 1.7 28q-23.6 1.5-47.4.8c1.5 0 1.1-33.5 1.3-36.6.2-3.9-.7-10.7 3.9-12.2 4.8-1.5 11.6-.5 16.6-.8l21.5-1.2z"/><path fill="none" stroke="#33313f" stroke-miterlimit="10" stroke-width="3" d="M337.4 280.9s39-2 46 0M383.4 259.9s17 17 17 21-22 18-22 18M607.4 280.9s39-2 46 0"/><path fill="none" stroke="#33313f" stroke-miterlimit="10" stroke-width="3" d="M653.4 259.9s17 17 17 21-22 18-22 18"/><circle cx="377.3" cy="21.6" r="21.6" fill="#007bff" opacity=".1"/><circle cx="706.4" cy="51.5" r="21.6" fill="#007bff" opacity=".1"/><circle cx="937.6" cy="371.9" r="21.6" fill="#007bff" opacity=".1"/><circle cx="1015" cy="275.5" r="36.3" fill="#007bff" opacity=".1"/><circle cx="967" cy="451.4" r="36.3" fill="#007bff" opacity=".1"/><circle cx="36.3" cy="338.1" r="36.3" fill="#007bff" opacity=".1"/><path fill="url(#a)" d="M942.5 488.1a18 18 0 0 0-.5-3.6c-.9-3.3-2.9-7.4-6.2-8.4a52.8 52.8 0 0 1-10-4.2c-.6-10.7 1.9-21.7-.8-32.1-1-3.8-2.6-7.4-3-11.3-.6-4.9.7-10-1.2-14.5-1.6-3.5-4.9-6-8.5-7.3s-7.5-1.6-11.3-2c-4.8-.4-20.3-2.2-25.7 2a5.3 5.3 0 0 0-1 1 3.5 3.5 0 0 0-.3.6 6.3 6.3 0 0 0-.3.7 3.8 3.8 0 0 0-.2.7 1.9 1.9 0 0 0 0 .3 4.6 4.6 0 0 0 0 .5v1l.2 2.7a5.8 5.8 0 0 1 0 1.4 9.3 9.3 0 0 1-1.8 3.2l-.1.3-.4.4-.2.4-.2.4-.3.5-.2.3a6.1 6.1 0 0 0-.3.8 5.5 5.5 0 0 0 0 2.7 10.2 10.2 0 0 0 1.4 3.2l.8 1.2.7 1a20 20 0 0 0-.2 2.7 20.6 20.6 0 0 0 7.9 16.3 62 62 0 0 1-.1 12.7l-.3 2.6-.4 2.2a10.2 10.2 0 0 1-4.4-.3 20.4 20.4 0 0 0-2-.8c-2.9-.7-5.9 2.2-8.7 1.3l-.1.4a4 4 0 0 0-2-.6c-1.7 0-3.1-1.3-4.4-2.5l-3.8-3.6a3.9 3.9 0 0 1-.7-.7 5 5 0 0 1-.4-1.2 14.2 14.2 0 0 0-3.7-5.3 2.5 2.5 0 0 0-1.1-.8 1.4 1.4 0 0 0-.5 0l-.3-.4-.9-.9c-1.8-1.6-2-3-3.5-5a47.2 47.2 0 0 1-3.8-5.6 57 57 0 0 0-.5-3.2 41 41 0 0 0-2.2-7.3l1.4-1.5V427l2.4-2.9-.2-.1 3-2.8-3-.1-1.4 1.9v-.1l-2.6 2.5-1.7.2-.2.2c-1.5-2.1-3-3.3-4.4-3-2.3.5-3.5 5-3.1 10.9l-7 7.2-.8.9-3.5 4.5 2.8 2.7 4.3-4 .7-.7 4.3-4.7v.5a12 12 0 0 0-.2 2.2c0 .8.8 1.4 1.2 2.2a6 6 0 0 1 1 3.4l-.2 1.3a4.8 4.8 0 0 0 1 2.5l5 8.4 1 1.8a4.3 4.3 0 0 0 1.3 1.6 18.4 18.4 0 0 0 1.7 6.1l.5 1.1a35.2 35.2 0 0 0 4.7 6.1l2.4 2.7c2.4 2.6 4.7 5.2 7.3 7.7a9.7 9.7 0 0 0 3.2 2.2 3.6 3.6 0 0 0 3.7-.5v3.7a2.6 2.6 0 0 1 1.7 1.2 2.5 2.5 0 0 1-.2 2.1c-2 5.4-4.2 10.8-7.4 15.7a33 33 0 0 1 6.2 4.7 27.4 27.4 0 0 1 3.3 4.4l.2 2.2c.7 11.9-3.9 23.7-8 35-1.2 3.3-2.5 6.7-2.4 10a20.6 20.6 0 0 0-2.2 1.6c.8 2.2.5 4 .4 6.4a11.3 11.3 0 0 1-.9 4l-1.4 2.5c-2.6 4.6-3.2 10-3.7 15.3-.3 3.1 1 7-.5 9.8-2.5 4.8-4.7 10-5 15.4a16 16 0 0 1-.5 3.6c-.3 1-.9 1.8-1.2 2.8a12 12 0 0 0-.1 4 38.2 38.2 0 0 1-2.2 14c-1.2 3.7-2.6 7.5-1.6 11.2a15.5 15.5 0 0 0-4.2 9.2 14.7 14.7 0 0 1-.4 2.7 13.2 13.2 0 0 1-1.2 2.6 22.4 22.4 0 0 0-2.7 12c-3 4-4.5 9-5.4 14s-1.3 10.1-2.4 15c-1.5 6.6-4.3 13.2-4.8 19.8-3.2 2.1-4.6 6.1-5.3 9.9s-.7 7.8-2.3 11.3c-.8 1.8-2 3.4-2.7 5.3a23.9 23.9 0 0 0-1.2 4.5c-.5 2.5-1 5.2-.3 7.5a11.3 11.3 0 0 1-3 2.3l.4-1.9c-2.6 2.4-7.2 1.5-9.3 4.3a4.2 4.2 0 0 0 1 5.8 8.2 8.2 0 0 0 2 1 33 33 0 0 0 15.3 2.3 4.6 4.6 0 0 0 1.8-.6 5.4 5.4 0 0 0 1.6-1.8l2.3-3.7a47.5 47.5 0 0 0 5.6 1.3l.4 4.8c1 .2 2.3.3 2.8-.6a2.5 2.5 0 0 0 .2-1.2l.1-2.6h.2a19 19 0 0 0 8.9-1.8c-1-8.8 2.4-17.5 5.5-25.9 3.2-8.8 6-17.8 8.8-26.8l6.2-18.7 7.4-24c1-3.5 2.2-7 3.4-10.5a164.4 164.4 0 0 1 9.3-20.7c1-1.8 2-3.7 2.8-5.7 1-2.4 1.7-4.9 2.5-7.3a115 115 0 0 1 6.3-14.8l.2-.4c.8 3.3 1.6 6.7 2.1 10a37.7 37.7 0 0 1 .2 12.4c-.5 2.8-1.4 5.5-1.3 8.3.2 4 2.3 7.5 3.3 11.3a43.5 43.5 0 0 1 1.1 8.6c.3 4.5 2.7 9.5 1 13.7-5.3 13.2-2.7 28.1-5.8 42-1.6 7.1-6.4 13.8-6 21q.4 7.8 1.4 15.6a14.4 14.4 0 0 0 1 4.5 20.5 20.5 0 0 0 1.4 2.2c-.4.2-.8.7-1 1.6a6 6 0 0 0 2.1 7 9.7 9.7 0 0 0 3 1 15.7 15.7 0 0 0 4 .6 8.2 8.2 0 0 0 1.4-.2 46.2 46.2 0 0 0 4.7 1.7q0 .7.2 1.3a1.5 1.5 0 0 0 .5 1 1.4 1.4 0 0 0 .8.2h5.4v-1.3a4.4 4.4 0 0 0 3.5-1.1 5.1 5.1 0 0 0 1-2.1l4.4-15a45.7 45.7 0 0 0 1.5-6.6 44.3 44.3 0 0 0 .6-10.7c-1.9-18.4 2.3-37 1-55.4a132.2 132.2 0 0 1 1.7-33.2c.4-2.5 1-5 1.2-7.5.4-4.7-.1-9.4.2-14l.5-4.8a232.4 232.4 0 0 0 2.4-30.2 92.2 92.2 0 0 0-.6-10 5.9 5.9 0 0 0 2.7-1.6c.9-1.2.7-2.8.6-4.3 0-3.5 1.5-6.9 2.7-10.2a123.4 123.4 0 0 0 3.8-14 49.2 49.2 0 0 0 1.7-11.8V554a3 3 0 0 0 .8-1 5.6 5.6 0 0 0 .5-1.8l1.1-7.7.8-5.5 3.2-22.2.8-5.7.8-5.8.3-2c2.5-4 .1-9.4-.1-14zM916 571.2a18 18 0 0 1-2-8.7h-.1a4.5 4.5 0 0 0-.1-2.8c-.3-.7-.9-1.4-1.2-2a7.6 7.6 0 0 1-.5-2.9 76.8 76.8 0 0 1 1.4-18.1l.4-2.1a5.4 5.4 0 0 0 1.1-1 8.2 8.2 0 0 0 1.3-2q1.7-3.3 3.1-6.8c.3-.8.8-1.7 1.5-1.9-.1 5.9.5 11.8-2 17.1a10.6 10.6 0 0 0-1 2.7c-.2 1.5.4 3 .2 4.5 0 .8-.4 1.5-.6 2.2a2.2 2.2 0 0 0 .6 2.2 1.6 1.6 0 0 0 .5.2l-.2 1.2-.2 2a64.4 64.4 0 0 0-.2 7.4v8a5.3 5.3 0 0 1-.4 2.3 3.9 3.9 0 0 1-.7 1l-.9-2.5z" transform="translate(-74.4 -101.4)"/><path fill="#33313f" d="M766 324.1l3.4-3.1-3-.1-1.6 2.4 1.2.8z"/><path fill="#65617d" d="M741.8 346.1l3.6-4.6.8-.8 10.9-11.4 3.7-3.9 1.7-.2 2.5-2.5 1.5 1.3-2.4 2.8v1.5l-3.8 4.1-10.7 11.6-.7.8-4.3 4-2.8-2.7z"/><path fill="#33313f" d="M746.2 340.7l10.9-11.4 3.2 3.1-10.7 11.6-3.4-3.3z"/><ellipse cx="833.8" cy="439.6" fill="#fbbebe" rx="5.6" ry="16" transform="rotate(-11.6 296.5 755.7)"/><path fill="#3f3d56" d="M809.2 675.2a6 6 0 0 0 2.2 7 9.8 9.8 0 0 0 3 1 15.5 15.5 0 0 0 4 .6c1.8-.1 3.5-.8 5.2-1a.8.8 0 0 1 .6 0 .9.9 0 0 1 .2.7 26.4 26.4 0 0 0 .2 3 1.1 1.1 0 0 0 1.4 1.3h5.4a52 52 0 0 0-1.6-14.2 3 3 0 0 0-.4-1 3.2 3.2 0 0 0-1.7-1 9.7 9.7 0 0 0-4.2-.7c-1.8.2-3.2 1.4-4.7 2.3s-3.5 1.8-5.4 1.3-3.3-2-4.2.7z"/><path fill="#fbbebe" d="M729.6 670.9a15 15 0 0 1-5.5 3.7l-.9.4a.5.5 0 0 0-.3.3.5.5 0 0 0 .1.4 6.5 6.5 0 0 0 7.3 2.7 4 4 0 0 0 1.7-.9 5.4 5.4 0 0 0 1.2-3.2 6.8 6.8 0 0 0-.1-3.7c-1.4-3.1-2-1.7-3.5.3z"/><path fill="#3f3d56" d="M750.4 683.2a2.3 2.3 0 0 1-.2 1c-.4 1-1.7 1-2.8.7a67.3 67.3 0 0 0-1.2-10c-2-.2-3.3 1.7-4.4 3.3l-2.6 4.3a5.4 5.4 0 0 1-1.6 1.8 4.7 4.7 0 0 1-1.8.6 33 33 0 0 1-15.2-2.4 8.3 8.3 0 0 1-2-.8 4.2 4.2 0 0 1-1-5.8c2-2.8 6.7-2 9.2-4.3a22.7 22.7 0 0 1-1.3 4.7c3.5-.5 5.8-3.6 8.6-5.8a5 5 0 0 1 2.4-1.1 5.4 5.4 0 0 1 2 .2 23.4 23.4 0 0 1 8.8 4.3c1 .9 2.7 2 3.1 3.3.5 1.5 0 4.3 0 6z"/><circle cx="819.2" cy="332.6" r="20.7" fill="#fbbebe"/><path fill="#3f3d56" d="M860 454.5a48.8 48.8 0 0 1-1.8 11.8 120.2 120.2 0 0 1-3.7 14c-1.2 3.3-2.7 6.6-2.7 10.2 0 1.4.2 3-.7 4.2a6.3 6.3 0 0 1-2.9 1.7 3.6 3.6 0 0 0-2.4 2.2 15.3 15.3 0 0 1-2.1-4.6q-2.7-8.2-5-16.6a2.1 2.1 0 0 1 0-2 2.4 2.4 0 0 1 1-.5 9 9 0 0 0 2.7-1.8 4 4 0 0 0 1-1.1 5.3 5.3 0 0 0 .3-2.3v-8a66.3 66.3 0 0 1 .3-7.3l.1-2c.2-1.6.5-3.4 1.3-4 1.3-.9 5 .3 6.5.4l7.4 1.3a20.3 20.3 0 0 1 .6 4.4zM776.5 355.7c-.8 1.6-2.7 2.4-4.2 3.4l-5 3.5a3.4 3.4 0 0 1-2.6.8 3.3 3.3 0 0 1-1.9-1.7v-.1l-1-1.8-5-8.3a4.9 4.9 0 0 1-1-2.6c0-.5.2-.9.3-1.3a6.2 6.2 0 0 0-1-3.4c-.4-.7-1.3-1.4-1.2-2.2a7.9 7.9 0 0 1 .5-3.2 6.6 6.6 0 0 1 2.2-2.4l1.5-1a2.9 2.9 0 0 1 .8-.4c.9-.1 1.7.5 2.5.6 3.6 2.4 5 7 7.9 10.3 1.6 1.9 1.7 3.3 3.5 5a9.3 9.3 0 0 1 .9.8 5.3 5.3 0 0 1 .9 1.3c.3.9 2.3 1.9 1.9 2.7z"/><path fill="#fbbebe" d="M812 353.3c1.4 3.1 2.6 6.6 2.2 10a6.3 6.3 0 0 1-.9 2.7c-1.4 2.2-4.5 2.6-7.1 2.7a4.2 4.2 0 0 0-3 1 2.8 2.8 0 0 0 .1 3.5 7.5 7.5 0 0 0 3 2c4.2 1.8 8.7 3.3 13.3 2.9 2-.2 4-.8 6.2-1.1a62.7 62.7 0 0 1 6.8-.4c2.7 0 5.4-.4 8.1-.6l7.2-.7a1.6 1.6 0 0 0 1-.4c.6-.6 0-1.5-.7-2-3.8-2.8-8.7-4.8-10.8-9-1-2-1.4-4.4-2.1-6.6s-2-4-2.4-6.3a41.6 41.6 0 0 1-.3-5.8 7.7 7.7 0 0 0-2-5.3c-1.4-1.3-3.5-1.7-5.4-1.8-4.8-.2-10 1-13.3 4.4-1 .9-1.7 1.9-2.6 2.8s-2.2 1-1.6 2.1 1.8 1.8 2.5 2.7a22.4 22.4 0 0 1 1.7 3.2z"/><path fill="#3f3d56" d="M852.7 382.3a114.6 114.6 0 0 1-6.1 22.6 83.3 83.3 0 0 0-3.6 10c-.8 3.2-.6 6.5-1.3 9.6-1 3.9-1.8 7.7-2.5 11.6a76.3 76.3 0 0 0-1.4 18.1 7.6 7.6 0 0 0 .5 2.8c.3.7.9 1.4 1.2 2a5 5 0 0 1-.3 4 11.7 11.7 0 0 1-2 3.2c-9.4 2.8-19.3 1.9-29 2.5-9 .5-18 2.4-26.9.8-1-4 .7-8.2 2.1-12 4.2-11.4 8.8-23.2 8-35a36.1 36.1 0 0 0-.5-4.2 55 55 0 0 1 2.7-25.3 43 43 0 0 0 1.1-15.7 28.7 28.7 0 0 1 0-5.2 9.2 9.2 0 0 1 1.9-4.8l.1-.2c.1-.2.4-.1.7 0a.7.7 0 0 0 .5 0 .2.2 0 0 1 .2-.1.3.3 0 0 1 .2 0c.3.1.4.6.9.7a20 20 0 0 0 2.2.2 12 12 0 0 1 2.7.4h.1a8 8 0 0 0 3.9-.3 10.4 10.4 0 0 0 2.4-1 16.6 16.6 0 0 1 1.8-.6c1-.5.8-3.1 1-4.2a11.5 11.5 0 0 1 .7-3 5.3 5.3 0 0 1 4.3-2.6 21.8 21.8 0 0 1 5.1.5c3.7.5 7.6.4 11.2 1.3 1.9.4 3.9 1 5.6.2.4.1.5.5.5 1a5.5 5.5 0 0 1-.3 1.4c-.6 2.8 1.5 5.3 3.5 7.3a11.5 11.5 0 0 0 3 2.4c1 .4 2 .6 3 1.1a5.3 5.3 0 0 1 2 1.8 7.4 7.4 0 0 1 1.2 3 17.3 17.3 0 0 1-.4 5.7z"/><path d="M852.7 382.3a114.6 114.6 0 0 1-6.1 22.6 83.3 83.3 0 0 0-3.6 10c-.8 3.2-.6 6.5-1.3 9.6-1 3.9-1.8 7.7-2.5 11.6l-.7.4a15.5 15.5 0 0 1-3.9 1.2 24.4 24.4 0 0 1-7.3-.2l-14.3-1.9c-5.7-.7-11.8-1.7-16-5.5-2.3-2.2-3.9-5-5.6-7.7a36.1 36.1 0 0 0-.5-4 55 55 0 0 1 2.7-25.4 43 43 0 0 0 1.1-15.7 28.7 28.7 0 0 1 0-5.2 9.2 9.2 0 0 1 1.9-4.8 7.6 7.6 0 0 1 .8-.2 4.2 4.2 0 0 1 .7-.1h.2a4.4 4.4 0 0 1 1 .1l2 .8h.1a8 8 0 0 0 2.7.4l4-.3a7.4 7.4 0 0 1 4.7.8 27.4 27.4 0 0 1 2.7 2.4 11.9 11.9 0 0 0 3.3 1.8 35.3 35.3 0 0 0 26.6-.5 5.3 5.3 0 0 1 2.7-.7 5.1 5.1 0 0 1 2 .8l1.7 1a7.4 7.4 0 0 1 1.1 3 17.3 17.3 0 0 1-.2 5.7z" opacity=".1"/><path fill="#007bff" d="M861.4 375.7a52.5 52.5 0 0 1-11.4-5 5 5 0 0 0-2-.8 5.2 5.2 0 0 0-2.6.7 35.4 35.4 0 0 1-26.6.5 11.6 11.6 0 0 1-3.4-1.8 28.6 28.6 0 0 0-2.6-2.4c-3.3-2.1-7.8.4-11.5-1a20.2 20.2 0 0 0-2-.8c-2.9-.7-5.8 2.2-8.7 1.3a47.4 47.4 0 0 0-2.3 9 97 97 0 0 0-.7 10.5v6.3a2.6 2.6 0 0 1 1.8 1.1 2.5 2.5 0 0 1-.2 2.2c-2.1 5.3-4.2 10.8-7.4 15.6a32.8 32.8 0 0 1 6.2 4.7c3.5 3.7 5.2 8.9 9 12.3 4.2 3.9 10.3 4.8 16 5.6l14.3 2a24.4 24.4 0 0 0 7.3.2 15.5 15.5 0 0 0 4-1.3 7 7 0 0 0 2-1.4 8.2 8.2 0 0 0 1.4-2c1.1-2.3 2.1-4.6 3-7 .4-.8 1-1.8 1.8-1.8l15.6-14.5a34.5 34.5 0 0 0 5.7-6c2.6-3.9.2-9.4 0-14a17.3 17.3 0 0 0-.4-3.7c-1-3.4-3-7.5-6.3-8.5z"/><path d="M776.5 355.7c-.8 1.6-2.7 2.4-4.2 3.4l-5 3.5a3.4 3.4 0 0 1-2.6.8 3.3 3.3 0 0 1-1.9-1.7v-.7a6.7 6.7 0 0 1 .4-2.4 7.5 7.5 0 0 1 2.2-3 18.1 18.1 0 0 1 6.6-4 2.2 2.2 0 0 1 1.2 0 1.5 1.5 0 0 1 .4.1 5.3 5.3 0 0 1 1 1.4c.3.8 2.3 1.8 1.9 2.6z" opacity=".1"/><path fill="#007bff" d="M788.4 366.3c-1.7-.1-3-1.4-4.3-2.5l-3.8-3.6a3.6 3.6 0 0 1-.7-.7 5.3 5.3 0 0 1-.4-1.3 14.3 14.3 0 0 0-3.7-5.2 2.6 2.6 0 0 0-1-.8 2.2 2.2 0 0 0-1.3.1 18.1 18.1 0 0 0-6.6 4 7.4 7.4 0 0 0-2.2 2.9 6.7 6.7 0 0 0-.3 2.4 18.4 18.4 0 0 0 1.7 7.6l.6 1.1a36 36 0 0 0 4.7 6.1l2.4 2.7c2.3 2.6 4.6 5.2 7.2 7.7a9.5 9.5 0 0 0 3.2 2.2 3.6 3.6 0 0 0 3.7-.6 5.2 5.2 0 0 0 1.1-1.9c1.5-4 3-8.1 3-12.4a44.6 44.6 0 0 0-.1-5.2c-.2-1.8-1.5-2.5-3.2-2.6z"/><path fill="#33313f" d="M849 506.3a231 231 0 0 1-2.1 30l-.5 4.9c-.4 4.6.2 9.3-.3 14-.2 2.5-.7 5-1.2 7.4a132 132 0 0 0-1.7 33.2c1.4 18.4-2.8 36.8-.9 55.2a44.6 44.6 0 0 1-.6 10.7 46.5 46.5 0 0 1-1.5 6.5l-4.4 15a5.3 5.3 0 0 1-1 2 4.7 4.7 0 0 1-3.8 1.2 43.2 43.2 0 0 1-16.4-5.1 5.4 5.4 0 0 1-1.7-1c-1-1.2-1-3-1.4-4.4s-1.8-3-2.6-4.5a15 15 0 0 1-1-4.5q-1-7.7-1.4-15.4c-.4-7.3 4.4-14 6-21 3-14 .4-28.8 5.8-42 1.6-4.1-.8-9.2-1-13.6a42.5 42.5 0 0 0-1.1-8.6c-1-3.8-3.1-7.3-3.3-11.2-.1-2.8.8-5.6 1.3-8.4a38 38 0 0 0-.2-12.3c-.5-3.4-1.3-6.7-2.2-10l-.1.4a113 113 0 0 0-6.3 14.7c-.8 2.5-1.5 5-2.5 7.3-.8 2-1.8 3.9-2.8 5.7a162.7 162.7 0 0 0-9.2 20.6c-1.3 3.5-2.4 7-3.5 10.5l-7.4 24c-2 6.3-4.2 12.4-6.1 18.7-2.8 9-5.5 18-8.8 26.7-3 8.4-6.5 17-5.5 25.8a19 19 0 0 1-8.8 1.8 51.8 51.8 0 0 1-15-3.6 11.5 11.5 0 0 1-5.2-3.1c-2.2-2.7-1.6-6.7-1-10.1a23.6 23.6 0 0 1 1.2-4.6c.8-1.8 2-3.5 2.8-5.3 1.6-3.5 1.7-7.4 2.3-11.2s2-7.8 5.3-9.9c.5-6.6 3.2-13.2 4.8-19.7 1-5 1.5-10 2.4-15s2.3-10 5.3-14a22.3 22.3 0 0 1 2.7-12 12.8 12.8 0 0 0 1.2-2.5 14.4 14.4 0 0 0 .4-2.7 15.5 15.5 0 0 1 4.2-9.2c-1-3.7.4-7.5 1.6-11a37.9 37.9 0 0 0 2.1-14.1 12.3 12.3 0 0 1 .2-4c.3-1 .9-1.9 1.2-2.8a14.8 14.8 0 0 0 .4-3.6c.4-5.4 2.6-10.5 5-15.3 1.4-2.9.2-6.7.5-9.8a38 38 0 0 1 3.7-15.2 25.8 25.8 0 0 0 1.4-2.6 11 11 0 0 0 .9-4c0-2.3.4-4.2-.4-6.3 5.3-4.5 12.6-5.7 19.6-6s14 .4 20.8-1.1l6-1.4c4.9-.7 9.7.4 14.5 1.5-.4 3 .7 5.9 2 8.7a93 93 0 0 1 7.3 35.6z"/><path d="M825.5 508.5L814 534.4c-.5-3.4-1.4-6.7-2.2-10l-.1.3v-.5l6.3-13.8zM860 454.5a4.5 4.5 0 0 1-2.4.9 11.4 11.4 0 0 1-3.7-.5l-9-2.3a3.8 3.8 0 0 1-.8-.3c.2-1.5.5-3.3 1.3-4 1.3-.8 5 .3 6.5.5l7.4 1.2a20.3 20.3 0 0 1 .6 4.5z" opacity=".1"/><path fill="#007bff" d="M867.5 395l.6 2.5a19.2 19.2 0 0 1-.2 6.2l-.8 5.7-.8 5.8-3.2 22.1-.8 5.5-1 7.7a5.8 5.8 0 0 1-.5 1.8 3.9 3.9 0 0 1-3.2 1.9 11.4 11.4 0 0 1-3.7-.6l-9-2.2a2.8 2.8 0 0 1-1-.5 2.2 2.2 0 0 1-.7-2c.2-.8.5-1.5.6-2.3.2-1.5-.4-3-.2-4.5a10.4 10.4 0 0 1 1-2.7c3-6.6 1.3-14.3 2.3-21.5a32.6 32.6 0 0 1 6.9-15.5 43.5 43.5 0 0 1 7.6-7.5c1.1-.9 3-2.7 4.3-3 1.9-.4 1.5 1.9 1.8 3.2z"/><path fill="#33313f" d="M799.4 309c-.7 2 .4 4.3 0 6.5-.6 2.3-2.8 4-3.5 6.3-1 3.6 2.1 7 4.3 10 8.3 11 7.2 26.5 4.4 40a206.2 206.2 0 0 1-9.4 32 24.6 24.6 0 0 1-5.1 9c4.6-1.3 9.5-2.6 14-1.4 6 1.7 11 7.3 16.9 6 3.5-.8 6-4 9.2-5.7 6-3.2 13.3-1.2 20-.1a7.7 7.7 0 0 0 4.3-.3 7.3 7.3 0 0 0 2.6-2.4 24.7 24.7 0 0 0 5.2-13.3 17 17 0 0 0-5-13.1c-1.3-1.3-3-2.4-4.1-4a12.3 12.3 0 0 1-1.7-6c-.8-11 1.9-22.3-.9-33-1-3.7-2.6-7.3-3-11.2-.6-4.9.7-10-1.2-14.5-1.5-3.5-4.8-6-8.4-7.2a42.2 42.2 0 0 0-11.3-2c-5.4-.5-25-2.8-27.3 4.3z"/><g opacity=".1"><path d="M804.6 371.9a206.9 206.9 0 0 1-9.4 31.9c.7-1.4 1.3-2.9 1.8-4.3a206.3 206.3 0 0 0 9.5-32c2.8-13.6 4-29-4.4-40.1-2-2.7-4.6-5.6-4.5-8.7a10.5 10.5 0 0 0-1.7 3.1c-1 3.7 2.1 7 4.3 10 8.3 11 7.3 26.5 4.4 40zM799.4 314.4a10 10 0 0 0 1.8-3.3 17.1 17.1 0 0 0-.1-4.5 4.8 4.8 0 0 0-1.7 2.3c-.5 1.8.1 3.7 0 5.5zM859 404.5a7.3 7.3 0 0 1-2.6 2.4 7.6 7.6 0 0 1-4.4.3c-6.7-1-14-3.1-19.9.1-3.2 1.8-5.7 5-9.3 5.7-5.9 1.4-11-4.3-16.7-6-4.2-1.1-8.5-.2-12.7 1a17.5 17.5 0 0 1-3.3 4.8c4.6-1.3 9.5-2.6 14-1.3 6 1.6 11 7.2 16.9 6 3.5-.8 6-4 9.2-5.7 6-3.3 13.3-1.2 20-.2a7.7 7.7 0 0 0 4.3-.2 7.3 7.3 0 0 0 2.7-2.5 27.5 27.5 0 0 0 4-7.9 29.4 29.4 0 0 1-2.2 3.5z"/></g><path fill="#007bff" d="M916.9 575.5s6 7.8-2.7 19.5-15.9 21.6-13 28.9c0 0 13.1-21.8 23.7-22s3.7-13.3-8-26.4z"/><path d="M916.9 575.5a9.4 9.4 0 0 1 1.2 2.5c10.4 12.2 16 23.6 6 23.9-9.4.2-20.5 16.8-23.2 21l.3 1s13.1-21.7 23.8-22 3.6-13.3-8.1-26.4z" opacity=".1"/><path fill="#ffd037" d="M928 585.4c0 2.8-.4 5-.8 5s-.7-2.2-.7-5 .4-1.4.8-1.4.6-1.3.6 1.4z"/><path fill="#ffd037" d="M931.7 588.7c-2.4 1.3-4.5 2-4.7 1.8s1.7-1.7 4-3 1.5-.4 1.7 0 1.4-.1-1 1.2z"/><path fill="#007bff" d="M885.6 575.5s-6 7.8 2.7 19.5 15.9 21.6 13 28.9c0 0-13.1-21.8-23.8-22s-3.6-13.3 8.1-26.4z"/><path d="M885.6 575.5a9.4 9.4 0 0 0-1.2 2.5c-10.4 12.2-16 23.6-6 23.9 9.3.2 20.5 16.8 23.2 21l-.3 1s-13.1-21.7-23.8-22-3.6-13.3 8.1-26.4z" opacity=".1"/><path fill="#ffd037" d="M874.6 585.4c0 2.8.3 5 .7 5s.7-2.2.7-5-.4-1.4-.8-1.4-.6-1.3-.6 1.4z"/><path fill="#ffd037" d="M870.8 588.7c2.4 1.3 4.5 2 4.6 1.8s-1.6-1.7-4-3-1.4-.4-1.6 0-1.4-.1 1 1.2z"/><path fill="#444053" d="M933.1 613.5l-.3 2.4-.4 3.4-.1 1.4-.5 3.4-.1 1.5-.4 3.4-4.8 38.9c-.4 3.4-6.1 6.2-13 6.2H889c-6.8 0-12.5-2.8-13-6.2l-4.7-39-.4-3.3-.2-1.5-.4-3.4-.2-1.4-.4-3.4-.3-2.4c-.2-2 2.9-3.7 6.7-3.7h50.4c4 0 7 1.7 6.7 3.7z"/><path fill="#9d9cb5" d="M932.9 615.9l-.5 3.4H870l-.4-3.4h63.3zM932.3 620.7l-.5 3.4h-61.2l-.4-3.4h62.1zM931.7 625.6l-.4 3.4h-60.1l-.4-3.4h60.9z"/></svg>