<svg width="420" height="338" xmlns="http://www.w3.org/2000/svg" xmlns:xlink="http://www.w3.org/1999/xlink"><defs><path d="M0 0h416v285.8c0 1.5-1.2 2.2-3.9 2.2H3.8c-2.6 0-3.8-.7-3.8-2.2V0z" id="a"/><path d="M0 0h416v285.8c0 1.5-1.2 2.2-3.9 2.2H3.8c-2.6 0-3.8-.7-3.8-2.2V0z" id="c"/><path d="M0 0h416v285.8c0 1.5-1.2 2.2-3.9 2.2H3.8c-2.6 0-3.8-.7-3.8-2.2V0z" id="e"/><path d="M0 0h416v285.8c0 1.5-1.2 2.2-3.9 2.2H3.8c-2.6 0-3.8-.7-3.8-2.2V0z" id="g"/><path d="M0 0h416v285.8c0 1.5-1.2 2.2-3.9 2.2H3.8c-2.6 0-3.8-.7-3.8-2.2V0z" id="i"/><filter x="-16.6%" y="-9.9%" width="133.1%" height="128.3%" filterUnits="objectBoundingBox" id="k"><feOffset dy="8" in="SourceAlpha" result="shadowOffsetOuter1"/><feGaussianBlur stdDeviation="7.5" in="shadowOffsetOuter1" result="shadowBlurOuter1"/><feColorMatrix values="0 0 0 0 0 0 0 0 0 0 0 0 0 0 0 0 0 0 0.17 0" in="shadowBlurOuter1" result="shadowMatrixOuter1"/><feMerge><feMergeNode in="shadowMatrixOuter1"/><feMergeNode in="SourceGraphic"/></feMerge></filter><rect id="l" width="159.5" height="186" rx="2"/></defs><g fill="none" fill-rule="evenodd"><g transform="translate(1 1)"><rect stroke="#EFF1F5" stroke-width="2" fill="#608EA5" fill-rule="nonzero" width="418" height="336" rx="4"/><rect fill-opacity=".3" fill="#FFF" fill-rule="nonzero" x="312" y="22" width="37" height="3" rx="1"/><rect fill-opacity=".3" fill="#FFF" fill-rule="nonzero" x="13" y="22" width="37" height="3" rx="1"/><rect fill-opacity=".3" fill="#FFF" fill-rule="nonzero" x="361" y="22" width="20" height="3" rx="1"/><rect fill-opacity=".3" fill="#FFF" fill-rule="nonzero" x="62" y="22" width="23" height="3" rx="1"/><rect fill-opacity=".3" fill="#FFF" fill-rule="nonzero" x="97" y="22" width="10" height="3" rx="1"/><path d="M1 47h416v285.8c0 1.5-1.2 2.2-3.9 2.2H4.8c-2.6 0-3.8-.7-3.8-2.2V47z" fill-rule="nonzero" fill="#FFF"/><g transform="translate(1 47)"><mask id="b" fill="#fff"><use xlink:href="#a"/></mask><rect fill="#F6F9FC" fill-rule="nonzero" mask="url(#b)" x="20" y="19" width="56" height="5" rx="1"/></g><g transform="translate(1 47)"><mask id="d" fill="#fff"><use xlink:href="#c"/></mask><rect fill="#F6F9FC" fill-rule="nonzero" mask="url(#d)" x="20" y="30" width="121" height="5" rx="1"/></g><g transform="translate(1 47)"><mask id="f" fill="#fff"><use xlink:href="#e"/></mask><path fill="#F6F9FC" fill-rule="nonzero" mask="url(#f)" d="M0 0h147v288H0z"/></g><g transform="translate(1 47)"><mask id="h" fill="#fff"><use xlink:href="#g"/></mask><path fill="#FFF" fill-rule="nonzero" mask="url(#h)" d="M-1 249h418v39H-1z"/></g><g transform="translate(1 47)"><mask id="j" fill="#fff"><use xlink:href="#i"/></mask><path stroke="#EFF1F5" mask="url(#j)" d="M-.5 249.5h416v1H-.5z"/></g><g transform="translate(393 19)" stroke="#FFF" stroke-width="2"><circle cx="4" cy="4" r="4"/><path d="M6.5 6.5L10 10"/></g><path stroke="#EFF1F5" d="M.5 70.5h147v1H.5zm74-23v23h-1v-23z"/><path fill="#C4F0FF" fill-rule="nonzero" d="M1 68h72v2H1z"/><rect fill="#E3E7ED" fill-rule="nonzero" x="25" y="58" width="24" height="3" rx="1"/><rect fill="#E3E7ED" fill-rule="nonzero" x="102" y="58" width="19" height="3" rx="1"/><rect fill="#C4F0FF" fill-rule="nonzero" x="160" y="58" width="55" height="3" rx="1"/><rect fill="#E3E7ED" fill-rule="nonzero" x="13" y="95" width="90" height="3" rx="1"/><rect fill="#E3E7ED" fill-rule="nonzero" x="13" y="121" width="41" height="3" rx="1"/><rect fill="#E3E7ED" fill-rule="nonzero" x="13" y="147" width="90" height="3" rx="1"/><rect fill="#E3E7ED" fill-rule="nonzero" x="13" y="173" width="62" height="3" rx="1"/><rect fill="#E3E7ED" fill-rule="nonzero" x="13" y="199" width="24" height="3" rx="1"/><rect fill="#E3E7ED" fill-rule="nonzero" x="13" y="225" width="86" height="3" rx="1"/><rect fill="#E3E7ED" fill-rule="nonzero" x="13" y="251" width="24" height="3" rx="1"/><rect fill="#E3E7ED" fill-rule="nonzero" x="13" y="277" width="34" height="3" rx="1"/><path d="M129.4 97.4h-1.1l.5-.6.6.6zm1.1-2.3h1.2l-2.9 2.9L126 95h1.1l1.7 1.7 1.7-1.7zm-1.1 2.3h-1.1l.5-.6.6.6zm1.1-2.3h1.2l-2.9 2.9L126 95h1.1l1.7 1.7 1.7-1.7zm-1.1 28.3h-1.1l.5-.6.6.6zm1.1-2.3h1.2l-2.9 2.9-2.8-2.9h1.1l1.7 1.7 1.7-1.7zm-1.1 2.3h-1.1l.5-.6.6.6zm1.1-2.3h1.2l-2.9 2.9-2.8-2.9h1.1l1.7 1.7 1.7-1.7zm-1.1 28.3h-1.1l.5-.6.6.6zm1.1-2.3h1.2l-2.9 2.9-2.8-2.9h1.1l1.7 1.7 1.7-1.7zm-1.1 2.3h-1.1l.5-.6.6.6zm1.1-2.3h1.2l-2.9 2.9-2.8-2.9h1.1l1.7 1.7 1.7-1.7zm-1.1 28.3h-1.1l.5-.6.6.6zm1.1-2.3h1.2l-2.9 2.9-2.8-2.9h1.1l1.7 1.7 1.7-1.7zm-1.1 2.3h-1.1l.5-.6.6.6zm1.1-2.3h1.2l-2.9 2.9-2.8-2.9h1.1l1.7 1.7 1.7-1.7zm-1.1 28.3h-1.1l.5-.6.6.6zm1.1-2.3h1.2l-2.9 2.9-2.8-2.9h1.1l1.7 1.7 1.7-1.7zm-1.1 2.3h-1.1l.5-.6.6.6zm1.1-2.3h1.2l-2.9 2.9-2.8-2.9h1.1l1.7 1.7 1.7-1.7zm-1.1 28.3h-1.1l.5-.6.6.6zm1.1-2.3h1.2l-2.9 2.9-2.8-2.9h1.1l1.7 1.7 1.7-1.7zm-1.1 2.3h-1.1l.5-.6.6.6zm1.1-2.3h1.2l-2.9 2.9-2.8-2.9h1.1l1.7 1.7 1.7-1.7zm-1.1 28.3h-1.1l.5-.6.6.6zm1.1-2.3h1.2l-2.9 2.9-2.8-2.9h1.1l1.7 1.7 1.7-1.7zm-1.1 2.3h-1.1l.5-.6.6.6zm1.1-2.3h1.2l-2.9 2.9-2.8-2.9h1.1l1.7 1.7 1.7-1.7zm-1.1 28.3h-1.1l.5-.6.6.6zm1.1-2.3h1.2l-2.9 2.9-2.8-2.9h1.1l1.7 1.7 1.7-1.7zm-1.1 2.3h-1.1l.5-.6.6.6zm1.1-2.3h1.2l-2.9 2.9-2.8-2.9h1.1l1.7 1.7 1.7-1.7z" fill-rule="nonzero" fill="#E3E7ED"/><path fill="#EFF1F5" fill-rule="nonzero" d="M148 190h270v2H148z"/><path d="M293.3 143.4h.6c.6 0 1-.5 1-1 0-.6-.4-1.1-1-1.1h-.3c.5.7.5 1.4-.2 2v.1z" fill="#E39F48" fill-rule="nonzero"/><path d="M274.7 143.4a1 1 0 0 1-.4-2c-.4.6-.2 1.5.4 2z" fill="#FCD669" fill-rule="nonzero"/></g><path d="M392 306a11 11 0 1 0 0 22 11 11 0 0 0 0-22zm-.2 2.2a1.4 1.4 0 1 1 0 2.8 1.4 1.4 0 0 1 0-2.8zm6.2 4.6l-4.2.5v4.2l2 6.9c.1.4-.1.9-.6 1a.8.8 0 0 1-1-.6l-2-6.2h-.7l-2 6.3c0 .4-.5.6-1 .5-.4-.2-.6-.6-.5-1l1.8-6.8v-4.3l-3.9-.5c-.4 0-.6-.4-.6-.8s.4-.7.8-.7l4.7.4h2l5.1-.4c.4 0 .8.3.8.7 0 .4-.3.8-.7.8z" fill-rule="nonzero" fill="#4A90E2"/><g filter="url(#k)" transform="translate(245 113)"><rect width="159.5" height="186" rx="2" fill-rule="nonzero" fill="#F6F9FC"/><mask id="m" fill="#fff"><use xlink:href="#l"/></mask><use fill="#FFF" xlink:href="#l"/><path fill="#4A90E2" fill-rule="nonzero" mask="url(#m)" d="M-4 0h163v31.2H-4z"/></g><path d="M255 133l3.7-9.3h2l3.7 9.3h-1.9l-.6-1.8h-4.3l-.7 1.8H255zm3-3.2h3.4l-1.7-4.5-1.7 4.5zm7-.2c0-1 .3-1.9 1-2.5.6-.7 1.4-1 2.5-1a3 3 0 0 1 2.5 1.2l-1 .9c-.3-.6-.8-.8-1.5-.8-.6 0-1 .2-1.5.6-.3.4-.5 1-.5 1.6s.2 1.2.5 1.6c.4.5 1 .7 1.5.7.7 0 1.2-.3 1.6-.8l1 .9a3 3 0 0 1-2.6 1.2c-1 0-1.9-.4-2.6-1-.6-.7-1-1.6-1-2.6zm7 0c0-1 .3-1.9 1-2.5.6-.7 1.4-1 2.4-1a3 3 0 0 1 2.6 1.2l-1 .9c-.3-.6-.8-.8-1.5-.8-.6 0-1.1.2-1.5.6-.4.4-.6 1-.6 1.6s.2 1.2.6 1.6c.4.5.9.7 1.5.7s1.2-.3 1.5-.8l1 .9a3 3 0 0 1-2.6 1.2c-1 0-1.8-.4-2.5-1-.6-.7-1-1.6-1-2.6zm6.9 0c0-.6.1-1.2.4-1.8.3-.5.7-1 1.3-1.3.5-.3 1-.4 1.7-.4 1 0 1.8.3 2.4 1 .6.7 1 1.6 1 2.6v.4h-5.3c.1.5.3 1 .7 1.3.4.4.9.6 1.5.6l1-.2 1-.6.6 1-1.2.7c-.5.2-1 .3-1.6.3-1 0-1.8-.4-2.5-1-.7-.7-1-1.5-1-2.6zm1.5-.6h3.8l-.1-.6c0-.2-.2-.4-.3-.5l-.6-.5-.9-.1c-.6 0-1 .2-1.3.5a2 2 0 0 0-.6 1.2zm6.1 3.1l.7-1 1 .6c.4.2.9.3 1.3.3s.7 0 1-.3c.2-.1.3-.3.3-.6 0-.2 0-.3-.2-.5l-.6-.2-.8-.2a8.3 8.3 0 0 1-1.7-.6c-.2-.1-.4-.3-.5-.6-.2-.2-.3-.5-.3-.9 0-.6.3-1 .7-1.4a3 3 0 0 1 2-.6c1 0 1.9.3 2.6.9l-.6 1c-.2-.2-.5-.4-.9-.5-.3-.2-.7-.3-1.1-.3-.4 0-.7.1-1 .3-.1.1-.3.3-.3.6l.2.3.5.3.6.1a25.9 25.9 0 0 0 1.5.4l.7.4.5.6.1.8c0 .7-.2 1.2-.7 1.6-.5.4-1.2.6-2 .6-.7 0-1.2-.1-1.7-.3l-1.3-.8zm6.6 0l.7-1 1 .6c.4.2.9.3 1.3.3s.7 0 1-.3c.2-.1.3-.3.3-.6 0-.2 0-.3-.2-.5l-.6-.2-.8-.2a8.4 8.4 0 0 1-1.7-.6c-.2-.1-.4-.3-.5-.6-.2-.2-.3-.5-.3-.9 0-.6.3-1 .7-1.4a3 3 0 0 1 2-.6c1 0 2 .3 2.6.9l-.6 1c-.2-.2-.5-.4-.9-.5-.3-.2-.7-.3-1.1-.3-.4 0-.7.1-1 .3l-.2.6.1.3.5.3a30.3 30.3 0 0 0 2.1.5l.7.4.5.6.1.8c0 .7-.2 1.2-.7 1.6-.5.4-1.2.6-2 .6-.7 0-1.2-.1-1.7-.3l-1.3-.8zm7-7.6c0-.2.1-.5.3-.6l.6-.3c.2 0 .5 0 .7.3.2.1.3.4.3.6 0 .3-.1.5-.3.6-.2.2-.4.3-.7.3-.2 0-.4 0-.6-.3a.9.9 0 0 1-.3-.6zm.2 8.5v-6.8h1.5v6.8h-1.5zm3.4 0v-9.3h1.4v3.5a2.7 2.7 0 0 1 2.2-1.1c1 0 1.6.3 2.2 1 .5.6.8 1.4.8 2.5s-.3 2-.8 2.6c-.6.7-1.3 1-2.2 1l-1.2-.3-1-.8v.9h-1.4zm1.4-2l.8.6c.3.2.7.3 1 .3.6 0 1-.2 1.4-.7.3-.4.5-1 .5-1.6 0-.6-.2-1.2-.5-1.6-.4-.4-.8-.6-1.4-.6-.3 0-.7 0-1 .2a2 2 0 0 0-.8.7v2.7zm6.5-6.5c0-.2.1-.5.3-.6l.6-.3c.2 0 .5 0 .7.3.2.1.3.4.3.6 0 .3-.1.5-.3.6-.2.2-.4.3-.7.3s-.4 0-.6-.3a.9.9 0 0 1-.3-.6zm.2 8.5v-6.8h1.5v6.8h-1.5zm3.4 0v-9.3h1.4v9.3h-1.4zm3.2-8.5c0-.2 0-.5.2-.6.2-.2.4-.3.7-.3s.5 0 .6.3c.2.1.3.4.3.6 0 .3 0 .5-.3.6-.1.2-.4.3-.6.3l-.7-.3a.9.9 0 0 1-.2-.6zm.1 8.5v-6.8h1.5v6.8h-1.5zm2.6-5.5v-1.3h1.1v-1.8h1.5v1.8h1.4v1.3h-1.4v3.6c0 .2 0 .4.2.5 0 .2.2.3.4.3l.4-.1.3-.2.3 1.1a2 2 0 0 1-1.3.5c-.6 0-1-.2-1.3-.5-.3-.3-.5-.7-.5-1.3v-3.9h-1.1zm4.3-1.3h1.6l2 5.1 2-5h1.5l-3.3 8c-.2.5-.5.9-.9 1-.4.3-.8.4-1.4.4h-.8l.2-1.4.6.1h.6l.3-.5.4-.8-2.8-6.9z" fill="#FFF"/><path fill="#FFFDE3" d="M253 152h69v41h-69z"/><path fill-opacity=".6" fill="#BFBFBF" d="M329 152h69v41h-69z"/><path d="M299 179.2v-13.3h-.8v-1H297v-.9h-.2a15 15 0 0 0-8.8 2.4s-3-2.4-8.8-2.4h-.3v1h-1.1v.9h-.8v13.3c7.3 0 11 1.5 11 1.5s3.7-1.5 11-1.5zm-20.7-13.7h.6v11.9l.1.1.4.2v-.1a17 17 0 0 1 6.8 1.4 32 32 0 0 0-8-1v-12.5zm7.2.1a11.4 11.4 0 0 1 2 1v12.5c-1-.6-3.7-2-8-2v-12.6c2.6 0 4.7.6 6 1.1zm11-1.1V177c-4.3 0-7 1.4-8 2v-12.4c.5-.4 3.2-2.1 8-2.2zm1.2 13.5c-3.7 0-6.4.6-8 1 1.4-.6 3.8-1.4 7-1.4l.4.1v-12.2h.6V178z" fill="#ACA441" fill-rule="nonzero"/><path d="M362.3 162a8.7 8.7 0 1 0 10.7 10.7c-1.3 1.1-3 1.8-4.8 1.8a7.6 7.6 0 0 1-6-12.5z" opacity=".3" fill-rule="nonzero" fill="#000"/><path fill="#FFEEDE" d="M253 201h69v41h-69z"/><path fill="#F7F7F7" d="M329 201h69v41h-69zm-76 48h69v41h-69zm76 0h69v41h-69z"/><g fill-rule="nonzero"><path d="M287 209c-.3 0-.6.3-.6.6v4.7a.6.6 0 1 0 1.2 0v-4.7c0-.3-.3-.6-.6-.6zm-8 3.3l-.5.2c-.2.2-.2.6 0 .8l3.3 3.4a.6.6 0 1 0 .9-.9l-3.4-3.3a.6.6 0 0 0-.4-.2zm16 0l-.3.2-3.4 3.3a.6.6 0 0 0 .9.9l3.3-3.4c.2-.2.2-.6 0-.8a.6.6 0 0 0-.4-.2zm-8 4.3a4.4 4.4 0 1 0 0 8.8 4.4 4.4 0 0 0 0-8.8zm-11.4 3.8a.6.6 0 0 0 0 1.2h4.7a.6.6 0 1 0 0-1.2h-4.7zm18.1 0a.6.6 0 1 0 0 1.2h4.7a.6.6 0 0 0 0-1.2h-4.7zm-11.5 4.8l-.4.1-3.3 3.4c-.2.2-.2.6 0 .8.2.2.6.2.8 0l3.4-3.3a.6.6 0 0 0-.5-1zm9.6 0l-.5.1c-.2.3-.2.6 0 .9l3.4 3.3a.6.6 0 1 0 .8-.8l-3.3-3.4a.6.6 0 0 0-.4-.1zm-4.8 2c-.3 0-.6.2-.6.5v4.7a.6.6 0 0 0 1.2 0v-4.7c0-.3-.3-.6-.6-.6z" fill="#8B572A" opacity=".5"/><path d="M287 260a9 9 0 1 0 0 18 9 9 0 0 0 0-18zm-.6 1.3v2.3h-2.1l.1-.3c.6-1 1.3-1.8 2-2zm1.2 0c.7.2 1.4 1 2 2l.1.3h-2.1v-2.3zm-3.7.5a8.7 8.7 0 0 0-1 1.8h-1.5a8 8 0 0 1 2.5-1.8zm6.2 0a8 8 0 0 1 2.5 1.8H291a12.7 12.7 0 0 0-1-1.8zm-9.7 3h2.2l-.5 2h-2.6a8 8 0 0 1 1-2zm3.4 0h2.6v2h-3c0-.7.2-1.4.4-2zm3.8 0h2.6l.4 2h-3v-2zm3.8 0h2.2a8 8 0 0 1 .9 2h-2.6l-.4-2zm-12.1 3.2h2.7a16.3 16.3 0 0 0 0 2h-2.7a7.7 7.7 0 0 1 0-2zm4 0h3.1v2h-3.2a16.4 16.4 0 0 1 0-2zm4.3 0h3.2a16.4 16.4 0 0 1 0 2h-3.2v-2zm4.4 0h2.7a7.7 7.7 0 0 1 0 2H292a16.3 16.3 0 0 0 0-2zm-12.5 3.2h2.6l.5 2h-2.2a8 8 0 0 1-.9-2zm3.9 0h3v2h-2.6l-.4-2zm4.2 0h3c0 .7-.2 1.4-.4 2h-2.6v-2zm4.3 0h2.6a8 8 0 0 1-1 2h-2l.4-2zm-10.5 3.2h1.6a9.6 9.6 0 0 0 1 1.8c-1-.4-2-1-2.6-1.8zm2.9 0h2.1v2.3c-.7-.2-1.4-1-2-2l-.1-.3zm3.3 0h2.1l-.1.3c-.6 1-1.3 1.8-2 2v-2.3zm3.4 0h1.6c-.7.8-1.6 1.4-2.5 1.8a7.6 7.6 0 0 0 1-1.8z" opacity=".3" fill="#000"/><path d="M354.7 217.2v8.3h5.7l5.2 4v-16.3l-5.2 4h-5.7zm15.8 4.2a5 5 0 0 0-3-4.6v9a5 5 0 0 0 3-4.4zm-3-8.5v1.7a7 7 0 0 1 0 13.5v1.8a8.7 8.7 0 0 0 0-17zM370.5 271.5a.8.8 0 0 0-1.1.5 6 6 0 1 1-1.8-6.7h-2.4a.8.8 0 0 0 0 1.6h4.2c.5 0 .8-.4.8-.8v-4.3a.8.8 0 0 0-.8-.8c-.4 0-.8.4-.8.8v2.1a7.7 7.7 0 1 0 2.4 8.6c.1-.4-.1-.9-.5-1z" fill="#000" opacity=".2"/></g></g></svg>