<svg width="209" height="373" xmlns="http://www.w3.org/2000/svg" xmlns:xlink="http://www.w3.org/1999/xlink"><defs><rect id="a" width="209" height="373" rx="8"/><path id="c" d="M0 0h211v43H0z"/><path id="e" d="M0 0h116v112H0z"/><path d="M26 .3c14.3 0 26 11.8 26 26.3S40.3 53 26 53 0 41.1 0 26.6 11.7.3 26 .3zM26 6A20.5 20.5 0 0 0 5.6 26.6a20.5 20.5 0 0 0 40.9 0C46.4 15.2 37.2 6 26 6zm0 3.7c1.5 0 2.8 1.3 2.8 2.8V25l9 5.3c1.4.8 1.8 2.5 1 3.8a2.8 2.8 0 0 1-3.7 1l-10.5-6a2.8 2.8 0 0 1-1.4-2.5v-14c0-1.6 1.3-2.9 2.8-2.9z" id="g"/><path id="i" d="M.3 0h105.5v112H.3z"/><path d="M50.1 5.2c1 0 1.8.8 1.8 1.8v30c0 3.1-2.6 5.6-5.7 5.7H5.7A5.7 5.7 0 0 1 0 37V2C0 1 .8 0 1.8 0h40.5c1 0 2 .9 2 1.8v3.3H50zM5.7 39H41c-.3-.6-.4-1.3-.4-2V4H3.7v33c0 1.2 1 2 2 2zm42.5-2V9h-4v28c0 1.2.9 2 2 2a2 2 0 0 0 2-2zM23.4 24.2v-3.3h13.4v3.3H23.4zm0 8.5v-3.3h13.4v3.3H23.4zM7.4 9h29.4v6.5H7.4V9.1zm0 23.5V20.9h12.4v11.7H7.4z" id="k"/><path id="m" d="M0 0h122v112H0z"/><path d="M42.7 2.8c0-1.6-1.5-2.7-3-2.5L15 5.3c-1.2.2-2 1.3-2 2.5v28.6S13.3 39 10 39H6C2.9 39 .2 41.6.2 44.9s2.7 5.9 6 5.9h3.5c3.8 0 6.5-2.2 6.5-6.4V18.1c0-.6.4-1.8 2.3-2.2l19-3.8c.8 0 2.3 0 2.3 1.9v17.7s.3 2.6-3 2.6h-4c-3.2 0-6 2.6-6 5.9s2.8 5.9 6 5.9h3.5c3.9 0 6.5-2.2 6.5-6.4V2.8z" id="o"/><path id="q" d="M.3 0h105.5v112H.3z"/><path d="M31 .3H4.6C2.1.3 0 2.4 0 5v14.5A4.7 4.7 0 0 0 4.6 24h3.7V29c0 2.1 1.1 2.5 2.5.9l5-6H31c1.2 0 2.4-.5 3.3-1.3.8-.9 1.3-2 1.3-3.3V5c0-2.5-2-4.6-4.6-4.6z" id="s"/><path d="M32 0H7.1A7.1 7.1 0 0 0 0 7.1v1h14.2a8 8 0 0 1 8 8v11.6h4.2l4.2 5c1.3 1.7 2.4 1.3 2.4-.8v-4.3c3.3-.5 5.9-3.6 5.9-7.1V7A7 7 0 0 0 32 0z" id="u"/><path id="w" d="M0 0h116v112H0z"/><path d="M30.3 33.8c-.6 0-1.2-.3-1.8-.6-5.4-3.2-10-7.6-13.1-13-.6-.9-1.2-2-1-3 .4-2 3-2.8 3.7-4.7.7-1.7-.2-3.5-1.3-5-1.7-2.4-4-4.5-6.5-6a9.1 9.1 0 0 0-4-1.5C-.1-.3-.5 10.4.3 14.7a50.8 50.8 0 0 0 30 31.7c3.5 1.2 7.3 2 10.9 1.1A9.3 9.3 0 0 0 46 45a6 6 0 0 0 1.6-5 9.4 9.4 0 0 0-2.8-4.7 38 38 0 0 0-6.2-5.2c-.5-.2-.9-.5-1.4-.5-.5-.1-1 .2-1.4.4-1.4.8-2.6 1.7-3.7 2.7-.4.5-1 1-1.6 1l-.2.2z" id="y"/><path id="A" d="M.3 0h105.5v112H.3z"/><path d="M50 20.2c1.3 0 2.5 1.2 2.7 2.5v6.5c0 1.4-1.2 2.5-2.6 2.5h-2.6c-.4 1.8-1.1 3.4-2 5l1.8 1.8c1 1 1 2.6 0 3.6l-4.7 4.6c-1 1-2.6 1-3.6 0l-1.8-1.8c-1.6.9-3.3 1.6-5 2v2.6c0 1.3-1.2 2.5-2.6 2.5H23a2.6 2.6 0 0 1-2.5-2.5v-2.6a21 21 0 0 1-5-2l-1.9 1.8c-1 1-2.6 1-3.6 0L5.4 42c-1-1-1-2.6 0-3.6l1.8-1.8c-.9-1.6-1.6-3.2-2-5H2.5A2.5 2.5 0 0 1 0 29.3v-6.6c0-1.3 1.2-2.5 2.6-2.4H5a21 21 0 0 1 2-5l-1.8-1.8c-1-1-1-2.6 0-3.6L10 5.3c1-1 2.6-1 3.6 0l1.8 1.8a22 22 0 0 1 5-2V2.5C20.4 1.2 21.6 0 23 0h6.5c1.4 0 2.6 1.2 2.5 2.5V5c1.8.5 3.4 1.2 5 2l1.8-1.7c1-1 2.7-1 3.6 0l4.7 4.6c1 1 1 2.6 0 3.5l-1.8 1.8c.9 1.6 1.6 3.3 2 5H50zM26.1 39a13 13 0 0 0 13.2-13 13 13 0 0 0-13.2-13 13 13 0 0 0-13 13 13 13 0 0 0 13 13z" id="C"/></defs><g fill="none" fill-rule="evenodd"><mask id="b" fill="#fff"><use xlink:href="#a"/></mask><use fill="#D8D8D8" xlink:href="#a"/><g mask="url(#b)"><g transform="translate(-1)"><mask id="d" fill="#fff"><use xlink:href="#c"/></mask><path fill="#1B2162" mask="url(#d)" d="M-2 45h215V-3H-2"/></g><path d="M175.7 13.8l-1.5-.7-3 4c-1 1.2-1.3 2-1.3 3.1 0 1.9 1.5 3.2 3.7 3.2a5 5 0 0 0 3.2-1.1L176 21c-.6.6-1.5 1-2.5 1-1.3 0-2-.8-2-1.8 0-.9.4-1.3 1.1-2.3l3-4zm3.7 4.4a1 1 0 0 1-.8-.3 1 1 0 0 1-.3-.8c0-.3 0-.6.3-.8.2-.2.5-.3.8-.3.3 0 .5.1.8.3.2.2.3.5.3.8 0 .3-.1.6-.3.8a1 1 0 0 1-.8.3zm-1.1 4.8c0-.3 0-.5.3-.8.2-.2.5-.3.8-.3.3 0 .5.1.8.3.2.3.3.5.3.8 0 .3-.1.6-.3.8a1 1 0 0 1-.8.3 1 1 0 0 1-.8-.3 1 1 0 0 1-.3-.8zm9 1H186V24l.2-.8c0-.7-.7-1.2-2.9-2.8v-1c1.2-.4 2-.9 2.6-1.3h-.3c-1.2 0-2.5-1-2.5-2.4 0-1.6 1-2.6 2.7-2.6 1.6 0 2.8 1.1 2.8 2.6 0 2-1.2 3.4-3.5 4.4 2 1.4 2.7 2.1 2.7 3 0 .4-.2.8-.3 1zm-1-6.9h.3c.3-.5.4-1 .4-1.5 0-.8-.5-1.3-1.3-1.3-.7 0-1.3.5-1.3 1.3 0 .9.8 1.5 2 1.5zm12.4 6.7l-1.8-4c.3-.4.4-.7.4-1.1 0-.7-.6-1.3-1.2-2l-1 .5.3 1.8c-.3.2-.7.4-1.6.4-1 0-1.7-.7-1.7-1.9s.7-2.6 1.7-3.7l-1.3-.9c-1.2 1.4-2 3-2 4.7 0 2 1.4 3.2 3.3 3.2a4 4 0 0 0 2-.4L197 24l1.7-.3zm-187-9.9l-.4.5c-.4-.1-.6-.5-.6-1s.5-1 1.2-1c.9 0 1.3.7 1.3 1.4 0 1.1-.9 1.7-2 1.6l.9.7.9.9-.6.4-1.8-1.7-.5-.4.4-.6.8.2c.7 0 1.2-.4 1.2-1.1 0-.6-.3-.8-.6-.8s-.5.2-.5.4c0 .3 0 .5.4.5zm2.4 3.4v-4.8h1.5v.5h-.8v4.3H14zm-1.8.5c.4.6 1 1 1.8 1 .4 0 .8-.1.8-.6 0-.3-.2-.5-.5-.5s-.5.2-.6.3l-.5-.4c.2-.3.6-.5 1-.5.8 0 1.3.4 1.3 1.1 0 .6-.4 1.3-1.5 1.3a3 3 0 0 1-2.3-1.3l.5-.5zM18 16l-1.8 1.3-.5-.5 1-.6c-.5 0-1-.5-1-1.2 0-.8.8-1.4 1.6-1.3l.1.6c-.6 0-1 .3-1 .8 0 .4.3.7.8.7.4 0 .8-.4.8-.9V13h-2.8v-.5h6.2v.5h-2.7v1.1c.1-.1.4-.3 1-.3s1.2.5 1.2 1.3c0 .9-.7 1.4-1.6 1.3l-.1-.6c.6 0 1-.2 1-.7 0-.4-.3-.7-.7-.7-.5 0-.8.3-.8.8v2H18V16zm6.6-3v4.3H24V16c-.1.2-.5.4-1 .4-.8 0-1.4-.6-1.4-1.4 0-1 1-1.5 1.8-1.4v.6c-.5-.1-1 .2-1 .8 0 .4.2.8.7.8.6 0 1-.5 1-1V13h-3v-.5h4.5v.5h-.9zm3 0h-.9v4.3h-.7V13h-.9v-.5h2.5v.5zm1.1 2.3l.5.6.9 1-.6.4-2-2.5.5-.4c.2.2.4.3.7.3.3 0 .4 0 .4-.4V13h-1.9v-.5h3.4v.5H30v1.3c0 .7-.4 1-.9 1h-.2zm2.7 3H31l.5-1.9h.7l-.6 1.9zm8.8-5.8v.5h-.8v4.3h-.7v-1.9a1 1 0 0 1-.5 0h-.5v.1c0 .8-.5 1.4-1.4 1.4-.8 0-1.2-.4-1.5-.7l.5-.5c.2.3.5.5 1 .5s.7-.3.7-.7c0-.3-.2-.6-.8-.6H36v-.6h.3c.4 0 .7-.2.7-.7 0-.3-.2-.5-.6-.5-.3 0-.5 0-.6.3l-.5-.4c.2-.3.6-.6 1.1-.6.8 0 1.3.5 1.3 1.2 0 .4-.3.8-.5 1 .1 0 .3 0 .4.2l.6.1.7-.1V13H38v-.5h2.3zm2.7 4.8V13h-1.3v2.8H41c-.3-.2-.4-.6-.4-1l.5-.3V13H40v-.5h4.5v.5h-.8v4.3H43zm4.4-2.6h.7c.2-.5.7-.7 1.2-.7h1v-1h-3.5V14.6l.6.1zm-1.7.6l.5.7.8 1-.6.4-2-2.6.6-.4c.1.2.3.4.6.4s.5-.1.5-.5V13h-2v-.5H52v.5h-.8v4.3h-.7v-2.7h-1c-.5 0-.8.2-.8.8 0 .7.4 1.2.9 1.5l-.6.5c-.5-.4-1-1.1-1-2h-.4c-.4 0-.8-.1-1-.3a1 1 0 0 1-.6.2h-.2zm10.6 2h-.6v-.4c0-.3-.2-.6-1.2-1.3v-.4l1.1-.6h-.1c-.5 0-1.1-.4-1.1-1 0-.8.5-1.2 1.2-1.2s1.2.5 1.2 1.2c0 .8-.5 1.4-1.5 2 .9.5 1.2.8 1.2 1.3l-.2.4zm-.4-3v-.1c.2-.2.3-.4.3-.7 0-.3-.3-.5-.6-.5s-.6.2-.6.5c0 .4.4.7.9.7zm5.5 2.9l-.9-1.8c.2-.2.2-.3.2-.5 0-.3-.2-.6-.5-.8l-.5.2.2.7c-.1.1-.3.2-.7.2-.4 0-.8-.3-.8-.8 0-.6.3-1.2.8-1.7l-.6-.3c-.5.6-.9 1.3-.9 2 0 1 .7 1.5 1.5 1.5l.8-.2.6 1.6.8-.1zM11 25.8l-.4.2c-.3-.2-.5-.6-.5-1.1l.5-.4h1.8v-1.3H9.8v-.5h4.3v.5h-.9v4.3h-.7V25h-1.4v.7zm5.9-4.5c-.4 0-.6.2-.6.5 0 .4.2.7.6.9h1v.5h-1v1.3h-1.4c-.4 0-.5.1-.5.3 0 .3.2.5.4.6l1.3-.3c.3 0 .6.4.6 1 0 .7-.6 1.1-1.2 1.1l1.2.8-.8.4-1.2-1c-.8 0-1.1-.5-1.1-.8 0-.3 0-.4.2-.5l1 .7h.3c.5 0 1-.2 1-.7l-.2-.4-1.2.3c-.6-.2-1-.8-1-1.3s.3-.8.9-.8h1v-.7h-2.6v-.5h2.5a1 1 0 0 1-.5-1c0-.6.6-1 1.2-1l.7.1-.2.6a1 1 0 0 0-.4-.2zm8.1 3l-1.1.4c-.7.1-1 .4-1 .8 0 .5.5 1 1 .9.3 0 .5 0 .7-.2v-.7l.4-.2c.2.1.5.3.5.7 0 .3-.2.5-.3.6l.9 1-.9.3-.5-1-.6.1c-1 0-1.8-.7-1.8-1.6 0-.7.4-1.1 1.2-1.3l.8-.2v-.7H22v-.5h4.3v.5h-1v1.2zm-2.9-1h-.8v4.2h-.7v-4.3h-.9v-.5h.9V22c0-1 .7-1.5 1.7-1.5a3 3 0 0 1 2.5 1.3l-.5.4c-.4-.5-1-1-2-1-.6 0-1 .3-1 .8v.7h.9v.5zm5.4.8c.5 0 .8.2 1 .6 0-.4.4-.7.8-.7.5 0 .8.2 1 .4.2-.2.5-.3.8-.3.5 0 .8.2 1 .6 0-.4.4-.6.7-.6.3 0 .5 0 .6.2v-1h-7.7v-.6h9.3v.5h-.8v4.3h-.7v-2.6l-.6-.2c-.3 0-.5.2-.5.7v.7h-.7v-.7c0-.5-.2-.7-.5-.7s-.6.2-.6.8c0 .6.3 1.2 1 1.6l-.4.5a2.4 2.4 0 0 1-1.3-2.1v-.6a.8.8 0 0 0-.5-.2c-.4 0-.6.2-.6.7v.7h-.7v-.7c0-.5-.2-.7-.5-.7s-.6.2-.6.8c0 .6.3 1.2 1 1.6l-.4.5a2.4 2.4 0 0 1-1.3-2.1c0-1 .6-1.4 1.2-1.4zm9.6-.9h-.8v4.3h-.7v-4.3h-.9v-.5h.9c0-.8-.5-1.6-1.2-1.6-.4 0-.6.2-.6.5 0 .2.1.4.3.5l-.7.2a1 1 0 0 1-.3-.7c0-.6.5-1 1.2-1 1.1 0 1.8.8 2 2h.8v.6zm5.6 4.3h-.6v-2h-1.5v.8h-.5c-.4-.3-.5-.8-.5-1l.3-.4v-1.7h-1v-.5h4.7v.5h-.9v4.3zm-.6-4.3h-1.5V25h1.5v-1.7zm.6-.5h-.6l-1.3-1.2-.6-.7.8-.2 1.7 2zm0-1.3c0-.3.1-.5.4-.5.3 0 .5.2.5.5s-.2.5-.5.5a.5.5 0 0 1-.5-.5zm5.9 6.2l-1-.8c.5 0 1.1-.4 1.1-1.1 0-.7-.5-1-.8-1 .3-.2.6-.5.6-1 0-.7-.6-1.1-1.3-1.1-.7 0-1 .2-1.2.4l.4.5c.2-.1.4-.3.8-.3s.6.2.6.6c0 .4-.4.7-1.1.7l.1.6h.4c.5 0 .8.2.8.6 0 .4-.3.6-.9.6H47l-.7-.5-.3.3v.1c0 .4.4.7 1 .7l1 1 .7-.3zm1.1-2.8c0 .4.3.8.8.8l.8 1.7.7-.2-1-1.6c.7-.1 1.4-.6 1.4-1.5s-.6-1.4-1.5-1.4c-.4 0-.8 0-1 .3l.3.5.7-.2c.5 0 .8.3.8.8 0 .6-.4.9-1 1l-.6-.7-.4.3v.2zm3.6-1.5a1.1 1.1 0 0 1 .6-1l.5-.2.4.1.3.3a1.2 1.2 0 0 1 .4.8l-.1.4-.3.3a1 1 0 0 1-.7.4 1 1 0 0 1-.8-.4 1.1 1.1 0 0 1-.3-.7zm.5 0l.1.4.5.2c.2 0 .3 0 .4-.2l.2-.4a.6.6 0 0 0-.6-.7c-.2 0-.3 0-.5.2l-.1.5z" fill="#FFF"/><g transform="translate(-1 39)"><mask id="f" fill="#fff"><use xlink:href="#e"/></mask><path fill="#1A237E" mask="url(#f)" d="M-3 115h121V-2H-3"/></g><g transform="translate(25 53)"><mask id="h" fill="#fff"><use xlink:href="#g"/></mask><path fill="#FFF" mask="url(#h)" d="M-2.3 55.3h56.6V-2H-2.3"/></g><path d="M43.2 123c.5 0 1 0 1.5-.2v-3.5h-3v3.6l1.5.1zm-4 1.4l1.3 1.5 1.7 2.3-1.2.8-4.4-5.7 1.2-.9c.3.4.7.8 1.4.8.6 0 1-.3 1-1v-3H36V118h12.2v1.3h-2v9.5h-1.5v-4.5a6.4 6.4 0 0 1-3.7-.3c-.3.3-.8.4-1.3.4h-.4zm16.7 4.4h-1.5v-4.4h-3.2v1.7H50c-.7-.6-1.1-1.7-1.1-2.4l.8-.6v-3.8h-2.3V118h10.5v1.3h-2v9.5zm-1.5-9.5h-3.1v3.7h3.1v-3.7zm10.1 6.3c-.4.4-1.2 1-2.5 1-2 0-3.6-1.4-3.9-4 1.5-.3 2.4-.8 2.4-1.8 0-.5-.3-1.1-.7-1.5h-2.7V118H68v1.3h-2v9.5h-1.5v-3.2zm-4.6-2.3c.1.9.8 2 2.3 2 1.4 0 2.3-1 2.3-2.5v-3.5h-3.1c.4.5.6 1 .6 1.7 0 1.2-1 2-2.1 2.3z" fill="#FFF"/><g transform="translate(104 39)"><mask id="j" fill="#fff"><use xlink:href="#i"/></mask><path fill="#283593" mask="url(#j)" d="M-2 114.3h110V-2.3H-2"/></g><g transform="translate(131 61)"><mask id="l" fill="#fff"><use xlink:href="#k"/></mask><path fill="#FFF" mask="url(#l)" d="M-2.3 45h56.6V-2.2H-2.3"/></g><path d="M139.2 122c.6 0 1.1 0 1.6-.2v-3.5h-3v3.6l1.4.1zm-4 1.4l1.3 1.5 1.8 2.3-1.3.8-4.4-5.7 1.2-.9c.4.4.7.8 1.4.8s1-.3 1-1v-3H132V117h12.3v1.3h-2v9.5h-1.5v-4.5a6.5 6.5 0 0 1-3.7-.3c-.4.3-.9.4-1.4.4h-.4zm16.9 4.4h-1.6v-4.4h-3.2v1.7h-1.2c-.7-.6-1.1-1.7-1.1-2.4l.8-.6v-3.8h-2.3V117H154v1.3h-2v9.5zm-1.6-9.5h-3.1v3.7h3.1v-3.7zm8.2 0h-2v9.5h-1.6v-9.5h-1.9V117h5.5v1.3zm7.3 6.5c-.4.5-1.3 1.2-3 1.2-2 0-3.1-1.2-3.1-2.7 0-1 .5-1.5.8-1.8h-2.2V120h6.1v1.3h-1.2c-1.2 0-1.9.7-1.9 1.7 0 .9.7 1.6 1.9 1.6 1.5 0 2.6-1.1 2.6-3v-3.4h-8.2V117h11.7v1.3h-2v9.5H166v-3zm8.1-6.5h-1.9v9.5h-1.6v-9.5h-1.9V117h5.4v1.3zm2.6 5l1.2 1.4 1.8 2.4-1.3.8-4.4-5.7 1.1-1c.4.5.8.9 1.5.9.6 0 1-.3 1-1v-2.8h-4.3V117h7.7v1.3h-1.8v2.9c0 1.4-1 2-2 2.1h-.5z" fill="#FFF"/><g transform="translate(-1 150)"><mask id="n" fill="#fff"><use xlink:href="#m"/></mask><path fill="#303F9F" mask="url(#n)" d="M-2 115h128V-2H-2"/></g><g transform="translate(30 167)"><mask id="p" fill="#fff"><use xlink:href="#o"/></mask><path fill="#FFF" mask="url(#p)" d="M-2.2 53H45V-2H-2.2"/></g><path d="M44.3 238c.6 0 1.1-.1 1.5-.3v-3.6h-3v3.7l1.5.2zm-4 1.3l1.2 1.5 1.8 2.4-1.2.8-4.5-5.7 1.2-1c.4.4.8.8 1.5.8.6 0 1-.3 1-1v-3H37v-1.3h12.4v1.3h-2v9.7h-1.6v-4.6a6.5 6.5 0 0 1-3.7-.3c-.4.3-.8.4-1.3.5h-.5zm5.2-9.2c0 .5.5 1 1.1 1a1 1 0 0 0 1.1-1c0-.7-.4-1.2-1-1.2-.7 0-1.2.5-1.2 1.2zm9.9 13.7V234h-2.8v6.4H51a3 3 0 0 1-1.1-2.3l1.1-.8v-3.3h-2.4v-1.3h10.3v1.3h-2v9.7h-1.5zm8.1-9.7h-2v9.7H60V234h-2v-1.3h2c-.1-1.7-1.1-3.5-2.7-3.5-.8 0-1.2.5-1.2 1.1 0 .4.1.9.5 1.2l-1.5.3c-.4-.3-.6-.9-.6-1.5 0-1.3 1-2.4 2.7-2.4 2.5 0 4 2 4.3 4.8h2v1.3zm4 8.9l-1.2 1a5.7 5.7 0 0 1-2.4-4.6 3 3 0 0 1 3.1-3.2h2.5v-2h-6.8v-1.4H73v1.3h-2v9.7h-1.5v-6.2h-2.2c-1 0-1.7.6-1.7 1.8 0 1.6.8 2.8 1.9 3.6z" fill="#FFF"/><g transform="translate(104 150)"><mask id="r" fill="#fff"><use xlink:href="#q"/></mask><path fill="#3949AB" mask="url(#r)" d="M-2 114.3h110V-2.3H-2"/></g><g transform="translate(129 188)"><mask id="t" fill="#fff"><use xlink:href="#s"/></mask><path fill="#FFF" mask="url(#t)" d="M-2.3 33.3H38V-2H-2.3"/></g><g transform="translate(146 177)"><mask id="v" fill="#fff"><use xlink:href="#u"/></mask><path fill="#FFF" mask="url(#v)" d="M-2.2 36h43.5V-2.2H-2.2"/></g><path d="M147.3 238c.6 0 1.1 0 1.6-.2v-3.6h-3v3l-.1.6 1.5.2zm-4 1.4l1.2 1.4 1.9 2.4-1.3.8-4.5-5.7 1.2-1c.4.5.8.9 1.5.9.6 0 1-.3 1-1v-3H140v-1.3h12.4v1.3h-2v9.6H149v-4.6a6.7 6.7 0 0 1-3.8-.3c-.4.3-.8.5-1.3.5h-.5zm5.3-9.3c0 .6.4 1 1 1a1 1 0 0 0 1.2-1 1 1 0 0 0-1.2-1.1c-.6 0-1 .5-1 1.1zm11.2 10.7c-.4.5-1.3 1.2-3 1.2-2 0-3.1-1.3-3.1-2.7 0-1 .5-1.6.8-1.8v-.1h-2.3V236h6.3v1.4h-1.3c-1.2 0-1.9.6-1.9 1.6s.7 1.6 1.9 1.6c1.5 0 2.6-1 2.6-3v-3.4h-8.2v-1.3h11.8v1.3h-2v9.6h-1.6v-3zm8.3-6.6h-2v9.6h-1.6v-9.6h-2v-1.3h5.6v1.3zm2.5 5v.1l1.2 1.4 1.9 2.4-1.3.8-4.5-5.8 1.2-1c.3.6.8 1 1.5 1 .6 0 1-.3 1-1v-3h-4.4V233h7.8v1.3h-1.9v3c0 1.4-1 2-2 2h-.5z" fill="#FFF"/><g transform="translate(-1 261)"><mask id="x" fill="#fff"><use xlink:href="#w"/></mask><path fill="#3F51B5" mask="url(#x)" d="M-3 115h121V-2H-3"/></g><g transform="translate(28 284)"><mask id="z" fill="#fff"><use xlink:href="#y"/></mask><path fill="#FFF" mask="url(#z)" d="M-2.3 50.2H50V-2.3H-2.3"/></g><path d="M43.6 351.8c-.4.4-1 .8-2 .8-1.8 0-2.8-1-2.8-2.8V346H37v-1.3h14.4v1.3h-6.2v2.7c.3-.4 1-1 2.2-1 1.7 0 3 1.2 3 3 0 2.2-1.7 3.4-3.7 3.2l-.2-1.4c1.4.2 2.3-.6 2.3-1.8 0-1-.7-1.6-1.7-1.6-1.1 0-2 1-2 2.3v4.4h-1.5v-4zm0-2.6V346h-3.2v3.6c0 1.1.4 1.6 1.3 1.6 1.2 0 1.9-.8 1.9-2zM39 355c0-.5.4-1 1-1 .5 0 .9.5.9 1 0 .6-.4 1-1 1a1 1 0 0 1-1-1zm17.1-9h-2v9.8h-1.5V346h-2v-1.3h2c-1-.7-2-1.8-2.8-2.7l-1.4-1.6 1.9-.4 3.7 4.7h2.1v1.3zm2.2 6l-.9.4a3 3 0 0 1-1.3-2.6l1.1-.9h4.2V346h-6v-1.3H65v1.3h-2v9.8h-1.6v-5.4h-3.1v1.6z" fill="#FFF"/><g transform="translate(104 261)"><mask id="B" fill="#fff"><use xlink:href="#A"/></mask><path fill="#5C6BC0" mask="url(#B)" d="M-2 114.3h110V-2.3H-2"/></g><path d="M143.2 350c.6 0 1-.1 1.5-.3v-3.6h-3v3.7l1.5.2zm-4 1.3l1.3 1.5 1.8 2.4-1.3.8-4.4-5.7 1.2-1c.4.4.7.8 1.4.8.6 0 1-.3 1-1v-3H136v-1.3h12.2v1.3h-2v9.7h-1.5v-4.6a6.4 6.4 0 0 1-3.7-.3c-.3.3-.8.4-1.3.5h-.4zm7-6.4l-1.3.1c-1-.7-2.1-1.9-2.9-2.8l-1.3-1.6 1.7-.4 3.8 4.7zm5.8 1.2v-1.3h9.3v1.3h-2.2v2.8l-2.4.7c-1.7.5-2 1-2 2s.8 2.2 2.4 2.2c1.2 0 2-.4 2.7-1.2l.9 1.3c-1 1-2.2 1.3-3.4 1.3-2.4 0-4.1-1.9-4.1-3.9 0-1.5.8-2.4 2.5-3l1.8-.5v-1.7H152zm.8 0h-2v9.7h-1.5V346h-1.9v-1.3h2v-1.4c0-2.1 1.5-3.4 3.8-3.4 2.8 0 4.7 1.8 5.5 2.9l-1.1 1a5.3 5.3 0 0 0-4.4-2.5c-1.4 0-2.3.7-2.3 2v1.4h2v1.3zm6.3-4.4c0 .6.5 1 1 1 .7 0 1.2-.4 1.2-1 0-.7-.5-1.1-1.1-1.1-.6 0-1 .4-1 1.1zM173 350c.6 0 1-.1 1.5-.3v-3.6h-3v3.7l1.5.2zm-4 1.3l1.3 1.5 1.8 2.4-1.3.8-4.4-5.7 1.2-1c.3.4.7.8 1.4.8.6 0 1-.3 1-1v-3h-5.5v6.4h-1.6a3 3 0 0 1-1-2.3l1-.8v-3.3h-2.4v-1.3H178v1.3h-2v9.7h-1.5v-4.6a6.4 6.4 0 0 1-3.7-.3c-.3.3-.8.4-1.3.5h-.4z" fill="#FFF"/><g transform="translate(131 277)"><mask id="D" fill="#fff"><use xlink:href="#C"/></mask><path fill="#FFF" mask="url(#D)" d="M-2.3 54.3H55V-2.3H-2.3"/></g></g></g></svg>