<svg data-name="Layer 1" xmlns="http://www.w3.org/2000/svg" xmlns:xlink="http://www.w3.org/1999/xlink" width="1137.7" height="859.7"><defs><linearGradient id="a" x1="512.8" y1="730.5" x2="512.8" y2="139.4" gradientUnits="userSpaceOnUse"><stop offset="0" stop-color="gray" stop-opacity=".3"/><stop offset=".5" stop-color="gray" stop-opacity=".1"/><stop offset="1" stop-color="gray" stop-opacity=".1"/></linearGradient><linearGradient id="b" x1="703.4" y1="781.9" x2="703.4" y2="171.1" xlink:href="#a"/><linearGradient id="c" x1="876" y1="827.3" x2="876" y2="239.7" xlink:href="#a"/><linearGradient id="d" x1="479.8" y1="818.7" x2="479.8" y2="229.9" gradientTransform="matrix(-1 0 0 1 828.9 0)" xlink:href="#a"/><linearGradient id="e" x1="561.7" y1="875.4" x2="561.7" y2="737.8" xlink:href="#a"/></defs><path d="M12.3 406.5c18 70.2 56 130.8 116.3 160.2 125.2 61 407.5 29.6 618.1-6.6a494.8 494.8 0 0 0 274.4-143zM1117 76.3h-115.5c-5.5 0-10-4-10-9s4.4-9.2 10-9.2h20c-5.5 0-10-4.1-10-9.1s4.4-9.1 10-9.1h-14.3c-5.5 0-10-4.1-10-9.1s4.5-9.1 10-9.1h60.3a171 171 0 0 0-47-11.9c-164.6-19.2-223.3-6.5-244 6.6a242.1 242.1 0 0 1-84.6 33.8c-101.5 19.1-291.3 42-463.4-7.3-85.5-24.6-149 17-187.1 86.3H1137a150.8 150.8 0 0 0-13.6-55.1 10.5 10.5 0 0 1-6.5 2.2zM2.5 260A424 424 0 0 0 7 382.6l1014.8 33.8a433.1 433.1 0 0 0 70.6-98zm401.3 87.4h-20c5.5 0 10 4.1 10 9.1s-4.5 9.1-10 9.1H268.3c-5.5 0-10-4-10-9s4.5-9.2 10-9.2h20c-5.5 0-10-4.1-10-9.1s4.5-9.1 10-9.1H274c-5.5 0-10-4.1-10-9.1s4.5-9.1 10-9.1h115.6c5.5 0 10 4 10 9s-4.5 9.2-10 9.2h14.2c5.5 0 10 4 10 9s-4.4 9.2-10 9.2zM1137.2 129.8l-1108 24.6A372.1 372.1 0 0 0 2.6 258.7h1115.2a399 399 0 0 0 16-66.5 288 288 0 0 0 3.4-62.4zm-909.6 80.5h-20c5.5 0 10 4.1 10 9.1s-4.5 9.1-10 9.1H92c-5.5 0-10-4-10-9s4.5-9.2 10-9.2h20c-5.5 0-10-4-10-9s4.5-9.2 10-9.2H97.7c-5.5 0-10-4.1-10-9.1s4.5-9.1 10-9.1h115.6c5.5 0 10 4 10 9s-4.5 9.2-10 9.2h14.3c5.5 0 10 4.1 10 9.1s-4.5 9.1-10 9.1z" fill="#007bff" opacity=".1"/><ellipse cx="664.3" cy="749.9" rx="75.2" ry="16.9" fill="#007bff" opacity=".1"/><ellipse cx="839.1" cy="803.6" rx="135.7" ry="11.1" fill="#007bff" opacity=".1"/><ellipse cx="294.2" cy="786.7" rx="135.7" ry="16.9" fill="#007bff" opacity=".1"/><ellipse cx="501.1" cy="702.1" rx="102.1" ry="16.9" fill="#007bff" opacity=".1"/><ellipse cx="529.7" cy="842.8" rx="81.8" ry="16.9" fill="#007bff" opacity=".1"/><path d="M608.6 320.5c-2.1-14.6-15.4-48.5-15.4-48.5l-.7-3c-9.4-32.2-22.4-35-22.4-35l-46.4-10a3.6 3.6 0 0 1 1 1 6.5 6.5 0 0 0-.8 0 18.2 18.2 0 0 1-4-8.8l-.3-1.4a32.7 32.7 0 0 0-2.6-49.2l-1.5-1c2.2-2.4 2.2-5.6.6-8.9-3.7-7.6-11.6-12.4-19.8-14.7-6.2-1.8-13-2.4-19.2-.5-3.5 1.2-6.8 3-10 4.7-6.2 3-13 5.5-17.7 10.6-1 1.2-2 2.7-1.7 4.3.2 1.1 1.1 2 1.7 3 1.3 2.4 1 5.3.1 7.8s-2.2 4.8-2.9 7.4-.4 5.6 1.6 7.5a33 33 0 0 0 2.9 2 15.2 15.2 0 0 1 2.7 3.1l5.5 7.4a76.5 76.5 0 0 1 7 10.5c1.3 2.7 2.4 5.6 4.2 8a11.9 11.9 0 0 0 1.8 2l-.5-.3a8.3 8.3 0 0 0 6.1 2.5h.3a1.7 1.7 0 0 0 1.1-.5v1c.1 3.6 0 7.4-.2 11l-.4-.2a3.8 3.8 0 0 0-4 .4L432 267s-9.3 12.7-8 34.7l-7.5 33s-9.3 27.9-2.1 47.8l11.4 31.4s2.8 22.6 7.2 24.5 6.2 2.8 6.2 2.8l.8 5.5.8 1.4c3.2 5.5 14.9 24.8 21.6 22.7a86.7 86.7 0 0 1 1.1 16l6.8 45s4.6 12.2 4.3 18.6S480 566 480 566a29.8 29.8 0 0 0-2.9 21c2.8 12 6.2 67.2 6.2 67.2l5 13.4-.1 15.7a15 15 0 0 1-3.1 7c-3.3 3.6-3 7.6-10.8 12.4s-12.8 6.7-12.8 13a16.7 16.7 0 0 1-.2 2.7c-.8 4.7-2.2 7.2 12.2 8.6 16.9 1.6 28.1-9.4 28.1-9.4s2.5-4.5 14.2-6.3c0 0 4-.3 4.2-3.8a86.8 86.8 0 0 0-1.3-17c-.8-.3-2.1-5.3-2.6-7h3.3s3-22.7 0-37.4-.3-25-.3-25l-.6-38.9s-4-4.2-.9-11.8 0-44.9 0-44.9 1.2-13.4 4.5-16.5.2-19.7 0-20.5l5.9 19.8s2.6 39.3 8 46.4l1.7 17.8s11.2 16.5 9 25.3 2.4 40.8 2.4 40.8v32.6s-5.1 13.1 2 17.8l3-.1c-1 1-1.8 2.3-3 3.5-1.3 1.4-2.1 6.7-2.5 11.3-.4 3.8-.5 7.1-.5 7.1s3 4.8 8.6 5.2 24.3 14.5 24.3 14.5 18.4 0 23.1-1l.3-.1a6.3 6.3 0 0 0 3.6-3 7.5 7.5 0 0 0 .9-5.3c-.6-2.8-2.8-6-7.8-8.5C588.8 706 587 700 587 700l-8-12.1h1s-.6-12.8 8.1-27.2l-.5-63.5s3.6-21.8-2.6-33.6c0 0-.5-12.6 3.6-16.4s-5.5-42.8-5.5-42.8-2-20.9-4.3-40c9.7 9.3 19.8-24 21.5-29.8h.2v-.5-.4s-2.1-7.7-.6-6.1 5.5-4.3 5.5-4.3-.6-31.8 6.2-47.8-3-55-3-55zm-29 20.2c1 19.3-.1 60.7-.1 60.7l-2.8 11.6-1-39.3-1-37.1zm-124-13.4s4.8 61.3 0 70.1c-1.5 2.6-2.7 7-3.6 12.2-1.6-4.3-5-14.3-3.8-19.6 1.6-6.8-3.2-24.8-3.2-25.2s-.4-10 3-17.3 1.2-10.5 1.2-10.5 2.9-12 6.3-9.7z" transform="translate(-31.2 -20.1)" fill="url(#a)"/><path d="M436.3 445.2c-4.3 18.8-21.3-9.6-25.1-16.4l-.8-1.4 1.8-8.6 9.8-4a27.2 27.2 0 0 1 4.3 2.8c5.3 4.2 13.3 13 10 27.6zM568 414.5v.4l-.2.5c-1.7 5.8-11.6 38.8-21.1 29.7-10.5-10-5.4-33.2-5.4-33.2l22-2.2 4.4 4.5z" fill="#d38884"/><path d="M555.3 576.9l.6 63c-8.7 14.3-8 27-8 27l-28.4 1c-7-4.6-2-17.6-2-17.6v-32.4s-4.4-31.7-2.3-40.5-8.9-25-8.9-25l-1.6-17.7c-5.3-7-7.9-46.1-7.9-46.1l-5.8-19.7c.2.8 3.2 17.3 0 20.3s-4.3 16.4-4.3 16.4 3 37 0 44.6.8 11.7.8 11.7l.6 38.5s-2.7 10.4.2 25 0 37 0 37h-30.5l.2-15.7-5-13.3s-3.4-55-6-66.8a29.8 29.8 0 0 1 2.8-20.8s-5.7-9-5.4-15.4-4.4-18.5-4.4-18.5l-6.5-44.7a86.9 86.9 0 0 0-3.3-25.5c-3.8-12.8-9.5-29.5-9.5-29.5l6.4.6 32.2 2.9s78.4-5.3 82-1a14.7 14.7 0 0 1 1.4 4.7c3.5 15.8 8.2 65.3 8.2 65.3s9.5 38.6 5.4 42.5-3.6 16.2-3.6 16.2c6.1 11.8 2.6 33.5 2.6 33.5z" fill="#444053"/><path d="M489 686.3c-.2 3.5-4.1 3.7-4.1 3.7-11.5 1.8-14 6.3-14 6.3s-11 10.9-27.5 9.3c-14.1-1.4-12.7-3.9-12-8.5a17.6 17.6 0 0 0 .2-2.6c0-6.4 5-8.2 12.5-13s7.5-8.8 10.7-12.3 3.5-10.3 3.5-10.3c3.6-6.3 12.7 1 12.7 1 .4 2.2 14 1.9 14 1.9s1.8 7.2 2.7 7.6c.6.3 1.1 6 1.3 10.8v6z" fill="#b07473"/><path d="M489 686.3c-.2 3.5-4.1 3.7-4.1 3.7-11.5 1.8-14 6.3-14 6.3s-11 10.9-27.5 9.3c-14.1-1.4-12.7-3.9-12-8.5 6.3 1.6 18.3 3.7 25.4 0 9.7-5.4 16.7-9 16.7-9l15.5-7.9v6z" opacity=".1"/><path d="M575.4 705.2a6.1 6.1 0 0 1-3.5 2.9h-.3c-4.7 1-22.7 1-22.7 1s-18.3-14-23.8-14.4-8.5-5-8.5-5 .1-3.3.5-7.2c.4-4.5 1.2-9.7 2.5-11.1 2.4-2.6 3-6 8.5-3.8 0 0 7.8-13.9 17-3.2l9.6 14.5s1.8 6 14 12.5c4.8 2.6 7 5.7 7.5 8.5a7.5 7.5 0 0 1-.8 5.3z" fill="#b07473"/><path d="M575.4 705.2l-3.5 2.9h-.3c-4.7 1-22.7 1-22.7 1s-18.3-14-23.8-14.4-8.5-5-8.5-5 .1-3.3.5-7.2c5.6 1.7 14.1 4.7 16.4 7.9 3.5 4.9 14.1 11.7 14.1 11.7s19.8-2 28.6-2.2a7.5 7.5 0 0 1-.8 5.3z" opacity=".1"/><path d="M498.3 211.4L472.2 239s-31.7-2.4-26.2-11.7c2.9-4.8 3.3-14.7 3-23.4-.2-8.3-1-15.4-1-15.4s44.3-22.1 41-1.5a33.9 33.9 0 0 0-.2 11.7c2 10.4 9.5 12.7 9.5 12.7z" fill="#d38884"/><path d="M489 187a33.9 33.9 0 0 0-.2 11.7 32.6 32.6 0 0 1-23.2 9.7c-6 0-12.5-5-17.4-7.8l-.2-12.1s44.3-22.1 41-1.5z" opacity=".1"/><path d="M498.3 174a32.7 32.7 0 1 1-12.3-25.5 32.7 32.7 0 0 1 12.3 25.5z" fill="#d38884"/><path d="M542.7 419.4c-8.1 19.3-60.5 19.7-60.5 19.7v-21l-3.1-.3c1.3 6-2 20.8-2 20.8-41.3 5.8-51.4-17.7-51.4-17.7l1.4-8.1 32.2 2.9s78.4-5.3 82-1a14.7 14.7 0 0 1 1.4 4.7z" opacity=".1"/><path d="M482.2 436.6v-21.1l-3.1-.2c1.3 6-2 20.8-2 20.8-31.1 4.4-44.5-8-49.3-14.2a19.4 19.4 0 0 1-2.1-3.6l12.6-71 3-104.7 4.5-18.4 1-8.8h.2l3.2 1.3 19.3 8.3 21.9-16.5.3-.2 1-.9 1.9 1.5 4.5 3.6 14.4 93.2s25 71.7 29.7 100.7l.5 3.3c3 26.4-61.5 26.9-61.5 26.9z" fill="#007bff"/><circle cx="471.8" cy="227.1" r="1.9" fill="#67647e"/><circle cx="472.7" cy="244.1" r="1.9" fill="#67647e"/><circle cx="474.6" cy="271.6" r="1.9" fill="#67647e"/><circle cx="477.6" cy="301.2" r="1.9" fill="#67647e"/><circle cx="479.5" cy="329" r="1.9" fill="#67647e"/><circle cx="481.3" cy="358.6" r="1.9" fill="#67647e"/><circle cx="480.6" cy="387.9" r="1.9" fill="#67647e"/><path d="M448.1 357.6s-2 27.2-5.9 35.1-5.5 30.2-5.5 30.2l-8.9-1a19.4 19.4 0 0 1-2.1-3.6l12.6-71 3-104.7 4.5-18.4 1-8.8h.2a3.6 3.6 0 0 1 3.2 0l.4.2-.4 1.2c-3.4 10.8-4.7 30.7-4.7 30.7s5 36.6 5.5 53.5-2.9 56.6-2.9 56.6z" opacity=".1"/><path d="M426.3 417.6a5.1 5.1 0 0 1-.3.7c-3.5 5.8-12.2 9.5-14.8 10.5l-.8-1.4 1.8-8.6 9.8-4a27.2 27.2 0 0 1 4.3 2.8z" opacity=".1"/><path d="M402.8 278.7l-8.1 4.8-7.4 32.7s-9.2 27.7-2.1 47.5l11.2 31.2s2.8 22.5 7 24.3 6.1 2.8 6.1 2.8l.9 5.4s11.5-3.9 15.6-10.8-3-24-3-24-6.1-14.6-4.5-21.4-3.2-24.6-3.2-25-.4-9.9 3-17.2 1.2-10.4 1.2-10.4l-2.2-20.8z" fill="#67647e"/><path d="M543.4 413.2s-21.4 8.1-28.2 1-6-40.1-6-40.1-6.5-61.2-10.7-71.2-2-82.5-2-82.5-2.7-9.4-5.1-11.8a2.6 2.6 0 0 0-.5-.4l.8.1 2.9.7 4.5 3.6 14.4 93.2s25 71.7 29.7 100.7z" opacity=".1"/><path d="M568 415.4h-.2c-2.7.3-26.4 3.2-26.5-1.8a14.5 14.5 0 0 1 0-1.7l22-2.2 4.4 4.5.2.7z" opacity=".1"/><path d="M545.2 246l15.6 8s13 33.7 15.1 48.2c0 0 9.7 38.6 3 54.5s-6 47.5-6 47.5-3.9 5.8-5.4 4.2.5 6.1.5 6.1-26.6 3.5-26.7-1.7 6-30.3 6-30.3 1.8-59.5-.6-68.9-1.5-67.7-1.5-67.7z" fill="#67647e"/><path d="M498.7 309.4s-8.8 21.5-11.6 22.9.5 7 .5 7 16-22.3 11-30zM493.4 234c.2-.5-10.4 10.3-13.2 12s10.3-.1 13.3-12zM464 307.7S448 318 450 322.2s14-14.5 14-14.5zM493.3 460s13.7 8.8 35.1 11zM460.3 481.2s12.8 16 18.6 16.4-18.6-16.4-18.6-16.4zM478.2 543.9c-.6.2-7.3 14.4-14 14.8s14-14.8 14-14.8zM537.2 574.9s12.6-2.9 15.4 6.2c0 0-.9-2.9-15.4-6.2zM528.7 626.6s15.3-3.1 18.5 1.1-18.5-1-18.5-1zM485.4 633.9c0 .1-15.5 3-15 5s16.6 1.8 17.2-1.4a3 3 0 0 0-2.2-3.6zM523.6 647.3s25.6-3.1 24 2.2-24-2.2-24-2.2zM389.7 332.3c.2.4 16.9 2.7 19.1 8 0 0-16.4-7.6-19-7.6M413.2 376s-13.9 4.4-12.9 11-1.4-3 13-11zM406.8 409.7s5-7 9.8-5.7-9.8 5.7-9.8 5.7zM486 148.5a7.9 7.9 0 0 1-1.7 1.2c-4 2.3-5 6-7 10-1.7 3.9-3.7 7.9-7.3 10-4.6 2.8-10.6 1.8-15.4 4.2a12 12 0 0 0-6.4 11.8 34.1 34.1 0 0 0 1.3 5.4A38.6 38.6 0 0 1 451 203a2 2 0 0 1 0 .4 32.7 32.7 0 1 1 35-54.8z" opacity=".1"/><path d="M485.1 138.6c-3.6-7.5-11.4-12.3-19.4-14.6a32.6 32.6 0 0 0-18.9-.4c-3.5 1.1-6.6 3-9.9 4.6-6 3-12.7 5.5-17.2 10.5-1.1 1.2-2 2.7-1.8 4.3.3 1.1 1.2 2 1.7 3 1.3 2.3 1 5.2.1 7.7s-2.2 4.8-2.8 7.4-.4 5.6 1.5 7.4c.9.8 2 1.3 2.9 2a15 15 0 0 1 2.7 3l5.4 7.5a74.8 74.8 0 0 1 6.8 10.4c1.3 2.6 2.3 5.5 4.1 7.9s4.6 4.3 7.6 4a1.5 1.5 0 0 0 1.2-.5 1.6 1.6 0 0 0 .2-.8 38.4 38.4 0 0 0-1.5-11.7 33.9 33.9 0 0 1-1.3-5.4 12 12 0 0 1 6.4-11.9c4.8-2.4 10.9-1.4 15.5-4.1 3.5-2.2 5.5-6.2 7.2-10 2-4.2 3-7.8 7-10s4.5-6.3 2.5-10.3z" fill="#585268"/><path d="M470.5 673s5 6.3 3.7 10-3.7-10-3.7-10zM538.1 688.9s1.1-8.6 5.6-8.7 4.6-.4 8 .9 6.6 3.3 5.6 3.6-5.8-4.9-10.8-2.2a35.7 35.7 0 0 0-8.4 6.4zM455.5 235.7l14-9.8s-20.4-12-22.9-10.4-4 17-4 17z" opacity=".1"/><path d="M455.5 235.1l14-10s-20.5-12-23-10.4-4 17.9-4 17.9z" fill="#e1e7ef"/><path d="M455.5 235.1l14-10s-20.5-12-23-10.4-4 17.9-4 17.9z" fill="#007bff"/><path d="M448.9 214.8l-.4-.2a3.6 3.6 0 0 0-4 .4l-42 34s-9 12.7-7.8 34.5l24.7 35s2.9-11.8 6.3-9.5c0 0 4.8 60.8 0 69.6s-7 41.6-7 41.6L435 422s1.7-22.2 5.5-30.1 6-35.2 6-35.2 3.4-39.5 2.8-56.5-5.5-53.5-5.5-53.5 1.4-21.4 5-32z" fill="#67647e"/><path d="M490.7 229.5l-17.4-6.4s22.2-24.4 25-10.9z" opacity=".1"/><path d="M490.7 228.7l-17.4-6.5s22.2-24.3 25-10.8z" fill="#e1e7ef"/><path d="M490.7 228.7l-17.4-6.5s22.2-24.3 25-10.8z" fill="#007bff"/><path d="M490.2 208a1 1 0 0 1 .7.1z" opacity=".1"/><path d="M491.8 206.3l46.3 10s12.8 2.8 22 34.8-12.6 71.2-12.6 71.2l-4.8-4.1 2.4 93.4s-21.4 8-28.2 1-6-40.3-6-40.3-6.6-61-10.7-71.1-2-82.5-2-82.5-3.8-13-6.4-12.4z" fill="#67647e"/><path d="M534.2 265.8a265 265 0 0 0 1.4 50.4 274.5 274.5 0 0 0 8 38.7l-4.2-86.1s-3.2-4.8-5.2-3zM528.5 241.5c1.2.7 6.1 12.4 3.9 17.2s-3.9-17.2-3.9-17.2zM484.8 138.6a25.6 25.6 0 0 0-10.1-10.6 24.2 24.2 0 0 1 7.6 9c2 4 1.4 8-2.5 10.2s-5 5.9-7 10c-1.8 3.8-3.7 7.8-7.3 10-4.6 2.8-10.7 1.8-15.5 4.2a12 12 0 0 0-6.4 11.8 34 34 0 0 0 1.4 5.5 38.7 38.7 0 0 1 1.5 11.7 1.6 1.6 0 0 1-.2.8 1.4 1.4 0 0 1-1.2.5 6.9 6.9 0 0 1-3.5-.6 8.1 8.1 0 0 0 6 2.3 1.2 1.2 0 0 0 1.4-1.3 38.4 38.4 0 0 0-1.5-11.7 32.9 32.9 0 0 1-1.4-5.5 12 12 0 0 1 6.4-11.8c4.8-2.4 11-1.4 15.5-4.2 3.6-2.1 5.5-6.1 7.3-10 2-4.1 3-7.7 7-10s4.5-6.3 2.5-10.3z" opacity=".1"/><path d="M800.9 284.4c-13.8-.3-26-10-32.9-22a22 22 0 0 1-3.3-9.3 10.8 10.8 0 0 1 .4-2.2 23.2 23.2 0 0 0 1-3.5 6 6 0 0 0 0-1.4c.3-2.6-1.2-5-3-6.8s-4.2-3-6-4.7c-6-5.2-7.8-13.5-7.9-21.5v-.4l.3-10.2a43 43 0 0 0-.2-5.8c-.6-4.8-2.4-9.7-6.2-12.8-9.9-8-26.5.4-36.7-7.2-2.5-1.8-4.5-4.6-7.5-5.3-2.2-.5-4.6.2-6.8 1-7.5 2.4-16 5.7-18.9 13-1.7 4.1-1.2 8.9-2.7 13-1 3-3 5.4-4.3 8a12.4 12.4 0 0 0-1.6 6.7 7.5 7.5 0 0 0 .5 3.5 9 9 0 0 0 2.4 3.5 11.7 11.7 0 0 1-1.4 2.3c-2 2.4-5 4-7 6.4-3.6 4.3-3.5 10.1-1.7 15.1s5.2 9.7 7.4 14.6c1 2.1 1.8 4.5.8 6.6-.7 1.5-2.2 2.6-3.3 3.9a12.1 12.1 0 0 0-3 6.7c-22.6 5.1-22.6 23.2-22.6 23.2l-12.1 30.6s-2 5.1-4.3 12l-14.4-2.6 10 16.7a52.9 52.9 0 0 0-2.8 16.3s-4.4 21 3.5 24.7l17.6 7.9a10.4 10.4 0 0 0 2.4 1l.7.4a1.9 1.9 0 0 0 1.6 0H639.2a2.4 2.4 0 0 0 1-.2 2 2 0 0 0 .9-1l5.2-1.5 4.5 5.2c2 1.4 4 2.7 5.9 3.8l-7 68.4s-1 91-4.4 111.7a58 58 0 0 0-.8 16.5l-.1.2c.8 5.9 3 7 3 7a.7.7 0 0 0 .1 0 59 59 0 0 1 3.6-7.7v1.5c0 7.7-.3 18.5-1 25.6-1.4 12 3.4 51.5 3.4 51.5l1.7 36a33.3 33.3 0 0 1-4.1 17.5c-4 7.2-9.1 17.4-9.5 21.8a4.5 4.5 0 0 0 0 .8l-8.6 10.3s-3.4 5.2 4.2 7.3c4 1.1 11.1 0 16.7-1.4a11.2 11.2 0 0 0 8.7-10.8 38.5 38.5 0 0 1 7.1-13.6l1.4 8.3 9.4 2.3 1.3-22.7a10 10 0 0 0 .6-4c1.9-16.2-4.4-14.7-4.4-14.7a.9.9 0 0 1 .3.5l-.3-.5c-3.8-7.6-2-20-2-20s5-36 6.7-45.5c1.3-6.8.8-28.8.4-41l-.1-1.5c14.6-.2 32.6-.7 45.2-2v1.6l-2.3 85a46.7 46.7 0 0 1-3.3 15.8l-.1.3a69 69 0 0 0-4.6 22.3l-1.1 27v.8c-1.9.7-4.9 2.8-5 8.8 0 9 15.6 6 15.6 6 15.6 0 15.8-16.3 15.8-16.3s.4-15 1.2-25-2.4-7.7-2.4-7.7l-.2 28.4v.2-25l.2-3.5v-.9l2-29.3s14.4-48.8 16.6-58.2c1.6-6.7 1-26.7.4-37.8v-1.5c4.4-.4 8.4-.4 10-.4h.7s-.7-78.5-2.6-108-4.9-56.6-12.3-64.8c-4.5-4.9-10.8-20-15-31.3a156.9 156.9 0 0 0 27.6 9c23.6 4.9 20.3-15.6 20.3-15.6l-2.4-38.7h.2a197.5 197.5 0 0 0-2.6-30.3 89 89 0 0 0-6-22c2.5-1 5-2 7.5-3.2 6.4-2.8 13.6-6.8 14.5-13.7h-.3a9 9 0 0 0 .3-1.5zm-146.3 56c0 4 0 11-.3 18.6l-7.5-10 7.5-12.2zM755 360.7zm3.1 15.1l-12.5-4a56 56 0 0 1 7.7-9.5l1.1-1h-.4l.6-.5h.4l-.6.5.7-.2a21.3 21.3 0 0 0 4.3 8.6c4.4 4.9-1.3 6.1-1.3 6.1z" transform="translate(-31.2 -20.1)" fill="url(#b)"/><path fill="#a27772" d="M651.1 715.7l-1.4 27.6-9.3-2.3-2-11.5 12.8-13.8z"/><path opacity=".1" d="M651.1 715.7l-1.4 27.6-9.3-2.3-2-11.5 12.8-13.8z"/><path d="M685.3 747l14.2 3 10.6-9.3v-26.3l.2-3.5v-.9l2-29.1s14.2-48.5 16.4-57.8c1.5-6.6.9-26.6.4-37.6l-.4-7.5-31.4-7.6-.6 24.1-2.3 84.5a46.8 46.8 0 0 1-3.2 15.7l-.2.3a68.7 68.7 0 0 0-4.5 22l-1 27v.7z" fill="#cc818c"/><path d="M710.3 710v.7-.7zM685.3 747l14.2 3 10.6-9.3v-2.3a3 3 0 0 1-1.6 2.4l-.1.1a28.3 28.3 0 0 1-16 3.2l-5.5-.5a5.2 5.2 0 0 0-1.5.4v.7z" opacity=".1"/><path d="M708.4 741.6h.1a3 3 0 0 0 1.6-2.6l.2-28.3s3-2.1 2.3 7.8-1.2 24.7-1.2 24.7-.1 16.2-15.6 16.2c0 0-15.4 3-15.3-5.9s6.4-9.2 6.4-9.2l5.6.5a28.2 28.2 0 0 0 15.9-3.2z" fill="#b07473"/><path d="M611.4 741c.3 6.4 19 2.7 19 2.7l12.7-24.5s10.5-8 5.2-15.2a11.3 11.3 0 0 1-.7-1.2l-.4-.6c-3.8-7.5-2-19.8-2-19.8s5-35.8 6.7-45.2c1.2-6.7.7-28.5.3-40.7l-.3-8.5-31.1-8.3v9.2c0 7.7-.3 18.4-1.1 25.4-1.4 11.9 3.4 51.2 3.4 51.2l1.7 35.8a33.1 33.1 0 0 1-4 17.4c-4 7.1-9 17.2-9.4 21.6a4.4 4.4 0 0 0 0 .7z" fill="#cc818c"/><path d="M611.4 741c.3 6.4 19 2.7 19 2.7l12.7-24.5s10.5-8 5.2-15.2a11.3 11.3 0 0 1-.7-1.2c-.2 3.7-4.3 13-4.3 13s-10.4 20.8-13.7 25.6-17.7-.9-18.2-1a4.4 4.4 0 0 0 0 .6z" opacity=".1"/><path d="M647.2 702.2s6.2-1.5 4.3 14.6a10.3 10.3 0 0 1-4.8 9.1 35 35 0 0 0-14.7 20.4 11 11 0 0 1-8.5 10.8 40 40 0 0 1-16.5 1.3c-7.5-2.1-4.2-7.2-4.2-7.2l8.6-10.2s14.9 5.9 18.2 1 13.7-25.5 13.7-25.5 5.7-13 3.9-14.3z" fill="#b07473"/><path d="M697.3 573.4l-.6 24c8.3-.7 14.3-1.9 15.3-3.4 2.2-3.5 10.2-5 17-5.5l-.3-7.5zM620.8 591.9a11.4 11.4 0 0 1 3.4-4.2c3.3-1.8 3 11.8 3 11.8s11 0 25-.1l-.3-8.5-31.1-8.3v9.3z" opacity=".1"/><path d="M617.2 595s3.7-10 7-11.7 3 11.8 3 11.8 80.8.7 84.8-5.6 27.6-5.8 27.6-5.8-.7-78-2.6-107.3-4.8-56.2-12.1-64.3c-4.8-5.2-11.5-22.1-15.7-33.4l-3.8-10.7-77.1 4.4-.6 6.3-8.2 81.9s-1.1 90.4-4.5 111 2.2 23.5 2.2 23.5z" fill="#444053"/><g opacity=".1"><path d="M705.8 589.5c4-6.2 27.5-5.8 27.5-5.8s-.7-78-2.6-107.3-4.7-56.2-12-64.3c-4.9-5.2-11.6-22.1-15.8-33.4l-3.6-10.3 6-.4 3.8 10.7c4.1 11.3 10.9 28.2 15.6 33.4 7.4 8 10.3 35 12.1 64.3s2.6 107.3 2.6 107.3-23.5-.4-27.5 5.8c-3.5 5.4-63 5.6-80.2 5.6 22.1 0 71-.7 74-5.6zM618 583.3c1.4-.8 2.2 1.5 2.6 4.3a57.7 57.7 0 0 0-3.5 7.5s-2.1-1.2-3-7c1.2-2.1 2.5-4 3.9-4.8z"/></g><path d="M641 179.6c-5.3 7.3.1 17.6-5.6 24.7-1.9 2.4-4.8 4-6.8 6.3-3.6 4.3-3.5 10-1.7 15s5 9.6 7.3 14.5c1 2.1 1.7 4.5.7 6.6-.7 1.4-2.1 2.6-3.2 3.8-3.7 4.1-3.8 9.8-1.8 14.7s5.7 9 9.4 13c1.5 1.7 3.4 3.5 5.8 3.4a8 8 0 0 0 3.7-1.2 37 37 0 0 0 16.8-48.3c-3.1-7.4-8.3-14.5-8.3-22.4 0-6.2 3.2-12.1 3.7-18.3.7-7.6-3.7-19.6-12.8-22.8.6 4.8-4.4 7.3-7.1 11z" fill="#585268"/><path d="M641 179.6c-5.3 7.3.1 17.6-5.6 24.7-1.9 2.4-4.8 4-6.8 6.3-3.6 4.3-3.5 10-1.7 15s5 9.6 7.3 14.5c1 2.1 1.7 4.5.7 6.6-.7 1.4-2.1 2.6-3.2 3.8-3.7 4.1-3.8 9.8-1.8 14.7s5.7 9 9.4 13c1.5 1.7 3.4 3.5 5.8 3.4a8 8 0 0 0 3.7-1.2 37 37 0 0 0 16.8-48.3c-3.1-7.4-8.3-14.5-8.3-22.4 0-6.2 3.2-12.1 3.7-18.3.7-7.6-3.7-19.6-12.8-22.8.6 4.8-4.4 7.3-7.1 11zM700.3 444.4c-10.7.6-20.8 5.2-30.1 10.4s-18.4 11-28.5 14.8M693.6 469.6a44 44 0 0 0-27.7 13.5c-2.6 2.8-4.8 5.8-7.5 8.5a33.5 33.5 0 0 1-15 8.4M695.8 488.8a48.5 48.5 0 0 0-22.3 13.4l-4.8 5.5c-8.8 9.5-21.3 14.5-33.4 19.3" opacity=".1"/><path d="M695 223a219.5 219.5 0 0 0 2.1 25.4c1 6 2.4 11.4 4.4 13.8 6 7-28.6 16.4-28.6 16.4l-20.4-15.8s16.2-14.9 8.6-29.4 33.8-10.5 33.8-10.5z" fill="#cc818c"/><path d="M627.6 378.7h81.6l-3.8-10.7-77.1 4.4z" opacity=".1"/><path d="M622.4 377.2h87.2c-2.5-8.8 0-16.9 3.5-23.1a51.1 51.1 0 0 1 9-11.8l.7-.6 30.4-6.7 1.7-.4s.2-55.4-19.4-63-31.3-17.8-31.3-17.8l-27 8.3-19.8-10c-6.4 6.9-23.3 4.2-23.3 4.2-27.6 3.1-27.6 24-27.6 24s16.1 37.7 17.4 37.7-1.5 59.2-1.5 59.2z" fill="#007bff"/><path d="M652.5 342s-17.8-4-23.8-10.8M742.1 321.4l-20.6 16.9a35.1 35.1 0 0 0 .7 4l.6-.6 30.4-6.7zM686.3 371.3s4.5 2.6 11.4 6h11.9c-2.5-8.9 0-17 3.5-23.2l-21-6.8c7.2 6.6-5.8 24-5.8 24z" opacity=".1"/><path d="M618.7 273.6l-12.2 6.6-12 30.4s-12.5 33.3-11.3 42.1c0 0-4.4 20.8 3.4 24.5l20.4 9.3a1.9 1.9 0 0 0 2.5-2.7c-3-5.5-6.1-14.1-1-18.8l-6-12.3 21.3-34.8 7.1-12z" fill="#007bff"/><path d="M646 335c1 4.4 4.6 11 16.4 13.6l13 10.6 13.9 6.3 5.6 2.5 2.4-17.2-5.4-3-6.4-3.5s-14.3-25.9-36.9-15a5 5 0 0 0-2.7 5.8z" opacity=".1"/><path d="M646.7 333.6c1 4.3 4.6 11 16.5 13.5l13 10.6L690 364l5.6 2.6 2.4-17.3-5.4-3-6.3-3.4s-14.3-26-36.9-15a5 5 0 0 0-2.7 5.7z" fill="#cc818c"/><circle cx="672.1" cy="213.7" r="31.6" opacity=".1"/><circle cx="672.1" cy="213" r="31.6" fill="#cc818c"/><path d="M691.7 280.5l-9.5-18.5s14-5.6 15-12 13.2 7.5 10.6 12.2-16 18.3-16 18.3z" opacity=".1"/><path d="M691.7 279l-9.5-18.4s14-5.6 15-12.2 13.2 7.7 10.6 12.4-16 18.2-16 18.2z" fill="#007bff"/><path d="M614 326.7l52.5 70.6s-19.4 10.5-46-8.3L609 375.3l-33-55.4z" fill="#f6f8fb"/><path d="M603.6 365h4.8s29.2-28.4 36.4-14-18.2 27.7-18.2 27.7l-7.7 4.2-10 3-6.5-8.7z" fill="#cc818c"/><path d="M610.7 380.4c.4 1.6.9 3.4.1 5a2 2 0 0 1-.9.9 2.2 2.2 0 0 1-1 .1 10 10 0 0 1-6.5-3.2 30.1 30.1 0 0 1-4.3-6.2c-1.3-2.3-2.7-4.8-2.2-7.4.5-2.8 3-4.7 5.4-6.3 4.9-3.2 5 .5 6 4.6l3.4 12.5z" opacity=".1"/><path d="M610 380.4c.4 1.6.8 3.4 0 5a2 2 0 0 1-.8.9 2.3 2.3 0 0 1-1 .1 10 10 0 0 1-6.6-3.2 29.8 29.8 0 0 1-4.3-6.2c-1.3-2.3-2.6-4.8-2.1-7.4.5-2.8 3-4.7 5.4-6.3 4.8-3.2 5 .5 6 4.6l3.4 12.5z" fill="#007bff"/><path opacity=".1" d="M623.9 318l2.4-4.2-2.1 7.7-.4-3.6zM690 364l5.7 2.6 2.4-17.3-5.5-3c3.8 4.3.5 12.2-2.6 17.7zM712.6 344s-18.2 1-25.9-3.9"/><g opacity=".1"><path d="M710.4 355.6a51.2 51.2 0 0 1 9.1-11.9 24.4 24.4 0 0 1 2.7-1.5l28.3-5.8 1.7-.3s.2-55.4-19.4-63a117.7 117.7 0 0 1-30.5-17.2l2.1-.7s11.8 10.3 31.4 18S755 336 755 336h-3l-29 5.5-1.6 1.6a56.2 56.2 0 0 0-9.2 12.2 30.7 30.7 0 0 0-2.5 23.3h-3c-2.4-8.8.1-16.9 3.6-23.1zM633 257.9l1.4-.2a50.7 50.7 0 0 0 6 .5 54.5 54.5 0 0 1-7.4-.3zM674.5 263.6l-17.9-9.1a9.5 9.5 0 0 0 1-1l18.7 9.5z"/></g><path d="M742.8 319.9l12 14.7 2.5 39.9s3.2 20.3-20 15.4-50.3-20-50.3-20 13-17.4 6-24l33.2 10.7s5.6-1.2 1.2-6-5.1-13.8-5.1-13.8z" fill="#007bff"/><path d="M748.3 362l6.6 7.6a9.5 9.5 0 0 1-6.6-7.6zM737 360.8l10.3 13.2-5.2 1.3-5.1-14.5zM634.4 198.5c-1.1-2.8-.2-6 1.1-8.6s3.3-5 4.3-7.9c1.5-4.2 1-9 2.7-13 2.9-7.3 11.2-10.5 18.6-13 2.2-.7 4.5-1.5 6.7-1 3 .8 5 3.5 7.4 5.3 10 7.5 26.4-.7 36.2 7.2 3.7 3 5.5 8 6 12.7s0 9.6 0 14.4c-.2 8.4 1.4 17.7 7.7 23.2 2 1.7 4.2 3 6 4.7s3.3 4.2 3 6.7a23.2 23.2 0 0 1-1 3.4c-1.2 4.4.6 9 3 13 6.7 11.8 18.7 21.5 32.3 21.7-1 6.9-8 10.9-14.3 13.7-8 3.6-16.6 7.1-25.4 6.7s-18-6.1-19.5-14.8c-.5-3-.5-6.6-3-8.2-1.6-1-3.6-.7-5.3-1.4-2.4-1-3.6-3.7-4.4-6.2a56.2 56.2 0 0 1-2.6-16c-.1-6.5.7-13.5-3-18.8-3.3-5-9.3-7.4-13.2-12-3.6-4.1-7.5-9.2-13.4-10-8.2-1-25 10-29.9-1.8z" opacity=".1"/><path d="M634.4 197c-1.1-2.7-.2-6 1.1-8.6s3.3-5 4.3-7.9c1.5-4.2 1-8.9 2.7-13 2.9-7.2 11.2-10.5 18.6-13 2.2-.7 4.5-1.4 6.7-.9 3 .7 5 3.4 7.4 5.3 10 7.5 26.4-.8 36.2 7.1 3.7 3 5.5 8 6 12.7s0 9.6 0 14.4c-.2 8.5 1.4 17.7 7.7 23.3 2 1.6 4.2 2.9 6 4.6s3.3 4.2 3 6.7a23.2 23.2 0 0 1-1 3.4c-1.2 4.4.6 9 3 13 6.7 11.8 18.7 21.5 32.3 21.8-1 6.8-8 10.8-14.4 13.6-8 3.6-16.5 7.1-25.3 6.7s-18-6.1-19.6-14.8c-.5-3-.4-6.6-3-8.2-1.5-1-3.5-.7-5.2-1.4-2.4-1-3.6-3.7-4.4-6.2a56.1 56.1 0 0 1-2.6-16c-.2-6.5.7-13.5-3-18.8-3.3-5-9.3-7.4-13.2-12-3.6-4-7.5-9.1-13.4-10-8.2-1-25 10-29.9-1.8z" fill="#585268"/><path d="M656.8 278.2l18.2-14.7s-12.4-6.7-14-12.4-11.3 2.7-10.3 7.8 6.1 19.3 6.1 19.3z" opacity=".1"/><path d="M657.6 276l18-14.7s-12.3-6.7-13.8-12.4-11.4 2.7-10.3 7.8 6 19.3 6 19.3z" fill="#007bff"/><circle cx="676.4" cy="273.6" r="1.4" opacity=".1"/><circle cx="676.4" cy="281.6" r="1.4" opacity=".1"/><circle cx="676.4" cy="289.6" r="1.4" opacity=".1"/><g opacity=".1"><path d="M641.7 176.6c1.5-4 1.1-8.3 2.5-12.3a13.4 13.4 0 0 0-1.5 2.8c-1.7 4.2-1.2 8.9-2.7 13l-.1.3a22.9 22.9 0 0 0 1.8-3.8zM756 275.6c-8 3.6-16.5 7.1-25.3 6.7s-18-6.1-19.6-14.8c-.5-3-.5-6.6-3-8.2-1.6-1-3.6-.7-5.3-1.4-2.4-1-3.6-3.7-4.4-6.2a56.1 56.1 0 0 1-2.6-16c-.1-6.5.8-13.5-2.9-18.8-3.4-5-9.4-7.4-13.3-12-3.6-4.1-7.5-9.2-13.4-10-8-1-25 10-29.8-1.8a9.3 9.3 0 0 1 .3-6.8 35 35 0 0 0-1 1.8c-1.3 2.7-2.2 5.8-1 8.6 4.8 11.8 21.6.7 29.7 1.8 6 .8 9.8 5.9 13.4 10 4 4.6 10 7 13.3 12 3.7 5.3 2.8 12.3 3 18.7a56.1 56.1 0 0 0 2.5 16c.8 2.5 2 5.2 4.5 6.3 1.6.7 3.7.4 5.2 1.4 2.6 1.5 2.5 5.2 3 8.2 1.6 8.6 10.8 14.3 19.6 14.7s17.2-3 25.3-6.6c5.8-2.6 12.3-6.2 14-12a30.3 30.3 0 0 1-12.2 8.4z"/></g><path d="M963.9 352.2a235.3 235.3 0 0 0-29.2-15.2l-.5-.3a17.6 17.6 0 0 1-5.3-6.7 14 14 0 0 1 0-1.5.6.6 0 0 0 0 .1c.3-6.4 5-12.3 9.3-17.4l11-13a12.9 12.9 0 0 0 3-4.6 10.5 10.5 0 0 0 .3-2.8v-1.2l-.3-9.7c-.1-2.9-.8-6.4-3.7-7-1.5-.3-3.4.2-4.2-1a2.4 2.4 0 0 1-.2-1.7.6.6 0 0 0 0 .1v-.1a37.7 37.7 0 0 0 1-6.7 9.1 9.1 0 0 0-.4-3.4c-1.6-4.7-7.3-6.7-12.3-7.6s-10.7-1.6-13.8-5.5a40.7 40.7 0 0 0-2.7-3.8 10.8 10.8 0 0 0-5.2-2.5 29 29 0 0 0-18.6 1.6c-2.4 1-4.8 2.5-7.5 2.4s-5.1-2.1-7.8-2.6c-4.4-.7-8.6 2.5-10.8 6.3a15.4 15.4 0 0 0-2 7.5v.4a10.9 10.9 0 0 0 2.8 7.6c2 2 4.8 3.4 5.6 6 .3 1 .2 2.1.5 3.2a3 3 0 0 0 .1.4l-.1.2a33 33 0 0 0-7 20.3 33.8 33.8 0 0 0 23.7 32v1c0 4-1.2 8.2-4.6 11.2l-30 12s-18-2.1-24.6 24.3a45 45 0 0 0-1.1 13.4c.2 4-.3 11-5 20-7.4 14.6-5.7 47.9 9.4 51.2 14.3 3.1 20 1.8 20.5 1.7v.5c-.2 6.3-2.5 60.2-10.7 66.8-2.3 1.8-1.9 3 0 3.8v1c-.3 4-1.6 19-7 27.5-6.5 10-5.8 67-5.8 67l-4.4 33.7s2.7 20.8 0 24.4c-2.4 3.2-5.6 80.1-6.3 96.8h-.3a8.1 8.1 0 0 0-6.4 4c-3.6 5.8-16 16.4-16 16.4-2.7 3.8-12.6 7.5-17.9 9.2a11.1 11.1 0 0 0-2 .9 10.7 10.7 0 0 0-4.5 4.8 5.1 5.1 0 0 0-.5 4c1.4 3.2 29.3 5.6 36.4 2.2a242 242 0 0 1 36.8-7.3 7.5 7.5 0 0 0 6.5-6.5 4.3 4.3 0 0 0-.8-3.3c-1.8-2.2-2.7-8.1-3-12a8.1 8.1 0 0 0 2-1.2 87.8 87.8 0 0 1 5-35.3c6.8-17.9 8.8-50.9 7.1-72.3 0 0 20.6-88.4 36.7-96.7.3.3 8.1 10.4 9.1 41.6 1 31.7 12.5 52.5 12.5 52.5s-5 53.7 0 73.9l-6.6 31.7-.8-.7.5 2.3-.2.7h.3c.8 4 1.9 11 1.4 15-.3 2.3-1 5.5-1.3 8.6-.7 5-1 9.6 1.6 10.7 4.2 1.7 29 4 33.2-1.5a7.8 7.8 0 0 0 1.3-8.1 8.3 8.3 0 0 0-1.3-2s-6.5-10.8-4.7-18.4a5.6 5.6 0 0 0-.8-4.4c.3-3.7 1.8-20.9 5.7-35.5 4.2-15.9 13.1-50.7 6.6-73.6l-.9-2.7a98.8 98.8 0 0 1-3.7-38.6 78.7 78.7 0 0 1 0-33.6c4-18.5 6.9-36.7 6.9-36.7s2.2-24.4.3-39.3l-.2-1 1.1-.3s-5.7-25.4-7.8-41.6l-1.7-13.8a35.3 35.3 0 0 0 5.5-1.3c18.1-6.3 23.9-63 23.9-63v-18s6.1-27.7-15.1-40zM828.3 790.4a19 19 0 0 1-.9-.5z" transform="translate(-31.2 -20.1)" fill="url(#c)"/><path d="M921.7 659.6c8 22.7-1.3 59.5-5.6 76s-5.6 36.2-5.6 36.2c-16.7 2.6-28.9-.7-28.9-.7l7-33.9c-5-20 0-73.7 0-73.7s-11.3-20.7-12.3-52.2c-1-31.1-8.6-41.2-8.8-41.5-15.8 8.3-35.9 96.4-35.9 96.4 1.7 21.4-.3 54.3-6.9 72a89 89 0 0 0-5 35.2c-2.2 2-5.4 2.3-9 1.7-9.3-1.5-20.6-9.6-20.6-9.6s3.6-96 6.3-99.7 0-24.3 0-24.3l4.3-33.5s-.7-57 5.5-66.8a67.8 67.8 0 0 0 7-27.4v-1l9.4-11.4s92.1-7 99 0c1.7 1.7 2.8 5.5 3.4 10.4 2 14.9-.3 39.2-.3 39.2s-2.7 18.1-6.7 36.5a80.1 80.1 0 0 0 0 33.6 100.4 100.4 0 0 0 3.7 38.5z" fill="#65617d"/><path d="M916 803.8c-4.1 5.4-28.3 3.1-32.4 1.4-2.5-1-2.3-5.8-1.7-10.6l1.4-8.6c.6-5.9-2-18-2-18s5.4 5.9 6.7 0c.6-2.4 2.6-3.7 4.7-4.4a12.3 12.3 0 0 1 8.5.6c4.3 1.8 11.4 5.8 10.1 11.1-1.8 7.6 4.6 18.3 4.6 18.3a8.3 8.3 0 0 1 1.2 2 7.9 7.9 0 0 1-1.1 8.2z" fill="#a27772"/><path d="M916 803.8c-4.1 5.4-28.3 3.1-32.4 1.4-2.5-1-2.3-5.8-1.7-10.6 2.6 1.2 7 2.2 14.4 1.5a40.5 40.5 0 0 1 5.2-.1 120.2 120.2 0 0 0 15.7-.4 7.9 7.9 0 0 1-1.2 8.2zM831.6 666.1c1.7 21.4-.3 54.3-6.9 72a89 89 0 0 0-5 35.2c-2.2 2-5.4 2.3-9 1.7 2-13.8 10.5-73.6 16-120.8 6.1-53.8 35-90.8 35-90.8l5.7 6.4c-15.7 8.2-35.8 96.4-35.8 96.4z" opacity=".1"/><path d="M906.1 320.5l-4 19.7-19.7 33-24.2-10.3s-33-34.5-12.3-39.4a18.4 18.4 0 0 0 7-3c4-3.2 5.3-7.6 5.3-12a36.5 36.5 0 0 0-3.4-14.1l42.5-13.3a68 68 0 0 0-3 17.1c-.4 11.6 4 17.3 7.5 20a12.7 12.7 0 0 0 4.3 2.3z" fill="#fbbebe"/><path d="M897.2 281a68 68 0 0 0-3 17.2 32.3 32.3 0 0 1-2.5 2.7 33.6 33.6 0 0 1-33.5 7.6 36.5 36.5 0 0 0-3.4-14.1z" opacity=".1"/><path d="M902 275.6a33.5 33.5 0 1 1-33.5-33.5 33.4 33.4 0 0 1 33.6 33.5z" fill="#fbbebe"/><path d="M906.1 320.5l-4 19.7-19.7 33-24.2-10.3s-33-34.5-12.3-39.4a18.4 18.4 0 0 0 7-3c-3.8 10.2 11.6 31.6 11.6 31.6 1.8 2.6 6 1 6 1 9.9-1.5 28.2-30.1 31.2-34.9a12.7 12.7 0 0 0 4.4 2.3zM925 511.8c-5.7 1.3-38 8.5-50.3 6.7-13.5-2-39.7-3.3-39.7-3.3s-16.7.9-21.8-1.4v-1l9.5-11.4s92-7 99 0c1.7 1.7 2.8 5.5 3.4 10.4z" opacity=".1"/><path d="M864.5 353s-17.4-24-10.8-33.3l-29.3 12s-17.7-2.2-24 24.2a45.8 45.8 0 0 0-1.1 13.3c.2 4-.3 11-4.8 20-7.3 14.5-5.6 47.7 9.2 51s20 1.7 20 1.7-2 60.1-10.5 67 21.8 5.3 21.8 5.3 26.2 1.3 39.7 3.3 51.3-7 51.3-7-5.6-25.2-7.6-41.3-6.6-50.5-6.6-50.5l33.6-45.4s5.9-27.5-14.8-39.6-28.5-15.2-28.5-15.2-20.8 34-31.7 35.5c0 0-4.1 1.7-5.9-1z" fill="#007bff"/><path d="M826 362.6s-.3 10.9 1.7 15.1 9.2 28 9.2 28h-16.5s9-9.5 8.3-14.1-2.7-29-2.7-29z" opacity=".1"/><path d="M874.7 444.5s-36.3-8.9-39.7-16.4-12.7-24.5-12.7-24.5l3.8-5.2 17.7 13.9s21 16.7 30.9 18.4 0 13.8 0 13.8z" fill="#fbbebe"/><path d="M874.7 444.5s-36.3-8.9-39.7-16.4-12.7-24.5-12.7-24.5l3.8-5.2 17.7 13.9s21 16.7 30.9 18.4 0 13.8 0 13.8z" opacity=".1"/><path d="M906.1 401.7v19.7h-3.2a92 92 0 0 0-44.7 11.6l-6 3.3-1.5.9-10.2-23 9.5-8.6h.5a57 57 0 0 0 16.7-.3c4-1.4 9.1-5.8 21-2.7 6 1.5 11 8 16.7 6z" fill="#fbbebe"/><path d="M937.8 365.9l6.6 7.4v17.9s-5.6 56.6-23.3 62.8-49.5-3.6-49.5-3.6-8.2-21.7-4.4-23 33.9-9.3 33.9-9.3-.4-33.1 6.2-43c0 0-4.3-31 10.5-31.6s20 22.4 20 22.4z" opacity=".1"/><path d="M938.8 365.9l6.6 7.4v17.9s-5.6 56.6-23.3 62.8-49.5-3.6-49.5-3.6-8.2-21.7-4.3-23S902 418 902 418s-.4-33.1 6.2-43c0 0-4.3-31 10.5-31.6s20 22.4 20 22.4z" fill="#007bff"/><path d="M892.9 289.9a13.2 13.2 0 0 0-.8-6.4c-.9-2-3-3.6-5.2-3-2.8.6-4 4.3-6.8 5.1-2.3.8-4.8-.9-6-3s-1.1-4.8-1.1-7.2v-8.2c0-3-.1-6.3-2-8.6-2.2-3-7.6-4.2-11.2-4a9.6 9.6 0 0 0-6.5 2.5c-1.9 1.6-4.1 2.8-6.7 2.4a5.8 5.8 0 0 1-4.8-4v-.2a33.5 33.5 0 1 1 50 44.6 90.4 90.4 0 0 0 1-10z" opacity=".1"/><path d="M846.6 258.6a5.9 5.9 0 0 1-4.8-4.1c-.2-1.1-.2-2.2-.5-3.3-.7-2.6-3.5-4-5.3-5.9-3.7-4-3.5-10.4-.9-15.1 2.1-3.8 6.2-7 10.5-6.3 2.7.5 5 2.4 7.7 2.6s5-1.3 7.3-2.4a27.6 27.6 0 0 1 18.2-1.6 10.5 10.5 0 0 1 5 2.5 43.8 43.8 0 0 1 2.7 3.7c3 4 8.6 4.7 13.4 5.6s10.5 2.8 12 7.5c1.1 3.1 0 6.5-.5 9.7a3 3 0 0 0 .1 2c.8 1.3 2.7.8 4.1 1 2.8.6 3.5 4.2 3.6 7l.3 9.8a12.4 12.4 0 0 1-.3 3.6 12.7 12.7 0 0 1-2.8 4.5l-10.9 13c-4.8 5.8-9.9 12.6-9 20-2.2 1-5-.9-5.7-3.3s-.2-5 .4-7.4a90.8 90.8 0 0 0 1.7-12.8 13.2 13.2 0 0 0-.8-6.4c-.9-2-3-3.5-5.2-3-2.8.6-4 4.3-6.8 5.2-2.3.7-4.8-1-6-3.1s-1.1-4.7-1.1-7.2v-8.2c0-3-.1-6.2-2-8.6-2.2-3-7.6-4.2-11.2-4a9.6 9.6 0 0 0-6.4 2.5c-2 1.7-4.2 2.9-6.8 2.4z" fill="#7c5c5c"/><path d="M854.1 361.8l10.3 42.3s8.2 0-10.3-42.3zM889.3 354.7s-13.4 22-8.2 45l2.5.1s-4.5-10.6 5.7-45zM897.8 479.7s16.6-5.5 17.8 7.2c0 0-3-8.7-17.8-7.2zM850 406.7s-3.3 23 2.7 32.2c0 0-12 5-29 4l-2-36.2z" opacity=".1"/><path d="M852.3 436.3l-1.6.9-10.2-23 9.5-8.6h.5c-.1 1.2-2.8 21 1.8 30.7z" opacity=".1"/><path d="M850 405.7s-3.3 23 2.7 32.2c0 0-12 5-29 4l-11.5-36.2z" fill="#007bff"/><path d="M821.6 789.8a7.5 7.5 0 0 1-6.4 6.5c-9 1.3-30.4 4.7-35.9 7.3-6.9 3.3-34.2 1-35.5-2.3a5.2 5.2 0 0 1 .5-4 10.5 10.5 0 0 1 4.4-4.7 11.7 11.7 0 0 1 2-1c5.1-1.6 14.8-5.3 17.5-9 0 0 12-10.7 15.5-16.4a7.9 7.9 0 0 1 6.3-4c3 0 6.1 1.4 7.5 7.7 0 0 15.7 9 20 1.1 0 0 .6 12.1 3.2 15.5a4.4 4.4 0 0 1 .9 3.3z" fill="#a27772"/><path d="M821.6 789.8a7.5 7.5 0 0 1-6.4 6.5c-9 1.3-30.4 4.7-35.9 7.3-6.9 3.3-34.2 1-35.5-2.3a5.2 5.2 0 0 1 .5-4 10.5 10.5 0 0 1 4.4-4.7c4.4 3 14.3 5.8 36 2.4 20.8-3.2 31-6.4 36-8.5a4.4 4.4 0 0 1 .9 3.3z" opacity=".1"/><g opacity=".1"><path d="M911.3 252v-.2c.5-2.4 1.2-5 1-7.4a49.3 49.3 0 0 1-1 6 3.6 3.6 0 0 0 0 1.6zM892.1 282.8a9.5 9.5 0 0 1 .8 3.8 11.3 11.3 0 0 0-.8-5.3c-.9-2-3-3.5-5.2-3-2.8.7-4 4.3-6.8 5.2-2.3.7-4.8-.9-6-3s-1.1-4.8-1.1-7.2V265c0-3-.1-6.2-2-8.5-2.3-3-7.6-4.2-11.2-4.1a9.6 9.6 0 0 0-6.5 2.6c-1.9 1.6-4.1 2.8-6.8 2.4a5.9 5.9 0 0 1-4.7-4.1c-.2-1-.2-2.2-.5-3.3-.8-2.5-3.5-3.9-5.4-5.8a10.8 10.8 0 0 1-2.7-7 11.2 11.2 0 0 0 2.7 8.4c1.9 2 4.6 3.3 5.4 5.9.3 1 .3 2.2.5 3.2a5.9 5.9 0 0 0 4.7 4.1c2.7.4 4.9-.8 6.8-2.4a9.6 9.6 0 0 1 6.5-2.6c3.6-.1 9 1.2 11.3 4 1.8 2.4 1.9 5.7 1.9 8.7v8.2c0 2.4 0 5 1.1 7.2s3.7 3.8 6 3c2.8-.8 4-4.5 6.8-5.2 2.1-.4 4.3 1.2 5.2 3zM919.2 273.7a12.6 12.6 0 0 1-2.8 4.6l-10.9 13c-4.6 5.5-9.4 11.9-9 18.9.3-6.5 4.8-12.3 9-17.4l10.9-13a12.6 12.6 0 0 0 2.8-4.6 12.5 12.5 0 0 0 .3-3.6 9.5 9.5 0 0 1-.3 2.1zM890.8 308a7.7 7.7 0 0 1-.3-1.8 8.9 8.9 0 0 0 .3 3.3c.8 2.3 3.5 4.3 5.8 3.3a14 14 0 0 1-.1-1.5c-2.3 1-5-1-5.7-3.3z"/></g><path d="M781.5 769.2s3.5 6 16 .7M886.8 770.7s10.8 12.6 24.3 4.1M918.1 621s-7.6 4.8-7.8 7.5 3.9-2 3.9-2zM921.1 657.5a15.9 15.9 0 0 1-9.3 3.6c-5.7.3-5.2 7.7-1.5 5.4s10.8-9 10.8-9zM922.5 662.2s-3.6 17.9-6.6 14.4" opacity=".1"/><path d="M250.5 816.4s22.8 6.3 33.8-2 15.8-5.7 15.8-5.7 26.2-1.5 28.4-7.7-10-28.7-10-28.7c-1-2-2.2-4.5-2.8-4.5l.1-9.5 3.8-39.8c8.8-22.5.2-51.5.2-51.5l-1.6-7.2a18.2 18.2 0 0 1 1.5-12l16-32a47.9 47.9 0 0 1 3-6.2 156.3 156.3 0 0 1 12.6-19.5c7-9.8 10.8-22 12.7-31l.8 2.8h.8l.5.1h.1l4.9 62.4a74.3 74.3 0 0 0 9.2 37.8l-1.2 53.6c1.7 13-2 30.2-3.7 37l-3.8 8.8a10.5 10.5 0 0 0-5.7 8 97.8 97.8 0 0 1-7.6 20.2c-2.6 3.3-8.3 12.3-8.3 12.3s-2.7 8.7-1 11.9 15.5 3 15.5 3c15.9 3.4 28-5 27.3-11s2.4-7.3 2.4-7.3c6.3-2 5.7-6.3 5.7-6.3a39.2 39.2 0 0 0-4.7-25.5l-1 2.3a35.2 35.2 0 0 1 1.9-13.6l-.6.4h-.2c1-8.7 10.2-25 10.2-25 16.9-29.6 10.7-69.8 10.7-69.8l-2.6-12.6-.1-4.7a157.9 157.9 0 0 1 2.5-33.7c1-5 1.9-10.9 2.6-17.4 1.5-13.8 6.4-28.1 8.6-34.2H428l2.8-.6h.2s.5-3 1-7.9c.2-3.1.5-7.2.5-11.8a132.9 132.9 0 0 0-6.3-41.1l.5-.7 3.4-4.5c4-5.2 10.4-13 18.2-21.8 13.9-16 9.8-32 9.8-32s-10.1-37-14.6-59.3a67.4 67.4 0 0 0-11-26.3 52.4 52.4 0 0 0 1.3-10.7c.3-6.6 0-13.4-2.9-19.4s-9.2-10.5-15.8-9.8a6 6 0 0 1-2.8 0 4.3 4.3 0 0 1-2-1.6c-3.8-5.3-4-12.4-2.8-18.9s3.6-12.6 4.7-19 .6-13.7-3.5-18.8c-4.8-6-13.2-7.7-19.5-12.2-4.4-3.2-7.7-7.7-12.4-10.5s-9-1.8-14-.7c-8.5 1.8-16.6 2.6-24.6 6.3a65.5 65.5 0 0 0-21.4 15.6 20.3 20.3 0 0 0-4.8 7.5c-2 6.6 1.9 13.7 1 20.5-.5 4.8-3.4 9-5.6 13.4s-4 9.5-2.3 14c2.8 7 12 8.6 18.6 12.3a5.7 5.7 0 0 1 2.2 2c1.7 2.8-1.7 5.8-3.8 8.3a12.6 12.6 0 0 0-2.5 5.1 18.1 18.1 0 0 0-10.9 13.1 61.3 61.3 0 0 0 4.3 31.2c-3.3 18.7 1 26 4.2 29a16 16 0 0 1 5.5 10.9v.3c.2 3.4.6 6.8 1 10.2l-.2-2a118 118 0 0 0-10.4 38 114 114 0 0 1-2.5 13.1 72.2 72.2 0 0 0-2.1 23.6l.5 6.8a2.1 2.1 0 0 1-1.4-.5l3.5 6.5V527a40 40 0 0 1-2.6 14.3l-.8 2a11.6 11.6 0 0 0-1.2 5.9c-7.6 11.6-24.9 76.4-24.9 76.4-9.4 21.3.8 35 .8 35s4.9 59.2 5.8 62.3 3 39.1 3 39.1v2.9a6.7 6.7 0 0 0-1.7-.5c-8.3-.5-10.5 12.5-10.5 12.5L262.2 793s-7.7-1.3-19 7.2 7.3 16.2 7.3 16.2zm168.1-342v-.2l-.5.2-.2.1-7.8-27.3a45.5 45.5 0 0 1-.6-22.5l6-26.3V392l19 50.8c1.3 6.8-10 23.4-15.9 31.4z" transform="translate(-31.2 -20.1)" fill="url(#d)"/><path d="M395.8 536.9s-7.7 18.7-9.6 36.7c-.7 6.4-1.7 12.3-2.6 17.2a157.2 157.2 0 0 0-2.4 33.2l.1 4.7 2.5 12.4s6 39.7-10.5 69c0 0-9.9 17.5-10.2 25.8l-6.6 2.6-13.4-3.8s6.4-23.3 4.3-39.6l1.3-53s-8.8-13.2-9-37.2l-5.2-65.9zM334.5 527.5s-1.7 25.7-14.4 43.4-15.4 25.3-15.4 25.3L289.1 628a18.1 18.1 0 0 0-1.5 11.8l1.6 7.1s8.4 28.7-.2 51l-4 42.8h-24s-2-35.6-2.8-38.7-5.7-61.4-5.7-61.4-10-13.6-.8-34.6c0 0 20.9-78.6 26.4-77.2s56.4-1.2 56.4-1.2z" fill="#fdc2cc"/><path d="M286.8 646.9l-1.6-7.2a18 18 0 0 1 1.5-11.8l15.6-31.7s2.7-7.7 15.4-25.4a95.8 95.8 0 0 0 14.4-43.2l2.4-.1s-1.7 25.7-14.4 43.4-15.4 25.3-15.4 25.3L289.1 628a18.1 18.1 0 0 0-1.5 11.8l1.6 7.1s8.4 28.7-.2 51l-4 42.8h-2.5l4.1-42.9c8.6-22.2.1-50.8.1-50.8zM360.8 736c.3-8.4 10-25.9 10-25.9 16.7-29.3 10.7-69 10.7-69l-2.6-12.4-.1-4.7a157.2 157.2 0 0 1 2.4-33.2c.9-4.9 1.8-10.7 2.5-17.2 2-17.3 9.1-35.3 9.7-36.6l2.4-.1s-7.7 18.7-9.6 36.7c-.7 6.4-1.7 12.3-2.6 17.2a157.2 157.2 0 0 0-2.4 33.2l.1 4.7 2.5 12.4s6 39.7-10.5 69c0 0-9.9 17.5-10.2 25.8l-6.6 2.6-1.4-.4z" opacity=".1"/><path d="M353 735.6a11.6 11.6 0 0 0 11-1.3 35.5 35.5 0 0 0-.8 20c2.7 10.8-25.4-8.8-25.4-8.8l6-13.8s2.3 4.4 9.3 4z" fill="#d39999"/><path d="M355.2 736.2a11.2 11.2 0 0 0 8.9-2 35.5 35.5 0 0 0-1 20c2.8 10.9-25.3-8.8-25.3-8.8l6-13.7s1.7 3.3 6.9 3.9l4.5.6z" opacity=".1"/><path fill="#fdc2cc" d="M289.3 481.5h11.8v-66.6l-8.9-1.6-2.9 68.2z"/><path opacity=".1" d="M289.3 481.5h11.8v-66.6l-8.9-1.6-2.9 68.2z"/><path d="M346.4 740.8s7.4-.5 10.7 6.2l4.1 3.1 2-4.7a39 39 0 0 1 4.6 25.3s.6 4.2-5.6 6.2c0 0-3.1 1.5-2.4 7.2s-11.1 14.2-26.7 10.7c0 0-13.6.4-15.3-2.8s1.1-11.7 1.1-11.7 5.6-8.8 8.2-12c0 0 6.6-13.8 7.4-20s8-11 12-7.5z" fill="#7e5659"/><path d="M285.2 746.4V737s-13.4 3.9-24.4-.5c0 0 1 9.4-.6 10.7s5.1 13.4 5.1 13.4l7.3 7.7 12.7-4.6 3.4-10.8s-2.6-6.5-3.5-6.5z" fill="#d39999"/><path d="M285.2 746.4V737s-13.4 3.9-24.4-.5c0 0 1 9.4-.6 10.7s5.1 13.4 5.1 13.4l7.3 7.7 12.7-4.6 3.4-10.8s-2.6-6.5-3.5-6.5z" opacity=".1"/><path d="M259.4 743s7.2.8 6.3 10 .4 0 .4 0 7.6 3 10.3 7.4 7.6-3.9 8-6.2 3.4-3.3 3.4-3.3 12 22.2 10 28.3-28 7.6-28 7.6-4.7-2.7-15.5 5.6-33.2 2-33.2 2-18.3-7.7-7.2-16 18.7-7.1 18.7-7.1l16.5-16s2.2-12.8 10.3-12.3z" fill="#7e5659"/><path d="M345.2 217c4.5 2.7 7.8 7.2 12.1 10.3 6.2 4.5 14.4 6.2 19.2 12.1 4 5 4.5 12.1 3.4 18.5s-3.5 12.5-4.7 18.8-.9 13.5 2.9 18.7a4.2 4.2 0 0 0 1.8 1.6 6 6 0 0 0 2.8 0c6.5-.8 12.7 3.8 15.6 9.7s3.1 12.6 2.8 19c-.2 5.4-.8 10.9-3.2 15.7-4 8.1-12.3 13.2-20.5 17A159 159 0 0 1 361 365a24.7 24.7 0 0 1-11.9 1.8c-6.8-1.2-11.7-7.4-18.1-9.8-5.3-2-11.2-1.3-16.9-.8-4.8.4-10.3.4-13.6-3-4.3-4.6-2.4-11.9-.2-17.7a12.6 12.6 0 0 1-8.9-20.5c2-2.5 5.4-5.5 3.8-8.3a5.5 5.5 0 0 0-2.2-1.9c-6.5-3.7-15.5-5.2-18.2-12.2-1.8-4.5 0-9.5 2.2-13.8s5-8.5 5.6-13.2c.8-6.8-3-13.8-1.1-20.3a20.3 20.3 0 0 1 4.7-7.4 64.4 64.4 0 0 1 21-15.4c7.9-3.6 15.8-4.4 24.1-6.2 5-1 9.2-2.2 13.9.7z" fill="#865a61"/><path d="M301 317.6s-19-1-22.7 15.3 7.8 39.7 7.8 39.7z" fill="#fdc2cc"/><path d="M301 317.6s-19-1-22.7 15.3 7.8 39.7 7.8 39.7z" opacity=".1"/><path d="M288.8 366.2l7.3 5.7 33.8 1.5L351 359l21.5-36.8a26.6 26.6 0 0 1-20.4-21 45.8 45.8 0 0 1-.4-17.4s-34.5-17.8-30.2 10a37.8 37.8 0 0 1 .3 10.3c-2 16.3-17.8 13.3-17.8 13.3l-6.1 9.3-7 23z" fill="#fdc2cc"/><path d="M321.5 293.7a37.8 37.8 0 0 1 .3 10.3 30.5 30.5 0 0 0 30.3-2.8 45.8 45.8 0 0 1-.4-17.5s-34.4-17.8-30.2 10z" opacity=".1"/><circle cx="334.5" cy="275" r="30.5" fill="#fdc2cc"/><path d="M313 360.3l2.1.2c4 .4 20.7 1.3 30.3-10 10.6-12.8 24.8-28.5 25.4-29.1l14.4 4.3s-11.4-4-19 17.2a22 22 0 0 0 7.4 25.3 22.9 22.9 0 0 0 9.5 4v9.4l-6 26a45 45 0 0 0 .6 22.3l9 31.8c-1.3.9-57.2 38.9-94.5 12.7.2-1.2 4.8-38.5 1.6-56.8a126.2 126.2 0 0 1-1.7-14.1v-.4a16 16 0 0 0-5.5-10.8c-3.3-3-7.9-11-3.4-32.1a77.7 77.7 0 0 1 5-15.2l12.5-28.3 11.6.2v.1c-1 1.3-14.4 18-15.9 28.7-1.4 10.2-3.1 13.4 16.5 14.6z" fill="#007bff"/><path d="M395 330.7s11.2 9.7 15.6 31.6 14.3 58.4 14.3 58.4 4 16-9.7 31.7-22.7 28-22.7 28l-9 13.2a11.3 11.3 0 0 1-6.5 4.6c-4 1-10.4 1.9-15.9-1.1a9.2 9.2 0 0 1-4-11.7l2-4.6s-18.5 11.6-20 5.2 21.5-12.9 21.5-12.9 19-3.2 23-12.3c0 0 20.5-26.4 18.9-35.4l-19.9-53.2s-24.8-3.3-16.3-31.1 28.6-10.4 28.6-10.4z" fill="#fdc2cc"/><path d="M276.3 531.3s45.3 9 56 7.9l1.1 3.8s17.2 3.8 56.1-2.3l8-1.4.8-.1s.6-3 1-7.8a135 135 0 0 0-6.6-54.9l-6.5-20.1s-40.5 24.2-67.2 22a143 143 0 0 0-7.2-.5c-5.5-.2-14 0-19.5-4.4l-11.6 2v33a39.5 39.5 0 0 1-2.6 14.1l-.8 2a10.5 10.5 0 0 0-1 6.7z" fill="#65617d"/><path d="M333.4 532.7V543s19.8 4.4 65-3.8c0 0 .5-3 .9-7.8-13.9 2.2-52 7.5-65.9 1.3z" opacity=".1"/><path d="M276.3 531.3s45.3 9 56 7.9l1.1 3.8v-10.3c-5.1 2.2-42-6.7-55.3-10l-.8 2a10.5 10.5 0 0 0-1 6.6z" opacity=".1"/><path d="M386.1 519.9l3.4 20.8 8-1.4c-1.1-6-3.4-20-2.8-22.3l-4.2-3.6z" fill="#65617d"/><path d="M386.6 519.4l3.4 20.9 7.9-1.4c-1-6-3.3-20-2.7-22.3L391 513z" opacity=".1"/><g opacity=".1"><path d="M316.5 478.4l-7.1-.5c-5.3-.2-13.5 0-19-4l1.9-.4c5.5 4.4 14 4.2 19.5 4.4a143 143 0 0 1 9.6.6 44.9 44.9 0 0 1-4.9-.1zM387 540.7l8-1.4 1-.1s.5-3 .9-7.8c.9-11.2 1.2-32.8-6.6-54.9l-6.2-19 2-1.1 6.5 20.1a135 135 0 0 1 6.6 54.8c-.4 5-1 7.8-1 7.8l-.8.2-8 1.3a249.1 249.1 0 0 1-40.7 3.5 257 257 0 0 0 38.4-3.4zM329.8 539.2h-1.3 1.3z"/></g><ellipse cx="391.8" cy="520.2" rx="1.7" ry="3.5" fill="#d39999"/><path d="M282.6 449a117 117 0 0 1 10.2-37.5l.5 3.4c.5 3 0 6.8.2 10.6l-2.5 46.4 3.4 14.5c3.2 11.4-8.7 2.4-8.7 2.4-2.5 5.4-7 4.8-7 4.8l-.6-8.3a71.9 71.9 0 0 1 2-23.3 111.2 111.2 0 0 0 2.5-13z" fill="#fdc2cc"/><path d="M282.6 449a117 117 0 0 1 10.2-37.5l.5 3.4c.5 3 0 6.8.2 10.6l-2.5 46.4 3.4 14.5c3.2 11.4-8.7 2.4-8.7 2.4-2.5 5.4-7 4.8-7 4.8l-.6-8.3a71.9 71.9 0 0 1 2-23.3 111.2 111.2 0 0 0 2.5-13z" opacity=".1"/><path d="M397.4 474l-3.3 4.4-9 13.2a11.2 11.2 0 0 1-6.5 4.6c-4.1 1-10.4 1.9-15.9-1.1a9.2 9.2 0 0 1-4-11.7l2-4.6s-18.5 11.7-20.1 5.2 21.5-12.9 21.5-12.9 19.2-3.2 23-12.3c0 0 1.7-2.1 4-5.4" fill="#fdc2cc"/><path d="M386.1 496.2s-21.9-2.2-28.8-14.7l-3.2 10.4s23 15.8 28.3 13.8z" fill="#65617d"/><path d="M385.4 496s-22-2-28.9-14.6l-3.2 10.3s23 15.9 28.3 13.8z" opacity=".1"/><path d="M286.4 490.3s-7.7 2.7-9.2 1.2l3.5 6.4 6.5-5z" fill="#65617d"/><path d="M286.4 490.3s-7.7 2.7-9.2 1.2l3.5 6.4 6.5-5zM333.4 532.7v-13.2l-3.1 13.5 3.1-.3zM364.5 259c-1.9 2.5-5 3.8-8.2 4.3s-6.4 0-9.6 0c-5-.1-10.3.6-14.4 3.6-2.6 1.9-4.6 4.5-6.6 7-6.2 7.5-14.8 14.6-24.5 13.8a6.3 6.3 0 0 1-4.6-2 7.3 7.3 0 0 1-1.1-4 94.6 94.6 0 0 1 .6-18.7 39.3 39.3 0 0 1 2.8-11.1 38 38 0 0 1 6.8-9.7 41.5 41.5 0 0 1 11.8-9.5 21.2 21.2 0 0 1 14.8-2c5.8 1.7 10.4 6.2 16 8.6 6.3 2.7 23.1 9.8 16.2 19.6z" opacity=".1"/><path d="M364.5 257.7c-1.9 2.6-5 4-8.2 4.3s-6.4.1-9.6 0c-5 0-10.3.7-14.4 3.7-2.6 1.8-4.6 4.5-6.6 7-6.2 7.5-14.8 14.6-24.5 13.8a6.3 6.3 0 0 1-4.6-2 7.3 7.3 0 0 1-1.1-4 94.6 94.6 0 0 1 .6-18.7 39.3 39.3 0 0 1 2.8-11.2 37.7 37.7 0 0 1 6.8-9.6 41.3 41.3 0 0 1 11.8-9.5 21.2 21.2 0 0 1 14.8-2c5.8 1.7 10.4 6.2 16 8.6 6.3 2.7 23.1 9.8 16.2 19.6z" fill="#865a61"/><path fill="#fdc2cc" d="M292.3 473.5v3.6l-.9-3.5.9-.1z"/><path opacity=".1" d="M292.3 473.5v3.6l-.9-3.5.9-.1zM369.4 339.2c-8.5 27.8 16.2 31 16.2 31l19.9 53.3c1.6 9-19 35.4-19 35.4-1.4 3.4-5 6-8.9 7.9a14 14 0 0 0 5.3-5.8s20.6-26.4 19-35.5L382 372.3s-24.7-3.2-16.2-31.1c2.8-9.3 7-13.5 11.2-15-2.9 2.3-5.6 6.3-7.6 13z"/><g opacity=".1"><path d="M369.8 364.5a20.8 20.8 0 0 0 4 3.8 22.7 22.7 0 0 0 9.5 4v1a22.7 22.7 0 0 1-8.6-3.8 20.8 20.8 0 0 1-4.9-5zM293.1 404.3v.4a129.2 129.2 0 0 0 1.7 14.2c3 17.2-.9 51.4-1.5 56.2l-1-.7c.2-1.1 4.8-38.4 1.6-56.7a126.7 126.7 0 0 1-1.7-14.1v-.4a15.4 15.4 0 0 0-2.7-7.6 15.6 15.6 0 0 1 3.6 8.7zM311.5 318l-9.8-.1-12.5 28.2a78 78 0 0 0-5 15.3c-3.6 17-1.4 25.6 1.4 29.8-3.1-3.7-6.3-12.1-2.3-31a77 77 0 0 1 5-15.2l12.5-28.3 11.6.2-.9 1.2zM385.2 325.7h.2z"/><path d="M381.6 325.6l-9.8-3c-.6.7-14.8 16.4-25.4 29-9.5 11.5-26.2 10.6-30.2 10.2l-2.2-.2c-11-.7-15.3-2-16.7-4.8 2 2 6.5 3 15.7 3.6.8 0 1.5 0 2.2.2 4 .4 20.8 1.2 30.3-10.1 10.6-12.7 24.8-28.4 25.4-29l14.3 4.2a9 9 0 0 0-3.6-.1z"/></g><path d="M265.6 757.5s-13.8 3.8-16.5-2.2M353.2 754.7s-16 4-19.7-2.3" opacity=".1"/><path d="M615.1 765.9c.2-2 .6-4 1-6 1.5-8.7-1-17-2-20.3l-.7-1.7c-6.4-1.7-31.5 17.8-40.6 25.1-3.2 0-6.7.2-10.4.4-1.7.1-3.3.2-5 .1h-6c-8.4-6.8-34.7-27.4-41.2-25.6l-.7 1.6a41 41 0 0 0-2 20.3l.9 6c.5 4.4 2.3 12.8 9 18.5 1.4 10.4 6.8 24.1 10.9 32.4a23.2 23.2 0 0 0 1.4 4.6 67.8 67.8 0 0 0-3.1 18s-8.9-2.2-9.8 8.5v.3c-3.2 1.5-7.2 4.9-2.7 12a4.6 4.6 0 0 0 2.3 1.8c.8.3 1.6.3 1.5-.8l5.6 6.2s10 1.2 10.1-4.6h.6l4.2.6.7 2.3s-7.5-.2-5.4 4.5c0 0 1.9 1.7 2.5 1 0 0-1 3.1 3 3.1 0 0 4.2 2.3 5.8.7s5-4 5.4-5l.2-6h.6c8.4.3 17.4 0 25.5-.4h.7l.1 6.4c.4 1 3.8 3.4 5.4 5s5.9-.6 5.9-.6c4 0 3-3 3-3 .6.6 2.5-1.2 2.5-1.2 2-4.7-5.5-4.5-5.5-4.5l.9-3 4.2-.3.6-.1c-.4 6.3 10.2 5.1 10.2 5.1l5.6-6.2c-.1 1 .6 1 1.4.8a4.6 4.6 0 0 0 2.3-1.9c6.8-10.7-5.8-13-5.8-13a6.2 6.2 0 0 0-1.2-.1v-.6a22 22 0 0 0 .2-4.2c-.5-1.9-3.6-5-7.5-5.4-2.6-.3-2.6-12.1-2.4-20.3a23.3 23.3 0 0 0 .4-4.6 24.5 24.5 0 0 0-1-7.4c5-8.5 9-17.4 9.5-20a29 29 0 0 0 8.9-18.5z" transform="translate(-31.2 -20.1)" fill="url(#e)"/><path d="M574.3 826.8c-.4 5.5-1.5 14.4-1.5 14.4l-11.3 1.1-4.7.4-11.9.9a317.6 317.6 0 0 1-36.2-.2l-4.7-.6c-9.3-1.4-16-4-16.6-8.7a27 27 0 0 1-.2-6c.9-10.5 9.4-8.4 9.4-8.4-.5-2.9 1.5-11.9 3.2-18.4 1-4.1 2-7.2 2-7.2l60.1-4h.2a3 3 0 0 1 3 3c-.4 7.3-.9 23.8 2 24.1 3.8.5 6.8 3.5 7.3 5.4a22.4 22.4 0 0 1-.1 4.2zM523.2 747.6s-22.7 27.3-33.6 19.7l-.7-.5a27.8 27.8 0 0 1-9.8-19c-.2-2-.6-4-1-6-1.4-8.4.9-16.5 2-19.9l.7-1.6c7.6-2 42.4 27.3 42.4 27.3z" fill="#007bff"/><path d="M511 750.1s-7.1 5-17.2 13.3a36.4 36.4 0 0 1-5 3.4 27.8 27.8 0 0 1-9.8-19l-.9-6c-1.5-8.4.8-16.5 2-19.9 14.2 1 31 28.2 31 28.2z" fill="#007bff"/><path d="M511 750.1s-7.1 5-17.2 13.3a36.4 36.4 0 0 1-5 3.4 27.8 27.8 0 0 1-9.8-19l-.9-6c-1.5-8.4.8-16.5 2-19.9 14.2 1 31 28.2 31 28.2z" fill="#fff" opacity=".5"/><path d="M503.2 747.5s-3.8 2.6-9.1 7a19.4 19.4 0 0 1-2.7 1.8c-3.9-3-5-7.7-5.2-10.1a42 42 0 0 0-.5-3.2 21.9 21.9 0 0 1 1.1-10.6c7.5.5 16.4 15 16.4 15z" opacity=".1"/><path d="M537.9 747.6s22.7 27.3 33.6 19.7l.7-.5a27.8 27.8 0 0 0 9.8-19l.9-6c1.5-8.4-.8-16.5-2-19.9l-.6-1.6c-7.6-2-42.4 27.3-42.4 27.3z" fill="#007bff"/><path d="M550 750.1s7.2 5 17.3 13.3a36.4 36.4 0 0 0 5 3.4 27.8 27.8 0 0 0 9.7-19l.9-6c1.5-8.4-.8-16.5-2-19.9-14 1-30.8 28.2-30.8 28.2z" fill="#007bff"/><path d="M550 750.1s7.2 5 17.3 13.3a36.4 36.4 0 0 0 5 3.4 27.8 27.8 0 0 0 9.7-19l.9-6c1.5-8.4-.8-16.5-2-19.9-14 1-30.8 28.2-30.8 28.2z" fill="#fff" opacity=".5"/><path d="M557.9 747.4s3.8 2.7 9.1 7a18.3 18.3 0 0 0 2.6 1.9c4-3 5-7.7 5.2-10.2l.5-3a21.9 21.9 0 0 0-1-10.6c-7.5.5-16.4 15-16.4 15zM561.9 790a54.3 54.3 0 0 1-8.7 11.2c-9 8-47.8 4.8-50.4 4.4-.5-.1-1.6-1.7-3-4.3l2-7.2z" opacity=".1"/><path d="M531.1 745.3l-4.7.2c-8.1-.2-35.4.2-38.5 11.2-3.5 13 12.4 47.8 15 48.2s41.3 3.6 50.3-4.4 20.8-33 20.2-35.2c0 0 11.2-23.7-42.3-20z" fill="#007bff"/><path d="M530.3 766.4s-20-3-29.4 16.6a24 24 0 0 0 1.8 24.2c3 4.4 7.7 7.7 14 5 14.2-5.8 13.6-45.8 13.6-45.8z" opacity=".1"/><path d="M529.6 765.1s-20-3-29.3 16.6A24 24 0 0 0 502 806c3.2 4.4 7.7 7.7 14.1 5 14.2-5.8 13.5-45.8 13.5-45.8z" opacity=".1"/><path d="M529.6 765.8s-20-3.1-29.3 16.6a24 24 0 0 0 1.7 24.2c3.2 4.4 7.7 7.6 14.1 5 14.2-5.9 13.5-45.8 13.5-45.8z" fill="#007bff"/><path d="M529.6 765.8s-20-3.1-29.3 16.6a24 24 0 0 0 1.7 24.2c3.2 4.4 7.7 7.6 14.1 5 14.2-5.9 13.5-45.8 13.5-45.8z" fill="#fff" opacity=".5"/><path d="M508 783s-2.7 2.5-1.6 3.1 1.7-3.1 1.7-3.1zM511 786.2s-1.5 3.3-.4 3.7 1.7-2.4 1.7-2.4zM504.4 791.2s-1.4 3.9 0 3.9 0-4 0-4z" fill="#3f2b3b"/><path d="M502.6 801.6s3 7.4 10.5 6.9M509.4 803.8s3 3 6.3.8" fill="none" stroke="#3f2b3b" stroke-miterlimit="10"/><path d="M532.8 766.4s20-3 29.4 16.6a24 24 0 0 1-1.8 24.2c-3 4.4-7.6 7.7-14 5-14.2-5.8-13.6-45.8-13.6-45.8z" opacity=".1"/><path d="M533.4 765.1s20-3 29.4 16.6A24 24 0 0 1 561 806c-3 4.4-7.7 7.7-14 5-14.2-5.8-13.6-45.8-13.6-45.8z" opacity=".1"/><path d="M533.4 765.8s20-3.1 29.4 16.6a24 24 0 0 1-1.8 24.2c-3 4.4-7.7 7.6-14 5-14.2-5.9-13.6-45.8-13.6-45.8z" fill="#007bff"/><path d="M533.4 765.8s20-3.1 29.4 16.6a24 24 0 0 1-1.8 24.2c-3 4.4-7.7 7.6-14 5-14.2-5.9-13.6-45.8-13.6-45.8z" fill="#fff" opacity=".5"/><path d="M555 783s2.7 2.5 1.7 3.1-1.7-3.1-1.7-3.1zM552 786.2s1.6 3.3.5 3.7-1.7-2.4-1.7-2.4zM558.7 791.2s1.4 3.9 0 3.9 0-4 0-4z" fill="#3f2b3b"/><path d="M560.5 801.6s-3 7.4-10.6 6.9M553.6 803.8s-3 3-6.3.8" fill="none" stroke="#3f2b3b" stroke-miterlimit="10"/><path d="M522 822.8c.6-.1 10.5-4.4 20.8 0z" fill="#3f2b3b"/><path d="M504 842.9c-9.3-1.4-16-4-16.6-8.8a27 27 0 0 1-.2-6 13.5 13.5 0 0 1 3.6-1.3c1.6-.4 3.7-.1 8.1 1.2s4.1 6.4 5 13.2a5.6 5.6 0 0 1 0 1.7z" opacity=".1"/><path d="M490.1 827.5s-12 2.2-5.5 12.7a4.5 4.5 0 0 0 2.2 1.8c.8.3 1.5.3 1.4-.8l5.4 6.1s10.7 1.3 9.8-5.5-.7-12-5-13.2-6.6-1.6-8.3-1.1z" fill="#007bff"/><path d="M493 834.5s2.6 5.9 6.2 1M487.1 836.9s1.3 5.5 6.4 1.4" fill="none" stroke="#3f2b3b" stroke-miterlimit="10"/><path d="M574.3 826.8c-.4 5.5-1.5 14.4-1.5 14.4l-11.3 1.1a5.8 5.8 0 0 1 0-1.1c.9-6.8.6-12 5-13.2 4-1.1 6.1-1.5 7.8-1.2z" opacity=".1"/><path d="M575.4 827.5s12 2.2 5.5 12.7a4.5 4.5 0 0 1-2.2 1.8c-.8.3-1.5.3-1.4-.8l-5.4 6.1s-10.7 1.3-9.8-5.5.7-12 5-13.2 6.6-1.6 8.3-1.1z" fill="#007bff"/><path d="M572.5 834.5s-2.6 5.9-6.2 1M578.4 836.9s-1.4 5.5-6.4 1.4" fill="none" stroke="#3f2b3b" stroke-miterlimit="10"/><path d="M520.3 844c-4 0-8-.2-11.6-.6l-3.6-12.2a8 8 0 0 1-.4-2.2 7.8 7.8 0 0 1 15.6-.1v15.2z" opacity=".1"/><path d="M504.4 831.2l4.3 14.4s-7.3-.2-5.3 4.4c0 0 1.8 1.7 2.5 1.1 0 0-1 3 2.8 3 0 0 4 2.2 5.7.6s4.9-3.9 5.2-4.8c.2-.7.1-12.7 0-21a7.8 7.8 0 0 0-7.7-7.7 7.8 7.8 0 0 0-7.5 10z" fill="#007bff"/><path d="M510.2 849.3s-3.2 3-1.5 4.8M508.8 847.4s-2.9 1-2.9 3.7" fill="none" stroke="#3f2b3b" stroke-miterlimit="10"/><path d="M560.6 829a8 8 0 0 1-.4 2.2l-3.4 11.5-11.8.9v-14.7a7.8 7.8 0 0 1 15.6 0z" opacity=".1"/><path d="M560.8 831.2l-4.2 14.4s7.3-.2 5.3 4.4c0 0-1.9 1.7-2.5 1.1 0 0 1 3-2.8 3 0 0-4.1 2.2-5.7.6s-4.9-3.9-5.2-4.8c-.2-.7-.1-12.7 0-21a7.8 7.8 0 0 1 7.7-7.7 7.8 7.8 0 0 1 7.4 10z" fill="#007bff"/><path d="M555 849.3s3.3 3 1.6 4.8M556.5 847.4s3 1 3 3.7" fill="none" stroke="#3f2b3b" stroke-miterlimit="10"/><path d="M529.7 762.6s-14.8-.4-15.3 11 23.1 6.6 23.1 6.6 10-1.3 8.2-8.3-5.3-8.6-16-9.3z" opacity=".1"/><path d="M529.7 761.4s-14.8-.5-15.3 11 23.1 6.6 23.1 6.6 10-1.3 8.2-8.3-5.3-8.7-16-9.3z" opacity=".1"/><path d="M529.7 762s-14.8-.5-15.3 11 23.1 6.6 23.1 6.6 10-1.3 8.2-8.3-5.3-8.7-16-9.3z" fill="#3f2b3b"/><path d="M496.6 819.8s5 1.8 6 5.2M567.1 817.3s-3.5 1.5-3.3 7.7" opacity=".1"/><ellipse cx="527.8" cy="862.5" rx="2.3" ry="3.8" transform="matrix(.87 -.5 .5 .87 -391.7 359.3)" fill="#007bff"/><ellipse cx="600.3" cy="862.5" rx="3.8" ry="2.3" transform="rotate(-60 567.2 879.4)" fill="#007bff"/><ellipse cx="527.8" cy="862.5" rx="2.3" ry="3.8" transform="matrix(.87 -.5 .5 .87 -391.7 359.3)" fill="#fff" opacity=".5"/><ellipse cx="600.3" cy="862.5" rx="3.8" ry="2.3" transform="rotate(-60 567.2 879.4)" fill="#fff" opacity=".5"/><ellipse cx="192.6" cy="716.1" rx="26.9" ry="4.5" fill="#007bff" opacity=".1"/><ellipse cx="86.5" cy="780.6" rx="26.9" ry="4.5" fill="#007bff" opacity=".1"/><ellipse cx="58.5" cy="722.9" rx="40.2" ry="6.8" fill="#007bff"/><path d="M41.8 711.7A11.6 11.6 0 0 1 38 706c-.5-2.3.5-5 2.7-6 2.4-.9 5 .8 7 2.6s4.3 3.6 7 3.3a10.5 10.5 0 0 1-3.3-9.8 4 4 0 0 1 1-2c1.3-1.5 3.7-.9 5.4.3 5.2 3.6 6.6 10.7 6.7 17 .5-2.2 0-4.6 0-7s.7-5 2.7-6.2a8 8 0 0 1 4-1c2.3 0 5 .2 6.5 1.9 2 2.1 1.5 5.7-.2 8s-4.4 3.8-6.8 5.4a15 15 0 0 0-4.8 4.6 4.7 4.7 0 0 0-.4.9H51a40.4 40.4 0 0 1-9-6.3z" fill="#007bff"/><ellipse cx="1029.8" cy="754.1" rx="26.9" ry="4.5" fill="#007bff" opacity=".1"/><path d="M1011.8 733s15.3-.5 20-3.8 23.6-7.2 24.7-2 23.1 26.3 5.8 26.5-40.3-2.7-45-5.5-5.5-15.2-5.5-15.2z" fill="#a8a8a8"/><path d="M1062.6 751.9c-17.4.1-40.3-2.7-45-5.6-3.5-2.1-4.9-9.8-5.3-13.3h-.5s1 12.4 5.5 15.2 27.6 5.6 45 5.5c5 0 6.7-1.8 6.6-4.5-.7 1.7-2.6 2.7-6.3 2.7z" opacity=".2"/></svg>