<svg data-name="Layer 1" xmlns="http://www.w3.org/2000/svg" xmlns:xlink="http://www.w3.org/1999/xlink" width="680" height="768"><defs><linearGradient id="a" x1="633" y1="808" x2="633" y2="66" gradientUnits="userSpaceOnUse"><stop offset="0" stop-color="gray" stop-opacity="0"/><stop offset="1" stop-color="gray" stop-opacity="0"/><stop offset="1" stop-color="gray" stop-opacity="0"/></linearGradient><linearGradient id="b" x1="373" y1="339" x2="373" y2="231" xlink:href="#a"/><linearGradient id="c" x1="417" y1="609" x2="574" y2="609" xlink:href="#a"/></defs><path d="M820 234h-2V114c0-27-22-48-49-48H496c-27 0-49 22-49 48v50h-1a3 3 0 0 0-2 3v24a3 3 0 0 0 2 2h1v25h-1a3 3 0 0 0-3 3v46a3 3 0 0 0 3 3h1v18h-1a3 3 0 0 0-2 2v47a3 3 0 0 0 2 3h1v420c0 26 22 48 49 48h273c27 0 49-22 49-48V324h2a3 3 0 0 0 3-3v-84a3 3 0 0 0-3-3z" transform="translate(-260 -66)" fill="url(#a)"/><rect x="547" y="171" width="11" height="89" rx="2" fill="#e5e7eb"/><rect x="189" y="102" width="6" height="29" rx="2" fill="#e5e7eb"/><rect x="189" y="155" width="7" height="51" rx="2" fill="#e5e7eb"/><rect x="189" y="224" width="6" height="51" rx="2" fill="#e5e7eb"/><rect x="192" y="5" width="361" height="733" rx="39" fill="#fff"/><rect x="338" y="27" width="50" height="10" rx="4" fill="#e5e7eb"/><circle cx="402" cy="32" r="6" fill="#e5e7eb"/><path d="M502 24h-41v5a24 24 0 0 1-24 24H306a24 24 0 0 1-24-24v-5h-39a29 29 0 0 0-28 29v637a29 29 0 0 0 28 29h259a29 29 0 0 0 29-29V53a29 29 0 0 0-29-29z" fill="#ececf3"/><ellipse cx="87" cy="754" rx="57" ry="10" fill="#fc3c53"/><path d="M111 738c2-3 5-5 5-9s0-7-3-8c-4-1-8 1-11 4s-6 5-9 4a15 15 0 0 0 4-14 6 6 0 0 0-1-2c-2-3-5-2-8 0-7 5-9 15-9 24v-10c0-4-1-7-4-9a11 11 0 0 0-6-1c-3 0-7 0-9 3-3 3-2 8 0 11s6 6 10 8l7 6a6 6 0 0 1 0 2h21a58 58 0 0 0 13-9z" fill="#fc3c53"/><path fill="#d6d8e0" d="M239 77h51v51h-51zM328 81h107v10H328zM328 98h176v10H328zM328 115h176v10H328zM239 171h51v51h-51zM328 174h107v10H328zM328 191h176v10H328zM328 208h176v10H328zM240 264h51v51h-51zM329 268h107v10H329zM329 285h176v10H329zM329 302h176v10H329zM240 358h51v51h-51zM329 362h107v10H329zM329 379h176v10H329zM329 396h176v10H329zM241 452h51v51h-51zM329 455h107v10H329zM329 472h176v10H329zM329 489h176v10H329zM241 545h51v51h-51zM330 549h107v10H330zM330 566h176v10H330zM330 583h176v10H330zM241 639h51v51h-51zM330 643h107v10H330zM330 660h176v10H330zM330 677h176v10H330z"/><path fill="url(#b)" d="M155 231h435v108H155z"/><path fill="#fff" d="M157 234h432v103H157z"/><path fill="#fc3c53" d="M241 260h51v51h-51z"/><g fill="#fc3c53"><path d="M330 263h107v10H330zM330 280h176v10H330zM330 297h176v10H330z"/></g><path d="M570 392c-3-3-7-4-10-2-3 1-4 4-6 7l-5 12c-2 12-12 21-16 33l-4 12a39 39 0 0 1-3 5 132 132 0 0 0-13 20l-6 3a20 20 0 0 1-8 4 8 8 0 0 0-3 1c-2 1-2 3-3 5a7 7 0 0 1-3 2v-1-6a21 21 0 0 0 0-27 41 41 0 0 1 1-9l-1-4-2-1a8 8 0 0 1-2-2 11 11 0 0 0-13-4c-4 2-6 6-9 9l-5 3a21 21 0 0 0-7 11 62 62 0 0 0-2 13 12 12 0 0 0 0 4 10 10 0 0 0 2 3 34 34 0 0 0 12 12 5 5 0 0 1 0 1v1h-1l-6-2c-3-2-4-6-8-8a6 6 0 0 0 0-1 56 56 0 0 0-4-16l-2-8 3-7c4-8 6-17 9-25l5-16a25 25 0 0 0 4-4 22 22 0 0 0 5-11 15 15 0 0 0-2-11 7 7 0 0 0-5-3 6 6 0 0 0-5 2 20 20 0 0 0-3 6c-2 4-4 8-3 12 0 4 1 8-1 10-7 10-12 20-17 30a54 54 0 0 0-3 8 42 42 0 0 0-2 13l2 25c1 3 1 7 3 10a45 45 0 0 0-2 13 7 7 0 0 0 1 2 12 12 0 0 0 2 3 12 12 0 0 1 3 10 28 28 0 0 0 1 10l5 27a17 17 0 0 1 1 5l-2 7a27 27 0 0 1 1 3 8 8 0 0 1-1 3c-2 6-8 22-8 29l2-1-8 27a90 90 0 0 0-2 20 75 75 0 0 1 0 9l-1 8a72 72 0 0 0-1 11 111 111 0 0 0 1 17c2 10-1 19-2 29a173 173 0 0 1-2 20l-1 9c-2 8 0 17-2 25-1 4-2 9 0 12l3 3a4 4 0 0 1 0 3l-1 3c-1 1 1 3 2 3h1a4 4 0 0 0 0 3 6 6 0 0 0 4 2l18 6c5 1 9 2 13 1a3 3 0 0 0 1 2 6 6 0 0 0 3 1l19 6c5 2 10 3 15 1a8 8 0 0 0 3-2 9 9 0 0 0 1-8 6 6 0 0 0-2-3 8 8 0 0 0-4-2 9 9 0 0 1-4-1 3 3 0 0 1-1-1l4-3-2-2c-1-13 4-25 6-38a81 81 0 0 0 0-19v-8c-1-12 5-24 5-37 0-6 3-12 5-17l1-16v-41c0-6 0-11-2-17a21 21 0 0 1 0-9c5-2 10-5 15-5 1-4 0-16-2-20a88 88 0 0 1-3-48c2-6 0-12 1-17a11 11 0 0 1 2-4 4 4 0 0 1 3-2v-10a25 25 0 0 0 5-7l7-16 13-28c4-9 5-20 8-29a22 22 0 0 1 11-13c2-1 4-1 5-3a9 9 0 0 0 2-5 13 13 0 0 0-3-10zM453 805l1-2-2-2a13 13 0 0 1 0-4 15 15 0 0 0 1-7l-1-4a43 43 0 0 1-1-5 86 86 0 0 0-4-19c-2-5 1-11 2-17l1-9 2-4v-12c6-11 8-24 10-36l3-20 3-9a105 105 0 0 1 3 28 41 41 0 0 0 0 8l2 8c2 6 1 13 1 20l1 7c0 12-4 23-7 34-3 7-3 15-4 22-1 6-3 13-3 20l-1 6a16 16 0 0 0-2 0 9 9 0 0 1-3-1 4 4 0 0 1-2-2z" transform="translate(-260 -66)" fill="url(#c)"/><path d="M234 752a8 8 0 0 1 5 2 6 6 0 0 1 1 3 9 9 0 0 1-1 8 8 8 0 0 1-3 2c-5 2-10 1-15-1l-19-5a6 6 0 0 1-3-2 4 4 0 0 1 0-5 9 9 0 0 1 4-3c6-3 12-4 19-4 2 0 5 0 6 2l2 2a9 9 0 0 0 4 1z" fill="#3f3d56"/><path d="M198 742a8 8 0 0 1 5 1 6 6 0 0 1 2 4 9 9 0 0 1-2 7 8 8 0 0 1-3 3c-5 2-10 0-15-1l-19-6a6 6 0 0 1-3-1 4 4 0 0 1 0-5 9 9 0 0 1 4-3c6-3 13-4 19-4 3 0 5-1 7 1 1 1 0 2 2 3a9 9 0 0 0 3 1z" fill="#3f3d56"/><path d="M215 537a232 232 0 0 0-34-1 7 7 0 0 0-2 1c-2 1-3 4-3 6-1 11-5 21-8 32a89 89 0 0 0-2 20 73 73 0 0 1 0 9l-1 8a72 72 0 0 0-1 10 109 109 0 0 0 1 17c2 10-1 19-2 29a171 171 0 0 1-2 20l-2 8c-1 9 1 17-1 26-1 4-2 8 0 11l3 3a4 4 0 0 1 0 4l-1 2c-1 2 1 3 2 3 11 5 25 2 32-7l-2-3a13 13 0 0 1 0-4 15 15 0 0 0 1-6l-1-5a42 42 0 0 1-1-5 85 85 0 0 0-4-18c-2-6 1-12 2-18l1-8 2-5v-11c6-11 7-24 10-36l3-20 3-8a104 104 0 0 1 3 27 40 40 0 0 0 0 8l2 8c2 6 1 13 1 19l1 8c0 12-4 23-7 34-3 6-3 14-4 21s-3 13-3 20c-1 6-1 13-5 18 4 2 8 5 12 5a21 21 0 0 0 14-2 44 44 0 0 0 11-10l-2-2c-1-13 4-25 6-38a80 80 0 0 0 0-19v-7c-1-12 5-24 5-37 0-6 3-12 5-17l1-16v-41c0-5 0-11-2-16-2-7 1-14 1-20a83 83 0 0 1-32 3z" fill="#3f3d56"/><path d="M251 419a131 131 0 0 1 15-24 39 39 0 0 0 3-4l4-13c4-11 14-20 16-32l5-12c2-3 3-6 6-7 3-2 7-1 10 2a12 12 0 0 1 3 10 9 9 0 0 1-2 5l-5 3a22 22 0 0 0-11 12c-3 10-4 20-8 30l-13 27-7 16c-3 5-7 10-13 10a34 34 0 0 0-2-10c-1-4-3-9-1-13zM189 427a55 55 0 0 0-4-21l-2-8 3-7 9-24 5-16a25 25 0 0 0 4-4 22 22 0 0 0 5-11 15 15 0 0 0-2-12 7 7 0 0 0-5-2 6 6 0 0 0-5 2 19 19 0 0 0-3 6c-2 4-4 8-3 12 0 4 1 7-1 10-7 9-12 20-17 30a53 53 0 0 0-3 8 42 42 0 0 0-2 12l2 25c1 5 2 11 6 14l13-14z" fill="#a0616a"/><circle cx="214" cy="410" r="21" fill="#a0616a"/><path d="M204 432c0 4-3 7-4 10l-5 5a100 100 0 0 0 18 7 21 21 0 0 0 7 1 17 17 0 0 0 6-1 28 28 0 0 0 16-19 37 37 0 0 1-8-1l-3-2a6 6 0 0 1-1-3v-10a41 41 0 0 0-15 1l-6 2-6 1c-1 1 1 6 1 9z" fill="#a0616a"/><path d="M213 444a13 13 0 0 0-10-11l-6-2c-3-1-4-6-8-8s-7-1-10 2-4 6-5 10a50 50 0 0 0-3 15 7 7 0 0 0 1 3 12 12 0 0 0 2 2 12 12 0 0 1 3 10 28 28 0 0 0 1 10l5 26a17 17 0 0 1 1 5l-2 7a27 27 0 0 1 1 4 8 8 0 0 1-1 2c-2 7-8 22-8 29 11-3 26-3 37-3a78 78 0 0 1 9 0c8 1 15 3 22 1s12-7 19-6c2-4 0-17-2-21a87 87 0 0 1-3-47c2-6 0-12 1-17a10 10 0 0 1 2-4 4 4 0 0 1 3-2 127 127 0 0 0-2-27c-1-3-2-7-5-7-3-1-6 2-8 4a21 21 0 0 1-8 3 8 8 0 0 0-3 1l-3 5c-2 3-6 2-8 5a18 18 0 0 0-1 3 10 10 0 0 1-3 4 19 19 0 0 1-8 4z" fill="#fc3c53"/><path d="M231 388l-1-4-2-1a8 8 0 0 1-2-3 11 11 0 0 0-13-3c-4 2-6 6-9 8l-5 4a21 21 0 0 0-7 11 62 62 0 0 0-2 12 11 11 0 0 0 0 4 10 10 0 0 0 2 3c3 5 7 10 13 12s12 3 17 1a3 3 0 0 0 2-1 4 4 0 0 0 0-3 16 16 0 0 1 1-8l4-6a21 21 0 0 0 1-7c0-7-1-13 1-19z" fill="#2d293d"/><path fill="#fc3c53" d="M241 260h51v51h-51z"/><path d="M273 304a7 7 0 0 1-3 3 9 9 0 0 1-3 0 8 8 0 0 1-3 0 7 7 0 0 1-3-2 16 16 0 0 1-2-4 4 4 0 0 1-1-2 3 3 0 0 0 2-1 3 3 0 0 0 0-2v-1-2h1a14 14 0 0 1 4-1 8 8 0 0 1 3 0l1 2a4 4 0 0 0 1 2 6 6 0 0 0 1 1l2 1a2 2 0 0 1 1 1 8 8 0 0 1-1 5z" fill="#a0616a"/><circle cx="264" cy="289" r="7" fill="#a0616a"/><path d="M285 311h-33l-3-6a5 5 0 0 1 1-2 2 2 0 0 1 1-1h1c0-1 0 0 0 0h1a2 2 0 0 0 2-1 2 2 0 0 1 0-1 2 2 0 0 1 1 0l2-1a1 1 0 0 1 1-1 1 1 0 0 1 0 1 2 2 0 0 1 1 0 7 7 0 0 0 2 5 6 6 0 0 0 9-3 12 12 0 0 0 1-3v-1a3 3 0 0 1 2 1 13 13 0 0 0 2 1l3 1 1 1a4 4 0 0 1 3 2 17 17 0 0 1 1 5z" fill="#f86d70"/><path d="M259 278a5 5 0 0 0-1 2 7 7 0 0 1-3 2 3 3 0 0 0-1 1 15 15 0 0 0 0 3 3 3 0 0 0 0 2l1 1a4 4 0 0 1-1 1 1 1 0 0 0 1 1l2 3v-1l1-5 1-1a3 3 0 0 1 1 0l4-1a5 5 0 0 1 2 0l2 1v1a1 1 0 0 0 1 0l1 1 1 2v1a1 1 0 0 0 1-1 3 3 0 0 0 0-1v-4-5l-1-1-1-1a9 9 0 0 0-5-2 10 10 0 0 0-6 1z" fill="#3f3d56"/><path d="M255 311h-8a25 25 0 0 1 2-6l1-1h1a7 7 0 0 1 2 0 3 3 0 0 1 1 0 2 2 0 0 1 1 2v5z" fill="#f86d70"/></svg>