<svg data-name="Layer 1" xmlns="http://www.w3.org/2000/svg" xmlns:xlink="http://www.w3.org/1999/xlink" width="1119" height="732.1"><defs><linearGradient id="a" x1="729" y1="758.4" x2="729" y2="122.4" gradientUnits="userSpaceOnUse"><stop offset="0" stop-color="gray" stop-opacity=".3"/><stop offset=".5" stop-color="gray" stop-opacity=".1"/><stop offset="1" stop-color="gray" stop-opacity=".1"/></linearGradient><linearGradient id="b" x1="-861.7" y1="737.1" x2="-861.7" y2="290.9" gradientTransform="translate(1240)" xlink:href="#a"/></defs><ellipse cx="559.5" cy="644.1" rx="559.5" ry="88" fill="#007bff" opacity=".1"/><path fill="#f86d70" d="M927.3 473v61l-16.1 32.5-.5 1-42.7-2.8-16.4-1-38.1-2.6v-73l38 1.1 17.1.5 43.1 1.2 15.6-18z"/><path opacity=".1" d="M927.3 476.6V534l-4 8-4 8-8.1 16.5 1-61v-12.3l7.8-8.6 3.4-3.7 4-4.3z"/><path fill="#f86d70" d="M929.5 456.8V478l-2.2 3.5-3.9 6.2-3.4 5.5-7.7 12.2h-.2l-102-5.2v-21l.3-.3 12.2-13.2 4.4-4.8 8-8.6 94.5 4.4z"/><path opacity=".1" d="M912.3 484.5v21L810 500.3v-21l.3-.3 101.9 5.5zM929.5 456.8V478l-17.2 27.4v-21l17.2-27.7z"/><path fill="#3f3d56" d="M923.4 466.6v75.3l-4 8.2.6-56.8v-8.7l.2-12.8-97.6-6 4.4-4.8 96.4 5.6z"/><path fill="#3f3d56" d="M875.5 467.3l-6.8 14.8v7.6l-.7 75-16.4-1V481l8.7-13.8h15.2z"/><path d="M853 468.3a21.6 21.6 0 0 1-12.2.4 4.9 4.9 0 0 1-2.2-1 5.6 5.6 0 0 1-1.3-2.6 20.7 20.7 0 0 1-1.2-6.3 7 7 0 0 1 2.6-5.6 6.1 6.1 0 0 0 1-.8 4.2 4.2 0 0 0 .8-1.5c1.2-3.6 3.5-7.4 7.2-8 3.5-.5 6.6 2 9.2 4.2l5.8 5a9.2 9.2 0 0 1 17.1-.3 32.4 32.4 0 0 1 13-8.9 4 4 0 0 1 3.3-.1 3.8 3.8 0 0 1 1.4 1.8 27.9 27.9 0 0 1 2.5 11 2 2 0 0 1 2.2.8 5 5 0 0 1 .7 2.4 33.4 33.4 0 0 1 .3 4 6 6 0 0 1-1 4c-1.2 1.4-3.2 1.5-5 1.6.9.7.4 2.3-.5 3a5.8 5.8 0 0 1-3.4.6c-4.5 0-9.3-.2-13.1-2.7-1.5-1-2.7-2.3-4.2-3.3-3.6-2.4-8.2-2.5-12.4-2.3-4 .2-7 3.4-10.6 4.6z" fill="#3f3d56"/><path d="M852.2 467.3s-37.7 5.3-43 28l8-1.2 5.5 10s5.8-22.2 23-27.5 23.4-6.1 23.4-6.1 12 3 22.8 37.6l6-8.4 10.9 2.3s-7.9-27.1-29.2-34.7z" fill="#3f3d56"/><path fill="#007bff" d="M874.7 496.8v82.4l-21.8 44-.7 1.4-57.6-3.8-22.2-1.5-51.4-3.4v-98.6l51.4 1.5 23 .6 58.2 1.7 21.1-24.3z"/><path opacity=".1" d="M874.7 501.7v77.5l-5.3 10.8-5.5 11-11 22.2 1.3-82.4.2-16.6 10.5-11.6 4.5-5 5.3-5.9z"/><path fill="#007bff" d="M877.7 475v28.7l-3 4.8-5.3 8.4-4.6 7.4-10.4 16.5h-.2l-137.8-7.1v-28.4l.4-.4 16.4-17.8 6-6.4 10.7-11.7 127.8 6z"/><path opacity=".1" d="M854.4 512.4v28.4l-138-7.1v-28.4l.4-.4 137.6 7.5zM877.7 475v28.7l-23.3 37.1v-28.4l23.3-37.4z"/><path fill="#3f3d56" d="M869.5 488.2V516.9l-.1 73-5.5 11 .9-76.6v-11.7l.3-17.3-131.9-8.2 6-6.4 130.3 7.5z"/><path fill="#3f3d56" d="M804.7 489.1l-9.2 20.1v10.2l-1 101.4-22.1-1.5V507.9l11.8-18.8h20.5z"/><path d="M774.3 490.5a29.3 29.3 0 0 1-16.5.6 6.6 6.6 0 0 1-3-1.4 7.5 7.5 0 0 1-1.7-3.5 28 28 0 0 1-1.6-8.5c0-3 1.2-6 3.5-7.6a9.4 9.4 0 0 0 1.4-1 5.6 5.6 0 0 0 1-2.1c1.6-4.8 4.7-10 9.8-10.7 4.6-.7 8.8 2.5 12.4 5.6l7.8 6.6a12.4 12.4 0 0 1 23-.3 43.8 43.8 0 0 1 17.5-12c1.5-.5 3.2-1 4.6-.2a5.2 5.2 0 0 1 1.8 2.5 37.7 37.7 0 0 1 3.4 14.8 2.6 2.6 0 0 1 3 1 6.9 6.9 0 0 1 1 3.3 46.3 46.3 0 0 1 .3 5.4c0 2-.2 4-1.4 5.4-1.6 1.9-4.4 2-6.8 2.1 1.2 1 .6 3.2-.7 4a7.9 7.9 0 0 1-4.6 1c-6.1 0-12.6-.3-17.7-3.6-2-1.4-3.6-3.2-5.6-4.5-5-3.2-11.1-3.4-16.8-3.1-5.1.3-9.2 4.6-14 6.2z" fill="#3f3d56"/><path d="M773.2 489.2s-50.9 7-58 37.8l10.6-1.6 7.5 13.4s8-30 31.2-37 31.5-8.3 31.5-8.3 16.2 4 30.8 50.8L835 533l14.6 3.2s-10.7-36.7-39.5-47zM957.3 537.8v51L943.8 616l-.5.8-35.6-2.3-13.8-1-31.8-2v-61l31.8.9 14.3.4 36 1 13-15z" fill="#3f3d56"/><path opacity=".1" d="M957.3 540.8v48l-3.3 6.6-3.4 6.8-6.8 13.8.7-51 .2-10.3 6.5-7.2 2.8-3.1 3.3-3.6z"/><path fill="#3f3d56" d="M959 524.2V542l-1.8 3-3.2 5.2-3 4.6-6.3 10.2h-.2l-85.2-4.4V543l.2-.2 10.2-11 3.7-4 6.6-7.2 79 3.6z"/><path opacity=".1" d="M944.7 547.4V565l-85.4-4.4V543l.2-.2 85.2 4.6z"/><path opacity=".1" d="M959 524.2V542l-14.3 23v-17.6l14.4-23.2z"/><path fill="#007bff" d="M954 532.4v63l-3.4 6.8.5-47.4v-7.3l.2-10.7-81.6-5 3.7-4 80.6 4.6z"/><path fill="#007bff" d="M914 533l-5.8 12.4v6.4l-.6 62.7-13.7-1v-68.9l7.4-11.6h12.6z"/><path d="M895.1 533.8a18.2 18.2 0 0 1-10.2.4 4.2 4.2 0 0 1-1.8-.8 4.7 4.7 0 0 1-1.1-2.2 17.4 17.4 0 0 1-1-5.3 5.8 5.8 0 0 1 2.2-4.7 5 5 0 0 0 .8-.6 3.4 3.4 0 0 0 .6-1.3c1-3 3-6.1 6-6.6s5.6 1.5 7.8 3.4l4.8 4.1a7.7 7.7 0 0 1 14.3-.1 27.2 27.2 0 0 1 10.8-7.4 3.3 3.3 0 0 1 2.8-.1 3.2 3.2 0 0 1 1.1 1.5 23.2 23.2 0 0 1 2.1 9.2 1.6 1.6 0 0 1 2 .6 4.3 4.3 0 0 1 .6 2 28.8 28.8 0 0 1 .1 3.3 5 5 0 0 1-.8 3.4c-1 1.2-2.7 1.3-4.3 1.3a1.7 1.7 0 0 1-.4 2.5 4.9 4.9 0 0 1-2.8.6c-3.8 0-7.8-.2-11-2.3-1.2-.8-2.2-1.9-3.5-2.7-3-2-6.8-2.1-10.4-2-3.1.2-5.7 2.8-8.7 3.8z" fill="#007bff"/><path d="M894.4 533s-31.5 4.4-35.9 23.4l6.6-1 4.7 8.3s4.9-18.5 19.3-22.9 19.5-5.1 19.5-5.1 10 2.4 19 31.4l5.1-7 9 2s-6.6-22.7-24.4-29z" fill="#007bff"/><path d="M871.6 249.9c-1.1-6.7-22-21.2-22-21.2s-9-5-14-10.8c-3-3.7-4-3.7-4.3-3.2a1.5 1.5 0 0 0-.7-.2l-.5-.4a1.3 1.3 0 0 0-.8-1.4 7.7 7.7 0 0 1-.7-.5 22.9 22.9 0 0 1-2.3-9.8c-.3-4.2-5-3.1-6.5-2.7l-3.2-6.4a11.5 11.5 0 0 0 1-2.3c2.9-6.4 2.3-13.7 3.5-20.5 1-4.9 2.8-10 2.4-14.8v-.3a13 13 0 0 0-.8-3.4c-.8-2.2-2.3-4-3-6.3-1-3.2-.3-6.7-1.2-10-1.1-4.1-4.5-7.4-8.4-9.2s-8.3-2.5-12.5-3c-10.7-1.4-22-2.2-31.8 2.4a5.6 5.6 0 0 1-3 .8 8.9 8.9 0 0 1-2.7-1.3c-2.6-1.3-5.9-.4-8.2 1.3s-4 4.3-5.5 6.8-3.2 5-5.7 6.6c-2.8 2-6.6 2.6-8.8 5.2a8.4 8.4 0 0 0-1.8 4.3v1.4a10.8 10.8 0 0 0 0 1.2 27.6 27.6 0 0 0 1.9 7.1 9.9 9.9 0 0 0 2.5 4.5c3.5 2.8 8.9.1 13 1.7a9.9 9.9 0 0 1 1 .5l-.1.5a34 34 0 0 0 33 43.4h2l.3 1a37.6 37.6 0 0 1 1 12.8l-.2-1.9a9.5 9.5 0 0 0-1.4-.5 12.6 12.6 0 0 0-4.3-.7c-4.6 0-11.6 1.9-19.1 11 0 0-9.5 5.5-12.4 6.8a1.4 1.4 0 0 0-.5.6s-12.6 19.6-13.9 27l-.2 1-21.4-1a39.5 39.5 0 0 0-3.6-15.4 5.5 5.5 0 0 0-2-2.6c-1.4-.9-3.2-.4-4.8.2a46.6 46.6 0 0 0-18.5 12.6 13.2 13.2 0 0 0-24.5.4l-8.4-7c-3.8-3.3-8.2-6.7-13.2-6-5.3.9-8.6 6.3-10.4 11.4a5.8 5.8 0 0 1-1 2.2 3.9 3.9 0 0 1-.4.2l-6.5-.3-11.5 12.3-6.3 6.9-17.5 18.8-.3.3v18.8a34.1 34.1 0 0 0-1.3 4.2l1.3-.2v7.3l4.8.2V417l54.7 3.6 23.5 1.5 41.7 2.7c0 4 1.6 9.5 5.1 11.7a9.6 9.6 0 0 1 2.3 2 35.5 35.5 0 0 0-3.4 10.8 13.3 13.3 0 0 1-2 8.6s-12.6 39.8-12.3 51.2-4.5 36.5-4.5 36.5-5.2 16.2-2.1 20.8 6.6 24.7 6.6 24.7 2.4 4.6 2.2 8.5 2.3 11 2.3 11l7.8 28.9s-.8 7.7 2.1 13 2.7 3.9 1.3 13.3 1.7 18.3 6.7 21.1c2 1 2.1 2.7 1.5 4.3-1.3-.5-2.4 2.2-3 4.4l-.7.7h.4l-.4 2s-13.2 11-14 15.1-10.1 6.2-10.1 6.2-14 3.9-17.7 5.8a6.7 6.7 0 0 0-3.9 5.4 15.2 15.2 0 0 0 .5 5.5c1.4 5.7 21 6.3 30.5 4.7s28.9-7 28.9-7 20.5-2 26.5-4.5 1.3-9 1.3-9v-.6c.1-2.3.6-10.8-.9-13-1-1.8-1-6-.9-8.8 4.1-7.5-4.7-30-4.7-30s1.7-22 .6-25.2-6-30.5-6-30.5-2.9-12.5-1.8-14.6-.7-8-.7-8-4.7-6.7-4.3-8.8-1.4-5.9-1.4-5.9 14.3-21.7 13-25.8.6-10.6.6-10.6l4-6.8c2.6-4.5 5.9-10 7-11.6 1.4-2.1 4.7-11.3 6.5-16.6l1.3-3.8s2.3 41 4.3 45.2 4.9 37.3 4.9 37.3a23.2 23.2 0 0 1 1.4 9.2c-.3 5.1 4.5 27.6 4.5 27.6s2 15.9.7 20-.3 35-.3 35-7.7 6-9.7 10.7.3 17.1.3 17.1l.9.4a26.2 26.2 0 0 0-1.6 5.5c-.3 2.6-4.5 14.6-4 16.3s-2 6.8-2.2 9.5-3.8 6.5-4 8a33.9 33.9 0 0 1-1.6 3.6 36.3 36.3 0 0 0-1.8 5.7c-1.4 5.9 15.3 6.8 15.3 6.8 24.7 4.6 29.2-14.2 29.2-14.2s3-16.7 4.2-18a2 2 0 0 0 .2-1.6 21.8 21.8 0 0 0-3.6-7.9c-.8-.9-.8-3.3-.7-5.4a11.3 11.3 0 0 0 2.1-.4c10-3 6-19.8 6-19.8s6.6-11.2 6.6-15.5 2.4-17.6 2.4-17.6c8.6-15.6 5.2-53.5 6.6-56.6s-3-14.5-6.4-19.7-2.1-19 0-23.1-2.1-18-2.1-18 4-27 3.9-31.2 3.5-16.6 3.5-16.6 3.6-6.5 2.8-8.4 2.8-7 1.8-9.2.9-9 2.7-13.1c1-2.1 2.1-7.8 3-12.9l.3-1.6c4 2.6 7.8 4.5 9.2 4 2.5-1-1.5-14-4.2-22.1.4-.4.6-.6.4-.8-1.6-1 .2-6.1.2-6.1 10-6 6.6-10.4 3.4-13s-1.1-10-2-13 1-16.5 2.8-26.4a19.2 19.2 0 0 0-.1-6.5l5.3-8.4c5.6-9.3 17.6-53.5 17.6-53.5v-.3c1-2.3 2-4.2 2.4-5.5 3.5-9.7-3.2-38.8-4.3-45.4zm-87.2-25.5l.2-.1v.2zM729.9 699a4.4 4.4 0 0 1-1.8-.4z" transform="translate(-40.5 -84)" fill="url(#a)"/><path d="M580.6 293.4c8.2 3 27.3 3.4 35.8 3.4h4.2l5.4-11-5.4-9.3s-5-1.4-11.6-2.6c-9.8-1.8-23.3-3.1-29.6.8-10.8 6.6-9.6 14.6 1.2 18.7z" fill="#fec2be"/><path d="M616.4 296.8h4.2l5.4-11-5.4-9.3s-5-1.4-11.6-2.6c5.4 4 18.3 12.5 7.4 23z" opacity=".1"/><path d="M706.7 160.6l-2.4-2.8s-12.4 19.6-13.7 27l-3 16s-3.1 9.5-5.1 13.8-3.9 8.3-4 10.2.7 5.9-3.2 8.5-4.8 9.6-4.8 9.6-14 13.7-21.5 14-28.6 4.1-27.9 7.8-8.9 6-12.7 6.8 25 12 8 26.3c0 0 10.8 2.2 12 4.8s12.3-1.5 12.3-1.5 2.4-5.7 10.7-6 12.6-4.1 12.6-4.7 8.3-5.2 13-6.5 10.7-1.8 10.9-3.1l27.7-120.2z" fill="#4c4981"/><path d="M706.7 160.6l-2.4-2.8s-12.4 19.6-13.7 27l-3 16s-3.1 9.5-5.1 13.8-3.9 8.3-4 10.2.7 5.9-3.2 8.5-4.8 9.6-4.8 9.6-14 13.7-21.5 14-28.6 4.1-27.9 7.8-8.9 6-12.7 6.8 25 12 8 26.3c0 0 10.8 2.2 12 4.8s12.3-1.5 12.3-1.5 2.4-5.7 10.7-6 12.6-4.1 12.6-4.7 8.3-5.2 13-6.5 10.7-1.8 10.9-3.1l27.7-120.2z" opacity=".1"/><path d="M735.5 673.7c24.4 4.6 28.9-14.1 28.9-14.1s3-16.6 4.1-17.9a2 2 0 0 0 .2-1.6 21.7 21.7 0 0 0-3.5-7.8c-1.5-1.8-.3-9.3-.3-9.3l-28.3-7.2s-2.5 5.7-2.8 8.3-4.4 14.6-4 16.2-1.8 6.8-2 9.5-3.8 6.5-4 7.9a34 34 0 0 1-1.6 3.6 35.7 35.7 0 0 0-1.8 5.6c-1.4 5.9 15.1 6.8 15.1 6.8z" fill="#ca8496"/><path d="M735.5 673.7c24.4 4.6 28.9-14.1 28.9-14.1s3-16.6 4.1-17.9a2 2 0 0 0 .2-1.6l-5.9 16.9s-4.8 10-22.9 8.6a42.2 42.2 0 0 1-17.7-4.3 35.7 35.7 0 0 0-1.8 5.7c-1.4 5.8 15.1 6.7 15.1 6.7z" opacity=".1"/><path d="M754.5 647.4s-6.1.1-6.5-4.9z" opacity=".1"/><path d="M648.4 483.5c3 4.5 6.5 24.5 6.5 24.5s2.4 4.6 2.2 8.5 2.2 11 2.2 11l7.8 28.7s-.8 7.6 2 13 2.7 3.7 1.3 13.2 1.7 18.1 6.7 20.9-2.2 9.3-2.2 9.3 31.9 8.6 38.5 3.3-3.4-31.3-3.4-31.3 1.6-22 .5-25.1-5.8-30.4-5.8-30.4-3-12.4-1.8-14.4-.7-8.1-.7-8.1-4.7-6.6-4.3-8.7-1.4-5.8-1.4-5.8 14.1-21.7 12.9-25.7.6-10.5.6-10.5l3.9-6.8c2.6-4.5 5.8-9.9 6.9-11.5a149 149 0 0 0 6.4-16.5l1.3-3.8s2.2 40.8 4.2 45 4.8 37 4.8 37a23.2 23.2 0 0 1 1.4 9.1c-.2 5.1 4.5 27.5 4.5 27.5s2 15.8.7 20-.3 34.8-.3 34.8-7.6 6-9.6 10.5.3 17 .3 17 22.2 11.2 32 8.3 5.8-19.7 5.8-19.7 6.7-11.1 6.7-15.4 2.3-17.5 2.3-17.5c8.5-15.5 5.2-53.3 6.6-56.3s-3-14.4-6.4-19.5-2-19 0-23-2-18-2-18 4-27 3.8-31.1 3.5-16.5 3.5-16.5 3.6-6.4 2.8-8.3 2.7-7 1.8-9.2.8-9 2.6-13c1-2 2-7.7 3-12.8.9-4.7 1.5-9 1.5-9l-22.9-18.4-57.1-15-21.5-7-21 33s-2.1 3.5-4 7.5a22.1 22.1 0 0 0-3 9.6 13.3 13.3 0 0 1-1.9 8.6s-12.5 39.6-12.2 51-4.4 36.3-4.4 36.3-5.2 16-2.1 20.7z" fill="#4c4981"/><path fill="#007bff" d="M708.1 209.8v86.5l-22.9 46.2-.7 1.4-60.6-4-23.3-1.5-54-3.6V231.3l54 1.5 24.2.7 61.2 1.7 22.1-25.4z"/><path opacity=".1" d="M708.1 214.9v81.4l-5.6 11.3-5.7 11.5-11.6 23.4 1.3-86.6.3-17.4 11-12.2 4.8-5.3 5.5-6.1z"/><path fill="#007bff" d="M711.2 186.8V217l-3 5-5.6 8.8-5 7.8-10.8 17.3h-.3L542 248.5v-29.8l.3-.4 17.3-18.7 6.2-6.8 11.3-12.2 134.2 6.2z"/><path opacity=".1" d="M686.8 226.1V256l-145-7.4v-29.8l.4-.4 144.6 7.8zM711.2 186.8V217l-24.4 39V226l24.4-39.3z"/><path fill="#3f3d56" d="M702.6 200.7v106.9l-5.8 11.5.8-80.5.2-12.3.2-18.2-138.5-8.5 6.2-6.8 136.9 7.9z"/><path fill="#3f3d56" d="M634.6 201.7l-9.7 21v10.8l-1 106.4-23.3-1.5v-117l12.5-19.7h21.5z"/><path d="M602.6 203a30.8 30.8 0 0 1-17.3.7 7 7 0 0 1-3-1.4 8 8 0 0 1-1.9-3.8 29.6 29.6 0 0 1-1.6-8.9c0-3 1.2-6.2 3.7-8a8.1 8.1 0 0 0 1.4-1 5.7 5.7 0 0 0 1-2.3c1.8-5 5-10.4 10.3-11.2 4.9-.7 9.3 2.7 13 5.9l8.3 7a13 13 0 0 1 24.2-.4 46 46 0 0 1 18.3-12.5c1.6-.6 3.4-1 4.8-.2a5.5 5.5 0 0 1 2 2.6 39.5 39.5 0 0 1 3.5 15.6 2.7 2.7 0 0 1 3.2 1 7.2 7.2 0 0 1 1 3.5 48.7 48.7 0 0 1 .4 5.7c0 2-.2 4.1-1.5 5.6-1.7 2-4.6 2.2-7.2 2.3 1.3 1 .7 3.3-.7 4.2a8.3 8.3 0 0 1-4.8 1c-6.4-.1-13.2-.3-18.6-3.9-2-1.4-3.8-3.2-6-4.6-5.1-3.4-11.6-3.6-17.6-3.3-5.4.3-9.7 4.8-14.9 6.5z" fill="#3f3d56"/><path d="M601.5 201.7s-53.4 7.4-60.9 39.7l11.2-1.6 7.9 14s8.3-31.4 32.7-38.9 33.1-8.7 33.1-8.7 17 4.2 32.3 53.5l8.7-12 15.3 3.3s-11.1-38.5-41.4-49.3z" fill="#3f3d56"/><path d="M732.9 162c.9-.4 61.2-25.3 52.9-30.3-5-2.9-11-15.3-15.2-25.1-2.9-6.8-4.9-12.3-4.9-12.3s-48.4-8.6-31 21a54.9 54.9 0 0 1 6 14.7c5 20.2-7.4 31.6-7.8 32z" fill="#fec2be"/><path d="M734.6 115.4a54.9 54.9 0 0 1 6.2 14.6 33.8 33.8 0 0 0 28.6-20.1 32 32 0 0 0 1.2-3.3c-2.9-6.8-4.9-12.3-4.9-12.3s-48.4-8.6-31 21z" opacity=".1"/><path d="M704.5 95.1a33.8 33.8 0 0 0 64.8 13.7 33.5 33.5 0 0 0 3-13.7 33.8 33.8 0 1 0-67.8 0z" fill="#fec2be"/><path d="M671.9 357.3c3.5 3.2 5 9.4 5 9.4s16.6 11.4 15.5 4.1 8.6-36.3 8.6-36.3l-1.2 39.7s53.3-2.5 57.2-6.4 26.6-11.4 26.6-11.4 7 5.6 13.4 9.8l1.5-9-23-18.4-57-15-21.6-7-21 33s-2 3.5-4 7.5z" opacity=".1"/><path d="M670.2 354.2c4.4 2.8 6 10.3 6 10.3s16.7 11.3 15.6 4.1 8.6-36.3 8.6-36.3l-1.1 39.6s53.2-2.4 57.1-6.3 26.6-11.4 26.6-11.4 19.7 15.8 23.3 14.4-6.3-28.3-6.3-28.3l-10.3-157.5s2.8-46.9-1.4-48.6a6 6 0 0 1-1.7-1c-2.8-2.5-3.6-7.5-3.8-11.7-.3-5-7-2.5-7-2.5l4 5-34.4 20.9-.3.2a39.2 39.2 0 0 0-4.2-2c-3-1-7-2.2-9.7-1a9.4 9.4 0 0 0-3.7 3.2 41.2 41.2 0 0 0-4.6 9.5l-12.5 21s-6.4 28-6.4 29.2-2 26.6-4.2 29.4-4.4 16.6-3.6 20.8-1.4 19.7-1.4 19.7c-9.1 7.5-13.8 33-13.8 33s-14.4 28.5-15.6 31.9.3 11.6 4.8 14.4z" fill="#fff"/><path d="M745.4 146c3.3 5 13 12 13 12l28.2-23.8c-2.8-2.4-3.6-7.4-3.8-11.6-.3-5-7-2.5-7-2.5l.8 1a4.5 4.5 0 0 1-1.2 6.5z" opacity=".1"/><path d="M745.4 144.9c3.3 5 13 12 13 12l28.2-23.8c-2.8-2.4-3.6-7.4-3.8-11.6-.3-5-7-2.5-7-2.5l.8 1a4.5 4.5 0 0 1-1.2 6.5z" fill="#fff"/><path d="M732.4 148.6c3.6 4.4 8.7 9.3 8.5 6.8s3-7.9 5.2-10.3a15.3 15.3 0 0 0-10.1.2 9.5 9.5 0 0 0-3.6 3.3z" opacity=".1"/><path d="M731.8 147c3.6 4.3 8.8 9.2 8.5 6.7s2.8-6.4 4.9-8.8c-3-1.2-7.1-2.3-9.8-1.2a9.3 9.3 0 0 0-3.6 3.3z" fill="#fff"/><circle cx="740.9" cy="167.8" r="2.2" fill="#ff718d"/><circle cx="724.1" cy="227.7" r="2.2" fill="#ff718d"/><circle cx="705" cy="288.4" r="2.2" fill="#ff718d"/><circle cx="704.5" cy="354.4" r="2.2" fill="#ff718d"/><circle cx="731.1" cy="196.1" r="2.2" fill="#ff718d"/><circle cx="716.1" cy="257.7" r="2.2" fill="#ff718d"/><circle cx="701.5" cy="318.1" r="2.2" fill="#ff718d"/><circle cx="704.8" cy="361.8" r="2.2" fill="#ff718d"/><path d="M786.6 134.5s-.4-3.3 4.4 2.4 13.9 10.7 13.9 10.7 20.5 14.5 21.6 21.1 7.8 35.5 4.3 45.1-30.4 55.7-30.4 55.7 7 8.3 5.4 18.1S802 311 803 314s-1.1 10.3 2 13 6.5 7-3.3 12.9c0 0-1.9 5-.2 6s-24.6 12.7-35 6.5-29-54.9-29.4-65.8 5.8-47 9.1-55.5 13.3-41.6 17.6-49 22.8-47.5 22.8-47.5z" opacity=".1"/><path d="M787.7 134.5s-.4-3.3 4.4 2.4 13.9 10.7 13.9 10.7 20.5 14.5 21.6 21.1 7.8 35.5 4.3 45.1-30.4 55.7-30.4 55.7 7 8.3 5.4 18.1-3.7 23.3-2.8 26.3-1.1 10.3 2 13 6.5 7-3.3 12.9c0 0-1.9 5-.2 6s-24.6 12.7-35 6.5-29-54.9-29.4-65.8 5.7-47 9-55.5 13.4-41.6 17.6-49 22.9-47.5 22.9-47.5z" fill="#4c4981"/><path d="M795 166s-15.8 17.5-15.3 29.2c0 0-.2-18.9 15.4-29.3zM773 194.8c0 .6-10.7 40.5-10.1 45.5s-3.1 19.8-3.1 19.8l-5-1.3s3.8-20.6 4.6-28.1 13.7-35.9 13.7-35.9zM768.8 308.7c.4.6 25.3 28.9 18.3 30.9s-18.3-30.9-18.3-30.9zM789.3 301.5c.6.4 10 20.3 11.1 15s-8.1 14.6-9.6-.2zM741.4 140.8s-10.3-6.3-23.3 9.8c0 0-9.4 5.4-12.2 6.7s-5.9 35.6-5.9 35.6-6 14.8-4.4 23.3-4.8 37.8-4.8 37.8-10.7 52.5-10.4 54 11-16.5 10.7-25.3 9-36.7 10.2-38.3 10.2-49.2 10.2-49.2 7.2-20.2 11.8-26.8 10.4-19.3 12.8-21.5a24.2 24.2 0 0 1 5.7-3.7z" opacity=".1"/><path d="M741.5 140.8s-11.6-6.3-24.5 9.8c0 0-9.4 5.4-12.2 6.7s-6 35.6-6 35.6-6 14.8-4.4 23.3-4.8 37.8-4.8 37.8-10.7 52.5-10.3 54 10.9-16.5 10.7-25.3 8.9-36.7 10.2-38.3 10.1-49.2 10.1-49.2 7.2-20.2 11.9-26.8 10.3-19.3 12.7-21.5 6.9-3.7 6.9-3.7z" fill="#4c4981"/><path d="M690.8 256.4s-22-14.4-32.7-7.3-28 17.2-10.9 24.5 40.8 5.9 40.8 5.9z" fill="#fec2be"/><path d="M706 395.5c3.4 7 6 42.4 7.9 53.6 2.6-4.5 5.8-9.9 6.9-11.5a149 149 0 0 0 6.5-16.5c-2.1-5.1-8-19.7-8-25 0-6.6-10.4-14.7-10.4-14.7s-6.7 5.8-2.8 14.1zM776.8 504.1s-24.4-10.4-31.6-3 31.6 3 31.6 3zM763 508.3s24.8 13.9 16.3 16.2-16.2-16.2-16.2-16.2zM689.3 496.2s10.5.7 6.5 2.8-6.5-2.8-6.5-2.8zM676.1 499.4c.2.7 30.7 10.6 24.7 15s-24.7-15-24.7-15zM773.2 584.3c-4.6-.7-30-12.5-20.1-4s20.1 4 20.1 4zM760.6 593.6s-2.2 8.6-10.7 7.5 10.7-7.5 10.7-7.5zM767.7 611c-1.6-.4-19.7-8.7-20.2-4.8s17.4 10.7 18.8 8.6a7.4 7.4 0 0 0 1.4-3.7zM708.9 601c-2.3 0-23-6.7-27.2-.8zM690 605s-3.6-3.2-7.2-1.6 7.2 1.6 7.2 1.6zM736 639.3a6.2 6.2 0 0 1-4.7 4.9z" opacity=".1"/><path d="M630.2 652.4c1.4 5.7 20.8 6.2 30.1 4.7s28.6-7 28.6-7 20.2-2 26.2-4.5 1.2-8.9 1.2-8.9v-.5c.2-2.4.6-10.8-.8-13-1.7-2.7-.7-11.3-.7-11.3s-28.7 5.6-29.3 3-5-6.4-7-7.3-3.7 7-3.7 7-13 11-13.8 15-10 6.2-10 6.2-14 3.9-17.5 5.8a6.7 6.7 0 0 0-3.9 5.4 15.3 15.3 0 0 0 .6 5.4z" fill="#ca8496"/><path d="M630.2 652.4c1.4 5.7 20.8 6.2 30.1 4.7s28.6-7 28.6-7 20.2-2 26.2-4.5 1.2-8.9 1.2-8.9v-.5l-29 6.4s-14.2 6-23.4 6c-8 0-25.9 3.4-34.2-1.6a15.3 15.3 0 0 0 .5 5.4z" opacity=".1"/><path d="M669.5 630.5s1.4 9.1 7 12.2zM705.9 85.8a9 9 0 0 0 1.6.6c2.6.7 5.2-1 7.5-2.4s5.5-2.5 7.5-.6c2.6 2.3.7 7.4 3.4 9.7 1.7 1.4 4.4 1 6.3 2.1s2.4 3.8 3 6 1.3 4.9 3.5 5.6 4.3-.8 6.5-.7c.4 0 1 0 1.2-.3a1.3 1.3 0 0 0 .3-1 21.4 21.4 0 0 1 .7-8c.9-2.6 3-4.9 5.6-5.3 3.9-.6 7.2 2.8 9.5 6a98.3 98.3 0 0 1 6.5 10.6 7.8 7.8 0 0 1 .3.7 33.5 33.5 0 0 0 3-13.7 33.8 33.8 0 0 0-66.4-9.3z" opacity=".1"/><path d="M762.5 97c-2.3-3.3-5.6-6.7-9.5-6-2.6.4-4.7 2.7-5.6 5.2a21.2 21.2 0 0 0-.7 8 1.4 1.4 0 0 1-.2 1c-.3.3-.8.3-1.3.3-2.2-.1-4.3 1.3-6.4.7s-3.2-3.2-3.6-5.5-1-4.8-3-6-4.6-.7-6.3-2.1c-2.7-2.3-.8-7.4-3.4-9.8-2-1.8-5.2-.7-7.5.7s-4.8 3.1-7.5 2.4c-.8-.2-1.6-.7-2.5-1-4-1.6-9.4 1-12.8-1.8a9.8 9.8 0 0 1-2.6-4.4 28.2 28.2 0 0 1-1.8-7 9.4 9.4 0 0 1 1.9-7c2.1-2.6 5.9-3.2 8.7-5.1 2.4-1.7 4-4.2 5.6-6.6s3-5 5.4-6.7 5.5-2.6 8.1-1.3a9.2 9.2 0 0 0 2.7 1.2 5.5 5.5 0 0 0 3-.8c9.6-4.5 20.8-3.7 31.3-2.3 4.3.5 8.5 1.1 12.4 3s7.3 5 8.3 9c.9 3.3.2 6.9 1.3 10 .7 2.3 2.1 4 3 6.3 2.2 5.8-.5 12.2-1.6 18.4-1.3 6.7-.6 14-3.5 20.4-.6 1.2-1.2 3.4-2.6 2.6-1-.6-2-4.2-2.7-5.3a97.3 97.3 0 0 0-6.6-10.6z" fill="#9a5e7f"/><path d="M823.4 205.3l5 14.3s-11.9 44-17.4 53.2-13.7 21.1-13.7 21.1-13.7 6.9-29.6 3.7-62.3-11.5-62.3-11.5-3.9.8-6-2.2-12.5-4.4-12.5-4.4-12.2-17.8 2.8-25.2c0 0 1.8 4.1 9.8 1.3s10.3 2.3 10.3 2.3 13 2.5 20.2 1.6 25.1-1.3 27-2.8a2.4 2.4 0 0 1 3.3.2s4.4-1.6 6-3.3 3.4 1.8 3.4 1.8 2.6-1.4 1.9-3.3 2.4-8.9 2.4-8.9 1.5-4.6.5-8.3 4.7-17 4.7-17a23.5 23.5 0 0 0-.8-6.6c-.9-3.4 7-10 7-10s7.8-37.8 24.3-25.4 13.7 29.4 13.7 29.4z" opacity=".1"/><path d="M824.5 205.3l5 14.3s-11.8 44-17.4 53.2-13.7 21.1-13.7 21.1-13.7 6.9-29.6 3.7-62.3-11.5-62.3-11.5-3.9.8-6-2.2-12.5-4.4-12.5-4.4-12.2-17.8 2.8-25.2c0 0 1.8 4.1 9.8 1.3s10.3 2.3 10.3 2.3 13 2.5 20.2 1.6 25.1-1.3 27-2.8a2.4 2.4 0 0 1 3.3.2s4.5-1.6 6-3.3 3.5 1.9 3.5 1.9 2.5-1.5 1.8-3.4 2.4-8.8 2.4-8.8 1.5-4.7.6-8.4 4.6-17 4.6-17a23.5 23.5 0 0 0-.8-6.6c-.9-3.4 7-10 7-10s7.8-37.7 24.3-25.4 13.7 29.4 13.7 29.4z" fill="#4c4981"/><path d="M704.3 264.9c.2 1.3 4.2 6.5 2.8 7.4s-4 .3-1.7 3.3 2 7.4.5 6.8-3.8-7.2-3.8-9.8 2.2-7.7 2.2-7.7zM759.2 262s1.1 12.9 10.2 16.6-10.2-16.7-10.2-16.7zM778 257.5c.6.2 13 6.8 7.4 10.7s-7.3-10.7-7.3-10.7zM778.8 248.2s18.1 3.7 12 6.9-12-6.9-12-6.9z" opacity=".1"/><g opacity=".1"><path d="M747.4 93c.9-2.5 3-4.8 5.6-5.2 3.9-.6 7.2 2.8 9.5 6a97.2 97.2 0 0 1 6.5 10.6c.6 1 1.6 4.6 2.7 5.2 1.4.8 2-1.4 2.6-2.6 2.8-6.4 2.2-13.7 3.5-20.4.7-4 2-8 2.3-11.9.5 4.9-1.4 10-2.3 14.9-1.3 6.7-.7 14-3.5 20.4-.6 1.2-1.2 3.4-2.6 2.6-1-.6-2-4.2-2.7-5.3a97.2 97.2 0 0 0-6.5-10.5c-2.3-3.3-5.6-6.7-9.5-6-2.6.4-4.7 2.7-5.6 5.2a14.7 14.7 0 0 0-.7 4.2 19.1 19.1 0 0 1 .7-7.1zM689.6 75.5a10 10 0 0 0 2.6 4.4c3.3 2.9 8.7.2 12.8 1.8a25.2 25.2 0 0 0 2.5 1c2.6.7 5.2-1 7.5-2.4s5.5-2.5 7.5-.6c2.6 2.3.7 7.4 3.4 9.7 1.7 1.4 4.4 1 6.3 2.1s2.4 3.8 3 6 1.3 4.9 3.5 5.5 4.3-.8 6.5-.7c.4 0 1 0 1.2-.3a.7.7 0 0 0 .2-.2v2.2a1.4 1.4 0 0 1-.2 1c-.3.3-.8.3-1.2.3-2.2-.1-4.4 1.3-6.5.7s-3.1-3.3-3.6-5.5-1-4.8-3-6-4.5-.8-6.2-2.2c-2.7-2.3-.8-7.4-3.4-9.7-2-1.8-5.2-.8-7.5.6s-4.9 3.1-7.5 2.4c-.9-.2-1.7-.7-2.5-1-4.1-1.6-9.5 1-12.8-1.8a9.9 9.9 0 0 1-2.6-4.4 28 28 0 0 1-1.9-7 11.4 11.4 0 0 1 0-2.5 30 30 0 0 0 1.9 6.6z"/></g><path d="M233.6 563.2c0 62.4 36.2 113 80.9 113s80.9-50.6 80.9-113-36.2-113-81-113-80.8 50.6-80.8 113zm5.5-1.5c0-54.6 31.9-99 71.2-99s71.2 44.4 71.2 99-31.9 99-71.2 99-71.2-44.4-71.2-99z" fill="#35323e"/><path d="M304.7 316.3l5.6 94.8h109.6a38 38 0 0 1 25.8 9.8 34.4 34.4 0 0 1 11 22.3v142.3h-14l.2-9.7H304.7v-14H443l1.1-114.2a18.5 18.5 0 0 0-.4-4.3 22.5 22.5 0 0 0-9.7-14.5 18.1 18.1 0 0 0-9.3-2.4H300.5l-7-99h-41.8v-11.1z" fill="#464353"/><path d="M304.7 316.3l5.6 94.8h109.6a38 38 0 0 1 25.8 9.8 34.4 34.4 0 0 1 11 22.3v142.3h-14l.2-9.7H304.7v-14H443l1.1-114.2a18.5 18.5 0 0 0-.4-4.3 22.5 22.5 0 0 0-9.7-14.5 18.1 18.1 0 0 0-9.3-2.4H300.5l-7-99h-41.8v-11.1z" opacity=".1"/><path fill="#35323e" d="M301.2 367.2L196 363.7l5.6 146.5L454 513l-6.3-59.3-137.4 23-9-109.5z"/><path fill="#464353" d="M205.7 561.8h139.5v13.9H205.7z"/><path d="M300.5 551.2v-41h11.2v41c4 3.1 7 9.5 7 16.9 0 10.4-5.7 18.8-12.6 18.8s-12.6-8.4-12.6-18.8c0-7.4 2.9-13.8 7-16.9zM355.4 586.1a13.1 13.1 0 0 0-17.2-.6s-16.7 11.2-1.4 58.6c0 0 11.2 7 5.6-15.3s-2.8-36.3 2.8-36.3 12.5 15.4 12.5 15.4l9.8-4.2s-4.4-10.3-12.1-17.6zM460 586.1a13.1 13.1 0 0 0-17.2-.6s-16.7 11.2-1.4 58.6c0 0 11.2 7 5.6-15.3s-2.8-36.3 2.8-36.3 12.6 15.4 12.6 15.4l9.7-4.2s-4.4-10.3-12.1-17.6z" fill="#464353"/><ellipse cx="458.9" cy="639.9" rx="31.4" ry="41.9" fill="#35323e"/><ellipse cx="354.2" cy="639.9" rx="31.4" ry="41.9" fill="#35323e"/><path d="M582 721c-3.2-3.3-8.2-5.7-11.1-5.7-6.3 0-31-29.3-32.5-33.4-.6-1.5-1.6-1-2.7.3-2-4.7-4.6-11.4-5.3-16.1l4.3-1.2s.4-9.4-2-10.4c-2.3-1.3-2.3-20.7-2.3-20.7s-5.2-17.2-4.5-23.4-13.2-53.4-13.2-53.4-3.6-28.4-10.1-31.2c-5.6-2.5-52.3-15.8-66.8-20-.3-.6-2.5-5-9.8-5-7.9 0-31.5.3-39.4-8.8a18.2 18.2 0 0 1-2.4-4c3.9-7 4.1-19 2.7-21.7-2-3.9-3.3-11.7-3.3-11.7s-1-18.8-2.3-23.7-6.9-44.8-6.9-44.8-11.1-10.7-19-13a33 33 0 0 1-9.6-5l.3-1.7a29.5 29.5 0 0 0 10-16.7 4.7 4.7 0 0 0 .4-1.2 11.3 11.3 0 0 0 0-1.5l.2-2.8v-.3-.4a3.8 3.8 0 0 1 .6-1.3c1.1-1.6 3.5-2 5.4-2.8a8.2 8.2 0 0 0 .8-.4l.2-.2.6-.3.2-.3.4-.3.3-.3.4-.3.2-.4.3-.3.3-.4a4 4 0 0 0 .2-.4l.2-.4c0-.2.2-.2.2-.3l.2-.5a3.5 3.5 0 0 0 .2-.3l.2-.5v-.3l.2-.6a15.6 15.6 0 0 0 .5-5.3l-.1-1.3c-.5-3-1.6-6-1.3-9l.2-.8a8 8 0 0 1 .2-.9c.4-1.2 1.1-2.3 1.5-3.5a6.9 6.9 0 0 0 .2-.7v-.2-.6-.2a7.6 7.6 0 0 0 0-1.6 10.7 10.7 0 0 0-3.6-6 27.5 27.5 0 0 0-9.8-4.9c-9-3-18.4-5.8-27.9-6.4-4.2-.3-9.6-1.6-13 1-3.9 3-6.3 5.2-11.2 7.3-3.5 1.4-7.2 3.7-8 7.3a28 28 0 0 0-.2 4.7c-.1 3.2-1.7 6.2-2.6 9.3a14 14 0 0 0-.8 5.5v.1l.1.7a7.5 7.5 0 0 0 .4 1.5l.1.1.3.5v.2l.5.6c.6.8 1.4 1.5 2 2.4a9.6 9.6 0 0 1 1.1 4.3l.5 4.5v.4l-.1 2a30.3 30.3 0 0 0 .4 4.7c-3.4 2.5-6.8 5.5-7.5 7.7a3.7 3.7 0 0 0-.8 2.2c-3.1 2.4-16.4 1-16.4 1s-10.9 5.8-14.8 3.6-27.6 15.9-27.6 15.9-6.2.3-6.6 3c0 0-7.8 5.8-13.8 5.8s-9.5 7.4-9.5 7.4-9.8 4.6-13.1 5.2-9 4-7.3 5.2-.3 4.3-3.2 6.5-7.6 14-3.7 15.6 14.8 5 17.8 6.5a6.4 6.4 0 0 0 3.7.7 9.4 9.4 0 0 0 4.2-.7l.4-.5c3.9 2.9 9 5.9 13.8 6.4 7.6.7 24 3.9 30.9 5.2v1.3c0 12.1.5 24.7 2.8 28.6 5 8.1 5.6 71.8 5.6 71.8s15.5 2.3 20.7 7.1c5 4.6 30.2 13 35.2 2.1l1.6.7c12.7 5.5 29.7 13.4 31.7 17 3.1 5.8 25.8 15.6 25.8 15.6s14.8.3 10.5 14 28.4 46.4 28.4 46.4a9 9 0 0 0 1.9 5.7 9.3 9.3 0 0 0 1.4 1.5c1.3 1 5.4 2.8 10.1 3.6 1.2 2.7 2.2 5 2 5.5s1.4 1.8 3.5 3.6a74.3 74.3 0 0 0 5.7 10.3 8.5 8.5 0 0 0 2.9 3c3.2 1.3 36.5 21 42.8 21.7 5.8.6 17.6 3.5 28.2-4.8l-1.7 13.9-.6 4.6s16.8 6.8 23.7 6.8 30.2 11 30.2 11 15.4 3.3 25.6-3.5c5.4-3.6 3.9-8.2.3-11.8zM476 570.3c-1.6 3.6-.6 10 .2 10s4.4 5.3 2.4 11.1 12.8 59.2 19.4 66.3l-.1.5c-.5 2.2-1.9 11 7.3 11.5h1c.8 5.6 1.8 14.3 2.5 21.6-1.5-4.3-7.2-8.7-13-12.1a113.8 113.8 0 0 0-13.1-6.7s-18.4-4.4-22.4-8-15.7-10.2-15.7-10.2l-5.8-5.3.2-2.4a38.5 38.5 0 0 0-1.8-5c-.7-1.8-1.7-3.5-2.8-4.2-2.6-1.6-11.5-35-11.5-39s-5.6-22.4-7.6-25.6-4.2-11.4-4.2-11.4 29.8 4.6 57.8 2c0 0 8.8 3.3 7.2 7zM244.7 420.2v.4l-1.8-.5 1.8.1zm94.8-49.6v1.8l-.3-.3-.8-1 1.1-.5zm32.1 68.4l-.5-3 .2-1.8zm-152-23a9.6 9.6 0 0 1 2.2-.5 5.3 5.3 0 0 1 1.8.5l2.4 1-5.7-1a3.2 3.2 0 0 0-.6 0z" transform="translate(-40.5 -84)" fill="url(#b)"/><path d="M373.7 566.7s6.6 13.6 6.3 14.6 14.1 12.6 14.1 12.6l15.8-11.3-1.6-7.8s-17.7-16-19-17.8-15.6 9.7-15.6 9.7z" fill="#a1616a"/><path d="M463.8 612.9c-11 10.6-23.9 7.4-30 6.8s-38.9-20.4-42-21.6a8.3 8.3 0 0 1-2.9-3 75.4 75.4 0 0 1-5.5-10.2c.2 0 11 3.1 13.6 0 0 0 4.5-5.5 5.5-5.5s0-9.8 0-9.8 11.6 6.5 15.5 10 22 8 22 8a111.3 111.3 0 0 1 13 6.6c8.5 5.3 17 12.6 10.8 18.7z" fill="#67647e"/><path d="M463.8 612.9c-11 10.6-23.9 7.4-30 6.8s-38.9-20.4-42-21.6a8.3 8.3 0 0 1-2.9-3c3.8-2.2 28.7 13.6 35.7 16.5s24.6 1.3 34.6-2.9c5-2 0-8.5-6.3-14.4 8.6 5.2 17.1 12.5 10.9 18.6z" opacity=".1"/><path d="M462.5 579.3s4.6 34.5 3.4 39 28.9-15.4 28.9-15.4-10.5-21.7-7.5-26.6-24.8 3-24.8 3z" fill="#a1616a"/><path d="M491.2 580s-18.7 5.5-29 4.8c-9-.5-7.7-9.2-7.2-11.4l.1-.5c-6.4-7-21-60-19-65.8s-1.6-11-2.4-11-1.8-6.4-.2-10-7-6.8-7-6.8c-27.5 2.6-56.8-2-56.8-2s2.2 8.2 4.2 11.4 7.4 21.6 7.4 25.5 8.7 37 11.3 38.6c1 .7 2 2.4 2.8 4.1a39.1 39.1 0 0 1 1.7 5c-1 21.6-25.5 13.2-29 10.3a8.8 8.8 0 0 1-3.2-7.1s-32-32.5-27.8-46-10.4-13.9-10.4-13.9-22.2-9.7-25.3-15.5c-2-3.6-18.6-11.4-31.2-17l-14-6 5.2-18.6 4.1-14.8 7.8-3 24.7-9.2 44.6-6.2 4 .6L390 421s63.2 18 69.7 20.9 10 31 10 31 13.5 46.7 12.9 52.9S487 549 487 549s0 19.3 2.2 20.6c2.3 1 2 10.3 2 10.3z" fill="#4c4981"/><path d="M426.4 479.4c-27.4 2.6-56.8-2-56.8-2-2-6.1-29-22.9-29-22.9 22.2-5.4 85.8 24.9 85.8 24.9z" opacity=".1"/><path d="M397 562c-1 21.5-25.4 13.2-29 10.3a9 9 0 0 1-1.3-1.4c8.5 3.1 23.7 5.5 28.7-13.9a39.1 39.1 0 0 1 1.6 5zM491.2 580s-18.7 5.5-29 4.8c-9-.5-7.7-9.2-7.2-11.4 9.5-.3 25.8-1.2 34.2-3.8 2.3 1 2 10.4 2 10.4z" fill="#444053"/><path d="M397 562c-1 21.5-25.4 13.2-29 10.3a9 9 0 0 1-1.3-1.4c8.5 3.1 23.7 5.5 28.7-13.9a39.1 39.1 0 0 1 1.6 5zM491.2 580s-18.7 5.5-29 4.8c-9-.5-7.7-9.2-7.2-11.4 9.5-.3 25.8-1.2 34.2-3.8 2.3 1 2 10.4 2 10.4z" opacity=".1"/><path d="M537.3 647.4c-10 6.8-25.1 3.5-25.1 3.5s-23-11-29.7-11-23.2-6.7-23.2-6.7l.5-4.6 2.7-21.8s25.1-.7 26.1-3c0 0 4.5-11 6.1-7s25.9 33.2 32 33.2c2.9 0 7.7 2.4 10.9 5.7 3.5 3.5 4.9 8.1-.3 11.7z" fill="#67647e"/><path d="M450.6 456.8s-21 13.2-15.2 16.1 15.2-16 15.2-16zM459.3 482.3s-18 17.1-11.3 17.6 11.3-17.6 11.3-17.6zM478.6 536.8S469.5 554 473 557s5.7-20.2 5.7-20.2zM377.7 554.2c3.2 3.2-30.6-10.6-23-11.3s23 11.3 23 11.3z" opacity=".1"/><path d="M310 312.4l-1.1-.2a583.6 583.6 0 0 1-40.7-7.9c-10-2.6-16.7-5.4-12.4-7.7 5.7-3.1 8.6-8.7 10.2-13.5l.4-1.4a35.6 35.6 0 0 0 1.3-7.4s36.5-12.9 29.4 0c-3.5 6.3-1.2 11.5 2.1 15.1a28.3 28.3 0 0 0 7.9 5.9z" fill="#a1616a"/><path d="M271 302.4s13 9.3 26.3 1.6 30.7 68.3 30.7 68.3l18 44.5s11.8 9.7-2.8 13.9-46.8-4.2-55 8-23.7 14.3-25.3 14.3-7.8-46.2-7.8-46.2l-1.6-66.7z" opacity=".1"/><path d="M342.6 428.1c-14.6 4.2-46.9-4.2-55 8a31.6 31.6 0 0 1-13.9 11.2 36.5 36.5 0 0 1-11.4 3c-.2 0-.5-.8-.9-2.3-2.3-9.3-6.9-43.8-6.9-43.8l-1.6-66.7 15.4-33.2 2-4.5a27.6 27.6 0 0 0 6.7 3.2 23.4 23.4 0 0 0 19.7-1.6c4-2.3 8.2 2.6 12.2 10.8 9.8 19.5 18.5 57.5 18.5 57.5l18 44.5a15.7 15.7 0 0 1 1.3 1.2c2.5 2.7 7.3 9.4-4.1 12.7z" fill="#f3f5f9"/><path d="M273.2 430.4a84 84 0 0 1 .5 17 197.7 197.7 0 0 1-3 24 8 8 0 0 1-.4 1.4l-14.1-6 5.2-18.7c-2.3-9.4-7-43.8-7-43.8l-1.5-66.8 15.3-33.2c-10-2.6-16.7-5.4-12.4-7.7 6.2-3.4 9.2-9.8 10.6-14.9a54.1 54.1 0 0 0 9.2 9.9l.2.2L277 303l.3 3.5.8 7.2s-3.6 84.8-6.2 89.6-1.3 14.2 1 25.1l.3 2z" opacity=".1"/><path d="M271.6 427.1c2.3 11 .3 29-2.3 43s-30 4.8-35.1 0-20.3-7.2-20.3-7.2-.7-63.2-5.5-71.2c-2.3-3.8-2.8-16.3-2.8-28.4 0-10.8.6-21.3.8-24.8v-1.3s-21-35.5-20.6-38 6.5-3 6.5-3 23.2-18 27-15.8S234 277 234 277s13.5 1.5 16.2-1a1.4 1.4 0 0 0 .5-1.3c-.3-4.1 13.8-13 14.2-13.2-11.8 10.7 7.3 27.1 9.5 28.9l.2.2 2.3 21.9s-3.6 84.8-6.2 89.6-1.3 14.2 1 25.1z" fill="#007bff"/><circle cx="270.4" cy="335" r="1.6" fill="#444053"/><path d="M273.7 291.6l-9.8 9.5-14.4-24a1.4 1.4 0 0 0 .5-1.2c-.3-4.1 13.7-13 14.2-13.2-11.9 10.7 7.3 27 9.5 28.9z" opacity=".1"/><circle cx="267.1" cy="386.6" r="1.6" opacity=".1"/><circle cx="267.1" cy="386" r="1.6" fill="#444053"/><path d="M274.3 290.3l-9.8 9.5-14.4-24a1.4 1.4 0 0 0 .5-1.2c-.3-4.1 13.8-13 14.2-13.2-11.8 10.7 7.3 27.1 9.5 28.9z" fill="#007bff"/><path d="M393.5 424.3c-8 3.5-61-5.9-68.7-8.1s-19-19.7-13.5-32.3-2-24.8-2-24.8-11.6-24.9-14.2-29.7-8-19-8.7-21.3a2 2 0 0 1 .5-1.5c2-3.1 10.2-8.8 10.2-8.8 2.2.8 2.5-5.7 2.4-10.5 0-2.7-.2-4.8-.2-4.8a45.6 45.6 0 0 0 5 4.3 33.6 33.6 0 0 0 10.2 5.6 64.7 64.7 0 0 1 18.7 12.9l-3.2 49.5s7.4 46.6 15.1 55.6 31 8.7 38.7 8.7 9.7 5.2 9.7 5.2z" opacity=".1"/><path d="M394.1 422.3c-8 3.6-61-5.8-68.7-8s-19-19.7-13.5-32.3-2-24.8-2-24.8-11.5-24.8-14.1-29.7-8-19-8.7-21.3a1.9 1.9 0 0 1 .4-1.4c2.1-3.2 10.2-8.9 10.2-8.9 2.3.8 2.6-5.7 2.5-10.5 0-2.7-.2-4.8-.2-4.8a48.8 48.8 0 0 0 5 4.3 33.3 33.3 0 0 0 10.1 5.6 64.8 64.8 0 0 1 18.7 12.8l-3.2 49.5s7.4 46.6 15.2 55.6 31 8.8 38.7 8.8 9.6 5.1 9.6 5.1z" fill="#007bff"/><path d="M306.4 281.9l-.8 4.3c-1.7 8.9-5.9 28.2-8.9 27.4-2-.5-5.7-4.3-8.5-7.6 2-3.2 10.2-8.8 10.2-8.8 2.2.8 2.5-5.7 2.4-10.5l2.6-2.2z" opacity=".1"/><path d="M305.8 280.6l-.8 4.3c-1.8 8.9-6 28.2-8.9 27.5-2.1-.6-5.8-4.4-8.6-7.6 2.1-3.2 10.2-8.9 10.2-8.9 2.3.8 2.6-5.7 2.5-10.5l2.6-2.2z" fill="#007bff"/><path fill="#f86d70" d="M304.5 329.8v32.8l-8.7 17.4-.3.6-22.9-1.6-8.8-.6-20.4-1.3V338l20.4.6 9.2.2 23 .7 8.5-9.7z"/><path opacity=".1" d="M304.5 331.8v30.8l-2.1 4.2-2.2 4.4-4.4 8.8.5-32.7.1-6.6 4.2-4.6 1.8-2 2-2.3z"/><path fill="#f86d70" d="M305.6 321.1v11.5l-1.1 1.8-2.1 3.4-1.9 3-4.1 6.5h-.1l-54.7-2.8v-11.3l.2-.1 6.5-7.1 2.3-2.6 4.3-4.6 50.7 2.3z"/><path opacity=".1" d="M296.4 336v11.3l-54.8-2.8v-11.3l.2-.1 54.6 3zM305.6 321.1v11.5l-9.2 14.7V336l9.2-14.9z"/><path fill="#3f3d56" d="M302.4 326.4v40.4l-2.2 4.4.3-30.4V336l.1-6.9-52.3-3.2 2.3-2.6 51.8 3z"/><path fill="#3f3d56" d="M276.7 326.8l-3.7 8v4l-.4 40.2-8.8-.6v-44.2l4.7-7.4h8.2z"/><path d="M264.6 327.3a11.5 11.5 0 0 1-6.6.2 2.6 2.6 0 0 1-1.1-.5 3 3 0 0 1-.7-1.4 11 11 0 0 1-.6-3.4 3.7 3.7 0 0 1 1.4-3 3.5 3.5 0 0 0 .5-.4 2.1 2.1 0 0 0 .4-.8c.6-2 1.9-4 3.9-4.2s3.5 1 5 2.2l3 2.6a5 5 0 0 1 9.2-.1 17.3 17.3 0 0 1 6.9-4.8 2.2 2.2 0 0 1 1.8 0 2.2 2.2 0 0 1 .7 1 15 15 0 0 1 1.4 5.9 1 1 0 0 1 1.2.4 2.6 2.6 0 0 1 .4 1.3 17 17 0 0 1 .1 2.1 3.2 3.2 0 0 1-.6 2.2 3.5 3.5 0 0 1-2.7.8 1 1 0 0 1-.2 1.6 3.1 3.1 0 0 1-1.9.4c-2.4 0-5-.1-7-1.5l-2.2-1.7c-2-1.3-4.4-1.4-6.7-1.3-2 0-3.7 1.8-5.6 2.4z" fill="#3f3d56"/><path d="M264.1 326.8s-20.1 2.8-23 15l4.3-.6 3 5.3s3.1-12 12.3-14.7 12.5-3.3 12.5-3.3 6.5 1.6 12.3 20.2l3.2-4.6 5.8 1.3s-4.2-14.6-15.6-18.6z" fill="#3f3d56"/><path d="M326.4 375.6s-16.1-3.3-20.6-10.4-35.2-13.2-31.5-5.8 31.5 31.7 31.5 31.7l12 17.2 16-4 6.7-13.2z" fill="#a1616a"/><path d="M288.3 394s15.6 5.8 18 13.5-18-13.5-18-13.5zM278.7 403s-1.4 8 18.2 7.4zM194.2 299.8l-7-.7s-7.8 5.8-13.6 5.8-9.4 7.5-9.4 7.5-9.6 4.5-12.9 5.1-8.7 3.9-7 5.2-.4 4.2-3.3 6.4-7.4 13.9-3.5 15.5 14.5 4.8 17.4 6.5 6.4 0 6.4 0 17.1-22.3 25.8-18.1 20.6 4.2 20.6 4.2l9.4-19.7z" opacity=".1"/><path d="M342.6 405.9a8.6 8.6 0 0 1-6 4.2 45.6 45.6 0 0 1-18.8-1.8S350.3 398 319 373h8.4l2.8-1-1.3-6.7-1.8-60.3 6.8-1.6s5.4 39.7 6.7 44.5 2.3 23.6 2.3 23.6 1.3 7.7 3.2 11.6c1.4 2.9 1 16-3.5 22.9z" fill="#007bff"/><path d="M341.3 405.9a8.6 8.6 0 0 1-6 4.2 45.6 45.6 0 0 1-18.8-1.8S349 398 317.7 373h8.4l2.8-1c4.6 8 11.8 22.6 12.4 34z" opacity=".1"/><path d="M342.6 405.9a8.6 8.6 0 0 1-6 4.2 45.6 45.6 0 0 1-18.8-1.8S350.3 398 319 373h8.4l2.8-1c4.6 8 11.8 22.6 12.4 34z" fill="none"/><path d="M342.6 405.9a8.6 8.6 0 0 1-6 4.2 45.6 45.6 0 0 1-18.8-1.8S350.3 398 319 373h8.4l2.8-1c4.6 8 11.8 22.6 12.4 34z" fill="#007bff"/><path d="M299.2 289.4a29.4 29.4 0 0 1-33.2-6.3l.4-1.4a35.6 35.6 0 0 0 1.3-7.4s36.5-13 29.4 0c-3.5 6.3-1.2 11.5 2.1 15.1z" opacity=".1"/><path d="M316.4 261.4v.3a25.8 25.8 0 0 1-.5 5.5 29.4 29.4 0 0 1-56.6 3.7c-.2-.5-.4-1-.5-1.7a29.2 29.2 0 0 1-1-7.8v-2a29.3 29.3 0 0 1 58.6 2z" fill="#a1616a"/><path d="M316.4 261.7a13.2 13.2 0 0 0-.1 2.8 11.1 11.1 0 0 1-.1 1.5 4.4 4.4 0 0 1-.3 1.2c-1.2 2.7-5.1 4.5-7.6 2.7a8.3 8.3 0 0 1-2.3-3c-2.8-5-6.5-10.8-12.5-10.9-2.5 0-4.9 1-7.3 1.7s-5.4.7-7.2-1c-1.4-1.3-2-3.5-4-4s-3.5 1.3-4.4 3-1.6 3.7-3.3 4.6c-.8.4-1.7.5-2.4.9-3.6 2-2 8.6-5.6 9.7l-.3.1-.2-1.8-1-9.8a29.3 29.3 0 0 1 58.6 2z" opacity=".1"/><path d="M264.3 217.6c-3.4 1.5-7 3.7-7.8 7.2a28.6 28.6 0 0 0-.2 4.8c-.1 3.1-1.7 6-2.6 9.1s-1.3 6.6.6 9.2l2 2.3a9.5 9.5 0 0 1 1 4.3l1.7 15.9c4-.8 2.2-7.9 5.9-9.8.7-.5 1.6-.6 2.4-1 1.7-.8 2.4-2.8 3.3-4.5s2.6-3.4 4.5-3 2.5 2.6 4 4c1.7 1.6 4.7 1.5 7.1 1s4.8-1.8 7.3-1.7c6 0 9.8 5.9 12.5 10.9a8.4 8.4 0 0 0 2.3 3c2.8 2 7.4-.5 7.9-4 .3-1.8-.3-4 .8-5.5s3.4-2 5.3-2.8c4.7-2.2 6.1-8 5.4-13-.6-3.6-2-7.3-.9-10.7.4-1.2 1.1-2.2 1.5-3.4 1-3.3-.7-7-3.3-9.4s-6.2-3.6-9.6-4.8c-8.8-2.9-18-5.8-27.4-6.4-4-.2-9.4-1.5-12.7 1-3.8 3-6.2 5.3-11 7.3z" fill="#464353"/><circle cx="272" cy="309.6" r="1.6" opacity=".1"/><circle cx="272" cy="308.9" r="1.6" fill="#444053"/><circle cx="261.6" cy="410.8" r="1.6" opacity=".1"/><circle cx="261.6" cy="410.2" r="1.6" fill="#444053"/><circle cx="267.1" cy="437.6" r="1.6" opacity=".1"/><circle cx="267.1" cy="436.9" r="1.6" fill="#444053"/><path d="M322.6 335s3.5 24.1 0 28.3 0-28.2 0-28.2zM217.1 379.8s-6.8 14.5 0 28.5 11 19.7 8.7 28.6-8.7-57.1-8.7-57.1zM537.3 647.4c-10 6.8-25.1 3.5-25.1 3.5s-23-11-29.7-11-23.2-6.7-23.2-6.7l.5-4.6c6.7 1.3 21.9 4.4 23.6 5.9 2.3 1.9 30 11.3 30 11.3s19-2.4 24.2-10.2c3.5 3.6 4.9 8.3-.3 11.8z" opacity=".1"/><g opacity=".1"><path d="M256.3 227v-1 1.1a.8.8 0 0 0 0-.1zM322.3 254.4c-1.9.9-4.2 1.2-5.3 2.8s-.6 3.7-.8 5.6c-.5 3.4-5 6-8 4a8.3 8.3 0 0 1-2.2-3c-2.8-5-6.5-10.9-12.5-11-2.5 0-4.9 1-7.3 1.6s-5.4.8-7.2-1c-1.4-1.2-2-3.4-4-3.9s-3.5 1.3-4.4 3-1.6 3.7-3.3 4.6c-.8.4-1.7.5-2.4.9-3.7 2-1.8 9-6 9.8l-1.5-15.8a9.5 9.5 0 0 0-1.2-4.3c-.5-.9-1.3-1.5-1.9-2.3a7.2 7.2 0 0 1-1.3-3.4 8.3 8.3 0 0 0 1.3 6c.6.8 1.4 1.4 2 2.3a9.5 9.5 0 0 1 1 4.3l1.7 15.8c4-.7 2.2-7.8 5.9-9.8.7-.4 1.6-.5 2.4-1 1.7-.8 2.4-2.8 3.3-4.5s2.6-3.4 4.5-3 2.5 2.7 4 4c1.7 1.6 4.7 1.5 7.1 1s4.8-1.8 7.3-1.7c6 0 9.7 5.9 12.5 11a8.4 8.4 0 0 0 2.2 3c3 2 7.5-.6 8-4 .3-1.9-.3-4 .8-5.6s3.4-2 5.3-2.8c4.3-2 5.8-7 5.5-11.7-.3 3.8-2 7.5-5.5 9.1zM328.3 227.3c-.4 1.2-1 2.3-1.5 3.5a10 10 0 0 0-.3 4.3 8.1 8.1 0 0 1 .4-1.7l1.4-3.4a7.3 7.3 0 0 0 .2-3.4 7.5 7.5 0 0 1-.2.7z"/></g><path d="M233.6 370.7a544 544 0 0 1-24.9-6.8l-3-.6c0-10.8.5-21.3.7-24.8s14.9 4.8 18.4 7.4 14.5 2 14.5 2 17.1 1 31.3 16.7-29.6 7.7-37 6.1z" opacity=".1"/><path d="M161 342a4.3 4.3 0 0 0-1 7.2c4 3.2 9.7 7.1 15.2 7.7 9.1.9 31.1 5.3 33.3 5.7l.3.1c1.9.5 17.7 5.2 24.7 6.7 7.4 1.6 51.3 9.7 37-6a50.1 50.1 0 0 0-31-16.8 5.4 5.4 0 0 0-.5 0c-1.6 0-11 .4-14.2-2a30.6 30.6 0 0 0-5.4-2.7 102 102 0 0 0-21.8-6.3l-15.1-2.5a4.4 4.4 0 0 0-2.6.3z" fill="#a1616a"/><path d="M193 299.8l-7.2-.7s-7.7 5.8-13.5 5.8-9.4 7.5-9.4 7.5-9.6 4.5-12.9 5.1-8.7 3.9-7 5.2-.4 4.2-3.3 6.4-7.4 13.9-3.5 15.5 14.5 4.8 17.4 6.5 6.4 0 6.4 0 17.1-22.3 25.8-18.1 20.7 4.2 20.7 4.2l9.4-19.7z" fill="#007bff"/><path d="M208.4 418v83.8h134v14H209.8v60h-14V418z" fill="#464353"/><path d="M147 316.3h53l5.6 94.8h109.7a38 38 0 0 1 25.8 9.8 34.4 34.4 0 0 1 11 22.3v142.3h-13.9l1.4-137.9a18.5 18.5 0 0 0-.5-4.2 22.5 22.5 0 0 0-9.7-14.5 18.1 18.1 0 0 0-9.3-2.4H196l-7-99H147z" fill="#464353"/><path d="M129 563.2c0 62.4 36.1 113 80.8 113s81-50.6 81-113-36.3-113-81-113-80.9 50.6-80.9 113zm5.5-1.5c0-54.6 31.9-99 71.2-99s71.1 44.4 71.1 99-31.9 99-71.2 99-71.1-44.4-71.1-99z" fill="#35323e"/><ellipse cx="201.5" cy="566.7" rx="12.6" ry="18.8" fill="#35323e"/><ellipse cx="198.7" cy="567.4" rx="2.8" ry="5.6" fill="#464353"/><path d="M349.4 539.5v15.3c4.3-2.7 9.2-2 13.4-.1a25.3 25.3 0 0 1 14 16.4c3.3 11.7 10 34.7 15.8 56.3 8.4 30.7 23.7 23.7 23.7 23.7l106.8 7.7 45.3-23v-14H454l-37.7 14c-11.2 4.3-7-4.2-21.7-56.9s-45.2-39.4-45.2-39.4z" fill="#464353"/><path opacity=".1" d="M416.3 651.1l106.8 7.7 45.3-23-111.6-1.4-40.5 16.7z"/><ellipse cx="1025.1" cy="635.1" rx="59.5" ry="11.4" fill="#007bff"/><ellipse cx="1024.1" cy="630.3" rx="6.9" ry="9.1" fill="#3f3d56"/><ellipse cx="1024.1" cy="619.2" rx="6.9" ry="9.1" fill="#3f3d56"/><ellipse cx="1024.1" cy="608.1" rx="6.9" ry="9.1" fill="#3f3d56"/><ellipse cx="1024.1" cy="597" rx="6.9" ry="9.1" fill="#3f3d56"/><ellipse cx="1024.1" cy="585.9" rx="6.9" ry="9.1" fill="#3f3d56"/><ellipse cx="1024.1" cy="574.9" rx="6.9" ry="9.1" fill="#3f3d56"/><ellipse cx="1024.1" cy="563.8" rx="6.9" ry="9.1" fill="#3f3d56"/><path d="M1050 488a34.3 34.3 0 0 0 2.6-3.8l-18.2-3 19.7.1a33.3 33.3 0 0 0 .6-26.3l-26.4 13.7 24.3-17.9A33.2 33.2 0 1 0 998 488a33.6 33.6 0 0 0-3.8 6l23.6 12.3-25.2-8.5a33.2 33.2 0 0 0 5.3 31.2 33.2 33.2 0 1 0 52.2 0 33.2 33.2 0 0 0 0-41z" fill="#007bff"/><path d="M990.8 508.5a33 33 0 0 0 7 20.5 33.2 33.2 0 1 0 52.2 0c4.5-5.6-59.2-24.2-59.2-20.5z" opacity=".1"/><ellipse cx="93.1" cy="637.6" rx="40.9" ry="7.9" fill="#007bff"/><ellipse cx="92.4" cy="634.2" rx="4.8" ry="6.2" fill="#3f3d56"/><ellipse cx="92.4" cy="626.6" rx="4.8" ry="6.2" fill="#3f3d56"/><ellipse cx="92.4" cy="619" rx="4.8" ry="6.2" fill="#3f3d56"/><ellipse cx="92.4" cy="611.4" rx="4.8" ry="6.2" fill="#3f3d56"/><ellipse cx="92.4" cy="603.7" rx="4.8" ry="6.2" fill="#3f3d56"/><ellipse cx="92.4" cy="596.1" rx="4.8" ry="6.2" fill="#3f3d56"/><ellipse cx="92.4" cy="588.5" rx="4.8" ry="6.2" fill="#3f3d56"/><path d="M110.2 536.3a23.5 23.5 0 0 0 1.8-2.6l-12.5-2 13.5.1a22.8 22.8 0 0 0 .5-18l-18.2 9.4 16.8-12.3a22.8 22.8 0 1 0-37.7 25.5 23.2 23.2 0 0 0-2.6 4.1L88 549l-17.3-5.8a23 23 0 0 0-1.2 7.3 22.7 22.7 0 0 0 4.9 14.1 22.8 22.8 0 1 0 35.8 0 22.8 22.8 0 0 0 0-28.2z" fill="#007bff"/><path d="M69.5 550.5a22.7 22.7 0 0 0 4.9 14 22.8 22.8 0 1 0 35.8 0c3-3.8-40.7-16.6-40.7-14z" opacity=".1"/><ellipse cx="608.1" cy="613.1" rx="29.9" ry="5.8" fill="#007bff"/><ellipse cx="607.6" cy="610.6" rx="3.5" ry="4.6" fill="#3f3d56"/><ellipse cx="607.6" cy="605" rx="3.5" ry="4.6" fill="#3f3d56"/><ellipse cx="607.6" cy="599.5" rx="3.5" ry="4.6" fill="#3f3d56"/><ellipse cx="607.6" cy="593.9" rx="3.5" ry="4.6" fill="#3f3d56"/><ellipse cx="607.6" cy="588.3" rx="3.5" ry="4.6" fill="#3f3d56"/><ellipse cx="607.6" cy="582.8" rx="3.5" ry="4.6" fill="#3f3d56"/><ellipse cx="607.6" cy="577.2" rx="3.5" ry="4.6" fill="#3f3d56"/><path d="M620.6 539a16.4 16.4 0 0 0 1.3-1.8l-9.1-1.5h9.9a16.8 16.8 0 0 0 1.5-7 16.6 16.6 0 0 0-1.2-6.2l-13.3 6.9 12.2-9a16.7 16.7 0 1 0-27.5 18.7 16.8 16.8 0 0 0-2 3l12 6.1-12.7-4.2a16.7 16.7 0 0 0 2.7 15.7 16.7 16.7 0 1 0 26.2 0 16.7 16.7 0 0 0 0-20.7z" fill="#007bff"/><path d="M590.8 549.4a16.6 16.6 0 0 0 3.6 10.3 16.7 16.7 0 1 0 26.2 0c2.3-2.9-29.8-12.2-29.8-10.3z" opacity=".1"/><circle cx="467.9" cy="93.7" r="15.3" fill="#007bff" opacity=".1"/><circle cx="522.6" cy="25.6" r="25.6" fill="#007bff" opacity=".1"/><circle cx="488.7" cy="149.8" r="25.6" fill="#007bff" opacity=".1"/><circle cx="963.4" cy="254.7" r="15.3" fill="#007bff" opacity=".1"/><circle cx="908.8" cy="186.6" r="25.6" fill="#007bff" opacity=".1"/><circle cx="942.7" cy="310.8" r="25.6" fill="#007bff" opacity=".1"/><circle cx="100.3" cy="282.4" r="8.7" fill="#007bff" opacity=".1"/><circle cx="137.3" cy="249.6" r="14.5" fill="#007bff" opacity=".1"/><circle cx="68" cy="272.1" r="14.5" fill="#007bff" opacity=".1"/><circle cx="216.1" cy="119.3" r="36.3" fill="#007bff" opacity=".1"/><circle cx="425.1" cy="303.3" r="20.9" fill="#007bff" opacity=".1"/><circle cx="579.1" cy="403.3" r="20.9" fill="#007bff" opacity=".1"/></svg>