<svg xmlns="http://www.w3.org/2000/svg" xmlns:xlink="http://www.w3.org/1999/xlink" width="1143.1" height="862.9" data-name="Layer 1"><defs><linearGradient id="a" x1="551.5" x2="551.5" y1="688.4" y2="150.1" gradientUnits="userSpaceOnUse"><stop offset="0" stop-color="gray" stop-opacity=".3"/><stop offset=".5" stop-color="gray" stop-opacity=".1"/><stop offset="1" stop-color="gray" stop-opacity=".1"/></linearGradient><linearGradient id="b" x1="1059.5" x2="1059.5" y1="856.6" y2="468.9" xlink:href="#a"/><linearGradient id="c" x1="814.7" x2="814.7" y1="881.3" y2="496.8" gradientTransform="matrix(-1 -.04 -.04 1 1070.9 21.3)" xlink:href="#a"/></defs><ellipse cx="1023.8" cy="834.1" fill="#007bff" opacity=".1" rx="100.1" ry="24.7"/><ellipse cx="140" cy="838.2" fill="#007bff" opacity=".1" rx="100.1" ry="24.7"/><path fill="#007bff" d="M684.7 232.9s-14-5.7-58.8 14.8-50.3 17.9-61.9 14.8-18-4-30.4-21c0 0-8.8-47.5-17.3-54.9s-44.5 4.2-44.5 4.2-43.2 10-51.4-47.8c0 0 5.8-43.5-2.1-56.9 0 0 16 7 42.5-4.2s47.7 12 47.7 12 6.7 17.3 6 27.6 3.6 14.2 16.2 9.2c0 0 6.2-8.8-2.6-23.4s-15-25.5-12.6-36.8 9.5-27 32.2-35S601 26.3 615.9 20 634.2 10 634.2 10s-9 9.1 12.4 47.7 7.7 55.4 7.7 55.4-11.4 27.2-61.7 25c0 0-48.4 1.8-22 22.4 0 0 17-3.5 42.3-11.5s43.5 25.1 48 48.2 23.8 35.8 23.8 35.8z"/><path fill="#444053" d="M619.6 39.2h.2c2 7.3-19.7 37-38.2 60.5l-.2-.2c26.1-33.2 39.7-54.6 38.2-60.3z"/><path fill="#444053" d="M581.8 99v.3a1279.4 1279.4 0 0 1-52.4 62.8l-.4-.3 4.2-5c14.9-16.6 33.8-39 48.6-57.8z"/><path fill="#444053" d="M529.4 161.3l.2.5c-27 33.9-28.9 86.4-29 86.9L495 242c.1-.5 7.2-46.7 34.5-80.8z"/><path fill="none" stroke="#444053" stroke-miterlimit="10" d="M653.3 214.5s-32-16.6-56.8-10.6-81-21-81-21-23.8-9.8-28.6-20.8c0 0-16.4-17.2-17.3-26.2s-16.8-31.4-27.2-32.3M648.7 230.5s-16.1-10.8-14.2-23.5M624 244.5s-23-8.3-25.3-41M586.9 253s-22-18.2-14.7-50.1M542.3 244s-14.7-30.6-1.7-50.6M653.7 194.3s-16.7 5.3-13 14M633.6 164s-22.3 7.1-22.8 38.6M602.6 156.8s-20.3 25-18.8 47.8M567 166.6s-20 19.3-17.5 30M555 159.8s-19 3.4-21.6-2.8M530.4 137s9.5 12.7 12 9.8M625 129s-47.6 3.5-58.4-10.9M520.4 73.4s22.3 47.9 38.5 54M543.8 50.5s13.7 44.1 30.7 57.9"/><path fill="none" stroke="#444053" stroke-miterlimit="10" stroke-width=".8" d="M645 92.7s-36.2 15.5-58-.2M576 41.1s8.3 32.4 19.4 40.3M639.5 56.4s-20.3 7.7-28 1.8"/><path fill="none" stroke="#444053" stroke-miterlimit="10" d="M513 147.6s0 28.3-7.7 30.3M450 184.2s30.6 2.6 44.7-13.1M505 114.2s-7.3 28.7-27.7 36.4M431.8 154s21.6 7.6 40.2-11.6M481 89.6s-2 24.3-15.2 35.7M432.6 117s18 0 22.1-5.8"/><path fill="#007bff" d="M592 137.5c-71.4 11.9-143 5.5-211.8-3.4s-137.5-20.2-209-18c-46 1.4-97.2 10.5-129 38.2-30.7 26.7-35 63.2-34.8 96.2.3 24.8 2.6 50.5 19.4 70.5 11.7 13.8 29.5 23.9 43 36.7 47 44.6 33.7 113.6 4 172.1-14 27.5-31.2 54.4-40.6 82.5S23 670.7 40.6 694c17.5 23.1 51 36.4 86 43.6 70.9 14.4 149.5 7 225.6-3.4 168.5-23.1 335-60.5 501.1-97.8 61.5-13.8 123.2-27.7 182.4-48 32.8-11.3 66.2-25.5 87.2-47.9 26.7-28.4 27-67.7.6-91.5-44.2-40-143.2-32.5-177.6-78-19-25-11.2-58.6 3.2-88.2 31-63.4 91.8-125.6 83-189.3-6-43.8-48.3-80.4-104.6-90.6C868.5-7.7 793 10 759.7 53.5c-34.4 45-104.7 73.5-167.7 84z" opacity=".1"/><rect width="950.3" height="538.3" x="76.3" y="150.1" fill="url(#a)" rx="12.5" ry="12.5"/><rect width="947.4" height="529" x="77.8" y="157.7" fill="#fff" rx="12.5" ry="12.5"/><rect width="947.4" height="529" x="77.8" y="157.7" fill="#fff" rx="12.5" ry="12.5"/><path fill="#5a5773" d="M1020.4 151.6H82.6a4.8 4.8 0 0 0-4.8 4.8v20.4h947.4v-20.3a4.8 4.8 0 0 0-4.8-4.9z"/><g fill="#fff" data-name="buttons"><circle cx="96.7" cy="164.2" r="6.5"/><circle cx="114.2" cy="164.2" r="6.5"/><circle cx="131.7" cy="164.2" r="6.5"/></g><rect width="790" height="392.8" x="141.2" y="293.9" fill="#fff" rx="10.2" ry="10.2"/><rect width="227.2" height="23.9" x="107.7" y="203.4" fill="#5a5773" opacity=".2" rx="3.9" ry="3.9"/><rect width="227.2" height="23.9" x="536.2" y="339.4" fill="#007bff" opacity=".2" rx="3.9" ry="3.9"/><rect width="354.8" height="23.9" x="536.2" y="406.2" fill="#007bff" opacity=".2" rx="3.9" ry="3.9"/><rect width="354.8" height="23.9" x="536.2" y="445.2" fill="#007bff" opacity=".2" rx="3.9" ry="3.9"/><rect width="354.8" height="23.9" x="536.2" y="484.2" fill="#007bff" opacity=".2" rx="3.9" ry="3.9"/><rect width="354.8" height="23.9" x="536.2" y="523.2" fill="#007bff" opacity=".2" rx="3.9" ry="3.9"/><rect width="707" height="23.9" x="184.1" y="566.2" fill="#007bff" opacity=".2" rx="3.9" ry="3.9"/><rect width="707" height="23.9" x="184.1" y="605.2" fill="#007bff" opacity=".2" rx="3.9" ry="3.9"/><rect width="707" height="23.9" x="184.1" y="644.2" fill="#007bff" opacity=".2" rx="3.9" ry="3.9"/><path fill="#007bff" d="M729.3 660s6 7.8-2.7 19.5-15.8 21.6-13 28.9c0 0 13.1-21.8 23.8-22s3.6-13.3-8.1-26.4z"/><path d="M729.3 660a9.6 9.6 0 0 1 1.2 2.4c10.4 12.2 16 23.6 6 23.9-9.3.3-20.5 16.9-23.2 21a7.7 7.7 0 0 0 .3 1s13.1-21.6 23.8-22 3.6-13.2-8.1-26.3z" opacity=".1"/><path fill="#ffd037" d="M740.3 669.9c0 2.7-.3 5-.7 5s-.6-2.3-.6-5 .3-1.5.7-1.5.6-1.2.6 1.5z"/><path fill="#ffd037" d="M744.1 673.1c-2.4 1.3-4.5 2.1-4.7 1.8s1.7-1.7 4-3 1.5-.4 1.7 0 1.4 0-1 1.2z"/><path fill="#007bff" d="M698 660s-6 7.8 2.7 19.5 15.8 21.6 13 28.9c0 0-13.1-21.8-23.8-22s-3.6-13.3 8-26.4z"/><path d="M698 660a9.4 9.4 0 0 0-1.2 2.4c-10.4 12.2-16 23.6-6 23.9 9.3.3 20.5 16.9 23.2 21a7.7 7.7 0 0 1-.4 1s-13-21.6-23.7-22-3.6-13.2 8-26.3z" opacity=".1"/><path fill="#ffd037" d="M687 669.9c0 2.7.3 5 .6 5s.7-2.3.7-5-.4-1.4-.7-1.4-.6-1.3-.6 1.4z"/><path fill="#ffd037" d="M683.2 673.1c2.4 1.3 4.5 2.1 4.6 1.8s-1.6-1.7-4-3-1.4-.4-1.6 0-1.4 0 1 1.2z"/><ellipse cx="713.6" cy="758.1" fill="#007bff" opacity=".1" rx="62" ry="9.5"/><path fill="#65617d" d="M745.6 697.9l-.3 2.4-.4 3.4-.2 1.5-.4 3.4-.2 1.4-.4 3.4-4.8 39c-.4 3.4-6 6.1-13 6.1h-24.6c-6.8 0-12.5-2.7-13-6.2l-4.7-38.8-.4-3.4-.2-1.5-.4-3.4-.2-1.4-.4-3.4-.3-2.5c-.2-2 2.9-3.6 6.7-3.6H739c3.8 0 6.9 1.6 6.7 3.6z"/><path fill="#9d9cb5" d="M745.3 700.3l-.5 3.4h-62.4l-.4-3.4h63.3zM744.7 705.2l-.4 3.4H683l-.4-3.4h62.1zM744.1 710l-.5 3.4h-60l-.4-3.4h60.9z"/><rect width="302" height="221.5" x="184.1" y="326.2" fill="#007bff" opacity=".2" rx="8.5" ry="8.5"/><path fill="url(#b)" d="M1153.5 591.1c.4-1-2.5-6.7-2.5-7s-2.9-3.4-2.9-5.2-3.8-5.6-3.8-5.6-5.2-2.1-5.7-6.8-6.2-4.7-6.2-4.7v-1.1a14.7 14.7 0 0 0-.7-5.5 5.5 5.5 0 0 0-3.2-2.7s-.6-3.6-1.7-4.7a5.3 5.3 0 0 1-1.3-5c.5-1.8-.8-6.3-3.5-7l-5.8-1.6-.8.1-.4-.1a15.6 15.6 0 0 1-2 .2 2.5 2.5 0 0 1-1.6-.5c-.9-1-8.5-3-10-3s-5.4-1.8-5.4-1.8l-4-3.1c-1.2-1-3.2-4.4-3.5-4.9a17.3 17.3 0 0 1-.9-2.5 22 22 0 0 0 3.5-4.8l.3-.6a2.1 2.1 0 0 0 .6 0l.2-.2a4 4 0 0 0 2-2.3 6.3 6.3 0 0 0 .2-.7v-.2l.1-.4a2 2 0 0 1 0-.2v-.7l.1-.5a18.7 18.7 0 0 1 .3-2c.6-2.6 2.1-4.7 3.2-7l.4-1 .4-1.2v-.3l.3-.8v-.4l.2-1.2a14.5 14.5 0 0 0-1-6.5c-.7-1.8-1.8-3.4-2.5-5.1-1-2.7-1.3-5.7-2.7-8.2a9.8 9.8 0 0 0-11.7-4.8c-2 .8-3.8 2.3-5.8 3-2.8.8-5.8.1-8.7-.3s-6-.4-8.3 1.5c-2.7 2.1-3.4 6.2-5.9 8.6-1 1-2.4 1.6-3.5 2.5a5.7 5.7 0 0 0-1.7 2.4v.2a1.8 1.8 0 0 0-.1.2 2.3 2.3 0 0 0 0 .3 1.1 1.1 0 0 0 0 .2 2 2 0 0 0 0 .5 3.8 3.8 0 0 0 0 .5v.1l.1.4c.1.1 0 0 0 0l.2.5v.2l.2.2a12.4 12.4 0 0 1 .8 2.2 2.4 2.4 0 0 1 0 1.4 4.2 4.2 0 0 1-1 1.4 19.4 19.4 0 0 0-4.3 6.7l-.3 1h.1a5.7 5.7 0 0 0 .8 0 4 4 0 0 0 .5 0 7.3 7.3 0 0 0 2 0l.4-.2a10.9 10.9 0 0 0 2-.7V503.2a22.2 22.2 0 0 0 12.2 19.9l.1.6v.5l-.2-.3s-1.7-.8-3.3 1.6a10.6 10.6 0 0 1-4.6 3.6s-17 2.7-17.7 5l-8 .4s-2.8.3-3.1 6.2-1.8 6.5-1.8 6.5-3.3 5.7-3 8.7a4.9 4.9 0 0 1-2.5 4.5l-.4 5.3s-3.1-.4-4 3.2a12.7 12.7 0 0 1-2.3 5.3s-5.2 4.3-5.5 8l-3.2 2s-7.4-1.7-9.1-4.7l-.5-.5c-1.1-1-3.5-3.3-3.1-2.8a2.3 2.3 0 0 1 .1 1.5l-.5-.6-1.5-1.7s-12-11.2-19-12c0-.3-.6-2-1.8-1a9.8 9.8 0 0 0 0 14.4l11.2 10.5.3.2 2.4 3.1-1 2.8v.1l-.2.5a1.2 1.2 0 0 0 0 .2l-.2.5v.5l-.6 2-.6-.1.6.2V597.6l.6.3c3.3 1.4 19.7 8.6 20.5 9.7s7.2 4.8 12.8 1.8 6.9-7.6 6.9-7.6 5.4-7.5 5.6-8.6 4.4-2.5 4.4-2.5.4 12.5-1.8 17.1-6.2 24.8-6.2 24.8a2.9 2.9 0 0 1 .8 0l-.2 1.2a2.7 2.7 0 0 1 1 0l-2 13s-.6 4.8-1.5 6.5-1 10.5-1 10.5l-1.5 6.3.5 1.1a16.2 16.2 0 0 0 4.4 5.6 11 11 0 0 1-.8 2.9 10.2 10.2 0 0 0-.7 4.5s-1.6 7.1-1.4 9.2-1 7-1 7l-1.7 16.3s-1.2 14.1-.6 18a34.4 34.4 0 0 1-.4 9s1.2 11 .9 12.2-1.7 6.5-.9 9.4.4 10.8.4 10.8.6 10.4 1.2 13.8a23.6 23.6 0 0 1-.2 7.6s-.6 7.2-1 7.2-2.6 5 2.3 9.8 2 4.1 2 4.1-4-2-3.6 2c.5 3.9 1.1 2.9 1.2 2.8l-1 3 .7.1-.6.7a14 14 0 0 1-1.9 2 4 4 0 0 0-1.2 2.7s-7 7.6-13.4 11.4c-3.4 2-6.3 3.7-7.6 5.1-1.2 1.3-1 2.3 1.4 3 5 1.8 14 2.6 20.4.5a23.8 23.8 0 0 0 10-6.5s4-2 8-1.3 11.8-4.4 11.8-4.4l-.1-1.3-.4-3.8a3 3 0 0 1-.7-2.3 12 12 0 0 0-.3-3.4l-.2-1 .7-.2s-1-4.8.7-5.7 1.2-13.1 1.2-13.1-2.1-2.8-3.2-3.3-.1-6.3 0-7l1.8-15.2s-.6-4.6.1-6.5-.9-9.6-.9-9.6a1.7 1.7 0 0 1 .5-2c1-1.1.6-11.1.6-11.1v-6.4c0-1.4 1-6 2.1-7.6s.4-6.5.4-6.5v-.4l.1-.5v-.5a72.7 72.7 0 0 1 2-8.1c1.1-4 2.6-10.8 2.6-10.8l8.7-22.8v-.3s4 7.5 4 14.4c0 0 1 8.3.8 10.5s.7 12.8.7 12.8l1.2 15.8c0 .7 1.5 12.3 2.5 14s-1 7.2-1.5 7.8.2 14.3.2 14.3l-1.7 13c-.2 2.2-1.4 10.8-.5 14.2s.6 3.8.6 3.8 3.3 3.5 1.4 3.8a5.2 5.2 0 0 0-3.8 6.8 89.6 89.6 0 0 0 4.1 10l1.6-.4v1.1l.1 5.6s.7 5.3.3 6.5c-.3 1-.7 5-.8 7.3l-.1 1.3s0 5 10.4 3.5 12.3-5.6 12.3-5.6v-.6l.8-4c.4-1.5-3-8.2-3-8.2s-.5-4.6-1.5-5.6a5 5 0 0 1-.7-2l-.2-1.2a6.8 6.8 0 0 1 .7.2s-.6-3.3 1.6-4.3 1.5-3.2 1.3-4.1.8-6.2.8-6.2a3 3 0 0 1 .8-3c1.3-1.3 2.3-10.4 2.3-10.4l.2-35.3s.6-6.3-.1-8.8-1.5-7.3-.5-8.7.1-7.3.1-7.3 0-12.8 1.4-16 1-23.2 1-23.2l.3-13.2s3.1-2.9 2.4-18c3.3-.2 7-.3 7.5.1 1 .9 7.7 5.2 11.7 2.5a52.3 52.3 0 0 0 4.6-3.7l-1.6-28 1.6 2.6c0-3.9 11.1-16.6 11.1-16.6s10.4-13.3 12.6-14.9 6.7-10 6.7-10a40.6 40.6 0 0 1 2.2-4.7c1-1.6-2.3-6-2-7zm-24.2 9.8c-2.9.3-8.8 6.8-8.9 8.2a5.8 5.8 0 0 1-1.2 2.5l-.2-1.8c-.6-8.2-1.4-18.2-1-19.2.6-1.7.4-9.3.4-9.3l.1-.1c1.9 5.9 7.8 12.8 7.8 12.8s1 3 2.2 3 .8 4 .8 4z" transform="translate(-28.4 -18.5)"/><path fill="#65617d" d="M950.2 580.3s3.4-18 14.5-18l8 16.5-5.4 3.7s-11.6.4-17-2.2z"/><path d="M972.7 578.8l-5.4 3.7s-8.2.3-14-1.2a16.2 16.2 0 0 1-3-1v-.3a40 40 0 0 1 2-6.6l1.2-2.5c1.6-3.1 3.9-6.2 7-7.7a9.5 9.5 0 0 1 3.7-1h.5l.1.4 2.8 5.6z" opacity=".1"/><path fill="#65617d" d="M1064.2 653.4s11.5-1.1 12.6-.3 7.6 5.1 11.4 2.4 1.3-12 1.3-12.4l-.3-13.6-7-9.3-8.7-16.4-17.8-1.8.5 26v13.4z"/><path d="M1064.2 653.4s11.5-1.1 12.6-.3 7.6 5.1 11.4 2.4 1.3-12 1.3-12.4l-.3-13.6-7-9.3-8.7-16.4-17.8-1.8.5 26v13.4z" opacity=".1"/><path fill="#fbbebe" d="M962.4 561.8s-1 11.3-8 11.4c0 0-2-1.2-4.7-3.2-6.2-4.6-16-13.5-13.3-21.8 3.9-11.8 22.8 10 22.8 10l1.4 1.7z"/><path d="M962.4 561.8s-1 11.3-8 11.4c0 0-2-1.2-4.7-3.2l-.6-.7a9.2 9.2 0 0 0 3.8 1 5.2 5.2 0 0 0 5-3.2 40 40 0 0 0 2-4.5 14 14 0 0 0 .7-2.8z" opacity=".1"/><path fill="#e7effd" d="M959.3 582.2l-1.6-2-5.3-6.8-2.7-3.5a9.1 9.1 0 0 0 3.8 1 5.2 5.2 0 0 0 5-3.2 39.2 39.2 0 0 0 2-4.5c.9-2.5.8-3.8.5-4.2l3 2.7.6.5.2.4 2.8 5.4a1.4 1.4 0 0 1 0 .2c.2 1.7 1 12.5-8.3 14z"/><path fill="#65617d" d="M1014.8 820.5s-7.8 5-11.7 4.3a14 14 0 0 0-7.9 1.3 23.4 23.4 0 0 1-9.8 6.4 36 36 0 0 1-20-.4c-2.4-.8-2.6-1.8-1.5-3s4.2-3.1 7.5-5.1c6.4-3.8 13.3-11.3 13.3-11.3a4 4 0 0 1 1.2-2.7 13.8 13.8 0 0 0 1.8-2l2-2.4 22.9.9.7 3.3a12 12 0 0 1 .3 3.3 3 3 0 0 0 .6 2.3l.5 3.8zM1062.6 826.9l-.8 4v.5s-2 4-12.2 5.5-10.3-3.4-10.3-3.4l.1-1.3c.2-2.2.6-6.3.9-7.2.3-1.2-.3-6.5-.3-6.5l-.1-5.5-.1-3.8 17-1.8a32.8 32.8 0 0 0 .6 3.8 4.9 4.9 0 0 0 .7 2c1 1 1.5 5.5 1.5 5.5s3.4 6.7 3 8.2z"/><path d="M1012.6 806.5l.7 3.3c-2.5.5-13.3 2.3-16 1-3-1.5-9.7-2.3-9.7-2.3l.2-.4 1.9-2.4zM1057.4 811.2c-4.3-.7-13.8 1-17.5 1.8v-3.8l17-1.8a32.8 32.8 0 0 0 .5 3.8z" opacity=".1"/><path fill="#3f3d56" d="M1067 670.9l-.3 13s.4 19.9-1 23-1.3 15.8-1.3 15.8.9 6-.1 7.3-.3 6.2.4 8.7.1 8.7.1 8.7l-.2 35s-1 9-2.3 10.3a3 3 0 0 0-.7 3s-1.1 5.2-.8 6.1.8 3-1.3 4.1-1.6 4.3-1.6 4.3c-5.1-1.2-19.5 2-19.5 2a88.6 88.6 0 0 1-4.1-10 5.1 5.1 0 0 1 3.7-6.7c2-.3-1.4-3.7-1.4-3.7s.4-.5-.6-3.8.2-11.9.5-14l1.7-13s-.8-13.7-.2-14.2 2.4-6 1.5-7.7-2.4-13.3-2.4-14l-1.2-15.7s-1.2-10.4-.9-12.6-.7-10.5-.7-10.5c0-6.9-4-14.3-4-14.3l-.1.3-8.6 22.8s-1.4 6.8-2.6 10.7a70.5 70.5 0 0 0-1.8 8l-.1.5v.5l-.2.4s.7 4.9-.3 6.5a23.1 23.1 0 0 0-2.2 7.6l.1 6.3s.4 9.9-.6 11a1.7 1.7 0 0 0-.5 2s1.7 7.5 1 9.4-.2 6.5-.2 6.5-1.5 14.3-1.7 15-1.2 6.6 0 7 3.1 3.3 3.1 3.3.5 12-1.2 13-.7 5.7-.7 5.7-13.4 2.5-16.5 1-9.6-2.2-9.6-2.2l1-3c-.1 0-.8 1-1.2-2.7-.5-4 3.4-2 3.4-2s3.1.7-1.8-4.1-2.5-9.7-2.2-9.7.9-7.2.9-7.2a23.6 23.6 0 0 0 .2-7.5c-.7-3.4-1.2-13.7-1.2-13.7s.4-8-.4-10.8.6-8 .8-9.3-.8-12.2-.8-12.2a34.3 34.3 0 0 0 .4-9c-.6-3.8.5-17.8.5-17.8l1.7-16s1.2-5 1-7 1.4-9.2 1.4-9.2a10.2 10.2 0 0 1 .7-4.5c1-1.8 1.3-8 1.3-8l9-20.3 4.3-18 58.7-.6a677.8 677.8 0 0 0 3.7 33c1.8 19.7-2 23.2-2 23.2z"/><path fill="#fbbebe" d="M1061.6 508.8l-13.7 14.7s-17.6-7-15.8-9.5c.8-1 .6-3.9.2-7.1-.6-5.1-2-11-2-11s30.8-5 28.2.2a8.5 8.5 0 0 0-.2 6.1 23.3 23.3 0 0 0 3.3 6.6z"/><path d="M1058.4 496c-1 2-1.4 2.1-.8 4.2-4 4.3-9.1 9-15.5 9a22 22 0 0 1-9.8-2.3c-.6-5.2-2-11-2-11s30.7-5 28.1.1z" opacity=".1"/><path fill="#fbbebe" d="M1064.2 486.6a22 22 0 0 1-44 0v-.3a22 22 0 0 1 44 .3z"/><path d="M1067.4 632c-3 0-12.7 0-23.5.2H1040c-13 .3-25.6-2.2-30.7-1.8-10.9 1 3.9-10 3.9-10a90.8 90.8 0 0 0 24.6 2.5l3.1-.1c9.9-.6 19.8-1.5 25-3l1.4 12.1z" opacity=".1"/><path fill="#5f5d7e" d="M1067.4 631.4c-3 0-12.7 0-23.5.3H1040c-13 .2-25.6-2.3-30.7-1.8-10.9 1 3.9-10 3.9-10a90.4 90.4 0 0 0 24.6 2.5l3.1-.2c9.9-.5 19.8-1.5 25-3l1.4 12.2z"/><path d="M1036.2 515l-17 8-13.1 101.6s7.8-3.6 12.2-1.3 18.1.2 18.1.2 10-.6 11.5.5 18.9-4.6 18.9-4.6 3.2-7 .7-8.2.8-12 .8-12l-1.5-73.3-3-9.4-8-4.8-8.1 6.4-4 .6z" opacity=".1"/><path fill="#e7effd" d="M1036.2 513.8l-17 8-13.2 101.7s7.8-3.6 12.3-1.3 18.1.2 18.1.2 10-.6 11.5.5 18.9-4.6 18.9-4.6 3.1-7 .7-8.2.8-12 .8-12l-1.5-73.3-3-9.4-8-4.8-8.2 6.4-3.9.6z"/><path d="M1036 518.5s4.8 5.9 4.8 7l-.3 4.1-3.7 7.5s-2 9.4-2 11.3-3.3 18.8-3.3 18.8l-4 26-4.8 34 5 8.5 5.9-5 7.9-60.5 1.6-12s1.8-21.4 1.8-23.6a75.5 75.5 0 0 0-1-8s1.2-5.6 6.2-7-.4-.2-.4-.2l-2.9-2.3-2.5 1s-6.9-2.2-8.4.4z" opacity=".1"/><path fill="#007bff" d="M1035.4 518s4.9 5.8 4.8 7l-.3 4-3.7 7.5s-2 9.4-2 11.3-3.2 18.8-3.2 18.8l-3.9 26-5 34 5 8.5 6-5 7.9-60.5 1.6-12s1.8-21.4 1.8-23.6a75.7 75.7 0 0 0-1-8s1.2-5.6 6.2-7-.4-.2-.4-.2l-2.8-2.3-2.5 1s-7-2.1-8.5.5z"/><path d="M1032.1 508.2s-.7.6-.9 4.3-2.8 12-2.8 12 9.7-6.7 14.5-6z" opacity=".1"/><path fill="#e7effd" d="M1032.1 507.1s-.7.6-.9 4.3-2.8 12-2.8 12 9.7-6.7 14.5-6z"/><path d="M1058.4 505.3l-15.1 13.3s12.7 7.6 14.4 9.5 3.3-18.2 3.3-18.2z" opacity=".1"/><path fill="#e7effd" d="M1059 504.2l-15.2 13.3s12.8 7.6 14.4 9.4 3.4-18 3.4-18z"/><path d="M1032.7 508.2s-1.7-.8-3.2 1.6a10.4 10.4 0 0 1-4.6 3.5s-16.8 2.7-17.5 5l-7.8.4s-2.8.4-3 6.2-1.8 6.4-1.8 6.4-3.2 5.7-3 8.7a4.9 4.9 0 0 1-2.5 4.5l11.6 30s.3 12.4-1.8 17S993 616 993 616s1.7-.4 1.6.7l-2 13.3s-.6 4.8-1.5 6.5-1 10.3-1 10.3l-1.5 6.3s3.5 7.9 8.9 6.8 15-22.2 15-22.2l6.3-22.6 4.8-22.4 1.4-15.2 2.2-33.6 3.2-22.2s3.6-12 2.3-13.6z" opacity=".1"/><path fill="#65617d" d="M1032.1 507.1s-1.6-.8-3.2 1.6a10.5 10.5 0 0 1-4.5 3.5s-16.9 2.7-17.5 5l-7.9.4s-2.8.4-3 6.2-1.8 6.4-1.8 6.4-3.3 5.7-3 8.7a4.8 4.8 0 0 1-2.5 4.4l11.6 30.2s.4 12.4-1.8 16.9-6 24.6-6 24.6 1.6-.3 1.5.8l-2 13.2s-.5 4.8-1.5 6.5-1 10.4-1 10.4l-1.5 6.3s3.6 7.8 9 6.7 15-22.1 15-22.1l6.2-22.7 4.8-22.4 1.4-15.2 2.2-33.7 3.2-22.2s3.6-11.9 2.3-13.5z"/><path d="M972.7 578.8l-5.4 3.7s-8.2.3-14-1.2l-3-1.3-.6-.3.6.2a12.3 12.3 0 0 0 7.4.3c7.6-2.6 6.8-15.1 6.5-18l-.1-.5a5 5 0 0 0 .3.6l.4.3 2.8 5.4a1.4 1.4 0 0 1 0 .2z" opacity=".1"/><path fill="#65617d" d="M991.3 542.6l-2.6.7-.3 5.3s-3-.5-4 3.2a12.7 12.7 0 0 1-2.2 5.2s-5.1 4.3-5.4 8l-3.2 1.8s-7.3-1.6-9-4.6c0 0 3.4 23.9-14.4 18 0 0 19.9 8.7 20.8 10s7 4.6 12.6 1.7 6.8-7.5 6.8-7.5 5.4-7.5 5.5-8.6 4.4-2.4 4.4-2.4l8-19.3z"/><path d="M1056.3 516.4l2.7-12.2s1.2 4 2.4 4.9l4 3s4 1.8 5.4 1.8 8.9 2 9.8 3 4.6.3 4.6.3 3 1 5.7 1.7 4 5 3.5 6.8a5.3 5.3 0 0 0 1.3 5c1 1.2 1.6 4.8 1.6 4.8a5.4 5.4 0 0 1 3.2 2.6c1 2 .6 6.5.6 6.5l-13.8 19.5s.2 7.5-.3 9.1 2 30 2 30l2.8 48.7a50.5 50.5 0 0 1-4.6 3.6c-.9.4-1.7-17.2-1.7-17.8s-21.4-32-21.4-32-2.9-4.7-2.9-5.7-2.6-10.3-2.6-10.3l-4.1-18z" opacity=".1"/><path fill="#65617d" d="M1102.3 543.6v1l-13.8 19.4s.2 7.5-.4 9.2c-.3 1 .4 11 1 19.1l1 11 1.1 20.6 1.7 28a50.5 50.5 0 0 1-4.6 3.6c-.9.3-1.7-17.3-1.7-17.9s-21.4-32-21.4-32-2.9-4.6-2.9-5.7-2.6-10.3-2.6-10.3l-4.1-18 1.8-55.2 1.6-12.2s2.3 4 3.5 4.9l4 3s4 1.9 5.4 1.9 8.9 2 9.8 3 4.6.3 4.6.3 3 1 5.8 1.6 4 5.1 3.4 6.9a5.4 5.4 0 0 0 1.3 5c1.1 1.1 1.7 4.7 1.7 4.7a5.4 5.4 0 0 1 3.1 2.7 15 15 0 0 1 .7 5.4z"/><path d="M989.1 790.2c.5 0 19.9.8 19.5 4s-19.5-4-19.5-4zM993.5 795.5s13 2 9.6 4-9.6-4-9.6-4zM1042 788.2s21.6 1.8 18.4 4.2-11 2.8-11.3 3-7.1-7.2-7.1-7.2zM1039.4 797.7s12 2 12.4 4.4-12.4-4.4-12.4-4.4zM1046 742s11 2.6 11.7 4.3zM1003.6 750s-5.8 1.6-.2 5 .2-5 .2-5zM1029 661c.7 0 10.7-3.3 14.3-1.9a23.4 23.4 0 0 0 7.8 1.5zM1030.3 671.5l-.1 1-8.6 22.6s-1.4 6.8-2.6 10.7a70.5 70.5 0 0 0-1.8 8l7.6-47.4z" opacity=".1"/><path fill="#3f3d56" d="M1043.7 631.7h-3.6l-2.2-9.3 3.2-.2z"/><path fill="#fbbebe" d="M1087.4 620.4l-2.3 1.9-7.7 6.3s-20.8 11.1-26.6.6c-5-9.4 18.6-16 24.3-17.4l1.2-.3z"/><path d="M998.5 529.4s4 1.8 5 4.4-5-4.4-5-4.4zM985.9 557.1s-6 7.2-3.6 10 3.6-10 3.6-10zM1091.8 533.5s-5.6.5-5.8 5.3zM1040.3 609.3c.6-.5 13.3-19.4 16.3-17.7zM1064.2 486.6a22 22 0 0 1-2.6 10.4h-.2c-1.4-.3-2.1-2-3.2-3a4.3 4.3 0 0 0-5-.7 5 5 0 0 0-2.4 4.8c-.7-3-.5-6.1-1.2-9s-2.8-6-5.6-6c-1.2 0-2.7.4-3.5-.6-.6-.5-.7-1.4-1-2-2-3.3-8.2-1.7-10.8 0s-5.4 4.4-8.5 5.8a22 22 0 0 1 44 .3z" opacity=".1"/><path fill="#7c5c5c" d="M1039.4 479.8c.4.7.5 1.6 1 2.1.9 1 2.3.5 3.5.5 2.9 0 5 3 5.6 6s.5 6.1 1.2 9a5 5 0 0 1 2.5-4.7 4.3 4.3 0 0 1 5 .7c1 1 1.8 2.7 3.2 3s2.7-1 3.2-2.6a38.6 38.6 0 0 0 .8-4.6c.6-2.8 2.5-5.2 3.6-8a14.5 14.5 0 0 0-.1-10.3c-.7-1.7-1.8-3.3-2.5-5-1-2.6-1.3-5.6-2.6-8.1a9.6 9.6 0 0 0-11.5-4.8c-2 .8-3.8 2.3-5.8 3-2.8.8-5.7.1-8.5-.3s-6-.4-8.3 1.5c-2.6 2.1-3.3 6.1-5.8 8.5-1 1-2.3 1.6-3.4 2.5a4.7 4.7 0 0 0-1.9 3.8c.2 2 2 3.6 1.4 5.4a4.2 4.2 0 0 1-1 1.4 19.4 19.4 0 0 0-4.5 7.6c5 1.5 10.3-4 14.2-6.5 2.5-1.7 8.7-3.3 10.7 0z"/><path d="M1087.4 620.4l-2.3 1.9a66 66 0 0 0-10.4-10.2l.4-.3 1.2-.3z" opacity=".1"/><path fill="#e7effd" d="M1089.6 617l-1.7 3.8c-.9 1.8-1.7 3.4-1.8 2 0-2.5-10.8-11.2-10.8-11.2l1.4-1.5 1.7-1.6z"/><path d="M1090 603.2l1.2 20.7c-2.9-4.5-10.8-16-15.8-15.6l12.3-14.1a16.5 16.5 0 0 0 1.4-1.8l.9 10.8z" opacity=".1"/><path d="M1089.6 617l-1.7 3.8c-3.2-4.4-7.6-9.7-11.2-10.7l1.7-1.6z" opacity=".1"/><path fill="#65617d" d="M1098.9 542l3.3 2.6s5.6.1 6.1 4.8 5.7 6.7 5.7 6.7 3.8 3.8 3.8 5.6 2.8 4.9 2.8 5.2 2.8 5.9 2.4 6.9 3 5.5 2 7.1a42.9 42.9 0 0 0-2.2 4.7s-4.4 8.3-6.6 9.9-12.4 14.8-12.4 14.8-11 12.6-11 16.4c0 0-10.6-17.7-16.9-17.3l12.3-14.1s2.2-2.3 2.3-3.7 5.9-7.8 8.7-8c0 0 .4-3.9-.8-4s-2.2-3-2.2-3-8.1-9.6-8.2-15.7 10.9-18.9 10.9-18.9z"/><path d="M1103.8 550.8s-7.8 5.8-6.1 7.6 6.1-7.6 6.1-7.6zM1104.2 574.5s14.4-4.6 15.9 0zM1014.8 820.5s-7.8 5-11.7 4.3a14 14 0 0 0-7.9 1.3 23.4 23.4 0 0 1-9.8 6.4 36 36 0 0 1-20-.4c-2.4-.8-2.6-1.8-1.5-3 5.4 1 17.6 3.2 20.9 1.6a86.8 86.8 0 0 0 10.3-6.4s8-1.1 9-1.1c.9 0 7-2.6 10.5-4zM1061.8 831v.4s-1.9 4-12.2 5.6-10.2-3.4-10.2-3.4v-1.4c3.3 1.3 10.4 2.6 22.4-1.3zM1002.3 549.7s0 21.1-1.8 23.2 1.8-23.2 1.8-23.2zM1085.7 556.5l2.7 7.6s1-7.4-2.7-7.6z" opacity=".1"/><g opacity=".1"><path d="M1020.3 475.6c.7-1.7-1.1-3.4-1.3-5.3a3.4 3.4 0 0 0-.3 1.7c0 1.4 1.1 2.7 1.4 4a2.3 2.3 0 0 0 .2-.4zM1051 495.6c-.7-3-.5-6-1.1-9s-2.8-6-5.6-6c-1.2 0-2.7.5-3.6-.5-.5-.5-.6-1.4-1-2-2-3.3-8.2-1.7-10.7 0-3.8 2.5-9 7.8-13.8 6.6l-.7 1.7c5 1.6 10.4-3.9 14.2-6.5 2.6-1.7 8.7-3.3 10.8 0 .4.6.5 1.5 1 2 .8 1 2.3.5 3.5.5 2.8 0 5 3 5.6 6s.5 6.1 1.2 9.1a5 5 0 0 1 .2-2zM1065 492c-.6 1.5-1.9 2.9-3.3 2.6s-2.1-2-3.2-3a4.4 4.4 0 0 0-5-.6 5 5 0 0 0-2.5 4.4 4.8 4.8 0 0 1 2.2-2.6 4.3 4.3 0 0 1 5 .7c1 1 1.8 2.6 3.2 2.9s2.7-1 3.2-2.5a11.8 11.8 0 0 0 .6-2.7 6.4 6.4 0 0 1-.3.9zM1069.3 479.5c-1 2.7-3 5-3.6 8l-.2 1.7c.6-2.8 2.5-5.2 3.5-8a13.9 13.9 0 0 0 .9-3.8 14 14 0 0 1-.6 2z"/></g><circle cx="935.5" cy="546.3" r=".2" fill="#e6e8ec"/><rect width="181.2" height="208.2" x="849.1" y="551.4" fill="#fff" rx="6.6" ry="6.6"/><rect width="181.2" height="208.2" x="849.1" y="551.4" fill="#5a5773" opacity=".1" rx="6.6" ry="6.6"/><rect width="162.7" height="187" x="858.4" y="562" fill="#fff" rx="6.6" ry="6.6"/><rect width="111.6" height="38.5" x="882" y="599.5" fill="#007bff" rx="6" ry="6"/><path fill="#007bff" d="M886.1 652.1h103.4v7.9H886.1zM868.5 668.7h142.3v7.9H868.5zM868.5 686.2h142.3v7.9H868.5zM868.5 703.7h142.3v7.9H868.5z"/><rect width="426.6" height="208.2" y="482.6" fill="#fff" rx="6.6" ry="6.6"/><rect width="426.6" height="208.2" y="482.6" fill="#5a5773" opacity=".1" rx="6.6" ry="6.6"/><rect width="383.1" height="187" x="21.8" y="493.2" fill="#fff" rx="6.6" ry="6.6"/><rect width="262.8" height="38.5" x="77.5" y="530.7" fill="#007bff" rx="6" ry="6"/><path fill="#007bff" d="M87.2 583.3h243.5v7.9H87.2zM45.8 599.9h335.1v7.9H45.8zM45.8 617.4h335.1v7.9H45.8zM45.8 634.8h335.1v7.9H45.8z"/><path fill="url(#c)" d="M132.7 859.2c1.2-4.4 2-8.2 2-8.2a17 17 0 0 1 2.2-8.3v-1.2l.4-8.8a29.3 29.3 0 0 0-2-4.7c-1.5-2.8.5-12.9.5-12.9s6.4-14 5.3-23.2 13.6-39.8 13.6-39.8a39.5 39.5 0 0 0-.9-9 6.9 6.9 0 0 1 0-1.9 1.8 1.8 0 0 1 0-.2c.3-6 5.5-17 5.5-17l.2-21.3s-2.5-12.8 3-29.5a157 157 0 0 0 4.3-15.3l-17.8-3.5s6.9-24.4 11-28.6 7.9-17.5 7.9-17.5 2.7-17.3-.4-22.5-3.3-14-3.3-14-7.4-5.9-8.3-8.3-2.2-8.2-2.1-11 1.2-5.6 1-7.1 2.4-7.3 1.2-10.1a7.7 7.7 0 0 1-.3-2.7 37.4 37.4 0 0 1 .9-7.3 20.4 20.4 0 0 1 7.7-3.7l.2-.7.5-1.7a8.3 8.3 0 0 1 .7-.4l.1-.6.2-2.5-1-5.7c-2-9.9 11.1-10.8 11.1-10.8a6.9 6.9 0 0 1 3.8-3.1c2.7-.8 0 14.7-1.4 15.6-1 .8-4 5.6-5.4 7.9l-.2.4a5.4 5.4 0 0 1 .5.6l-.6 3.4-.1.5a14 14 0 0 1 2 3.6s-2.5 2.6-2.2 5.5a17.6 17.6 0 0 1-1 6.7c.2-.1 2-1.9 3.6-1.4l6.3 2.1s3.4.8 3 1.5 2.3 4.3 2.3 4.3l9.7-8.5.4-.8a22.4 22.4 0 0 0 1-4 21 21 0 0 1-3-1 6.5 6.5 0 0 1-2.6-1.7c-.9-1.2-1-2.7-1.3-4.2-.7-2.7-2.2-5.2-3.2-7.9a25.3 25.3 0 0 1-1.4-14 9.3 9.3 0 0 1 1.6-4c1.7-2 4.5-2.8 6.6-4.4s3.4-4.1 5.8-5.3c2.2-1 4.8-.8 7.2-.3a38.3 38.3 0 0 1 13 5.3c1.4.9 2.9 1.9 4.5 1.6a6 6 0 0 0 3.3-2.2.7.7 0 0 1 0-.1v-.1a16.5 16.5 0 0 1 1.2 7v1.5a1.8 1.8 0 0 0 0 .4 1.6 1.6 0 0 0 0 .5 3.5 3.5 0 0 0 .9 1.3 7.2 7.2 0 0 1 .7 1l-.1-.3a5.6 5.6 0 0 1 .8 3 3 3 0 0 1-.8 2 9.3 9.3 0 0 1-1.5 1.2 18 18 0 0 1-9.3 18.3l-.4.8a22.4 22.4 0 0 0-2 10.2v.7c0 .2.2.3.3.4s15.5.8 19.3-2.4 9 8.5 9 8.5 5.4 1.2 6.6.2 7.6.2 7.6.2a14 14 0 0 1 9.8-3.2 28.7 28.7 0 0 1 7.3-3.7h.2a7.8 7.8 0 0 1 3.5-.4s7.9-6 10.2-9.3 13.4-15.4 13.4-15.5v-.6l.3-1.8a6.1 6.1 0 0 0 .9.1l.2-.6a34.3 34.3 0 0 1 2.5-5s0-2.4-.6-3 .7-9 .7-9 7.4-15.8 13.1-3.6c0 0 11.4 8.2 1.3 17 0 0-4 1.6-4.6 3.1-.4 1-1.8 3.6-2.8 5.4l-.4.8v.1l-.1 1.5-.1.6c1.8 1.1 3 2.2 2.7 3a17 17 0 0 0-1.3 4.1s-14.1 16.3-16.2 23.5c0 0-37 20.1-49 21.2l1.7 10.9a86.4 86.4 0 0 1 .1 8.7c-.2 2.3 1 12.9 1 12.9s1.4 15.4 3.1 17.6 1 11.5 1 11.5a78 78 0 0 0 1.9 13.1c1.5 6 0 13.1 0 13.1s5.5 14-8.6 4.1c0 0-7-.7-15.2-1.2v.8l-.1 3.4c-.2 7.9-.6 18.8-1.3 27-1.2 14.7-6.7 43.4-6.7 43.4l-.6 14.5a19.2 19.2 0 0 1 .3 4.2 27 27 0 0 1-4.5 14.4l-1.5 9.6s-2.8 6.3-3 10.1a4.5 4.5 0 0 0 0 1 7.4 7.4 0 0 1 .1 1.4c0 4.4-3 14.8-3 14.8s-.6 10.7-2.3 11.2c-1.3.5 1.6 6.2 2.5 7.8a1.6 1.6 0 0 0 0-.3l.3.4a7.5 7.5 0 0 1 .4 2.7 3.9 3.9 0 0 1-2 3.6c-3 1.8-4.7 3.2-2.2 4a28.2 28.2 0 0 1 2.8.6l.1-.3a1.7 1.7 0 0 1 1 1.9 7.8 7.8 0 0 1-1 3.6 38.8 38.8 0 0 1-4.6 7.6l-1.3-.2a6.1 6.1 0 0 0 .7 1.4 5 5 0 0 0 1.7 1.7 5.6 5.6 0 0 0 2.2.8 6.2 6.2 0 0 1 4.4 2.3c1.5 2.2 2.4 5-.8 7.3l-11.6 3.5s-19.6 1.8-18.4-2.6 2-8.1 2-8.1a17.4 17.4 0 0 1 1.9-7.7 10.3 10.3 0 0 1 .7-1.2h-.7s-1.1-9.8-3-11.7c-.4-.5-.5-.8-.4-1-.1-.5.4-.8 1-1l.2.4a9.7 9.7 0 0 1 1.8-.1s.9-5.1-1.1-7a1.9 1.9 0 0 1-.3-1.6 7.8 7.8 0 0 1 .2-2 .8.8 0 0 0 .1 0c1.2-4.5 5-11.6 5-11.6s.3-4.7-.9-6.6 1.2-25 1.2-25 0-11.3 1.5-16.4-1.3-11.5-1.3-11.5v-.3a.4.4 0 0 0 0-.1l.4-1.8v.2c.4-3 1.2-8.4 1.7-10.8.8-3.5.7-20.5.7-20.5l-2.6-7.3-5.6 12.3-6 16.4s-2.8 3.4-3 7v.5a8.3 8.3 0 0 1 0 1.1 10 10 0 0 1-1.9 5.8s-1.7 7.8-4 9.7-2.4 5.8-2.4 5.8-3.2 11.3-4.5 13.2a19.9 19.9 0 0 0-1.4 7.7v.4s-.5 4.1-.7 7.5v1.2a11.6 11.6 0 0 0 .3 2.7v.2-.6a29 29 0 0 1 .5 7.1c0 4.1-.9 9-3.5 11.7-4.5 4.7-7.1 4-7.1 4s1.8 6.2 4.3 7.5a1.6 1.6 0 0 1 .2.2l.1-.3a3 3 0 0 1 .7 2.3c0 2.7-1.8 7-3.5 9a5 5 0 0 1-2.2 1.2 3.8 3.8 0 0 0 .4.2 7.8 7.8 0 0 0 .8.5 4.3 4.3 0 0 0 1.3.4 6 6 0 0 1 4.4 2.3c1.5 2.1 2.4 5-.8 7.3l-11.5 3.5s-19.7 1.7-18.5-2.6z" transform="translate(-28.4 -18.5)"/><path fill="#2d293d" d="M178.6 850.8l11.2-3.5c3.1-2.4 2.2-5.2.8-7.3a5.8 5.8 0 0 0-4.3-2.4 5.2 5.2 0 0 1-2-.8 5 5 0 0 1-1.7-1.6 8.2 8.2 0 0 1-1.1-4.3s-12-4-15.4-.6a9 9 0 0 0-1.5 2 18 18 0 0 0-1.9 7.8s-.7 3.8-1.9 8.1 17.8 2.6 17.8 2.6zM125 843.3l11.2-3.5c3-2.3 2.2-5.2.8-7.3a5.8 5.8 0 0 0-4.3-2.3 4 4 0 0 1-1.2-.4 7.9 7.9 0 0 1-.9-.5c-3-1.8-2.7-6-2.7-6s-12-4-15.4-.6a8.8 8.8 0 0 0-1.2 1.6 17.4 17.4 0 0 0-2.2 8.3s-.8 3.8-2 8.1 18 2.6 18 2.6z"/><path d="M166 830.3a9 9 0 0 0-1.4 2l18 2.9a8.2 8.2 0 0 1-1.1-4.4s-12-4-15.4-.5zM111.3 824.3l-.2 3.4c2.7 4.7 16.3 4.3 20.4 2a7.9 7.9 0 0 1-.9-.4c-3-1.8-2.7-6-2.7-6s-12-4-15.4-.6a8.8 8.8 0 0 0-1.2 1.6z" opacity=".1"/><path fill="#575988" d="M109.7 809.6a31 31 0 0 1 2 4.7l-.5 12.2c2.9 5.2 19 4 21.2 1.4s4.8-9.8 2.4-11.1-4.2-7.6-4.2-7.6 2.6.7 7-4 3.5-15.7 2.8-18.4.5-11.4.5-11.4 0-6.1 1.4-8 4.3-13.3 4.3-13.3.2-3.8 2.4-5.8 4-9.7 4-9.7a10 10 0 0 0 1.7-6.5c-.3-3.9 3-8 3-8l5.8-16.3 5.4-12.3 2.5 7.3s.1 17-.7 20.5-2 12.9-2 12.9 2.9 6.2 1.3 11.4-1.6 16.4-1.6 16.4-2.2 23.2-1 25 .8 6.6.8 6.6-6.9 13.3-5 15.2 1.2 7 1.2 7-4.3-.2-2.6 1.8 2.8 11.5 2.8 11.5l18.5 3a39.2 39.2 0 0 0 4.4-7.8c2.7-5.6-.2-5-2.7-5.8s-.8-2.2 2.2-3.9 1.4-6 1.4-6-4.1-7.7-2.6-8.2 2.2-11.2 2.2-11.2 3.5-12.5 2.9-15.9 2.9-11.4 2.9-11.4l1.4-9.7a26.6 26.6 0 0 0 4.1-18.1l.6-15s5.4-28.6 6.7-43.3c.7-9.3 1.1-22 1.3-30l.1-7.5-66.2-9.5a54.6 54.6 0 0 1-1.5 9.8c-.9 3.7-2.1 8.3-4 14.2-5.5 16.7-3 29.4-3 29.4l-.3 21.4s-6.4 14.1-5.3 19a40.6 40.6 0 0 1 .9 9s-14.3 30.8-13.2 39.9-5.2 23.2-5.2 23.2-2 10-.5 13z"/><path d="M150.7 731l-20-3.5s11 12.1 20 3.5zM134.3 707.9s-1 7 3.3 10c0 0-7.8-1.6-3.3-10zM136.4 685.1s16.4 14.6 22.6 13.7-22.6-13.7-22.6-13.7zM175.6 738.5s12.7 3.4 12.9 8.5-13-8.5-13-8.5zM170.3 802.5s18 4 12.7 6.2-13.7 3.6-13.7 3.6-5.9 0 1-9.8z" opacity=".1"/><g opacity=".1"><path d="M186.6 812.5a3.6 3.6 0 0 0 1.7-2.6l.2.3s1.5 4.2-1.5 6l-1 .6-1.6-.4c-2.5-.7-.8-2.2 2.2-4zM163.2 810.3c-.4-.4-.4-1.6 0-3.1a8.6 8.6 0 0 1 .9 4.5 3.5 3.5 0 0 0-.9-1.4zM169 734a21 21 0 0 1 1 5.7 21.8 21.8 0 0 0-1.3-4l.3-1.8zM127.7 724.3a7.3 7.3 0 0 1 0-1.7 36.5 36.5 0 0 1 0 1.7zM167.3 788.6a10.2 10.2 0 0 1-.3-3.4 11.6 11.6 0 0 1 .7 4.3 4.2 4.2 0 0 0-.4-.9zM162.4 817.5a60.4 60.4 0 0 1 1.7 9.5l18.5 2.9a38.8 38.8 0 0 0 4.5-7.7l.6-1.4c1 .6 1.5 1.8-.1 5a39.2 39.2 0 0 1-4.5 7.8l-18.5-2.9s-1-9.7-2.8-11.6c-.9-1-.2-1.4.6-1.6zM188 790.8s-.6 10.6-2.1 11.2c-.7-1.8-1.2-3.5-.5-3.7 1.6-.6 2.1-11.2 2.1-11.2s3.6-12.5 3-16 2.9-11.3 2.9-11.3l1.4-9.7a26.6 26.6 0 0 0 4.1-18.2l.6-14.9s5.4-28.7 6.6-43.3a592 592 0 0 0 1.3-30.1v-3.8h.6l-.1 7.5c-.2 8-.6 20.8-1.4 30.1-1.1 14.6-6.5 43.3-6.5 43.3l-.6 15a26.7 26.7 0 0 1-4.1 18.1l-1.5 9.7s-3.5 8-2.9 11.4-2.9 16-2.9 16zM132 823.8a18 18 0 0 0 3.1-7.2c1.9 1.8-.6 8.3-2.7 10.9s-18.3 3.7-21.2-1.5l.1-2.9c4 4.3 18.5 3.2 20.6.7zM109.2 805.5a31 31 0 0 1 2 4.7v2.1a33.6 33.6 0 0 0-1.5-3.1 9.3 9.3 0 0 1-.5-3.9zM131.6 808.8a30 30 0 0 1-1.4-3.7s2.6.7 7-4c3-3.5 3.5-10.3 3.3-14.7.6 2.6 1.4 13.6-2.9 18.3-2.9 3.1-5 4-6 4zM140.9 775a82.2 82.2 0 0 0-.7 9 13 13 0 0 0-.2-1.3c-.7-2.7.4-11.4.4-11.4s0-6.2 1.4-8.1 4.3-13.3 4.3-13.3.2-3.8 2.4-5.7 4-9.7 4-9.7a10.1 10.1 0 0 0 1.7-6.6c-.3-3.9 3-7.9 3-7.9l5.8-16.4 5.4-12.3 2.5 7.4v2.3l-2-6-5.4 12.3-5.9 16.4s-3.2 4-2.9 7.9a10 10 0 0 1-1.8 6.5s-1.7 7.8-3.9 9.7-2.3 5.8-2.3 5.8-3.1 11.3-4.4 13.2-1.4 8.2-1.4 8.2z"/></g><path fill="#ffcdd3" d="M138.8 491.6l1 5.6-.2 2.5v1.9l6.3.9.8-1.3c1.4-2.4 4.3-7.2 5.3-7.9 1.2-1 3.9-16.5 1.3-15.7a6.8 6.8 0 0 0-3.7 3.1s-12.6 1-10.8 10.9z"/><path d="M139.5 501.6l6.4.9.8-1.3a5.7 5.7 0 0 0-7-1.5z" opacity=".1"/><path fill="#dce6f2" d="M137.8 504.5l8.4 2.3.2-1.2.6-3.4a5.8 5.8 0 0 0-8.2-1.4l-.4 1.7z"/><path fill="#ffcdd3" d="M275.3 497.5l8.8 5.2 1-1.7 2.6-5.4c.6-1.5 4.5-3.2 4.5-3.2 9.8-8.7-1.2-16.9-1.2-16.9-5.5-12.2-12.8 3.6-12.8 3.6s-1.2 8.4-.6 9 .6 2.9.6 2.9a34 34 0 0 0-2.4 5l-.5 1.5z"/><path d="M275.3 497.5l8.8 5.2 1-1.7c-1.3-1.1-5.7-5-7.2-4.9a10.7 10.7 0 0 1-2.1 0l-.5 1.4z" opacity=".1"/><path fill="#dce6f2" d="M274.3 500.1l10 5.4.3-2.2.2-1.5s-5.7-5.2-7.5-5.1a9.4 9.4 0 0 1-2.6-.1l-.2 1.8z"/><path fill="#ffcdd3" d="M162 529.8s44 6.7 36 3.7c-5.8-2.1-8-5.8-8.2-10a23.2 23.2 0 0 1 2-10.1 44.6 44.6 0 0 1 4.2-7.8s-33-20-27-2.8a27.1 27.1 0 0 1 1.6 8.1 22.8 22.8 0 0 1-1.1 8 24.2 24.2 0 0 1-7.5 10.9z"/><path d="M169 502.8a27.1 27.1 0 0 1 1.7 8.1c3 2.8 6.6 2.8 11 3 3.5 0 7.3 1 10-.5a44.6 44.6 0 0 1 4.3-7.9s-33-19.9-27-2.7z" opacity=".1"/><circle cx="183" cy="496.7" r="18.3" fill="#ffcdd3"/><path d="M162 529.8s44 6.7 36 3.7c-5.8-2.1-8-5.8-8.2-10a24.3 24.3 0 0 0-9.3-5.3 13.3 13.3 0 0 0-8-.5 11 11 0 0 0-3 1.3 24.2 24.2 0 0 1-7.5 10.8zM137.8 504.5l8.4 2.3.2-1.2a7.5 7.5 0 0 0-8-3.1zM274.3 500.1l10 5.4.3-2.2a75.7 75.7 0 0 0-10.1-4.8zM140.2 640.6c17 3.4 41.3 7.9 45.2 6.8 3.3-.8 13.5-.3 22.4.3l.2-7.4-66.2-9.5a54.6 54.6 0 0 1-1.6 9.8z" opacity=".1"/><path fill="#656691" d="M123.3 636s56 11.8 62.2 10.2 37.1 1.6 37.1 1.6c13.7 10 8.4-4.1 8.4-4.1s1.5-7.2 0-13.1a80 80 0 0 1-1.9-13.2s.7-9.2-.9-11.4-3-17.7-3-17.7-1.1-10.5-.9-12.8-.1-8.8-.1-8.8l-1.6-10.8c11.6-1.1 47.5-21.3 47.5-21.3 2-7.2 15.7-23.6 15.7-23.6a17.8 17.8 0 0 1 1.2-4.1c1-2.4-12.6-7.9-12.6-7.9s-10.8 12.2-13 15.5-10 9.4-10 9.4a7.5 7.5 0 0 0-3.4.3h-.2a27.5 27.5 0 0 0-7 3.7 13.4 13.4 0 0 0-9.5 3.1s-6.3-1.1-7.4-.1-6.4-.3-6.4-.3-5-11.5-8.6-8.4-18.7 2.5-18.7 2.5c-1.9-2.8-6.7-4.9-9.7-6a13.3 13.3 0 0 0-8-.4 10.4 10.4 0 0 0-3.2 1.4l-9.5 8.6s-2.5-3.5-2.1-4.3-3-1.5-3-1.5l-6-2c-1.7-.5-3.4 1.2-3.5 1.4a17.8 17.8 0 0 0 1-6.8c-.4-3 2-5.4 2-5.4-4.9-13.5-17.4-2.9-17.4-2.9s-1.7 7.2-.6 10-1.5 8.6-1.3 10.1-.8 4.2-.9 7 1.2 8.6 2 11 8 8.4 8 8.4.2 8.8 3.2 14 .4 22.5.4 22.5-3.6 13.4-7.6 17.6-10.7 28.6-10.7 28.6z"/><path d="M209.4 538s2-5 3.5-5.5a35.4 35.4 0 0 0 4.5-1.8l-.9-2s-5.8 1.4-6.8 3-.3 6.2-.3 6.2zM240.8 528c.2 1.5 13.9 3.4 13.9 3.4l-6.7-7.2h-.1a27.5 27.5 0 0 0-7.1 3.7z" opacity=".1"/><circle cx="281.2" cy="508.3" r="1.2" fill="#575988"/><circle cx="279.5" cy="510.7" r="1.2" fill="#575988"/><circle cx="277.9" cy="512.9" r="1.2" fill="#575988"/><circle cx="276.2" cy="515.3" r="1.2" fill="#575988"/><circle cx="131.3" cy="509.6" r="1" fill="#575988"/><circle cx="131" cy="511.9" r="1" fill="#575988"/><circle cx="130.8" cy="514.1" r="1" fill="#575988"/><path d="M207.8 579.6c.1-.2-36.2 42.3-62.2 16 0 0 42.3 7.4 62.2-16zM226.8 603.1s-20.8-.2-23.2 5.7l-.2 6.2a4 4 0 0 0 3.9.1c2.1-1 14.9-6.9 19.2-3.7z" opacity=".1"/><path fill="#656691" d="M226.4 603.1s-19.8-.2-22.1 5.4l-.3 6a3.8 3.8 0 0 0 3.7 0c2-1 14.3-6.5 18.4-3.5z"/><path d="M217.2 557.7a67.4 67.4 0 0 1-8.5 13.5 54 54 0 0 1-13.1 11.6s21.2-22.3 21.6-25.1zM225 533.8s-4 14.8-13.2 19.6zM230.2 535.5c0-.2 2.6 12-12.2 18.1 0 0 6.2-1.9 12.2-18zM140 522c.2 0-7.4 4.5-9.5 6.6 0 0 5.1-7 9.5-6.6z" opacity=".1"/><path fill="#2d293d" d="M187.3 513.5a4 4 0 0 1-1.5 2.4 3.8 3.8 0 0 1-1.8.3c-5.5.2-11.4.2-16.4-2.2a6.2 6.2 0 0 1-2.5-1.7c-.9-1.2-1-2.7-1.3-4.1-.6-2.8-2-5.3-3-8a26 26 0 0 1-1.3-14 9.4 9.4 0 0 1 1.5-4c1.6-2 4.3-2.7 6.3-4.3s3.4-4.2 5.7-5.3c2.1-1.1 4.6-.9 7-.4a36.3 36.3 0 0 1 12.7 5.3c1.2 1 2.7 2 4.2 1.7a6 6 0 0 0 3.3-2.3 17 17 0 0 1 1 8 3.5 3.5 0 0 0 0 1.2 3.6 3.6 0 0 0 .8 1.3c1.3 1.6 2.1 4.2.7 5.8-.6.6-1.6 1-2.2 1.7-1 1.2-.8 3-.8 4.7a2.5 2.5 0 0 1-.5 1.6 2.4 2.4 0 0 1-2.3.5 6.2 6.2 0 0 0-2.4-.3 4 4 0 0 0-2.1 1.5c-2.7 3.1-3.8 6.7-5 10.6z"/><g opacity=".1"><path d="M164.6 510.8a6.1 6.1 0 0 0 2.4 1.8 37 37 0 0 0 16.5 2.2 3.6 3.6 0 0 0 1.7-.3 3.9 3.9 0 0 0 1.6-2.4c1.2-4 2.3-7.5 5-10.7a4 4 0 0 1 2.2-1.5 6.4 6.4 0 0 1 2.4.3 2.4 2.4 0 0 0 2.3-.4 2.5 2.5 0 0 0 .4-1.6c0-1.7-.2-3.5.9-4.8.6-.7 1.5-1 2.1-1.7a3.6 3.6 0 0 0 .5-3.7c1 1.6 1.3 3.6.1 5-.6.6-1.5 1-2.1 1.7-1.1 1.2-.8 3-.9 4.7a2.5 2.5 0 0 1-.5 1.6 2.4 2.4 0 0 1-2.2.5 6.2 6.2 0 0 0-2.4-.3 4 4 0 0 0-2.2 1.5 28.7 28.7 0 0 0-5 10.6 2.9 2.9 0 0 1-3.3 2.8 37 37 0 0 1-16.5-2.2 6.3 6.3 0 0 1-2.5-1.8 4.8 4.8 0 0 1-.7-1.5 1.8 1.8 0 0 0 .2.3zM201.2 485.6a2.5 2.5 0 0 1-.5-1 3.5 3.5 0 0 1 0-1.2 17 17 0 0 0-.6-6.7v-.1a16.9 16.9 0 0 1 1.1 8 5.4 5.4 0 0 0 0 1z"/></g><path d="M190.2 524.7s-23 2.2-25-1.3M146 513.6s-12.6-.5-15.6 4.1" opacity=".1"/></svg>