<svg data-name="Layer 1" xmlns="http://www.w3.org/2000/svg" xmlns:xlink="http://www.w3.org/1999/xlink" width="1078.5" height="780.4"><defs><linearGradient id="a" x1="600" y1="725" x2="600" y2="197.2" gradientUnits="userSpaceOnUse"><stop offset="0" stop-color="gray" stop-opacity=".3"/><stop offset=".5" stop-color="gray" stop-opacity=".1"/><stop offset="1" stop-color="gray" stop-opacity=".1"/></linearGradient><linearGradient id="b" x1="906.6" y1="809.1" x2="906.6" y2="164.4" gradientTransform="matrix(-1 0 0 1 1767 0)" xlink:href="#a"/></defs><path d="M931 447.7c-34.2 55.7-28.1 131.5-13.5 191.2 4.9 20 10.5 41.1 6.2 63.5a97.8 97.8 0 0 1-43.7 61.4c-35 22.5-75 22-104-1.2-25-20.1-41.4-55.3-67-74.4-42.8-31.8-101.7-12.2-153 18-36.3 21.4-76.3 48.4-109.6 33.3-23.5-10.6-38-40.7-44.8-73.5-3.2-15.8-5.1-33-12.7-45.1a49.6 49.6 0 0 0-17-15.9c-58.5-35.7-138-5.3-194.4-45.7-38.1-27.3-59.6-84-66.5-144.6s-.8-125.6 6.8-189.5c5.5-45.5 12.7-94.1 36.4-131.2 25-39.2 64.2-56.8 98.2-53.3s63.5 25.4 88.9 52c31.7 33.4 60.2 76 101.3 86.6 28 7.2 58.8-1.4 88.6-6.4 49.9-8.2 99-6.1 147.8-3.3 46.6 2.7 93.6 6 137 22.6 30.8 11.7 54.4 36.2 83 52 18.7 10.4 39.8 11.7 57.2 25.5a87.6 87.6 0 0 1 31.2 88.6c-8.4 38-38.4 59.8-56.5 89.4z" fill="#007bff" opacity=".1"/><path d="M294.3 277.3s-147.1-32.9 40-225.4c0 0 80.8 76.5 51.2 171.6a78.2 78.2 0 0 1-89 54.3z" fill="#007bff"/><path d="M294.3 277.3c-3.2-.7-144-36.1 40-225.4 0 0 80.8 76.5 51.2 171.6a78.2 78.2 0 0 1-89 54.3z" fill="#fff" opacity=".4"/><path d="M296.3 278.4s77.7-117 38.1-226.5" fill="none" stroke="#535461" stroke-miterlimit="10"/><path d="M899.6 391s-25.4-102.1 13-174.8a159.4 159.4 0 0 0 17.2-99.4 268 268 0 0 0-12.1-47.5" fill="none" stroke="#535461" stroke-miterlimit="10" stroke-width="2"/><path d="M941.6 23.4c-.5 12.3-24.4 47.2-24.4 47.2S896.4 33.8 897 21.4a22.4 22.4 0 0 1 44.8 2zM975.7 93.4c-7.2 10-46.2 26.4-46.2 26.4s2.5-42.2 9.7-52.3a22.4 22.4 0 1 1 36.5 25.9zM969 210.3c-11.2 5-53.1-.6-53.1-.6s23.5-35.1 34.7-40.2a22.4 22.4 0 0 1 18.5 40.8zM944.1 297.6c-10.2 7-52.5 8.4-52.5 8.4s17.2-38.6 27.5-45.5a22.4 22.4 0 0 1 25 37.1zM882.4 120.2c8.5 9 49.5 19.7 49.5 19.7s-8.4-41.5-16.9-50.5a22.4 22.4 0 0 0-32.6 30.8zM854.6 222.6c10.8 6 53 4 53 4s-20.4-37-31.2-43a22.4 22.4 0 0 0-21.8 39zM841.2 326c9.6 7.7 51.6 12.9 51.6 12.9s-13.9-40-23.5-47.8a22.4 22.4 0 0 0-28.1 34.9z" fill="#007bff"/><path d="M941.6 23.4c-.5 12.3-24.4 47.2-24.4 47.2S896.4 33.8 897 21.4a22.4 22.4 0 0 1 44.8 2zM975.7 93.4c-7.2 10-46.2 26.4-46.2 26.4s2.5-42.2 9.7-52.3a22.4 22.4 0 1 1 36.5 25.9zM969 210.3c-11.2 5-53.1-.6-53.1-.6s23.5-35.1 34.7-40.2a22.4 22.4 0 0 1 18.5 40.8zM944.1 297.6c-10.2 7-52.5 8.4-52.5 8.4s17.2-38.6 27.5-45.5a22.4 22.4 0 0 1 25 37.1zM882.4 120.2c8.5 9 49.5 19.7 49.5 19.7s-8.4-41.5-16.9-50.5a22.4 22.4 0 0 0-32.6 30.8zM854.6 222.6c10.8 6 53 4 53 4s-20.4-37-31.2-43a22.4 22.4 0 0 0-21.8 39zM841.2 326c9.6 7.7 51.6 12.9 51.6 12.9s-13.9-40-23.5-47.8a22.4 22.4 0 0 0-28.1 34.9z" fill="#fc6681"/><path d="M806.8 325s106.3-89 130-134 53.7-83.7 53.7-83.7" fill="none" stroke="#535461" stroke-miterlimit="10" stroke-width="2"/><path d="M976.6 207.8l-46-10.4s10.8 48.5 46 10.3z" fill="#007bff"/><path d="M906.3 158.2l26.4 39.6s-51.7 3.8-26.5-39.6zM994.7 170.5l-42-7.4s26.4 40.2 42 7.4zM932.5 135l20.8 27.2s-36.8 3.4-20.8-27.2zM974.4 129.6s35.8 1.7 40 5.2-5.3 23.4-19 20.2-21-25.4-21-25.4zM960 97.6s14.7 26.7 14.2 31.8-22.3 10.7-26.7-8.5S960 97.6 960 97.6z" fill="#007bff"/><circle cx="1059.3" cy="171.7" r="10" transform="rotate(-72.4 988 183.3)" fill="#ffd037"/><circle cx="1043.7" cy="161.5" r="10" transform="rotate(-72.4 972.4 173.1)" fill="#ffd037"/><path d="M328.9 348s43-32-11-144c0 0-72-89 0-173 0 0-157 4-154 150s78.5 167 78.5 167z" fill="#007bff"/><path d="M288.7 348s-10.8-77-39.8-124a100.8 100.8 0 0 1-12.2-30.8A125.9 125.9 0 0 1 272 75.5L318 30.9" fill="none" stroke="#535461" stroke-miterlimit="10" stroke-width="2"/><path d="M418.4 90.9s9.9 12.9-4.5 32.4-26.4 36-21.6 48.1c0 0 21.8-36.2 39.5-36.7s6.1-22-13.4-43.8z" fill="#007bff"/><path d="M418.4 90.9a16 16 0 0 1 2 4c17.3 20.3 26.5 39.3 9.9 39.8-15.5.4-34 28.1-38.5 35.1a15 15 0 0 0 .5 1.6s21.8-36.2 39.5-36.7 6.1-22-13.4-43.8z" opacity=".1"/><path d="M436.8 107.3c0 4.6-.5 8.3-1.2 8.3s-1.1-3.7-1.1-8.3.6-2.4 1.3-2.4 1-2.1 1 2.4z" fill="#ffd037"/><path d="M443 112.8c-4 2.1-7.4 3.5-7.7 2.9s2.7-2.8 6.7-5 2.4-.5 2.7 0 2.4-.1-1.6 2z" fill="#ffd037"/><path d="M366.3 90.9s-10 12.9 4.5 32.4 26.3 36 21.5 48.1c0 0-21.7-36.2-39.5-36.7s-6-22 13.4-43.8z" fill="#007bff"/><path d="M366.3 90.9a16 16 0 0 0-2 4c-17.4 20.3-26.6 39.3-10 39.8 15.6.4 34.1 28.1 38.6 35.1a15 15 0 0 1-.5 1.6s-21.9-36.2-39.6-36.7-6-22 13.4-43.8z" opacity=".1"/><path d="M347.9 107.3c0 4.6.5 8.3 1.1 8.3s1.1-3.7 1.1-8.3-.6-2.4-1.2-2.4-1-2.1-1 2.4z" fill="#ffd037"/><path d="M341.6 112.8c4 2.1 7.4 3.5 7.7 2.9s-2.7-2.8-6.6-5-2.5-.5-2.8 0-2.3-.1 1.7 2z" fill="#ffd037"/><path d="M1139.3 705.6l-87.7-385.5h-32.5c-1.3-14.7-2.2-29-2.5-42.4 0 0-118 25.8-212.1-48.9s-204.7 6.5-204.7 6.5l-.5-.3v-.2.2c-7.6-5.4-113.6-78-204.2-6.1C301 303.6 183 277.8 183 277.8c-.4 13.6-1.2 28-2.6 42.8h-30.2L60.8 707s363.6 13.6 491.1 1c4.6 9.7 24.3 17 47.9 17 26.5 0 48-9.2 48.8-20.6 99.2 7.5 312.7 19.6 490.6 1.2z" transform="translate(-60.8 -59.8)" fill="url(#a)"/><path d="M98.8 263.7L11.3 642s482.1 18.1 521-7.2c0 0 299.3 30.3 535 5.9l-85.8-377.4z" fill="#e2e2ec"/><path d="M128.6 276.8L47 629.5s449.5 16.8 485.7-6.7c0 0 279 28.2 498.8 5.4l-80-351.9z" opacity=".1"/><path d="M947.2 221.7S831.6 247 739.5 174 539 180.2 539 180.2s-108.3-79.5-200.4-6.3-207.7 47.8-207.7 47.8C127.2 369 58.7 607.3 58.7 607.3S185 641.6 352 572s187 24.3 187 24.3 19.8-93.9 186.8-24.3 293.5 35.2 293.5 35.2-68.6-238.4-72.2-385.6z" fill="#f1f2fb"/><path d="M316 599.2s152.6-34.3 223 16.2c0 0 67.7-61.4 224.8-13.5" opacity=".1"/><ellipse cx="539" cy="638.9" rx="47.9" ry="20.8" fill="#e8eaf8"/><path d="M538.6 179.7s34.3 174.3.9 419.9" opacity=".1"/><path d="M164 276.4s71.8 16.7 134 0 176.5-71.4 214 0M164 307s71.8 16.8 134 0 197-15.7 214 0M164 361.2s71.8 16.7 134 0 176.5-71.3 214 0M164 392s71.8 16.6 134 0 197-15.9 214 0M914.1 276.4s-71.9 16.7-134 0-176.5-71.4-214 0M914.1 307s-71.9 16.8-134 0-197-15.7-214 0M914.1 361.2s-71.9 16.7-134 0-176.5-71.3-214 0M914.1 392s-71.9 16.6-134 0-197-15.9-214 0" fill="none" stroke="#000" stroke-miterlimit="10" stroke-width="4" opacity=".1"/><path d="M915.6 717c3-2.3 5.8-5 6.7-8.3a7 7 0 0 0-4.7-8.4c-4.3-1.4-9 1-12.4 3.5s-7.5 5.3-12 4.8c4.6-3.4 7-9 5.6-14a5.4 5.4 0 0 0-1.6-2.9c-2.4-2-6.7-1.2-9.6.5-9 5.2-11.6 15.3-11.7 24.4-.9-3.3-.1-6.7-.1-10s-1.2-7.2-4.7-9a16.6 16.6 0 0 0-7-1.3c-4.1-.1-8.7.2-11.5 2.6-3.5 3-2.6 8.2.5 11.5s7.6 5.4 11.8 7.8c3.2 1.7 6.5 3.8 8.5 6.5a6 6 0 0 1 .6 1.2h25.7a73.8 73.8 0 0 0 15.9-9z" fill="#007bff"/><path d="M798.8 416.7l.7 4-.7 1.2c-8.2 13.8-9.4 33.7-8.7 50a163.6 163.6 0 0 0 6.9 38.8 181.4 181.4 0 0 1 7 50.4 36.6 36.6 0 0 0 11.5 8.3l.6 2a204.4 204.4 0 0 1 7.7 38.7l2.5 32.6s19.8 74 25.8 87.7c4.3 9.8 3.4 30 2.5 40.8-2.6 7.3-5.7 14.3-8.5 15-5 1.4-10 13.5-2.7 19.5a11.6 11.6 0 0 0 1.7 1.2l.3.2.5.3.8.3.4.2.9.2.3.1 1.2.4a21.8 21.8 0 0 0 14.9-2.4 30 30 0 0 0 14-6.7l-.1 5.2h6l-.3-10.4 1.7-2s.2-6.3.8-13.6l-.4 23.5h6l-1.6-43.4a7 7 0 0 1 1.2-1.8c5-5-3.7-21-8.1-23.8 2-10.6 9.6-25.9 18.4-55.2 12.9-43-3.4-85.1-3.4-85.1v-33c4.3-1.9 6.8-3.2 6.8-3.2s-6-35.2 0-60.1a93.3 93.3 0 0 0 1.7-44.1l7.8-26.4 6-61.9a369.3 369.3 0 0 0 3.4-26.5c1.1-12.6 1-21 .2-26.5a42.1 42.1 0 0 0 .3-7.6 30 30 0 0 0 .2-4l2.5-3a43 43 0 0 0 5.4-8.5c6.6-12.5 6.8-27.7-2.4-38.7-5.7-6.8-7.5-14-12.4-21.3-4.5-6.6-5.3-14.5-6.4-22.1a270.7 270.7 0 0 0-5.5-28c-.7-2.8-4.5-4.5-6.4-6.7-3.6-4.4-14.2-4.3-20.3-5.2-10.3-1.7-21.4-3.2-30.7.9-6.5 2.8-11.2 7.9-16.3 12.4-5.4 4.8-16.6 7.2-18.4 13-1.5 2.2-1.6 5 1 8.7 2.6 3.6 6.6 6.1 10.3 8.8l1.4 1a36.5 36.5 0 0 0 19.8 38.7l-.3 1.9a115.8 115.8 0 0 1-4.5 16.5c-1.1 3.3-14 9.1-23 12.8a11.5 11.5 0 0 0-3.7-2.5c-6.9-1.7-30 11.2-31.8 15.5-.4 1.2.8 4.5 2.9 8.7a31 31 0 0 0 .9 5.6c-.5 8.8.4 23 4.8 45.8zm96.5 9.7l-1-2c-9.5-19.2-15.2-50.4-1.5-69l3.6.3c.9 25.3.4 67 .4 67l-1.5 3.7zm-34 147.1l6.3 31.4a82.5 82.5 0 0 1-.5 36.3L859 617l-1.9-42.6-.1-1.8 3.9-.7z" transform="translate(-60.8 -59.8)" fill="url(#b)"/><path d="M806.7 543.2a81.2 81.2 0 0 1-.5 35.8 46.3 46.3 0 0 1-2 6.5l2.3 92.7.3 10.5a52.9 52.9 0 0 0 6.4 1 29 29 0 0 0 6 0c2-.3 3.7-.9 4.7-2s1.1-3-.2-5.7a17 17 0 0 1-1.7-9.6l.5-2.8c2-10.5 9.4-25.6 18.1-54.4 12.7-42.3-3.4-83.8-3.4-83.8v-39l-41.4-4.2a2564 2564 0 0 0 11 55z" fill="#fdc2cc"/><path d="M806.7 543.2a81.2 81.2 0 0 1-.5 35.8 46.3 46.3 0 0 1-2 6.5l2.3 92.7.3 10.5a52.9 52.9 0 0 0 6.4 1 29 29 0 0 0 6 0c2-.3 3.7-.9 4.7-2s1.1-3-.2-5.7a17 17 0 0 1-1.7-9.6l.5-2.8c2-10.5 9.4-25.6 18.1-54.4 12.7-42.3-3.4-83.8-3.4-83.8v-39l-41.4-4.2a2564 2564 0 0 0 11 55z" opacity=".1"/><path d="M749.2 492.5a127 127 0 0 1 6.9 17.8 201.2 201.2 0 0 1 7.5 38l2.5 32.2s19.5 72.7 25.4 86.2c4.2 9.7 3.3 29.6 2.4 40.3l-.7 7.1 8.6-10.5 11.3-14 5.2-6.2 1.1-1.4a52 52 0 0 1-3.3-8.9 151 151 0 0 1-5.1-28.3c-2.6-26.2-3.4-61.8-3.4-61.8l-1.4-4-8-23.9-1.8-42-.7-15.5z" fill="#fdc2cc"/><path d="M814.6 675a60.2 60.2 0 0 0-10 19.9c-2.7 9.1-7.4 23.2-11.4 24.3-6 1.7-11.9 18.6 3.4 22s27.9-13.5 27.9-13.5.8-29.7 5.9-34.7-4.2-22-8.5-23.7c-1.6-.7-4.5 2.1-7.3 5.7z" fill="#5f5d7e"/><path d="M791.5 738.7a20.4 20.4 0 0 0 11.9-1.1 26.6 26.6 0 0 0 16.6-22.8c.7-9 2.2-21.3 5.3-24.4 4-4-1-15.4-5.3-20.8a2.3 2.3 0 0 1 2-.3c4.2 1.7 13.5 18.6 8.4 23.7s-6 34.7-6 34.7-12.6 16.9-27.8 13.5a14 14 0 0 1-6-2.8l.9.3z" opacity=".1"/><path d="M829.2 693.7l1.6 43.7H825l.8-43.7a1.7 1.7 0 0 1 1.8-1.6 1.7 1.7 0 0 1 1.7 1.6z" fill="#5f5d7e"/><path d="M829.2 693.7l1.6 43.7H825l.8-43.7a1.7 1.7 0 0 1 1.8-1.6 1.7 1.7 0 0 1 1.7 1.6z" opacity=".1"/><path d="M807 677.5a60.2 60.2 0 0 0-10 19.9c-2.7 9.2-7.5 23.2-11.4 24.3-6 1.7-11.9 18.6 3.4 22s27.9-13.5 27.9-13.5.8-29.6 5.9-34.7-4.2-22-8.5-23.7c-1.7-.6-4.5 2.1-7.3 5.7z" fill="#5f5d7e"/><path d="M783.9 741.2a20.4 20.4 0 0 0 11.9-1.1 26.6 26.6 0 0 0 16.6-22.8c.7-9 2.2-21.2 5.3-24.3 4-4-1-15.4-5.3-20.9a2.3 2.3 0 0 1 2-.3c4.2 1.7 13.5 18.6 8.4 23.7s-6 34.7-6 34.7-12.6 16.9-27.8 13.5a14 14 0 0 1-6.1-2.8l1 .3z" opacity=".1"/><path d="M821.6 696.2l1.6 43.7h-6l.9-43.7a1.7 1.7 0 0 1 1.7-1.6 1.7 1.7 0 0 1 1.8 1.6z" fill="#5f5d7e"/><path d="M821.6 696.2l1.6 43.7h-6l.9-43.7a1.7 1.7 0 0 1 1.7-1.6 1.7 1.7 0 0 1 1.8 1.6z" opacity=".1"/><path d="M750 227.7L784 281l39.7 5s24.6-48.1 23.7-50.7-13.5-7.6-25.3-16.9 2.5-48.2 2.5-48.2l-39 3.4.5 1.5c1.5 6.6 1 13.9-.2 20.3a114 114 0 0 1-4.5 16.2c-1.6 5.1-31.3 16.1-31.3 16.1z" fill="#fdc2cc"/><path d="M795.7 488.3l4.8 24a194.1 194.1 0 0 0 36.7-11.7v-8.1zM749.2 492.5a127 127 0 0 1 6.9 17.8 71.2 71.2 0 0 0 40.3 2.8l-.7-15.6z" opacity=".1"/><path d="M739 363c-8 13.6-9.3 33.2-8.5 49.3a161 161 0 0 0 6.8 38.2 178.5 178.5 0 0 1 6.9 49.6c28.7 31.3 99.8-4.2 99.8-4.2s-6-34.7 0-59.2c4-17.1 5-32.1.8-46.5a73.3 73.3 0 0 0-8.4-18.7 67.6 67.6 0 0 1-3.3-5.9c-9.8-19.8-15.5-52.3.3-70.3a32.9 32.9 0 0 1 5.5-5c13.7-10 20-21 22.6-30.3a40.8 40.8 0 0 0 1-18c-1.6-9.2-25.3-17.7-25.3-17.7.8 28-34.7 51.6-34.7 51.6s-40.6-52.4-47.4-54.1-29.6 11-31.3 15.2 18.6 35.5 18.6 35.5 12.7 63.5-3.4 90.6z" fill="#d39999"/><path d="M838.9 290.3c13.7-10 20-21 22.6-30.4-.7-14-4-16.1-4-16.1s-28 27-25.4 36.4c.6 2.1 1 7.8 1.3 15.1a32.9 32.9 0 0 1 5.5-5zM791.5 483.2c6 17.8 35.5-13.6 36.4-27 .5-8.7 10-42.7 16.9-66a73.3 73.3 0 0 0-8.5-18.7 67.6 67.6 0 0 1-3.2-5.8c-3.2 7.9-16.1 40.2-15.4 49.8.9 11-5 27-5 27s-27.1 23-21.2 40.7z" opacity=".1"/><path d="M859.2 243.8s9.3 5.9 0 62.6l-6 60.9s-22.8 75.3-23.6 88.8-30.5 44.8-36.4 27 21.1-40.5 21.1-40.5 6-16.1 5.1-27.1 16-51.6 16-51.6 1-74.4-1.6-83.8 25.4-36.3 25.4-36.3z" fill="#fdc2cc"/><path d="M734 237s-11 2.5 0 59.2l6.7 61.8s15.3 88.8 14.4 99 33 36.4 35.5 22-16.9-38-16.9-38-8.5-18.7-8.5-53.4l-1.6-28L751.7 259z" opacity=".1"/><path d="M732.3 237s-11 2.5 0 59.2L739 358s15.2 88.8 14.4 99 33 36.4 35.5 22-16.9-38-16.9-38-8.5-18.7-8.5-53.4l-1.6-28L750 259z" fill="#fdc2cc"/><path d="M726.8 240s-5.1 27 30.4 36.3-4.2-32.1-4.2-32.1-13.5-20.3-26.2-4.2z" opacity=".1"/><path d="M727.6 239.1s-5 27 30.5 36.4-4.2-32.2-4.2-32.2-13.6-20.3-26.3-4.2z" fill="#d39999"/><path d="M863 240s5 27-30.5 36.3 4.3-32.1 4.3-32.1 13.5-20.3 26.2-4.2z" opacity=".1"/><path d="M862.1 239.1s5.1 27-30.4 36.4 4.2-32.2 4.2-32.2 13.5-20.3 26.2-4.2z" fill="#d39999"/><path d="M785.8 195.4c4.7 1.4 9.9-9.6 15.4-9.6 5.9 0 11.4 11.7 16.3 9.2a146.6 146.6 0 0 1 6.1-23.1l-37.6 3.3c1.5 6.5 1 13.8-.2 20.2z" opacity=".1"/><circle cx="802.1" cy="161.3" r="36" fill="#fdc2cc"/><path d="M755 145.8c2.6 3.5 6.5 6 10.2 8.6a111 111 0 0 1 12.8 10.8 37.9 37.9 0 0 1 7.2 8.9 40.5 40.5 0 0 1 3.6 17.2l3.5 60.5c.2 4 .4 8-.6 12a41 41 0 0 1-4.3 9.5 83.1 83.1 0 0 1-16.8 23c-2.5 2.1-5.5 4.9-4.2 7.7 1 2.3 4.3 3 7.1 3.4 11.8 1.5 24.8 2.9 34.7-2.8 3.7-2.2 6.8-5.3 11-6.7 5.8-1.8 12.2.1 18.4.1 6.6 0 12.9-2.2 19-4.3a6.8 6.8 0 0 0 3.1-1.8 5.2 5.2 0 0 0 1-2.4c.9-4.9 1.7-10 .2-14.8-1.6-5.2-6-9.7-6.5-15-.6-7.6 6.3-13.7 11.2-19.8 10.6-13.1 13-32 2.1-44.9-5.6-6.6-7.3-13.8-12.2-20.9-4.4-6.5-5.2-14.3-6.3-21.8a266.5 266.5 0 0 0-5.4-27.6c-.7-2.7-4.4-4.3-6.2-6.5-3.6-4.3-14-4.2-20-5.1-10.1-1.6-21-3.1-30.3.8-6.4 2.8-11 7.8-16 12.3-7 6.3-24.2 8.3-16.2 19.6z" opacity=".1"/><path d="M756 144c2.4 3.6 6.4 6 10 8.8a111 111 0 0 1 12.9 10.7 37.9 37.9 0 0 1 7.1 8.9 40.5 40.5 0 0 1 3.6 17.2l3.5 60.5c.3 4 .5 8-.5 12a41 41 0 0 1-4.4 9.5 83.1 83.1 0 0 1-16.7 23c-2.5 2.1-5.5 5-4.2 7.7 1 2.3 4.3 3 7.1 3.4 11.8 1.5 24.8 2.9 34.7-2.8 3.7-2.2 6.8-5.3 11-6.6 5.8-1.9 12.2 0 18.4 0 6.6 0 12.9-2.2 19-4.3a6.8 6.8 0 0 0 3.1-1.8 5.2 5.2 0 0 0 1-2.4c.8-4.9 1.7-10 .2-14.8-1.6-5.2-6-9.7-6.5-15-.6-7.6 6.3-13.7 11.2-19.8 10.6-13 13-32 2.1-44.9-5.6-6.6-7.3-13.8-12.2-20.9-4.4-6.5-5.2-14.3-6.3-21.7a266.5 266.5 0 0 0-5.4-27.7c-.7-2.7-4.4-4.3-6.3-6.5-3.5-4.3-14-4.2-20-5.1-10-1.6-21-3.1-30.2.8-6.4 2.8-11 7.8-16 12.3-7.2 6.3-24.3 8.3-16.3 19.6z" fill="#865a61"/></svg>