<svg data-name="Layer 1" xmlns="http://www.w3.org/2000/svg" width="987.6" height="787.4"><defs><linearGradient id="a" x1="903.3" y1="782.2" x2="903.3" y2="259.8" gradientUnits="userSpaceOnUse"><stop offset="0" stop-color="gray" stop-opacity=".3"/><stop offset=".5" stop-color="gray" stop-opacity=".1"/><stop offset="1" stop-color="gray" stop-opacity=".1"/></linearGradient></defs><path d="M59 745s-42.2-2.5-37.3 27.2c0 0-1 5.2 3.8 7.6 0 0 0-2.2 4.3-1.5a19.4 19.4 0 0 0 4.6.2 9.6 9.6 0 0 0 5.6-2.3s12-4.9 16.6-24.3c0 0 3.4-4.3 3.2-5.3l-7 3s2.3 5.1.4 9.4c0 0-.2-9.3-1.6-9-.3 0-3.7 1.8-3.7 1.8s4.2 9 1 15.4c0 0 1.2-11-2.3-14.8l-5 3s4.9 9.2 1.6 16.7c0 0 .8-11.5-2.7-16l-4.5 3.5s4.6 9.1 1.8 15.4c0 0-.4-13.5-2.8-14.5 0 0-4 3.5-4.6 5 0 0 3.2 6.6 1.2 10.1 0 0-1.2-9-2.2-9 0 0-4 6-4.4 10 0 0 .2-6 3.4-10.6a11.9 11.9 0 0 0-6 3.1s.6-4.2 7-4.6c0 0 3.3-4.5 4.2-4.7 0 0-6.4-.6-10.3 1.1 0 0 3.4-4 11.5-2.1l4.5-3.7s-8.5-1.1-12 .1c0 0 4-3.5 13.2-1l4.9-2.8s-7.2-1.6-11.5-1c0 0 4.5-2.5 12.9.2l3.5-1.6-6.8-1.2c-1.5-.2-1.6-.6-1.6-.6a18.3 18.3 0 0 1 9.8 1.1s7.5-2.8 7.3-3.2z" fill="#007bff"/><ellipse cx="29.9" cy="782.3" rx="29.9" ry="5.1" fill="#007bff" opacity=".1"/><path d="M987.2 677.8s-23.9-1.5-21 15.2a4 4 0 0 0 2 4.3s0-1.2 2.5-.8a11.2 11.2 0 0 0 2.6.1 5.4 5.4 0 0 0 3.2-1.3s6.7-2.7 9.3-13.7c0 0 2-2.4 1.8-3l-4 1.7s1.4 3 .3 5.4c0 0 0-5.2-.9-5.1l-2 1s2.3 5 .5 8.7c0 0 .7-6.2-1.3-8.4l-2.8 1.7s2.7 5.2.9 9.5c0 0 .4-6.6-1.5-9.1l-2.6 2s2.6 5.1 1 8.7c0 0-.2-7.6-1.6-8.2a15.6 15.6 0 0 0-2.6 2.8s1.8 3.7.7 5.7c0 0-.7-5-1.2-5.1 0 0-2.2 3.4-2.5 5.7a12.2 12.2 0 0 1 2-6 6.7 6.7 0 0 0-3.5 1.7s.4-2.4 4-2.6c0 0 1.9-2.5 2.4-2.7 0 0-3.6-.3-5.8.7 0 0 2-2.2 6.4-1.2l2.6-2s-4.8-.7-6.8 0c0 0 2.3-2 7.4-.6l2.8-1.6a24.9 24.9 0 0 0-6.5-.6s2.6-1.3 7.3.2l2-1-3.8-.6c-.8-.1-1-.3-1-.3a10.3 10.3 0 0 1 5.6.6s4.1-1.6 4-1.8z" fill="#007bff"/><ellipse cx="970.8" cy="698.8" rx="16.9" ry="2.9" fill="#007bff" opacity=".1"/><path d="M938.1 723.3s-28.7-1.8-25.3 18.4a5 5 0 0 0 2.6 5.2s0-1.5 3-1a13.1 13.1 0 0 0 3.1.1 6.5 6.5 0 0 0 3.8-1.5s8.1-3.4 11.2-16.6c0 0 2.4-2.9 2.3-3.6l-4.9 2s1.7 3.6.4 6.5c0 0-.2-6.3-1.1-6.2l-2.5 1.2s2.8 6.1.7 10.6c0 0 .8-7.5-1.6-10.1l-3.4 2s3.3 6.3 1 11.4c0 0 .6-7.9-1.8-11l-3 2.4s3 6.3 1.2 10.5c0 0-.3-9.2-2-9.8 0 0-2.6 2.3-3 3.3 0 0 2.1 4.5.8 7 0 0-.8-6.2-1.5-6.2 0 0-2.7 4-3 6.8a14.8 14.8 0 0 1 2.3-7.2 8.2 8.2 0 0 0-4.1 2.1s.4-2.8 4.8-3.1c0 0 2.2-3 2.8-3.3 0 0-4.4-.3-7 .8 0 0 2.3-2.7 7.8-1.4l3-2.5s-5.7-.8-8.1 0c0 0 2.8-2.3 9-.6l3.3-2s-4.9-1-7.8-.7c0 0 3-1.6 8.8.2l2.4-1.1-4.6-.8c-1-.1-1.2-.4-1.2-.4a12.4 12.4 0 0 1 6.8.7s5-1.8 4.8-2.1z" fill="#007bff"/><ellipse cx="918.3" cy="748.6" rx="20.4" ry="3.4" fill="#007bff" opacity=".1"/><ellipse cx="805.5" cy="726.4" rx="92.3" ry="14.4" fill="#007bff" opacity=".1"/><ellipse cx="513.3" cy="767.9" rx="103.8" ry="10.4" fill="#007bff" opacity=".1"/><ellipse cx="199" cy="763.1" rx="78.8" ry="4.9" fill="#007bff" opacity=".1"/><path d="M338.8 34.3C368 8.3 413.8 2.9 455.6 5 586.7 11.5 705 74.8 807.4 146.4c37 25.9 73.5 53.8 97.6 89.5 49 72.6 34.4 173.3-33.7 233.1a348.2 348.2 0 0 1-80 49.8c-51.3 24.7-106.6 44.4-164.8 50-41.5 4-83.5.8-124.7-4.8-115.2-15.6-228.4-50.2-323.2-109.3-41.5-26-80.7-58.2-97.9-100.1s-6.1-95.2 36.3-120c17.6-10.3 38.6-14.9 59.1-19.2 30.3-6.5 61-12.8 88.3-25.8 28.2-13.5 61.6-39.5 56-69.3-6-32-10.8-60 18.4-86z" fill="#007bff" opacity=".1"/><path d="M580.9 391.8v-191h26v-57H420.6v57h26v191a189.4 189.4 0 0 0-122.2 177 189.3 189.3 0 0 0 378.6 0 189.4 189.4 0 0 0-122.1-177z" fill="#96b7fe" opacity=".9"/><path opacity=".1" d="M446.5 200.3h134.3v2.6H446.5z"/><path d="M407.8 563.7s114-2 171-30.5 89.6-3 86.5 14.2-19.3 50.9-84.5 55-173-38.7-173-38.7z" fill="#007bff"/><path d="M407.8 563.7s114-2 171-30.5 89.6-3 86.5 14.2-19.3 50.9-84.5 55-173-38.7-173-38.7z" opacity=".1"/><path d="M359 545.4s-12.2 169 147.6 172 158.7-170 158.7-170-59 64.1-198.4 11.2c0 0-72.3-19.3-108-13.2z" fill="#007bff"/><path d="M664.8 548c-3.2 39-23.9 160.8-158.2 158.2C375 703.7 360 588.6 359 548.2c-.7 21.6-.1 166.4 147.7 169.2 159.8 3 158.8-170 158.8-170l-.6.6z" opacity=".1"/><circle cx="507.5" cy="472.5" r="20.7" fill="#007bff" opacity=".3"/><circle cx="519.4" cy="389.6" r="12.8" fill="#007bff" opacity=".3"/><circle cx="490.7" cy="315.5" r="12.8" fill="#007bff" opacity=".3"/><path d="M380.8 488.5c-1 8.7-.9 19.7 7 23.7-6.6-3.4 20.2-42.2 16.4-50-8.1-17-22.4 18.2-23.4 26.3z" fill="#fff" opacity=".2"/><circle cx="480.4" cy="85" r="20.7" fill="#007bff" opacity=".3"/><circle cx="542.6" cy="49.5" r="15.4" fill="#007bff" opacity=".3"/><circle cx="498.1" cy="8" r="8" fill="#007bff" opacity=".3"/><path d="M283.8 263.2H116.3v49.7h25.5v387.6a58.3 58.3 0 1 0 116.5 0V313h25.5z" fill="#96b7fe" opacity=".9"/><path d="M180.6 400.7s41.5-14.8 53-4.3c0 0-16.8 24.7-32.2 23.7s-20.8-19.4-20.8-19.4z" fill="#007bff"/><path d="M180.6 400.7s41.5-14.8 53-4.3c0 0-16.8 24.7-32.2 23.7s-20.8-19.4-20.8-19.4z" opacity=".1"/><path d="M233.6 396.5v281.3a35.5 35.5 0 0 1-35.5 35.6 35.5 35.5 0 0 1-35.6-35.6V396.5s17.1-4.7 33.3 5.2 37.8-5.2 37.8-5.2z" fill="#007bff"/><path opacity=".1" d="M141.8 312.6h116.5v2.3H141.8zM198 696.3a35.5 35.5 0 0 1-35.5-35.6v17.8a35.5 35.5 0 0 0 35.6 35.5 35.5 35.5 0 0 0 35.5-35.5v-17.8a35.5 35.5 0 0 1-35.5 35.5z"/><circle cx="198.1" cy="361.6" r="7.2" fill="#007bff" opacity=".3"/><circle cx="221.8" cy="335.9" r="4.6" fill="#007bff" opacity=".3"/><circle cx="189.5" cy="326.7" r="4.6" fill="#007bff" opacity=".3"/><path d="M150.8 454c-1 8.7-.9 19.6 7 23.7-6.6-3.4 20.2-42.2 16.4-50.1-8.1-16.9-22.4 18.2-23.4 26.3z" fill="#fff" opacity=".2"/><circle cx="213.1" cy="214.5" r="17.6" fill="#007bff" opacity=".3"/><circle cx="160.3" cy="184.3" r="13.1" fill="#007bff" opacity=".3"/><circle cx="198" cy="149.2" r="6.8" fill="#007bff" opacity=".3"/><path d="M1002 507.6s-15.3-76.3-9.4-85.8c0 0 .2-8.9-.2-20.1v-1.3a26.5 26.5 0 0 0 3.2 1.9 26 26 0 0 0 17.6 2.2l-4.7-5.1c-1-1.3-2.2-2.6-2.5-4.2a9.2 9.2 0 0 1 1-4.6c4.4-11.1 4.7-25.2-3.8-33.7-7.2-7.1-9-16.4-16.7-23a48.5 48.5 0 0 1-11.8-18.5c-2.5-5.7-5-11.5-6.5-17.6-1-4.7-1.5-9.7-3-14.3s-4.5-9.1-9-11.2a32.7 32.7 0 0 1-4.8-2.2c-2-1.2-3-3.3-4.4-5.2-7-9.3-30.6-3.8-41.8 0a23.5 23.5 0 0 0-8.3 4.5l.1-.1.3-.4a14.8 14.8 0 0 0-3 3.4c-1.7 2.6-2.4 5.7-3.8 8.4-1.6 3.3-10.7 12.5-6.8 16.2a3.4 3.4 0 0 0 1 .6 8.2 8.2 0 0 0 4.5.5l-.1.3a27.3 27.3 0 0 0-2 10.4 27.9 27.9 0 0 0 28.1 27.6 28.5 28.5 0 0 0 8.6-1.3 38.6 38.6 0 0 1 .3 1.5l-.5.7v-.2l-14.7 20.4c-2.2 1.6-15 10.9-15.7 17.9l-1.6 16.5v2a5.8 5.8 0 0 1-4.7 1.2c-4.5-.8-4.5 16.8-4.5 16.8s-3 2.7-5.2.3-7.5 5.8-7.5 5.8l-34.5 1.5h-.8l-1.9-5.8a2.4 2.4 0 0 0-3-1.5 2 2 0 0 0-.4.2h-.1a1.5 1.5 0 0 0-.3.2.7.7 0 0 0 0 .1 1.7 1.7 0 0 0-.3.2 1.5 1.5 0 0 0 0 .1l-.1.1a2.4 2.4 0 0 0-.4 2l1.6 5c-6.6 1.4-13.4 5.1-7.9 15.5l-28.1-5.2 9 7.7 47 9.7c-.5 1-.1 2.7 1.8 5 8.4 9.8 23.6 12.4 29.8 13.1a52.6 52.6 0 0 0 6 10.2l-.6 9.8s-15.5 74.6-18.3 78.4a44.2 44.2 0 0 0 3.8-5.2 573.5 573.5 0 0 1-12.5 39.5c-2.6 5-5 25.3-2 26.6.9.4 3.5.2 7.3-.1v1.7l-.2 63.7s.8 39.1-1.3 42.9-2.6 11.5-2.6 11.5-8.4 15.4-15 21.6l-.2.2-.2-1.5s-8 10-25.6 9.5c0 0-10.6 6.9 5.1 7.3s35.9-.6 35.9-.6 14-21.4 25.7-18.6v16.2h3.6v-16.4a14.8 14.8 0 0 0 6.4-9.7 11.8 11.8 0 0 0-4.2-10.9 7 7 0 0 1-2.3-5l-.2-1c-1-8.3-2.3-25.6 2.2-38.4 6.3-17.5 8.2-41.8 3.6-56.4A129.1 129.1 0 0 1 892 627c0-.6-.2-1.2-.3-1.7a71 71 0 0 1 9.2 1.9c10.6 2.9 33.7 3.4 53.4 3.3 0 .5 0 1 .2 1.6a60.7 60.7 0 0 0 2.2 11.6c2.4 7.5 3.6 40.2 3.6 40.2s3.2 27 1.4 38c-1 6-1.8 12.2-2.4 18.3v.2s-5.2 14.9-9 23l-.3.6a12.6 12.6 0 0 0-3 .6s-5 10.3-10.2 12-3.4 7.2 8.2 5.2 29-3.8 29-3.8l.7-10.4 3.6-4.4-1 10.4 3.9-.8-.5-12.6 5.8-7.3s7-6.2-3.4-18.5v.2l-.4-.5c-1.7-2.7-3-7.7-.6-16.6 4.6-16 7.2-30.5 7.2-30.5s10.2-39-2-57.3h.5a31 31 0 0 1-2.6-8.2l-.2-1c9-.5 18-2.2 25.2-5.7-.1-.1-4.5-92.5-8-107.2zm-114.8-64.4v.2h-1.9zm-6.4.9a2 2 0 0 0-.8.4 8.3 8.3 0 0 0-1.5 3.8l-2.9-.6-5-1-1.3-1.3 11.6-1.3z" transform="translate(-106.2 -56.3)" fill="url(#a)"/><path fill="#1d2366" d="M870.6 704l-1.1 13.1 3.7-.7-.6-14.3-2 1.9z"/><path d="M786 641.4a94.2 94.2 0 0 0-1.5 43.3s-6.7 15.2-7.2 15.8-19.7 12.2-19.7 12.2l-13.4 7.8s-13.5-6-7-8a9.9 9.9 0 0 0 3.5-2.4c6.5-6.2 14.7-21.6 14.7-21.6s.6-7.7 2.6-11.4 1.3-42.7 1.3-42.7l.2-63.6v-8.2l25.4.1a58.3 58.3 0 0 0 1.1 8.4 129.4 129.4 0 0 0 3.5 14c4.5 14.6 2.6 38.9-3.5 56.3z" fill="#ffb0b1"/><path d="M784.5 684.7s-6.7 15.2-7.2 15.8-19.7 12.2-19.7 12.2l-13.4 7.8s-13.5-6-7-8a9.9 9.9 0 0 0 3.5-2.4l.6 4 4.5-.1 38-34.3.7 5z" opacity=".1"/><path d="M784 680.6L745.8 715l-4.4.2-1-6.5s-7.8 10-25 9.5c0 0-10.4 6.8 5 7.2s35-.6 35-.6 13.8-21.3 25.3-18.5v16.1h3.5v-16.3a14.7 14.7 0 0 0 6.3-9.7 11.8 11.8 0 0 0-4.1-10.8 7 7 0 0 1-2.3-5.1z" fill="#1d2366"/><path d="M874.1 661.3c-2.4 8.8-1 13.8.6 16.5a30.4 30.4 0 0 1 4.5 10.9l.1.8L862 715l-9.5 3.7s-15.2-5.2-12.4-6.7c.7-.4 1.8-2.3 3-5 3.7-8 8.8-22.9 8.8-22.9v-.1c.6-6.1 1.4-12.2 2.4-18.3 1.7-11-1.4-37.8-1.4-37.8s-1.1-32.6-3.6-40a62 62 0 0 1-2.1-11.6c-.5-4.7-.6-8.5-.6-8.5s10-14 28.3 1a20.5 20.5 0 0 1 3.9 4.3c12.7 18 2.5 57.8 2.5 57.8s-2.6 14.4-7 30.4z" fill="#ffb0b1"/><path d="M879.3 689.5L862 714.9l-9.5 3.7s-15.2-5.2-12.4-6.7c.7-.3 1.8-2.2 3-5 6.4 0 9.8 6.1 9.8 6.1l8.1-1.3s10.8-21.1 13.2-22.4.4-9.7.4-9.7v-2.1l.2.2a30.4 30.4 0 0 1 4.5 11z" opacity=".1"/><path d="M853.3 713.6s-4.6-8.5-13.5-5.4c0 0-5 10.2-10 12s-3.3 7.1 8 5.1 28.4-3.7 28.4-3.7l.7-10.4 11.5-14.7s7-6.2-3.3-18.4v2.1s2 8.4-.4 9.7-13.1 22.4-13.1 22.4z" fill="#1d2366"/><path d="M784.9 562.8a58.3 58.3 0 0 0 1 8.3c-10.4-1.5-20.1-.8-26.5-.3v-8.2zM879.7 575.4s-14.9.7-32.6.8c-.5-4.6-.6-8.4-.6-8.4s10-14 28.4 1a20.5 20.5 0 0 1 3.8 4.2 24.4 24.4 0 0 0 1 2.4z" opacity=".1"/><path d="M879.7 573.7s-65.1 3.1-85-2.4-39.5-.8-42.5-2-.5-21.6 2-26.6 16.9-55.7 16.9-55.7l13.7-71.6 14.5-4 1-.3 25.2-7 18.5-5s36.8 143.4 33.6 154a27 27 0 0 0-.5 12.4 31.2 31.2 0 0 0 2.6 8.2z" fill="#1d2366"/><path d="M737 366.4s-13 14-3.2 21.7 16.4.8 16.4.8z" fill="#c7daf5"/><path d="M737 366.4s-13 14-3.2 21.7 16.4.8 16.4.8z" opacity=".1"/><path d="M842.1 274.8l-3.8 3.5a536 536 0 0 1-12.4 11.3c-6 5.2-10.8 9-9.1 5.7s1.4-8.8.6-14.1l-.2-1a97.3 97.3 0 0 0-3-11.6s9.7-12.4 15-17.3c2-1.8 3.4-2.6 3.5-1.3 0 1.7 1.4 5.5 3 9.6l.1.4a244.8 244.8 0 0 0 6.3 14.8z" fill="#ffb0b1"/><path d="M835.8 260a27.6 27.6 0 0 1-18.5 21.2 95.4 95.4 0 0 0-3-12.6s18-23.4 18.3-18.6a52 52 0 0 0 3.2 10zM815.5 287.4l2.4-3.3s1.5 9.5 7.3 5.3 6 31.4 6 31.4l-6.2 91.6-44.3-2.6 1.3-44.3 5-22.3 12.4-32.4 7.4-10.7z" opacity=".1"/><path d="M831.1 321.4l-5.5 82.8-.6 8.8-24.7-1.5h-1l-18.6-1.2L782 366l5-22.2 12.4-32.4 7.4-10.8 8.8-12.6 2.3-3.3s1.6 9.4 7.3 5.3v-.1c5.7-3.6 6 31.5 6 31.5z" fill="#1d2366"/><path d="M787.7 336s-2.3 4.6-6.7 3.9-4.5 16.7-4.5 16.7-3 2.8-5 .4-7.4 5.7-7.4 5.7l-33.8 1.5s15 6.9 12.1 27.6c0 0 51-3.1 52.7-8s-7.4-47.8-7.4-47.8z" fill="#fff"/><path fill="#fff" d="M689.5 375.1l9 7.6 73.2 15.4-9-9.2-73.2-13.8zM815.7 290.3c-1.2 1.9-4.7 11.4-7.6 19.7l-4.5 13s-4.7 30.8-7.1 36.4-1.1 27.3-1.1 27.3l-9 53.6s-4.1 27.7-10.4 44.2c-6.2 16.2-13.2 23.8-13.4 24 2.8-3.7 18-78 18-78l5-93.8 1.5-16.5c.7-7.6 15.8-18 15.8-18l14.5-20.6c1.5 2 .5 5.4-1.7 8.7z"/><path d="M777.8 410.8s-21.3-1-31.7-13.4 24-5 24-5l8.8 2z" fill="#ffb0b1"/><path d="M877.7 553.1a27 27 0 0 0-.6 12.4A176.7 176.7 0 0 1 829 561c-4.7 4.3-17 10.6-17 10.6l-6.6-82.8c-4.3-11.1-6-69.6-6-69.6l1-7.6.1-.4a366 366 0 0 1 6.6-40c2.2-4.5-6.9-16.4-6.9-16.4l4.2-35.2.5-4.3c8.7-3.9 15.4-16.3 15.4-16.3l5-9c5.7-3.6 6 31.5 6 31.5l-5.6 82.8 18.5-5.1s36.7 143.4 33.6 154z" opacity=".1"/><path d="M901.6 558.9c-25.4 12.6-71.6.9-71.6.9-4.7 4.3-17 10.6-17 10.6l-6.6-82.8c-4.3-11.1-6-69.6-6-69.6s5.5-43.6 7.7-48c.6-1.3.3-3.3-.5-5.4a67.3 67.3 0 0 1-4-31.1l1.8-15.1.5-4.3c8.7-3.9 15.4-16.3 15.4-16.3l4.6-8.2 8.6-15 4-7 .7.5 5.2 4.8a616.4 616.4 0 0 0 32 28.2c5.7 5.8 7.5 28.5 8 45.5.3 11.2.1 20 .1 20-5.8 9.5 9.3 85.6 9.3 85.6 3.5 14.6 7.8 106.7 7.8 106.7z" fill="#fff"/><path d="M852.2 296s-17.4 33.1-15.4 45.7 7.8 27 5 30.3a10.2 10.2 0 0 1-8.2 4c-2.7.2-10.2 5.4-10.2 6s-6.8.5-13 3.1-15.2 4.1-15.2 4.1-17.6-.6-19.3 1.1-3.3 11.7.2 19.7 7.4 14 10.4 15 21.7-5.2 37-6.7 31.7-13.5 31.7-13.5 18.1-6.5 21.3-17.5-3.9-71-3.9-71-5.3-28-20.4-20.4z" fill="#fff"/><path d="M851.9 385s-14-2.8-9.1 1.8 4.8 8.8 10.7 8.6S852 385 852 385zM875.4 485s-6.3 4.3 5.8 14.1-5.8-14.1-5.8-14.1zM863.4 520c0 .6-2.3 20.5 6.1 25.5s-6.1-25.4-6.1-25.4z" opacity=".1"/><path d="M730.9 364.2c-6.7.2-21.3 2.3-13.7 16.3 6.6 12.5 17.8 4.2 24-2.2a23.7 23.7 0 0 0-10.3-14.1zM742 377.6zM741.4 378.2l.3-.3-.3.3z" fill="#ffb0b1"/><path d="M850 278.1l-14.3 9.9c-3.2 2.3-9.3 16.3-13.2 23.4-3.1 5.7-13.3 7.2-17.1 7.5l.4-4.2c8.7-3.9 15.4-16.3 15.4-16.3l17.3-30.3 6 5.4 5.5 4.6z" opacity=".1"/><path d="M850 277.6l-14.3 9.8c-3.2 2.4-9.3 16.3-13.2 23.4-3.1 5.7-13.3 7.2-17.1 7.5l.5-4.2c8.7-3.9 15.4-16.3 15.4-16.3l17.2-30.3 6 5.4 5.5 4.7z" fill="#dce7ff"/><path d="M836.3 253.9a26.7 26.7 0 0 1-.6 5.7 27.2 27.2 0 0 1-4.3 9.9 27.6 27.6 0 1 1 4.9-15.6z" fill="#ffb0b1"/><path d="M884.4 346.6a24.5 24.5 0 0 1-8.9-9.6c-1.5-3-2.6-6.6-5.2-8.8-2.4-1.9-5.6-2.4-8.6-3.2-9.8-3-18-11.9-18.3-22-.1-4.8 1.4-9.6.7-14.4a15.8 15.8 0 0 0-3.1-7.4 22.9 22.9 0 0 0-2.7-2.8c-1.3-1.3-2.7-2.5-3.8-3.8a14.5 14.5 0 0 1-2-2.6 13 13 0 0 1-1.1-2.5c-1.8-5.7-.2-12.4-2.2-18.2l-.1-.3c-.8-2-2.4-4-4.5-4.2s-4.1 1.6-6.2 2.4c-4.3 1.7-9-1.2-12.7-4.1s-7.7-6.3-12.4-5.6c-3 .4-5.4 2.5-8.2 3.6a13.4 13.4 0 0 1-2 .5 27.6 27.6 0 0 1 53.1 10.3 26.7 26.7 0 0 1-.6 5.7l.2.4c1 2.8 2.2 5.7 3.3 8.1l5.3 4.8a616.4 616.4 0 0 0 31.9 28.2c5.8 5.8 7.6 28.5 8 45.5z" opacity=".1"/><path d="M784.8 226c1.3-2.6 2-5.7 3.6-8.2 2.3-3.8 6.4-6.1 10.6-7.6 10.9-3.7 34-9.2 40.9 0 1.3 1.9 2.4 4 4.3 5.3a33.6 33.6 0 0 0 4.7 2c4.5 2.2 7.3 6.6 8.8 11.3s1.9 9.5 3 14.2c1.4 6 3.8 11.8 6.3 17.6 2.9 6.7 6 13.7 11.5 18.5 7.6 6.5 9.3 15.7 16.4 22.8 8.3 8.5 8 22.5 3.8 33.6a9.3 9.3 0 0 0-1 4.5 8.7 8.7 0 0 0 2.4 4.2l4.6 5.2a25.7 25.7 0 0 1-28-13c-1.6-3-2.7-6.6-5.3-8.8-2.4-2-5.6-2.4-8.6-3.3-9.8-2.9-18-11.8-18.3-22-.1-4.8 1.4-9.6.7-14.3a16 16 0 0 0-3-7.3c-2.7-3.3-6.5-5.6-8.6-9.3-3.5-6.2-.8-14.3-3.4-21-.8-2-2.3-4-4.5-4.2s-4 1.6-6.1 2.4c-4.4 1.7-9.1-1.1-12.7-4s-7.8-6.4-12.4-5.7c-3 .4-5.5 2.5-8.3 3.6-2 .8-6.3 1.5-8.1-.3-3.8-3.6 5-12.8 6.7-16.1z" fill="#591d4b"/><path d="M879.2 333.3c-1.5-3-2.6-6.6-5.2-8.8-2.4-2-5.6-2.4-8.6-3.3-9.7-2.8-18-11.8-18.3-22-.1-4.7 1.4-9.5.7-14.3a15.8 15.8 0 0 0-3.1-7.4c-2.6-3.3-6.4-5.6-8.5-9.2-3.5-6.3-.8-14.3-3.4-21-.8-2-2.3-4.1-4.5-4.3s-4 1.7-6.1 2.5c-4.4 1.7-9.1-1.2-12.7-4.2s-7.8-6.2-12.4-5.6c-3 .4-5.5 2.5-8.3 3.6-2 .8-6.3 1.5-8.1-.2-3.8-3.7 5-13 6.7-16.2 1.3-2.7 2-5.7 3.6-8.3l.2-.4a14.7 14.7 0 0 0-3 3.5c-1.6 2.5-2.2 5.6-3.5 8.3-1.7 3.3-10.6 12.4-6.7 16.1 1.8 1.8 6 1 8 .3 2.9-1.1 5.3-3.2 8.4-3.6 4.6-.7 8.7 2.7 12.3 5.6s8.4 5.8 12.7 4.1c2.1-.8 4-2.6 6.2-2.4s3.7 2.2 4.5 4.2c2.5 6.7-.1 14.8 3.4 21 2 3.7 6 6 8.5 9.3a15.8 15.8 0 0 1 3 7.4c.8 4.7-.7 9.5-.6 14.3.3 10.2 8.5 19.1 18.3 22 3 .9 6.2 1.3 8.5 3.3 2.7 2.2 3.7 5.7 5.3 8.8a25.7 25.7 0 0 0 28 13l-2-2.5a26 26 0 0 1-23.3-13.6z" opacity=".1"/><path d="M815.1 290.9c-1.2 1.8-4.7 11.4-7.6 19.7-2.7-1-5.2-7.8-5.2-7.8l14.5-20.7c1.5 2 .6 5.5-1.7 8.8z" opacity=".1"/><path d="M815.7 290.3c-1.2 1.9-4.7 11.4-7.6 19.7-2.7-1-5.2-7.8-5.2-7.8l14.5-20.6c1.5 2 .5 5.4-1.7 8.7z" fill="#dce7ff"/><path d="M731.3 385.3l-8-25.4a2.4 2.4 0 0 1 1.5-3 2.4 2.4 0 0 1 3 1.6l8 25.4-.8 5.3z" fill="#be8b87"/><path d="M724 357.7a2.4 2.4 0 0 1 3 1.6l8 25.3-.6 4 .6.6.8-5.3-8-25.3a2.4 2.4 0 0 0-3-1.6 2.3 2.3 0 0 0-1.3 1 2.3 2.3 0 0 1 .5-.3z" fill="#fff" opacity=".1"/><path fill="#efc8c4" d="M731.3 385.3l4.5-1.4-.7 4.3-.1 1-1.3-1.4-2.4-2.5z"/><path d="M733.7 387.8a1.1 1.1 0 0 1 .3-.3.4.4 0 0 1 .4 0 1 1 0 0 1 .2.3.8.8 0 0 0 .5.4l-.1 1z" fill="#727a9c"/><path d="M723.2 369s16.1-.2 12.3 6.7-9.7 7.7-9.7 7.7z" fill="#ffb0b1"/></svg>