<svg data-name="Layer 1" xmlns="http://www.w3.org/2000/svg" width="1110.5" height="857.7"><defs><linearGradient id="a" x1="2277.3" y1="874.5" x2="2277.3" y2="331.7" gradientTransform="translate(-1992)" gradientUnits="userSpaceOnUse"><stop offset="0" stop-color="gray" stop-opacity=".3"/><stop offset=".5" stop-color="gray" stop-opacity=".1"/><stop offset="1" stop-color="gray" stop-opacity=".1"/></linearGradient></defs><ellipse cx="346.7" cy="821.7" rx="237.5" ry="36" fill="#007bff" opacity=".1"/><path d="M342.9 37.8C380.6 4.6 439.7-2.2 493.5.5c169.1 8.3 321.7 89 453.8 180.3 47.8 33 94.8 68.6 125.9 114.1 63.1 92.7 44.4 221-43.4 297.3-30 26-66.1 45.9-103.3 63.5C860.4 687 789 712.2 714 719.4c-53.5 5.1-107.7 1-160.9-6.2-148.6-19.9-294.5-64-416.8-139.3C82.7 540.9 32 499.7 10 446.2S2 325 56.8 293.2c22.7-13 49.7-19 76.2-24.5 39-8.1 78.7-16.2 114-32.8 36.3-17.2 79.4-50.4 72.2-88.4-7.8-40.7-14-76.5 23.7-109.7z" fill="#007bff" opacity=".1"/><path d="M920.8 88.5c6.8 44.5-12 84.3-12 84.3s-29.8-32.4-36.6-77c-3.8-25 .5-48.4 5-64.3a11 11 0 0 1 19.8-3c9 13.8 20 35 23.8 60zM1046.5 159.5a77 77 0 0 1 19.9 2.5c10.9 2.8 11 18.2.2 21.3a77.2 77.2 0 0 1-19.8 3c-24.5.2-44.5-13-44.5-13s19.7-13.5 44.2-13.8zM977.6 91.7c-22.9 25.1-27.7 58-27.7 58s32.2-8 55-33c10.6-11.7 17.3-25 21.5-35.9a11 11 0 0 0-15.2-13.8 113 113 0 0 0-33.6 24.7z" fill="#007bff"/><rect x="511.5" y="87" width="514" height="619" rx="19.8" fill="#464353"/><path fill="#007bff" opacity=".1" d="M555.8 149.4h425.3v494.1H555.8z"/><circle cx="768.5" cy="676.1" r="18.1" fill="#fff"/><path d="M768.5 131.8a8.6 8.6 0 1 1 8.5-8.6 8.6 8.6 0 0 1-8.5 8.6z" fill="#fff"/><path d="M768.5 115.2a8 8 0 1 1-8 8 8 8 0 0 1 8-8m0-1a9 9 0 1 0 9 9 9 9 0 0 0-9-9z" fill="#fff"/><rect x="575.6" y="302.5" width="88.2" height="119.9" rx="4.3" fill="#fff" stroke="#fff" stroke-miterlimit="10"/><rect x="583.8" y="332.7" width="71.7" height="38" rx="7.1" fill="#007bff" opacity=".5"/><rect x="598.8" y="386.3" width="41.8" height="5.9" rx="1.7" fill="#007bff"/><rect x="724.7" y="302.5" width="88.2" height="119.9" rx="4.3" fill="#fff" stroke="#fff" stroke-miterlimit="10"/><rect x="747.9" y="321.2" width="42.3" height="22.4" rx="1.5" fill="#007bff" opacity=".5"/><rect x="741.7" y="364.7" width="54" height="5.9" rx="1.7" fill="#007bff"/><rect x="741.7" y="375.7" width="54" height="5.9" rx="1.7" fill="#007bff"/><rect x="873.1" y="217.3" width="88.2" height="119.9" rx="4.3" fill="#fff" stroke="#fff" stroke-miterlimit="10"/><rect x="888.5" y="235.9" width="57.4" height="26.8" rx="1.5" fill="#007bff" opacity=".5"/><rect x="888.5" y="274.9" width="57.4" height="26.8" rx="1.5" fill="#007bff" opacity=".5"/><rect x="884" y="323.3" width="18.8" height="8.3" rx="3.8" fill="#007bff"/><rect x="907.8" y="323.3" width="18.8" height="8.3" rx="3.8" fill="#007bff"/><rect x="931.7" y="323.3" width="18.8" height="8.3" rx="3.8" fill="#007bff"/><rect x="872.9" y="387.7" width="88.2" height="119.9" rx="4.3" fill="#fff" stroke="#fff" stroke-miterlimit="10"/><rect x="879.8" y="401.7" width="26.4" height="26.8" rx="1.5" fill="#007bff" opacity=".5"/><rect x="890.1" y="444.8" width="54" height="5.9" rx="1.7" fill="#007bff"/><rect x="890.1" y="456.8" width="54" height="5.9" rx="1.7" fill="#007bff"/><rect x="890.1" y="468.7" width="54" height="5.9" rx="1.7" fill="#007bff"/><path d="M714.5 359.6l-1.3.7-11 5.2-1 .5a.5.5 0 0 1-.7-.3.6.6 0 0 1 0-.2v-3.1a.5.5 0 0 0-.5-.5h-26.6a.5.5 0 0 1-.6-.6V357a.5.5 0 0 1 .6-.5H700a.5.5 0 0 0 .5-.5v-3.2a.7.7 0 0 1 0-.2.5.5 0 0 1 .8-.3l1 .5 10.9 5.3 1.3.7a.5.5 0 0 1 0 1zM862.6 332.6l-1 1.2-7 9.8-.7.9a.6.6 0 0 1-.8 0 .5.5 0 0 1-.1 0l-1.5-2.8a.6.6 0 0 0-.7-.3L827.3 354a.5.5 0 0 1-.7-.2l-2-3.9a.5.5 0 0 1 .1-.7l23.5-12.5a.5.5 0 0 0 .2-.7l-1.4-2.8a.3.3 0 0 1-.1-.2.5.5 0 0 1 .5-.6h1l12.2-.4h1.5a.5.5 0 0 1 .5.7zM862.5 383.9h-14.7a.5.5 0 0 1-.5-.6.5.5 0 0 1 0-.2l1.4-2.8a.5.5 0 0 0-.3-.7l-24-11.5a.5.5 0 0 1-.2-.7l1.9-4a.5.5 0 0 1 .7-.2l24 11.5a.6.6 0 0 0 .7-.2l1.4-3a.5.5 0 0 1 .9 0l.6.8 7.6 9.5.9 1.2a.5.5 0 0 1-.4.9z" fill="#fff" stroke="#fff" stroke-miterlimit="10"/><path fill="#504f60" d="M424.2 606.6v3l-5.2 180h-8.6l4.2-180 .1-3.4 9.5.4z"/><path opacity=".1" d="M424.2 606.6v3l-5.2 180h-8.6l4.2-180 .1-3.4 9.5.4z"/><path fill="#504f60" d="M473.8 759.2h-6.4L372 759h-5.1l2.7-8.4h103.6l.6 8.6z"/><path opacity=".1" d="M424.2 606.6v3h-9.6l.1-3.4 9.5.4z"/><path fill="#504f60" d="M411.9 602.3h15.9v6h-15.9z"/><path opacity=".1" d="M372.8 750.6l-.8 8.4h-5.1l2.7-8.4h3.2z"/><path fill="#504f60" d="M386.5 602.1l-.3 2.6-21.1 208.9-9.7-.5 22.3-208.4.2-2.3 8.6-.3z"/><path opacity=".1" d="M473.8 759.2h-6.4l-.8-8.6h6.6l.6 8.6z"/><path fill="#504f60" d="M484 813.1l-9.7.5L453 604.7l-.2-2.6 8.5.3.3 2.3L484 813.1z"/><path fill="#fff" d="M311.4 396.2h213.9v205.1H311.4z"/><rect x="264.5" y="396.2" width="308" height="205.1" rx="4.1" fill="#fff"/><path d="M422.5 327.6v49.6h-8.3v-49.6a4.2 4.2 0 1 1 8.3 0z" fill="#504f60"/><path opacity=".1" d="M414.2 372.7h8.3v4.5h-8.3z"/><path d="M425.8 376v16.4h-15V376a2 2 0 0 1 2-2h11a2 2 0 0 1 2 2z" fill="#504f60"/><circle cx="418.3" cy="384.4" r="3.2" opacity=".1"/><circle cx="418.3" cy="383.7" r="3.2" fill="#3f3d56"/><path opacity=".1" d="M410.9 390.4h14.9v2h-14.9zM404.8 393.1h27.1v4.5h-27.1z"/><path fill="#504f60" d="M404.8 391.7h27.1v4.5h-27.1z"/><path d="M364.6 596h111.6a6 6 0 0 1 6 6H358.6a6 6 0 0 1 6-6zM378 602.4l8.5-.3-.3 2.6h-8.5l.2-2.3zM411.9 602.3h15.9v2.5h-15.9zM461.7 604.7H453l-.2-2.6 8.5.3.3 2.3z" opacity=".1"/><path d="M364.6 597.4h111.6a6 6 0 0 1 6 6H358.6a6 6 0 0 1 6-6z" fill="#504f60"/><path d="M517.8 420.3a1.5 1.5 0 0 1 1.7 1.7c-1.4 14-.5 28.3 1 42.3.8 6.4 1.8 13.1 4.6 17.9a1.5 1.5 0 0 1-.2 1.8 4 4 0 0 1-2.8.8l-44.6.3a1.5 1.5 0 0 1-1.4-1.8c3.5-15.3 2.8-32 1.3-48-.7-7.7-1-12 4.8-12.5l18-1.3c1.4 0 13-.4 17.6-1.2zM483.7 512a1.5 1.5 0 0 0-1.7 1.6c1.4 14 .5 28.4-1.1 42.4a46.8 46.8 0 0 1-4.5 17.9 1.5 1.5 0 0 0 .2 1.8 4 4 0 0 0 2.7.8l44.7.3a1.5 1.5 0 0 0 1.4-1.8c-3.6-15.3-2.8-32-1.3-48 .7-7.7 1-12-4.8-12.5l-18-1.3c-1.4 0-13-.4-17.6-1.2z" fill="#fff" stroke="#33313f" stroke-miterlimit="10" stroke-width="3"/><path d="M496.8 537.8a132.4 132.4 0 0 1 15.5.2 1.5 1.5 0 0 1 1.4 1.3l.4 4a.6.6 0 0 1 0 .6.6.6 0 0 1-.5 0h-6.5l-4 .6a47.8 47.8 0 0 1-6.6.1 33.6 33.6 0 0 1-9.3-1.1l.2-3.7c0-1.6 0-1.7 1.6-1.8zM496.8 556.2a130.2 130.2 0 0 0 15.5-.2 1.5 1.5 0 0 0 1.4-1.3l.4-4a.6.6 0 0 0 0-.6.6.6 0 0 0-.5-.1c-2.1 0-4.3.2-6.5 0l-4-.5a46.3 46.3 0 0 0-6.6-.1 33.6 33.6 0 0 0-9.3 1.1l.2 3.7c0 1.6 0 1.7 1.6 1.8zM496.8 563.4a130.2 130.2 0 0 1 15.5.2 1.5 1.5 0 0 1 1.4 1.3l.4 4.1a.6.6 0 0 1 0 .6.6.6 0 0 1-.5 0h-6.5l-4 .6a47.8 47.8 0 0 1-6.6 0 33.5 33.5 0 0 1-9.3-1l.2-3.8c0-1.5 0-1.7 1.6-1.7z" fill="none" stroke="#33313f" stroke-linecap="round" stroke-miterlimit="10" stroke-width="2"/><path d="M503.4 477.8a6.6 6.6 0 0 1 .4 3.5.5.5 0 0 1 0 .3.5.5 0 0 1-.5.1l-9.5.4.6-3c.3-1.1 1.2-.8 2.2-.9zM517.7 477.8a6.6 6.6 0 0 1 .4 3.5.5.5 0 0 1 0 .3.6.6 0 0 1-.4.1l-9.6.4.7-3c.3-1.1 1.1-.8 2.2-.9z" fill="#fff" stroke="#33313f" stroke-linecap="round" stroke-miterlimit="10" stroke-width="2"/><path d="M512 430.1l1.3 11a3 3 0 0 1-2.8 3.3 142.8 142.8 0 0 1-24.4-.2 3 3 0 0 1-2.7-2.8 42.7 42.7 0 0 0-.8-5.8c-.4-2-.7-4 1.6-4.6s5.6-.1 8.2-.2q4.7 0 9.3-.2l10.3-.5zM512 469.8l1.2-11a3 3 0 0 0-2.7-3.3 143.8 143.8 0 0 0-24.4.2 3 3 0 0 0-2.7 2.8 42.7 42.7 0 0 1-.8 5.9c-.4 2-.7 4 1.6 4.5s5.6.2 8.2.2l9.2.3 10.4.4z" fill="none" stroke="#33313f" stroke-miterlimit="10" stroke-width="3"/><path d="M499.1 519.4q-.5 5.5-.6 11a52 52 0 0 1-11-1.2 2 2 0 0 1-1.7-2.4c0-2.3-1.3-7.4 2-7.7.9 0 11.3.5 11.3.3z" fill="none" stroke="#33313f" stroke-linecap="round" stroke-miterlimit="10" stroke-width="2"/><path d="M322.6 469.4a3.2 3.2 0 0 1 3.5 3.5 204 204 0 0 0 1.2 40.2c.7 6 1.6 12.1 4 16.8a2.6 2.6 0 0 1-2.4 3.8l-44.2.3a1.8 1.8 0 0 1-1.8-2.2c3.5-15.2 2.8-31.8 1.3-47.5-.7-7.9-1-12 4.7-12.6l18-1.3c1.3 0 10.3-.4 15.7-1z" fill="#fff" stroke="#33313f" stroke-linecap="round" stroke-miterlimit="10" stroke-width="3"/><path d="M384.2 469.2a1.6 1.6 0 0 0-1.9 1.8c1.5 13.9.5 28.2-1 42.1a46.8 46.8 0 0 1-4.6 17.9 1.6 1.6 0 0 0 .5 2 4.2 4.2 0 0 0 2.5.7l44.5.3a1.6 1.6 0 0 0 1.6-2 153 153 0 0 1-1.4-47.8c.7-7.8 1.1-12-4.7-12.5-6-.6-12-.8-18-1.3-1.5-.1-12.8-.4-17.5-1.2z" fill="#fff" stroke="#33313f" stroke-miterlimit="10" stroke-width="3"/><path fill="#fff" stroke="#33313f" stroke-linecap="round" stroke-miterlimit="10" stroke-width="2" d="M296 478.3l22.7 30.2M318.7 476l-21.9 34M397.1 479.7l12.3 16.5M409.4 478.5L397.5 497"/><path d="M303.5 518.1a132.6 132.6 0 0 1 15.6.2 1.5 1.5 0 0 1 1.3 1.3l.5 4.1a.6.6 0 0 1-.1.6.7.7 0 0 1-.4 0h-6.5l-4 .6a47.7 47.7 0 0 1-6.7 0 33.4 33.4 0 0 1-9.3-1l.2-3.8c0-1.5 0-1.7 1.6-1.7zM398.6 503a130.4 130.4 0 0 1 15.6.2 1.5 1.5 0 0 1 1.3 1.3l.5 4.1a.6.6 0 0 1-.1.6.6.6 0 0 1-.4 0H409l-4 .6a46.3 46.3 0 0 1-6.7 0 33.6 33.6 0 0 1-9.3-1l.2-3.8c0-1.5 0-1.7 1.6-1.7zM406.6 514.4a132.4 132.4 0 0 0-15.6.2 1.5 1.5 0 0 0-1.3 1.3l-.5 4a.6.6 0 0 0 .1.6.6.6 0 0 0 .4 0h6.6c1.3.2 2.6.5 4 .6a49.3 49.3 0 0 0 6.6.1 33.5 33.5 0 0 0 9.3-1.1l-.2-3.7c0-1.6 0-1.7-1.6-1.8z" fill="none" stroke="#33313f" stroke-linecap="round" stroke-miterlimit="10" stroke-width="2"/><path d="M341.9 507s14.7-.8 17.3 0M359.2 499s6.4 6.5 6.4 8-8.3 6.8-8.3 6.8M438 493.3s13.4-6.2 16.1-6.5" fill="none" stroke="#33313f" stroke-miterlimit="10" stroke-width="3"/><path d="M451.2 479.4s8.3 3.5 8.9 5-5.1 9.4-5.1 9.4M438 509.3s13.5 5.7 15.5 7.6" fill="none" stroke="#33313f" stroke-miterlimit="10" stroke-width="3"/><path d="M457 509.7s3 8.6 2.3 10-10.4 2.4-10.4 2.4" fill="none" stroke="#33313f" stroke-miterlimit="10" stroke-width="3"/><path d="M490.5 477.8a6.6 6.6 0 0 1 .4 3.5.5.5 0 0 1 0 .3.6.6 0 0 1-.4.1l-9.5.4.6-3c.3-1.1 1.1-.8 2.2-.9z" fill="#fff" stroke="#33313f" stroke-linecap="round" stroke-miterlimit="10" stroke-width="2"/><path fill="#33313f" d="M310.9 564l3.3-3.1-3-.1-1.5 2.4 1.2.8z"/><path fill="#65617d" d="M286.7 586l3.6-4.6.8-.9 10.8-11.4 3.8-3.9 1.7-.2 2.5-2.4 1.5 1.3-2.5 2.8v1.5l-3.7 4-10.7 11.7-.7.8-4.3 4-2.8-2.8z"/><path fill="#33313f" d="M291 580.5l11-11.4 3.2 3.2-10.7 11.6-3.4-3.4z"/><path d="M352.3 606.1a48 48 0 0 1-8.2-10 36.5 36.5 0 0 0-18.3-13.5v-2.4l.3-.1-.2-2.3h.2l-.4-6-2-29.8s-7-19.9 5.5-38.2.8-35.8-11-42.7c0 0-5.5-29-.8-35.9a203.7 203.7 0 0 0-19.6-10c-.2-.3-.2-.6-.3-1l-.5-8.1a29.5 29.5 0 0 1 .8-4.2l.5-1.7a29.8 29.8 0 0 0 19.1-27.6 29 29 0 0 0-1.8-10.3 12.9 12.9 0 0 0 1.4-3.3c.8-3-.1-6.4-1.9-9.5a35.5 35.5 0 0 0-16.6-15.5 65.1 65.1 0 0 0-28.9-1.5c-4.7.6-10.2 2.2-11.9 6.5-.6 1.6-.6 3.4-1 5-1.8 6.7-9.5 9.8-14.3 14.9-4.2 4.5-6 10.6-7.4 16.5a151.2 151.2 0 0 0-2.7 51.9c.4 4 1 7.9 1.8 11.9-2.9 4-5.5 11-4.3 23.3l-9.4 44.3-4 26s-2.3 10.6 7 19.8c6 5.8 13.3 15.7 17.8 22a52.5 52.5 0 0 0-2.8 17.7c0 2.7.2 5.3.4 7.8a69.3 69.3 0 0 0 3 15.6c1.1 10.7 3.3 24.3 7.5 33l1.6 46.6s-2.4 42.7-7 51.1 10.2 79.4 10.2 79.4v10l-2.5 7.3-.7-.5c-11.7 14.5 0 19.8 0 19.8l8.3.4a9.4 9.4 0 0 0 5 10.3s66.6 3 78.3 0 8.6-13.7 2.3-13c-2.3.3-5.9-.3-9.3-1.2 3.6-4.3.7-10-4-9.5-6.2.8-20.3-4.7-20.3-4.7a10.5 10.5 0 0 0-1.5-.4 156.7 156.7 0 0 1-15.4-4.3c-3-6.4-10-23.7-5-37.1 2.2-6 3-14.1 3-22a249 249 0 0 1 10.3-69.6l9.4-32s13.3-39 14-49.6V614c11 7 19.8 5 25.3 1.7a6 6 0 0 0 1-9.7zm-104.5-81l.7-3.6h5.5a28.2 28.2 0 0 1 2.8 15c-4.3-1.4-10.6-4.6-9-11.3z" transform="translate(-44.8 -21.2)" fill="url(#a)"/><path d="M210.5 810.8l-3 9 9.8 9.8 32.3 7.6 23.4-2.3-1.5-8.3a10 10 0 0 0-7.4-7.3c-9.6-2.2-28-7.4-31.8-14.5z" fill="#db8b8b"/><path d="M210.5 810.8l-3 9 9.8 9.8 32.3 7.6 23.4-2.3-1.5-8.3a10 10 0 0 0-7.4-7.3c-9.6-2.2-28-7.4-31.8-14.5z" opacity=".1"/><path d="M265.5 832.6l-4.6-6 4.6-7s13.5 5.5 19.5 4.8 9 9.8-2.2 12.8-75.3 0-75.3 0-11.3-5.3 0-19.6l9.8 7.5s16.5 9 24.8 7.5z" fill="#2e3037"/><path d="M285.8 845.5l-23.4 2.2-32.3-7.5-9.9-9.8.8-2.4 1.2-3.4 1-3.3 21.9-6a13.5 13.5 0 0 0 4.4 4.5 93.5 93.5 0 0 0 28.3 10.4 10 10 0 0 1 6.5 7z" fill="#db8b8b"/><path d="M285.8 845.5l-23.4 2.2-32.3-7.5-9.9-9.8.8-2.4 9 6.9s16.6 9 24.9 7.5h23.3l-4.5-6 4-6.2a10 10 0 0 1 6.6 7z" opacity=".1"/><path d="M278.2 843.2l-4.5-6 4.5-7s13.6 5.5 19.6 4.7 9 9.8-2.2 12.8-75.4 0-75.4 0-11.3-5.3 0-19.6l9.8 7.6s16.6 9 24.9 7.5z" fill="#2e3037"/><path d="M259.4 406.3s-36.1 3.8-30.8-11.3a27 27 0 0 0 1-13.3 37 37 0 0 0-6.3-15.3l33.9 5.3a42.3 42.3 0 0 0-4.6 10.8c-4 16 6.8 23.8 6.8 23.8z" fill="#db8b8b"/><path d="M197.7 578s.7 32.4 8.2 48.3l1.6 45.9s-2.3 42.2-6.8 50.5 9.8 78.3 9.8 78.3v12s24 9 30.8-1.4l-6.7-89.7 3-124.3z" fill="#35323e"/><path d="M197.7 578s.7 32.4 8.2 48.3l1.5 45.9s-2.2 42.2-6.7 50.5 9.8 78.3 9.8 78.3v12s24 9 30.8-1.4l-6.7-89.7 3-124.3z" opacity=".1"/><path d="M182.6 474.1l-4.5 12-3.8 25.7a22.6 22.6 0 0 0 6.8 19.5c9 9 21 28 21 28l14.4-43s-14.3-2.3-12-12 1.5-28 1.5-28z" fill="#007bff"/><path d="M249.5 819.8c-9.6 15.2-24.7 6.5-27.3 4.8l1-3.3 22-6a13.5 13.5 0 0 0 4.3 4.5z" opacity=".1"/><path d="M279.8 607.4c-.8 10.6-13.6 49-13.6 49l-9 31.6a251.3 251.3 0 0 0-10 68.8c0 7.7-.7 15.6-2.8 21.6-6 16.6 6 39.2 6 39.2-10.6 18.8-28.7 6-28.7 6v-12s-14.2-65.6-10.5-78.4 5.3-47.4 5.3-47.4v-62.5a70.9 70.9 0 0 1-20.7-45l-.4-7.8c-.6-17 11-37 15.6-44l1.7-2.7 66.5 26.4h.2v8.3z" fill="#35323e"/><path d="M257.2 371.7a42.3 42.3 0 0 0-4.6 10.8 29.4 29.4 0 0 1-23-.8 37 37 0 0 0-6.3-15.3z" opacity=".1"/><circle cx="242.1" cy="353.6" r="29.4" fill="#db8b8b"/><path d="M279.8 558.5h-.4c-31.5 6.5-71.2-26.4-71.2-26.4a38 38 0 0 0 2.8-5.6c1-1.7 1.8-2.7 1.8-2.7l66.4 26.4.2 2.6z" opacity=".1"/><path d="M271.5 405.6s-42.2-25.6-55.8-15.1L197 414.6s-12 3.8-9.8 27.9l-9 43.7 27.1 6.7s15.9 15.1 3 37c0 0 40 33 71.6 26.3l-2.3-35.4s-6.8-19.5 5.3-37.6.7-35.4-10.6-42.2c0 0-5.2-28.7-.7-35.4z" fill="#007bff"/><path d="M273.7 559.2s15.9 3 23.4 15a46.9 46.9 0 0 0 7.9 10 6 6 0 0 1-1 9.5c-6 3.6-15.7 5.8-28-4.3-21-17.4-2.3-30.2-2.3-30.2z" fill="#db8b8b"/><path d="M250.4 419.8s-15-1.5-18.8 37.7-9.8 48.2-9.8 48.2-3.8 20.3 5.2 32.4 26.4 37.7 26.4 37.7 18.8 5.3 22.6-13.5l-23.3-43.7s-3.8-15 5.2-25.6 15.8-80.7-7.5-73.2z" opacity=".1"/><path d="M251.9 417.6s-15-1.5-18.8 37.7-9.8 48.2-9.8 48.2-3.8 20.3 5.2 32.3 26.4 37.7 26.4 37.7 18.8 5.3 22.6-13.6l-23.3-43.6s-3.8-15.1 5.2-25.6 15.8-80.6-7.5-73z" fill="#007bff"/><path d="M264.3 445.8s1.5 23.4-5.2 36.2-6.8 29.4 0 38.4M268 417.2s-6-6-23.3-6.7-24.8-6-24.8-6" opacity=".1"/><path d="M226.2 315.6c-4.5.6-9.8 2.2-11.4 6.5-.6 1.5-.7 3.3-1 5-1.8 6.5-9.2 9.6-13.8 14.6-4 4.5-5.8 10.5-7 16.3a153.1 153.1 0 0 0-2.8 51.2c1.5 12.5 4.5 24.8 5.3 37.3s-.7 25.8-7.5 36.3c-3 4.5-6.9 8.5-9 13.5 4.4 3.5 10.3 4 15.9 4.2q9.7.3 19.4 0c3.4-.1 7-.3 10-2a15.3 15.3 0 0 0 5.1-5.6c3.7-6.3 4.6-13.9 4.5-21.2s-1.3-14.5-1.5-21.8c0-4 .3-8.2 2.6-11.5 1.6-2.3 4.1-4 6.3-5.8 8-7.2 10.8-18.6 11-29.4s-1.4-21.6-.5-32.3c.3-4.2 2-9.2 6-10 1.3-.3 2.7 0 4-.6 3.3-1.2 3-5.9 4-9.3 1-3.9 4.3-6.8 5.2-10.7 2.2-9.1-9.4-20-17-23.2a60.9 60.9 0 0 0-27.8-1.5z" opacity=".1"/><path d="M225.4 314.1c-4.5.6-9.8 2.2-11.4 6.5a46 46 0 0 0-1 5c-1.7 6.5-9.1 9.6-13.7 14.6-4 4.5-5.8 10.5-7.1 16.3a153.3 153.3 0 0 0-2.7 51.2c1.5 12.5 4.5 24.8 5.3 37.3s-.7 25.8-7.5 36.3c-3 4.6-6.9 8.6-9 13.5 4.4 3.6 10.3 4 15.9 4.2q9.7.4 19.4 0c3.4 0 7-.3 10-2a15.1 15.1 0 0 0 5.1-5.6c3.7-6.3 4.6-13.8 4.5-21.1s-1.3-14.6-1.5-21.9c0-4 .3-8.2 2.6-11.4 1.6-2.4 4.1-4 6.3-5.9 8-7.1 10.8-18.6 11-29.4s-1.4-21.5-.5-32.2c.3-4.2 2-9.3 6-10.1 1.3-.3 2.7 0 4-.5 3.3-1.3 3-6 4-9.4 1-3.8 4.3-6.8 5.2-10.7 2.2-9.1-9.4-20-17-23.1-8-3.4-19.7-2.6-27.9-1.6z" fill="#35323e"/></svg>