<svg data-name="Layer 1" xmlns="http://www.w3.org/2000/svg" xmlns:xlink="http://www.w3.org/1999/xlink" width="1120.6" height="862.5"><defs><linearGradient id="a" x1="923" y1="714.3" x2="923" y2="199.5" gradientTransform="matrix(1 .09 -.09 1 45.1 -84.6)" gradientUnits="userSpaceOnUse"><stop offset="0" stop-color="gray" stop-opacity=".3"/><stop offset=".5" stop-color="gray" stop-opacity=".1"/><stop offset="1" stop-color="gray" stop-opacity=".1"/></linearGradient><linearGradient id="b" x1="329.5" y1="708.4" x2="329.5" y2="197" xlink:href="#a"/></defs><path d="M1050 488.3c-41.3 62-30.8 148.4-10 216.8 7 22.9 14.9 47 10.2 72.4-5.8 30.9-29.2 54.7-53.3 68-43.7 24.4-94.6 22.4-132.3-5.1-32.6-23.8-54.7-64.4-88-87-55.6-37.7-129.8-17.6-194 14.9-45.3 22.9-95 52-138 33.8-30.3-13-49.9-47.7-59.6-85.2-4.7-18.1-7.8-37.8-17.8-51.8-6-8.3-14-14-22.3-18.6-75.7-42.8-175.6-11.2-248.9-59.2-49.4-32.4-78.8-97.6-89.8-166.7S.7 277.9 8 205.5C13.2 154 20.7 99 49.4 57.8c30.3-43.6 79.5-62.2 123-57S254 32 287.2 63.4c41.5 39 79.4 88.4 132.1 102 36 9.2 74.6.5 112.3-4 63.1-7.6 125.7-3.4 187.8 1.6 59.5 4.8 119.3 10.4 175.2 30.8 39.5 14.4 70.3 43.1 107.3 62.2 24.2 12.5 51.1 14.6 73.7 31 28 20.2 52.5 56.7 42.9 101.8-9.3 43-46.6 66.6-68.5 99.6z" fill="#007bff" opacity=".1"/><path fill="#007bff" opacity=".1" d="M880.8 256.4h40.9v61.9h-40.9z"/><path fill="#007bff" opacity=".1" d="M884.8 262.4h32.9v49.9h-32.9zM797.8 213.4h62.8v61.9h-62.8z"/><path fill="#007bff" opacity=".1" d="M803.9 219.4h50.6v49.9h-50.6zM64.6 121.3h191.9v5.1H64.6zM64.6 146.3h191.9v5.1H64.6z"/><path fill="#d6d6e3" d="M388.4 452.6H408v219.1h-19.6z"/><path d="M980.8 475.6V273.5a21.3 21.3 0 0 1 21.3-21.2 21.3 21.3 0 0 1 21.2 21.2v244.6a21.3 21.3 0 0 1-21.3 21.3H870.4a21.3 21.3 0 0 1-21.2-21.3 21.3 21.3 0 0 1 21.2-21.2h89.2a21.3 21.3 0 0 0 21.2-21.3z" fill="#aebee1"/><path d="M980.8 475.6V273.5a21.3 21.3 0 0 1 21.3-21.2 21.3 21.3 0 0 1 21.2 21.2v244.6a21.3 21.3 0 0 1-21.3 21.3H870.4a21.3 21.3 0 0 1-21.2-21.3 21.3 21.3 0 0 1 21.2-21.2h89.2a21.3 21.3 0 0 0 21.2-21.3z" fill="#535461"/><path d="M849.2 517a21.3 21.3 0 0 1 21.2-20.1h89.2a21.3 21.3 0 0 0 21.2-21.3V273.5a21.3 21.3 0 0 1 20.3-21.2V517z" fill="#d6d6e3"/><path d="M192.5 482.5V280.3a21.3 21.3 0 0 0-21.2-21.2 21.3 21.3 0 0 0-21.3 21.2V525a21.3 21.3 0 0 0 21.3 21.3h131.6a21.3 21.3 0 0 0 21.3-21.3 21.3 21.3 0 0 0-21.3-21.2h-89.1a21.3 21.3 0 0 1-21.3-21.3z" fill="#aebee1"/><path d="M192.5 482.5V280.3a21.3 21.3 0 0 0-21.2-21.2 21.3 21.3 0 0 0-21.3 21.2V525a21.3 21.3 0 0 0 21.3 21.3h131.6a21.3 21.3 0 0 0 21.3-21.3 21.3 21.3 0 0 0-21.3-21.2h-89.1a21.3 21.3 0 0 1-21.3-21.3z" fill="#535461"/><path d="M324.1 523.8a21.3 21.3 0 0 0-21.2-20h-89.1a21.3 21.3 0 0 1-21.3-21.3V280.3a21.3 21.3 0 0 0-20.2-21.2v264.7zM776.4 452.6H796v224.3h-19.6z" fill="#d6d6e3"/><path opacity=".1" d="M388.4 452.6H408v16.2h-19.6zM776.4 452.6H796v16.2h-19.6zM458.5 319.2l-1.2 10.5h-2.8v-10.5z"/><path d="M538.8 428.3c0 3.5-2.5 6.4-5.7 6.4h-59.8v-6.2h49.8c2.1 0 3.5-2.6 2.4-4.7l-45.2-91.9a4 4 0 0 0-3.5-2.2h-22.3v-10.5h28.2a2.8 2.8 0 0 1 2.5 1.6l51.7 100a17 17 0 0 1 2 7.5z" fill="#535461"/><path d="M428.9 411.6l-.8 1.4-7.7-5.1 23.7-182.5h6.2l.6 2.4c4.1 15.8 24.2 105.1-22 183.8z" fill="#535461"/><path d="M450.9 227.8l-22 183.8-.8 1.4-7.7-5.1 23.7-182.5h6.2l.6 2.4z" opacity=".1"/><path fill="#d6d6e3" d="M413.5 411.4l22.5-188 14.4 1.8-22.5 188z"/><path d="M364.1 428.3a1.7 1.7 0 0 1-1.7 1.7H360a1.7 1.7 0 0 1-1.7-1.7.8.8 0 0 1 0-.2 1.7 1.7 0 0 1 1.6-1.5h2.6a1.7 1.7 0 0 1 1.7 1.3 1.6 1.6 0 0 1 0 .4zM371.8 428.3a1.7 1.7 0 0 1-1.7 1.7h-2.6a1.7 1.7 0 0 1-1.7-1.7 1.7 1.7 0 0 1 0-.4 1.6 1.6 0 0 1 .5-.8 1.7 1.7 0 0 1 1.2-.5h2.6a1.7 1.7 0 0 1 1.6 1 1.8 1.8 0 0 1 .1.7zM378.6 428.3a1.7 1.7 0 0 1-1.7 1.7h-2.5a1.7 1.7 0 0 1-1.8-1.7 1.6 1.6 0 0 1 .2-.7 1.7 1.7 0 0 1 1.5-1h2.6a1.7 1.7 0 0 1 1.7 1.7zM386.3 428.3a1.7 1.7 0 0 1-1.7 1.7H382a1.7 1.7 0 0 1-1.4-2.7l.2-.2a1.7 1.7 0 0 1 1.2-.5h2.6a1.7 1.7 0 0 1 1.2.6 1.6 1.6 0 0 1 .5 1.1z" fill="#e3edf9"/><path d="M364 428a1.6 1.6 0 0 1 .1.3 1.7 1.7 0 0 1-1.7 1.7H360a1.7 1.7 0 0 1-1.7-1.7.8.8 0 0 1 0-.2zM371.7 427.6a1.8 1.8 0 0 1 .1.7 1.7 1.7 0 0 1-1.7 1.7h-2.6a1.7 1.7 0 0 1-1.7-1.7 1.7 1.7 0 0 1 0-.5zM378.4 427.4a1.7 1.7 0 0 1 .2 1 1.7 1.7 0 0 1-1.7 1.6h-2.5a1.7 1.7 0 0 1-1.7-1.7 1.6 1.6 0 0 1 .1-.7zM386.3 428.3a1.7 1.7 0 0 1-1.7 1.7H382a1.7 1.7 0 0 1-1.4-2.7l5.2-.1a1.6 1.6 0 0 1 .5 1.1z" opacity=".1"/><path d="M401.6 435.1h-49.4V433a3.9 3.9 0 0 1 3.7-3.9l39.7-1.3a5.9 5.9 0 0 1 6 5.8z" fill="#d6d6e3"/><path d="M645.6 428.3c0 3.5 2.5 6.4 5.7 6.4h59.9v-6.2h-49.9c-2.1 0-3.5-2.6-2.4-4.7l45.2-91.9a4 4 0 0 1 3.4-2.2H730v-10.5h-28.2a2.8 2.8 0 0 0-2.4 1.6l-51.8 100a17 17 0 0 0-1.9 7.5z" fill="#535461"/><path d="M755.5 411.6l.9 1.4 7.6-5.1-23.7-182.5h-6.1l-.7 2.4c-4 15.8-24.2 105.1 22 183.8z" fill="#535461"/><path d="M733.5 227.8l22 183.8.8 1.4 7.7-5.1-23.7-182.5h-6.1l-.7 2.4z" opacity=".1"/><path fill="#d6d6e3" d="M734.1 225.2l14.4-1.7 22.5 188-14.4 1.6z"/><path d="M820.3 428.3a1.7 1.7 0 0 0 1.7 1.7h2.6a1.7 1.7 0 0 0 1.7-1.7.8.8 0 0 0 0-.2 1.7 1.7 0 0 0-1.7-1.5H822a1.7 1.7 0 0 0-1.6 1.3 1.6 1.6 0 0 0-.1.4zM812.6 428.3a1.7 1.7 0 0 0 1.7 1.7h2.6a1.7 1.7 0 0 0 1.7-1.7 1.7 1.7 0 0 0 0-.4 1.6 1.6 0 0 0-.5-.8 1.7 1.7 0 0 0-1.2-.5h-2.6a1.7 1.7 0 0 0-1.6 1 1.8 1.8 0 0 0 0 .7zM805.8 428.3a1.7 1.7 0 0 0 1.7 1.7h2.6a1.7 1.7 0 0 0 1.7-1.7 1.6 1.6 0 0 0-.2-.7 1.7 1.7 0 0 0-1.5-1h-2.6a1.7 1.7 0 0 0-1.7 1.7zM798.1 428.3a1.7 1.7 0 0 0 1.7 1.7h2.6a1.7 1.7 0 0 0 1.4-2.7l-.2-.2a1.7 1.7 0 0 0-1.2-.5h-2.6a1.7 1.7 0 0 0-1.2.6 1.6 1.6 0 0 0-.5 1.1z" fill="#e3edf9"/><path d="M820.3 428a1.6 1.6 0 0 0 0 .3 1.7 1.7 0 0 0 1.7 1.7h2.6a1.7 1.7 0 0 0 1.7-1.7.8.8 0 0 0 0-.2zM812.8 427.6a1.8 1.8 0 0 0-.2.7 1.7 1.7 0 0 0 1.7 1.7h2.6a1.7 1.7 0 0 0 1.7-1.7 1.7 1.7 0 0 0 0-.5zM806 427.4a1.7 1.7 0 0 0-.2 1 1.7 1.7 0 0 0 1.7 1.6h2.6a1.7 1.7 0 0 0 1.7-1.7 1.6 1.6 0 0 0-.2-.7zM798.1 428.3a1.7 1.7 0 0 0 1.7 1.7h2.6a1.7 1.7 0 0 0 1.4-2.7l-5.2-.1a1.6 1.6 0 0 0-.5 1.1z" opacity=".1"/><path d="M782.8 435.1h49.4V433a3.9 3.9 0 0 0-3.7-3.9l-39.6-1.3a5.9 5.9 0 0 0-6.1 5.8z" fill="#d6d6e3"/><path d="M1029.5 481c23-39.1 14.7-118 15.6-119.6.8-1.3-2.3-38.5-23.5-47.5-3.9-7.6-7.6-16.2-7.6-16.2a6.7 6.7 0 0 1-1.3 1l-.4-1.5-.8-2.4a15.5 15.5 0 0 0 1.8.5 7.5 7.5 0 0 0 4.8-.4 5.4 5.4 0 0 0 1.4-1.1c1.7-1.1 2.6-3.1 3.4-5l6.2-14.8c2.7-6.7 5.5-13.4 7-20.4a57.6 57.6 0 0 0-2.4-31.9 20.3 20.3 0 0 0-7-10c-6.8-4.7-16.4-1.5-24.2-4.2-2.6-1-5-2.5-7.5-3.4-5.6-2-11.9-1-17.2 1.6s-9.7 6.4-14.4 10c-2.3 1.7-6 3.6-8.7 6-2.7 2-4.7 4.5-4.3 7.8.4 3.8 4.4 6 8 6.9l1.9.3a36 36 0 0 0 15.4 59.8 84.4 84.4 0 0 1 4.8 11l.6 1.5c-6.1 1.7-10.8 3.2-11.8 4-2.9 2.3 3.2 23.2 3.2 23.2-1.6 2-3.1 4.1-4.7 6.5a140.6 140.6 0 0 0-22.2 60.6c-1 7.9-2.3 16-4 23.7L870 412.6l-.1 1.8-1.8-.5-5.3-1.3-.2 1.2-.9-.4c-13.3-6.2-35.8-14.2-51-6-16 8.7 18.6 20.1 40.8 26.3-7.3.3-14.4 2-20 6.2-16 12.1 29.5 18.4 51 20.6l1 .1v.5l7.4.7 1.7.1.2 2.7 25 3.9c-16.3 4-36.5 6.8-50.4 8.5a36.9 36.9 0 0 0-31.5 26.4 23.5 23.5 0 0 0-.3 12.8c4.1 14.5-1 121.4-2.1 144.4l-26.4 15.2s-41 5-13.6 14.6a56.2 56.2 0 0 0 7.5 2c-3.6 2.3-3.3 5.3 7.3 9 27.3 9.6 90.9-.4 90.9-.4s-1.4-11.2-3.7-20.6h.7s-6.5-24.3 3.4-36.6-1.7-106-1.7-106 17.5-7.3 69.5-7.7c42 10.8 62.5-27.8 62.2-47.8l-.1-1.3z" transform="translate(-39.7 -18.7)" fill="url(#a)"/><path d="M834.5 401.6l-4.4 18-10-2.4c-20.3-5.3-63.2-18-46-27.2 14.8-8 36.6-.2 49.6 5.9a124.6 124.6 0 0 1 10.8 5.7z" fill="#f8b9bf"/><path d="M833.3 406.7l-3.2 13-10-2.4 3.6-21.4c4.7 2.3 8.3 4.3 9.9 5.2z" opacity=".1"/><path fill="#d9dfe8" d="M833.3 421l-12.4-3.1 3.9-22.8 9.9 2.4-1.4 23.4z"/><path opacity=".1" d="M833.3 421l-5.3-1.4 2-23.2 4.7 1.2-1.4 23.3z"/><path d="M953.1 326.7s-23.8-13.8-34.4 25.7-11.6 57.7-11.6 57.7l-75.3-15-2.4 27.5s80.5 26 90.7 24.1 43-57 43-57 29.8-42.7-10-63z" fill="#007bff"/><g opacity=".1"><path d="M834.5 401.6l-4.4 18-10-2.4c-20.3-5.3-63.2-18-46-27.2 14.8-8 36.6-.2 49.6 5.9a124.6 124.6 0 0 1 10.8 5.7z"/><path d="M833.3 406.7l-3.2 13-10-2.4 3.6-21.4c4.7 2.3 8.3 4.3 9.9 5.2z" opacity=".1"/><path d="M833.3 421l-12.4-3.1 3.9-22.8 9.9 2.4-1.4 23.4z"/><path opacity=".1" d="M833.3 421l-5.3-1.4 2-23.2 4.7 1.2-1.4 23.3z"/><path d="M953.1 327.7s-23.8-13.8-34.4 25.7-11.6 57.7-11.6 57.7l-75.3-15-2.4 27.5s80.5 26 90.7 24.1 43-57 43-57 29.8-42.7-10-63z"/></g><path d="M801.4 633l-30.7 17.7s-39.8 4.8-13.3 14.1 88.2-.4 88.2-.4-3.4-27.7-8.2-31.6-36 .2-36 .2z" fill="#68739d"/><path d="M921.3 434.3s-15.3 8-42.5 14.9c-16 4-35.9 6.8-49.6 8.4a35.8 35.8 0 0 0-30.6 25.7 22.8 22.8 0 0 0-.3 12.4c4.5 15.8-2.2 144.5-2.2 144.5l46.7 4.3s-6.4-23.7 3.3-35.7-1.7-102.9-1.7-102.9 17-7 67.5-7.4c46.9 12 66.2-39.3 59-53.7s-49.6-10.5-49.6-10.5z" fill="#6394e2"/><g opacity=".1"><path d="M801.4 633l-30.7 17.7s-39.8 4.8-13.3 14.1 88.2-.4 88.2-.4-3.4-27.7-8.2-31.6-36 .2-36 .2z"/><path d="M921.3 434.3s-15.3 8-42.5 14.9c-16 4-35.9 6.8-49.6 8.4a35.8 35.8 0 0 0-30.6 25.7 22.8 22.8 0 0 0-.3 12.4c4.5 15.8-2.2 144.5-2.2 144.5l46.7 4.3s-6.4-23.7 3.3-35.7-1.7-102.9-1.7-102.9 17-7 67.5-7.4c46.9 12 66.2-39.3 59-53.7s-49.6-10.5-49.6-10.5z"/></g><path d="M815.9 643.7L785 661.4s-39.8 4.9-13.3 14.2 88.3-.4 88.3-.4-3.5-27.7-8.3-31.6-36 .1-36 .1z" fill="#68739d"/><path d="M926.3 509.2c-50.6.5-67.5 7.5-67.5 7.5s11.3 91 1.6 102.9-3.3 35.6-3.3 35.6l-46.7-4.3.2-4.2c1.2-22.4 6.1-126.2 2-140.3a22.8 22.8 0 0 1 .4-12.4 35.8 35.8 0 0 1 30.5-25.6c13.8-1.7 33.7-4.5 49.6-8.5l.8-.2c26.7-6.9 41.7-14.7 41.7-14.7s42.3-3.8 49.6 10.6a17 17 0 0 1 1.4 7.2c.4 19.4-19.5 56.9-60.3 46.4z" fill="#6394e2"/><path d="M855.9 424l-1.7 18.6-10.3-1c-20.8-2.2-65.1-8.3-49.5-20 13.5-10 36.2-5.7 50-1.6 5 1.5 8.8 3 10.5 3.7l1 .4zM980 303.1s-6.2 4.9-13.8 10.3c-8.4 1.9-18.2 3.4-25.2 4.5 2.5-8 1-17-1.8-25a93.7 93.7 0 0 0-12.6-23l42.4-13.2c-3.4 8.4-1.9 18 1 26.3a86.8 86.8 0 0 0 10 20.1z" fill="#f8b9bf"/><path d="M855.4 429.3l-1.2 13.2-10.3-.9.4-21.6c5 1.5 8.9 3 10.6 3.6z" opacity=".1"/><path fill="#d9dfe8" d="M857.5 443.3l-12.7-1.2.4-23 10.2 1 2.1 23.2z"/><path d="M980 303.1s-6.2 4.9-13.8 10.3c-8.4 1.9-18.2 3.4-25.2 4.5 2.5-8 1-17-1.8-25 10.3-3 25.1-6.8 30.8-10a86.8 86.8 0 0 0 10 20.2z" opacity=".1"/><path d="M971.6 283.5s7.1 16 11.6 23.3-51.9 14-51.9 14-5.8-20.2-3-22.5 38.6-10.1 43.3-14.8z" fill="#d9dfe8"/><path d="M986.7 462.8a50.6 50.6 0 0 1-8.7 11.4c-24.9 23.6-65.6-1-84-14.5 26.7-6.9 41.7-14.7 41.7-14.7s42.3-3.8 49.5 10.6a17 17 0 0 1 1.5 7.2z" opacity=".1"/><path d="M978.1 472.5c-28.2 26.8-77-8.7-90.1-19.2l-3.3-2.8c5.2-4.8 9.7-15.1 13.3-27.7a243.6 243.6 0 0 0 7.3-36.8 136.5 136.5 0 0 1 21.5-58.8c1.5-2.3 3-4.5 4.5-6.3 10.7-13.6 28.6-22.2 28.6-22.2 37.9-11.1 43 45 42 46.7s9 95.9-23.8 127z" fill="#007bff"/><path d="M981.8 395.7s-24.3 59.4-34 62.8c-5.6 2-35.4-1.7-59.8-5.2l-3.3-2.7c5.2-4.9 9.7-15.2 13.3-27.8l31.5 1.5s-1.8-18.1 2.9-58.8 30.2-30.6 30.2-30.6c42.4 14.2 19.2 60.8 19.2 60.8zM857.5 443.3l-5.5-.5-1.4-23.2 4.8.4 2.1 23.3z" opacity=".1"/><path d="M962 332.3s-25.6-10.1-30.3 30.6-2.8 58.8-2.8 58.8L852 418l1.8 27.6s83.5 13.7 93.2 10.3 34-62.8 34-62.8 23.2-46.7-19.1-60.8z" fill="#007bff"/><path d="M963.7 272c-1.1-6 5.2-6 7.5-11.7l-42.3 13.2a93.4 93.4 0 0 1 7.8 12.5 35.1 35.1 0 0 0 6.7 1.3c10.1 1 13.3-9 20.3-15.3z" opacity=".1"/><circle cx="984.1" cy="267.6" r="35" transform="rotate(-84.7 954 280)" fill="#f8b9bf"/><path d="M909.9 217.3c.4 3.6 4.3 5.8 7.8 6.6s7.5.9 10.6 2.8c5 3 6.4 10 5.7 15.8-.3 3.3-.8 7.4 1.9 9.3a7.3 7.3 0 0 0 2.8 1 26.3 26.3 0 0 0 8.6.3c1.7-.2 3.4-.6 5-.1 2.6.8 4.2 3.5 4.7 6.2s.2 5.4.6 8.1a16.9 16.9 0 0 0 13.4 13.8 7.3 7.3 0 0 0 4.7-.4c1.9-1 2.8-3.2 3.7-5.2l6-14.3c2.7-6.5 5.4-13 6.8-19.9a56 56 0 0 0-2.4-31 19.8 19.8 0 0 0-6.7-9.7c-6.7-4.5-16-1.4-23.6-4-2.5-.9-4.7-2.4-7.2-3.3-5.4-1.9-11.6-.9-16.8 1.6s-9.4 6.2-14 9.7c-4 3.1-12.3 6.4-11.6 12.7z" opacity=".1"/><path d="M910.8 216.5c.4 3.6 4.3 5.8 7.9 6.7s7.4.8 10.5 2.7c5 3.1 6.4 10 5.7 15.8-.3 3.4-.8 7.4 2 9.4a7.3 7.3 0 0 0 2.7 1 26.3 26.3 0 0 0 8.6.3c1.7-.3 3.4-.6 5-.2 2.7.8 4.2 3.6 4.7 6.2s.2 5.5.7 8.2a16.9 16.9 0 0 0 13.3 13.7 7.3 7.3 0 0 0 4.7-.4c1.9-1 2.9-3.1 3.7-5.1l6-14.4c2.7-6.5 5.4-13 6.8-19.9a56 56 0 0 0-2.4-30.9 19.8 19.8 0 0 0-6.7-9.8c-6.6-4.5-16-1.4-23.5-4-2.6-.9-4.8-2.3-7.3-3.2-5.4-2-11.5-1-16.7 1.5s-9.5 6.2-14 9.7c-4 3.1-12.4 6.4-11.7 12.7z" fill="#b96b6b"/><path d="M939.8 354.6s-13.4 51.9-26.7 56.7-7.4 6.1-7.4 6.1" opacity=".1"/><path fill="#d6d6e3" d="M925.9 544.6h14.5V640h-14.5z"/><path opacity=".1" d="M925.9 544.6h14.5v7.1h-14.5z"/><path d="M896.9 544v2a4.7 4.7 0 0 0 4.7 4.8h63.1a4.7 4.7 0 0 0 4.7-4.7v-2a4.7 4.7 0 0 0-4.7-4.7h-63.1a4.7 4.7 0 0 0-4.7 4.7z" fill="#d6d6e3"/><path d="M898 541.1h70.4a4.7 4.7 0 0 0-3.7-1.7h-63.1a4.7 4.7 0 0 0-3.7 1.7z" opacity=".1"/><rect x="873.6" y="634.8" width="119.2" height="11.4" rx="5.5" ry="5.5" fill="#d6d6e3"/><circle cx="986" cy="653.4" r="7.3" fill="#535461"/><circle cx="880.3" cy="653.4" r="7.3" fill="#535461"/><circle cx="933.2" cy="653.4" r="7.3" fill="#535461"/><rect x="917.7" y="427.4" width="114" height="17.6" rx="8.5" ry="8.5" fill="#d6d6e3"/><path d="M940.4 634.8s-5.7 5.6-14.5 0M1031.8 436.4v1.4a7.3 7.3 0 0 1-7.3 7.3H925a7.3 7.3 0 0 1-7.3-7.3v-1.4z" opacity=".1"/><path fill="#d6d6e3" d="M822.4 452.6H842v249.9h-19.6z"/><path opacity=".1" d="M822.4 452.6H842v16.2h-19.6z"/><path fill="#d6d6e3" d="M232.9 551.4h14.5v95.4h-14.5z"/><path opacity=".1" d="M232.9 551.4h14.5v7.1h-14.5z"/><path d="M276.5 551v2a4.7 4.7 0 0 1-4.7 4.6h-63.2a4.7 4.7 0 0 1-4.7-4.7v-2a4.7 4.7 0 0 1 4.7-4.6h63.2a4.7 4.7 0 0 1 4.7 4.7z" fill="#d6d6e3"/><path d="M275.4 548H205a4.7 4.7 0 0 1 3.6-1.7h63.2a4.7 4.7 0 0 1 3.6 1.6z" opacity=".1"/><rect x="180.6" y="641.6" width="119.2" height="11.4" rx="5.5" ry="5.5" fill="#d6d6e3"/><circle cx="187.3" cy="660.2" r="7.3" fill="#535461"/><circle cx="293.1" cy="660.2" r="7.3" fill="#535461"/><circle cx="240.2" cy="660.2" r="7.3" fill="#535461"/><path d="M233 641.6s5.6 5.6 14.4 0" opacity=".1"/><path d="M603.1 354.5s-16.3-29.6-10.3-55.3a51.2 51.2 0 0 0-2.9-32.3 86 86 0 0 0-7.6-13.7" fill="none" stroke="#535461" stroke-miterlimit="10" stroke-width="2"/><path d="M586 237c.8 3.8-3.8 16.6-3.8 16.6S572.7 244 572 240a7.2 7.2 0 1 1 14-3zM602.2 255.9a57 57 0 0 1-12.1 12s-2.7-13.3-1.3-17a7.2 7.2 0 1 1 13.5 5zM609.8 292.7c-3 2.5-16.6 4.2-16.6 4.2s4.4-12.8 7.5-15.3a7.2 7.2 0 1 1 9.1 11.1zM609.3 321.8c-2.7 3-15.6 7-15.6 7s2.1-13.4 4.7-16.4a7.2 7.2 0 1 1 10.8 9.4zM575.5 271.8c3.4 2.1 17 2 17 2s-6-12.1-9.4-14.2a7.2 7.2 0 1 0-7.6 12.2zM575.3 306c3.9 1 16.8-3.2 16.8-3.2s-9.4-9.8-13.2-10.8a7.2 7.2 0 0 0-3.6 14zM579.6 339.1c3.6 1.6 17.1-.2 17.1-.2s-7.6-11.3-11.2-13a7.2 7.2 0 0 0-5.9 13.2z" fill="#007bff"/><path d="M586 237c.8 3.8-3.8 16.6-3.8 16.6S572.7 244 572 240a7.2 7.2 0 1 1 14-3zM602.2 255.9a57 57 0 0 1-12.1 12s-2.7-13.3-1.3-17a7.2 7.2 0 1 1 13.5 5zM609.8 292.7c-3 2.5-16.6 4.2-16.6 4.2s4.4-12.8 7.5-15.3a7.2 7.2 0 1 1 9.1 11.1zM609.3 321.8c-2.7 3-15.6 7-15.6 7s2.1-13.4 4.7-16.4a7.2 7.2 0 1 1 10.8 9.4zM575.5 271.8c3.4 2.1 17 2 17 2s-6-12.1-9.4-14.2a7.2 7.2 0 1 0-7.6 12.2zM575.3 306c3.9 1 16.8-3.2 16.8-3.2s-9.4-9.8-13.2-10.8a7.2 7.2 0 0 0-3.6 14zM579.6 339.1c3.6 1.6 17.1-.2 17.1-.2s-7.6-11.3-11.2-13a7.2 7.2 0 0 0-5.9 13.2zM596.5 436.6a17.1 17.1 0 0 1-17.1-18.3l4.8-75.9h24.6l4.8 76a17.1 17.1 0 0 1-17.1 18.2z" fill="#007bff"/><path fill="#007bff" opacity=".1" d="M83.6 63.4h14v58h-14zM101.6 63.4h14v58h-14zM119.6 63.4h14v58h-14zM137.6 63.4h14v58h-14zM173.6 63.4h14v58h-14zM191.6 63.4h14v58h-14z"/><path fill="#007bff" opacity=".1" d="M83.6 74.4h14v3h-14zM83.6 110.4h14v3h-14zM101.6 74.4h14v3h-14zM101.6 110.4h14v3h-14zM119.6 74.4h14v3h-14zM119.6 110.4h14v3h-14zM137.6 74.4h14v3h-14zM137.6 110.4h14v3h-14zM155.6 74.4h14v3h-14zM155.6 110.4h14v3h-14zM173.6 74.4h14v3h-14zM173.6 110.4h14v3h-14zM191.6 74.4h14v3h-14zM191.6 110.4h14v3h-14z"/><path fill="#007bff" opacity=".1" d="M155.6 63.4h14v58h-14zM206 69l12.8-5.8 24.4 52.6-12.7 5.9z"/><path fill="#007bff" opacity=".1" d="M210.7 79l12.7-5.9 1.3 2.8-12.7 5.8zM225.8 111.7l12.7-5.9 1.3 2.8-12.7 5.8z"/><path d="M428.8 680.2L403.4 664c-.1-22.8-.5-128.8 4.3-143a23.3 23.3 0 0 0 .2-12.6 36.5 36.5 0 0 0-30-27.5c-13.7-2.3-33.5-6-49.4-10.7l24.8-2.7.3-2.7 9.1-.4v-.4h1c21.3-1.3 66.7-5.6 51.2-18.2a35.6 35.6 0 0 0-19.4-7c22.2-5.2 57-15 41.5-24.3-14.7-8.7-37.3-1.8-50.8 3.8l-.8.3-.1-1.2-5.4 1-1.7.4-.1-1.7-75.5 11.6a257.7 257.7 0 0 0-3-25.8c1.6-11.2 9.5-27.7 6.7-36.5-3.2-10.2-16.4-13.5-22-22.8L280 337a70 70 0 0 0-10.7-11.5 48.6 48.6 0 0 1 4-17.3 83.6 83.6 0 0 1 5.2-10.6 35.6 35.6 0 0 0 26.5-41c4.7 2 10.5 2.3 13.5-1.7l-1.4-.6.4-.5c-2.9-1-6-2.3-8.3-4.4a9.7 9.7 0 0 1-1.4-2.1c-1.4-2.8-1.2-6.2-2.6-9a10.4 10.4 0 0 0-2.5-3.4 17.8 17.8 0 0 0-8.5-4.8c-3.6-1-7.4-1.6-10.9-3a36.8 36.8 0 0 0-39-11l-1.3.4a16.3 16.3 0 0 0-31.8-7.2 16.3 16.3 0 0 1 4.3-9.7l-.8.6a16.3 16.3 0 0 0-.7 23.1l.3.3a16.4 16.4 0 0 0 4.1 3.6 16.3 16.3 0 0 1-10.8-13.4v1A16.3 16.3 0 0 0 225 230h.5l-.3.3a36.7 36.7 0 0 0 3.3 45.5 17 17 0 0 0 2.6 4.2 13.6 13.6 0 0 0 1.2 1.2 15.5 15.5 0 0 0 10.5 4.8l2.1 2.3a59.5 59.5 0 0 1-2.5 8.2 87.3 87.3 0 0 1-8 15.3c-21.6 6.1-23.5 42.8-22.7 44.2 1 1.7-3.2 59.3 12.8 128.8-.7 20 11 52.8 52.1 44.2 51.5 2.7 68.4 10.6 68.4 10.6s-4.9 89.6 2 102.6c4.5 8.2 1.4 20.2-2 28.7a31.5 31.5 0 0 0-2.8 6.6l-1.7 3.4h.7c-2.7 9.2-4.5 20.2-4.5 20.2s62.4 12.7 89.9 4.4c10.6-3.2 11-6.2 7.6-8.7a55.6 55.6 0 0 0 7.5-1.6c27.5-8.3-12.9-15-12.9-15z" transform="translate(-39.7 -18.7)" fill="url(#b)"/><path d="M253.3 236.3a36 36 0 1 1-36-36 36 36 0 0 1 36 36z" fill="#fa595f"/><path d="M334.4 405.4l3.6 18.2 10.1-2c20.5-4.3 64-15 47.1-25.1-14.4-8.6-36.6-1.8-49.8 3.7a117 117 0 0 0-10 4.7l-1 .5z" fill="#f8b9bf"/><path d="M335.4 410.5l2.6 13.1 10.1-2-2.7-21.4a117 117 0 0 0-10 4.7z" opacity=".1"/><path fill="#d9dfe8" d="M334.8 424.7l12.5-2.5-2.8-22.9-10 2 .3 23.4z"/><path opacity=".1" d="M334.8 424.7l5.4-1-1-23.3-4.8 1 .4 23.3z"/><path d="M219.2 325.3s24.4-12.8 33.3 27.2 9 58.2 9 58.2l76-11.7 1 27.6S257 449 247 446.6s-40.5-58.8-40.5-58.8-28-44 12.7-62.5z" fill="#007bff"/><g opacity=".1"><path d="M334.4 405.4l3.6 18.2 10.1-2c20.5-4.3 64-15 47.1-25.1-14.4-8.6-36.6-1.8-49.8 3.7a117 117 0 0 0-10 4.7l-1 .5z"/><path d="M335.4 410.5l2.6 13.1 10.1-2-2.7-21.4a117 117 0 0 0-10 4.7z" opacity=".1"/><path d="M334.8 424.7l12.5-2.5-2.8-22.9-10 2 .3 23.4z"/><path opacity=".1" d="M334.8 424.7l5.4-1-1-23.3-4.8 1 .4 23.3z"/><path d="M221.2 327.3s24.4-12.8 33.3 27.2 9 58.2 9 58.2l76-11.7 1 27.6S259 451 249 448.6s-40.5-58.8-40.5-58.8-28-44 12.7-62.5z"/></g><path d="M357.3 638l30 19s39.5 6.6 12.6 14.7-88.1-4.3-88.1-4.3 4.6-27.5 9.6-31.2 35.9 1.8 35.9 1.8z" fill="#f37291"/><path d="M246.3 434.2s15 8.6 41.8 16.7c15.7 4.8 35.5 8.4 49.2 10.7a35.8 35.8 0 0 1 29.4 27 22.8 22.8 0 0 1-.2 12.3c-5.3 15.7-4.2 144.5-4.2 144.5l-46.8 2.3s7.4-23.5-1.8-35.8 6.2-102.7 6.2-102.7-16.6-7.8-67-10.5c-47.4 10-64.4-42.1-56.6-56.2s50-8.3 50-8.3z" fill="#96a2d0"/><g opacity=".1"><path d="M357.3 638l30 19s39.5 6.6 12.6 14.7-88.1-4.3-88.1-4.3 4.6-27.5 9.6-31.2 35.9 1.8 35.9 1.8z"/><path d="M246.3 434.2s15 8.6 41.8 16.7c15.7 4.8 35.5 8.4 49.2 10.7a35.8 35.8 0 0 1 29.4 27 22.8 22.8 0 0 1-.2 12.3c-5.3 15.7-4.2 144.5-4.2 144.5l-46.8 2.3s7.4-23.5-1.8-35.8 6.2-102.7 6.2-102.7-16.6-7.8-67-10.5c-47.4 10-64.4-42.1-56.6-56.2s50-8.3 50-8.3z"/></g><path d="M342.4 648l30 19s39.5 6.7 12.6 14.8-88.1-4.3-88.1-4.3 4.6-27.5 9.6-31.1 35.9 1.7 35.9 1.7z" fill="#f37291"/><path d="M238 508.8c50.4 2.7 67 10.5 67 10.5s-4.8 87.8 2 100.6c7.3 13.5-6.5 37.9-6.5 37.9l46.9-2.3v-4.2c-.1-22.4-.5-126.3 4.2-140.3a22.8 22.8 0 0 0 .1-12.3 35.8 35.8 0 0 0-29.3-27 414.2 414.2 0 0 1-49.2-10.7l-.8-.2c-26.4-8-41-16.5-41-16.5s-31.2-2.2-39 11.8c-1 1.9-5.3 5.4-5.5 8.3-1.2 19.4 9.9 53.1 51 44.4z" fill="#96a2d0"/><path d="M312.1 426.9l.9 18.5 10.3-.5c21-1.2 65.4-5.3 50.3-17.8-13-10.6-36-7.2-49.8-3.8-5 1.3-9 2.6-10.7 3.2l-1 .4zM193.3 300.6s6 5.1 13.4 10.8c8.3 2.3 18 4.3 25 5.6a40 40 0 0 1 2.9-24.7 93.7 93.7 0 0 1 13.6-22.6l-41.7-15a39 39 0 0 1-2.2 26.2 86.8 86.8 0 0 1-11 19.7z" fill="#f8b9bf"/><path d="M312.4 432l.6 13.4 10.3-.5.5-21.6c-5 1.3-9 2.6-10.7 3.2z" opacity=".1"/><path fill="#d9dfe8" d="M309.6 446l12.8-.6.6-23-10.2.5-3.2 23.2z"/><path d="M187.8 469.8c27 28.1 77.4-5.3 91-15.1l3.3-2.6c-5-5.1-13-9.8-16-22.6a277 277 0 0 1-6-39.5c-.8-10.6 10.1-30.6 7-40.7S250.9 336 245.5 327a98.8 98.8 0 0 0-4.3-6.6 93.4 93.4 0 0 0-27.5-23.4c-37.4-12.7-40.3 40.6-39.4 42.3s-3.3 60.4 13.5 130.5z" fill="#007bff"/><path d="M187.6 393s21.6 60.4 31.2 64.2c5.5 2.2 35.4-.1 60-2.5l3.4-2.6c-5-5.1-9.1-15.6-12.2-28.4l-31.5.2s2.6-18-.2-59-28.9-31.8-28.9-31.8c-43 12.3-21.8 60-21.8 60zM309.6 446l5.5-.2 2.5-23.2-4.8.3-3.2 23.2z" opacity=".1"/><path d="M210.1 330.5s26-9 28.9 31.9.3 58.9.3 58.9l76.8-.3-3 27.4s-84 10-93.5 6.3-31.3-64.3-31.3-64.3-21-47.6 21.9-60z" fill="#007bff"/><path d="M211.1 270.3c1.4-6-5-6.2-7-12l41.7 15a93.4 93.4 0 0 0-8.4 12 35.1 35.1 0 0 1-6.7 1c-10.2.6-12.9-9.5-19.6-16z" opacity=".1"/><circle cx="271.1" cy="266.7" r="35" transform="rotate(-2.8 -138.8 1084.5)" fill="#f8b9bf"/><path d="M213.3 356.4s11 52.4 24.1 57.7 7.2 6.5 7.2 6.5M258.9 386s-9.3 2.9-20-11" opacity=".1"/><circle cx="189.3" cy="199.3" r="16" fill="#fa595f"/><path d="M178 207.7a16 16 0 0 1 0-21.9l-.7.7a16 16 0 0 0 22 23.3l.6-.7a16 16 0 0 1-21.8-1.4z" fill="#fa595f"/><path d="M187.2 213.8a16 16 0 0 1-16.8-14v1a16 16 0 1 0 31.9-2l-.1-1a16 16 0 0 1-15 16z" fill="#fa595f"/><path d="M244.3 213.2c3.7 1.8 8 2.3 12 3.5s8 3.3 9.8 7c1.3 2.8 1.1 6.1 2.5 8.9 2 4 6.4 5.8 10.5 7.4-3.5 4.7-11.1 3.4-16 .2s-9.3-8-15-9.3a14 14 0 0 0-14.9 6.6c-1.6 2.8-2.1 6-3 9.1-2 8.1-6 16.2-13 20.8s-17.3 4.6-22.8-1.7a28.3 28.3 0 0 1-5.3-13.5 27.4 27.4 0 0 1-.7-6.8c.3-5.7 4.1-10.6 8-14.9 4.5-5 9.4-9.8 14.2-14.5 4.2-4.2 9-11.1 15.3-11.6 7.3-.6 12.4 5.9 18.4 8.8z" opacity=".1"/><path d="M243.3 212.2c3.7 1.8 8 2.3 12 3.5s8 3.3 9.8 7c1.3 2.8 1.1 6.1 2.5 8.9 2 4 6.4 5.8 10.5 7.4-3.5 4.7-11.1 3.4-16 .2s-9.3-8-15-9.3a14 14 0 0 0-14.9 6.6c-1.6 2.8-2.1 6-3 9.1-2 8.1-6 16.2-13 20.8s-17.3 4.6-22.8-1.7a28.3 28.3 0 0 1-5.3-13.5 27.4 27.4 0 0 1-.7-6.8c.3-5.7 4.1-10.6 8-14.9 4.5-5 9.4-9.8 14.2-14.5 4.2-4.2 9-11.1 15.3-11.6 7.3-.6 12.4 5.9 18.4 8.8z" fill="#fa595f"/><rect x="141.6" y="434.3" width="114" height="17.6" rx="8.5" ry="8.5" fill="#d6d6e3"/><path d="M141.6 443.3v1.3a7.3 7.3 0 0 0 7.2 7.3h99.6a7.3 7.3 0 0 0 7.2-7.3v-1.3z" opacity=".1"/><path fill="#d6d6e3" d="M342.4 452.6H362v249.8h-19.6z"/><path opacity=".1" d="M342.4 452.6H362v16.2h-19.6z"/><path fill="#d6d6e3" d="M333 434.7h518.4v32.4H333z"/></svg>