<svg xmlns="http://www.w3.org/2000/svg" width="1113.6" height="784.4" data-name="Layer 1"><defs><linearGradient id="a" x1="990.8" x2="1147.3" y1="609.5" y2="609.5" gradientTransform="matrix(-1 0 0 1 2040 0)" gradientUnits="userSpaceOnUse"><stop offset="0" stop-color="gray" stop-opacity=".3"/><stop offset=".5" stop-color="gray" stop-opacity=".1"/><stop offset="1" stop-color="gray" stop-opacity=".1"/></linearGradient></defs><ellipse cx="965" cy="767.4" fill="#007bff" opacity=".1" rx="64" ry="17"/><path fill="#007bff" d="M1070.5 694.9c-24.3 20.2-59 28.6-92.5 33.8l-5.6.9c-35 5.2-70.4 8-105.9 9.7-19 .9-38 1.6-57 2.1l-14.9.5-58.1 1.7-57 1.5q-36.5.9-73 1.5l-57 .6q-36.5.2-73-.2-28.5-.2-57-1-36.5-.9-73-2.7-24.8-1.2-49.5-3l-7.5-.4c-70.8-5.1-142.8-14.3-204.7-43.2l-1.7-.8-2.5-1.2a224.1 224.1 0 0 1-32.6-19 117 117 0 0 1-41.4-48c-12.5-29.7-5.9-63 8.4-92s35.8-55.2 54.4-82.5c5.4-8 10.6-16.3 15.4-24.8 30-53.4 44.8-115.1 13.4-166.6a228.6 228.6 0 0 0-13.4-19c-7.7-10-15.5-20-20.8-31-12.3-25.8-9.6-54.8-5.2-82.3 6-36.6 17-76 51.4-98.8C146 6.9 196.5 8 240.8 16.7c68.8 13.2 132.4 40.8 196.5 65.7s131.3 47.6 201.8 50a322 322 0 0 0 45.4-1.6 287.8 287.8 0 0 0 59.1-12.4c27.8-9.2 53-23 71.7-42 40.2-40.9 115.6-44 170-19.3 52 23.6 85.5 73.4 83 123.1-2.8 55.4-44.3 101-82.3 147.7a890 890 0 0 0-13.6 17l-7.3 9.6a404 404 0 0 0-12 17.1c-19.4 29.6-33.1 65-19.7 97 7.5 17.8 21.8 31.4 39 43.3 38.7 26.6 92 44.5 116 81.8 20.7 32.1 13 75.5-17.9 101.2z" opacity=".1"/><g opacity=".1"><path fill="#3f3d56" d="M555.5 549.4q0 1.4.2 2.7 11.7-4.6 23-10a18.6 18.6 0 0 0 10.5-5.2c2.2-1 4.4-2.2 6.5-3.4a26.8 26.8 0 0 0-1.6-3c-4.2-6.6-10.6-10.8-17.7-10.5s-13.1 4.8-16.9 11.6a34.5 34.5 0 0 0-4 17.8z"/><path fill="#3f3d56" d="M554.3 514.4a34.6 34.6 0 0 0 5.2 17.3c4.2 6.6 10.6 10.8 17.7 10.6l1.4-.1a18.6 18.6 0 0 0 10.6-5.2 25.5 25.5 0 0 0 4.9-6.4 35.8 35.8 0 0 0-1.2-35c-4.2-6.7-10.6-10.8-17.6-10.6s-13.2 4.8-17 11.7a34.5 34.5 0 0 0-4 17.7z"/><ellipse cx="618.3" cy="536.5" fill="#3f3d56" rx="21.9" ry="28.6" transform="rotate(-1.9 -1164.8 1824.1)"/><ellipse cx="617.1" cy="501.5" fill="#3f3d56" rx="21.9" ry="28.6" transform="rotate(-1.9 -1165.7 1789)"/><ellipse cx="616" cy="466.5" fill="#3f3d56" rx="21.9" ry="28.6" transform="rotate(-1.9 -1167 1754.3)"/><path fill="#007bff" d="M646.8 166.8a104 104 0 0 0 7.7-12.3l-57.7-7.5 62.1-1.6a104.9 104.9 0 0 0-.7-83l-82 46 75-59a104.8 104.8 0 1 0-169 122.8 105.2 105.2 0 0 0-11.3 19.5l75.8 36.3-80.4-24a104.8 104.8 0 0 0 20.1 97.7 104.7 104.7 0 1 0 164.6-5.5 104.8 104.8 0 0 0-4.2-129.4z"/><path d="M461.9 237.6a104.3 104.3 0 0 0 24.5 64 104.7 104.7 0 1 0 164.6-5.4c13.4-18.3-189.5-70.3-189.1-58.6z" opacity=".1"/></g><g opacity=".1"><path fill="#3f3d56" d="M326.2 733.6c0 .6 0 1.3-.2 2q-8.3-3.3-16.3-7.1a13.2 13.2 0 0 1-7.5-3.7l-4.7-2.4a18.9 18.9 0 0 1 1.2-2.1c3-4.8 7.6-7.7 12.6-7.6s9.3 3.4 12 8.3a24.5 24.5 0 0 1 2.9 12.6z"/><path fill="#3f3d56" d="M327 708.7a24.6 24.6 0 0 1-3.7 12.3c-3 4.7-7.5 7.7-12.5 7.5h-1a13.2 13.2 0 0 1-7.6-3.7 18 18 0 0 1-3.4-4.6 25.5 25.5 0 0 1 .7-24.8c3-4.8 7.6-7.7 12.6-7.6s9.3 3.4 12 8.3a24.5 24.5 0 0 1 2.9 12.6z"/><ellipse cx="355.4" cy="741.1" fill="#3f3d56" rx="20.4" ry="15.6" transform="rotate(-88.2 304 734.5)"/><ellipse cx="356.2" cy="716.2" fill="#3f3d56" rx="20.4" ry="15.6" transform="rotate(-88.2 304.8 709.6)"/><ellipse cx="357" cy="691.3" fill="#3f3d56" rx="20.4" ry="15.6" transform="rotate(-88.2 305.6 684.7)"/><path fill="#007bff" d="M261 461.4a75.8 75.8 0 0 1-5.6-8.7l41-5.5-44.1-1a74.6 74.6 0 0 1 .4-59l58.3 32.6-53.4-42A74.5 74.5 0 1 1 378 465.1a74.4 74.4 0 0 1 8 13.8l-53.8 26 57.1-17.3a74.7 74.7 0 0 1-14.2 69.6 74.5 74.5 0 1 1-117.1-3.7 74.5 74.5 0 0 1 3-92.1z"/><path d="M392.5 511.6a74.3 74.3 0 0 1-17.4 45.6 74.5 74.5 0 1 1-117.1-3.7c-9.6-13 134.8-50.2 134.5-41.9z" opacity=".1"/></g><g opacity=".1"><path fill="#3f3d56" d="M847 603.5l-.2 2q-8.3-3.3-16.3-7a13.3 13.3 0 0 1-7.5-3.7l-4.7-2.4a20.6 20.6 0 0 1 1.2-2.2c3-4.7 7.5-7.7 12.5-7.5s9.4 3.4 12 8.3a24.5 24.5 0 0 1 3 12.5z"/><path fill="#3f3d56" d="M847.8 578.6A24.6 24.6 0 0 1 844 591c-3 4.8-7.5 7.7-12.5 7.6l-1-.1a13.3 13.3 0 0 1-7.6-3.7 18.3 18.3 0 0 1-3.4-4.5 25.5 25.5 0 0 1 .7-24.9c3-4.7 7.6-7.7 12.6-7.5s9.4 3.4 12 8.3a24.5 24.5 0 0 1 2.9 12.5z"/><ellipse cx="876.2" cy="611" fill="#3f3d56" rx="20.4" ry="15.6" transform="rotate(-88.2 824.8 604.4)"/><ellipse cx="877" cy="586.1" fill="#3f3d56" rx="20.4" ry="15.6" transform="rotate(-88.2 825.6 579.5)"/><ellipse cx="877.7" cy="561.3" fill="#3f3d56" rx="20.4" ry="15.6" transform="rotate(-88.2 826.4 554.6)"/><path fill="#007bff" d="M781.7 331.3a73.6 73.6 0 0 1-5.5-8.7l41-5.4-44.2-1a74.7 74.7 0 0 1 .5-59.1l58.3 32.6-53.4-42A74.5 74.5 0 1 1 898.8 335a74.4 74.4 0 0 1 8 13.9L853 374.8l57.2-17.2a74.6 74.6 0 0 1-14.2 69.5 74.5 74.5 0 1 1-117.1-3.7 74.5 74.5 0 0 1 2.9-92z"/><path d="M913.3 381.6a74.2 74.2 0 0 1-17.4 45.5 74.5 74.5 0 1 1-117.1-3.7c-9.6-13 134.8-50.2 134.5-41.8z" opacity=".1"/></g><ellipse cx="193.5" cy="750.9" fill="#007bff" rx="57" ry="11"/><ellipse cx="192.6" cy="746.2" fill="#3f3d56" rx="6.6" ry="8.7"/><ellipse cx="192.6" cy="735.6" fill="#3f3d56" rx="6.6" ry="8.7"/><ellipse cx="192.6" cy="725" fill="#3f3d56" rx="6.6" ry="8.7"/><ellipse cx="192.6" cy="714.4" fill="#3f3d56" rx="6.6" ry="8.7"/><ellipse cx="192.6" cy="703.8" fill="#3f3d56" rx="6.6" ry="8.7"/><ellipse cx="192.6" cy="693.1" fill="#3f3d56" rx="6.6" ry="8.7"/><ellipse cx="192.6" cy="682.5" fill="#3f3d56" rx="6.6" ry="8.7"/><path fill="#007bff" d="M217.4 609.8a32.3 32.3 0 0 0 2.5-3.6l-17.5-2.9 18.9.2a31.9 31.9 0 0 0 .6-25.2l-25.3 13.1 23.3-17.2a31.8 31.8 0 1 0-52.5 35.6 32 32 0 0 0-3.6 5.8l22.6 11.8-24.1-8.1a31.8 31.8 0 0 0 5.1 29.8 31.8 31.8 0 1 0 50 0 31.8 31.8 0 0 0 0-39.3z"/><path d="M160.6 629.5a31.7 31.7 0 0 0 6.8 19.7 31.8 31.8 0 1 0 50 0c4.3-5.5-56.8-23.3-56.8-19.7z" opacity=".1"/><path fill="#3f3d56" d="M346.5 517.2v226q-24.8-1.2-49.5-2.9l-7.5-.5V517.2a8.8 8.8 0 0 1 8.8-8.8h39.4a8.8 8.8 0 0 1 8.8 8.8zM419.5 746V366.2a8.8 8.8 0 0 1 8.8-8.8h39.4a8.8 8.8 0 0 1 8.8 8.8V747zM549.5 747.2v-302a8.8 8.8 0 0 1 8.8-8.8h39.4a8.8 8.8 0 0 1 8.8 8.8v301.4zM736.5 221.2v522.4l-57 1.5V221.2a8.8 8.8 0 0 1 8.8-8.8h39.4a8.8 8.8 0 0 1 8.8 8.8zM866.5 326.2v413c-19 1-38 1.6-57 2.2V326.2a8.8 8.8 0 0 1 8.8-8.8h39.4a8.8 8.8 0 0 1 8.8 8.8z"/><path fill="none" stroke="#3f3d56" stroke-linecap="round" stroke-miterlimit="10" stroke-width="7" d="M318.5 385.4l130-145 130 73 130-224 130 107"/><circle cx="318" cy="385.4" r="28" fill="#007bff"/><circle cx="448" cy="240.4" r="28" fill="#007bff"/><circle cx="578" cy="313.4" r="28" fill="#007bff"/><circle cx="708" cy="89.4" r="28" fill="#007bff"/><circle cx="958" cy="327.4" r="28" fill="#007bff"/><ellipse cx="233.7" cy="722.6" fill="#007bff" opacity=".1" rx="18.7" ry="3.2"/><path fill="#a8a8a8" d="M221.1 708s10.7-.4 13.9-2.7 16.4-5 17.2-1.3 16 18.2 4 18.3-28-1.9-31.2-3.8-3.9-10.6-3.9-10.6z"/><path d="M256.4 721c-12 .1-28-1.8-31.2-3.8-2.4-1.5-3.4-6.8-3.7-9.3h-.4s.7 8.6 4 10.6 19 3.9 31 3.8c3.5 0 4.7-1.3 4.7-3-.5 1-1.8 1.7-4.4 1.7z" opacity=".2"/><ellipse cx="1063.8" cy="749.4" fill="#007bff" opacity=".1" rx="34.3" ry="5.8"/><path fill="#a8a8a8" d="M1040.8 722.5s19.6-.6 25.5-4.8 30-9.2 31.5-2.5 29.4 33.5 7.3 33.7-51.3-3.5-57.2-7-7.1-19.4-7.1-19.4z"/><path d="M1105.5 746.5c-22 .2-51.3-3.4-57.2-7-4.5-2.7-6.3-12.5-6.9-17h-.6s1.2 15.8 7 19.4 35.2 7.2 57.3 7c6.4 0 8.6-2.3 8.5-5.7-1 2-3.3 3.3-8 3.3z" opacity=".2"/><path fill="url(#a)" d="M892.8 402.4a9 9 0 0 0 2 4.7c1.5 1.7 3.6 2.4 5.6 3.4A22 22 0 0 1 911 423c3.4 9.7 3.8 20 8 29.4s9.3 18.3 13 28c2 5.4 3.7 11 6.7 16a25 25 0 0 0 5.6 6.4c-.2 3.6-.3 7-.3 10.6a4 4 0 0 1 3.4 1.8 10.4 10.4 0 0 1 1.5 3.7c1.4 5.7-.3 11.7 1 17.4a88.6 88.6 0 0 1-3 47.7c-1.5 3.8-3.2 16.7-1.7 20.5 5.4-.5 10.2 2.8 15.3 5a21.1 21.1 0 0 1-.7 9c-1.8 5.3-1.8 11-1.8 16.6l.3 41.3c0 5.2 0 10.5 1.4 15.6 1.4 5.7 4.6 11.5 4.5 17.4-.3 12.7 5.7 24.8 5.2 37.4 0 2.4-.4 4.8-.6 7.2a82.1 82.1 0 0 0 .5 19.2c1.8 12.7 6.6 25.1 5.4 37.9-.1.8-.4 2-1.2 2.3l3.1 3.3a2.9 2.9 0 0 1-.8 1 8.8 8.8 0 0 1-3.8 1 8 8 0 0 0-4.4 1.3 6.3 6.3 0 0 0-1.8 3.4 9 9 0 0 0 1.2 7.5 8.3 8.3 0 0 0 3.3 2.5c4.7 2 10 .5 14.8-1l18.9-5.6a6.4 6.4 0 0 0 3-1.6 3.4 3.4 0 0 0 .8-1.7c4.2 1 8.7-.2 13-1.5l18.9-5.7a6.3 6.3 0 0 0 3-1.6 3.7 3.7 0 0 0 .8-3c.1 0 .3 0 .4-.2 1.5-.6 3-1.9 2.7-3.4-.3-1-1.3-1.6-1.7-2.5a3.6 3.6 0 0 1 .7-3.5c.7-1 1.7-1.9 2.4-3 2.2-3.3.7-7.6-.1-11.6-1.8-8.3-.1-17-1.2-25.5-.4-2.8-1.1-5.6-1.7-8.5a173.3 173.3 0 0 1-2.3-20.2c-.7-9.7-3.4-19.2-1.8-28.8a112 112 0 0 0 .9-17 74 74 0 0 0-.5-10.8c-.4-2.7-1-5.4-1.3-8a72.5 72.5 0 0 1-.2-9.1 90 90 0 0 0-1.9-20.2c-2-9-5.7-17.7-7.3-26.9l1.6.4c0-7-6.1-22.2-8.4-28.8a8.4 8.4 0 0 1-.6-2.6 27.5 27.5 0 0 1 .7-3.4c.3-2.4-1-4.7-1.4-7.2a16.8 16.8 0 0 1 .4-5c1.6-9 3.6-17.9 5.6-26.7a28.4 28.4 0 0 0 .9-10 12.4 12.4 0 0 1 3-9.7 11.7 11.7 0 0 0 2.2-2.8 7 7 0 0 0 .4-2.8 44.8 44.8 0 0 0-1.8-12.2c1.8-3.2 2.5-7 3-10.8 1-8.1 2.2-16.4 2.2-24.6a41.8 41.8 0 0 0-1.8-13 51.6 51.6 0 0 0-3.5-7.5c-5.2-10.2-10.2-20.8-16.9-30.1-2-2.8-.7-6.7-.6-10.2.2-4.2-1.5-8.2-3.1-12.1a19.8 19.8 0 0 0-3.8-6.5 6.1 6.1 0 0 0-4.4-2 6.6 6.6 0 0 0-4.7 2.9 15.5 15.5 0 0 0-2.8 11.6 22.4 22.4 0 0 0 5.1 10.9 24.8 24.8 0 0 0 4.4 4.2l5 15.7c2.6 8.4 5.3 16.8 9 24.7 1 2.3 2.3 4.6 2.4 7.1.2 2.7-1 5.3-1.9 8a55.8 55.8 0 0 0-3.2 16.6 5.7 5.7 0 0 0-.9.4c-3.1 2-4.1 6.6-7.4 8.4-1.9 1-4.2 1-6.3 1.5l-.6.2-.2-1.2a3.2 3.2 0 0 1 0-.8 33.6 33.6 0 0 0 12.4-11.8 10.8 10.8 0 0 0 1.5-3 11.6 11.6 0 0 0 .1-4 62.2 62.2 0 0 0-1.8-12.8 21.4 21.4 0 0 0-6.7-10.9c-1.7-1.3-3.6-2.3-5.2-3.6-3.2-2.6-5.3-6.4-9-8.3a10.8 10.8 0 0 0-13.6 3.5 7.9 7.9 0 0 1-2 2.6 20.6 20.6 0 0 0-1.9 1c-1 .8-1.1 2.5-.8 3.9a41 41 0 0 1 1.2 8.6 21 21 0 0 0 0 27.2l-.1 5.5-.1 1.1a7.2 7.2 0 0 1-3-2c-1.1-1.4-1.3-3.5-2.7-4.6a7.6 7.6 0 0 0-3.3-1.2 20.4 20.4 0 0 1-8-3.8c-1.8-1.4-3.8-3.3-6-3.7a131.6 131.6 0 0 0-13-19.8 38.6 38.6 0 0 1-3.3-4.7c-2.2-3.7-2.8-8.2-4.2-12.3-3.8-11.5-13.2-20.7-15.6-32.6-.8-4.4-3.5-8.1-5.4-12.1-1.3-2.7-2.7-5.5-5.2-7-3.3-2-7.8-1.1-10.5 1.5a12.6 12.6 0 0 0-3.3 10.7zM1011.5 807a8.8 8.8 0 0 1-3.8 1 18.4 18.4 0 0 0-2 .3l-.5-6.3c-.6-6.8-1.6-13.5-2.7-20.3-1-7-1.6-14.6-4-21.4a92.1 92.1 0 0 1-7.2-33.8l.6-7.8c.3-6.5-.6-13.1 1-19.4.7-3 2-5.7 2.4-8.6a40.5 40.5 0 0 0 0-8 105.5 105.5 0 0 1 2.3-27.3c1.9 2.5 2.5 5.6 3 8.6l3.8 20.4c2.2 12 4.2 24.8 10.1 35.6-.8 3.8-1.6 8-.3 11.7.6 1.6 1.6 3 2.2 4.6 1 2.7.8 5.6 1.1 8.5.7 6 3.2 11.9 1.3 17.7a86.3 86.3 0 0 0-3.6 18.3 44.7 44.7 0 0 1-.6 5.2l-1.1 4.6a15.2 15.2 0 0 0 .3 6.7 13.6 13.6 0 0 1 .8 3.7c0 1.3-1.6 2.2-2.8 2.4l1.1 1.4a4.4 4.4 0 0 1-1.4 2.2z" transform="translate(-43.2 -57.8)"/><path fill="#3f3d56" d="M928.8 760.8a8 8 0 0 0-4.3 1.4 6.2 6.2 0 0 0-1.9 3.3 8.9 8.9 0 0 0 1.2 7.5 8.3 8.3 0 0 0 3.4 2.5c4.7 2 10 .5 14.8-1l18.9-5.6a6.3 6.3 0 0 0 3-1.6 4.2 4.2 0 0 0 .1-4.8 9.4 9.4 0 0 0-4-3.2 44.8 44.8 0 0 0-19-3.7c-2.3 0-4.7-.5-6.3 1.3-.9 1-.7 2-2 3a9 9 0 0 1-3.9 1z"/><path fill="#3f3d56" d="M964.5 750.4a8.2 8.2 0 0 0-4.4 1.5 6.2 6.2 0 0 0-1.8 3.3 9 9 0 0 0 1.2 7.4 8.4 8.4 0 0 0 3.4 2.5c4.6 2 10 .6 14.7-.9l19-5.7a6.3 6.3 0 0 0 3-1.6 4.2 4.2 0 0 0 0-4.8 9.5 9.5 0 0 0-4-3.2 44.9 44.9 0 0 0-18.9-3.6c-2.4 0-4.7-.6-6.4 1.2-.8 1-.7 2.1-2 3a8.7 8.7 0 0 1-3.8 1z"/><path fill="#696791" d="M948.1 545.5a232.6 232.6 0 0 1 33.5-1 6.7 6.7 0 0 1 2.2.4c2.4 1 2.8 4.3 3 6.9 1 10.7 5.7 20.6 8 31a88.8 88.8 0 0 1 1.9 20 71.7 71.7 0 0 0 .1 9c.3 2.7 1 5.4 1.4 8a73 73 0 0 1 .5 10.8 110.5 110.5 0 0 1-1 16.9c-1.5 9.5 1.2 19 2 28.6a171 171 0 0 0 2.2 20.1c.5 2.8 1.2 5.6 1.6 8.4 1.1 8.4-.5 17.1 1.3 25.4.8 3.9 2.3 8.2 0 11.6-.6 1-1.6 1.8-2.3 2.8a3.6 3.6 0 0 0-.7 3.5c.4 1 1.4 1.5 1.6 2.5.4 1.5-1.2 2.8-2.6 3.4a27.6 27.6 0 0 1-32.2-7.9c1.3-.2 2.8-1.1 2.9-2.4a13.5 13.5 0 0 0-.9-3.7 15 15 0 0 1-.3-6.6c.3-1.6.9-3 1.2-4.6a44.2 44.2 0 0 0 .6-5.1 85.2 85.2 0 0 1 3.6-18.3c1.8-5.7-.7-11.5-1.3-17.5-.3-2.9-.2-5.8-1.2-8.5-.6-1.6-1.5-3-2.1-4.6-1.4-3.7-.6-7.8.3-11.6-6-10.7-8-23.4-10.1-35.4l-3.8-20.2c-.6-3-1.2-6-3-8.5a104.2 104.2 0 0 0-2.3 27.2 40 40 0 0 1 0 7.9c-.5 2.9-1.7 5.6-2.5 8.4-1.5 6.3-.6 12.9-1 19.3 0 2.6-.4 5.2-.5 7.8a91 91 0 0 0 7.2 33.6c2.3 6.7 2.9 14.3 4 21.3 1 6.6 2.1 13.3 2.6 20 .5 6.3.7 13 4.6 17.9a32.8 32.8 0 0 1-11.3 5.4 20.9 20.9 0 0 1-14-2.7 43.8 43.8 0 0 1-11-9.4c.9-.3 1.2-1.4 1.3-2.3 1.2-12.6-3.6-25-5.5-37.6a81 81 0 0 1-.4-19l.6-7.2c.5-12.5-5.5-24.6-5.3-37.1 0-5.9-3-11.7-4.5-17.3-1.4-5-1.4-10.3-1.4-15.5l-.3-41c0-5.6 0-11.2 1.8-16.5 2.2-6.3-.3-13.5-.7-20.2a83.2 83.2 0 0 0 32.2 3.6z"/><path fill="#a0616a" d="M912.4 427.7a130.7 130.7 0 0 0-15.3-24.1 38.3 38.3 0 0 1-3.4-4.7c-2.1-3.7-2.8-8-4.1-12.2-3.8-11.4-13.3-20.6-15.6-32.4-.8-4.3-3.6-8-5.5-12-1.2-2.7-2.6-5.5-5.2-7-3.2-2-7.8-1.1-10.5 1.6a12.5 12.5 0 0 0-3.2 10.5 9 9 0 0 0 2 4.8c1.4 1.6 3.6 2.3 5.6 3.3a21.9 21.9 0 0 1 10.7 12.3c3.4 9.7 3.8 19.9 8 29.2s9.2 18.3 13 27.8c2 5.4 3.6 11 6.7 16s7.8 9.2 13.6 10a33.5 33.5 0 0 1 1.6-10.8c1.2-3.9 3.5-8.5 1.6-12.3zM974.4 435.2a55.3 55.3 0 0 1 3.2-20.8c1-2.5 2-5.1 2-7.8-.2-2.5-1.4-4.9-2.5-7.1-3.8-7.9-6.4-16.2-9-24.5l-5-15.7a24.3 24.3 0 0 1-4.4-4.1 22.1 22.1 0 0 1-5-10.9 15.3 15.3 0 0 1 2.7-11.4 6.7 6.7 0 0 1 4.7-2.9 6.1 6.1 0 0 1 4.4 2 19.7 19.7 0 0 1 3.8 6.4c1.6 3.9 3.3 7.9 3.1 12-.1 3.5-1.4 7.3.6 10.1 6.7 9.3 11.7 19.9 17 30a50.6 50.6 0 0 1 3.4 7.4 41.2 41.2 0 0 1 1.8 13c0 8.1-1.1 16.3-2.2 24.4-.7 5.1-1.7 10.7-5.5 14-4-5-8-10-13.1-14z"/><circle cx="948.9" cy="418.4" r="20.8" fill="#a0616a"/><path fill="#a0616a" d="M959 440.2c.5 3.8 2.5 7.1 4.4 10.4 1.2 2 2.7 4 5 4.3a100.8 100.8 0 0 1-18.8 7.6 21.3 21.3 0 0 1-6.9 1.1 16.8 16.8 0 0 1-5.7-1.5 28.5 28.5 0 0 1-16.2-18.9 37.6 37.6 0 0 0 7.7-.6 5.7 5.7 0 0 0 3.8-1.8 6 6 0 0 0 .8-3.4V427a41 41 0 0 1 15 1.9l6 2c1.3.3 4.8 0 5.7.7 1.5 1-1.2 6-.8 8.6z"/><path fill="#f86d70" d="M949.8 452.8a13 13 0 0 1 10-11.6c2.1-.5 4.5-.4 6.4-1.5 3.2-1.8 4.2-6.3 7.4-8.3s7.6-1 10.3 1.7 4.2 6.2 5.3 9.9a50 50 0 0 1 2.7 15.1 7 7 0 0 1-.5 2.8 11.6 11.6 0 0 1-2.2 2.7 12.3 12.3 0 0 0-3 9.8 28 28 0 0 1-.9 9.8c-2 8.8-4 17.6-5.6 26.5a16.5 16.5 0 0 0-.4 5c.4 2.5 1.7 4.7 1.4 7.1a26.9 26.9 0 0 0-.6 3.5 8.3 8.3 0 0 0 .6 2.5c2.2 6.6 8.4 21.7 8.3 28.7a174.1 174.1 0 0 0-37.3-3.4 83.1 83.1 0 0 0-9.1.4c-7.2.7-14.6 2.9-21.6 1-6.5-1.9-12.3-7-19-6.4-1.5-3.9.2-16.6 1.6-20.5a87.4 87.4 0 0 0 3-47.3c-1.2-5.7.5-11.7-1-17.3a10.3 10.3 0 0 0-1.4-3.7 4 4 0 0 0-3.4-1.8 127.4 127.4 0 0 1 2.5-27c.6-3 2-6.8 5.2-7.4 2.9-.4 5.3 2 7.6 3.7a20.3 20.3 0 0 0 8 3.8 7.6 7.6 0 0 1 3.2 1.2c1.4 1.1 1.6 3.2 2.7 4.6 2 2.5 6.5 2.3 8 5.1a19.6 19.6 0 0 1 .7 2.7 9.6 9.6 0 0 0 3.3 4.2 18.6 18.6 0 0 0 7.9 4.4z"/><path fill="#2d293d" d="M932 396.3c-.3-1.4-.2-3 .9-4 .5-.4 1.2-.5 1.8-1a8 8 0 0 0 2-2.5 10.9 10.9 0 0 1 13.6-3.4c3.6 1.9 5.8 5.7 9 8.2 1.6 1.3 3.5 2.3 5.2 3.6a21.2 21.2 0 0 1 6.7 10.9 61.4 61.4 0 0 1 1.8 12.7 11.5 11.5 0 0 1-.1 3.9 10.9 10.9 0 0 1-1.5 3c-3.3 5-7.7 9.5-13.1 12.1s-12 3-17.5.3a3 3 0 0 1-1.3-1 3.9 3.9 0 0 1-.2-2.4 15.8 15.8 0 0 0-1.8-8.8c-1-2-2.5-3.7-3.3-5.8a20.2 20.2 0 0 1-.9-7.2c0-6.3.3-12.5-1.2-18.6z"/></svg>