<svg data-name="Layer 1" xmlns="http://www.w3.org/2000/svg" width="1041.3" height="554.2"><defs><linearGradient id="a" x1="597.8" y1="725.4" x2="597.8" y2="347.7" gradientUnits="userSpaceOnUse"><stop offset="0" stop-color="gray" stop-opacity=".3"/><stop offset=".5" stop-color="gray" stop-opacity=".1"/><stop offset="1" stop-color="gray" stop-opacity=".1"/></linearGradient></defs><path d="M961.5 438.2l-3.5 7.4-5.3 11.1-2.3 4.8c-8.6 17.6-16.7 33.1-23.5 45.9a73.2 73.2 0 0 1-63.8 38.7l-151.7 1.6h-1.6l-13 .2-11 .1-34.2.4h-1.4l-17.3.2h-.5l-107 1.1-95.6 1-11 .1-69 .8h-.1l-44.8.5h-.5L163 553.6l-42.3.5a88 88 0 0 1-26.7-3.9 86.4 86.4 0 0 1-39-24.7 200 200 0 0 1-40.4-68.8q-2-5.5-3.6-11C-19.9 341.4 17.7 207 85.3 117.1q4.2-5.7 8.6-11v-.1a277 277 0 0 1 69-62c44-27 92.7-34.5 140.7-12a314.7 314.7 0 0 0 126.3 31.2C514 65.9 593 35.6 685.7 16l11.2-2.3a609.4 609.4 0 0 1 226.7-5.5 189 189 0 0 1 26.8 6.4q5.7 1.9 11 4c41.7 17 64.4 48.2 74 87.5q1.4 5.4 2.4 11c17.2 94.4-33 228.2-76.3 321.1z" fill="#007bff" opacity=".1"/><g opacity=".1" fill="#007bff"><path d="M162.9 44v509.7l-42.3.5a88 88 0 0 1-26.7-3.8V106a275.9 275.9 0 0 1 69-62z"/><path d="M1037.9 117.2H85.3q4.2-5.7 8.6-11v-.1h941.6q1.4 5.4 2.4 11z"/><path d="M961.5 18.6v427H958l-5.3 11.1-2.3 4.8v-447q5.7 2 11 4.1zM696.9 13.7v534.2l-11.1.1V16l11-2.3zM429.9 63.2v487.6l-11.1.1V62.7c3.7.3 7.4.4 11 .5z"/><path d="M958 445.6l-5.3 11.1H14.5q-2-5.5-3.6-11z"/></g><path fill="#3f3d56" d="M211.6 265.8h19v57.7h-19zM722.9 262.8h19v61h-19z"/><path fill="#65617d" d="M863.1 533.6v13l-152 1.4h-1.5l-57.8.6h-1.4l-17.5.2h-.5l-107 1-175.6 1.6h-.2l-44.6.4h-.5l-198.4 1.9v-15l46.7-28 93.5-.8h4.7l45-.4h4.6l14.4-.2h.4l35.5-.3h.3l277.4-2.4h12.7l37.6-.4h4.9l11.7-.1h5.3l9.8-.1 15.5-.2h6.1l74.7-.7 56.2 28.5z"/><path opacity=".2" d="M863.1 533.6v13l-152 1.4h-1.5l-57.8.6h-1.4l-17.5.2h-.5l-107 1-175.6 1.6h-.2l-44.6.4h-.5l-198.4 1.9v-15l46.7-28 93.5-.8h4.7l45-.4h4.6l14.4-.2h.4l35.5-.3h.3l277.4-2.4h12.7l37.6-.4h4.9l11.7-.1h5.3l9.8-.1 15.5-.2h6.1l74.7-.7 56.2 28.5z"/><path d="M296.1 483.7v24.5a6.1 6.1 0 0 1-3.5 5.5 6 6 0 0 1-2.5.6l-34.9.7a6 6 0 0 1-2.7-.5 6.1 6.1 0 0 1-3.6-5.6v-25.2z" fill="#3f3d56"/><path d="M296.1 483.7v24.5a6.1 6.1 0 0 1-3.5 5.5 6 6 0 0 1-2.5.6l-34.9.7a6 6 0 0 1-2.7-.5 6.1 6.1 0 0 1-3.6-5.6v-25.2z" opacity=".1"/><path d="M298.1 483.7v24.5a6.1 6.1 0 0 1-3.5 5.5 6 6 0 0 1-2.5.6l-34.9.7a6 6 0 0 1-2.7-.5 6.1 6.1 0 0 1-3.6-5.6v-25.2zM680.9 483.7h47.2v31.5h-47.2z" fill="#3f3d56"/><path opacity=".1" d="M680.9 483.7h47.2v31.5h-47.2z"/><path fill="#3f3d56" d="M678.9 483.7h47.2v31.5h-47.2z"/><path opacity=".1" d="M230.6 265.8v5.8l-19-.5v-5.3h19z"/><path d="M355.7 104.4l-22.9 164a4.3 4.3 0 0 1-4.3 3.7l-182.8-4.7-3.5-.1a4.3 4.3 0 0 1-4.2-4.9l25.7-171.7a4.3 4.3 0 0 1 4.5-3.6l183.5 12.4a4.3 4.3 0 0 1 4 4.9z" fill="#65617d"/><path fill="#007bff" d="M176 99.2l-19.4 151.3 168 5.3 20.7-146-169.4-10.6z"/><rect x="384.6" y="96.8" width="204.7" height="173.3" rx="5.3" ry="5.3" fill="#65617d"/><path fill="#007bff" d="M394.3 108.5h186v144.3h-186z"/><path opacity=".1" d="M742 262.8v3.8l-19 .4v-4.2h19z"/><path d="M827.7 259.6a3 3 0 0 1-3 3.3l-187.2 3.9a3 3 0 0 1-3.2-2.8l-16-167.3a3 3 0 0 1 2.9-3.4l185.7-9.2 2-.1a3 3 0 0 1 3.3 2.8z" fill="#65617d"/><path fill="#007bff" d="M629 103.2l169.6-8.4 14.3 152-168.3 4-15.7-147.6z"/><path d="M827.7 259.6a3 3 0 0 1-3 3.3L806.9 84.1l2-.1a3 3 0 0 1 3.3 2.8zM168.2 87l-22.5 180.4-3.5-.1a4.3 4.3 0 0 1-4.2-4.9l25.7-171.7a4.3 4.3 0 0 1 4.5-3.6zM211.6 306.4h19v17.1h-19zM298.1 483.6v5l-47.2 1.3v-6.3h47.2z" opacity=".1"/><path d="M381.4 312.4v168.2a4 4 0 0 1-3.9 4l-191.7 5a4 4 0 0 1-4-4V312.5a4 4 0 0 1 4-4h191.6a4 4 0 0 1 4 4z" fill="#65617d"/><path d="M185.8 308.4v181.2a4 4 0 0 1-4-4V312.5a4 4 0 0 1 4-4z" opacity=".1"/><path fill="#d4dfec" d="M194.6 319.1h177.5v148.3l-177.5 4V319.1z"/><path opacity=".1" d="M722.9 306.4h19v17.4h-19zM726.1 483.6v6.5l-47.2-1.3v-5.2h47.2z"/><path d="M788.4 312.4v173.3a4 4 0 0 1-4 4l-191.7-5.2a4 4 0 0 1-3.9-4V312.5a4 4 0 0 1 4-4h191.6a4 4 0 0 1 4 4z" fill="#65617d"/><path d="M788.4 312.4v173.3a4 4 0 0 1-4 4V308.3a4 4 0 0 1 4 4z" opacity=".1"/><path fill="#d4dfec" d="M775.6 319.1H598.1v148.3l177.5 4V319.1z"/><path d="M583.9 312.4v168.2a4 4 0 0 1-3.9 4l-191.7 5a4 4 0 0 1-4-4V312.5a4 4 0 0 1 4-4h191.6a4 4 0 0 1 4 4z" fill="#65617d"/><path fill="#d4dfec" d="M397.1 319.1h177.5v148.3l-177.5 4V319.1z"/><path opacity=".1" d="M863.1 533.6v13l-152 1.4h-1.5l-57.8.6h-1.4l-17.5.2h-.5l-107 1-175.6 1.6h-.2l-44.6.4h-.5l-198.4 1.9v-15l202.5-1.4h.5l41-.3h.2l283-1.8H640.6l74.5-.6h5.4l142.7-1z"/><circle cx="487.3" cy="272.2" r="51.3" fill="#fbbebe"/><path d="M383.7 725l.1-.3 4.2-14.5.4-1.7c1.5-5.5 4.4-18.3 6-26.3.5-2.8 1-5 1-6 .2-1.8 3.3-9 6.7-17.3 2.4-5.9 5-12.2 6.9-17.6a61.4 61.4 0 0 0 2.9-9.9 5.1 5.1 0 0 0 0-2.1 14.7 14.7 0 0 1-.5-3.5c-.2-6.2 1.6-16 4.5-20.1 3.5-5 6-23.7 6-23.7s5.2.8 6-3.5a6.2 6.2 0 0 0 .1-1.4 7.4 7.4 0 0 0 0-1.1c-1-6.2 14.6-12.9 23.4-14.3a19.7 19.7 0 0 1 3-.3 27.2 27.2 0 0 0 6.3-1.4l3-1 12.7-4.7c17.6-6.8 38.8-16 38.8-16l.5-2a27.7 27.7 0 0 1 16.4-19v-2l-.3-10.5-.1-2.1v-.6-.5l-.1-2.1-.2-.2a16.4 16.4 0 0 1-3.9-4.2 15.3 15.3 0 0 1-1.4-3c-1.3-3.4-1.6-7.1-2.4-10.7l-.2-.8a84 84 0 0 0-4-10.5c-2.2-5.5-3.9-11-5.6-16.7l-3-10.3-1.7-5.2-.8-3a13.3 13.3 0 0 1-.3-1.4 10 10 0 0 1 .3-4.6 32 32 0 0 1 1.3-3 7.9 7.9 0 0 0 .5-1.4 3 3 0 0 0 0-.3 5.7 5.7 0 0 0 .2-1.1 18.5 18.5 0 0 0-.5-3.9 2.6 2.6 0 0 0 0-.3 25.5 25.5 0 0 1-.4-3 28.4 28.4 0 0 1 3.4-15.6l.2-.3a25.2 25.2 0 0 1 1.9-2.8l1-1.2c-1.4 1.3-3.7.7-5-.7a3.6 3.6 0 0 1-.6-.8 3.8 3.8 0 0 1-.2-.4l-.1-.4c-.7-2.5.5-5 2-7a18.5 18.5 0 0 1 5.8-4.8 3.8 3.8 0 0 1 .4-.2 17.1 17.1 0 0 1 2.7-1 15 15 0 0 1 1.6-.5l-3.7-.3-1.5-.2a14.5 14.5 0 0 1 13-10.9h1a11.7 11.7 0 0 1 1.6.2 4.4 4.4 0 0 1-2.6-4.4 14.4 14.4 0 0 0 9.2 3h.3a30 30 0 0 1-.3-3.2 33.2 33.2 0 0 1 0-4.4 8.4 8.4 0 0 0 6.8 2.2l-2.1-2.9a9.5 9.5 0 0 0 6.6 2h.4a7 7 0 0 0 1.2-.2h.1a10 10 0 0 1-.5-.8 9.7 9.7 0 0 1-1-2.2 6.6 6.6 0 0 1-.3-.8 8.8 8.8 0 0 1 .4-5.5c3.3 2.7 6.8 6.4 11 3.6s4.4-7.9 11-7.4a10.2 10.2 0 0 1 8.5 6.1 6.8 6.8 0 0 1 7.6-1.7 6.8 6.8 0 0 1 3.9 6.9c2.8-.7 5.7-1.4 8.4-.3s4.3 4.4 2.8 6.6a1.4 1.4 0 0 1-.1.2c-1.3 1.6-4 2.5-3.7 4.5l.4.3 1.3 1q7.7 5.4 15 11.5c2.4 2 5 4.6 5.2 7.8a8.6 8.6 0 0 1-.2 2.4l-.6 2.4a19.5 19.5 0 0 0-.3 6l.2 1.8c1.6 7.7 7.8 14 8.4 22v.5a17.8 17.8 0 0 1-.1 2.6c-.5 4.8-2.7 9.4-4.5 14l-.3.8c-3.5 9-5.5 18.6-7 28.2a100.3 100.3 0 0 1-2 10 26.7 26.7 0 0 1-5.1 10.5 16.2 16.2 0 0 1-3.4 3 18.7 18.7 0 0 1-2.6 1.4l.3 1.9.2 1c.8 4.8 1.8 9.4 2.8 13.8l.5 2.2c12.6 4.5 14 13.9 14.2 17.4a9.6 9.6 0 0 1 0 1.5s19 .5 26.5 6a20.3 20.3 0 0 0 4.5 2.3 83 83 0 0 0 9.2 2.8 204 204 0 0 0 14.3 3.3c8.2 1.6 15.9 3 19.8 4 9.3 2.3 30.7 22.8 30.7 22.8s2.5 20.6 5 23.6 7 13.6 7 13.6l16.5 29.4 7 12.4h4.5c.6 0 1.8.9 3.2 2.1 1.2 1 2.5 2.4 3.7 3.6l1.9 2 1.2 1.4s7.3.2 9.2 5.9c6-.2 13.2.2 18.3 2.5a14.1 14.1 0 0 1 2 1 8.7 8.7 0 0 1 4.1 5.7 8.3 8.3 0 0 1 .2 1.5v1.7c-.3 7.6-5.3 13.9-9.8 18l.3.7-.4 1-.3.6c-.6 1.3-1.5 3.2-2.8 5.4a63.3 63.3 0 0 1-9.5 13.1l-.3.3-57.8.6-.1-.2-11.2-13.4-5.6-6.6-.2-.2-.1 1.5-.6 5.3-1.3 12.8V721.7l-.2 1.4.1-1.4h-.3l-107 1-175.6 1.9v.8h-.1v-.8l-44.8.5z" transform="translate(-79.3 -173)" fill="url(#a)"/><path d="M538.6 377.2s-99.5 12-90 0c3.4-4.4 4.4-17.2 4.2-31.9 0-4.4-.2-9-.5-13.6-1-22-3.7-43.5-3.7-43.5s87-41 77-8.5c-4 13-2.7 31.5.3 48.8l3 14.7a344.7 344.7 0 0 0 9.7 34z" fill="#fbbebe"/><path d="M538.6 377.2s-99.5 12-90 0c3.4-4.4 4.4-17.2 4.2-31.9 15.2-6.5 34.5-1.6 34.5-1.6 20.3-4 33.3-3.3 41.6-.5a344.7 344.7 0 0 0 9.7 34z" opacity=".1"/><path d="M349.7 552.5v-.8l175.7-2 107-1h.3l-.2 1.6.2-1.5h.2v-.2l1.4-13.4.5-5.1.1-1.6.2-1.3 6.2-20.7 6.1-20.5 5.2-17.4 8-26.5s-4.5-10.5-7-13.5-5-23.5-5-23.5-21.4-20.3-30.7-22.6c-3.9-1-11.6-2.4-19.8-4a281.1 281.1 0 0 1-14.3-3.2 88 88 0 0 1-9.2-2.9 20.7 20.7 0 0 1-4.5-2.3c-7.4-5.4-25.8-6-26.5-6v-.1a10.3 10.3 0 0 0 0-1.3v-1.4c0-.2 0-.3-.2-.5 0-.4 0-.7-.2-1.1a5 5 0 0 0 0-.6 17.2 17.2 0 0 0-1.3-3.5l-.3-.4a18.3 18.3 0 0 0-1.7-2.7l-.4-.5a19.6 19.6 0 0 0-2.7-2.6l-.9-.7a4.7 4.7 0 0 0-.5-.3l-.9-.6-.8-.5a30 30 0 0 0-2.3-1.1l-.8-.4-1.1-.4-.8-.3-1.8-.5-1-.3-1-.2-1-.2-3.1-.5-1.2-.2-1.1-.1-1.2-.1-1.8-.1h-2a124.7 124.7 0 0 0-26.2 2.7A72.3 72.3 0 0 0 469 344h-.8l-1 .1h-.7l-1.3.1-1.3.2c-.5 0-.8 0-1.3.2h-.6l-2 .4q-.4 0-.7.2a34.3 34.3 0 0 0-3.9 1l-.6.3-.7.2-.6.3-.7.3a22.6 22.6 0 0 0-1.8.8l-.6.3a27.8 27.8 0 0 0-6.2 4.4l-.5.5-.5.5-.5.5a23.8 23.8 0 0 0-1.8 2.3l-.5.6a26.7 26.7 0 0 0-1.7 3l-.4.6a32.7 32.7 0 0 0-2 5.3l-.5 2s-21.1 9.3-38.7 16a313 313 0 0 1-12.8 4.8l-3 1a26.7 26.7 0 0 1-6.2 1.4 19.7 19.7 0 0 0-3 .3c-8 1.3-21.9 7-23.4 12.7a3.7 3.7 0 0 0-.1 1.4c1 7-6 6-6 6s-2.5 18.6-6 23.6a39.4 39.4 0 0 0-4.5 17.7 19.6 19.6 0 0 0 .4 5.6v.2c.4 1.3-.5 5-2.1 9.6-1.8 5.2-4.4 11.6-6.9 17.6-3.7 9.2-7.2 17.4-7.5 19.3a526.4 526.4 0 0 1-11.1 46.6v.3l44.8-.4v.8h.1z" fill="#007bff"/><path d="M366.1 434.7s57 29.5 77.5 26zM482.1 422.7s55.5 18 74 20.5-74-20.5-74-20.5zM543.7 364.7c-29 5.4-83.6 4.2-107.2 3.4 8.6-31 50.8-20.4 50.8-20.4 52.2-10.5 56.2 11.2 56.4 17z" opacity=".1"/><path d="M543.7 362.7c-29 5.4-83.6 4.2-107.2 3.4 8.6-31 50.8-20.4 50.8-20.4 52.2-10.5 56.2 11.2 56.4 17z" fill="#007bff"/><path d="M697.6 499.4s34.2-5.2 34.8 9.8-17.4 25.4-17.4 25.4z" fill="#fbbebe"/><path d="M526 328.5a47 47 0 0 1-4.6 1.8c-10.7 3.7-21.6 7.4-33 8.8s-23.2.2-33.1-5.5a28.8 28.8 0 0 1-3-2c-1.1-22-3.8-43.4-3.8-43.4s87-41 77-8.5c-4 13-2.6 31.5.4 48.8z" opacity=".1"/><path d="M473.2 192a9.5 9.5 0 0 1-8.3-1.8l2 2.9a8.5 8.5 0 0 1-6.7-2.3 34 34 0 0 0 .3 7.8 14.5 14.5 0 0 1-9.6-3 4.4 4.4 0 0 0 2.7 4.3 14.3 14.3 0 0 0-15.6 10.7l5.2.5a18.5 18.5 0 0 0-10.5 6.3c-1.6 2-2.8 4.6-2 7s4 4 5.8 2.3a28 28 0 0 0-6 22.8 14.5 14.5 0 0 1 .4 5.2c-.3 1.7-1.4 3.1-1.9 4.7-1 3 0 6.1.8 9l4.7 15.5c1.7 5.5 3.4 11.1 5.6 16.5a82 82 0 0 1 4 10.5c1.3 4.8 1.4 10.1 4 14.4a20 20 0 0 0 7.2 6.3c10 5.7 21.9 6.9 33.2 5.5s22.2-5.1 33-8.8a31 31 0 0 0 6.8-3c7.4-4.9 9-14.9 10.5-23.7 1.5-9.8 3.6-19.6 7.3-28.8 2.1-5.5 5-11 4.5-17-.6-7.7-6.8-14-8.3-21.7a19 19 0 0 1 0-7.8 17.7 17.7 0 0 0 .8-4.7c-.1-3.2-2.8-5.7-5.3-7.8q-8-6.7-16.6-12.7c-.3-2 2.4-2.9 3.6-4.5 1.8-2.2 0-5.7-2.7-6.8s-5.6-.3-8.3.4a6.6 6.6 0 0 0-11.6-5.1 10.2 10.2 0 0 0-8.4-6.1c-6.6-.5-6.7 4.5-11 7.3s-7.7-.9-11-3.6a9.3 9.3 0 0 0 1.4 9.2z" fill="#3f3d56"/><path d="M723 529.4s-1 2.1-2.6 5.2a69 69 0 0 1-9 13.2l-.3.3h-1.6l-57.7.5h-1.4l-.2-.2L639 535l-4.2-5-.2-.2-.3-.4-.2-.3-.3-.3-8.2-9.7 3-12.5 5.1-21 .1-.6 1-4 .7-3 2.4-9.8 8.2-33.6 14.5 7.5 15.3 27 8.2 14.5h4.5c.8 0 2.8 1.6 4.7 3.5a75.4 75.4 0 0 1 5.2 5.4s7.3.2 9.3 6a7 7 0 0 1 .2.8 40.3 40.3 0 0 0 2.6 6.5 241.4 241.4 0 0 0 11.8 22.7l.1.2z" fill="#007bff"/><path d="M637 484.3v1.4l-.2 2.4-1.4 18.5-1.6 22.3-.4 6.3-1 13.4v.2l-107 1-175.6 1.9v.8h-.2v-1.1l.5-14.3.8-28.1.8-23.8v-2.4a10.5 10.5 0 0 1 11.5-10.1l18.2 1.4 3 .2a1619.4 1619.4 0 0 0 204.5 1.7c12.2-.8 24.4-1.8 36.5-3a10.5 10.5 0 0 1 11.6 11.2z" opacity=".1"/><path d="M349.7 552.5v-.8l175.7-2 107-1h.3l1-13.5.4-6 1.6-22.6 1.3-18v-.4a10.6 10.6 0 0 0 0-2.4.3.3 0 0 0 0-.1 10.4 10.4 0 0 0-2-4.7 10.5 10.5 0 0 0-9.5-4 937.4 937.4 0 0 1-41.6 3.3c-79 4.7-157.2 1-199.5-2l-3-.2-18.2-1.4a10.5 10.5 0 0 0-11.2 8.5 11 11 0 0 0-.2 1.7l-.7 22.1-.9 28-.4 14.5v1.1z" fill="#3f3d56"/><path d="M637.3 491.3l-1.2 15.3-1.8 22.8-.5 5.8-1 12.8v.8l-.2 1.5.1-1.5h-.3l-107 1-175.6 1.9v-.3l.5-14.4 1-28 .6-18.7a6.4 6.4 0 0 1 3-5.2 6.3 6.3 0 0 1 3.8-1 995.6 995.6 0 0 0 25.7 1.9c13 .8 29.3 1.7 48 2.4a1562.7 1562.7 0 0 0 198-4 6.3 6.3 0 0 1 3.5.7 5.2 5.2 0 0 1 .8.5 6.1 6.1 0 0 1 2 2.5 3.6 3.6 0 0 1 .3.6 6.3 6.3 0 0 1 .3 2.6zM298.1 505v3.2a6.1 6.1 0 0 1-3.5 5.5l-40.1.8a6.1 6.1 0 0 1-3.6-5.6v-3z" opacity=".1"/><path fill="#3f3d56" d="M298.6 515.6l-52.3 1v-8.7l52.3-1v8.7z"/><path opacity=".1" d="M298.6 515.6l-52.3 1v-8.7l52.3-1v8.7z"/><path fill="#3f3d56" d="M300.6 515.6l-52.3 1v-8.7l52.3-1v8.7z"/><g opacity=".1"><path d="M473.6 188.7a9.8 9.8 0 0 1-1.9-4.4 9.5 9.5 0 0 0 .4 4.6 9 9 0 0 0 1.5-.3zM460.9 195.3a35.1 35.1 0 0 1-.4-3.7v3.7zM542.4 228.7a18.3 18.3 0 0 1 .4-2.7 18 18 0 0 0 .8-4.7 6.2 6.2 0 0 0-.2-1l-.6 2.7a19.1 19.1 0 0 0-.4 5.7zM521.6 197.8l1 .8a19.7 19.7 0 0 0 2.6-2.3 3.7 3.7 0 0 0 .4-3.6 3 3 0 0 1-.4.6c-1.2 1.6-3.9 2.5-3.6 4.5zM439.4 207.4a12.3 12.3 0 0 0-.9 2.3 18.2 18.2 0 0 1 5-2zM453.2 196.5a14.8 14.8 0 0 1-1.9-1.2 4.3 4.3 0 0 0 .1 1.2 11.9 11.9 0 0 1 1.8 0zM551 255.4c-.4 4.9-2.7 9.5-4.5 14.1-3.7 9.3-5.8 19-7.3 28.8-1.4 8.8-3 18.8-10.5 23.7a30 30 0 0 1-6.8 3c-10.8 3.7-21.7 7.5-33 8.8s-23.3.2-33.2-5.5a20 20 0 0 1-7.2-6.3c-2.6-4.2-2.7-9.5-4-14.4a82.2 82.2 0 0 0-4-10.5c-2.2-5.4-3.9-11-5.6-16.5l-4.7-15.5a28.8 28.8 0 0 1-1.1-4.7 18 18 0 0 0 1.1 7.7l4.7 15.5c1.7 5.5 3.4 11.1 5.6 16.5a82.2 82.2 0 0 1 4 10.5c1.3 4.9 1.3 10.2 4 14.4a20 20 0 0 0 7.2 6.3c9.9 5.7 21.8 6.9 33.2 5.5s22.1-5 33-8.8a30 30 0 0 0 6.8-3c7.4-4.9 9.1-14.9 10.5-23.7 1.5-9.8 3.6-19.5 7.3-28.8 2.2-5.4 5-11 4.5-16.9v-.2zM431.3 251.5a14 14 0 0 0-.5-5.3 26.6 26.6 0 0 1-.4-3.3 27.4 27.4 0 0 0 .4 6.3l.5 2.3zM434.3 227a27.7 27.7 0 0 1 2.6-3.6c-1.8 1.8-5.2.2-5.9-2.2a5.8 5.8 0 0 0 0 3 4.4 4.4 0 0 0 3.3 2.9z"/></g><path d="M684.1 483.7s3.2 11.5 0 21.5 0-21.5 0-21.5zM697.6 495.4s1.3 14.6-1.7 17.2 1.7-17.2 1.7-17.2z" opacity=".1"/><path fill="none" stroke="#007bff" stroke-miterlimit="10" stroke-width="2" d="M199 342.9l101.6-1M199 355.3l101.6-1M199 367.8l101.6-1"/></svg>