<?xml version="1.0" standalone="no"?>
<!DOCTYPE svg PUBLIC "-//W3C//DTD SVG 20010904//EN"
 "http://www.w3.org/TR/2001/REC-SVG-20010904/DTD/svg10.dtd">
<svg version="1.0" xmlns="http://www.w3.org/2000/svg"
 width="700.000000pt" height="700.000000pt" viewBox="0 0 700.000000 700.000000"
 preserveAspectRatio="xMidYMid meet">
<metadata>
Created by potrace 1.11, written by Peter Selinger 2001-2013
</metadata>
<g transform="translate(0.000000,700.000000) scale(0.100000,-0.100000)"
fill="#000000" stroke="none">
<path d="M3298 6995 c-2 -1 -41 -5 -88 -9 -100 -7 -225 -22 -295 -36 -27 -5
-61 -12 -75 -14 -431 -79 -908 -273 -1275 -519 -69 -46 -297 -217 -305 -228
-3 -3 -25 -23 -50 -44 -85 -70 -216 -201 -361 -361 -107 -118 -286 -370 -386
-545 -158 -274 -309 -656 -369 -932 -20 -90 -53 -272 -59 -322 -4 -33 -9 -69
-11 -80 -18 -95 -25 -522 -12 -690 8 -104 25 -233 42 -320 2 -11 6 -36 10 -55
49 -272 156 -595 283 -857 449 -928 1279 -1611 2270 -1868 72 -19 142 -36 155
-39 13 -2 60 -11 106 -20 46 -9 111 -19 145 -22 34 -3 65 -8 68 -9 15 -10 227
-20 409 -20 188 0 341 8 430 21 144 21 295 48 345 61 33 8 67 16 75 18 109 22
388 117 549 187 121 53 308 148 353 179 14 11 29 19 33 19 25 0 384 258 494
354 123 108 295 280 366 366 21 25 41 47 44 50 4 3 45 55 91 115 332 436 547
915 654 1456 14 70 28 155 32 190 3 35 8 67 10 70 9 17 19 214 18 399 0 188
-6 331 -19 420 -3 19 -7 56 -10 81 -3 25 -7 54 -9 65 -2 10 -11 60 -21 109
-85 456 -276 915 -543 1305 -56 82 -194 265 -211 280 -3 3 -35 38 -70 78 -478
546 -1168 947 -1888 1097 -100 20 -248 43 -393 60 -56 7 -526 16 -532 10z
m490 -610 c84 -10 124 -15 157 -20 17 -3 48 -7 70 -11 78 -11 251 -52 353 -83
757 -230 1390 -772 1737 -1486 142 -293 221 -554 269 -895 25 -176 26 -550 2
-705 -3 -16 -7 -48 -10 -70 -7 -56 -34 -204 -41 -226 -3 -9 -7 -26 -9 -36 -11
-54 -62 -221 -98 -317 -114 -310 -276 -586 -514 -876 -33 -40 -247 -254 -299
-298 -96 -83 -272 -212 -381 -278 -112 -68 -383 -204 -407 -204 -7 0 -17 -4
-23 -9 -25 -24 -392 -133 -524 -156 -19 -3 -42 -8 -50 -10 -8 -2 -42 -7 -75
-11 -33 -3 -63 -8 -66 -10 -12 -7 -229 -17 -354 -18 -120 0 -289 10 -334 19
-13 2 -49 7 -80 10 -95 11 -350 71 -476 113 -206 69 -469 190 -593 273 -24 16
-45 29 -47 29 -3 0 -44 28 -92 62 -481 339 -830 780 -1041 1313 -180 454 -239
975 -167 1460 18 116 24 154 30 175 2 8 7 29 10 46 8 50 71 263 104 350 220
595 633 1103 1170 1443 86 55 304 169 401 210 146 62 411 145 533 166 18 4 51
10 74 15 22 5 65 12 95 16 29 3 64 8 78 10 14 2 70 7 125 10 55 4 101 7 102 8
6 5 319 -2 371 -9z"/>
<path d="M3339 5666 c-2 -2 -31 -7 -64 -10 -92 -10 -122 -15 -235 -42 -117
-27 -260 -72 -274 -85 -6 -5 -17 -9 -25 -9 -25 0 -271 -125 -356 -180 -233
-153 -405 -313 -571 -532 -41 -53 -74 -101 -74 -107 0 -5 -4 -11 -8 -13 -14
-5 -91 -143 -145 -257 -77 -163 -137 -358 -171 -556 -22 -124 -29 -477 -13
-600 40 -299 137 -588 283 -835 53 -90 180 -264 232 -319 15 -15 45 -48 68
-72 94 -102 235 -219 382 -318 61 -41 267 -150 347 -183 50 -21 241 -85 275
-92 126 -27 226 -46 280 -53 82 -10 435 -11 518 0 486 60 955 295 1283 642 84
89 101 109 158 185 206 271 334 551 401 880 11 53 22 123 26 156 3 32 7 75 9
94 6 45 6 306 0 345 -2 17 -6 55 -9 85 -3 30 -10 78 -16 105 -5 28 -12 61 -14
75 -57 327 -255 716 -507 994 -337 373 -791 613 -1304 692 -44 6 -470 16 -476
10z"/>
</g>
</svg>
