<svg width="8128px" height="862px" viewBox="0 0 8128 862" version="1.1" xmlns="http://www.w3.org/2000/svg" xmlns:xlink="http://www.w3.org/1999/xlink">
    <g id="Page-1" stroke="none" stroke-width="1" fill="none" fill-rule="evenodd">
        <g id="hindustantimes" transform="translate(0.000000, -1.000000)" fill-rule="nonzero">
            <g id="layer1" transform="translate(1534.000000, 0.000000)" fill="#D2EAEF">
                <path d="M2089,852 C2055,838 2061,831 2096,843 C2113,849 2126,856 2126,858 C2126,864 2114,862 2089,852 Z" id="Shape"></path>
                <path d="M2976,848 C2990,840 3003,836 3005,838 C3011,844 3004,849 2976,856 L2951,863 L2976,848 Z" id="Shape"></path>
                <path d="M3646,664 L3651,467 L3654,656 C3655,760 3653,849 3649,853 C3644,858 3643,772 3646,664 Z" id="Shape"></path>
                <path d="M4063,855 C4060,850 4107,847 4167,847 C4227,847 4276,850 4276,855 C4276,859 4229,862 4172,862 C4114,862 4065,859 4063,855 Z" id="Shape"></path>
                <path d="M4316,855 C4316,850 4366,847 4426,847 C4487,847 4536,850 4536,855 C4536,859 4487,862 4426,862 C4366,862 4316,859 4316,855 Z" id="Shape"></path>
                <path d="M4733,855 C4730,850 4775,847 4832,847 C4889,847 4936,850 4936,855 C4936,859 4891,862 4837,862 C4782,862 4735,859 4733,855 Z" id="Shape"></path>
                <path d="M5133,855 C5130,850 5162,848 5204,850 C5339,854 5354,859 5244,860 C5185,861 5135,859 5133,855 Z" id="Shape"></path>
                <path d="M3784,830 C3771,817 3767,812 3776,818 C3784,824 3800,834 3811,840 C3822,846 3826,852 3819,852 C3812,852 3797,842 3784,830 Z" id="Shape"></path>
                <path d="M55,695 C50,681 47,665 49,659 C50,654 57,666 63,686 C76,728 70,735 55,695 Z" id="Shape"></path>
                <path d="M5605,695 L5581,667 L5611,692 C5628,706 5643,718 5645,720 C5647,721 5645,722 5639,722 C5634,722 5619,710 5605,695 Z" id="Shape"></path>
                <path d="M5749,699 C5761,686 5773,677 5775,679 C5781,683 5745,722 5735,722 C5730,722 5737,712 5749,699 Z" id="Shape"></path>
                <path d="M6196,707 C6163,688 6175,688 6217,707 C6236,715 6244,721 6236,721 C6228,721 6210,715 6196,707 Z" id="Shape"></path>
                <path d="M446,685 C459,667 471,652 473,652 C481,652 456,690 440,703 C429,712 431,705 446,685 Z" id="Shape"></path>
                <path d="M4001,702 L3961,695 L3998,693 C4018,693 4038,697 4041,702 C4044,708 4046,711 4044,711 C4042,710 4023,706 4001,702 Z" id="Shape"></path>
                <path d="M3714,547 C3712,473 3714,412 3719,412 C3723,412 3726,473 3726,547 C3726,621 3724,682 3722,682 C3719,682 3716,621 3714,547 Z" id="Shape"></path>
                <path d="M6148,657 C6142,643 6140,632 6145,632 C6153,632 6168,673 6162,679 C6161,681 6154,671 6148,657 Z" id="Shape"></path>
                <path d="M5776,651 C5776,646 5787,642 5801,642 C5815,642 5826,644 5826,646 C5826,648 5815,652 5801,654 C5787,657 5776,655 5776,651 Z" id="Shape"></path>
                <path d="M469,552 C469,516 471,502 473,520 C475,537 475,567 473,585 C471,602 469,588 469,552 Z" id="Shape"></path>
                <path d="M6004,562 C6006,540 6011,524 6015,526 C6024,532 6016,602 6007,602 C6003,602 6002,584 6004,562 Z" id="Shape"></path>
                <path d="M5577,471 C5576,463 5583,447 5592,436 C5607,417 5607,417 5598,437 C5593,448 5586,464 5583,472 C5578,485 5577,485 5577,471 Z" id="Shape"></path>
                <path d="M6207,437 C6206,415 6223,392 6240,392 C6245,392 6243,398 6234,405 C6225,411 6216,426 6213,437 C6208,457 6208,457 6207,437 Z" id="Shape"></path>
                <path d="M5967,403 C5958,387 5957,382 5966,387 C5972,391 5984,386 5992,376 C6006,358 6007,358 5998,377 C5993,388 5987,404 5984,412 C5980,423 5976,421 5967,403 Z" id="Shape"></path>
                <path d="M8,373 C2,356 -1,342 2,342 C9,342 27,394 22,399 C20,401 14,389 8,373 Z" id="Shape"></path>
                <path d="M5318,360 C5308,330 5308,329 5321,346 C5334,363 5342,392 5333,392 C5332,392 5325,377 5318,360 Z" id="Shape"></path>
                <path d="M6502,316 C6476,297 6458,282 6463,282 C6474,282 6556,339 6556,347 C6556,354 6558,355 6502,316 Z" id="Shape"></path>
                <path d="M4880,310 L4861,287 L4883,306 C4903,322 4908,323 4923,311 C4939,298 4940,299 4927,315 C4909,337 4903,337 4880,310 Z" id="Shape"></path>
                <path d="M468,307 C463,290 467,8 471,3 C481,-6 481,10 476,162 C473,247 469,313 468,307 Z" id="Shape"></path>
                <path d="M4063,260 C4065,255 4114,252 4172,252 C4229,252 4276,255 4276,260 C4276,264 4227,267 4167,267 C4107,267 4060,264 4063,260 Z" id="Shape"></path>
                <path d="M4316,260 C4316,255 4366,252 4426,252 C4487,252 4536,255 4536,260 C4536,264 4487,267 4426,267 C4366,267 4316,264 4316,260 Z" id="Shape"></path>
                <path d="M3719,197 C3719,159 3721,144 3723,165 C3725,185 3725,217 3723,235 C3721,252 3719,236 3719,197 Z" id="Shape"></path>
                <path d="M3811,102 C3822,97 3838,93 3846,93 C3855,93 3854,97 3841,102 C3830,107 3814,111 3806,111 C3797,111 3798,107 3811,102 Z" id="Shape"></path>
            </g>
            <g id="layer2" transform="translate(5170.000000, 55.000000)" fill="#028DC5">
                <path d="M213,797 C167,786 133,762 113,724 C98,698 94,661 92,524 L88,355 L44,359 L0,362 L0,285 L0,207 L45,207 L90,207 L90,142 L90,78 L133,67 C156,61 202,47 235,37 L295,19 L298,113 L301,207 L350,207 L400,207 L400,281 L400,356 L353,359 L305,362 L305,495 C305,641 307,647 368,647 L400,647 L400,721 L400,794 L348,801 C284,808 255,807 213,797 Z" id="Shape"></path>
                <path d="M1970,797 C1868,783 1797,738 1758,663 C1728,607 1721,462 1744,385 C1778,266 1883,204 2050,203 C2139,202 2151,205 2214,236 C2269,263 2288,279 2313,318 L2343,367 L2360,329 C2397,246 2494,204 2651,203 C2751,203 2760,204 2823,235 C2863,255 2901,282 2916,303 C2931,322 2941,339 2939,341 C2937,343 2898,357 2852,371 L2769,397 L2747,371 C2695,311 2549,327 2573,390 C2580,407 2609,416 2745,441 C2913,472 2965,518 2957,630 C2953,694 2925,733 2860,767 C2811,792 2679,810 2601,802 C2489,791 2433,771 2385,723 L2341,679 L2297,722 C2228,787 2105,816 1970,797 Z M2116,656 C2125,649 2136,633 2141,620 C2151,594 2164,592 2285,606 C2352,614 2377,613 2433,597 L2501,579 L2516,608 C2536,648 2579,667 2648,667 C2713,667 2730,656 2730,615 C2730,580 2715,572 2609,552 C2480,528 2441,516 2405,491 L2371,468 L2368,505 L2365,542 L2151,545 L1937,547 L1943,583 C1950,622 1973,654 2005,668 C2031,679 2097,672 2116,656 Z M2160,417 C2160,396 2130,347 2111,337 C2100,332 2073,327 2050,327 C2016,327 2002,333 1974,361 C1915,420 1924,427 2050,427 C2120,427 2160,423 2160,417 Z" id="Shape"></path>
                <polygon id="Shape" points="430 502 430 206 533 209 635 212 635 502 635 792 533 795 430 798"></polygon>
                <path d="M685,785 C682,778 681,646 682,492 L685,212 L790,212 L895,212 L898,238 L901,264 L956,235 C1002,210 1023,205 1083,204 C1158,203 1202,218 1247,260 C1268,279 1271,279 1288,264 C1357,201 1517,183 1605,227 C1645,247 1660,263 1680,302 C1704,350 1705,360 1708,575 L1711,797 L1606,797 L1502,797 L1498,598 C1495,423 1493,397 1477,379 C1442,341 1362,346 1324,388 C1307,407 1304,431 1300,601 L1295,792 L1198,795 L1100,798 L1100,617 C1100,420 1091,375 1048,361 C1003,347 958,355 929,383 L900,410 L898,601 L895,792 L792,795 C715,797 688,794 685,785 Z" id="Shape"></path>
                <path d="M470,164 C417,137 408,68 452,27 C516,-32 630,13 630,98 C630,109 617,132 601,148 C568,180 515,187 470,164 Z" id="Shape"></path>
            </g>
            <g id="layer3" transform="translate(0.000000, 1.000000)" fill="#020202">
                <path d="M2429,851 C2371,841 2349,829 2316,791 C2276,743 2270,701 2270,474 L2270,261 L2375,261 L2480,261 L2480,445 C2480,547 2485,641 2490,658 C2517,733 2636,726 2674,647 C2687,620 2690,579 2690,437 L2690,261 L2795,261 L2900,261 L2900,327 L2900,394 L2923,360 C2994,255 3247,220 3393,295 C3420,309 3444,321 3446,321 C3448,321 3450,308 3450,291 C3450,262 3452,261 3495,261 L3540,261 L3540,196 C3540,160 3541,131 3543,131 C3546,131 3688,89 3733,75 C3748,70 3750,79 3750,165 L3750,261 L3800,261 L3850,261 L3850,336 L3850,411 L3800,411 L3750,411 L3750,544 C3750,688 3754,701 3802,701 C3828,701 3830,698 3830,664 C3830,563 3920,508 4128,481 C4232,467 4260,457 4260,432 C4260,382 4120,378 4047,427 L4006,454 L3964,430 C3941,418 3911,400 3899,390 L3877,373 L3904,347 C3965,285 4111,244 4225,256 C4318,266 4361,282 4406,326 C4459,377 4470,416 4470,561 C4470,680 4482,721 4516,721 C4527,721 4530,735 4530,781 C4530,835 4528,841 4508,845 C4407,865 4332,854 4301,815 L4282,791 L4234,816 C4112,878 3928,867 3870,793 L3850,768 L3850,808 L3850,848 L3782,855 C3743,859 3693,857 3665,851 C3555,826 3547,808 3540,586 L3535,416 L3498,413 C3477,411 3430,419 3393,430 L3325,450 L3299,425 C3237,366 3105,377 3124,439 C3131,460 3152,467 3320,500 C3378,511 3436,529 3450,539 C3515,588 3534,686 3491,755 C3460,804 3394,836 3293,851 C3139,874 2976,835 2919,763 L2900,738 L2900,795 L2900,851 L2795,851 L2690,851 L2690,822 L2690,792 L2633,821 C2569,853 2499,863 2429,851 Z M3274,705 C3293,687 3294,677 3280,651 C3268,629 3234,617 3115,596 C3006,576 2944,549 2919,507 L2900,476 L2900,574 C2900,627 2903,671 2908,671 C2912,671 2947,662 2985,652 C3024,641 3056,636 3058,641 C3066,662 3104,703 3124,711 C3161,726 3257,723 3274,705 Z M4210,706 C4245,688 4257,668 4261,622 L4265,587 L4206,590 C4109,594 4060,622 4060,672 C4060,688 4067,704 4078,710 C4104,725 4177,723 4210,706 Z" id="Shape"></path>
                <path d="M0,426 L0,0 L103,3 L205,6 L208,163 L211,321 L248,296 C324,246 439,240 529,283 C563,300 577,314 596,355 C619,404 620,415 620,629 L620,851 L515,851 L410,851 L410,657 C410,480 408,462 390,439 C354,393 270,398 230,448 C211,472 210,487 210,662 L210,851 L105,851 L0,851 L0,426 Z" id="Shape"></path>
                <polygon id="Shape" points="670 556 670 261 775 261 880 261 880 556 880 851 775 851 670 851"></polygon>
                <path d="M930,556 L930,261 L1035,261 L1140,261 L1140,291 C1140,308 1142,321 1145,321 C1148,321 1168,310 1189,296 C1276,238 1426,242 1495,303 C1551,351 1560,401 1560,643 L1560,851 L1456,851 L1351,851 L1348,652 C1345,477 1343,451 1327,433 C1291,393 1213,400 1169,447 C1146,472 1145,477 1142,662 L1138,851 L1034,851 L930,851 L930,556 Z" id="Shape"></path>
                <path d="M1737,841 C1686,825 1638,780 1611,722 C1588,672 1585,654 1585,555 C1585,452 1587,441 1615,386 C1660,299 1715,267 1829,263 C1904,260 1921,263 1962,284 L2009,308 L2012,157 L2015,6 L2118,3 L2220,0 L2220,426 L2220,851 L2119,851 C2027,851 2018,849 2013,831 C2007,807 2011,807 1969,828 C1931,848 1784,856 1737,841 Z M1981,692 C2009,663 2010,660 2010,556 C2010,452 2009,449 1981,420 C1958,397 1943,391 1910,391 C1859,391 1834,404 1816,440 C1780,510 1789,652 1832,698 C1849,716 1864,721 1903,721 C1943,721 1956,716 1981,692 Z" id="Shape"></path>
                <path d="M4550,556 L4550,261 L4655,261 L4760,261 L4760,291 C4760,308 4762,321 4765,321 C4768,321 4788,310 4809,296 C4892,241 5044,242 5110,298 C5172,349 5175,363 5178,619 L5182,851 L5076,851 L4970,851 L4970,664 C4970,453 4965,435 4908,413 C4874,400 4867,401 4826,421 C4766,450 4760,473 4760,684 L4760,851 L4655,851 L4550,851 L4550,556 Z" id="Shape"></path>
                <path d="M723,219 C712,214 694,194 685,177 C669,148 669,141 681,115 C689,99 712,78 733,67 C835,17 933,134 849,205 C816,233 764,239 723,219 Z" id="Shape"></path>
            </g>
        </g>
    </g>
</svg>