<!DOCTYPE svg PUBLIC "-//W3C//DTD SVG 20010904//EN" "http://www.w3.org/TR/2001/REC-SVG-20010904/DTD/svg10.dtd">
<svg version="1.0" xmlns="http://www.w3.org/2000/svg" width="720px" height="720px" viewBox="1000 1600 5000 4000" preserveAspectRatio="xMidYMid meet">
<g id="layer1" fill="#549092" stroke="none">
 <path d="M1695 5310 c-4 -6 -3 -16 3 -22 6 -6 12 -6 17 2 4 6 3 16 -3 22 -6 6 -12 6 -17 -2z"/>
 <path d="M1675 5240 c-4 -6 -3 -16 3 -22 6 -6 12 -6 17 2 4 6 3 16 -3 22 -6 6 -12 6 -17 -2z"/>
 <path d="M3535 4861 c-7 -12 12 -24 25 -16 11 7 4 25 -10 25 -5 0 -11 -4 -15 -9z"/>
 <path d="M3401 4846 c-7 -8 -8 -17 -3 -20 6 -3 15 1 21 8 7 8 8 17 3 20 -6 3 -15 -1 -21 -8z"/>
 <path d="M4055 4830 c-4 -6 -3 -16 3 -22 6 -6 12 -6 17 2 4 6 3 16 -3 22 -6 6 -12 6 -17 -2z"/>
 <path d="M4495 4691 c-7 -12 12 -24 25 -16 11 7 4 25 -10 25 -5 0 -11 -4 -15 -9z"/>
 <path d="M4996 4612 c-3 -6 1 -15 8 -21 8 -7 17 -8 20 -3 3 6 -1 15 -8 21 -8 7 -17 8 -20 3z"/>
 <path d="M1645 4550 c-4 -6 -3 -16 3 -22 6 -6 12 -6 17 2 4 6 3 16 -3 22 -6 6 -12 6 -17 -2z"/>
 <path d="M3065 4270 c-4 -6 -3 -16 3 -22 6 -6 12 -6 17 2 4 6 3 16 -3 22 -6 6 -12 6 -17 -2z"/>
 <path d="M1156 4022 c-3 -6 -2 -13 4 -17 5 -3 10 -3 10 1 0 3 7 1 15 -6 8 -6 19 -9 25 -5 14 9 1 28 -15 21 -7 -2 -17 0 -23 6 -6 6 -12 6 -16 0z"/>
 <path d="M3106 3921 c-4 -5 -2 -12 4 -16 6 -4 8 -10 5 -15 -3 -5 -1 -11 4 -14 5 -4 12 -2 15 3 4 5 2 12 -4 16 -6 4 -8 10 -5 15 3 5 1 11 -4 14 -5 4 -12 2 -15 -3z"/>
 <path d="M5415 3911 c-6 -11 13 -26 22 -17 3 3 12 1 20 -6 7 -6 16 -8 20 -5 3 4 12 2 20 -4 7 -6 13 -8 13 -4 0 4 6 2 14 -4 9 -8 16 -8 20 -2 4 5 2 12 -4 16 -5 3 -10 3 -10 -1 0 -3 -7 -1 -15 6 -8 7 -15 9 -15 5 0 -4 -7 -2 -15 5 -8 6 -19 9 -24 6 -5 -4 -12 -2 -16 4 -8 13 -22 13 -30 1z"/>
 <path d="M2255 3820 c-11 -17 5 -32 21 -19 7 6 11 15 8 20 -7 12 -21 11 -29 -1z"/>
 <path d="M1181 3796 c-7 -8 -8 -17 -3 -20 6 -3 15 1 21 8 7 8 8 17 3 20 -6 3 -15 -1 -21 -8z"/>
 <path d="M3186 3762 c-3 -6 1 -15 8 -21 8 -7 17 -8 20 -3 3 6 -1 15 -8 21 -8 7 -17 8 -20 3z"/>
 <path d="M4065 3750 c-4 -6 -3 -16 3 -22 6 -6 12 -6 17 2 4 6 3 16 -3 22 -6 6 -12 6 -17 -2z"/>
 <path d="M2191 3716 c-7 -8 -8 -17 -3 -20 6 -3 15 1 21 8 7 8 8 17 3 20 -6 3 -15 -1 -21 -8z"/>
 <path d="M3259 3709 c-6 -31 -6 -40 1 -44 4 -3 13 1 19 9 9 10 8 16 -4 26 -8 7 -15 11 -16 9z"/>
 <path d="M3941 3696 c-7 -8 -8 -17 -3 -20 6 -3 15 1 21 8 7 8 8 17 3 20 -6 3 -15 -1 -21 -8z"/>
 <path d="M1535 3611 c-7 -12 12 -24 25 -16 11 7 4 25 -10 25 -5 0 -11 -4 -15 -9z"/>
 <path d="M1696 3592 c-3 -5 5 -19 18 -31 13 -13 26 -18 30 -13 3 5 -5 19 -18 31 -13 13 -26 18 -30 13z"/>
 <path d="M4100 3351 c-6 -12 -6 -22 -1 -26 6 -3 15 3 21 14 6 12 6 22 1 26 -6 3 -15 -3 -21 -14z"/>
 <path d="M5006 3341 c-4 -5 -2 -12 4 -16 5 -3 10 -3 10 1 0 4 9 -1 20 -11 15 -13 24 -15 31 -8 8 8 5 14 -10 22 -12 7 -21 9 -21 5 0 -3 -6 -1 -14 5 -9 8 -16 8 -20 2z"/>
 <path d="M3555 3311 c-7 -12 12 -24 25 -16 11 7 4 25 -10 25 -5 0 -11 -4 -15 -9z"/>
 <path d="M2755 3280 c-4 -6 -3 -16 3 -22 6 -6 12 -6 17 2 4 6 3 16 -3 22 -6 6 -12 6 -17 -2z"/>
 <path d="M4075 3280 c-4 -6 -3 -16 3 -22 6 -6 12 -6 17 2 4 6 3 16 -3 22 -6 6 -12 6 -17 -2z"/>
 <path d="M2041 3146 c-7 -8 -8 -17 -3 -20 6 -3 15 1 21 8 7 8 8 17 3 20 -6 3 -15 -1 -21 -8z"/>
 <path d="M1180 3131 c-6 -12 -6 -22 -1 -26 6 -3 15 3 21 14 6 12 6 22 1 26 -6 3 -15 -3 -21 -14z"/>
 <path d="M4515 3141 c-7 -12 12 -24 25 -16 11 7 4 25 -10 25 -5 0 -11 -4 -15 -9z"/>
 <path d="M1971 3076 c-7 -8 -8 -17 -3 -20 6 -3 15 1 21 8 7 8 8 17 3 20 -6 3 -15 -1 -21 -8z"/>
 <path d="M5016 3072 c-3 -6 1 -15 8 -21 8 -7 17 -8 20 -3 3 6 -1 15 -8 21 -8 7 -17 8 -20 3z"/>
 <path d="M1887 3024 c-38 -20 -24 -38 14 -19 16 9 27 20 24 25 -7 12 -4 13 -38 -6z"/>
 <path d="M1795 2991 c-7 -12 12 -24 25 -16 11 7 4 25 -10 25 -5 0 -11 -4 -15 -9z"/>
 <path d="M1831 2866 c-7 -8 -8 -17 -3 -20 6 -3 15 1 21 8 7 8 8 17 3 20 -6 3 -15 -1 -21 -8z"/>
 <path d="M1785 2850 c-4 -6 -3 -16 3 -22 6 -6 12 -6 17 2 4 6 3 16 -3 22 -6 6 -12 6 -17 -2z"/>
 <path d="M1266 2612 c-3 -6 1 -15 8 -21 8 -7 17 -8 20 -3 3 6 -1 15 -8 21 -8 7 -17 8 -20 3z"/>
 <path d="M2137 2554 c-4 -4 -3 -12 1 -18 4 -6 7 -14 8 -18 1 -5 3 -10 4 -13 1 -3 3 -9 4 -15 0 -5 4 -10 9 -10 4 0 10 0 13 0 4 0 1 7 -6 15 -7 8 -9 15 -5 15 4 0 1 7 -6 17 -8 9 -12 18 -11 20 6 8 -4 13 -11 7z"/>
 <path d="M1445 2450 c-3 -5 8 -16 24 -25 18 -9 32 -11 36 -5 3 5 -8 16 -24 25 -18 9 -32 11 -36 5z"/>
 <path d="M1535 2410 c-6 -10 44 -34 53 -25 3 2 11 0 18 -6 8 -7 14 -7 19 1 3 5 4 11 1 11 -14 3 -23 6 -49 17 -34 14 -34 14 -42 2z"/>
 <path d="M3126 2381 c-10 -16 13 -66 25 -54 6 6 6 19 0 36 -11 29 -16 32 -25 18z"/>
 <path d="M5515 2340 c-9 -14 45 -34 58 -21 7 7 1 14 -17 21 -33 12 -33 12 -41 0z"/>
 <path d="M2256 2312 c-3 -6 1 -15 8 -21 8 -7 17 -8 20 -3 3 6 -1 15 -8 21 -8 7 -17 8 -20 3z"/>
 <path d="M5626 2292 c-3 -6 1 -15 8 -21 8 -7 17 -8 20 -3 3 6 -1 15 -8 21 -8 7 -17 8 -20 3z"/>
 <path d="M3206 2212 c-3 -6 1 -15 8 -21 8 -7 17 -8 20 -3 3 6 -1 15 -8 21 -8 7 -17 8 -20 3z"/>
 <path d="M2847 2194 c-38 -20 -24 -38 14 -19 16 9 27 20 24 25 -7 12 -4 13 -38 -6z"/>
 <path d="M4085 2200 c-4 -6 -3 -16 3 -22 6 -6 12 -6 17 2 4 6 3 16 -3 22 -6 6 -12 6 -17 -2z"/>
 <path d="M2475 2181 c-7 -12 12 -24 25 -16 11 7 4 25 -10 25 -5 0 -11 -4 -15 -9z"/>
 <path d="M3365 2101 c-3 -6 3 -15 14 -21 12 -6 22 -6 26 -1 3 6 -3 15 -14 21 -12 6 -22 6 -26 1z"/>
 <path d="M3475 2061 c-7 -12 12 -24 24 -16 5 3 12 1 16 -5 4 -6 11 -8 16 -4 5 3 7 10 3 15 -3 5 -9 7 -14 4 -5 -3 -11 -1 -15 5 -8 13 -22 13 -30 1z"/>
 <path d="M4206 2002 c-3 -6 1 -15 8 -21 8 -7 17 -8 20 -3 3 6 -1 15 -8 21 -8 7 -17 8 -20 3z"/>
 <path d="M4891 1946 c-13 -13 -18 -26 -13 -30 5 -3 19 5 31 18 13 13 18 26 13 30 -5 3 -19 -5 -31 -18z"/>
 <path d="M4835 1906 c-11 -8 -14 -16 -8 -19 6 -4 18 0 28 7 11 8 14 16 8 19 -6 4 -18 0 -28 -7z"/>
 <path d="M4435 1891 c-7 -12 12 -24 24 -16 5 3 12 1 16 -5 4 -6 11 -8 16 -4 5 3 7 10 3 15 -3 5 -9 7 -14 4 -5 -3 -11 -1 -15 5 -8 13 -22 13 -30 1z"/>
 <path d="M5195 1731 c-7 -12 12 -24 25 -16 11 7 4 25 -10 25 -5 0 -11 -4 -15 -9z"/>
 <path d="M5756 1711 c-4 -6 -13 -8 -20 -5 -17 7 -30 -12 -16 -21 6 -4 16 -2 23 3 7 6 15 11 20 11 8 1 11 11 4 17 -3 3 -8 1 -11 -5z"/>
 </g>
<g id="layer2" fill="#788678" stroke="none">
 <path d="M1751 5447 c-6 -8 -8 -17 -5 -20 10 -9 45 13 39 24 -9 13 -21 11 -34 -4z"/>
 <path d="M2124 5326 c-8 -21 3 -49 16 -41 5 3 10 15 10 25 0 25 -18 36 -26 16z"/>
 <path d="M1275 5320 c-4 -6 -3 -16 3 -22 6 -6 12 -6 17 2 4 6 3 16 -3 22 -6 6 -12 6 -17 -2z"/>
 <path d="M2724 5196 c-4 -10 -2 -22 4 -28 8 -8 13 -7 18 6 4 10 2 22 -4 28 -8 8 -13 7 -18 -6z"/>
 <path d="M2115 5127 c-9 -22 -2 -62 10 -60 6 1 11 14 13 29 4 32 -14 56 -23 31z"/>
 <path d="M3161 5126 c-7 -8 -8 -17 -3 -20 6 -3 15 1 21 8 7 8 8 17 3 20 -6 3 -15 -1 -21 -8z"/>
 <path d="M2715 4948 c-9 -24 -1 -103 10 -103 14 0 19 95 6 108 -7 7 -12 5 -16 -5z"/>
 <path d="M1215 4900 c-4 -6 -3 -16 3 -22 6 -6 12 -6 17 2 4 6 3 16 -3 22 -6 6 -12 6 -17 -2z"/>
 <path d="M1205 4820 c-4 -6 -3 -16 3 -22 6 -6 12 -6 17 2 4 6 3 16 -3 22 -6 6 -12 6 -17 -2z"/>
 <path d="M2105 4798 c-10 -24 -1 -123 10 -121 14 4 19 113 6 126 -7 7 -12 5 -16 -5z"/>
 <path d="M4045 4770 c-4 -6 -3 -16 3 -22 6 -6 12 -6 17 2 4 6 3 16 -3 22 -6 6 -12 6 -17 -2z"/>
 <path d="M1195 4740 c-4 -6 -3 -16 3 -22 6 -6 12 -6 17 2 4 6 3 16 -3 22 -6 6 -12 6 -17 -2z"/>
 <path d="M3707 4733 c-4 -6 0 -18 7 -28 8 -11 16 -14 19 -8 4 6 0 18 -7 28 -8 11 -16 14 -19 8z"/>
 <path d="M1745 4687 c-9 -22 -2 -62 10 -60 6 1 11 14 13 29 4 32 -14 56 -23 31z"/>
 <path d="M1185 4650 c-4 -6 -3 -16 3 -22 6 -6 12 -6 17 2 4 6 3 16 -3 22 -6 6 -12 6 -17 -2z"/>
 <path d="M3725 4637 c-9 -22 -2 -62 10 -60 6 1 11 14 13 29 4 32 -14 56 -23 31z"/>
 <path d="M4998 4605 c-8 -9 7 -80 17 -80 16 0 18 60 2 73 -8 7 -16 10 -19 7z"/>
 <path d="M1175 4550 c-4 -6 -3 -16 3 -22 6 -6 12 -6 17 2 4 6 3 16 -3 22 -6 6 -12 6 -17 -2z"/>
 <path d="M1606 4491 c-4 -5 -2 -12 4 -16 6 -4 8 -10 5 -15 -3 -5 -1 -11 4 -14 5 -4 12 -2 15 3 4 5 2 12 -4 16 -6 4 -8 10 -5 15 3 5 1 11 -4 14 -5 4 -12 2 -15 -3z"/>
 <path d="M1164 4436 c-4 -10 -2 -22 4 -28 8 -8 13 -7 18 6 4 10 2 22 -4 28 -8 8 -13 7 -18 -6z"/>
 <path d="M4685 4387 c-9 -22 -2 -62 10 -60 6 1 11 14 13 29 4 32 -14 56 -23 31z"/>
 <path d="M1755 4368 c-9 -24 -1 -103 10 -103 14 0 19 95 6 108 -7 7 -12 5 -16 -5z"/>
 <path d="M1154 4296 c-8 -21 3 -49 16 -41 5 3 10 15 10 25 0 25 -18 36 -26 16z"/>
 <path d="M2684 4207 c-7 -20 -2 -47 11 -50 14 -3 19 43 6 56 -7 7 -12 6 -17 -6z"/>
 <path d="M3725 4170 c-4 -6 -3 -16 3 -22 6 -6 12 -6 17 2 4 6 3 16 -3 22 -6 6 -12 6 -17 -2z"/>
 <path d="M1145 4088 c-9 -22 -2 -68 10 -71 14 -3 19 63 6 76 -7 7 -12 5 -16 -5z"/>
 <path d="M3075 4090 c-4 -6 -3 -16 3 -22 6 -6 12 -6 17 2 4 6 3 16 -3 22 -6 6 -12 6 -17 -2z"/>
 <path d="M4685 4078 c-9 -22 -2 -68 10 -71 14 -3 19 63 6 76 -7 7 -12 5 -16 -5z"/>
 <path d="M1764 4047 c-7 -20 -2 -47 11 -50 14 -3 19 43 6 56 -7 7 -12 6 -17 -6z"/>
 <path d="M1345 3980 c-4 -6 -3 -16 3 -22 6 -6 12 -6 17 2 4 6 3 16 -3 22 -6 6 -12 6 -17 -2z"/>
 <path d="M4674 3916 c-8 -21 3 -49 16 -41 5 3 10 15 10 25 0 25 -18 36 -26 16z"/>
 <path d="M2025 3860 c-11 -17 5 -32 21 -19 7 6 11 15 8 20 -7 12 -21 11 -29 -1z"/>
 <path d="M5656 3781 c-4 -5 -2 -12 4 -16 6 -4 8 -10 5 -15 -3 -5 -1 -11 4 -14 5 -4 12 -2 15 3 4 5 2 12 -4 16 -6 4 -8 10 -5 15 3 5 1 11 -4 14 -5 4 -12 2 -15 -3z"/>
 <path d="M5003 3724 c-12 -24 -2 -139 12 -139 6 0 11 31 13 69 3 71 -9 103 -25 70z"/>
 <path d="M5665 3700 c-4 -6 -3 -16 3 -22 6 -6 12 -6 17 2 4 6 3 16 -3 22 -6 6 -12 6 -17 -2z"/>
 <path d="M1585 3620 c-8 -12 20 -24 35 -15 6 3 8 11 5 16 -8 12 -32 12 -40 -1z"/>
 <path d="M4871 3496 c-7 -8 -8 -17 -3 -20 6 -3 15 1 21 8 7 8 8 17 3 20 -6 3 -15 -1 -21 -8z"/>
 <path d="M3115 3471 c-7 -12 12 -24 25 -16 11 7 4 25 -10 25 -5 0 -11 -4 -15 -9z"/>
 <path d="M4809 3452 c-29 -24 -11 -36 20 -13 14 11 19 21 13 25 -5 3 -20 -2 -33 -12z"/>
 <path d="M2125 3261 c-14 -13 -3 -377 10 -374 12 4 19 363 7 375 -4 4 -12 4 -17 -1z"/>
 <path d="M4065 3220 c-4 -6 -3 -16 3 -22 6 -6 12 -6 17 2 4 6 3 16 -3 22 -6 6 -12 6 -17 -2z"/>
 <path d="M2765 3197 c-9 -22 -2 -62 10 -60 6 1 11 14 13 29 4 32 -14 56 -23 31z"/>
 <path d="M3727 3183 c-4 -6 0 -18 7 -28 8 -11 16 -14 19 -8 4 6 0 18 -7 28 -8 11 -16 14 -19 8z"/>
 <path d="M4445 3150 c-8 -12 20 -24 35 -15 6 3 8 11 5 16 -8 12 -32 12 -40 -1z"/>
 <path d="M3745 3077 c-9 -22 -2 -62 10 -60 6 1 11 14 13 29 4 32 -14 56 -23 31z"/>
 <path d="M2935 3071 c-7 -12 12 -24 25 -16 11 7 4 25 -10 25 -5 0 -11 -4 -15 -9z"/>
 <path d="M2995 3061 c-7 -12 12 -24 25 -16 11 7 4 25 -10 25 -5 0 -11 -4 -15 -9z"/>
 <path d="M5017 3063 c-8 -13 7 -84 18 -86 17 -3 18 68 1 82 -8 7 -16 8 -19 4z"/>
 <path d="M1145 3000 c-4 -6 -3 -16 3 -22 6 -6 12 -6 17 2 4 6 3 16 -3 22 -6 6 -12 6 -17 -2z"/>
 <path d="M1745 2981 c-7 -12 12 -24 25 -16 11 7 4 25 -10 25 -5 0 -11 -4 -15 -9z"/>
 <path d="M3087 2963 c-3 -5 -7 -38 -8 -73 -2 -51 0 -65 12 -65 10 0 15 16 17 64 3 58 -8 96 -21 74z"/>
 <path d="M1145 2900 c-4 -6 -3 -16 3 -22 6 -6 12 -6 17 2 4 6 3 16 -3 22 -6 6 -12 6 -17 -2z"/>
 <path d="M4705 2837 c-9 -22 -2 -62 10 -60 6 1 11 14 13 29 4 32 -14 56 -23 31z"/>
 <path d="M2745 2790 c-4 -6 -3 -16 3 -22 6 -6 12 -6 17 2 4 6 3 16 -3 22 -6 6 -12 6 -17 -2z"/>
 <path d="M2735 2660 c-4 -6 -3 -16 3 -22 6 -6 12 -6 17 2 4 6 3 16 -3 22 -6 6 -12 6 -17 -2z"/>
 <path d="M3745 2620 c-4 -6 -3 -16 3 -22 6 -6 12 -6 17 2 4 6 3 16 -3 22 -6 6 -12 6 -17 -2z"/>
 <path d="M4705 2538 c-9 -23 -2 -83 10 -83 14 0 19 75 6 88 -7 7 -12 5 -16 -5z"/>
 <path d="M3735 2490 c-4 -6 -3 -16 3 -22 6 -6 12 -6 17 2 4 6 3 16 -3 22 -6 6 -12 6 -17 -2z"/>
 <path d="M4694 2366 c-8 -21 3 -49 16 -41 5 3 10 15 10 25 0 25 -18 36 -26 16z"/>
 <path d="M2986 2291 c-15 -16 -23 -31 -18 -35 5 -3 21 8 36 23 15 16 23 31 18 35 -5 3 -21 -8 -36 -23z"/>
 <path d="M2276 2292 c-3 -6 1 -15 8 -21 8 -7 17 -8 20 -3 3 6 -1 15 -8 21 -8 7 -17 8 -20 3z"/>
 <path d="M5676 2231 c-4 -5 -2 -12 4 -16 6 -4 8 -10 5 -15 -3 -5 -1 -11 4 -14 5 -4 12 -2 15 3 4 5 2 12 -4 16 -6 4 -8 10 -5 15 3 5 1 11 -4 14 -5 4 -12 2 -15 -3z"/>
 <path d="M2385 2221 c-3 -6 3 -15 14 -21 12 -6 22 -6 26 -1 3 6 -3 15 -14 21 -12 6 -22 6 -26 1z"/>
 <path d="M3226 2192 c-3 -6 1 -15 8 -21 8 -7 17 -8 20 -3 3 6 -1 15 -8 21 -8 7 -17 8 -20 3z"/>
 <path d="M5022 2174 c-11 -23 -1 -124 13 -127 6 -1 11 26 13 62 3 67 -9 97 -26 65z"/>
 <path d="M2575 2161 c-7 -12 12 -24 25 -16 11 7 4 25 -10 25 -5 0 -11 -4 -15 -9z"/>
 <path d="M5685 2160 c-4 -6 -3 -16 3 -22 6 -6 12 -6 17 2 4 6 3 16 -3 22 -6 6 -12 6 -17 -2z"/>
 <path d="M3325 2121 c-3 -6 3 -15 14 -21 12 -6 22 -6 26 -1 3 6 -3 15 -14 21 -12 6 -22 6 -26 1z"/>
 <path d="M3575 2041 c-7 -12 12 -24 25 -16 11 7 4 25 -10 25 -5 0 -11 -4 -15 -9z"/>
 <path d="M4535 1871 c-7 -12 12 -24 25 -16 11 7 4 25 -10 25 -5 0 -11 -4 -15 -9z"/>
 <path d="M5405 1691 c-7 -12 12 -24 25 -16 11 7 4 25 -10 25 -5 0 -11 -4 -15 -9z"/>
 <path d="M5665 1691 c-7 -12 12 -24 25 -16 11 7 4 25 -10 25 -5 0 -11 -4 -15 -9z"/>
 </g>
<g id="layer3" fill="#b27850" stroke="none">
 <path d="M1305 5510 c-4 -6 -3 -16 3 -22 6 -6 12 -6 17 2 4 6 3 16 -3 22 -6 6 -12 6 -17 -2z"/>
 <path d="M1295 5440 c-4 -6 -3 -16 3 -22 6 -6 12 -6 17 2 4 6 3 16 -3 22 -6 6 -12 6 -17 -2z"/>
 <path d="M1285 5370 c-4 -6 -3 -16 3 -22 6 -6 12 -6 17 2 4 6 3 16 -3 22 -6 6 -12 6 -17 -2z"/>
 <path d="M2124 5287 c-7 -20 -2 -47 11 -50 14 -3 19 43 6 56 -7 7 -12 6 -17 -6z"/>
 <path d="M2740 5274 c-9 -10 -10 -18 -3 -25 8 -8 14 -5 22 9 13 25 -2 38 -19 16z"/>
 <path d="M1265 5240 c-4 -6 -3 -16 3 -22 6 -6 12 -6 17 2 4 6 3 16 -3 22 -6 6 -12 6 -17 -2z"/>
 <path d="M1255 5170 c-4 -6 -3 -16 3 -22 6 -6 12 -6 17 2 4 6 3 16 -3 22 -6 6 -12 6 -17 -2z"/>
 <path d="M2724 5167 c-7 -20 -2 -47 11 -50 14 -3 19 43 6 56 -7 7 -12 6 -17 -6z"/>
 <path d="M1245 5100 c-4 -6 -3 -16 3 -22 6 -6 12 -6 17 2 4 6 3 16 -3 22 -6 6 -12 6 -17 -2z"/>
 <path d="M2115 5068 c-9 -23 -2 -83 10 -83 14 0 19 75 6 88 -7 7 -12 5 -16 -5z"/>
 <path d="M1235 5030 c-4 -6 -3 -16 3 -22 6 -6 12 -6 17 2 4 6 3 16 -3 22 -6 6 -12 6 -17 -2z"/>
 <path d="M3105 5020 c-4 -6 -3 -16 3 -22 6 -6 12 -6 17 2 4 6 3 16 -3 22 -6 6 -12 6 -17 -2z"/>
 <path d="M3095 4970 c-4 -6 -3 -16 3 -22 6 -6 12 -6 17 2 4 6 3 16 -3 22 -6 6 -12 6 -17 -2z"/>
 <path d="M1225 4960 c-4 -6 -3 -16 3 -22 6 -6 12 -6 17 2 4 6 3 16 -3 22 -6 6 -12 6 -17 -2z"/>
 <path d="M1215 4880 c-4 -6 -3 -16 3 -22 6 -6 12 -6 17 2 4 6 3 16 -3 22 -6 6 -12 6 -17 -2z"/>
 <path d="M3465 4870 c-8 -13 20 -24 41 -16 20 8 9 26 -16 26 -10 0 -22 -5 -25 -10z"/>
 <path d="M5014 4856 c-8 -21 3 -49 16 -41 5 3 10 15 10 25 0 25 -18 36 -26 16z"/>
 <path d="M2715 4847 c-9 -22 -2 -62 10 -60 6 1 11 14 13 29 4 32 -14 56 -23 31z"/>
 <path d="M1205 4800 c-4 -6 -3 -16 3 -22 6 -6 12 -6 17 2 4 6 3 16 -3 22 -6 6 -12 6 -17 -2z"/>
 <path d="M1744 4737 c-7 -20 -2 -47 11 -50 14 -3 19 43 6 56 -7 7 -12 6 -17 -6z"/>
 <path d="M1195 4720 c-4 -6 -3 -16 3 -22 6 -6 12 -6 17 2 4 6 3 16 -3 22 -6 6 -12 6 -17 -2z"/>
 <path d="M4415 4701 c-7 -13 17 -24 40 -19 9 1 16 8 16 13 0 14 -48 19 -56 6z"/>
 <path d="M2105 4678 c-9 -24 -1 -128 10 -131 13 -3 19 123 6 136 -7 7 -12 5 -16 -5z"/>
 <path d="M3724 4676 c-8 -21 3 -49 16 -41 5 3 10 15 10 25 0 25 -18 36 -26 16z"/>
 <path d="M1184 4626 c-4 -10 -2 -22 4 -28 8 -8 13 -7 18 6 4 10 2 22 -4 28 -8 8 -13 7 -18 -6z"/>
 <path d="M1174 4526 c-4 -10 -2 -22 4 -28 8 -8 13 -7 18 6 4 10 2 22 -4 28 -8 8 -13 7 -18 -6z"/>
 <path d="M1635 4520 c-4 -6 -3 -16 3 -22 6 -6 12 -6 17 2 4 6 3 16 -3 22 -6 6 -12 6 -17 -2z"/>
 <path d="M1755 4468 c-9 -24 -1 -103 10 -103 14 0 19 95 6 108 -7 7 -12 5 -16 -5z"/>
 <path d="M3735 4448 c-9 -24 -1 -143 10 -143 13 0 19 135 6 148 -7 7 -12 5 -16 -5z"/>
 <path d="M4684 4437 c-7 -20 -2 -47 11 -50 14 -3 19 43 6 56 -7 7 -12 6 -17 -6z"/>
 <path d="M1164 4406 c-4 -10 -2 -22 4 -28 8 -8 13 -7 18 6 4 10 2 22 -4 28 -8 8 -13 7 -18 -6z"/>
 <path d="M1154 4256 c-8 -21 3 -49 16 -41 5 3 10 15 10 25 0 25 -18 36 -26 16z"/>
 <path d="M2684 4246 c-8 -21 3 -49 16 -41 5 3 10 15 10 25 0 25 -18 36 -26 16z"/>
 <path d="M3724 4146 c-4 -10 -2 -22 4 -28 8 -8 13 -7 18 6 4 10 2 22 -4 28 -8 8 -13 7 -18 -6z"/>
 <path d="M3074 4137 c-7 -20 -2 -47 11 -50 14 -3 19 43 6 56 -7 7 -12 6 -17 -6z"/>
 <path d="M1765 4107 c-9 -22 -2 -62 10 -60 6 1 11 14 13 29 4 32 -14 56 -23 31z"/>
 <path d="M1465 4040 c-4 -6 -3 -16 3 -22 6 -6 12 -6 17 2 4 6 3 16 -3 22 -6 6 -12 6 -17 -2z"/>
 <path d="M4685 4010 c-4 -6 -3 -16 3 -22 6 -6 12 -6 17 2 4 6 3 16 -3 22 -6 6 -12 6 -17 -2z"/>
 <path d="M1285 3991 c-7 -12 12 -24 25 -16 11 7 4 25 -10 25 -5 0 -11 -4 -15 -9z"/>
 <path d="M2074 3926 c-8 -21 3 -49 16 -41 5 3 10 15 10 25 0 25 -18 36 -26 16z"/>
 <path d="M3106 3931 c-4 -5 -2 -12 4 -16 6 -4 8 -10 5 -15 -3 -5 -1 -11 4 -14 5 -4 12 -2 15 3 4 5 2 12 -4 16 -6 4 -8 10 -5 15 3 5 1 11 -4 14 -5 4 -12 2 -15 -3z"/>
 <path d="M5506 3891 c-4 -5 -2 -12 4 -16 5 -3 10 -3 10 1 0 3 6 1 14 -5 10 -8 16 -9 21 -1 3 5 4 11 1 11 -3 1 -9 2 -13 3 -5 1 -13 5 -20 9 -6 4 -14 3 -17 -2z"/>
 <path d="M4675 3880 c-4 -6 -3 -16 3 -22 6 -6 12 -6 17 2 4 6 3 16 -3 22 -6 6 -12 6 -17 -2z"/>
 <path d="M2045 3860 c-8 -12 20 -24 39 -17 7 3 18 1 24 -5 13 -13 46 -2 37 13 -4 6 -16 9 -26 6 -10 -3 -22 -1 -25 4 -7 12 -41 11 -49 -1z"/>
 <path d="M2175 3841 c-7 -12 12 -24 25 -16 11 7 4 25 -10 25 -5 0 -11 -4 -15 -9z"/>
 <path d="M3166 3792 c-3 -6 1 -15 8 -21 8 -7 17 -8 20 -3 3 6 -1 15 -8 21 -8 7 -17 8 -20 3z"/>
 <path d="M1124 3656 c-4 -10 -2 -22 4 -28 8 -8 13 -7 18 6 4 10 2 22 -4 28 -8 8 -13 7 -18 -6z"/>
 <path d="M3872 3638 c-23 -16 -40 -33 -37 -38 6 -10 66 22 85 45 21 26 -5 22 -48 -7z"/>
 <path d="M1615 3621 c-7 -12 12 -24 25 -16 11 7 4 25 -10 25 -5 0 -11 -4 -15 -9z"/>
 <path d="M4146 3592 c-3 -5 3 -17 13 -26 11 -10 22 -13 25 -8 3 5 -3 17 -13 26 -11 10 -22 13 -25 8z"/>
 <path d="M5005 3588 c-9 -24 -1 -128 10 -131 13 -3 19 123 6 136 -7 7 -12 5 -16 -5z"/>
 <path d="M1225 3541 c-7 -12 12 -24 25 -16 11 7 4 25 -10 25 -5 0 -11 -4 -15 -9z"/>
 <path d="M1295 3531 c-7 -12 12 -24 25 -16 11 7 4 25 -10 25 -5 0 -11 -4 -15 -9z"/>
 <path d="M4216 3532 c-3 -6 1 -15 8 -21 8 -7 17 -8 20 -3 3 6 -1 15 -8 21 -8 7 -17 8 -20 3z"/>
 <path d="M1355 3521 c-7 -12 12 -24 25 -16 11 7 4 25 -10 25 -5 0 -11 -4 -15 -9z"/>
 <path d="M1425 3511 c-7 -12 12 -24 25 -16 11 7 4 25 -10 25 -5 0 -11 -4 -15 -9z"/>
 <path d="M4120 3381 c-6 -12 -6 -22 -1 -26 6 -3 15 3 21 14 6 12 6 22 1 26 -6 3 -15 -3 -21 -14z"/>
 <path d="M3475 3320 c-3 -5 0 -13 9 -16 21 -8 61 -1 61 11 0 14 -62 19 -70 5z"/>
 <path d="M5034 3306 c-8 -21 3 -49 16 -41 5 3 10 15 10 25 0 25 -18 36 -26 16z"/>
 <path d="M5777 3284 c-38 -20 -24 -38 14 -19 16 9 27 20 24 25 -7 12 -4 13 -38 -6z"/>
 <path d="M3657 3272 c-4 -5 9 -23 27 -41 19 -18 36 -29 39 -23 4 5 -9 23 -27 41 -19 18 -36 29 -39 23z"/>
 <path d="M5695 3251 c-7 -12 12 -24 25 -16 11 7 4 25 -10 25 -5 0 -11 -4 -15 -9z"/>
 <path d="M5635 3241 c-7 -12 12 -24 25 -16 11 7 4 25 -10 25 -5 0 -11 -4 -15 -9z"/>
 <path d="M2764 3226 c-4 -10 -2 -22 4 -28 8 -8 13 -7 18 6 4 10 2 22 -4 28 -8 8 -13 7 -18 -6z"/>
 <path d="M4425 3151 c-7 -12 12 -24 25 -16 11 7 4 25 -10 25 -5 0 -11 -4 -15 -9z"/>
 <path d="M4475 3151 c-7 -12 12 -24 25 -16 11 7 4 25 -10 25 -5 0 -11 -4 -15 -9z"/>
 <path d="M2016 3121 c-10 -11 -13 -22 -8 -25 5 -3 17 3 26 13 10 11 13 22 8 25 -5 3 -17 -3 -26 -13z"/>
 <path d="M3089 3133 c-1 -4 -1 -12 0 -17 1 -4 -3 -14 -9 -21 -12 -14 -4 -22 20 -21 19 1 21 57 3 64 -7 2 -14 0 -14 -5z"/>
 <path d="M3744 3127 c-7 -20 -2 -47 11 -50 14 -3 19 43 6 56 -7 7 -12 6 -17 -6z"/>
 <path d="M2885 3081 c-7 -12 12 -24 25 -16 11 7 4 25 -10 25 -5 0 -11 -4 -15 -9z"/>
 <path d="M1155 3060 c-4 -6 -3 -16 3 -22 6 -6 12 -6 17 2 4 6 3 16 -3 22 -6 6 -12 6 -17 -2z"/>
 <path d="M3015 3060 c-3 -5 0 -13 9 -16 21 -8 61 -1 61 11 0 14 -62 19 -70 5z"/>
 <path d="M1145 2978 c-9 -23 -2 -83 10 -83 14 0 19 75 6 88 -7 7 -12 5 -16 -5z"/>
 <path d="M1625 2980 c-8 -13 20 -24 41 -16 20 8 9 26 -16 26 -10 0 -22 -5 -25 -10z"/>
 <path d="M1715 2980 c-8 -12 20 -24 35 -15 6 3 8 11 5 16 -8 12 -32 12 -40 -1z"/>
 <path d="M3755 2898 c-9 -24 -1 -128 10 -131 13 -3 19 123 6 136 -7 7 -12 5 -16 -5z"/>
 <path d="M4704 2887 c-7 -20 -2 -47 11 -50 14 -3 19 43 6 56 -7 7 -12 6 -17 -6z"/>
 <path d="M1155 2850 c-3 -5 -3 -16 1 -22 5 -7 9 -21 9 -31 1 -10 6 -22 12 -28 17 -17 23 5 9 32 -7 13 -11 30 -9 36 5 15 -14 26 -22 13z"/>
 <path d="M2745 2770 c-4 -6 -3 -16 3 -22 6 -6 12 -6 17 2 4 6 3 16 -3 22 -6 6 -12 6 -17 -2z"/>
 <path d="M3744 2596 c-4 -10 -2 -22 4 -28 8 -8 13 -7 18 6 4 10 2 22 -4 28 -8 8 -13 7 -18 -6z"/>
 <path d="M1366 2512 c-3 -6 1 -15 8 -21 8 -7 17 -8 20 -3 3 6 -1 15 -8 21 -8 7 -17 8 -20 3z"/>
 <path d="M4705 2460 c-4 -6 -3 -16 3 -22 6 -6 12 -6 17 2 4 6 3 16 -3 22 -6 6 -12 6 -17 -2z"/>
 <path d="M1975 2416 c-11 -8 -14 -16 -8 -19 6 -4 18 0 28 7 11 8 14 16 8 19 -6 4 -18 0 -28 -7z"/>
 <path d="M1615 2391 c-7 -12 12 -24 25 -16 11 7 4 25 -10 25 -5 0 -11 -4 -15 -9z"/>
 <path d="M1905 2391 c-7 -12 12 -24 25 -16 11 7 4 25 -10 25 -5 0 -11 -4 -15 -9z"/>
 <path d="M1675 2380 c-8 -12 20 -24 35 -15 6 3 8 11 5 16 -8 12 -32 12 -40 -1z"/>
 <path d="M1845 2381 c-7 -12 12 -24 25 -16 11 7 4 25 -10 25 -5 0 -11 -4 -15 -9z"/>
 <path d="M2216 2372 c-3 -5 2 -20 12 -33 24 -29 36 -11 13 20 -11 14 -21 19 -25 13z"/>
 <path d="M4695 2330 c-4 -6 -3 -16 3 -22 6 -6 12 -6 17 2 4 6 3 16 -3 22 -6 6 -12 6 -17 -2z"/>
 <path d="M2802 2179 c-13 -5 -20 -13 -17 -19 8 -13 18 -13 40 3 23 17 8 28 -23 16z"/>
 <path d="M2525 2171 c-7 -12 12 -24 25 -16 11 7 4 25 -10 25 -5 0 -11 -4 -15 -9z"/>
 <path d="M2595 2161 c-7 -12 12 -24 25 -16 11 7 4 25 -10 25 -5 0 -11 -4 -15 -9z"/>
 <path d="M2725 2161 c-7 -12 12 -24 25 -16 11 7 4 25 -10 25 -5 0 -11 -4 -15 -9z"/>
 <path d="M5681 2136 c-7 -8 -8 -17 -3 -20 6 -3 15 1 21 8 7 8 8 17 3 20 -6 3 -15 -1 -21 -8z"/>
 <path d="M3941 2126 c-7 -8 -8 -17 -3 -20 6 -3 15 1 21 8 7 8 8 17 3 20 -6 3 -15 -1 -21 -8z"/>
 <path d="M3525 2051 c-7 -12 12 -24 25 -16 11 7 4 25 -10 25 -5 0 -11 -4 -15 -9z"/>
 <path d="M3805 2051 c-7 -12 12 -24 25 -16 11 7 4 25 -10 25 -5 0 -11 -4 -15 -9z"/>
 <path d="M5025 2048 c-9 -24 -1 -128 10 -131 13 -3 19 123 6 136 -7 7 -12 5 -16 -5z"/>
 <path d="M3595 2041 c-7 -12 12 -24 25 -16 11 7 4 25 -10 25 -5 0 -11 -4 -15 -9z"/>
 <path d="M3745 2041 c-7 -12 12 -24 25 -16 11 7 4 25 -10 25 -5 0 -11 -4 -15 -9z"/>
 <path d="M4176 2032 c-3 -5 3 -17 13 -26 11 -10 22 -13 25 -8 3 5 -3 17 -13 26 -11 10 -22 13 -25 8z"/>
 <path d="M4485 1881 c-7 -12 12 -24 25 -16 11 7 4 25 -10 25 -5 0 -11 -4 -15 -9z"/>
 <path d="M4555 1871 c-7 -12 12 -24 25 -16 11 7 4 25 -10 25 -5 0 -11 -4 -15 -9z"/>
 <path d="M4695 1870 c-8 -12 20 -24 35 -15 6 3 8 11 5 16 -8 12 -32 12 -40 -1z"/>
 <path d="M5901 1806 c-18 -19 -29 -36 -23 -39 5 -4 23 9 41 27 18 19 29 36 23 39 -5 4 -23 -9 -41 -27z"/>
 <path d="M5805 1736 c-11 -8 -14 -16 -8 -19 6 -4 18 0 28 7 11 8 14 16 8 19 -6 4 -18 0 -28 -7z"/>
 <path d="M5285 1711 c-7 -12 12 -24 25 -16 11 7 4 25 -10 25 -5 0 -11 -4 -15 -9z"/>
 <path d="M5345 1701 c-7 -12 12 -24 25 -16 11 7 4 25 -10 25 -5 0 -11 -4 -15 -9z"/>
 <path d="M5425 1690 c-8 -12 20 -24 35 -15 6 3 8 11 5 16 -8 12 -32 12 -40 -1z"/>
 <path d="M5645 1691 c-7 -12 12 -24 25 -16 11 7 4 25 -10 25 -5 0 -11 -4 -15 -9z"/>
 </g>
<g id="layer4" fill="#3996a5" stroke="none">
 <path d="M2127 5373 c-7 -17 -7 -27 1 -35 9 -9 13 -7 19 8 4 10 17 19 28 19 32 0 24 28 -9 30 -21 0 -31 -5 -39 -22z"/>
 <path d="M1705 5350 c-4 -6 -3 -16 3 -22 6 -6 12 -6 17 2 4 6 3 16 -3 22 -6 6 -12 6 -17 -2z"/>
 <path d="M1275 5340 c-4 -6 -3 -16 3 -22 6 -6 12 -6 17 2 4 6 3 16 -3 22 -6 6 -12 6 -17 -2z"/>
 <path d="M2771 5286 c-9 -10 -9 -16 -1 -21 17 -10 37 12 24 25 -8 8 -15 6 -23 -4z"/>
 <path d="M2724 5226 c-4 -10 -2 -22 4 -28 8 -8 13 -7 18 6 4 10 2 22 -4 28 -8 8 -13 7 -18 -6z"/>
 <path d="M1656 5211 c-3 -5 1 -14 8 -20 16 -13 32 2 21 19 -8 12 -22 13 -29 1z"/>
 <path d="M2114 5187 c-7 -20 -2 -47 11 -50 14 -3 19 43 6 56 -7 7 -12 6 -17 -6z"/>
 <path d="M2715 5058 c-9 -24 -1 -113 10 -111 14 4 19 103 6 116 -7 7 -12 5 -16 -5z"/>
 <path d="M4116 4958 c-28 -37 -35 -55 -23 -58 13 -2 68 78 57 85 -5 3 -20 -9 -34 -27z"/>
 <path d="M1215 4920 c-4 -6 -3 -16 3 -22 6 -6 12 -6 17 2 4 6 3 16 -3 22 -6 6 -12 6 -17 -2z"/>
 <path d="M2105 4898 c-9 -24 -1 -103 10 -103 14 0 19 95 6 108 -7 7 -12 5 -16 -5z"/>
 <path d="M5015 4870 c-8 -12 20 -24 35 -15 6 3 8 11 5 16 -8 12 -32 12 -40 -1z"/>
 <path d="M3425 4861 c-7 -12 12 -24 25 -16 11 7 4 25 -10 25 -5 0 -11 -4 -15 -9z"/>
 <path d="M3565 4851 c-7 -12 12 -24 25 -16 11 7 4 25 -10 25 -5 0 -11 -4 -15 -9z"/>
 <path d="M3616 4832 c-3 -6 1 -15 8 -21 8 -7 17 -8 20 -3 3 6 -1 15 -8 21 -8 7 -17 8 -20 3z"/>
 <path d="M4036 4802 c-3 -6 1 -15 8 -21 8 -7 17 -8 20 -3 3 6 -1 15 -8 21 -8 7 -17 8 -20 3z"/>
 <path d="M1195 4760 c-4 -6 -3 -16 3 -22 6 -6 12 -6 17 2 4 6 3 16 -3 22 -6 6 -12 6 -17 -2z"/>
 <path d="M5006 4728 c-12 -35 -12 -119 -1 -128 19 -16 25 -1 25 66 0 57 -14 94 -24 62z"/>
 <path d="M1546 4721 c-4 -5 -2 -12 3 -16 6 -3 8 -12 5 -19 -3 -8 -1 -17 5 -20 6 -4 8 -13 5 -20 -3 -8 -1 -17 5 -20 6 -4 8 -13 5 -20 -3 -8 -1 -17 5 -20 6 -4 8 -13 5 -20 -3 -8 -1 -17 5 -20 14 -9 25 14 13 26 -6 6 -8 16 -6 23 3 7 1 16 -5 19 -6 4 -8 13 -5 20 3 8 1 17 -5 20 -6 4 -8 13 -5 20 3 8 0 17 -5 21 -6 3 -9 10 -6 15 3 5 1 11 -4 14 -5 4 -12 2 -15 -3z"/>
 <path d="M1185 4670 c-4 -6 -3 -16 3 -22 6 -6 12 -6 17 2 4 6 3 16 -3 22 -6 6 -12 6 -17 -2z"/>
 <path d="M4586 4652 c-3 -6 1 -15 8 -21 8 -7 17 -8 20 -3 3 6 -1 15 -8 21 -8 7 -17 8 -20 3z"/>
 <path d="M1745 4617 c-9 -22 -2 -62 10 -60 6 1 11 14 13 29 4 32 -14 56 -23 31z"/>
 <path d="M4626 4612 c-3 -6 1 -15 8 -21 8 -7 17 -8 20 -3 3 6 -1 15 -8 21 -8 7 -17 8 -20 3z"/>
 <path d="M1175 4580 c-4 -6 -3 -16 3 -22 6 -6 12 -6 17 2 4 6 3 16 -3 22 -6 6 -12 6 -17 -2z"/>
 <path d="M3724 4567 c-7 -20 -2 -47 11 -50 14 -3 19 43 6 56 -7 7 -12 6 -17 -6z"/>
 <path d="M4668 4555 c-9 -9 7 -60 18 -58 5 1 10 8 12 15 3 16 -21 52 -30 43z"/>
 <path d="M1164 4466 c-4 -10 -2 -22 4 -28 8 -8 13 -7 18 6 4 10 2 22 -4 28 -8 8 -13 7 -18 -6z"/>
 <path d="M2095 4400 c-4 -6 -3 -16 3 -22 6 -6 12 -6 17 2 4 6 3 16 -3 22 -6 6 -12 6 -17 -2z"/>
 <path d="M2595 4351 c-6 -11 13 -26 22 -17 3 3 12 1 19 -5 7 -6 18 -8 24 -4 14 9 1 28 -16 21 -7 -3 -16 -1 -19 4 -8 13 -22 13 -30 1z"/>
 <path d="M1154 4336 c-4 -10 -2 -22 4 -28 8 -8 13 -7 18 6 4 10 2 22 -4 28 -8 8 -13 7 -18 -6z"/>
 <path d="M2674 4326 c-8 -21 3 -49 16 -41 5 3 10 15 10 25 0 25 -18 36 -26 16z"/>
 <path d="M4685 4319 c-10 -26 -1 -234 10 -232 13 4 19 223 6 236 -7 7 -12 5 -16 -4z"/>
 <path d="M1755 4268 c-9 -23 -2 -83 10 -83 14 0 19 75 6 88 -7 7 -12 5 -16 -5z"/>
 <path d="M3064 4247 c-7 -20 -2 -47 11 -50 14 -3 19 43 6 56 -7 7 -12 6 -17 -6z"/>
 <path d="M3724 4227 c-7 -20 -2 -47 11 -50 14 -3 19 43 6 56 -7 7 -12 6 -17 -6z"/>
 <path d="M1145 4157 c-9 -22 -2 -62 10 -60 6 1 11 14 13 29 4 32 -14 56 -23 31z"/>
 <path d="M2685 4148 c-9 -24 -2 -93 10 -93 14 0 19 85 6 98 -7 7 -12 5 -16 -5z"/>
 <path d="M3714 4066 c-8 -21 3 -49 16 -41 5 3 10 15 10 25 0 25 -18 36 -26 16z"/>
 <path d="M3075 4060 c-4 -6 -3 -16 3 -22 6 -6 12 -6 17 2 4 6 3 16 -3 22 -6 6 -12 6 -17 -2z"/>
 <path d="M1215 4001 c-6 -11 13 -26 22 -17 3 3 12 1 19 -5 7 -6 18 -8 24 -4 14 9 1 28 -16 21 -7 -3 -16 -1 -19 4 -8 13 -22 13 -30 1z"/>
 <path d="M4674 3956 c-4 -10 -2 -22 4 -28 8 -8 13 -7 18 6 4 10 2 22 -4 28 -8 8 -13 7 -18 -6z"/>
 <path d="M2685 3948 c-9 -24 -1 -103 10 -103 14 0 19 95 6 108 -7 7 -12 5 -16 -5z"/>
 <path d="M2097 3933 c-5 -8 -10 -68 -8 -87 3 -24 31 21 31 50 0 31 -13 53 -23 37z"/>
 <path d="M4665 3850 c-4 -6 -3 -16 3 -22 6 -6 12 -6 17 2 4 6 3 16 -3 22 -6 6 -12 6 -17 -2z"/>
 <path d="M2205 3831 c-7 -12 12 -24 25 -16 11 7 4 25 -10 25 -5 0 -11 -4 -15 -9z"/>
 <path d="M5626 3822 c-3 -5 3 -17 13 -26 11 -10 22 -13 25 -8 3 5 -3 17 -13 26 -11 10 -22 13 -25 8z"/>
 <path d="M4046 3811 c-4 -5 -2 -12 3 -16 6 -3 8 -12 5 -19 -7 -17 12 -30 21 -16 4 6 2 17 -4 24 -6 7 -8 15 -5 18 3 3 1 9 -5 12 -5 4 -12 2 -15 -3z"/>
 <path d="M1150 3751 c-6 -12 -6 -22 -1 -26 6 -3 15 3 21 14 6 12 6 22 1 26 -6 3 -15 -3 -21 -14z"/>
 <path d="M2994 3747 c-7 -20 -2 -47 11 -50 14 -3 19 43 6 56 -7 7 -12 6 -17 -6z"/>
 <path d="M5664 3736 c-4 -10 -2 -22 4 -28 8 -8 13 -7 18 6 4 10 2 22 -4 28 -8 8 -13 7 -18 -6z"/>
 <path d="M3226 3722 c-3 -6 1 -15 8 -21 8 -7 17 -8 20 -3 3 6 -1 15 -8 21 -8 7 -17 8 -20 3z"/>
 <path d="M1125 3680 c-4 -6 -3 -16 3 -22 6 -6 12 -6 17 2 4 6 3 16 -3 22 -6 6 -12 6 -17 -2z"/>
 <path d="M3865 3626 c-11 -8 -14 -16 -8 -19 6 -4 18 0 28 7 11 8 14 16 8 19 -6 4 -18 0 -28 -7z"/>
 <path d="M1491 3576 c-7 -8 -8 -17 -3 -20 6 -3 15 1 21 8 7 8 8 17 3 20 -6 3 -15 -1 -21 -8z"/>
 <path d="M3171 3566 c-7 -8 -8 -17 -3 -20 6 -3 15 1 21 8 7 8 8 17 3 20 -6 3 -15 -1 -21 -8z"/>
 <path d="M1126 3561 c-4 -5 -2 -12 4 -16 5 -3 10 -3 10 1 0 3 6 1 14 -5 10 -8 16 -9 21 -1 3 5 4 11 1 11 -3 1 -9 2 -13 3 -5 1 -13 5 -20 9 -6 4 -14 3 -17 -2z"/>
 <path d="M1195 3541 c-7 -12 12 -24 25 -16 11 7 4 25 -10 25 -5 0 -11 -4 -15 -9z"/>
 <path d="M1325 3520 c-8 -12 20 -24 35 -15 6 3 8 11 5 16 -8 12 -32 12 -40 -1z"/>
 <path d="M1465 3520 c-4 -6 -3 -16 3 -22 6 -6 12 -6 17 2 4 6 3 16 -3 22 -6 6 -12 6 -17 -2z"/>
 <path d="M1756 3498 c-8 -22 -1 -68 9 -71 13 -3 17 70 4 78 -5 4 -11 0 -13 -7z"/>
 <path d="M3115 3481 c-7 -12 12 -24 25 -16 11 7 4 25 -10 25 -5 0 -11 -4 -15 -9z"/>
 <path d="M2615 3421 c-7 -12 12 -24 25 -16 11 7 4 25 -10 25 -5 0 -11 -4 -15 -9z"/>
 <path d="M4141 3416 c-7 -8 -8 -17 -3 -20 6 -3 15 1 21 8 7 8 8 17 3 20 -6 3 -15 -1 -21 -8z"/>
 <path d="M5921 3396 c-7 -8 -8 -17 -3 -20 6 -3 15 1 21 8 7 8 8 17 3 20 -6 3 -15 -1 -21 -8z"/>
 <path d="M4994 3366 c-4 -10 -2 -22 4 -28 8 -8 13 -7 18 6 4 10 2 22 -4 28 -8 8 -13 7 -18 -6z"/>
 <path d="M5026 3332 c-3 -6 1 -15 8 -21 8 -7 17 -8 20 -3 3 6 -1 15 -8 21 -8 7 -17 8 -20 3z"/>
 <path d="M4085 3320 c-4 -6 -3 -16 3 -22 6 -6 12 -6 17 2 4 6 3 16 -3 22 -6 6 -12 6 -17 -2z"/>
 <path d="M5808 3297 c-26 -16 -45 -34 -42 -39 6 -9 78 27 95 48 20 25 -8 20 -53 -9z"/>
 <path d="M3421 3296 c-7 -8 -8 -17 -3 -20 6 -3 15 1 21 8 7 8 8 17 3 20 -6 3 -15 -1 -21 -8z"/>
 <path d="M4056 3252 c-3 -6 1 -15 8 -21 8 -7 17 -8 20 -3 3 6 -1 15 -8 21 -8 7 -17 8 -20 3z"/>
 <path d="M5465 3230 c-3 -5 0 -13 8 -16 23 -8 127 0 130 11 3 14 -129 19 -138 5z"/>
 <path d="M3706 3212 c-3 -6 1 -15 8 -21 8 -7 17 -8 20 -3 3 6 -1 15 -8 21 -8 7 -17 8 -20 3z"/>
 <path d="M1211 3181 c-12 -16 -17 -32 -12 -35 5 -4 19 7 30 23 12 16 17 32 12 35 -5 4 -19 -7 -30 -23z"/>
 <path d="M5027 3192 c-9 -13 -11 -118 -3 -130 15 -25 26 1 26 63 0 58 -11 88 -23 67z"/>
 <path d="M2764 3136 c-4 -10 -2 -22 4 -28 8 -8 13 -7 18 6 4 10 2 22 -4 28 -8 8 -13 7 -18 -6z"/>
 <path d="M2865 3081 c-7 -12 12 -24 25 -16 11 7 4 25 -10 25 -5 0 -11 -4 -15 -9z"/>
 <path d="M2915 3071 c-7 -12 12 -24 25 -16 11 7 4 25 -10 25 -5 0 -11 -4 -15 -9z"/>
 <path d="M1939 3052 c-29 -24 -11 -36 20 -13 14 11 19 21 13 25 -5 3 -20 -2 -33 -12z"/>
 <path d="M2975 3061 c-7 -12 12 -24 25 -16 11 7 4 25 -10 25 -5 0 -11 -4 -15 -9z"/>
 <path d="M3085 3027 c-9 -22 -2 -62 10 -60 6 1 11 14 13 29 4 32 -14 56 -23 31z"/>
 <path d="M3744 3017 c-7 -20 -2 -47 11 -50 14 -3 19 43 6 56 -7 7 -12 6 -17 -6z"/>
 <path d="M4678 3025 c-6 -6 14 -70 25 -81 15 -16 17 27 2 55 -16 32 -18 34 -27 26z"/>
 <path d="M1585 2971 c-7 -12 12 -24 25 -16 11 7 4 25 -10 25 -5 0 -11 -4 -15 -9z"/>
 <path d="M1145 2880 c-4 -6 -3 -16 3 -22 6 -6 12 -6 17 2 4 6 3 16 -3 22 -6 6 -12 6 -17 -2z"/>
 <path d="M1789 2865 c-4 -19 -2 -45 4 -45 4 0 7 3 6 7 0 4 9 11 21 15 25 9 18 28 -11 28 -10 0 -19 -2 -20 -5z"/>
 <path d="M2755 2800 c-8 -12 20 -24 35 -15 6 3 8 11 5 16 -8 12 -32 12 -40 -1z"/>
 <path d="M4705 2768 c-10 -25 -1 -223 10 -223 13 0 19 215 6 228 -7 7 -12 5 -16 -5z"/>
 <path d="M2734 2696 c-4 -10 -2 -22 4 -28 8 -8 13 -7 18 6 4 10 2 22 -4 28 -8 8 -13 7 -18 -6z"/>
 <path d="M3744 2677 c-7 -20 -2 -47 11 -50 14 -3 19 43 6 56 -7 7 -12 6 -17 -6z"/>
 <path d="M1297 2573 c-4 -6 11 -27 32 -47 21 -21 41 -34 44 -29 4 6 -11 27 -32 47 -21 21 -41 34 -44 29z"/>
 <path d="M3734 2526 c-8 -21 3 -49 16 -41 5 3 10 15 10 25 0 25 -18 36 -26 16z"/>
 <path d="M2061 2480 c-33 -41 -28 -65 6 -27 36 42 44 55 35 61 -5 3 -23 -12 -41 -34z"/>
 <path d="M1386 2491 c-4 -5 7 -19 23 -30 16 -12 32 -17 35 -12 4 5 -7 19 -23 30 -16 12 -32 17 -35 12z"/>
 <path d="M3101 2446 c-9 -10 -9 -16 -1 -21 17 -10 37 12 24 25 -8 8 -15 6 -23 -4z"/>
 <path d="M1965 2406 c-11 -8 -14 -16 -8 -19 6 -4 18 0 28 7 11 8 14 16 8 19 -6 4 -18 0 -28 -7z"/>
 <path d="M4694 2406 c-4 -10 -2 -22 4 -28 8 -8 13 -7 18 6 4 10 2 22 -4 28 -8 8 -13 7 -18 -6z"/>
 <path d="M1735 2370 c-3 -5 0 -13 8 -16 23 -8 82 0 82 11 0 14 -82 19 -90 5z"/>
 <path d="M3043 2357 c-19 -24 -23 -36 -14 -41 5 -3 16 5 25 19 16 24 6 45 -11 22z"/>
 <path d="M5475 2351 c-7 -12 12 -24 25 -16 11 7 4 25 -10 25 -5 0 -11 -4 -15 -9z"/>
 <path d="M5646 2272 c-3 -5 3 -17 13 -26 11 -10 22 -13 25 -8 3 5 -3 17 -13 26 -11 10 -22 13 -25 8z"/>
 <path d="M4066 2261 c-4 -5 -2 -12 3 -16 6 -3 8 -12 5 -19 -7 -17 12 -30 21 -16 4 6 2 17 -4 24 -6 7 -8 15 -5 18 3 3 1 9 -5 12 -5 4 -12 2 -15 -3z"/>
 <path d="M5684 2186 c-4 -10 -2 -22 4 -28 8 -8 13 -7 18 6 4 10 2 22 -4 28 -8 8 -13 7 -18 -6z"/>
 <path d="M2505 2171 c-7 -12 12 -24 25 -16 11 7 4 25 -10 25 -5 0 -11 -4 -15 -9z"/>
 <path d="M2555 2161 c-7 -12 12 -24 25 -16 11 7 4 25 -10 25 -5 0 -11 -4 -15 -9z"/>
 <path d="M3256 2161 c-3 -5 5 -16 19 -25 24 -16 45 -6 22 11 -24 19 -36 23 -41 14z"/>
 <path d="M3435 2071 c-7 -12 12 -24 25 -16 11 7 4 25 -10 25 -5 0 -11 -4 -15 -9z"/>
 <path d="M4156 2052 c-3 -6 1 -15 8 -21 8 -7 17 -8 20 -3 3 6 -1 15 -8 21 -8 7 -17 8 -20 3z"/>
 <path d="M3555 2041 c-7 -12 12 -24 25 -16 11 7 4 25 -10 25 -5 0 -11 -4 -15 -9z"/>
 <path d="M3645 2030 c-3 -5 0 -13 8 -16 23 -8 82 0 82 11 0 14 -82 19 -90 5z"/>
 <path d="M4395 1901 c-7 -12 12 -24 25 -16 11 7 4 25 -10 25 -5 0 -11 -4 -15 -9z"/>
 <path d="M4806 1891 c-4 -6 -13 -8 -20 -5 -8 3 -17 1 -20 -5 -4 -6 -13 -8 -20 -5 -17 7 -30 -12 -16 -21 6 -4 17 -2 24 4 7 6 16 8 19 4 4 -3 12 -1 19 5 7 6 16 11 21 11 8 1 11 11 4 17 -3 3 -8 1 -11 -5z"/>
 <path d="M4515 1871 c-7 -12 12 -24 25 -16 11 7 4 25 -10 25 -5 0 -11 -4 -15 -9z"/>
 <path d="M4625 1860 c-8 -12 20 -24 35 -15 6 3 8 11 5 16 -8 12 -32 12 -40 -1z"/>
 <path d="M5014 1825 c-8 -19 8 -52 22 -47 11 3 6 43 -7 56 -5 6 -11 2 -15 -9z"/>
 <path d="M5225 1721 c-7 -12 12 -24 25 -16 11 7 4 25 -10 25 -5 0 -11 -4 -15 -9z"/>
 <path d="M5495 1680 c-3 -5 0 -13 8 -16 23 -9 112 0 110 11 -4 14 -110 19 -118 5z"/>
 </g>
<g id="layer5" fill="#f16723" stroke="none">
 <path d="M1315 5520 c-8 -13 -64 -386 -100 -661 -32 -257 -53 -478 -61 -676 l-7 -163 35 -14 c19 -8 70 -21 114 -28 71 -12 84 -12 124 3 95 35 77 70 -45 87 -44 6 -97 16 -117 22 l-38 11 0 77 c0 199 34 549 96 987 24 176 45 329 47 340 2 22 -36 34 -48 15z"/>
 <path d="M1748 5433 c-16 -17 -25 -44 -66 -185 -17 -57 -17 -69 -6 -79 18 -14 41 36 80 170 27 94 24 130 -8 94z"/>
 <path d="M2135 5380 c-3 -4 -10 -154 -15 -331 -6 -178 -14 -405 -18 -504 -6 -144 -4 -222 11 -389 18 -192 18 -210 3 -218 -9 -5 -17 -19 -17 -31 -1 -17 -3 -15 -8 7 -6 28 -10 30 -81 43 -41 7 -95 18 -120 26 l-45 13 -7 134 c-4 74 -12 281 -17 459 -6 179 -15 329 -20 334 -6 6 -13 2 -19 -9 -19 -36 -50 -162 -42 -171 4 -4 12 -171 18 -371 7 -245 14 -367 22 -377 6 -7 25 -17 42 -21 34 -7 112 -51 170 -97 27 -20 47 -28 70 -26 18 1 44 -3 58 -8 14 -5 57 -15 95 -22 l70 -13 58 32 c34 19 55 36 50 41 -5 5 -57 19 -116 31 l-107 23 0 305 c0 260 14 949 22 1089 3 41 1 45 -24 52 -16 4 -30 4 -33 -1z"/>
 <path d="M2742 5263 c-11 -20 -20 -170 -24 -378 l-3 -140 30 0 30 0 6 90 c4 50 8 169 10 265 4 174 4 175 -18 178 -13 2 -25 -4 -31 -15z"/>
 <path d="M3144 5090 c-45 -68 -55 -133 -69 -470 -21 -492 5 -706 101 -846 21 -30 52 -63 69 -74 29 -18 37 -18 95 -6 35 7 65 17 67 23 2 5 -26 28 -63 49 -109 63 -172 185 -194 370 -22 191 -5 842 25 940 17 58 3 65 -31 14z"/>
 <path d="M4106 4932 c-35 -56 -57 -128 -58 -192 0 -30 3 -209 7 -398 6 -271 5 -359 -5 -415 -8 -40 -12 -76 -11 -82 2 -5 10 -37 18 -70 19 -73 44 -125 92 -188 53 -71 76 -81 147 -62 32 8 62 19 67 24 5 5 -16 22 -53 42 -70 37 -99 68 -140 149 -46 91 -61 169 -71 369 -13 262 7 731 36 814 17 51 1 56 -29 9z"/>
 <path d="M3471 4933 c-19 -10 -44 -30 -55 -46 -26 -36 -13 -50 36 -37 69 20 163 -13 218 -76 59 -68 62 -82 62 -363 0 -141 -5 -287 -10 -326 -11 -81 -1 -104 28 -65 40 51 44 92 45 430 0 253 -3 330 -13 348 -25 44 -85 103 -126 124 -57 29 -142 34 -185 11z"/>
 <path d="M1555 4928 c-13 -39 -24 -170 -15 -186 5 -9 25 -77 42 -150 18 -72 38 -132 43 -133 6 -1 17 19 25 44 8 25 18 48 21 52 4 3 -15 90 -40 192 -43 170 -63 218 -76 181z"/>
 <path d="M5023 4858 c-13 -21 -19 -326 -10 -598 5 -140 6 -313 3 -385 -2 -71 -7 -221 -10 -333 l-4 -203 23 -11 c20 -9 22 -14 14 -42 -5 -17 -9 -177 -7 -356 4 -544 3 -656 -4 -902 -5 -175 -3 -239 5 -247 23 -18 223 -79 307 -92 47 -8 144 -14 215 -14 196 0 270 28 375 142 61 67 73 109 16 55 -92 -86 -170 -106 -385 -99 -172 5 -273 24 -411 76 l-55 21 3 752 c3 487 7 757 14 765 7 9 3 15 -13 23 l-24 11 0 722 0 722 -22 3 c-11 2 -25 -3 -30 -10z"/>
 <path d="M4435 4770 c-24 -9 -70 -58 -78 -82 -8 -22 3 -30 21 -16 22 19 120 13 173 -10 55 -24 116 -92 126 -141 9 -40 11 -493 3 -608 -5 -82 4 -93 37 -44 32 47 38 115 38 436 l0 290 -27 47 c-35 58 -88 103 -147 123 -48 16 -114 19 -146 5z"/>
 <path d="M2492 4448 c-5 -7 -12 -28 -14 -47 l-3 -34 95 -19 c52 -11 100 -24 105 -29 6 -6 11 -105 14 -240 l3 -230 26 -10 c16 -6 29 -6 35 0 6 6 8 116 5 280 -3 224 -6 273 -19 286 -14 14 -171 54 -215 55 -12 0 -26 -6 -32 -12z"/>
 <path d="M5400 3996 c-18 -22 -23 -71 -8 -83 7 -5 43 -18 80 -27 125 -30 187 -79 197 -157 8 -57 27 -60 51 -7 59 131 -22 220 -247 272 -50 11 -64 11 -73 2z"/>
 <path d="M1179 3783 c-29 -37 -40 -65 -51 -138 -10 -64 -9 -78 3 -89 8 -8 75 -24 154 -35 77 -12 150 -24 163 -27 16 -3 24 1 28 13 3 10 12 30 20 45 8 15 11 29 6 32 -5 3 -55 12 -113 21 -57 9 -125 21 -151 26 -45 10 -48 13 -48 42 0 18 5 50 10 72 10 46 0 64 -21 38z"/>
 <path d="M2896 3772 c-6 -10 100 -103 108 -95 11 12 6 84 -6 87 -32 10 -97 15 -102 8z"/>
 <path d="M3959 3734 c-19 -23 -93 -53 -152 -62 -28 -4 -52 -12 -54 -18 -2 -7 16 -22 41 -34 49 -23 58 -21 118 23 34 25 81 94 69 101 -5 3 -15 -2 -22 -10z"/>
 <path d="M2188 3702 c-37 -42 -41 -61 -28 -144 15 -96 8 -202 -17 -255 -16 -33 -18 -62 -15 -231 l2 -193 26 -9 c14 -6 30 -8 35 -4 5 3 9 155 10 357 0 194 3 383 8 420 8 73 3 87 -21 59z"/>
 <path d="M1581 3682 c-35 -19 -75 -78 -65 -94 3 -5 13 -3 21 4 9 7 41 13 72 13 89 0 151 -57 151 -139 0 -46 12 -51 41 -20 20 22 24 36 24 90 0 63 -1 65 -47 111 -43 43 -51 47 -105 50 -43 3 -67 -1 -92 -15z"/>
 <path d="M3166 3549 c-38 -59 -46 -96 -35 -151 15 -68 7 -235 -12 -253 -12 -11 -30 -10 -109 5 -52 9 -111 20 -131 24 l-36 6 -6 85 c-9 131 -46 195 -131 230 -66 28 -127 1 -165 -72 -11 -22 1 -43 14 -23 3 5 25 10 49 10 96 0 155 -81 164 -225 2 -47 10 -89 16 -93 18 -14 220 -45 265 -40 l41 4 0 -112 c0 -108 1 -112 25 -128 14 -9 30 -14 35 -11 6 4 10 69 10 153 0 177 18 501 30 557 11 48 -2 66 -24 34z"/>
 <path d="M4870 3538 c-30 -15 -79 -31 -109 -35 -30 -5 -54 -12 -54 -18 0 -18 81 -57 104 -50 25 8 105 80 120 106 14 28 -2 27 -61 -3z"/>
 <path d="M5929 3424 c-67 -72 -172 -105 -342 -107 l-122 -2 0 -45 0 -45 70 -3 c176 -8 325 56 404 173 34 50 27 68 -10 29z"/>
 <path d="M4124 3378 c-60 -94 -60 -95 -49 -583 6 -266 5 -356 -6 -415 -7 -41 -11 -79 -10 -85 2 -5 10 -37 18 -70 32 -123 102 -221 203 -282 55 -33 177 -71 273 -84 103 -14 223 -2 286 30 40 21 124 108 116 121 -2 4 -32 -7 -67 -24 -56 -28 -73 -31 -174 -35 -137 -4 -239 19 -362 80 -91 46 -119 73 -162 159 -46 91 -60 162 -71 360 -15 278 10 782 41 841 7 11 7 20 0 24 -5 3 -21 -14 -36 -37z"/>
 <path d="M3483 3381 c-38 -24 -70 -68 -57 -81 5 -5 26 -4 49 2 32 9 52 7 96 -5 82 -24 120 -54 152 -119 l29 -57 0 -258 c-1 -142 -5 -291 -10 -331 -9 -81 0 -99 29 -61 39 50 43 92 44 429 0 355 2 340 -63 412 -48 53 -104 80 -177 85 -48 3 -66 0 -92 -16z"/>
 <path d="M4455 3221 c-35 -15 -78 -68 -71 -86 4 -12 12 -15 24 -10 60 27 171 -1 229 -57 62 -60 66 -79 71 -333 2 -126 -1 -277 -6 -335 -5 -58 -7 -109 -4 -113 9 -18 43 29 60 82 14 48 17 102 17 366 l0 310 -27 46 c-29 50 -71 90 -121 116 -36 18 -143 27 -172 14z"/>
 <path d="M2054 3179 c-66 -70 -192 -119 -304 -119 -94 0 -126 -8 -161 -41 -31 -29 -36 -67 -9 -61 8 2 58 5 112 8 174 7 288 67 389 206 28 38 8 43 -27 7z"/>
 <path d="M1212 3173 c-44 -65 -54 -98 -59 -198 -9 -177 40 -298 178 -436 112 -112 223 -161 399 -175 153 -13 279 28 350 114 35 43 25 65 -16 33 -44 -35 -118 -51 -233 -51 -194 0 -321 48 -437 164 -76 76 -133 168 -158 255 -20 67 -20 221 -2 274 17 46 4 57 -22 20z"/>
 <path d="M1791 2838 c-13 -35 -2 -42 25 -17 24 23 24 39 -2 39 -8 0 -18 -10 -23 -22z"/>
 <path d="M2755 2789 c-5 -6 -10 -44 -13 -83 -2 -39 -9 -79 -13 -88 -15 -29 7 -29 34 0 28 30 51 102 45 148 -2 21 -9 30 -25 32 -11 2 -24 -2 -28 -9z"/>
 <path d="M2156 2626 l-25 -57 23 -69 c68 -202 197 -310 416 -347 192 -33 352 25 465 169 44 55 34 68 -18 23 -23 -20 -71 -51 -107 -68 -56 -28 -77 -32 -159 -36 -52 -1 -121 2 -155 9 -84 16 -214 79 -258 124 -43 45 -99 149 -124 231 -10 33 -21 64 -25 69 -5 5 -19 -17 -33 -48z"/>
 <path d="M3146 2579 c-2 -8 -12 -42 -21 -76 l-18 -62 27 -85 c29 -95 81 -170 151 -218 93 -64 279 -118 404 -118 65 0 178 26 213 49 35 21 109 111 102 123 -2 4 -21 -4 -41 -18 -120 -81 -370 -72 -561 22 -40 19 -88 51 -107 69 -44 44 -91 144 -111 237 -17 75 -30 102 -38 77z"/>
 <path d="M5417 2452 c-3 -4 -8 -23 -12 -43 -8 -43 1 -52 76 -68 122 -26 209 -95 209 -167 0 -18 4 -35 9 -39 14 -8 50 42 57 80 19 105 -72 188 -244 225 -26 6 -57 12 -69 15 -12 3 -24 2 -26 -3z"/>
 </g>
<g id="layer6" fill="#fdde00" stroke="none">
 <path d="M1360 5587 c-11 -27 -105 -697 -125 -892 -20 -198 -37 -479 -33 -550 l3 -59 45 -13 c25 -8 94 -21 154 -30 105 -15 110 -15 123 2 10 15 13 78 13 285 0 256 14 521 29 547 3 7 26 -67 50 -165 24 -97 47 -181 52 -186 12 -14 31 38 75 203 l39 144 7 -59 c7 -65 30 -805 25 -810 -2 -2 -35 3 -73 11 -226 48 -431 -20 -529 -176 -26 -41 -53 -164 -42 -192 4 -10 18 -22 32 -27 26 -10 267 -50 300 -50 9 0 22 15 30 33 24 58 49 72 126 72 66 0 70 -2 105 -37 32 -31 38 -44 41 -90 8 -111 -45 -144 -247 -157 -158 -9 -193 -23 -262 -100 -72 -80 -91 -129 -96 -247 -7 -173 43 -290 182 -430 127 -127 247 -174 447 -174 168 0 254 38 321 141 l32 50 18 -50 c51 -152 128 -243 251 -301 103 -48 179 -63 298 -59 83 4 103 8 162 37 111 55 211 161 233 247 7 27 8 25 24 -32 24 -89 68 -171 115 -219 53 -52 165 -108 274 -135 114 -29 282 -24 356 9 94 43 157 129 171 235 7 52 24 74 24 32 0 -45 30 -145 61 -207 44 -87 89 -130 182 -177 111 -56 216 -81 337 -81 155 0 237 34 297 123 70 104 81 220 64 672 -12 322 -19 386 -58 494 -32 89 -112 181 -199 228 l-56 30 38 7 c173 32 248 144 260 386 7 137 -11 668 -26 760 -6 36 -22 99 -37 140 -22 63 -37 85 -92 140 -108 108 -241 167 -427 190 -170 21 -255 -12 -313 -119 -35 -66 -44 -122 -58 -346 l-7 -110 -8 124 c-21 309 -86 431 -287 535 -102 52 -165 71 -283 85 -145 17 -229 -5 -287 -76 -50 -61 -69 -143 -81 -353 -13 -237 -13 -590 0 -704 21 -178 87 -309 191 -376 l59 -38 -40 -7 c-101 -17 -179 -143 -181 -293 l0 -47 -15 55 c-23 89 -73 177 -143 252 l-66 71 57 -7 c34 -4 58 -3 62 3 8 13 68 1530 61 1541 -8 13 -60 26 -193 51 -99 19 -116 20 -128 7 -11 -11 -16 -73 -24 -284 -5 -148 -10 -278 -10 -288 0 -17 -6 -18 -68 -13 -58 6 -157 31 -172 44 -3 3 -7 136 -10 296 l-5 291 -30 17 c-17 10 -80 24 -146 33 -64 8 -122 16 -130 18 -10 2 -15 -18 -21 -81 -10 -116 -28 -791 -29 -1106 -1 -211 -3 -244 -10 -175 -30 290 -110 1128 -120 1245 -7 77 -15 143 -18 147 -4 5 -47 15 -96 24 l-89 17 -18 -23 c-10 -12 -28 -54 -39 -94 -46 -157 -72 -227 -80 -219 -5 5 -29 86 -54 181 -24 95 -47 177 -50 181 -5 10 -110 37 -168 45 -32 4 -39 2 -47 -17z m2302 -689 c62 -34 105 -96 114 -164 10 -83 -2 -612 -15 -656 -14 -43 -67 -93 -110 -103 -47 -10 -156 55 -199 119 -58 87 -67 135 -67 371 1 305 23 422 87 451 46 20 136 12 190 -18z m954 -169 c32 -16 60 -41 80 -71 27 -40 32 -57 37 -138 16 -218 2 -582 -24 -632 -21 -41 -52 -68 -91 -79 -36 -9 -44 -7 -103 25 -100 56 -142 119 -165 246 -23 121 -10 462 22 585 11 44 32 73 63 86 36 16 130 4 181 -22z m-1958 -314 l69 -16 7 -67 c3 -37 6 -160 6 -273 l0 -206 -77 18 c-43 10 -106 19 -141 19 l-62 0 5 53 c3 28 10 131 15 227 5 96 13 197 16 224 l7 48 43 -6 c23 -3 74 -13 112 -21z m1452 -575 c17 -62 64 -152 102 -195 17 -20 53 -49 80 -64 l49 -28 -38 -7 c-79 -12 -132 -67 -167 -171 -11 -30 -21 -112 -27 -219 -6 -94 -12 -172 -13 -173 -2 -2 -6 52 -10 119 -15 276 -69 396 -224 498 -42 27 -68 50 -59 50 41 0 133 42 170 77 49 48 73 96 94 186 l17 72 7 -50 c4 -27 12 -70 19 -95z m-2025 86 c33 -2 67 -7 75 -9 8 -3 57 -13 108 -23 l93 -19 -53 -35 c-72 -48 -110 -104 -115 -172 -7 -83 -13 -88 -33 -29 -53 149 -119 235 -236 307 -13 8 2 7 41 -2 33 -8 87 -16 120 -18z m635 -458 c63 -32 88 -86 98 -209 l7 -94 85 -18 c47 -9 118 -18 157 -20 l73 -2 0 -154 c0 -121 -3 -151 -12 -143 -21 16 -137 40 -230 47 l-88 7 -10 -27 c-5 -14 -10 -49 -10 -76 0 -66 -18 -134 -40 -154 -10 -9 -31 -17 -47 -17 -48 -1 -132 31 -150 59 -26 39 -39 282 -27 510 9 169 12 193 34 238 38 77 83 91 160 53z m961 -119 c63 -35 106 -96 115 -165 10 -81 -2 -613 -15 -653 -15 -47 -58 -89 -104 -102 -35 -9 -43 -7 -104 28 -76 44 -123 104 -151 192 -14 46 -17 94 -17 266 1 292 22 411 79 446 42 27 137 21 197 -12z m-1501 -242 l0 -224 -87 24 c-50 13 -122 24 -168 26 l-80 2 -3 -36 c-7 -87 -120 -120 -210 -61 -51 33 -69 135 -31 170 25 24 62 32 149 32 77 0 167 25 233 63 56 33 150 134 173 187 10 22 19 40 21 40 2 0 3 -101 3 -223z m2468 66 c27 -17 58 -48 75 -75 l29 -47 5 -228 c6 -262 -6 -434 -34 -490 -41 -82 -105 -96 -199 -42 -80 47 -128 118 -150 219 -28 127 -17 481 18 605 22 77 54 97 146 91 48 -3 75 -11 110 -33z"/>
 <path d="M5071 4933 c-5 -11 -10 -318 -12 -773 -3 -717 -2 -755 15 -758 9 -2 15 -9 13 -16 -3 -7 -6 -352 -8 -766 -3 -734 -3 -753 16 -766 30 -22 194 -72 291 -89 48 -8 146 -15 218 -15 195 0 278 30 375 136 155 170 126 448 -70 658 -113 121 -277 215 -379 216 -62 1 -61 -9 -53 279 l6 263 51 -5 c78 -8 214 9 281 34 82 30 183 130 213 210 48 129 37 266 -31 402 -32 65 -60 101 -131 172 -123 123 -240 183 -386 197 l-25 3 0 279 0 279 -40 14 c-43 16 -198 47 -282 57 -44 6 -54 4 -62 -11z m499 -984 c59 -19 119 -62 136 -98 19 -40 14 -99 -11 -137 -37 -57 -166 -83 -260 -52 l-39 13 3 135 c4 190 -1 181 74 164 34 -8 78 -19 97 -25z m41 -1558 c118 -45 161 -139 103 -229 -36 -55 -175 -80 -264 -48 l-35 13 3 129 c2 71 5 141 8 155 l5 26 63 -13 c34 -7 87 -22 117 -33z"/>
 </g>

</svg>