<!DOCTYPE svg PUBLIC "-//W3C//DTD SVG 20010904//EN" "http://www.w3.org/TR/2001/REC-SVG-20010904/DTD/svg10.dtd">
<svg version="1.0" xmlns="http://www.w3.org/2000/svg" width="1262px" height="444px" viewBox="0 0 12620 4440" preserveAspectRatio="xMidYMid meet">
<g id="layer101" fill="#4a4a4a" stroke="none">
 <path d="M6915 4426 c-167 -29 -270 -138 -312 -329 -24 -110 -21 -369 5 -469 58 -215 177 -313 408 -334 80 -7 222 9 298 34 l51 17 -1 48 c-1 65 -11 73 -70 53 -196 -66 -430 -31 -501 75 -108 164 -107 561 2 704 56 74 204 113 354 94 45 -5 93 -14 106 -19 l25 -9 2 -228 3 -228 55 0 55 0 3 273 2 273 -37 16 c-92 38 -311 52 -448 29z"/>
 <path d="M5862 2223 l3 -2198 55 0 55 0 3 2198 2 2197 -60 0 -60 0 2 -2197z"/>
 <path d="M6322 3868 l3 -553 60 0 60 0 3 553 2 552 -65 0 -65 0 2 -552z"/>
 <path d="M7522 3868 l3 -553 55 -3 55 -2 290 437 290 438 5 -435 5 -435 50 0 50 0 3 553 2 553 -50 -3 -50 -3 -300 -450 -300 -450 0 453 0 452 -55 0 -55 0 2 -552z"/>
 <path d="M8532 3868 l3 -553 60 0 60 0 3 553 2 552 -65 0 -65 0 2 -552z"/>
 <path d="M9060 3925 l0 -495 -167 -2 -168 -3 0 -55 0 -55 400 0 400 0 0 55 0 55 -167 3 -168 2 0 495 0 495 -65 0 -65 0 0 -495z"/>
 <path d="M9572 3868 l3 -553 330 0 329 0 9 43 c15 76 29 72 -273 72 l-270 0 0 180 0 180 233 2 232 3 0 50 0 50 -232 3 -233 2 0 205 0 205 283 2 282 3 3 53 3 52 -351 0 -350 0 2 -552z"/>
 <path d="M8900 2799 c-160 -27 -262 -129 -307 -306 -14 -53 -17 -111 -17 -268 1 -172 4 -211 22 -278 60 -220 204 -310 466 -294 203 13 313 92 366 266 57 184 48 526 -19 676 -28 62 -112 149 -170 173 -88 39 -222 50 -341 31z m256 -134 c51 -15 105 -59 129 -105 45 -86 67 -324 46 -483 -31 -228 -103 -300 -301 -301 -180 -2 -258 47 -302 186 -21 65 -23 93 -23 258 0 201 9 261 53 343 46 85 112 115 258 116 52 1 111 -5 140 -14z"/>
 <path d="M6325 2778 c-3 -7 -4 -258 -3 -558 l3 -545 60 0 60 0 0 555 0 555 -58 3 c-40 2 -59 -1 -62 -10z"/>
 <path d="M6645 2778 c-3 -7 -4 -258 -3 -558 l3 -545 60 0 60 0 280 422 c154 232 286 430 293 440 10 15 12 -62 10 -422 l-3 -440 55 0 55 0 0 555 0 555 -45 0 -45 0 -300 -449 -300 -448 -5 448 -5 449 -53 3 c-36 2 -54 -1 -57 -10z"/>
 <path d="M7645 2778 c-3 -7 -4 -258 -3 -558 l3 -545 55 -3 55 -2 290 437 290 438 5 -435 5 -435 50 0 50 0 0 555 0 555 -42 3 -42 3 -305 -458 -306 -458 -2 455 -3 455 -48 3 c-32 2 -49 -1 -52 -10z"/>
 <path d="M9843 2778 c-16 -21 -402 -1091 -397 -1100 3 -4 32 -8 65 -8 58 0 60 1 74 33 10 25 197 554 312 886 l16 43 167 -478 167 -479 64 0 c52 0 63 3 61 15 -4 22 -382 1060 -393 1082 -8 14 -22 18 -68 18 -35 0 -62 -5 -68 -12z"/>
 <path d="M10256 2782 c-3 -5 89 -256 204 -558 l208 -549 65 -3 c43 -2 67 1 74 10 20 26 415 1079 409 1093 -7 19 -109 21 -124 3 -5 -7 -31 -73 -57 -145 l-47 -133 -252 0 -251 0 -51 143 -50 142 -61 3 c-34 2 -64 -1 -67 -6z m684 -408 c0 -5 -171 -491 -192 -544 -9 -22 -17 -6 -73 150 -35 96 -81 226 -104 288 l-40 112 204 0 c113 0 205 -3 205 -6z"/>
 <path d="M11417 2784 c-4 -4 -7 -229 -7 -500 l0 -494 -167 -2 -168 -3 0 -55 0 -55 400 0 400 0 0 55 0 55 -167 3 -168 2 -2 498 -3 497 -55 3 c-31 2 -59 0 -63 -4z"/>
 <path d="M11925 2778 c-3 -7 -4 -258 -3 -558 l3 -545 335 0 335 0 0 55 0 55 -272 3 -273 2 0 180 0 180 238 2 237 3 0 50 0 50 -237 3 -238 2 0 205 0 205 286 0 287 0 -7 38 c-3 20 -6 47 -6 60 l0 22 -340 0 c-263 0 -342 -3 -345 -12z"/>
 <path d="M7795 1160 c-73 -10 -170 -43 -205 -69 -21 -16 -25 -26 -22 -62 5 -69 13 -72 95 -33 116 55 280 64 364 20 121 -62 137 -241 29 -315 -22 -15 -70 -39 -106 -53 -36 -14 -97 -37 -136 -52 -168 -64 -242 -149 -244 -282 0 -86 25 -150 83 -209 73 -72 116 -85 283 -85 104 0 146 4 197 20 80 25 88 34 77 84 -13 59 -20 61 -97 35 -55 -20 -88 -24 -178 -24 -95 0 -116 3 -153 23 -72 39 -105 120 -80 197 17 52 75 95 174 130 235 83 304 127 349 219 24 50 27 64 24 143 -5 109 -37 184 -104 238 -78 64 -215 94 -350 75z"/>
 <path d="M6325 1138 c-3 -7 -4 -258 -3 -558 l3 -545 60 0 60 0 0 555 0 555 -58 3 c-40 2 -59 -1 -62 -10z"/>
 <path d="M6645 1138 c-3 -7 -4 -258 -3 -558 l3 -545 60 0 60 0 293 440 293 440 -3 -440 -3 -440 55 0 55 0 0 555 0 555 -45 0 -45 0 -300 -448 -300 -448 -5 448 -5 448 -53 3 c-36 2 -54 -1 -57 -10z"/>
 <path d="M8345 1138 c-3 -7 -4 -258 -3 -558 l3 -545 230 -3 c207 -2 237 0 297 18 82 25 147 84 173 157 41 116 27 285 -31 372 -62 95 -137 120 -376 128 l-178 6 -2 216 -3 216 -53 3 c-36 2 -54 -1 -57 -10z m470 -559 c52 -15 100 -65 115 -120 17 -61 8 -177 -17 -225 -14 -27 -35 -46 -68 -64 -45 -23 -61 -25 -217 -28 l-168 -4 0 226 0 226 158 0 c86 0 175 -5 197 -11z"/>
 <path d="M9185 1138 c-3 -7 -4 -258 -3 -558 l3 -545 60 0 60 0 0 555 0 555 -58 3 c-40 2 -59 -1 -62 -10z"/>
 <path d="M9505 1138 c-3 -7 -4 -258 -3 -558 l3 -545 229 -3 c262 -3 305 4 374 64 73 62 87 100 87 239 0 115 -1 122 -30 174 -31 57 -94 107 -147 118 -16 3 -28 10 -28 15 0 5 63 115 141 244 82 137 138 242 135 250 -4 12 -20 14 -68 12 l-63 -3 -139 -242 -139 -243 -113 0 -114 0 -2 243 -3 242 -58 3 c-40 2 -59 -1 -62 -10z m480 -614 c63 -32 87 -88 83 -196 -3 -97 -18 -127 -79 -163 -29 -17 -56 -20 -196 -24 l-163 -3 0 207 0 207 158 -3 c134 -4 163 -7 197 -25z"/>
 <path d="M10335 1138 c-3 -7 -4 -258 -3 -558 l3 -545 328 -3 327 -2 11 27 c5 15 9 41 7 57 l-3 31 -272 3 -273 2 0 175 0 175 233 2 232 3 0 55 0 55 -232 3 -233 2 0 205 0 205 283 2 282 3 0 55 0 55 -343 3 c-269 2 -344 0 -347 -10z"/>
 </g>
<g id="layer102" fill="#de1920" stroke="none">
 <path d="M544 4421 c-110 -18 -248 -127 -311 -246 -51 -98 -107 -325 -85 -347 14 -14 301 -31 316 -19 7 6 16 33 19 59 14 122 87 234 161 248 124 23 219 -71 219 -216 0 -58 -5 -80 -33 -137 -28 -58 -57 -90 -184 -213 -290 -278 -359 -358 -415 -482 -38 -85 -51 -150 -51 -266 0 -157 40 -276 126 -371 97 -108 205 -152 371 -152 217 -1 376 90 461 264 43 86 70 213 51 232 -8 7 -79 24 -159 39 -163 29 -162 29 -174 -45 -10 -61 -52 -137 -89 -159 -42 -26 -112 -26 -155 0 -70 43 -99 171 -63 288 28 95 87 178 189 270 250 225 323 305 391 434 58 109 81 193 81 302 0 220 -99 400 -265 482 -71 35 -75 36 -211 39 -77 2 -162 0 -190 -4z"/>
 <path d="M2668 4420 c-141 -25 -299 -179 -348 -337 -19 -62 -20 -92 -20 -722 0 -405 4 -673 11 -700 25 -110 123 -243 229 -311 115 -73 297 -95 430 -50 160 54 287 187 334 352 15 49 16 132 14 729 l-3 674 -23 57 c-47 117 -168 241 -282 290 -51 22 -260 34 -342 18z m202 -352 c25 -13 55 -38 67 -57 l23 -34 0 -621 c0 -586 -1 -623 -19 -656 -54 -103 -219 -105 -282 -3 l-24 38 -3 593 c-2 388 1 605 8 631 14 52 45 90 94 112 54 24 83 24 136 -3z"/>
 <path d="M1567 4414 c-4 -4 -7 -402 -7 -885 l0 -879 -162 -2 -163 -3 0 -170 0 -170 500 0 500 0 0 170 0 170 -162 3 -163 2 -2 883 -3 882 -166 3 c-91 1 -168 -1 -172 -4z"/>
 <path d="M3415 4408 c-3 -7 -4 -483 -3 -1058 l3 -1045 315 0 c297 0 319 1 385 22 153 48 247 148 291 310 21 78 31 427 15 543 -13 101 -58 202 -119 271 l-41 46 114 449 c64 247 113 455 110 462 -3 9 -49 12 -180 12 -158 0 -176 -2 -182 -17 -4 -10 -48 -187 -98 -393 l-92 -375 -91 -3 -92 -3 -2 393 -3 393 -163 3 c-124 2 -164 0 -167 -10z m585 -1140 c33 -17 51 -35 68 -68 22 -43 23 -53 20 -245 -3 -223 -9 -245 -68 -279 -29 -17 -56 -22 -152 -25 l-118 -3 0 321 0 321 103 0 c87 0 110 -4 147 -22z"/>
 <path d="M4850 3975 l0 -445 -210 -606 c-116 -333 -208 -610 -204 -615 7 -12 361 -12 369 0 12 21 215 686 215 707 0 13 5 26 10 29 6 4 10 -7 10 -25 0 -35 196 -687 212 -707 8 -10 57 -13 185 -13 147 0 175 2 180 15 3 9 -90 289 -206 623 l-211 607 0 438 0 437 -175 0 -175 0 0 -445z"/>
 <path d="M1573 2156 c-140 -35 -272 -144 -336 -277 -56 -114 -59 -161 -55 -854 4 -589 4 -612 25 -672 28 -85 72 -151 148 -221 83 -78 147 -108 260 -122 72 -9 109 -8 187 3 113 17 163 42 250 125 70 67 113 132 141 215 21 60 22 82 25 671 3 670 -1 743 -46 840 -59 125 -170 228 -297 276 -74 28 -224 36 -302 16z m199 -362 c36 -18 66 -59 78 -105 7 -26 10 -245 8 -636 l-3 -598 -24 -38 c-27 -44 -85 -77 -137 -77 -54 0 -119 35 -146 78 l-23 37 0 620 c0 602 1 621 20 654 48 81 141 108 227 65z"/>
 <path d="M2840 2160 c-207 -36 -383 -222 -410 -435 -7 -51 -10 -376 -8 -890 l3 -810 165 0 165 0 5 835 c5 767 6 838 22 867 65 117 231 117 296 0 16 -29 17 -100 22 -867 l5 -835 175 0 175 0 3 805 c1 497 -1 837 -8 890 -34 291 -312 491 -610 440z"/>
 <path d="M417 2134 c-4 -4 -7 -205 -7 -447 l0 -440 -191 -550 c-173 -498 -219 -639 -219 -667 0 -6 73 -10 180 -10 178 0 181 0 190 23 22 50 210 670 210 693 0 13 5 24 10 24 6 0 10 -15 11 -32 0 -18 46 -184 103 -368 l102 -335 182 -3 c147 -2 183 0 188 11 3 8 -89 281 -203 608 l-208 594 -5 450 -5 450 -166 3 c-91 1 -168 -1 -172 -4z"/>
 <path d="M3665 2128 c-3 -7 -4 -483 -3 -1058 l3 -1045 315 0 c336 0 369 4 465 51 59 30 136 102 171 161 52 89 64 173 64 437 0 264 -7 317 -57 409 -15 27 -45 69 -66 93 -32 36 -38 50 -33 72 3 15 55 220 115 455 78 305 106 430 97 433 -6 2 -90 3 -186 2 l-174 -3 -27 -110 c-15 -60 -57 -235 -94 -387 l-67 -278 -94 0 -94 0 -2 388 -3 387 -163 3 c-124 2 -164 0 -167 -10z m611 -1145 c58 -42 64 -68 64 -297 0 -295 -8 -306 -222 -314 l-118 -4 0 322 0 322 123 -4 c107 -3 126 -6 153 -25z"/>
 </g>

</svg>