<!DOCTYPE svg PUBLIC "-//W3C//DTD SVG 20010904//EN" "http://www.w3.org/TR/2001/REC-SVG-20010904/DTD/svg10.dtd">
<svg version="1.0" xmlns="http://www.w3.org/2000/svg" width="1200px" height="557px" viewBox="0 0 12000 5570" preserveAspectRatio="xMidYMid meet">
<g id="layer1" fill="#4a4a4a" stroke="none">
 <path d="M6894 4550 c-28 -4 -60 -13 -70 -19 -18 -12 -18 -12 -1 -7 86 27 195 27 327 1 14 -3 6 1 -16 9 -54 18 -175 27 -240 16z"/>
 <path d="M6048 4533 c12 -2 32 -2 45 0 12 2 2 4 -23 4 -25 0 -35 -2 -22 -4z"/>
 <path d="M6418 4533 c12 -2 32 -2 45 0 12 2 2 4 -23 4 -25 0 -35 -2 -22 -4z"/>
 <path d="M6891 4529 c-72 -12 -129 -39 -182 -84 l-44 -38 40 39 c22 22 51 47 65 57 25 17 25 17 1 6 -38 -18 -112 -91 -107 -105 3 -8 0 -16 -6 -20 -7 -5 -8 -2 -3 7 8 12 6 12 -8 0 -19 -15 -24 -36 -6 -25 8 4 9 -1 4 -17 -13 -41 -26 -57 -20 -24 6 30 6 30 -10 -4 -8 -19 -17 -52 -20 -75 l-5 -41 11 43 c15 63 21 46 8 -24 -11 -59 -7 -275 7 -324 4 -14 4 -22 0 -19 -4 3 -10 26 -15 50 -6 31 -9 36 -10 17 -1 -36 28 -121 45 -131 8 -4 19 -18 25 -30 9 -19 8 -19 -10 3 -24 30 -28 20 -5 -15 9 -14 20 -23 24 -20 4 3 14 -3 21 -13 13 -16 13 -16 -5 -2 -17 13 -19 13 -14 0 2 -8 14 -16 26 -18 11 -2 26 -11 34 -20 12 -15 11 -16 -5 -3 -9 8 -19 12 -21 10 -2 -2 8 -13 22 -23 14 -11 22 -14 18 -8 -10 17 -1 15 44 -8 62 -32 175 -44 272 -31 46 7 98 17 116 24 29 10 32 15 32 54 0 48 -3 49 -54 28 -76 -32 -311 -28 -331 6 -4 5 5 5 20 -1 15 -6 36 -10 48 -9 12 1 4 5 -18 10 -22 5 -44 14 -49 19 -14 14 -28 12 -20 -2 5 -10 3 -10 -7 0 -8 7 -14 18 -14 25 0 7 -5 12 -12 12 -6 0 -15 4 -20 9 -5 5 -3 6 5 2 17 -10 15 5 -5 29 l-16 20 7 -20 c5 -13 4 -17 -3 -10 -5 6 -13 24 -16 40 -5 24 -4 27 5 15 10 -13 11 -12 6 3 -3 10 -11 57 -17 106 -12 83 -5 188 16 271 5 19 4 22 -4 10 -9 -13 -11 -13 -11 1 0 9 7 20 16 23 9 4 14 13 10 21 -3 8 0 14 6 12 6 -1 13 4 16 12 3 9 0 11 -9 6 -8 -5 -1 6 15 23 38 41 113 65 201 66 68 0 192 -23 168 -31 -10 -4 -12 -47 -11 -181 l2 -177 6 175 6 175 2 -177 2 -178 45 0 45 0 2 218 2 217 6 -215 6 -215 -1 214 c0 182 -2 214 -15 217 -8 1 -26 7 -40 13 -24 11 -24 11 5 6 24 -4 27 -3 12 5 -9 6 -26 8 -37 5 -10 -3 -36 -2 -57 4 -60 16 -173 21 -232 10z m-188 -380 c-5 -5 -6 11 -3 34 4 41 5 41 8 8 2 -18 0 -37 -5 -42z m0 -114 c4 -63 3 -77 -3 -45 -9 45 -13 147 -6 139 2 -2 6 -44 9 -94z"/>
 <path d="M7358 4533 c12 -2 32 -2 45 0 12 2 2 4 -23 4 -25 0 -35 -2 -22 -4z"/>
 <path d="M7918 4533 c12 -2 30 -2 40 0 9 3 -1 5 -23 4 -22 0 -30 -2 -17 -4z"/>
 <path d="M8158 4533 c12 -2 32 -2 45 0 12 2 2 4 -23 4 -25 0 -35 -2 -22 -4z"/>
 <path d="M8573 4533 c15 -2 37 -2 50 0 12 2 0 4 -28 4 -27 0 -38 -2 -22 -4z"/>
 <path d="M9083 4533 c75 -2 199 -2 275 0 75 1 13 3 -138 3 -151 0 -213 -2 -137 -3z"/>
 <path d="M6030 2790 l0 -1730 45 0 45 0 0 1730 0 1730 -45 0 -45 0 0 -1730z"/>
 <path d="M6135 2790 c0 -954 1 -1345 2 -867 2 477 2 1257 0 1735 -1 477 -2 86 -2 -868z"/>
 <path d="M6375 4085 c0 -242 1 -340 2 -217 2 123 2 321 0 440 -1 119 -2 19 -2 -223z"/>
 <path d="M6390 4085 l0 -435 50 0 50 0 0 435 0 435 -50 0 -50 0 0 -435z"/>
 <path d="M6505 4085 c0 -242 1 -340 2 -217 2 123 2 321 0 440 -1 119 -2 19 -2 -223z"/>
 <path d="M7340 4085 l0 -435 49 0 c43 0 53 4 76 31 14 18 24 38 21 46 -3 8 -2 11 3 8 5 -3 17 5 25 17 19 26 21 42 4 32 -7 -4 -8 -3 -4 5 4 6 11 9 16 6 11 -7 42 43 35 56 -4 5 -1 8 6 7 6 -2 14 3 17 11 3 9 0 11 -8 6 -9 -5 -11 -4 -6 4 4 6 11 9 16 6 11 -7 63 72 65 97 1 10 5 21 10 25 4 5 4 1 0 -7 -8 -13 -7 -13 9 -1 9 8 15 20 12 28 -4 9 -1 11 6 7 8 -5 9 -2 5 9 -3 9 -1 19 5 23 7 5 8 2 4 -7 -4 -8 2 -3 14 10 11 13 19 30 16 37 -3 7 0 16 6 20 7 5 8 2 4 -7 -4 -8 2 -3 14 10 11 13 19 30 16 37 -3 7 0 16 6 20 7 5 8 2 3 -7 -8 -12 -6 -12 8 0 19 15 23 36 5 25 -7 -4 -8 -3 -4 5 4 6 11 9 16 6 11 -7 31 29 28 47 -2 6 4 12 12 13 13 0 16 -44 20 -315 l6 -315 1 349 c1 191 4 351 8 354 3 3 5 -153 5 -346 l0 -352 40 0 40 0 0 435 0 435 -34 0 c-19 0 -45 -9 -60 -21 -26 -21 -37 -46 -13 -33 7 4 9 3 4 -2 -5 -5 -14 -9 -19 -9 -6 0 -13 -6 -16 -14 -3 -9 0 -11 9 -6 8 5 11 4 6 -1 -5 -5 -14 -9 -20 -9 -5 0 -12 -6 -15 -14 -3 -9 0 -11 8 -6 9 5 11 4 6 -4 -4 -6 -11 -9 -16 -6 -5 3 -16 -5 -24 -17 -19 -26 -21 -42 -4 -32 7 4 8 3 4 -5 -4 -6 -11 -9 -16 -6 -5 3 -25 -19 -44 -48 -37 -56 -44 -73 -24 -61 7 4 8 3 4 -5 -4 -6 -11 -9 -16 -6 -13 8 -43 -42 -34 -56 4 -7 3 -9 -4 -5 -6 4 -24 -13 -41 -38 -35 -50 -39 -65 -13 -45 15 13 16 12 3 -3 -7 -10 -17 -15 -22 -13 -11 8 -31 -33 -23 -47 4 -6 3 -8 -4 -4 -14 8 -86 -100 -76 -115 4 -7 3 -9 -4 -5 -6 3 -14 1 -19 -6 -4 -7 -10 133 -13 312 l-6 325 1 -348 c0 -191 -3 -347 -7 -347 -5 0 -8 158 -8 350 l0 350 -40 0 -40 0 0 -435z m410 206 c-5 -11 -15 -23 -21 -27 -6 -3 -3 5 6 20 20 30 30 35 15 7z m-220 -330 c-5 -11 -15 -23 -21 -27 -6 -3 -3 5 6 20 20 30 30 35 15 7z"/>
 <path d="M7985 4085 c0 -242 1 -340 2 -217 2 123 2 321 0 440 -1 119 -2 19 -2 -223z"/>
 <path d="M8115 4085 c0 -242 1 -340 2 -217 2 123 2 321 0 440 -1 119 -2 19 -2 -223z"/>
 <path d="M8130 4085 l0 -435 45 0 45 0 0 435 0 435 -45 0 -45 0 0 -435z"/>
 <path d="M8548 4133 l-3 -388 -5 385 -5 385 -3 -382 -2 -383 -122 -2 -123 -2 135 -6 135 -6 -137 -2 -138 -2 0 -40 0 -40 315 0 315 0 0 40 0 40 -137 2 -138 2 135 6 135 6 -122 2 -123 2 -2 388 -3 387 -5 -390 -5 -390 -3 388 -2 387 -45 0 -45 0 -2 -387z"/>
 <path d="M8930 4090 c-3 -239 -4 -437 -2 -439 10 -18 12 59 10 440 l-3 434 -5 -435z"/>
 <path d="M8950 4085 l0 -435 259 0 259 0 6 31 c3 17 6 35 6 40 0 5 -100 10 -222 11 l-223 2 220 6 220 6 -207 2 -208 2 0 125 0 125 178 2 177 2 -190 6 -190 6 193 2 192 2 0 40 0 40 -192 2 -193 2 190 6 190 6 -177 2 -178 2 0 145 0 145 218 2 217 2 -230 6 -230 6 233 2 232 2 0 23 c0 12 -3 32 -6 45 l-6 22 -269 0 -269 0 0 -435z m97 108 c-1 -43 -3 -10 -3 72 0 83 2 118 3 78 2 -40 2 -107 0 -150z m0 -380 c-2 -37 -3 -9 -3 62 0 72 1 102 3 68 2 -34 2 -93 0 -130z"/>
 <path d="M6015 2785 c0 -952 1 -1339 2 -862 2 478 2 1256 0 1730 -1 474 -2 84 -2 -868z"/>
 <path d="M7325 4080 c0 -239 1 -337 2 -217 2 119 2 315 0 435 -1 119 -2 21 -2 -218z"/>
 <path d="M8245 4080 c0 -239 1 -337 2 -217 2 119 2 315 0 435 -1 119 -2 21 -2 -218z"/>
 <path d="M6925 4433 c-57 -8 -123 -34 -141 -55 -19 -21 -18 -21 13 1 52 35 163 54 246 41 38 -6 72 -9 74 -7 10 11 -146 27 -192 20z"/>
 <path d="M6583 4090 c0 -30 2 -43 4 -27 2 15 2 39 0 55 -2 15 -4 2 -4 -28z"/>
 <path d="M9433 4065 c0 -22 2 -30 4 -17 2 12 2 30 0 40 -3 9 -5 -1 -4 -23z"/>
 <path d="M7173 4033 c9 -2 25 -2 35 0 9 3 1 5 -18 5 -19 0 -27 -2 -17 -5z"/>
 <path d="M7155 3765 c-16 -7 -23 -14 -15 -14 8 0 26 6 40 14 32 18 14 18 -25 0z"/>
 <path d="M6990 3740 l-75 -6 65 -2 c36 0 83 3 105 7 49 11 19 11 -95 1z"/>
 <path d="M7222 3705 c0 -16 2 -22 5 -12 2 9 2 23 0 30 -3 6 -5 -1 -5 -18z"/>
 <path d="M8263 3690 c0 -25 2 -35 4 -22 2 12 2 32 0 45 -2 12 -4 2 -4 -23z"/>
 <path d="M9486 3694 c-4 -20 -5 -38 -3 -40 3 -3 8 11 11 32 4 20 5 38 3 40 -3 3 -8 -11 -11 -32z"/>
 <path d="M6776 3656 c11 -8 34 -18 50 -21 22 -5 18 -1 -15 14 -51 24 -64 27 -35 7z"/>
 <path d="M7150 3644 c-22 -8 -28 -13 -15 -13 11 0 34 6 50 14 38 17 11 17 -35 -1z"/>
 <path d="M6923 3616 c34 -5 85 -5 120 0 57 9 51 9 -58 9 -107 0 -114 -1 -62 -9z"/>
 <path d="M8381 3249 c-18 -6 -31 -12 -28 -15 3 -3 23 0 44 6 40 12 221 10 258 -3 11 -4 7 -1 -10 7 -35 17 -209 20 -264 5z"/>
 <path d="M6418 3243 c12 -2 32 -2 45 0 12 2 2 4 -23 4 -25 0 -35 -2 -22 -4z"/>
 <path d="M6668 3243 c12 -2 32 -2 45 0 12 2 2 4 -23 4 -25 0 -35 -2 -22 -4z"/>
 <path d="M7233 3243 c9 -2 25 -2 35 0 9 3 1 5 -18 5 -19 0 -27 -2 -17 -5z"/>
 <path d="M7448 3243 c12 -2 32 -2 45 0 12 2 2 4 -23 4 -25 0 -35 -2 -22 -4z"/>
 <path d="M7999 3243 c-1 -5 -1 -11 -1 -15 1 -3 -6 -12 -15 -20 -14 -11 -16 -11 -8 1 6 10 4 12 -4 7 -7 -5 -10 -14 -7 -22 3 -7 0 -16 -6 -20 -7 -5 -8 -2 -4 7 4 8 -2 3 -14 -10 -11 -13 -19 -30 -16 -37 3 -7 0 -16 -6 -20 -7 -5 -8 -2 -4 7 4 8 -2 3 -14 -10 -11 -13 -19 -30 -16 -37 3 -7 0 -16 -6 -20 -7 -5 -8 -2 -3 7 8 12 6 12 -8 0 -20 -16 -23 -36 -4 -25 7 4 9 3 4 -2 -5 -5 -14 -9 -19 -9 -6 0 -13 -6 -16 -14 -3 -9 0 -11 9 -6 8 5 11 4 6 -1 -5 -5 -14 -9 -19 -9 -6 0 -13 -6 -16 -14 -3 -9 0 -11 9 -6 8 5 11 4 6 -1 -5 -5 -14 -9 -20 -9 -7 0 -11 -8 -11 -17 1 -10 -3 -16 -8 -15 -6 1 -13 -4 -16 -12 -3 -9 0 -11 8 -6 9 5 11 4 6 -4 -4 -6 -11 -9 -16 -6 -5 3 -16 -5 -24 -17 -19 -27 -21 -42 -3 -32 7 4 9 3 4 -2 -5 -5 -14 -9 -20 -9 -7 0 -11 -8 -11 -17 1 -10 -3 -16 -8 -15 -6 1 -13 -4 -16 -12 -3 -9 0 -11 8 -6 9 5 11 4 6 -4 -4 -6 -11 -9 -16 -6 -5 3 -14 -5 -21 -17 -12 -22 -11 -22 6 -8 18 15 18 14 1 -12 -18 -28 -33 -39 -21 -15 4 6 -5 -1 -19 -16 -27 -29 -35 -53 -13 -41 7 4 9 3 4 -2 -5 -5 -14 -9 -20 -9 -5 0 -12 -6 -15 -14 -3 -8 0 -11 7 -7 17 11 13 0 -6 -15 -14 -12 -16 -12 -9 1 4 8 -2 4 -13 -9 -23 -26 -28 -46 -8 -35 7 4 9 3 4 -2 -29 -31 -32 -5 -37 316 l-6 325 -1 -354 c-1 -194 -5 -356 -8 -360 -4 -3 -6 -1 -5 4 1 6 2 169 1 363 l-1 352 -40 0 -40 0 2 -437 c3 -489 -3 -453 73 -439 36 7 93 75 79 97 -4 7 -3 10 4 5 6 -4 26 16 46 47 38 57 44 73 24 61 -9 -5 -9 -2 1 9 16 20 26 23 15 5 -5 -9 -2 -9 9 1 19 15 23 36 5 25 -7 -4 -8 -3 -4 5 4 6 11 9 16 6 4 -2 31 30 59 73 51 79 61 99 39 86 -7 -4 -8 -3 -4 5 4 6 11 9 16 6 5 -3 16 5 24 17 21 29 21 48 0 22 -14 -18 -15 -18 -4 4 6 12 15 20 20 17 5 -3 16 5 24 17 19 26 21 42 4 32 -7 -4 -8 -3 -4 5 4 6 11 9 16 6 5 -3 16 5 24 17 19 27 21 42 4 32 -8 -4 -10 -3 -5 2 5 5 14 9 20 9 5 0 12 6 15 14 3 9 0 11 -8 6 -9 -6 -11 -4 -5 4 20 33 25 -28 28 -319 l2 -315 3 333 c1 250 -1 331 -10 326 -7 -4 -8 -3 -4 4 22 36 26 -12 28 -325 l3 -338 38 -3 37 -3 0 440 0 441 -32 1 -33 2 35 7 35 7 -32 2 c-18 0 -34 -2 -34 -6z m-238 -530 c-5 -10 -17 -27 -26 -38 -16 -19 -17 -19 -3 5 26 46 29 50 34 50 3 0 0 -8 -5 -17z m-137 -208 c-9 -14 -18 -25 -21 -25 -5 0 5 18 20 38 17 22 18 13 1 -13z"/>
 <path d="M9193 3243 c15 -2 37 -2 50 0 12 2 0 4 -28 4 -27 0 -38 -2 -22 -4z"/>
 <path d="M9535 3240 l50 -7 -49 -1 c-47 -2 -48 -3 -42 -29 l6 -28 -15 25 c-23 41 -17 12 16 -72 17 -43 35 -78 40 -78 5 0 16 -16 24 -36 21 -51 17 -57 -6 -9 -23 49 -25 36 -3 -22 9 -24 23 -43 30 -43 8 0 14 -4 14 -9 0 -5 3 -18 6 -28 3 -10 -2 -7 -10 7 -24 40 -18 11 15 -70 16 -41 37 -78 45 -83 8 -4 14 -13 14 -20 0 -7 -4 -6 -10 3 -18 27 -10 -7 11 -51 19 -40 21 -34 5 16 -3 11 3 2 14 -20 21 -43 29 -84 10 -55 -15 22 -12 5 6 -39 8 -22 22 -42 30 -45 8 -3 14 -11 14 -18 0 -9 -3 -8 -10 2 -15 23 -12 -4 4 -42 8 -18 22 -52 31 -74 10 -24 27 -46 41 -53 28 -13 87 -15 98 -3 4 4 13 7 19 7 7 0 11 14 9 35 -1 23 1 30 7 22 6 -10 13 -2 25 27 20 51 20 64 0 31 l-15 -25 7 25 c3 14 15 45 25 69 10 24 19 50 19 57 0 8 6 14 14 14 9 0 27 32 45 81 32 83 38 105 21 79 -9 -13 -10 -13 -10 0 0 17 19 50 20 35 1 -15 39 58 39 75 0 8 -6 2 -14 -15 -12 -25 -14 -26 -9 -5 4 14 14 33 24 42 23 21 54 114 44 129 -4 7 -3 9 3 6 6 -4 14 0 17 9 9 24 7 31 -4 14 -8 -13 -10 -12 -10 3 0 9 6 17 14 17 7 0 21 19 30 43 18 48 21 69 5 47 -8 -11 -9 -7 -4 18 l7 32 -49 2 -48 1 50 7 50 8 -50 -2 c-32 -1 -50 -6 -51 -13 -4 -38 -4 -38 -13 -25 -6 10 -11 5 -20 -19 -15 -43 -13 -50 4 -19 17 30 19 22 5 -16 -6 -15 -14 -24 -17 -20 -4 4 -15 -13 -24 -36 -21 -51 -24 -86 -4 -43 16 35 20 28 5 -9 l-10 -26 -195 0 c-169 0 -196 2 -202 16 -3 9 -8 12 -12 5 -4 -5 -14 11 -23 37 -15 40 -15 44 -1 27 15 -19 15 -19 8 5 -4 14 -12 32 -17 40 -7 12 -8 10 -4 -5 6 -20 6 -20 -9 -1 -11 14 -12 23 -4 32 7 9 7 18 -1 31 -9 16 -10 15 -5 -7 5 -22 5 -23 -6 -7 -6 11 -12 26 -13 35 -2 13 -14 17 -52 18 l-49 2 50 -8z m438 -237 c-56 -2 -151 -2 -210 0 -59 1 -13 3 102 3 116 0 164 -2 108 -3z m185 -43 c-5 -17 -15 -33 -21 -37 -5 -3 -7 -2 -4 4 4 6 11 22 16 37 14 36 22 33 9 -4z m-200 -47 c-49 -2 -127 -2 -175 0 -49 1 -9 3 87 3 96 0 136 -2 88 -3z m42 -39 c-13 -33 -12 -43 0 -24 8 11 9 7 4 -15 -9 -42 -26 -69 -19 -30 l6 30 -14 -31 c-8 -17 -17 -41 -21 -55 l-7 -24 16 25 16 25 -7 -25 c-3 -14 -13 -38 -20 -55 -12 -26 -13 -27 -9 -5 3 17 -2 12 -15 -15 -23 -46 -26 -69 -7 -59 6 4 2 -3 -10 -14 -11 -12 -27 -38 -33 -58 -11 -33 -14 -35 -23 -18 -6 10 -13 21 -17 24 -9 7 -30 47 -30 57 1 4 7 -3 15 -17 25 -43 16 -8 -20 80 -19 47 -34 78 -35 70 0 -13 -1 -13 -10 0 -6 9 -5 17 1 21 6 4 4 21 -7 47 -9 23 -20 40 -24 37 -4 -3 -10 2 -14 10 -3 8 -1 15 4 15 6 0 10 7 10 15 0 13 22 15 140 15 l140 0 -10 -26z m-201 -472 c6 -12 9 -22 7 -22 -10 0 -36 59 -35 77 0 12 3 9 8 -8 5 -14 14 -35 20 -47z"/>
 <path d="M10428 3243 c12 -2 32 -2 45 0 12 2 2 4 -23 4 -25 0 -35 -2 -22 -4z"/>
 <path d="M10943 3243 c76 -2 198 -2 270 0 73 1 11 3 -138 3 -148 0 -208 -2 -132 -3z"/>
 <path d="M8390 3229 c-13 -6 -34 -8 -46 -5 -27 7 -128 -79 -120 -101 3 -8 2 -12 -3 -9 -10 7 -41 -37 -41 -56 1 -7 8 -1 16 15 20 37 29 35 9 -3 -8 -16 -15 -37 -16 -47 0 -17 -1 -17 -8 1 -5 14 -11 4 -22 -40 -20 -83 -17 -332 5 -399 9 -27 14 -36 11 -20 -3 17 -7 55 -10 85 -2 30 -2 44 1 30 19 -106 28 -148 36 -165 9 -20 9 -20 -6 -1 -18 23 -21 14 -5 -15 5 -11 14 -17 19 -14 4 3 6 -3 4 -12 -3 -12 10 -32 37 -58 23 -22 39 -34 35 -27 -10 17 -3 15 36 -7 49 -29 148 -45 231 -38 86 8 130 21 177 55 29 21 32 22 16 4 -10 -11 -37 -30 -60 -41 -22 -12 -34 -21 -26 -21 25 0 110 59 110 76 0 8 4 13 9 9 13 -7 34 32 25 47 -4 7 -3 8 4 4 26 -16 73 143 71 240 -2 53 -3 50 -10 -30 -4 -49 -12 -93 -17 -98 -7 -7 -7 3 -1 28 4 22 9 102 10 179 2 112 4 127 9 75 l7 -65 1 65 c2 73 -18 162 -51 229 -20 41 -110 131 -131 131 -5 0 12 -16 38 -35 25 -20 46 -38 46 -41 0 -3 -17 8 -37 24 -59 45 -123 62 -232 61 -53 0 -107 -5 -121 -10z m-70 -26 c-14 -9 -39 -28 -56 -42 -16 -14 -10 -7 14 17 24 23 49 42 55 42 6 0 0 -7 -13 -17z m310 -67 c19 -7 35 -19 35 -26 0 -7 6 -15 14 -18 8 -3 11 0 7 7 -11 17 0 13 15 -6 10 -11 10 -14 2 -9 -18 10 -16 -6 3 -30 14 -17 15 -17 10 -1 -3 11 -2 16 4 12 6 -3 7 -17 4 -31 -5 -19 -2 -24 12 -24 14 0 16 -2 6 -9 -11 -7 -11 -23 -1 -91 11 -79 8 -221 -8 -295 -3 -16 -3 -27 1 -23 4 3 11 28 16 55 l9 48 -5 -59 c-4 -56 -22 -112 -24 -76 0 9 -6 5 -15 -10 -17 -31 -19 -44 -3 -34 7 4 8 3 4 -5 -4 -6 -10 -9 -14 -7 -4 2 -21 -7 -37 -21 l-30 -26 28 17 c16 10 31 16 33 14 2 -3 -14 -14 -36 -27 -45 -25 -145 -37 -216 -26 -43 7 -46 9 -24 16 l25 7 -26 1 c-15 1 -38 11 -53 22 -15 12 -29 19 -32 16 -3 -2 10 -14 28 -26 18 -11 29 -21 25 -21 -16 0 -67 41 -78 63 -10 21 -10 21 5 3 9 -11 16 -15 16 -10 0 16 -37 84 -43 78 -12 -12 -27 103 -27 203 0 103 20 257 28 219 3 -14 9 -8 23 24 22 50 23 53 7 44 -7 -4 -1 5 13 20 14 15 43 33 65 41 48 17 187 18 234 1z m228 -176 c0 -14 -6 0 -13 30 -8 30 -14 60 -14 65 2 20 27 -71 27 -95z m-684 -2 c-4 -24 -10 -90 -15 -148 l-8 -105 5 120 c4 116 11 175 21 175 3 0 1 -19 -3 -42z m585 -37 c1 -48 -5 -35 -12 24 -4 32 -3 43 3 30 5 -11 9 -35 9 -54z m8 -178 c-2 -27 -3 -5 -3 47 0 52 1 74 3 48 2 -27 2 -69 0 -95z"/>
 <path d="M8418 3132 c-10 -4 29 -7 85 -7 56 0 116 -3 132 -8 26 -6 25 -5 -5 7 -36 15 -181 20 -212 8z"/>
 <path d="M8349 3099 c-19 -16 -20 -18 -4 -10 34 17 51 31 39 31 -7 0 -22 -9 -35 -21z"/>
 <path d="M8276 2933 c-7 -48 -6 -258 3 -297 3 -17 6 52 6 152 0 100 -1 182 -1 182 -1 0 -4 -17 -8 -37z"/>
 <path d="M8478 2443 c17 -2 47 -2 65 0 17 2 3 4 -33 4 -36 0 -50 -2 -32 -4z"/>
 <path d="M6392 2793 l3 -438 45 0 45 0 0 435 0 435 -48 3 -47 3 2 -438z"/>
 <path d="M6652 2793 l3 -438 48 -1 c46 -1 51 1 78 39 16 23 27 47 25 54 -3 7 0 15 6 19 7 5 8 2 4 -7 -4 -8 2 -3 13 10 23 25 28 47 9 35 -7 -4 -8 -3 -4 5 4 6 11 9 16 6 5 -3 16 5 24 17 19 27 21 42 4 32 -9 -5 -9 -2 1 9 16 20 25 22 16 5 -4 -7 3 -2 14 11 23 25 28 47 9 35 -7 -4 -8 -3 -4 5 4 6 11 9 16 6 5 -3 14 5 21 17 12 22 11 22 -6 8 -18 -15 -18 -14 -1 13 18 27 34 39 20 15 -4 -7 3 -4 15 7 13 11 20 27 18 37 -3 10 0 21 5 25 7 3 8 1 4 -5 -4 -7 -5 -12 -2 -12 5 0 66 88 66 96 0 3 -6 2 -12 -2 -8 -4 -10 -3 -5 2 5 5 14 9 20 9 5 0 12 6 15 14 3 9 0 11 -9 6 -8 -5 -11 -4 -6 1 5 5 14 9 20 9 5 0 12 6 15 14 3 9 0 11 -9 6 -8 -5 -11 -4 -6 1 5 5 14 9 20 9 5 0 12 6 15 14 3 9 0 11 -9 6 -8 -5 -11 -4 -6 1 5 5 14 9 20 9 5 0 12 6 15 14 3 9 0 11 -9 6 -8 -5 -11 -4 -6 1 5 5 14 9 20 9 5 0 12 6 15 14 3 9 0 11 -8 6 -9 -6 -11 -4 -5 4 20 33 25 -28 28 -319 l2 -315 3 333 c1 250 -1 331 -10 326 -7 -4 -8 -3 -4 4 22 36 26 -12 28 -325 l3 -338 38 -3 37 -3 0 440 0 441 -27 0 c-14 0 -35 -8 -45 -17 -18 -16 -18 -16 -12 2 5 13 4 16 -5 11 -7 -5 -11 -17 -8 -27 3 -10 -2 -24 -12 -31 -15 -12 -15 -11 -1 7 14 19 14 19 -3 6 -10 -8 -16 -20 -13 -27 3 -8 0 -13 -6 -11 -6 1 -13 -4 -16 -12 -3 -9 0 -11 9 -6 8 5 11 4 6 -1 -5 -5 -14 -9 -20 -9 -5 0 -12 -6 -15 -14 -3 -9 0 -11 8 -6 9 5 11 4 6 -4 -4 -6 -11 -9 -15 -6 -5 2 -20 -13 -35 -35 -29 -44 -32 -55 -13 -44 7 4 9 3 4 -2 -5 -5 -14 -9 -20 -9 -5 0 -12 -6 -15 -14 -3 -8 0 -11 7 -7 17 11 13 0 -6 -15 -14 -12 -16 -12 -9 1 4 8 -2 4 -13 -9 -12 -13 -21 -28 -21 -34 0 -6 7 -2 16 9 14 18 15 18 4 -4 -6 -12 -15 -20 -20 -17 -5 3 -16 -5 -24 -17 -19 -27 -21 -42 -3 -32 8 5 8 2 -2 -9 -16 -20 -26 -23 -15 -4 5 8 2 8 -9 -2 -19 -15 -23 -36 -5 -25 7 4 8 3 4 -5 -4 -6 -11 -9 -15 -6 -5 2 -32 -31 -60 -74 -51 -79 -60 -98 -41 -86 16 10 11 -1 -7 -16 -14 -12 -16 -12 -8 0 5 10 4 12 -4 7 -6 -4 -18 -22 -27 -39 l-15 -32 22 25 c20 23 20 23 8 2 -8 -13 -18 -24 -24 -25 -6 -1 -12 116 -15 328 l-6 330 -1 -354 c-1 -194 -5 -356 -8 -360 -4 -3 -6 -1 -5 4 1 6 2 169 1 363 l-1 352 -40 0 -40 0 2 -437z m442 252 c-9 -14 -18 -25 -21 -25 -5 0 5 18 20 38 17 22 18 13 1 -13z m-60 -250 c-9 -14 -18 -25 -21 -25 -5 0 5 18 20 38 17 22 18 13 1 -13z m-164 -85 c-12 -16 -24 -30 -26 -30 -3 0 4 14 16 30 12 17 24 30 26 30 3 0 -4 -13 -16 -30z"/>
 <path d="M9156 3203 c-9 -16 -16 -22 -16 -13 -1 8 -10 -7 -21 -34 -12 -29 -16 -52 -10 -55 5 -4 3 -18 -5 -36 -12 -26 -13 -27 -9 -5 3 15 -4 7 -16 -19 -12 -26 -17 -46 -11 -50 5 -3 6 -15 1 -26 -4 -12 -8 -14 -8 -5 -1 19 -17 1 -26 -30 -7 -24 -7 -25 9 -5 16 19 16 19 5 -8 -7 -15 -15 -25 -18 -22 -3 3 -13 -15 -23 -41 -15 -37 -16 -49 -6 -55 9 -6 9 -9 -4 -14 -9 -4 -24 -24 -32 -46 -18 -45 -20 -63 -6 -54 6 3 7 -1 4 -9 -3 -9 -10 -14 -14 -11 -9 5 -10 2 -46 -98 -14 -37 -22 -72 -19 -77 3 -6 2 -10 -3 -10 -10 0 -42 -72 -42 -93 1 -6 8 2 16 18 8 17 12 22 9 12 -18 -63 -18 -63 17 -65 56 -4 85 7 98 39 7 16 10 32 6 36 -3 3 -6 0 -6 -8 0 -9 -7 -24 -14 -35 -12 -15 -11 -8 2 28 9 26 19 42 23 36 4 -5 14 12 23 38 9 27 12 50 7 53 -5 4 -3 19 5 36 12 26 13 27 9 5 -3 -17 2 -12 15 15 11 22 19 47 19 55 0 8 -6 2 -14 -15 -17 -39 -18 -21 0 25 7 19 14 28 15 20 0 -13 2 -13 9 0 5 8 12 26 15 40 l7 25 -15 -25 c-9 -14 -15 -20 -15 -15 0 14 28 62 29 50 2 -14 39 77 39 95 0 8 -7 2 -15 -15 -8 -16 -12 -22 -9 -12 3 10 5 25 5 33 0 8 6 14 14 14 7 0 21 21 31 46 15 39 15 48 4 55 -11 7 -11 9 3 9 9 0 21 13 27 31 15 44 13 60 -4 24 -19 -41 -18 -28 1 29 18 52 22 52 40 -2 12 -34 12 -35 -3 -17 -15 19 -15 19 -8 -5 4 -14 11 -32 16 -40 7 -13 9 -13 9 0 1 8 8 -3 16 -24 8 -22 12 -41 10 -44 -3 -2 -8 8 -12 22 -3 15 -8 25 -10 23 -8 -8 49 -169 66 -185 9 -9 25 -37 34 -62 10 -25 14 -41 9 -37 -4 5 -16 27 -25 50 -9 23 -17 36 -17 29 -1 -19 26 -81 44 -98 8 -9 15 -21 15 -27 0 -7 -5 -6 -11 3 -9 12 -10 11 -4 -5 3 -11 15 -48 27 -83 11 -34 27 -70 36 -79 16 -15 44 -83 35 -83 -2 0 -10 15 -18 33 -8 17 -14 27 -15 21 0 -7 9 -31 20 -55 13 -29 20 -37 20 -24 1 18 2 18 10 -2 8 -19 17 -23 55 -23 51 0 51 0 19 78 -7 18 -9 30 -4 27 5 -3 14 -22 20 -43 7 -20 17 -41 22 -47 5 -5 -1 18 -13 52 -13 34 -26 60 -31 57 -4 -3 -13 7 -18 21 -14 37 -12 44 5 15 19 -33 19 -20 -1 29 -8 22 -22 42 -30 45 -8 3 -14 13 -14 23 0 16 2 16 11 3 14 -19 12 -13 -31 105 -18 50 -39 109 -48 133 -9 26 -21 42 -31 42 -13 0 -14 2 -2 9 12 8 11 17 -7 58 -12 26 -22 41 -22 33 -1 -8 -10 7 -21 34 -11 27 -18 51 -15 53 2 2 9 -12 16 -32 7 -20 14 -34 18 -31 3 3 -2 23 -10 43 -9 21 -24 59 -33 86 -9 26 -23 47 -31 47 -8 0 -14 9 -14 20 0 17 -7 20 -50 20 -44 0 -51 -3 -64 -27z m163 -103 c0 -8 -6 0 -14 19 -8 18 -15 36 -15 40 1 13 29 -45 29 -59z"/>
 <path d="M10398 2843 l-3 -388 -5 385 -5 385 -3 -382 -2 -383 -122 -2 -123 -2 135 -6 135 -6 -138 -2 -138 -2 3 -42 3 -43 310 0 310 0 3 43 3 42 -138 2 -138 2 140 6 140 6 -127 2 -128 2 -2 383 -3 382 -5 -385 -5 -385 -3 388 -2 387 -45 0 -45 0 -2 -387z"/>
 <path d="M10802 2793 l3 -438 260 0 259 0 4 43 3 42 -223 2 -223 2 220 6 220 6 -212 2 -213 2 0 125 0 125 188 2 187 2 -195 6 -195 6 193 2 192 2 0 40 0 40 -192 2 -193 2 190 6 190 6 -182 2 -183 2 0 145 0 145 228 2 227 2 -235 6 -235 6 233 2 c213 2 232 3 232 20 0 15 2 15 11 2 9 -12 10 -12 5 3 -3 10 -6 28 -7 40 -1 20 -2 20 -9 -3 l-8 -25 -1 28 -1 27 -270 0 -270 0 2 -437z"/>
 <path d="M6375 2790 c0 -239 1 -337 2 -217 2 119 2 315 0 435 -1 119 -2 21 -2 -218z"/>
 <path d="M6505 2790 c0 -239 1 -337 2 -217 2 119 2 315 0 435 -1 119 -2 21 -2 -218z"/>
 <path d="M6635 2790 c0 -239 1 -337 2 -217 2 119 2 315 0 435 -1 119 -2 21 -2 -218z"/>
 <path d="M7295 2790 c0 -239 1 -337 2 -217 2 119 2 315 0 435 -1 119 -2 21 -2 -218z"/>
 <path d="M7415 2790 c0 -239 1 -337 2 -217 2 119 2 315 0 435 -1 119 -2 21 -2 -218z"/>
 <path d="M8075 2790 c0 -239 1 -337 2 -217 2 119 2 315 0 435 -1 119 -2 21 -2 -218z"/>
 <path d="M10780 2795 c-3 -236 -4 -432 -3 -434 11 -18 13 58 11 435 l-3 429 -5 -430z"/>
 <path d="M11282 2770 c0 -19 2 -27 5 -17 2 9 2 25 0 35 -3 9 -5 1 -5 -18z"/>
 <path d="M10010 2573 c-23 -58 -23 -61 0 -20 12 21 20 43 18 48 -2 6 -10 -7 -18 -28z"/>
 <path d="M10113 2400 c0 -25 2 -35 4 -22 2 12 2 32 0 45 -2 12 -4 2 -4 -23z"/>
 <path d="M11343 2400 c0 -25 2 -35 4 -22 2 12 2 32 0 45 -2 12 -4 2 -4 -23z"/>
 <path d="M8300 2375 c0 -8 61 -36 70 -33 5 2 -9 11 -30 20 -22 9 -40 15 -40 13z"/>
 <path d="M8422 2328 c29 -8 144 -8 182 1 17 3 -23 6 -88 6 -64 0 -107 -3 -94 -7z"/>
 <path d="M7495 1955 c-38 -13 -38 -14 -5 -7 45 9 206 9 245 0 l30 -7 -30 14 c-39 18 -187 18 -240 0z"/>
 <path d="M6418 1953 c12 -2 32 -2 45 0 12 2 2 4 -23 4 -25 0 -35 -2 -22 -4z"/>
 <path d="M6668 1953 c12 -2 32 -2 45 0 12 2 2 4 -23 4 -25 0 -35 -2 -22 -4z"/>
 <path d="M7233 1953 c9 -2 25 -2 35 0 9 3 1 5 -18 5 -19 0 -27 -2 -17 -5z"/>
 <path d="M8008 1953 c12 -2 32 -2 45 0 12 2 2 4 -23 4 -25 0 -35 -2 -22 -4z"/>
 <path d="M8668 1953 c12 -2 32 -2 45 0 12 2 2 4 -23 4 -25 0 -35 -2 -22 -4z"/>
 <path d="M8918 1953 c12 -2 32 -2 45 0 12 2 2 4 -23 4 -25 0 -35 -2 -22 -4z"/>
 <path d="M9423 1953 c15 -2 37 -2 50 0 12 2 0 4 -28 4 -27 0 -38 -2 -22 -4z"/>
 <path d="M9683 1953 c75 -2 199 -2 275 0 75 1 13 3 -138 3 -151 0 -213 -2 -137 -3z"/>
 <path d="M7480 1931 c-129 -43 -137 -50 -119 -101 7 -20 8 -17 4 15 -3 29 -2 35 5 20 5 -11 9 -30 9 -42 1 -13 3 -23 5 -23 2 0 28 11 57 24 123 56 279 52 329 -9 22 -26 32 -144 15 -179 -7 -15 -5 -18 6 -11 8 5 3 -3 -10 -18 -27 -30 -62 -48 -174 -88 -44 -16 -96 -38 -115 -49 -18 -11 -37 -18 -42 -15 -5 3 -26 -16 -47 -41 -35 -43 -38 -53 -41 -119 -3 -58 0 -80 17 -114 12 -23 26 -39 31 -36 5 3 12 0 16 -6 5 -8 3 -9 -6 -4 -8 5 -11 3 -8 -6 2 -8 25 -28 51 -46 38 -25 55 -31 85 -27 26 3 31 2 18 -4 -19 -8 -18 -9 5 -15 31 -9 145 -7 184 3 17 4 -14 6 -70 4 l-100 -3 95 9 c53 5 116 16 140 25 25 9 52 17 60 19 8 2 15 8 14 14 -1 7 -2 24 -3 40 -2 24 -3 25 -11 7 -8 -19 -9 -18 -9 4 -1 20 -5 22 -23 16 -85 -26 -130 -35 -184 -35 -85 0 -116 8 -150 37 l-29 25 33 -22 c17 -12 40 -19 50 -17 13 4 12 5 -5 6 -24 1 -73 53 -74 79 0 14 -2 13 -9 -3 -7 -15 -9 -10 -9 23 -1 23 4 42 9 42 6 0 10 5 10 11 0 5 -6 7 -12 3 -8 -4 -10 -3 -5 2 5 5 14 9 20 9 5 0 12 6 15 14 3 8 0 11 -7 7 -17 -11 -13 0 6 15 11 10 14 10 9 2 -10 -18 -7 -17 60 17 32 17 48 28 34 25 -22 -4 -23 -4 -5 5 11 5 57 23 101 40 52 19 100 46 130 72 27 23 40 32 30 20 -11 -12 -15 -22 -10 -22 13 0 64 80 64 100 0 13 -1 13 -10 0 -7 -10 -8 0 -4 32 4 26 1 69 -7 100 -7 29 -12 60 -11 69 3 17 -89 109 -109 109 -7 0 6 -13 29 -29 22 -16 43 -35 48 -42 4 -7 -10 1 -32 18 -21 17 -61 38 -87 47 -64 22 -187 20 -257 -3z m337 -253 c-2 -13 -4 -5 -4 17 -1 22 1 32 4 23 2 -10 2 -28 0 -40z m-241 -277 c-3 -5 -16 -11 -28 -14 -22 -6 -22 -5 -4 8 22 17 40 20 32 6z m-182 -32 c-12 -24 -15 -51 -12 -105 2 -40 0 -67 -4 -61 -14 22 -9 137 7 167 9 17 18 30 21 30 2 0 -3 -14 -12 -31z m129 -299 c6 0 8 -3 5 -6 -8 -7 -61 21 -78 42 -8 9 3 5 24 -10 21 -14 43 -26 49 -26z"/>
 <path d="M6390 1500 l0 -441 48 3 47 3 0 435 0 435 -47 3 -48 3 0 -441z"/>
 <path d="M6650 1499 l0 -441 48 3 c26 1 55 9 65 17 19 17 24 37 5 26 -7 -4 -8 -3 -4 5 4 6 11 9 16 6 5 -3 14 3 19 14 14 26 14 34 -1 25 -9 -5 -9 -2 1 9 16 20 25 22 16 5 -4 -7 3 -2 14 11 12 13 21 28 21 34 0 6 -7 2 -16 -9 -14 -18 -15 -18 -4 4 6 12 15 20 20 17 5 -3 16 5 24 17 19 27 21 42 4 32 -9 -5 -9 -2 1 9 16 20 25 22 16 5 -4 -7 3 -2 14 11 23 25 28 47 9 35 -7 -5 -8 -3 -4 5 5 7 11 10 14 7 7 -7 32 13 32 26 0 6 -8 4 -17 -3 -14 -12 -14 -10 1 14 18 27 33 38 21 15 -4 -7 5 0 19 15 27 29 35 54 14 41 -7 -4 -8 -3 -4 5 4 6 11 9 16 6 11 -7 42 43 35 56 -4 5 -1 8 6 7 6 -2 14 3 17 11 3 9 0 11 -8 6 -9 -5 -11 -4 -6 4 4 6 11 9 16 6 5 -3 16 5 24 17 18 25 21 42 6 33 -16 -10 -11 1 7 16 14 12 16 12 9 -1 -4 -8 2 -4 13 9 23 26 28 46 9 35 -8 -4 -10 -3 -5 2 5 5 14 9 20 9 5 0 12 6 15 14 3 9 0 11 -8 6 -9 -6 -11 -4 -5 4 20 33 25 -28 28 -319 l2 -315 3 333 c1 250 -1 331 -10 326 -7 -4 -8 -3 -4 4 22 36 26 -11 26 -328 l0 -340 40 0 40 0 0 440 0 441 -40 -3 c-41 -2 -67 -19 -56 -37 4 -5 1 -13 -5 -17 -8 -5 -10 -2 -5 7 4 8 -2 3 -14 -10 -11 -13 -19 -30 -16 -37 3 -7 0 -16 -6 -20 -7 -5 -8 -2 -3 7 8 12 6 12 -8 0 -20 -16 -23 -36 -4 -25 7 4 9 3 4 -2 -5 -5 -14 -9 -20 -9 -5 0 -12 -6 -15 -14 -3 -9 0 -11 9 -6 8 5 11 4 6 -1 -5 -5 -14 -9 -20 -9 -5 0 -12 -6 -15 -14 -3 -9 0 -11 9 -6 8 5 11 4 6 -1 -5 -5 -14 -9 -20 -9 -5 0 -12 -6 -15 -14 -3 -9 0 -11 9 -6 8 5 11 4 6 -1 -5 -5 -14 -9 -20 -9 -5 0 -12 -6 -15 -14 -3 -9 0 -11 9 -6 8 5 11 4 6 -1 -5 -5 -14 -9 -20 -9 -7 0 -11 -8 -11 -17 1 -10 -3 -16 -8 -15 -6 1 -13 -4 -16 -12 -3 -9 0 -11 8 -6 9 5 11 4 6 -4 -4 -6 -11 -9 -16 -6 -12 7 -33 -23 -27 -40 4 -8 1 -17 -5 -21 -7 -5 -8 -2 -4 7 4 8 -2 3 -14 -10 -11 -13 -19 -30 -16 -37 3 -7 0 -16 -6 -20 -7 -5 -8 -2 -3 7 8 12 6 12 -8 0 -20 -16 -23 -36 -4 -25 7 4 9 3 4 -2 -5 -5 -13 -9 -17 -9 -10 0 -80 -95 -80 -108 0 -5 5 -5 12 -1 7 4 8 3 4 -5 -4 -6 -11 -9 -16 -6 -5 3 -16 -5 -24 -17 -21 -29 -21 -48 0 -22 14 18 15 18 4 -3 -6 -13 -16 -22 -23 -20 -9 1 -13 83 -17 327 l-6 325 -1 -354 c-1 -194 -5 -356 -8 -360 -4 -3 -6 -1 -5 4 1 6 2 169 1 363 l-1 352 -40 0 -40 0 0 -441z m224 -74 c-9 -14 -18 -25 -21 -25 -5 0 5 18 20 38 17 22 18 13 1 -13z"/>
 <path d="M7408 1924 c-39 -21 -35 -28 5 -8 37 19 44 24 31 24 -5 -1 -21 -8 -36 -16z"/>
 <path d="M7980 1499 l0 -441 193 4 c172 3 197 6 241 26 56 26 60 26 50 10 -4 -7 5 -2 19 11 33 30 36 41 5 16 -13 -11 -4 0 20 22 23 22 42 47 42 54 0 11 -2 11 -10 -1 -9 -13 -10 -13 -9 0 1 24 17 58 19 40 1 -8 6 -4 10 10 10 32 10 118 0 150 -5 15 -6 -4 -4 -50 l3 -75 -9 68 c-5 38 -11 75 -14 82 -3 8 0 15 6 17 8 3 7 11 -2 28 -14 29 -80 100 -92 100 -4 0 9 -16 30 -36 35 -34 35 -35 3 -10 -64 51 -96 59 -261 66 l-155 6 140 2 c98 1 152 -3 180 -13 46 -16 61 -11 19 7 -16 6 -92 14 -171 16 l-143 4 -2 166 -2 167 -6 -170 -6 -170 -2 168 -2 167 -45 0 -45 0 0 -441z m385 -8 c22 -10 47 -26 55 -36 12 -15 12 -17 1 -10 -11 6 -13 4 -6 -11 5 -10 11 -57 13 -103 3 -73 1 -88 -18 -112 -21 -29 -15 -39 9 -16 11 9 12 9 7 0 -4 -7 -16 -18 -28 -24 -16 -9 -19 -8 -13 2 6 9 4 10 -11 3 -10 -5 -79 -10 -151 -12 l-133 -3 0 160 0 161 98 2 97 2 -110 6 -110 6 130 2 c107 1 137 -2 170 -17z m-288 -243 c-1 -46 -3 -9 -3 82 0 91 2 128 3 83 2 -46 2 -120 0 -165z m370 45 c-2 -21 -4 -6 -4 32 0 39 2 55 4 38 2 -18 2 -50 0 -70z m-87 -133 c-8 -5 -73 -9 -145 -8 l-130 2 135 6 c74 3 140 7 145 8 6 1 3 -3 -5 -8z"/>
 <path d="M8340 1483 c8 -3 27 -12 43 -20 15 -7 27 -11 27 -9 0 8 -58 36 -72 35 -9 0 -8 -2 2 -6z"/>
 <path d="M8640 1500 l0 -441 48 3 47 3 0 435 0 435 -47 3 -48 3 0 -441z"/>
 <path d="M8900 1500 l0 -440 163 0 c117 0 178 4 217 16 30 8 63 16 73 18 29 4 75 57 92 104 18 54 20 149 4 203 -13 43 -60 104 -92 120 -16 8 -13 3 9 -17 16 -16 22 -23 13 -16 -9 7 -39 22 -65 33 -44 18 -46 19 -14 14 27 -4 30 -3 14 4 -25 11 -42 33 -22 29 7 -2 12 5 12 14 -1 10 2 15 7 13 4 -3 13 3 18 14 14 26 14 34 -1 25 -8 -4 -10 -3 -5 2 5 5 14 9 20 9 7 0 12 10 12 22 0 12 5 26 9 30 5 5 6 1 2 -7 -4 -8 2 -4 13 9 23 25 28 47 9 35 -7 -4 -8 -3 -4 5 4 6 11 9 16 6 12 -8 33 33 24 47 -5 7 -3 8 6 3 10 -6 12 -4 7 9 -4 9 -3 15 2 12 13 -8 34 21 28 39 -4 8 -1 17 5 21 7 5 8 2 3 -6 -6 -9 -4 -11 4 -6 7 5 10 15 7 23 -3 8 -2 11 3 8 16 -9 24 15 11 30 -15 17 -110 21 -110 4 0 -5 -4 -8 -9 -4 -13 7 -34 -32 -25 -47 4 -7 3 -8 -4 -4 -6 3 -16 -2 -21 -13 -8 -13 -8 -20 -1 -23 7 -2 4 -11 -5 -23 -12 -16 -14 -17 -9 -2 10 28 -4 20 -21 -13 -18 -35 -19 -44 -3 -34 7 4 8 3 4 -5 -4 -6 -11 -9 -16 -6 -4 3 -32 -38 -62 -90 l-53 -95 -77 0 -78 0 -2 183 -2 182 -6 -185 -6 -185 -2 188 -2 187 -45 0 -45 0 0 -440z m238 53 c-26 -2 -71 -2 -100 0 -29 2 -8 3 47 3 55 0 79 -1 53 -3z m138 -99 c19 -9 37 -22 41 -28 4 -6 -5 -3 -20 7 -38 24 -45 21 -11 -5 16 -13 32 -22 37 -20 5 1 6 -2 3 -7 -4 -5 -2 -11 3 -13 6 -1 12 -28 15 -58 5 -54 5 -55 -4 -11 -15 70 -16 69 -16 -10 1 -41 5 -77 11 -81 6 -5 2 -8 -7 -8 -10 0 -18 -4 -18 -10 0 -26 -61 -40 -180 -40 l-120 0 0 140 0 140 123 2 122 2 -135 6 -135 6 128 2 c101 2 136 -1 163 -14z m158 -49 l6 -30 -11 30 c-7 17 -16 37 -22 45 -10 13 -9 13 5 0 9 -8 19 -28 22 -45z m-437 -167 c-1 -40 -3 -8 -3 72 0 80 2 112 3 73 2 -40 2 -106 0 -145z m448 -5 c-3 -18 -10 -35 -15 -38 -6 -4 -6 4 0 20 6 15 11 56 12 93 l2 67 3 -55 c3 -30 2 -69 -2 -87z m-126 -39 c-30 -37 -64 -44 -201 -42 l-133 2 142 5 c126 5 145 8 170 28 34 26 40 28 22 7z m91 -47 c0 -2 -12 -14 -27 -28 l-28 -24 24 28 c23 25 31 32 31 24z"/>
 <path d="M9550 1500 l0 -440 260 0 260 0 0 29 c0 16 3 36 6 45 5 14 -18 16 -217 18 l-224 2 220 6 220 6 -207 2 -208 2 0 125 0 125 178 2 177 2 -190 6 -190 6 188 2 187 2 0 40 0 40 -187 2 -188 2 190 6 190 6 -177 2 -178 2 0 145 0 145 218 2 217 2 -230 6 -230 6 228 2 227 2 0 45 0 45 -270 0 -270 0 0 -440z m97 113 c-1 -43 -3 -10 -3 72 0 83 2 118 3 78 2 -40 2 -107 0 -150z m0 -380 c-2 -37 -3 -9 -3 62 0 72 1 102 3 68 2 -34 2 -93 0 -130z"/>
 <path d="M6375 1500 c0 -239 1 -337 2 -218 2 120 2 316 0 435 -1 120 -2 22 -2 -217z"/>
 <path d="M6505 1500 c0 -239 1 -337 2 -218 2 120 2 316 0 435 -1 120 -2 22 -2 -217z"/>
 <path d="M6635 1500 c0 -239 1 -337 2 -218 2 120 2 316 0 435 -1 120 -2 22 -2 -217z"/>
 <path d="M7295 1500 c0 -239 1 -337 2 -218 2 120 2 316 0 435 -1 120 -2 22 -2 -217z"/>
 <path d="M7965 1500 c0 -239 1 -337 2 -218 2 120 2 316 0 435 -1 120 -2 22 -2 -217z"/>
 <path d="M8625 1500 c0 -239 1 -337 2 -218 2 120 2 316 0 435 -1 120 -2 22 -2 -217z"/>
 <path d="M8755 1500 c0 -239 1 -337 2 -218 2 120 2 316 0 435 -1 120 -2 22 -2 -217z"/>
 <path d="M9535 1500 c0 -239 1 -337 2 -218 2 120 2 316 0 435 -1 120 -2 22 -2 -217z"/>
 <path d="M10103 1890 c0 -25 2 -35 4 -22 2 12 2 32 0 45 -2 12 -4 2 -4 -23z"/>
 <path d="M7554 1849 c-28 -4 -61 -13 -75 -19 -22 -10 -22 -10 6 -4 80 16 141 23 162 19 67 -14 78 -15 63 -6 -25 14 -102 19 -156 10z"/>
 <path d="M7731 1827 c2 -1 15 -11 29 -22 l25 -20 -19 23 c-11 12 -24 22 -29 22 -6 0 -8 -1 -6 -3z"/>
 <path d="M7902 1790 c14 -43 18 -49 18 -24 0 11 -7 29 -15 40 -13 17 -14 16 -3 -16z"/>
 <path d="M7740 1595 c-19 -14 -30 -25 -25 -25 6 0 24 11 40 25 39 31 30 31 -15 0z"/>
 <path d="M7635 1549 c-22 -10 -35 -19 -29 -19 7 0 31 9 55 20 24 11 37 19 29 19 -8 0 -33 -9 -55 -20z"/>
 <path d="M7518 1505 c-26 -14 -50 -30 -54 -37 -6 -10 -5 -11 7 -1 9 7 40 24 70 37 30 14 47 25 39 25 -8 0 -36 -11 -62 -24z"/>
 <path d="M7815 1505 c-16 -14 -60 -37 -98 -52 -37 -14 -65 -28 -63 -30 12 -12 196 81 196 100 0 10 -1 9 -35 -18z"/>
 <path d="M7795 1179 c-27 -10 -41 -18 -30 -18 11 0 38 8 60 18 50 24 36 24 -30 0z"/>
 <path d="M7628 1153 c23 -2 59 -2 80 0 20 2 1 4 -43 4 -44 0 -61 -2 -37 -4z"/>
 <path d="M10088 1134 c-5 -4 -8 -21 -7 -38 0 -30 0 -30 10 -7 11 27 8 57 -3 45z"/>
 <path d="M8385 1069 c-35 -13 -43 -18 -25 -18 14 0 41 8 60 19 43 23 31 23 -35 -1z"/>
 <path d="M9295 1069 c-27 -10 -42 -18 -32 -19 20 0 87 26 87 34 0 4 -1 5 -2 5 -2 -1 -25 -10 -53 -20z"/>
 <path d="M7825 1065 c-16 -8 -23 -14 -15 -14 8 0 26 6 40 14 32 18 15 18 -25 0z"/>
 <path d="M6048 1043 c12 -2 32 -2 45 0 12 2 2 4 -23 4 -25 0 -35 -2 -22 -4z"/>
 </g>
<g id="layer2" fill="#de1920" stroke="none">
 <path d="M1855 4535 l-40 -14 40 7 c22 4 72 7 110 7 39 0 88 -3 110 -7 l40 -7 -40 14 c-22 7 -71 13 -110 13 -38 0 -88 -6 -110 -13z"/>
 <path d="M3531 4539 c-48 -14 -34 -20 19 -8 41 10 126 7 190 -6 14 -2 7 2 -15 9 -46 17 -144 19 -194 5z"/>
 <path d="M5303 4533 c37 -2 97 -2 135 0 37 2 6 3 -68 3 -74 0 -105 -1 -67 -3z"/>
 <path d="M1870 4520 c-19 -5 -46 -7 -58 -4 -28 6 -101 -38 -147 -87 -22 -23 -14 -19 28 15 32 25 61 46 64 46 8 0 11 3 -59 -54 -32 -25 -62 -46 -68 -46 -5 0 -10 -5 -10 -11 0 -5 5 -7 12 -3 7 4 8 3 4 -5 -4 -6 -11 -9 -16 -6 -4 3 -18 -10 -29 -29 -24 -38 -26 -50 -8 -41 6 4 4 0 -5 -8 -10 -8 -25 -33 -33 -57 -16 -46 -19 -78 -5 -45 9 19 5 -60 -6 -112 -4 -23 -13 -21 178 -39 l67 -6 6 28 c4 16 11 40 16 54 7 21 8 19 3 -10 -3 -19 -8 -44 -11 -55 -3 -11 -3 -17 1 -14 3 3 13 32 21 64 13 47 13 60 3 67 -11 6 -10 8 0 8 7 0 10 5 7 10 -4 6 -1 9 7 8 7 -2 12 5 12 14 -1 10 3 16 8 15 6 -1 13 4 16 12 3 9 0 11 -9 6 -8 -4 -4 2 8 15 43 45 151 36 194 -16 9 -11 9 -15 2 -10 -17 9 -16 -3 2 -34 19 -33 19 -122 0 -167 -9 -20 -14 -42 -11 -49 3 -7 -3 -18 -12 -26 -16 -12 -16 -11 -2 7 14 19 14 19 -3 6 -10 -8 -16 -20 -13 -26 4 -12 -72 -95 -88 -95 -5 0 2 9 15 20 13 10 19 19 14 20 -13 0 -280 -270 -322 -325 -31 -41 -73 -118 -73 -132 1 -4 8 3 16 17 10 17 13 18 9 5 -19 -54 -27 -98 -35 -185 l-8 -95 3 95 c2 52 6 109 10 125 3 17 -1 10 -10 -15 -31 -95 -12 -266 41 -356 25 -42 108 -129 141 -148 9 -5 -10 17 -43 50 -33 32 -40 40 -15 17 26 -23 73 -54 106 -70 53 -24 72 -27 160 -28 129 0 202 25 283 99 31 28 52 44 48 36 -4 -8 2 -4 13 9 12 13 21 28 21 35 0 6 -5 4 -11 -4 -9 -13 -10 -13 -6 0 2 8 9 15 16 15 12 0 31 23 31 38 0 5 -4 5 -10 2 -6 -3 -7 1 -4 9 3 9 10 14 14 11 10 -6 43 123 35 136 -4 5 -10 7 -14 5 -4 -3 -34 1 -67 8 -32 8 -84 17 -114 22 -46 6 -51 9 -30 15 15 4 18 7 8 8 -9 1 -24 4 -34 8 -12 4 -15 3 -10 -5 4 -7 2 -12 -3 -12 -6 0 -11 -12 -12 -27 -1 -32 -17 -77 -19 -53 -1 19 -29 -29 -29 -50 -1 -13 0 -13 10 0 7 10 9 11 7 2 -2 -8 -7 -13 -11 -12 -4 0 -19 -8 -34 -20 -15 -12 -41 -20 -63 -20 -22 0 -48 8 -63 20 -15 12 -29 20 -32 20 -4 -1 -10 2 -13 6 -4 4 -1 4 7 -1 11 -6 11 -1 5 26 -11 42 -11 113 -1 159 6 30 6 32 -4 10 -5 -14 -14 -50 -18 -80 -7 -42 -9 -47 -10 -20 -1 51 24 136 39 132 8 -2 10 3 7 12 -4 9 -2 15 2 13 8 -2 61 67 61 79 0 3 -6 2 -12 -1 -17 -9 64 68 188 179 79 70 85 74 29 20 -39 -38 -102 -97 -140 -132 -78 -70 -78 -78 0 -10 134 117 275 263 223 232 -9 -5 -9 -2 1 9 16 20 26 23 15 5 -5 -9 -2 -9 9 1 20 16 23 36 5 25 -8 -4 -10 -3 -5 2 5 5 14 9 20 9 12 0 76 110 77 130 0 6 -5 3 -10 -5 -9 -13 -10 -13 -10 0 0 8 5 22 10 30 9 13 10 13 11 0 1 -22 28 41 28 65 0 17 -1 18 -7 3 -4 -9 -7 31 -7 89 0 59 2 96 6 82 4 -13 7 -17 8 -9 2 30 -20 90 -33 90 -8 0 -16 10 -19 23 -6 21 -6 21 8 3 19 -26 19 -13 0 25 -9 16 -20 27 -25 24 -5 -3 -12 0 -16 6 -4 8 -3 9 4 5 7 -4 12 -3 12 3 0 13 -103 92 -155 119 -22 12 -34 21 -27 22 7 0 25 -7 40 -16 l27 -16 -24 19 c-14 10 -41 19 -60 20 -20 0 -74 4 -121 7 -47 3 -101 1 -120 -4z m-70 -20 c-20 -13 -33 -13 -25 0 3 6 14 10 23 10 15 0 15 -2 2 -10z m299 -385 c-1 -60 -6 -50 -12 23 -2 32 -1 48 4 40 5 -7 8 -35 8 -63z m-180 -297 c-3 -2 -56 -52 -119 -113 l-115 -110 110 113 c60 61 114 112 119 112 5 0 7 -1 5 -2z m-255 -263 c-14 -19 -29 -35 -31 -35 -5 0 7 18 36 53 26 31 23 18 -5 -18z m240 -130 c-9 -14 -18 -25 -21 -25 -5 0 5 18 20 38 17 22 18 13 1 -13z m456 -245 c-5 -22 -8 -27 -9 -13 -1 21 9 56 14 51 2 -2 0 -19 -5 -38z m-788 -45 c3 -13 1 -22 -3 -19 -9 5 -13 44 -5 44 2 0 6 -11 8 -25z m390 -55 c19 0 45 7 58 16 l25 16 -24 -21 c-28 -25 -80 -27 -121 -6 -17 9 -30 18 -30 21 0 2 13 -2 30 -11 16 -8 44 -15 62 -15z"/>
 <path d="M2723 4523 c37 -2 96 -2 130 0 34 2 4 3 -68 3 -71 0 -99 -1 -62 -3z"/>
 <path d="M3521 4515 c-68 -19 -112 -45 -176 -104 l-50 -46 45 48 c25 26 68 61 95 77 28 16 46 30 40 29 -32 0 -172 -116 -197 -163 -10 -20 -10 -20 7 -6 17 14 17 14 5 -7 -8 -12 -17 -20 -22 -17 -9 6 -42 -56 -34 -64 3 -3 6 -1 6 4 0 6 7 19 15 30 11 14 10 9 -3 -21 -15 -36 -18 -96 -22 -580 l-6 -540 1 542 c0 298 -3 535 -7 525 -8 -21 -10 -1048 -2 -1079 4 -13 9 -21 13 -19 3 2 14 -15 23 -37 13 -32 14 -37 3 -23 -8 11 -15 24 -15 30 0 5 -3 7 -6 4 -8 -9 36 -89 46 -83 5 3 12 0 16 -6 4 -8 3 -9 -4 -5 -7 4 -12 3 -12 -2 0 -19 146 -149 156 -139 3 2 -10 14 -28 25 -18 12 -51 40 -73 63 -37 39 -35 39 17 -8 31 -27 77 -60 102 -72 140 -65 303 -47 420 48 21 17 42 31 45 31 8 0 -47 -45 -86 -71 -18 -11 -56 -29 -85 -39 -29 -11 -44 -19 -32 -20 51 -1 221 108 210 135 -2 7 5 21 17 32 l22 18 -19 -22 c-11 -13 -14 -23 -8 -23 14 0 35 37 27 50 -3 5 0 12 6 16 8 5 10 2 5 -7 -4 -8 2 -3 13 10 12 13 21 28 21 34 0 6 -7 2 -15 -9 -8 -11 -4 10 11 54 l25 72 -3 524 c-2 289 -1 522 2 519 3 -2 7 -239 10 -526 l6 -522 2 501 c2 426 0 508 -13 552 -9 29 -20 52 -25 52 -5 0 -15 10 -21 23 -12 21 -11 21 6 7 17 -14 18 -14 6 8 -7 12 -16 20 -21 17 -5 -3 -12 0 -16 6 -5 8 -3 9 6 4 8 -5 11 -3 8 6 -3 8 -10 14 -15 14 -6 0 -15 4 -20 9 -5 5 -3 6 5 2 6 -4 12 -2 12 3 0 6 -10 11 -22 11 -17 0 -19 3 -10 9 10 6 3 17 -30 43 -69 56 -97 71 -136 74 -21 1 -71 5 -112 8 -53 4 -91 1 -129 -9z m322 -42 c31 -20 54 -39 52 -42 -3 -2 -13 3 -22 12 -10 8 -38 27 -63 41 -25 14 -40 26 -34 26 6 0 36 -17 67 -37z m-170 -226 c18 -8 39 -22 47 -32 12 -15 12 -17 1 -10 -11 7 -13 4 -5 -11 5 -10 10 -240 12 -516 l2 -496 -25 -31 c-14 -16 -26 -34 -26 -38 1 -4 -26 -8 -59 -8 -33 0 -60 5 -61 10 0 6 -9 19 -19 30 -38 41 -40 65 -40 531 0 382 2 460 15 491 18 43 18 46 3 37 -8 -5 -7 0 2 11 18 22 66 44 98 45 12 0 37 -6 55 -13z m74 -809 c-1 -134 -2 -27 -2 237 0 264 1 373 2 243 2 -130 2 -346 0 -480z m-255 115 c2 -205 0 -365 -4 -355 -4 9 -6 224 -5 477 1 253 3 413 4 355 2 -58 4 -272 5 -477z m238 -402 c-5 -11 -15 -23 -22 -27 -7 -5 -8 -2 -3 7 21 37 44 55 25 20z"/>
 <path d="M3563 4235 c-48 -20 -40 -25 10 -7 39 14 48 14 90 0 55 -18 62 -13 12 8 -43 17 -71 17 -112 -1z"/>
 <path d="M3593 3113 c15 -2 39 -2 55 0 15 2 2 4 -28 4 -30 0 -43 -2 -27 -4z"/>
 <path d="M4173 4523 c37 -2 96 -2 130 0 34 2 4 3 -68 3 -71 0 -99 -1 -62 -3z"/>
 <path d="M4732 4523 c37 -2 100 -2 140 0 40 1 10 3 -67 3 -77 0 -110 -1 -73 -3z"/>
 <path d="M5225 4170 c0 -195 1 -275 2 -178 2 98 2 258 0 355 -1 98 -2 18 -2 -177z"/>
 <path d="M5240 4165 c0 -299 -2 -356 -14 -361 -8 -3 -19 -19 -25 -36 -14 -38 -14 -47 -1 -28 8 11 9 7 4 -15 -9 -42 -26 -69 -19 -30 4 19 -2 12 -15 -20 -23 -57 -26 -85 -4 -40 8 17 12 22 9 12 -3 -11 -8 -30 -11 -44 -5 -19 -9 -22 -16 -11 -7 9 -8 3 -4 -17 4 -19 3 -25 -2 -16 -11 15 -16 8 -26 -31 -4 -16 -2 -28 3 -28 6 0 8 -7 5 -15 -4 -8 -10 -13 -14 -10 -4 3 -15 -13 -24 -35 -20 -50 -20 -76 -1 -35 13 25 14 26 9 5 -3 -14 -12 -29 -18 -35 -18 -14 -36 -51 -36 -72 1 -12 5 -9 15 12 13 25 14 26 9 5 -3 -14 -12 -30 -20 -36 -15 -12 -44 -76 -44 -96 1 -7 7 1 15 17 14 29 14 24 -1 -40 -6 -25 -8 -27 -14 -10 -5 15 -14 -1 -33 -60 -14 -44 -29 -89 -32 -100 -6 -16 -5 -17 4 -5 9 12 10 9 5 -15 -9 -42 -26 -69 -18 -30 4 24 2 22 -15 -14 -12 -24 -21 -51 -21 -60 1 -9 7 -3 15 14 l14 30 -6 -32 -5 -33 143 -2 144 -2 -145 -6 -145 -6 144 0 c126 1 144 3 147 18 1 9 7 24 13 35 11 16 11 15 6 -7 -5 -19 -4 -22 4 -10 13 18 14 53 2 46 -5 -3 1 26 13 64 23 71 38 101 30 58 -2 -12 6 4 17 37 14 38 18 60 11 63 -7 2 -5 18 5 48 8 25 17 43 19 41 3 -2 0 -17 -6 -32 -6 -15 -9 -30 -7 -32 7 -6 37 75 36 95 0 14 -2 14 -10 -3 -8 -19 -9 -19 -6 3 1 12 6 21 11 20 5 -2 15 13 22 32 15 42 17 60 4 40 -10 -16 -5 36 11 100 6 27 7 20 4 -30 -3 -46 -1 -56 4 -35 7 23 9 25 10 9 0 -12 8 -40 16 -63 8 -23 10 -39 5 -36 -4 3 -11 19 -15 36 -4 17 -9 28 -12 26 -7 -8 19 -87 28 -82 8 5 32 -55 25 -63 -3 -2 -8 8 -12 22 -3 15 -8 25 -11 23 -4 -4 36 -147 55 -197 5 -14 12 -24 16 -22 14 5 20 1 8 -7 -12 -7 -11 -18 4 -65 10 -30 20 -53 23 -50 3 2 12 -10 21 -28 l15 -33 144 -3 143 -3 -6 28 -6 28 15 -25 16 -25 -7 24 c-12 45 -31 82 -40 81 -5 -1 -10 7 -12 17 -3 15 -1 16 7 3 16 -22 13 -1 -5 47 -9 24 -23 43 -30 43 -8 0 -14 8 -14 18 0 14 2 15 10 2 9 -13 10 -13 9 0 0 18 -38 109 -39 95 -1 -12 -29 36 -29 50 0 6 6 -1 15 -15 l15 -25 -7 25 c-3 14 -10 32 -15 40 -7 13 -8 13 -9 0 0 -13 -1 -13 -10 0 -6 9 -5 17 2 21 8 5 6 21 -7 54 -11 29 -20 43 -25 35 -5 -8 -9 -5 -13 9 -2 11 -1 21 4 23 5 2 2 25 -7 52 -10 29 -19 43 -24 36 -5 -8 -10 -3 -14 13 -3 14 -8 33 -11 44 -3 10 1 5 9 -12 22 -43 19 -21 -6 54 -21 65 -47 112 -33 61 5 -19 4 -21 -4 -10 -6 8 -8 23 -5 33 3 10 -1 24 -9 30 -8 7 -18 23 -21 37 -5 21 -4 20 9 -5 8 -16 14 -24 15 -18 0 21 -31 93 -41 93 -5 0 -9 154 -9 355 l0 355 -135 0 -135 0 0 -355z m224 -1035 c4 -24 3 -29 -3 -15 -4 11 -11 36 -15 55 -4 24 -3 29 3 15 4 -11 11 -36 15 -55z m49 -155 c16 -45 14 -65 -2 -22 -16 42 -22 67 -18 67 3 0 12 -20 20 -45z"/>
 <path d="M2648 3823 l-3 -688 -5 685 -5 685 -3 -682 -2 -683 -122 -2 -123 -2 135 -6 135 -6 -132 -2 -133 -2 0 -135 0 -135 395 0 395 0 0 135 0 135 -137 2 -138 2 135 6 135 6 -117 2 -118 2 -2 683 -3 682 -5 -685 -5 -685 -3 688 -2 687 -135 0 -135 0 -2 -687z"/>
 <path d="M4085 3685 c0 -456 1 -645 2 -418 2 226 2 600 0 830 -1 230 -2 45 -2 -412z"/>
 <path d="M4100 3680 l0 -830 223 0 c152 0 243 5 288 14 71 15 137 45 158 70 7 9 17 14 21 11 13 -8 72 66 66 82 -3 8 -1 11 4 8 34 -21 65 196 57 394 -5 140 -29 249 -54 244 -7 -2 -10 4 -7 12 7 17 -14 48 -26 40 -4 -3 -14 3 -21 12 -10 12 -10 14 -1 9 18 -11 15 9 -5 25 -15 12 -16 12 -8 -1 8 -13 7 -13 -8 -1 -18 15 -23 26 -7 16 6 -3 10 4 10 18 0 14 7 44 15 67 8 23 15 50 14 59 0 9 -8 -9 -19 -39 -24 -74 -24 -60 1 41 22 87 36 120 26 59 -4 -24 0 -18 13 20 22 65 24 90 8 90 -6 0 -2 9 10 20 12 12 22 26 22 33 0 7 3 23 5 37 3 16 0 12 -9 -10 -18 -45 -19 -29 -1 35 9 35 14 43 15 25 1 -15 10 4 21 45 20 75 23 103 9 70 -7 -14 -8 -8 -3 20 6 45 13 58 14 29 0 -10 9 5 20 35 19 55 18 85 -1 40 -10 -23 -10 -23 -5 4 l5 27 -144 0 -145 0 -12 -62 c-9 -43 -14 -56 -19 -43 -5 14 -9 8 -18 -27 -15 -60 -14 -72 3 -28 18 47 18 27 1 -30 -8 -25 -15 -36 -16 -25 -1 11 -10 -14 -21 -55 -10 -41 -17 -79 -15 -85 2 -5 5 -1 5 9 1 11 4 17 7 14 3 -3 -5 -47 -16 -98 -12 -50 -24 -89 -27 -87 -2 3 3 33 12 67 9 34 14 64 12 67 -3 2 -13 -26 -22 -62 -13 -46 -15 -69 -8 -76 6 -6 8 -20 5 -31 -3 -14 -7 -16 -13 -7 -5 9 -10 5 -14 -14 -7 -26 -10 -27 -76 -27 l-69 0 0 300 0 300 -130 0 -130 0 0 -830z m744 376 c-3 -15 -8 -25 -11 -23 -2 3 -1 17 3 31 3 15 8 25 11 23 2 -3 1 -17 -3 -31z m-361 -163 c-24 -2 -62 -2 -85 0 -24 2 -5 4 42 4 47 0 66 -2 43 -4z m407 -288 c7 -22 13 -116 15 -210 l3 -170 -8 170 c-5 104 -14 189 -23 219 -9 27 -12 45 -7 40 4 -5 13 -27 20 -49z m-320 4 c19 -11 26 -18 16 -14 -16 5 -17 3 -6 -10 7 -8 16 -13 20 -10 5 3 12 0 16 -6 5 -8 3 -9 -6 -4 -10 6 -11 4 -4 -11 5 -10 10 -88 12 -173 3 -134 1 -158 -16 -191 -16 -33 -16 -37 -3 -34 9 2 -2 -5 -24 -16 -32 -15 -58 -19 -130 -18 l-90 1 102 6 c56 3 104 9 107 12 3 3 -41 4 -99 1 l-105 -5 0 238 0 237 99 -4 c126 -4 121 5 -7 13 l-97 5 90 2 c74 1 96 -2 125 -19z m67 -316 c-1 -43 -3 -10 -3 72 0 83 2 118 3 78 2 -40 2 -107 0 -150z m260 -125 c-2 -13 -4 -5 -4 17 -1 22 1 32 4 23 2 -10 2 -28 0 -40z m-17 -85 c-11 -17 -11 -17 -6 0 3 10 6 24 7 30 0 9 2 9 5 0 3 -7 0 -20 -6 -30z"/>
 <path d="M4635 4480 c-4 -17 -5 -34 -2 -36 2 -3 7 10 11 27 8 42 0 50 -9 9z"/>
 <path d="M2200 4477 c0 -3 17 -17 38 -33 30 -23 33 -24 17 -5 -19 22 -55 46 -55 38z"/>
 <path d="M1928 4263 c12 -2 32 -2 45 0 12 2 2 4 -23 4 -25 0 -35 -2 -22 -4z"/>
 <path d="M2383 4105 c0 -27 2 -38 4 -22 2 15 2 37 0 50 -2 12 -4 0 -4 -28z"/>
 <path d="M1522 4113 c-1 -17 -5 -40 -8 -50 -5 -17 -5 -17 6 0 6 9 9 32 7 50 l-4 32 -1 -32z"/>
 <path d="M1567 4030 c18 -4 74 -10 125 -13 59 -4 77 -3 48 2 -63 11 -213 21 -173 11z"/>
 <path d="M1990 3910 c-14 -10 -22 -21 -19 -24 3 -3 16 5 29 19 28 30 24 32 -10 5z"/>
 <path d="M2248 3255 c40 -7 81 -16 90 -20 11 -4 13 -3 7 3 -12 12 -106 32 -143 31 -15 0 6 -7 46 -14z"/>
 <path d="M2082 3235 c0 -16 2 -22 5 -12 2 9 2 23 0 30 -3 6 -5 -1 -5 -18z"/>
 <path d="M4028 3145 c-4 -16 -9 -39 -13 -50 -3 -11 1 -7 10 8 9 16 15 38 13 50 -3 19 -5 17 -10 -8z"/>
 <path d="M2374 2985 c0 -77 2 -107 3 -67 2 40 2 103 0 140 -2 37 -3 4 -3 -73z"/>
 <path d="M3194 2985 c0 -71 1 -99 3 -62 2 37 2 96 0 130 -2 34 -3 4 -3 -68z"/>
 <path d="M5242 2973 c-15 -48 -8 -55 8 -8 7 20 10 38 8 41 -3 2 -10 -13 -16 -33z"/>
 <path d="M2244 2939 c-10 -12 -37 -35 -58 -50 -21 -16 -35 -29 -30 -29 11 0 108 78 112 91 6 15 -4 10 -24 -12z"/>
 <path d="M4761 2917 c-6 -8 -29 -22 -51 -32 -22 -10 -38 -20 -36 -22 6 -7 81 34 95 51 8 9 11 16 8 16 -2 0 -10 -6 -16 -13z"/>
 <path d="M5520 2881 c0 -11 4 -22 9 -25 4 -3 6 6 3 19 -5 30 -12 33 -12 6z"/>
 <path d="M1795 2839 c22 -10 49 -18 60 -18 11 0 -5 8 -35 19 -69 24 -77 24 -25 -1z"/>
 <path d="M2075 2839 c-27 -10 -41 -18 -30 -18 11 0 38 8 60 18 50 24 36 24 -30 0z"/>
 <path d="M3480 2840 c19 -11 46 -19 60 -19 16 0 6 6 -30 19 -69 24 -74 24 -30 0z"/>
 <path d="M4616 2853 c-4 -5 -123 -11 -264 -14 l-257 -6 255 2 c149 1 267 6 285 13 23 8 25 10 9 11 -11 1 -24 -2 -28 -6z"/>
 <path d="M5550 2838 c0 -5 64 -7 143 -6 145 2 128 6 -46 10 -53 2 -97 0 -97 -4z"/>
 <path d="M2583 2833 c108 -2 286 -2 395 0 108 1 19 2 -198 2 -217 0 -306 -1 -197 -2z"/>
 <path d="M2718 2753 c17 -2 47 -2 65 0 17 2 3 4 -33 4 -36 0 -50 -2 -32 -4z"/>
 <path d="M3703 2753 c15 -2 39 -2 55 0 15 2 2 4 -28 4 -30 0 -43 -2 -27 -4z"/>
 <path d="M2602 2733 c-18 -8 -30 -18 -27 -21 3 -3 -12 -16 -33 -30 -20 -14 -51 -37 -67 -51 -21 -17 -19 -15 5 9 19 19 46 43 60 52 14 9 20 17 14 17 -19 1 -135 -111 -130 -125 3 -7 0 -16 -6 -20 -7 -5 -8 -2 -3 6 6 9 4 11 -4 5 -20 -11 -71 -127 -70 -155 1 -21 2 -20 9 8 4 18 11 36 14 39 3 4 3 -9 -1 -28 -5 -19 -8 -270 -8 -559 0 -401 3 -533 13 -560 7 -19 8 -30 3 -25 -6 6 -15 28 -20 50 -5 23 -9 31 -10 18 -1 -32 29 -103 44 -103 7 0 16 -7 19 -16 6 -15 4 -15 -10 -3 -16 13 -16 12 -6 -8 7 -12 17 -25 24 -29 7 -4 8 -3 4 4 -11 18 0 14 15 -5 10 -11 10 -14 2 -9 -27 16 -11 -12 30 -51 45 -43 115 -93 131 -93 6 0 -11 13 -37 30 -26 16 -47 32 -47 35 0 3 17 -6 38 -20 106 -70 293 -73 402 -6 14 8 43 29 65 45 36 27 38 27 20 6 -16 -20 -13 -19 13 4 32 29 44 54 20 40 -10 -5 -10 -3 0 7 7 8 18 14 25 14 18 0 71 112 60 127 -5 7 -6 31 -2 53 l6 40 3 -40 3 -40 8 45 c9 55 11 940 1 994 -4 22 -7 -185 -6 -460 l0 -499 -6 495 c-4 272 -10 509 -14 525 -6 23 -5 26 3 15 17 -24 14 6 -4 41 -9 16 -20 27 -24 24 -5 -3 -12 2 -15 11 -3 8 -2 12 4 9 6 -3 10 -2 10 3 0 12 -25 33 -32 27 -3 -3 -11 3 -19 12 -13 16 -12 17 4 4 32 -25 17 5 -21 42 -37 36 -61 49 -46 26 4 -7 -7 -1 -25 12 -38 28 -41 37 -3 15 l27 -17 -23 20 c-13 11 -29 18 -37 15 -7 -3 -28 2 -46 12 -21 10 -66 19 -119 22 -76 4 -102 1 -175 -22 -11 -4 -2 3 20 14 22 11 33 19 25 20 -8 0 -30 -8 -48 -17z m207 -277 c15 -8 34 -23 42 -33 13 -17 13 -17 -6 -2 -41 33 -49 32 -20 -3 17 -20 37 -37 45 -38 10 -1 11 -3 3 -7 -18 -7 -19 -953 -1 -971 9 -9 8 -12 -5 -12 -9 0 -17 -5 -17 -11 0 -5 6 -7 13 -3 7 4 9 3 4 -2 -5 -5 -10 -7 -12 -4 -2 3 -15 -6 -30 -20 -21 -19 -37 -25 -73 -25 -26 0 -56 4 -67 8 -11 5 -9 2 5 -7 35 -21 78 -20 124 5 21 11 35 16 32 11 -10 -17 -73 -42 -103 -42 -35 1 -78 24 -78 42 0 7 -7 13 -15 13 -13 0 -15 65 -15 522 0 344 -3 519 -10 515 -6 -3 -6 -1 -2 4 5 5 12 9 16 9 3 0 19 10 35 23 16 12 24 22 19 22 -6 0 -16 -7 -23 -15 -7 -8 -17 -15 -23 -15 -15 0 2 16 38 34 38 20 88 20 124 2z m-184 -576 c0 -274 -3 -492 -7 -482 -14 36 -9 982 6 982 0 0 1 -225 1 -500z m252 -232 c-1 -134 -2 -27 -2 237 0 264 1 373 2 243 2 -130 2 -346 0 -480z m-401 -500 l29 -33 -32 29 c-31 28 -38 36 -30 36 2 0 16 -15 33 -32z"/>
 <path d="M2733 2453 c9 -2 23 -2 30 0 6 3 -1 5 -18 5 -16 0 -22 -2 -12 -5z"/>
 <path d="M2870 2736 c68 -26 75 -27 40 -7 -19 11 -44 20 -55 20 -12 0 -7 -5 15 -13z"/>
 <path d="M3554 2720 c-33 -16 -71 -42 -85 -57 -21 -23 -19 -22 17 6 23 18 68 43 100 56 32 14 52 25 43 25 -9 0 -43 -13 -75 -30z"/>
 <path d="M3821 2747 c10 -9 89 -36 89 -31 0 6 -65 34 -81 34 -7 0 -10 -2 -8 -3z"/>
 <path d="M1813 2733 c37 -2 97 -2 135 0 37 2 6 3 -68 3 -74 0 -105 -1 -67 -3z"/>
 <path d="M3627 2730 c-60 -15 -117 -49 -176 -104 -31 -28 -46 -39 -33 -25 12 14 22 29 22 34 0 11 -59 -57 -60 -68 0 -5 6 -5 13 -1 7 4 9 3 4 -2 -5 -5 -14 -9 -19 -9 -6 0 -13 -6 -16 -14 -3 -9 0 -11 9 -6 8 5 11 4 6 -1 -5 -5 -14 -9 -20 -9 -7 0 -13 -9 -15 -20 -3 -16 -1 -17 7 -5 6 8 11 10 11 5 0 -6 -9 -18 -19 -27 -11 -9 -22 -36 -26 -60 -3 -24 -4 -338 -3 -698 l3 -655 3 677 c1 372 5 679 10 681 4 3 6 -303 4 -679 l-2 -684 130 0 130 0 2 668 c2 436 6 667 13 667 16 0 35 15 35 27 0 6 -7 5 -17 -3 -10 -7 -6 0 9 16 21 22 37 29 80 32 38 3 59 0 73 -11 l20 -16 -20 7 c-11 3 -18 4 -15 2 3 -2 15 -13 28 -24 23 -19 23 -19 16 1 -8 20 -6 20 16 -10 13 -17 13 -18 1 -11 -11 7 -13 4 -5 -11 5 -11 11 -310 14 -679 l6 -660 -1 667 c0 367 3 660 7 650 4 -9 7 -308 7 -664 l1 -648 135 0 135 0 -2 684 c-2 376 0 682 5 679 4 -2 8 -311 9 -686 l3 -682 3 660 c1 363 0 679 -3 703 -4 24 -15 51 -26 60 -10 9 -19 21 -19 27 0 5 5 3 11 -5 8 -12 10 -11 7 5 -2 11 -8 20 -15 20 -6 0 -15 4 -20 9 -5 5 -2 6 6 1 9 -5 12 -3 9 6 -3 8 -10 14 -15 14 -6 0 -15 4 -20 9 -5 5 -3 6 5 2 29 -17 8 14 -44 64 -31 30 -54 49 -50 43 10 -19 -2 -16 -31 7 -14 11 -21 20 -16 20 5 0 15 -6 23 -12 12 -11 12 -10 0 5 -7 10 -19 16 -27 13 -8 -3 -31 1 -51 10 -44 19 -191 27 -245 14z m398 -110 c21 -22 37 -40 34 -40 -3 0 -23 18 -44 40 -21 22 -37 40 -34 40 3 0 23 -18 44 -40z"/>
 <path d="M4363 2733 c37 -2 97 -2 135 0 37 2 6 3 -68 3 -74 0 -105 -1 -67 -3z"/>
 <path d="M4933 2733 c43 -2 110 -2 150 0 40 1 5 3 -78 3 -82 0 -115 -2 -72 -3z"/>
 <path d="M1750 2385 c0 -335 -8 -425 -36 -425 -7 0 -17 -14 -23 -31 -13 -39 -14 -49 -1 -29 9 13 10 13 9 0 -1 -23 -17 -58 -19 -40 -2 17 -38 -58 -39 -80 0 -8 8 3 19 25 11 22 18 31 14 20 -3 -11 -12 -41 -20 -67 -16 -51 -29 -66 -18 -20 12 47 -3 20 -31 -58 -34 -97 -40 -120 -26 -100 6 8 11 11 11 5 0 -14 -20 -43 -20 -30 -1 12 -25 -41 -34 -76 l-7 -24 16 25 16 25 -7 -25 c-3 -14 -12 -30 -19 -35 -14 -12 -45 -80 -45 -99 1 -6 7 3 15 19 l14 30 -6 -30 c-6 -30 -23 -58 -23 -40 -1 6 -7 -5 -15 -24 -8 -18 -13 -45 -10 -60 3 -14 2 -20 -1 -12 -7 14 -24 -17 -38 -70 l-7 -24 16 25 16 25 -7 -25 c-3 -14 -12 -29 -18 -35 -12 -10 -36 -49 -36 -58 0 -3 70 -6 156 -6 151 -2 156 -1 161 19 4 14 8 18 13 10 4 -6 22 34 40 90 17 56 30 104 27 106 -2 3 -8 -7 -11 -22 -4 -14 -9 -24 -12 -22 -6 6 14 61 25 68 9 6 41 86 41 103 -1 6 -7 -1 -15 -18 l-14 -30 6 30 c7 37 12 47 22 41 4 -3 15 19 24 48 19 58 21 80 9 72 -5 -3 -1 23 7 57 l16 62 3 -40 c2 -22 -1 -41 -7 -43 -15 -5 -13 -23 5 -47 15 -19 15 -19 10 10 -6 28 -5 27 7 -5 9 -22 10 -37 4 -41 -6 -4 -1 -29 11 -65 12 -33 21 -54 22 -49 1 14 16 -15 24 -45 5 -21 3 -20 -9 5 -17 36 -19 21 -4 -24 7 -19 15 -28 18 -22 4 6 16 -21 28 -60 11 -39 17 -67 13 -62 -5 4 -15 31 -23 58 -9 28 -16 43 -16 34 -2 -28 29 -103 46 -112 11 -7 12 -11 3 -17 -9 -6 -9 -16 0 -48 l13 -40 155 -2 c151 -1 154 0 149 20 -7 27 1 26 13 -2 8 -18 9 -16 4 12 -10 54 -36 113 -44 100 -5 -8 -9 -4 -13 9 -3 12 -1 19 4 15 14 -8 10 17 -12 66 -15 35 -18 38 -14 15 7 -38 -10 -12 -19 30 -5 22 -4 26 4 15 13 -19 13 -10 -1 28 -6 17 -17 33 -25 36 -8 3 -14 13 -13 23 0 16 1 16 9 -2 5 -13 9 -15 9 -5 0 8 -9 35 -20 60 -18 41 -20 34 -5 -15 3 -11 -2 -2 -13 20 -13 26 -16 42 -9 46 11 7 -19 99 -32 99 -5 0 -6 8 -4 18 3 9 -4 38 -16 62 -17 36 -20 39 -16 15 8 -39 -9 -12 -18 30 -5 23 -4 27 4 15 9 -12 10 -10 4 10 -3 14 -10 32 -15 40 -7 13 -9 13 -9 0 -1 -10 -4 -8 -9 5 -5 11 -4 23 1 26 5 3 0 27 -10 55 -14 34 -21 43 -23 30 -3 -12 -10 0 -20 32 -18 59 -15 67 7 20 8 -18 12 -22 7 -8 -4 14 -10 187 -13 385 l-5 360 -5 -350 -5 -350 -3 348 -2 347 -130 0 -130 0 0 -335z"/>
 <path d="M4285 1890 c0 -459 1 -647 2 -418 2 230 2 606 0 835 -1 230 -2 42 -2 -417z"/>
 <path d="M4300 1890 l0 -830 238 0 c251 0 319 9 390 51 19 10 37 17 42 14 12 -8 92 86 86 102 -3 7 0 12 6 10 7 -1 14 6 16 17 3 13 0 16 -10 11 -7 -3 -5 0 4 8 21 16 38 60 37 90 -1 12 -5 4 -10 -18 -5 -22 -14 -44 -20 -50 -5 -5 -4 6 3 25 9 25 13 102 13 258 0 123 3 213 7 200 l6 -23 1 23 c1 30 -56 155 -68 148 -5 -3 -15 2 -22 12 -13 15 -12 16 4 3 28 -22 20 3 -10 30 -20 18 -24 19 -13 4 15 -20 14 -20 -8 -1 -23 20 -30 32 -12 21 6 -3 10 0 10 7 0 7 3 24 6 38 4 22 3 21 -10 -5 l-15 -30 6 30 c3 17 10 39 14 50 l8 20 1 -20 c1 -11 10 12 20 50 21 75 24 102 9 70 -8 -17 -9 -17 -4 5 2 14 5 34 6 45 0 19 1 19 8 1 5 -14 12 -2 25 48 10 37 16 69 14 71 -2 3 -10 -18 -17 -46 -7 -27 -15 -48 -17 -46 -5 5 35 170 43 177 3 3 2 -11 -2 -30 -15 -70 5 -21 31 76 32 120 41 172 15 89 -10 -33 -23 -76 -29 -95 l-11 -35 5 35 c11 65 47 179 55 174 5 -3 9 -1 9 5 0 5 3 16 6 24 5 13 -17 15 -150 16 -108 1 -156 -2 -156 -9 0 -6 -4 -9 -9 -6 -5 3 -14 -14 -20 -39 -13 -51 -13 -68 -1 -40 6 13 7 5 3 -25 -8 -63 -24 -98 -17 -40 l4 45 -15 -50 c-8 -27 -17 -63 -20 -80 -5 -29 -5 -29 10 5 l15 35 -6 -35 c-8 -53 -15 -71 -23 -65 -5 2 -13 -13 -20 -34 -13 -46 -14 -74 0 -46 8 17 9 17 4 -5 -2 -14 -5 -32 -6 -40 0 -10 -3 -8 -9 5 -8 19 -9 19 -9 -2 -1 -13 3 -23 8 -23 5 0 7 -10 3 -22 -5 -21 -6 -21 -12 -3 -5 14 -12 -2 -24 -53 l-18 -72 -59 0 -59 0 -2 303 -3 302 -5 -305 -5 -305 -3 303 -2 302 -130 0 -130 0 0 -830z m429 276 c-6 -26 -13 -45 -16 -43 -2 3 1 26 8 51 6 26 13 45 16 43 2 -3 -1 -26 -8 -51z m-46 -63 c-24 -2 -62 -2 -85 0 -24 2 -5 4 42 4 47 0 66 -2 43 -4z m85 -279 c12 -8 20 -19 17 -24 -5 -8 24 -37 34 -32 13 7 19 -49 20 -185 1 -142 -3 -178 -20 -167 -5 3 -9 0 -9 -7 0 -7 -10 -24 -22 -38 l-23 -25 28 17 c15 10 27 15 27 12 0 -3 -15 -14 -32 -25 -28 -17 -49 -20 -133 -18 l-100 2 100 6 100 6 -87 2 -88 2 0 235 0 235 81 0 c44 0 90 -5 102 -11 19 -10 20 -9 9 2 -8 9 -48 16 -115 20 l-102 5 95 2 c73 2 101 -2 118 -14z m-201 -356 c-1 -68 -3 -15 -3 117 0 132 2 187 3 123 2 -64 2 -172 0 -240z m453 -291 c0 -2 -12 -14 -27 -28 l-28 -24 24 28 c23 25 31 32 31 24z"/>
 <path d="M4824 1575 c0 -82 2 -115 3 -72 2 43 2 110 0 150 -1 40 -3 5 -3 -78z"/>
 <path d="M1722 2365 c-1 -192 -5 -361 -7 -375 l-6 -25 11 24 c7 15 9 147 7 375 l-2 351 -3 -350z"/>
 <path d="M3708 2453 c12 -2 30 -2 40 0 9 3 -1 5 -23 4 -22 0 -30 -2 -17 -4z"/>
 <path d="M2335 1890 c0 -261 1 -368 2 -238 2 131 2 345 0 475 -1 131 -2 24 -2 -237z"/>
 <path d="M5114 1570 c0 -102 2 -143 3 -92 2 50 2 134 0 185 -1 50 -3 9 -3 -93z"/>
 <path d="M4943 1109 c-6 -6 -39 -21 -74 -34 -35 -13 -55 -24 -44 -24 24 -1 120 42 129 58 9 14 3 14 -11 0z"/>
 <path d="M2935 1070 c-16 -11 -25 -20 -19 -20 11 0 64 39 54 40 -3 0 -18 -9 -35 -20z"/>
 <path d="M1488 1043 c39 -2 105 -2 145 0 39 1 7 3 -73 3 -80 0 -112 -2 -72 -3z"/>
 <path d="M2128 1043 c39 -2 105 -2 145 0 39 1 7 3 -73 3 -80 0 -112 -2 -72 -3z"/>
 <path d="M2640 1036 c20 -8 69 -14 115 -14 46 0 95 6 115 14 30 12 31 13 5 7 -16 -5 -70 -8 -120 -8 -49 0 -103 3 -120 8 -26 6 -25 5 5 -7z"/>
 <path d="M3393 1043 c37 -2 96 -2 130 0 34 2 4 3 -68 3 -71 0 -99 -1 -62 -3z"/>
 <path d="M3922 1043 c37 -2 100 -2 140 0 40 1 10 3 -67 3 -77 0 -110 -1 -73 -3z"/>
 <path d="M4418 1043 c68 -2 176 -2 240 0 64 1 9 3 -123 3 -132 0 -185 -2 -117 -3z"/>
 </g>

</svg>